<svg enable-background="new 0 0 437 643" viewBox="0 0 437 643" xmlns="http://www.w3.org/2000/svg"><path d="m0 0h437v643h-437z" fill="#fff"/><path d="m0 133.9h437v219.4h-437z" fill="#f2e0cc"/><path d="m94.7 118.7-.6 4.3h-12.1l-2.5 19.8h12.1l-.6 4.3h-12.1l-3 24.4h-4.4l3-24.4h-17.2l-3 24.4h-4.4l3-24.4h-12.2l.6-4.3h12.1l2.6-19.8h-12.2l.6-4.3h12.1l3.1-24.5h4.4l-3 24.5h17.2l3.1-24.5h4.4l-3.1 24.5zm-17.1 4.3h-17.2l-2.5 19.8h17.1z" fill="#eb5e5e"/><path d="m211.9 119.2-4 18h-18.6v37.4h-27.6v-37.4h-53.8l-4.4-11.2 62-85.8 23.8 1.2v77.8zm-50.2 0v-55.2l-39.2 55.2z" fill="#eb5e5e"/><path d="m68.4 390.3-1.6.4-6 17.7h-2.2l-3.8-11.4-3.8 11.4h-2.2l-6.1-17.7-1.6-.4v-1.3h8.8v1.3l-2 .4 3.5 11.3 2.4-7.7-1.2-3.6-1.4-.4v-1.3h8.8v1.3l-2.2.4v.1l3.5 11.3 3.4-11.4-2.1-.4v-1.3h5.9v1.3z"/><path d="m85.3 408.4h-15.9v-1.3l2.3-.4v-16.1l-2.3-.4v-1.3h15.4v5.1h-1.7l-.5-3.4h-6.1v6.8h4l.3-2.1h1.4v5.9h-1.4l-.3-2.1h-4v7.3h6.5l.5-3.7h1.8z"/><path d="m92.8 406.3c0 1.3-1 2.3-2.3 2.3s-2.3-1-2.3-2.3 1-2.3 2.3-2.3 2.3 1.1 2.3 2.3z"/><path d="m125.3 408.4h-7v-.7l2.4-.2-.9-15.8-6.9 16.7h-.2l-7-16.6-.9 15.5 2.4.4v.7h-5.8v-.7l2.3-.4 1-17.3-2.4-.3v-.7h4.7l6.5 15.5 6.4-15.5h4.6v.7l-2.5.3 1 17.5 2.3.2z"/><path d="m146.2 398.6c0 6.1-4.1 10.2-9.6 10.2s-9.4-3.8-9.4-9.9 4.1-10.2 9.6-10.2c5.5-.1 9.4 3.8 9.4 9.9zm-2.6.3c0-5.7-3.1-9.3-7-9.3-3.8 0-6.8 3.3-6.8 9s3.1 9.3 7 9.3c3.8-.1 6.8-3.3 6.8-9z"/><path d="m165.2 408.4h-3.7l-5.8-8.5-2.5.2v7.4l2.6.2v.7h-7.3v-.7l2.3-.2v-17.5l-2.3-.2v-.7h7.4c3.3 0 6.1 1.5 6.1 4.8 0 2.6-1.7 4.7-4.1 5.5l5.6 8.1 1.6.3v.6zm-5.6-14.1c0-2.9-1.6-4.3-4.4-4.3-.7 0-1.3 0-2 .1v9h1.5c3 0 4.9-1.8 4.9-4.8z"/><path d="m179.9 408.4h-13.4v-.7l2.3-.2v-17.5l-2.3-.2v-.7h13v4.1h-.8l-.4-3.1h-7v7.8h5.2l.3-2.1h.8v5.1h-.8l-.3-2.1h-5.2v8.5h7.4l.4-3.4h.9v4.5z"/><path d="m186.2 407.1c0 .9-.7 1.6-1.6 1.6s-1.6-.7-1.6-1.6.7-1.6 1.6-1.6 1.6.8 1.6 1.6z"/><path d="m208.4 408.4h-13.1v-.7l2.3-.2v-17.5l-2.3-.2v-.7h7.3v.7l-2.6.2v17.4h7.1l.4-3.5h.9z"/><path d="m223.8 408.4h-13.4v-.7l2.3-.2v-17.5l-2.3-.2v-.7h13v4.1h-.8l-.4-3.1h-7v7.8h5.2l.3-2.1h.8v5.1h-.8l-.3-2.1h-5.2v8.5h7.4l.4-3.4h.9v4.5z"/><path d="m238.7 403.2c0 3.3-2.8 5.6-5.9 5.6-2 0-3.4-.4-4.5-1l-.3 1h-.8l-.2-6 .7-.1.7 3.1c.9 1.3 2.5 2 4.1 2 2.3 0 4.2-1.4 4.2-4 0-2-1.3-3-4.5-4.6-3.5-1.7-5-3.1-5-5.8 0-3 2.5-4.9 5.5-4.9 1.6 0 2.9.3 3.9.9l.3-.9h.8l-.1 5.3h-.6l-.5-2.9c-.8-1.2-2.2-1.6-3.7-1.6-1.9 0-3.6 1.3-3.6 3.4 0 2 .8 2.7 4.5 4.5 3.1 1.7 5 3.1 5 6z"/><path d="m253.2 403.2c0 3.3-2.8 5.6-5.9 5.6-2 0-3.4-.4-4.5-1l-.3 1h-.8l-.2-6 .7-.1.7 3.1c.9 1.3 2.5 2 4.1 2 2.3 0 4.2-1.4 4.2-4 0-2-1.3-3-4.5-4.6-3.5-1.7-5-3.1-5-5.8 0-3 2.5-4.9 5.5-4.9 1.6 0 2.9.3 3.9.9l.3-.9h.8l-.1 5.3h-.7l-.5-2.9c-.8-1.2-2.2-1.6-3.7-1.6-1.9 0-3.6 1.3-3.6 3.4 0 2 .8 2.7 4.5 4.5 3.3 1.7 5.1 3.1 5.1 6z"/><path d="m49.5 428.7h-.4l-.2-2h-2.9v9.3l1.3.1v.4h-3.9v-.4l1.3-.1v-9.3h-2.7l-.2 2h-.4v-2.5h8.2v2.5z"/><path d="m55.4 430.1-.8.2-2.5 6.3-1.4 4h-1.1l2-4.1-2.5-6.2-.8-.2v-.3h3.1v.3l-1.1.1 1.8 4.9 1.8-4.8-1.1-.2v-.3h2.4v.3z"/><path d="m62.7 432.9c0 2.2-1.4 3.8-3.3 3.8-.7 0-1.2-.2-1.6-.4v3.9l1.5.1v.3h-3.7v-.3l1-.1v-9.7l-1-.2v-.3l2.1-.3v1.1c.4-.7 1.2-1.2 2.2-1.2 1.5 0 2.8 1.2 2.8 3.3zm-1.2.1c0-1.7-.7-2.9-1.9-2.9-.8 0-1.5.5-1.8 1.2v4.3c.3.4.9.6 1.4.6 1.6.1 2.3-1.6 2.3-3.2z"/><path d="m70.1 433.1c0 2.1-1.5 3.6-3.3 3.6s-3.3-1.4-3.3-3.6c0-2.1 1.5-3.6 3.3-3.6s3.3 1.5 3.3 3.6zm-1.3 0c0-2-.8-3.2-2-3.2s-2 1.2-2 3.2.8 3.2 2 3.2 2-1.2 2-3.2z"/><path d="m80.9 432.9c0 2.2-1.4 3.8-3.3 3.8-.7 0-1.2-.2-1.6-.4v3.9l1.5.1v.3h-3.7v-.3l1-.1v-9.7l-1-.2v-.3l2.1-.3v1.1c.4-.7 1.2-1.2 2.2-1.2 1.5 0 2.8 1.2 2.8 3.3zm-1.2.1c0-1.7-.7-2.9-1.9-2.9-.8 0-1.5.5-1.8 1.2v4.3c.3.4.9.6 1.4.6 1.6.1 2.3-1.6 2.3-3.2z"/><path d="m88.3 433.1c0 2.1-1.5 3.6-3.3 3.6s-3.3-1.4-3.3-3.6c0-2.1 1.5-3.6 3.3-3.6s3.3 1.5 3.3 3.6zm-1.3 0c0-2-.8-3.2-2-3.2s-2 1.2-2 3.2.8 3.2 2 3.2 2-1.2 2-3.2z"/><path d="m93.7 434.7c0 1-.8 2-2.3 2-.7 0-1.2-.1-1.6-.4l-.2.4h-.3l-.1-2.1h.3c.2 1.1.8 1.8 1.8 1.8.8 0 1.3-.5 1.3-1.3s-.7-1.2-1.5-1.5c-.9-.4-1.8-.8-1.8-2 0-1.1.9-1.9 2-1.9.6 0 1 .1 1.5.4l.2-.4h.3v1.8h-.3c-.2-.9-.7-1.5-1.6-1.5-.8 0-1.2.6-1.2 1.1 0 .8.7 1.2 1.5 1.5 1.1.4 2 .9 2 2.1z"/><path d="m99 435.7c-.4.5-.9.9-1.9.9-.9 0-1.6-.6-1.6-1.8v-4.5h-1.1v-.3l1-.4.8-2h.4v2.2h2v.5h-2v4.4c0 .9.4 1.3 1 1.3.5 0 .9-.3 1.1-.6z"/><path d="m105.1 432.6h-4.6v.4c0 1.9.9 3.1 2.2 3.1 1 0 1.6-.4 2-1l.3.3c-.3.5-1.1 1.3-2.5 1.3-1.9 0-3.3-1.5-3.3-3.6s1.6-3.5 3.2-3.5c1.7 0 2.7 1.1 2.7 2.7zm-1.2-.4c0-1-.3-2.2-1.5-2.2-.9 0-1.6.9-1.8 2.2z"/><path d="m110.9 430-.4 1c-.2-.1-1-.5-1.1-.5-.8 0-1.2 1.1-1.2 2.5v3.2l1.5.1v.3h-3.7v-.3l1-.1v-5.6l-1-.2v-.4l2.1-.3v1.7c.4-1.2 1.1-1.8 2-1.8.2 0 .6.2.8.4z"/><path d="m116 434.7c0 1-.8 2-2.3 2-.7 0-1.2-.1-1.6-.4l-.2.4h-.3l-.1-2.1h.3c.2 1.1.8 1.8 1.8 1.8.8 0 1.3-.5 1.3-1.3s-.7-1.2-1.5-1.5c-.9-.4-1.8-.8-1.8-2 0-1.1.9-1.9 2-1.9.6 0 1 .1 1.5.4l.2-.4h.3v1.8h-.3c-.2-.9-.7-1.5-1.6-1.5-.8 0-1.2.6-1.2 1.1 0 .8.7 1.2 1.5 1.5 1.1.4 2 .9 2 2.1z"/><path d="m118.8 435.8c0 .5-.4.8-.8.8s-.8-.4-.8-.8c0-.5.4-.8.8-.8s.8.4.8.8z"/><path d="m48.2 513h-6.6v-.3l1.2-.1v-8.8l-1.2-.1v-.3h3.7v.3l-1.3.1v8.7h3.6l.2-1.8h.4z"/><path d="m52 513h-3v-.3l1-.1v-5.3l-1-.2v-.3l2.1-.3v6.1l1 .1v.3zm-.9-8.8c0 .4-.3.7-.7.7s-.7-.3-.7-.7.3-.7.7-.7.7.4.7.7z"/><path d="m59.7 513h-3.1v-.3l1.1-.1v-5c-.1-.4-.6-.6-1.1-.6-1.2 0-1.9 1.2-1.9 2.7v2.9l1.1.1v.3h-3.1v-.3l1-.1v-5.3l-1-.2v-.3l2-.3v1.6c.4-1.1 1.2-1.7 2.2-1.7 1.2 0 1.9.8 1.9 2v4.1l1 .1v.4z"/><path d="m65.7 509.3h-4.3v.4c0 1.8.9 2.9 2.1 2.9 1 0 1.5-.4 1.9-.9l.3.3c-.3.5-1 1.2-2.4 1.2-1.8 0-3.1-1.4-3.1-3.3 0-2 1.5-3.3 3-3.3s2.5 1 2.5 2.5zm-1.1-.4c0-1-.3-2.1-1.4-2.1-.9 0-1.5.9-1.7 2.1z"/><path d="m72.4 513h-3v-.3l1-.1v-9.4l-1-.2v-.3l2.1-.3v10.2l1 .1v.3z"/><path d="m78.6 509.3h-4.3v.4c0 1.8.9 2.9 2.1 2.9 1 0 1.5-.4 1.9-.9l.3.3c-.3.5-1 1.2-2.4 1.2-1.8 0-3.1-1.4-3.1-3.3 0-2 1.5-3.3 3-3.3s2.5 1 2.5 2.5zm-1.2-.4c0-1-.3-2.1-1.4-2.1-.9 0-1.5.9-1.7 2.1z"/><path d="m86.4 513h-3.1v-.3l1.1-.1v-5c-.1-.4-.6-.6-1.1-.6-1.2 0-1.9 1.2-1.9 2.7v2.9l1.1.1v.3h-3.1v-.3l1-.1v-5.3l-1-.2v-.3l2-.3v1.6c.4-1.1 1.2-1.7 2.2-1.7 1.2 0 1.9.8 1.9 2v4.1l1 .1v.4z"/><path d="m93 507.3-1.7-.2c.5.4.8 1 .8 1.6 0 1.5-1.3 2.3-2.5 2.4-1 .1-1.4.5-1.4.9 0 .2.1.3.2.4l2.8.3c.8.1 1.7.6 1.7 1.6 0 1.6-1.4 2.6-3.5 2.6-1.3 0-2.7-.7-2.7-2 0-.8.5-1.3 1.2-1.7-.3-.2-.5-.5-.5-.9 0-.5.4-1 1.3-1.3-.9-.3-1.6-1.1-1.6-2.2 0-1.4 1.2-2.4 2.5-2.4.5 0 1 .2 1.4.4l2-.4zm-1 7.5c0-.6-.4-1-1.1-1.1l-2.8-.3c-.4.2-.6.8-.6 1.3 0 .9.7 1.9 2.3 1.9.9 0 2.2-.6 2.2-1.8zm-1-5.9c0-1.2-.6-2-1.4-2s-1.4.8-1.4 2 .6 2 1.4 2 1.4-.9 1.4-2z"/><path d="m97.5 512.2c-.3.5-.9.9-1.8.9-.8 0-1.5-.5-1.5-1.7v-4.2h-1v-.3l1-.4.8-1.9h.3v2.1h1.8v.4h-1.8v4.1c0 .9.4 1.2 1 1.2.5 0 .8-.3 1-.5z"/><path d="m104.8 513h-3.1v-.3l1.1-.1v-5c-.2-.4-.6-.6-1.1-.6-1.2 0-1.9 1.2-1.9 2.7v2.9l1.1.1v.3h-3.1v-.3l1-.1v-9.4l-1-.2v-.3l2.1-.3v5.7c.4-1 1.1-1.6 2.2-1.6 1.2 0 1.9.8 1.9 2v4.1l1 .1v.3z"/><path d="m109.6 511.2c0 1-.8 1.9-2.1 1.9-.6 0-1.1-.1-1.5-.4l-.1.4h-.3l-.1-2h.3c.2 1.1.8 1.6 1.7 1.6.7 0 1.2-.5 1.2-1.2 0-.8-.7-1.1-1.4-1.4-.8-.3-1.7-.8-1.7-1.9 0-1 .8-1.8 1.9-1.8.6 0 1 .1 1.4.4l.2-.3h.3v1.7h-.4c-.1-.9-.6-1.4-1.5-1.4-.7 0-1.1.5-1.1 1 0 .8.7 1.1 1.4 1.4 1 .5 1.8.9 1.8 2z"/><path d="m116.5 513h-3v-.3l1-.1v-5.3l-1-.2v-.3l2.1-.3v6.1l1 .1v.3zm-.9-8.8c0 .4-.3.7-.7.7s-.7-.3-.7-.7.3-.7.7-.7.7.4.7.7z"/><path d="m121.5 511.2c0 1-.8 1.9-2.1 1.9-.6 0-1.1-.1-1.5-.4l-.1.4h-.3l-.1-2h.3c.2 1.1.8 1.6 1.7 1.6.7 0 1.2-.5 1.2-1.2 0-.8-.7-1.1-1.4-1.4-.8-.3-1.7-.8-1.7-1.9 0-1 .8-1.8 1.9-1.8.6 0 1 .1 1.4.4l.2-.3h.3v1.7h-.3c-.1-.9-.6-1.4-1.5-1.4-.7 0-1.1.5-1.1 1 0 .8.7 1.1 1.4 1.4.8.5 1.7.9 1.7 2z"/><path d="m131.3 512.4c-.2.3-.7.7-1.3.7s-1-.4-1.1-.9c-.4.5-1.2.9-1.8.9-1 0-1.8-.7-1.8-1.6 0-1.1.9-1.7 2-1.9l1.5-.3v-1.1c0-.8-.3-1.2-1.2-1.2-.7 0-1.3.5-1.7 1.1l-.3-.3c.5-.8 1.3-1.4 2.2-1.4 1.4 0 2 .6 2 1.7v3.4c0 .8.3 1 .6 1 .2 0 .5-.1.6-.3zm-2.4-.5v-2.2l-1 .2c-.8.2-1.4.6-1.4 1.4 0 .7.5 1.2 1.1 1.2.4 0 .9-.2 1.3-.6z"/><path d="m141.4 513h-3.1v-.3l1.1-.1v-5c-.2-.4-.6-.6-1.1-.6-1.2 0-1.9 1.2-1.9 2.7v2.9l1.1.1v.3h-3.1v-.3l1-.1v-9.4l-1-.2v-.3l2.1-.3v5.7c.4-1 1.1-1.6 2.2-1.6 1.2 0 1.9.8 1.9 2v4.1l1 .1v.3z"/><path d="m148.7 512.8-2 .3v-1.6c-.4 1.1-1.2 1.7-2.2 1.7-1.2 0-1.9-.8-1.9-2v-4l-1-.2v-.3h2.1v5.3c.1.4.5.6 1.1.6 1.2 0 1.9-1.2 1.9-2.7v-2.7l-1.1-.2v-.3h2.2v5.7l1 .2v.2z"/><path d="m155.3 507.3-1.7-.2c.5.4.8 1 .8 1.6 0 1.5-1.3 2.3-2.5 2.4-1 .1-1.4.5-1.4.9 0 .2.1.3.2.4l2.8.3c.8.1 1.7.6 1.7 1.6 0 1.6-1.4 2.6-3.5 2.6-1.3 0-2.7-.7-2.7-2 0-.8.5-1.3 1.2-1.7-.3-.2-.5-.5-.5-.9 0-.5.4-1 1.3-1.3-.9-.3-1.6-1.1-1.6-2.2 0-1.4 1.2-2.4 2.5-2.4.5 0 1 .2 1.4.4l2-.4zm-1 7.5c0-.6-.4-1-1.1-1.1l-2.8-.3c-.4.2-.6.8-.6 1.3 0 .9.7 1.9 2.3 1.9.8 0 2.2-.6 2.2-1.8zm-1.1-5.9c0-1.2-.6-2-1.4-2s-1.4.8-1.4 2 .6 2 1.4 2 1.4-.9 1.4-2z"/><path d="m161.1 509.3h-4.3v.4c0 1.8.9 2.9 2.1 2.9 1 0 1.5-.4 1.9-.9l.3.3c-.3.5-1 1.2-2.4 1.2-1.8 0-3.1-1.4-3.1-3.3 0-2 1.5-3.3 3-3.3s2.5 1 2.5 2.5zm-1.2-.4c0-1-.3-2.1-1.4-2.1-.9 0-1.5.9-1.7 2.1z"/><path d="m170.9 512.4c-.2.3-.7.7-1.3.7s-1-.4-1.1-.9c-.4.5-1.2.9-1.8.9-1 0-1.8-.7-1.8-1.6 0-1.1.9-1.7 2-1.9l1.5-.3v-1.1c0-.8-.3-1.2-1.2-1.2-.7 0-1.3.5-1.7 1.1l-.3-.3c.5-.8 1.3-1.4 2.2-1.4 1.4 0 2 .6 2 1.7v3.4c0 .8.3 1 .6 1 .2 0 .5-.1.6-.3zm-2.5-.5v-2.2l-1 .2c-.8.2-1.4.6-1.4 1.4 0 .7.5 1.2 1.1 1.2.5 0 1-.2 1.3-.6z"/><path d="m178.1 513h-3.1v-.3l1.1-.1v-5c-.1-.4-.6-.6-1.1-.6-1.2 0-1.9 1.2-1.9 2.7v2.9l1.1.1v.3h-3.2v-.3l1-.1v-5.3l-1-.2v-.3l2-.3v1.6c.4-1.1 1.2-1.7 2.2-1.7 1.2 0 1.9.8 1.9 2v4.1l1 .1z"/><path d="m185.3 512.8-2 .3v-1c-.4.6-.9 1-1.9 1-1.3 0-2.7-1.1-2.7-3.1 0-2.1 1.3-3.5 3-3.5.8 0 1.3.3 1.6.6v-4l-1-.2v-.3l2.1-.3v10l1 .2v.3zm-2.1-1.3v-3.7c-.3-.5-.9-.9-1.5-.9-1.4 0-1.9 1.5-1.9 3 0 1.6.7 2.7 1.9 2.7.9 0 1.3-.6 1.5-1.1z"/><path d="m44.4 530h-3v-.3l1-.1v-5.3l-1-.2v-.3l2.1-.3v6.1l1 .1v.3zm-.9-8.8c0 .4-.3.7-.7.7s-.7-.3-.7-.7.3-.7.7-.7.7.4.7.7z"/><path d="m55.8 530h-3.1v-.3l1.1-.1v-5c-.2-.4-.4-.6-1-.6-1 0-1.8 1.1-1.8 2.7v2.9l1.1.1v.3h-3.2v-.3l1.1-.1v-5c-.2-.4-.4-.6-1-.6-1 0-1.8 1.1-1.8 2.7v2.9l1.1.1v.3h-3.3v-.3l1-.1v-5.3l-1-.2v-.3l2-.3v1.6c.3-.9 1.1-1.7 2.1-1.7s1.6.6 1.8 1.7c.3-1 1.1-1.7 2.1-1.7 1.1 0 1.8.8 1.8 2v4.1l1 .1z"/><path d="m62.8 526.6c0 2.1-1.4 3.5-3.1 3.5-.7 0-1.1-.2-1.5-.4v3.7l1.4.1v.3h-3.4v-.3l1-.1v-9.1l-1-.2v-.3l2-.3v1c.4-.6 1.1-1.1 2-1.1 1.3.1 2.6 1.2 2.6 3.2zm-1.1.1c0-1.6-.6-2.7-1.8-2.7-.8 0-1.4.5-1.6 1.1v4c.3.3.9.6 1.4.6 1.4 0 2-1.5 2-3z"/><path d="m69.7 526.8c0 2-1.4 3.3-3.1 3.3s-3.1-1.3-3.1-3.3 1.4-3.3 3.1-3.3c1.8 0 3.1 1.3 3.1 3.3zm-1.2 0c0-1.8-.7-3-1.9-3s-1.9 1.1-1.9 3 .7 3 1.9 3 1.9-1.1 1.9-3z"/><path d="m75.1 523.9-.4.9c-.2-.1-.9-.5-1.1-.5-.7 0-1.2 1-1.2 2.4v3l1.4.1v.3h-3.4v-.3l1-.1v-5.3l-1-.2v-.3l2-.3v1.6c.3-1.2 1.1-1.7 1.8-1.7.3 0 .7.2.9.4z"/><path d="m79.7 529.2c-.3.5-.9.9-1.8.9-.8 0-1.5-.5-1.5-1.7v-4.2h-1v-.3l1-.4.8-1.9h.3v2.1h1.8v.4h-1.8v4.1c0 .9.4 1.2 1 1.2.5 0 .8-.3 1-.5z"/><path d="m86 529.4c-.2.3-.7.7-1.3.7s-1-.4-1.1-.9c-.4.5-1.2.9-1.8.9-1 0-1.8-.7-1.8-1.6 0-1.1.9-1.7 2-1.9l1.5-.3v-1.1c0-.8-.3-1.2-1.2-1.2-.7 0-1.3.5-1.7 1.1l-.3-.3c.5-.8 1.3-1.4 2.2-1.4 1.4 0 2 .6 2 1.7v3.4c0 .8.3 1 .6 1 .2 0 .5-.1.6-.3zm-2.4-.5v-2.2l-1 .2c-.8.2-1.4.6-1.4 1.4 0 .7.5 1.2 1.1 1.2.4 0 1-.2 1.3-.6z"/><path d="m93.3 530h-3.1v-.3l1.1-.1v-5c-.1-.4-.6-.6-1.1-.6-1.2 0-1.9 1.2-1.9 2.7v2.9l1.1.1v.3h-3.1v-.3l1-.1v-5.3l-1-.2v-.3l2-.3v1.6c.4-1.1 1.2-1.7 2.2-1.7 1.2 0 1.9.8 1.9 2v4.1l1 .1v.4z"/><path d="m97.9 529.2c-.3.5-.9.9-1.8.9-.8 0-1.5-.5-1.5-1.7v-4.2h-1v-.3l1-.4.8-1.9h.3v2.1h1.8v.4h-1.8v4.1c0 .9.4 1.2 1 1.2.5 0 .8-.3 1-.5z"/><path d="m105.3 529.2c-.3.5-.9.9-1.8.9-.8 0-1.5-.5-1.5-1.7v-4.2h-1v-.3l1-.4.8-1.9h.3v2.1h1.8v.4h-1.8v4.1c0 .9.4 1.2 1 1.2.5 0 .8-.3 1-.5z"/><path d="m111.8 526.8c0 2-1.4 3.3-3.1 3.3s-3.1-1.3-3.1-3.3 1.4-3.3 3.1-3.3 3.1 1.3 3.1 3.3zm-1.2 0c0-1.8-.7-3-1.9-3s-1.9 1.1-1.9 3 .7 3 1.9 3 1.9-1.1 1.9-3z"/><path d="m119 526.6c0 2.1-1.4 3.5-3.1 3.5-.7 0-1.1-.2-1.5-.4v3.7l1.4.1v.3h-3.4v-.3l1-.1v-9.1l-1-.2v-.3l2-.3v1c.4-.6 1.1-1.1 2-1.1 1.3.1 2.6 1.2 2.6 3.2zm-1.2.1c0-1.6-.6-2.7-1.8-2.7-.8 0-1.4.5-1.6 1.1v4c.3.3.9.6 1.4.6 1.4 0 2-1.5 2-3z"/><path d="m122.7 530h-3v-.3l1-.1v-5.3l-1-.2v-.3l2.1-.3v6.1l1 .1v.3zm-.9-8.8c0 .4-.3.7-.7.7s-.7-.3-.7-.7.3-.7.7-.7.7.4.7.7z"/><path d="m128.8 529c-.3.5-1 1.2-2.4 1.2-1.7 0-3.1-1.4-3.1-3.4s1.5-3.3 3.1-3.3c.7 0 1.2.1 1.8.4l.2-.4h.3l-.1 1.8h-.3c-.2-.9-.8-1.5-1.8-1.5-1.2 0-2 1.1-2 2.8s.9 2.9 2.1 2.9c1 0 1.5-.4 1.9-.9z"/><path d="m142.4 524-.7.2-2.5 6h-.1l-1.8-4.5-1.8 4.5h-.1l-2.5-6.1-.7-.1v-.3h2.9v.3l-1 .1 1.7 4.3 1.3-3.3-.4-1-.7-.1v-.3h2.9v.3l-1 .1v.1l1.7 4.3 1.7-4.3-1-.1v-.3h2.3v.2z"/><path d="m149.6 530h-3.1v-.3l1.1-.1v-5c-.2-.4-.6-.6-1.1-.6-1.2 0-1.9 1.2-1.9 2.7v2.9l1.1.1v.3h-3.1v-.3l1-.1v-9.4l-1-.2v-.3l2.1-.3v5.7c.4-1 1.1-1.6 2.2-1.6 1.2 0 1.9.8 1.9 2v4.1l1 .1v.3z"/><path d="m153.1 530h-3v-.3l1-.1v-5.3l-1-.2v-.3l2.1-.3v6.1l1 .1v.3zm-.9-8.8c0 .4-.3.7-.7.7s-.7-.3-.7-.7.3-.7.7-.7.7.4.7.7z"/><path d="m159.2 529c-.3.5-1 1.2-2.4 1.2-1.7 0-3.1-1.4-3.1-3.4s1.5-3.3 3.1-3.3c.7 0 1.2.1 1.8.4l.2-.4h.3l-.1 1.8h-.3c-.2-.9-.8-1.5-1.8-1.5-1.2 0-2 1.1-2 2.8s.9 2.9 2.1 2.9c1 0 1.5-.4 1.9-.9z"/><path d="m166.8 530h-3.1v-.3l1.1-.1v-5c-.2-.4-.6-.6-1.1-.6-1.2 0-1.9 1.2-1.9 2.7v2.9l1.1.1v.3h-3.1v-.3l1-.1v-9.4l-1-.2v-.3l2.1-.3v5.7c.4-1 1.1-1.6 2.2-1.6 1.2 0 1.9.8 1.9 2v4.1l1 .1v.3z"/><path d="m48 546.8-2 .3v-1c-.4.6-.9 1-1.9 1-1.3 0-2.7-1.1-2.7-3.1 0-2.1 1.3-3.5 3-3.5.8 0 1.3.3 1.6.6v-4l-1-.2v-.3l2.1-.3v10l1 .2v.3zm-2.1-1.3v-3.7c-.3-.5-.9-.9-1.5-.9-1.4 0-1.9 1.5-1.9 3 0 1.6.7 2.7 1.9 2.7.9 0 1.3-.6 1.5-1.1z"/><path d="m54 543.3h-4.3v.4c0 1.8.9 2.9 2.1 2.9 1 0 1.5-.4 1.9-.9l.3.3c-.3.5-1 1.2-2.4 1.2-1.8 0-3.1-1.4-3.1-3.3 0-2 1.5-3.3 3-3.3s2.5 1 2.5 2.5zm-1.1-.4c0-1-.3-2.1-1.4-2.1-.9 0-1.5.9-1.7 2.1z"/><path d="m61.9 547h-3v-.3l1-.1v-5.3l-.7-.1h-2.2v5.4l1.4.1v.3h-3.5v-.3l1-.1v-5.4h-1v-.3l1-.3v-1c0-2.1 1.2-3.5 3.2-3.5.8 0 1.4.3 1.9.8l-.6 1c-1.1-1.1-1.4-1.3-1.7-1.3-1.1 0-1.8.5-1.8 2.6v1.5h2.2l1.8-.2v6l1 .1z"/><path d="m69.5 547h-3.1v-.3l1.1-.1v-5c-.1-.4-.6-.6-1.1-.6-1.2 0-1.9 1.2-1.9 2.7v2.9l1.1.1v.3h-3.1v-.3l1-.1v-5.3l-1-.2v-.3l2-.3v1.6c.4-1.1 1.2-1.7 2.2-1.7 1.2 0 1.9.8 1.9 2v4.1l1 .1v.4z"/><path d="m73.1 547h-3v-.3l1-.1v-5.3l-1-.2v-.3l2.1-.3v6.1l1 .1v.3zm-.9-8.8c0 .4-.3.7-.7.7s-.7-.3-.7-.7.3-.7.7-.7.7.4.7.7z"/><path d="m77.8 546.2c-.3.5-.9.9-1.8.9-.8 0-1.5-.5-1.5-1.7v-4.2h-1v-.3l1-.4.8-1.9h.3v2.1h1.8v.4h-1.8v4.1c0 .9.4 1.2 1 1.2.5 0 .8-.3 1-.5z"/><path d="m83.6 543.3h-4.3v.4c0 1.8.9 2.9 2.1 2.9 1 0 1.5-.4 1.9-.9l.3.3c-.3.5-1 1.2-2.4 1.2-1.8 0-3.1-1.4-3.1-3.3 0-2 1.5-3.3 3-3.3s2.5 1 2.5 2.5zm-1.2-.4c0-1-.3-2.1-1.4-2.1-.9 0-1.5.9-1.7 2.1z"/><path d="m87.3 547h-3v-.3l1-.1v-9.4l-1-.2v-.3l2.1-.3v10.2l1 .1v.3z"/><path d="m93.9 541-.7.2-2.4 5.9-1.3 3.8h-1l1.9-3.9-2.3-5.8-.7-.1v-.3h2.9v.3l-1 .1 1.7 4.6 1.7-4.5-1-.1v-.3h2.3v.1z"/><path d="m104.4 547h-3.1v-.3l1.1-.1v-5c-.1-.4-.6-.6-1.1-.6-1.2 0-1.9 1.2-1.9 2.7v2.9l1.1.1v.3h-3.1v-.3l1-.1v-5.3l-1-.2v-.3l2-.3v1.6c.4-1.1 1.2-1.7 2.2-1.7 1.2 0 1.9.8 1.9 2v4.1l1 .1v.4z"/><path d="m110.4 543.3h-4.3v.4c0 1.8.9 2.9 2.1 2.9 1 0 1.5-.4 1.9-.9l.3.3c-.3.5-1 1.2-2.4 1.2-1.8 0-3.1-1.4-3.1-3.3 0-2 1.5-3.3 3-3.3s2.5 1 2.5 2.5zm-1.2-.4c0-1-.3-2.1-1.4-2.1-.9 0-1.5.9-1.7 2.1z"/><path d="m116.7 543.3h-4.3v.4c0 1.8.9 2.9 2.1 2.9 1 0 1.5-.4 1.9-.9l.3.3c-.3.5-1 1.2-2.4 1.2-1.8 0-3.1-1.4-3.1-3.3 0-2 1.5-3.3 3-3.3s2.5 1 2.5 2.5zm-1.1-.4c0-1-.3-2.1-1.4-2.1-.9 0-1.5.9-1.7 2.1z"/><path d="m124.1 546.8-2 .3v-1c-.4.6-.9 1-1.9 1-1.3 0-2.7-1.1-2.7-3.1 0-2.1 1.3-3.5 3-3.5.8 0 1.3.3 1.6.6v-4l-1-.2v-.3l2.1-.3v10l1 .2v.3zm-2-1.3v-3.7c-.3-.5-.9-.9-1.5-.9-1.4 0-1.9 1.5-1.9 3 0 1.6.7 2.7 1.9 2.7.9 0 1.3-.6 1.5-1.1z"/><path d="m129 545.2c0 1-.8 1.9-2.1 1.9-.6 0-1.1-.1-1.5-.4l-.1.4h-.3l-.1-2h.3c.2 1.1.8 1.6 1.7 1.6.7 0 1.2-.5 1.2-1.2 0-.8-.7-1.1-1.4-1.4-.8-.3-1.7-.8-1.7-1.9 0-1 .8-1.8 1.9-1.8.6 0 1 .1 1.4.4l.2-.3h.3v1.7h-.3c-.1-.9-.6-1.4-1.5-1.4-.7 0-1.1.5-1.1 1 0 .8.7 1.1 1.4 1.4.8.5 1.7.9 1.7 2z"/><path d="m136.9 546.2c-.3.5-.9.9-1.8.9-.8 0-1.5-.5-1.5-1.7v-4.2h-1v-.3l1-.4.8-1.9h.3v2.1h1.8v.4h-1.8v4.1c0 .9.4 1.2 1 1.2.5 0 .8-.3 1-.5z"/><path d="m143.4 543.8c0 2-1.4 3.3-3.1 3.3s-3.1-1.3-3.1-3.3 1.4-3.3 3.1-3.3 3.1 1.3 3.1 3.3zm-1.2 0c0-1.8-.7-3-1.9-3s-1.9 1.1-1.9 3 .7 3 1.9 3 1.9-1.1 1.9-3z"/><path d="m153.5 543.6c0 2.1-1.4 3.5-3.1 3.5-.7 0-1.1-.2-1.5-.4v3.7l1.4.1v.3h-3.4v-.3l1-.1v-9.1l-1-.2v-.3l2-.3v1c.4-.6 1.1-1.1 2-1.1 1.4.1 2.6 1.2 2.6 3.2zm-1.1.1c0-1.6-.6-2.7-1.8-2.7-.8 0-1.4.5-1.6 1.1v4c.3.3.9.6 1.4.6 1.4 0 2-1.5 2-3z"/><path d="m161.1 546.8-2 .3v-1.6c-.4 1.1-1.2 1.7-2.2 1.7-1.2 0-1.9-.8-1.9-2v-4l-1-.2v-.3h2.1v5.3c.1.4.5.6 1.1.6 1.2 0 1.9-1.2 1.9-2.7v-2.7l-1.1-.2v-.3h2.2v5.7l1 .2v.2z"/><path d="m165.6 546.2c-.3.5-.9.9-1.8.9-.8 0-1.5-.5-1.5-1.7v-4.2h-1v-.3l1-.4.8-1.9h.3v2.1h1.8v.4h-1.8v4.1c0 .9.4 1.2 1 1.2.5 0 .8-.3 1-.5z"/><path d="m173.7 536.5-.4.9c-.6-.4-1.1-.7-1.4-.7-.5 0-.8.4-.8 1.6v2.4h1.8v.4h-1.8v5.4l1.4.1v.3h-3.5v-.3l1-.1v-5.4h-1v-.3l1-.3v-1.2c0-1.8.7-3.3 2.5-3.3.5.2.8.3 1.2.5z"/><path d="m179.4 543.8c0 2-1.4 3.3-3.1 3.3s-3.1-1.3-3.1-3.3 1.4-3.3 3.1-3.3 3.1 1.3 3.1 3.3zm-1.2 0c0-1.8-.7-3-1.9-3s-1.9 1.1-1.9 3 .7 3 1.9 3 1.9-1.1 1.9-3z"/><path d="m185.6 546c-.3.5-1 1.2-2.4 1.2-1.7 0-3.1-1.4-3.1-3.4s1.5-3.3 3.1-3.3c.7 0 1.2.1 1.8.4l.2-.4h.3l-.1 1.8h-.4c-.2-.9-.8-1.5-1.8-1.5-1.2 0-2 1.1-2 2.8s.9 2.9 2.1 2.9c1 0 1.5-.4 1.9-.9z"/><path d="m193 546.8-2 .3v-1.6c-.4 1.1-1.2 1.7-2.2 1.7-1.2 0-1.9-.8-1.9-2v-4l-1-.2v-.3h2.1v5.3c.1.4.5.6 1.1.6 1.2 0 1.9-1.2 1.9-2.7v-2.7l-1.1-.2v-.3h2.2v5.7l1 .2v.2z"/><path d="m197.9 545.2c0 1-.8 1.9-2.1 1.9-.6 0-1.1-.1-1.5-.4l-.1.4h-.3l-.1-2h.3c.2 1.1.8 1.6 1.7 1.6.7 0 1.2-.5 1.2-1.2 0-.8-.7-1.1-1.4-1.4-.8-.3-1.7-.8-1.7-1.9 0-1 .8-1.8 1.9-1.8.6 0 1 .1 1.4.4l.2-.3h.3v1.7h-.3c-.1-.9-.6-1.4-1.5-1.4-.7 0-1.1.5-1.1 1 0 .8.7 1.1 1.4 1.4.8.5 1.7.9 1.7 2z"/><path d="m47.5 560.8c0 2-1.4 3.3-3.1 3.3s-3.1-1.3-3.1-3.3 1.4-3.3 3.1-3.3c1.8 0 3.1 1.3 3.1 3.3zm-1.2 0c0-1.8-.7-3-1.9-3s-1.9 1.1-1.9 3 .7 3 1.9 3 1.9-1.1 1.9-3z"/><path d="m55.3 564h-3.1v-.3l1.1-.1v-5c-.1-.4-.6-.6-1.1-.6-1.2 0-1.9 1.2-1.9 2.7v2.9l1.1.1v.3h-3.1v-.3l1-.1v-5.3l-1-.2v-.3l2-.3v1.6c.4-1.1 1.2-1.7 2.2-1.7 1.2 0 1.9.8 1.9 2v4.1l1 .1v.4z"/><path d="m57.9 563.3c0 .4-.3.8-.8.8s-.8-.3-.8-.8c0-.4.3-.8.8-.8s.8.4.8.8z"/><path d="m69.8 556.7h-.4l-.2-1.9h-2.6v8.7l1.3.1v.3h-3.7v-.3l1.3-.1v-8.7h-2.6l-.2 1.9h-.4v-2.3h7.7v2.3z"/><path d="m77.2 564h-3.1v-.3l1.1-.1v-5c-.2-.4-.6-.6-1.1-.6-1.2 0-1.9 1.2-1.9 2.7v2.9l1.1.1v.3h-3.1v-.3l1-.1v-9.4l-1-.2v-.3l2.1-.3v5.7c.4-1 1.1-1.6 2.2-1.6 1.2 0 1.9.8 1.9 2v4.1l1 .1v.3z"/><path d="m83.2 560.3h-4.3v.4c0 1.8.9 2.9 2.1 2.9 1 0 1.5-.4 1.9-.9l.3.3c-.3.5-1 1.2-2.4 1.2-1.8 0-3.1-1.4-3.1-3.3 0-2 1.5-3.3 3-3.3s2.5 1 2.5 2.5zm-1.1-.4c0-1-.3-2.1-1.4-2.1-.9 0-1.5.9-1.7 2.1z"/><path d="m92.4 563c-.3.5-1 1.2-2.4 1.2-1.7 0-3.1-1.4-3.1-3.4s1.5-3.3 3.1-3.3c.7 0 1.2.1 1.8.4l.2-.4h.3l-.1 1.8h-.3c-.2-.9-.8-1.5-1.8-1.5-1.2 0-2 1.1-2 2.8s.9 2.9 2.1 2.9c1 0 1.5-.4 1.9-.9z"/><path d="m96.1 564h-3v-.3l1-.1v-9.4l-1-.2v-.3l2.1-.3v10.2l1 .1v.3z"/><path d="m102.7 563.4c-.2.3-.7.7-1.3.7s-1-.4-1.1-.9c-.4.5-1.2.9-1.8.9-1 0-1.8-.7-1.8-1.6 0-1.1.9-1.7 2-1.9l1.5-.3v-1.1c0-.8-.3-1.2-1.2-1.2-.7 0-1.3.5-1.7 1.1l-.3-.3c.5-.8 1.3-1.4 2.2-1.4 1.4 0 2 .6 2 1.7v3.4c0 .8.3 1 .6 1 .2 0 .5-.1.6-.3zm-2.5-.5v-2.2l-1 .2c-.8.2-1.4.6-1.4 1.4 0 .7.5 1.2 1.1 1.2.5 0 1-.2 1.3-.6z"/><path d="m107.2 562.2c0 1-.8 1.9-2.1 1.9-.6 0-1.1-.1-1.5-.4l-.1.4h-.3l-.1-2h.3c.2 1.1.8 1.6 1.7 1.6.7 0 1.2-.5 1.2-1.2 0-.8-.7-1.1-1.4-1.4-.8-.3-1.7-.8-1.7-1.9 0-1 .8-1.8 1.9-1.8.6 0 1 .1 1.4.4l.2-.3h.3v1.7h-.3c-.1-.9-.6-1.4-1.5-1.4-.7 0-1.1.5-1.1 1 0 .8.7 1.1 1.4 1.4.8.5 1.7.9 1.7 2z"/><path d="m112.3 562.2c0 1-.8 1.9-2.1 1.9-.6 0-1.1-.1-1.5-.4l-.1.4h-.3l-.1-2h.3c.2 1.1.8 1.6 1.7 1.6.7 0 1.2-.5 1.2-1.2 0-.8-.7-1.1-1.4-1.4-.8-.3-1.7-.8-1.7-1.9 0-1 .8-1.8 1.9-1.8.6 0 1 .1 1.4.4l.2-.3h.3v1.7h-.3c-.1-.9-.6-1.4-1.5-1.4-.7 0-1.1.5-1.1 1 0 .8.7 1.1 1.4 1.4.8.5 1.7.9 1.7 2z"/><path d="m116.2 564h-3v-.3l1-.1v-5.3l-1-.2v-.3l2.1-.3v6.1l1 .1v.3zm-.9-8.8c0 .4-.3.7-.7.7s-.7-.3-.7-.7.3-.7.7-.7.7.4.7.7z"/><path d="m122.3 563c-.3.5-1 1.2-2.4 1.2-1.7 0-3.1-1.4-3.1-3.4s1.5-3.3 3.1-3.3c.7 0 1.2.1 1.8.4l.2-.4h.3l-.1 1.8h-.3c-.2-.9-.8-1.5-1.8-1.5-1.2 0-2 1.1-2 2.8s.9 2.9 2.1 2.9c1 0 1.5-.4 1.9-.9z"/><path d="m133.5 561.2c0 1.6-1.2 2.7-3.9 2.7h-3.4v-.3l1.2-.1v-8.8l-1.2-.1v-.3h3.7c1.8 0 2.9.7 2.9 2.3 0 1.2-.9 2-1.9 2.2 1.4.1 2.6.8 2.6 2.4zm-1.9-4.5c0-1.3-.8-2-2.1-2-.4 0-.7 0-1 .1v3.9h.9c1.5 0 2.2-.8 2.2-2zm.7 4.7c0-1.2-.9-2.2-2.6-2.2h-1.2v4.3c.4.1.7.1 1.3.1 1.7 0 2.5-1 2.5-2.2z"/><path d="m140.6 560.8c0 2-1.4 3.3-3.1 3.3s-3.1-1.3-3.1-3.3 1.4-3.3 3.1-3.3 3.1 1.3 3.1 3.3zm-1.2 0c0-1.8-.7-3-1.9-3s-1.9 1.1-1.9 3 .7 3 1.9 3 1.9-1.1 1.9-3z"/><path d="m148 563.8-2 .3v-1c-.4.6-.9 1-1.9 1-1.3 0-2.7-1.1-2.7-3.1 0-2.1 1.3-3.5 3-3.5.8 0 1.3.3 1.6.6v-4l-1-.2v-.3l2.1-.3v10l1 .2v.3zm-2.1-1.3v-3.7c-.3-.5-.9-.9-1.5-.9-1.4 0-1.9 1.5-1.9 3 0 1.6.7 2.7 1.9 2.7.9 0 1.3-.6 1.5-1.1z"/><path d="m154.5 558-.7.2-2.4 5.9-1.3 3.8h-1l1.9-3.9-2.3-5.8-.7-.1v-.3h2.9v.3l-1 .1 1.7 4.6 1.7-4.5-1-.1v-.3h2.3v.1z"/><path d="m164.7 563.8-2 .3v-1.6c-.4 1.1-1.2 1.7-2.2 1.7-1.2 0-1.9-.8-1.9-2v-4l-1-.2v-.3h2.1v5.3c.1.4.5.6 1.1.6 1.2 0 1.9-1.2 1.9-2.7v-2.7l-1.1-.2v-.3h2.2v5.7l1 .2v.2z"/><path d="m169.5 562.2c0 1-.8 1.9-2.1 1.9-.6 0-1.1-.1-1.5-.4l-.1.4h-.3l-.1-2h.3c.2 1.1.8 1.6 1.7 1.6.7 0 1.2-.5 1.2-1.2 0-.8-.7-1.1-1.4-1.4-.8-.3-1.7-.8-1.7-1.9 0-1 .8-1.8 1.9-1.8.6 0 1 .1 1.4.4l.2-.3h.3v1.7h-.3c-.1-.9-.6-1.4-1.5-1.4-.7 0-1.1.5-1.1 1 0 .8.7 1.1 1.4 1.4.8.5 1.7.9 1.7 2z"/><path d="m177.2 563.8-2 .3v-1.6c-.4 1.1-1.2 1.7-2.2 1.7-1.2 0-1.9-.8-1.9-2v-4l-1-.2v-.3h2.1v5.3c.1.4.5.6 1.1.6 1.2 0 1.9-1.2 1.9-2.7v-2.7l-1.2-.2v-.3h2.2v5.7l1 .2z"/><path d="m183.6 563.4c-.2.3-.7.7-1.3.7s-1-.4-1.1-.9c-.4.5-1.2.9-1.8.9-1 0-1.8-.7-1.8-1.6 0-1.1.9-1.7 2-1.9l1.5-.3v-1.1c0-.8-.3-1.2-1.2-1.2-.7 0-1.3.5-1.7 1.1l-.3-.3c.5-.8 1.3-1.4 2.2-1.4 1.4 0 2 .6 2 1.7v3.4c0 .8.3 1 .6 1 .2 0 .5-.1.6-.3zm-2.4-.5v-2.2l-1 .2c-.8.2-1.4.6-1.4 1.4 0 .7.5 1.2 1.1 1.2.5 0 1-.2 1.3-.6z"/><path d="m186.8 564h-3v-.3l1-.1v-9.4l-1-.2v-.3l2.1-.3v10.2l1 .1v.3z"/><path d="m190.3 564h-3v-.3l1-.1v-9.4l-1-.2v-.3l2.1-.3v10.2l1 .1v.3z"/><path d="m196.9 558-.7.2-2.4 5.9-1.3 3.8h-1l1.9-3.9-2.3-5.8-.7-.1v-.3h2.9v.3l-1 .1 1.7 4.6 1.7-4.5-1-.1v-.3h2.3v.1z"/><path d="m45.4 580.2c-.3.5-.9.9-1.8.9-.8 0-1.5-.5-1.5-1.7v-4.2h-1v-.3l1-.4.8-1.9h.3v2.1h1.8v.4h-1.8v4.1c0 .9.4 1.2 1 1.2.5 0 .8-.3 1-.5z"/><path d="m51.8 580.4c-.2.3-.7.7-1.3.7s-1-.4-1.1-.9c-.4.5-1.2.9-1.8.9-1 0-1.8-.7-1.8-1.6 0-1.1.9-1.7 2-1.9l1.5-.3v-1.1c0-.8-.3-1.2-1.2-1.2-.7 0-1.3.5-1.7 1.1l-.3-.3c.5-.8 1.3-1.4 2.2-1.4 1.4 0 2 .6 2 1.7v3.4c0 .8.3 1 .6 1 .2 0 .5-.1.6-.3zm-2.4-.5v-2.2l-1 .2c-.8.2-1.4.6-1.4 1.4 0 .7.5 1.2 1.1 1.2.4 0 .9-.2 1.3-.6z"/><path d="m58.6 581h-1.7l-.3-.4-2.3-2.8h-.4v2.8l1 .1v.3h-3.1v-.3l1-.1v-9.4l-1-.2v-.3l2.1-.3v7.2l2.6-2.4-1-.1v-.3h2.6v.3l-.9.1-2.2 2 2.9 3.4.6.2v.2z"/><path d="m64.2 577.3h-4.3v.4c0 1.8.9 2.9 2.1 2.9 1 0 1.5-.4 1.9-.9l.3.3c-.3.5-1 1.2-2.4 1.2-1.8 0-3.1-1.4-3.1-3.3 0-2 1.5-3.3 3-3.3s2.5 1 2.5 2.5zm-1.1-.4c0-1-.3-2.1-1.4-2.1-.9 0-1.5.9-1.7 2.1z"/><path d="m69.3 579.2c0 1-.8 1.9-2.1 1.9-.6 0-1.1-.1-1.5-.4l-.1.4h-.3l-.1-2h.3c.2 1.1.8 1.6 1.7 1.6.7 0 1.2-.5 1.2-1.2 0-.8-.7-1.1-1.4-1.4-.8-.3-1.7-.8-1.7-1.9 0-1 .8-1.8 1.9-1.8.6 0 1 .1 1.4.4l.2-.3h.2v1.7h-.3c-.1-.9-.6-1.4-1.5-1.4-.7 0-1.1.5-1.1 1 0 .8.7 1.1 1.4 1.4 1 .5 1.8.9 1.8 2z"/><path d="m80 580.8-2 .3v-1.6c-.4 1.1-1.2 1.7-2.2 1.7-1.2 0-1.9-.8-1.9-2v-4l-1-.2v-.3h2.1v5.3c.1.4.5.6 1.1.6 1.2 0 1.9-1.2 1.9-2.7v-2.7l-1.1-.2v-.3h2.1v5.7l1 .2z"/><path d="m86.9 577.6c0 2.1-1.4 3.5-3.1 3.5-.7 0-1.1-.2-1.5-.4v3.7l1.4.1v.3h-3.4v-.3l1-.1v-9.1l-1-.2v-.3l2-.3v1c.4-.6 1.1-1.1 2-1.1 1.4.1 2.6 1.2 2.6 3.2zm-1.1.1c0-1.6-.6-2.7-1.8-2.7-.8 0-1.4.5-1.6 1.1v4c.3.3.9.6 1.4.6 1.4 0 2-1.5 2-3z"/><path d="m97 577.6c0 2.1-1.2 3.5-3.4 3.5-.9 0-1.7-.2-2.2-.5v-9.5l-1-.2v-.3l2.1-.3v5.1c.4-.6 1.1-1 2-1 1.2.1 2.5 1.2 2.5 3.2zm-1.2.1c0-1.6-.6-2.7-1.8-2.7-.8 0-1.3.4-1.7 1.1v4.2c.2.2.8.4 1.4.4 1.3 0 2.1-1.3 2.1-3z"/><path d="m103.2 577.3h-4.3v.4c0 1.8.9 2.9 2.1 2.9 1 0 1.5-.4 1.9-.9l.3.3c-.3.5-1 1.2-2.4 1.2-1.8 0-3.1-1.4-3.1-3.3 0-2 1.5-3.3 3-3.3s2.5 1 2.5 2.5zm-1.1-.4c0-1-.3-2.1-1.4-2.1-.9 0-1.5.9-1.7 2.1z"/><path d="m108.1 580.2c-.3.5-.9.9-1.8.9-.8 0-1.5-.5-1.5-1.7v-4.2h-1v-.3l1-.4.8-1.9h.3v2.1h1.8v.4h-1.8v4.1c0 .9.4 1.2 1 1.2.5 0 .8-.3 1-.5z"/><path d="m118.2 575-.7.2-2.5 6h-.1l-1.8-4.5-1.8 4.5h-.1l-2.5-6.1-.7-.1v-.3h2.9v.3l-1 .1 1.7 4.3 1.3-3.3-.4-1-.7-.1v-.3h2.9v.3l-1 .1v.1l1.7 4.3 1.7-4.3-1-.1v-.3h2.3v.2z"/><path d="m123.8 577.3h-4.3v.4c0 1.8.9 2.9 2.1 2.9 1 0 1.5-.4 1.9-.9l.3.3c-.3.5-1 1.2-2.4 1.2-1.8 0-3.1-1.4-3.1-3.3 0-2 1.5-3.3 3-3.3s2.5 1 2.5 2.5zm-1.2-.4c0-1-.3-2.1-1.4-2.1-.9 0-1.5.9-1.7 2.1z"/><path d="m130.1 577.3h-4.3v.4c0 1.8.9 2.9 2.1 2.9 1 0 1.5-.4 1.9-.9l.3.3c-.3.5-1 1.2-2.4 1.2-1.8 0-3.1-1.4-3.1-3.3 0-2 1.5-3.3 3-3.3s2.5 1 2.5 2.5zm-1.2-.4c0-1-.3-2.1-1.4-2.1-.9 0-1.5.9-1.7 2.1z"/><path d="m137.9 581h-3.1v-.3l1.1-.1v-5c-.1-.4-.6-.6-1.1-.6-1.2 0-1.9 1.2-1.9 2.7v2.9l1.1.1v.3h-3.1v-.3l1-.1v-5.3l-1-.2v-.3l2-.3v1.6c.4-1.1 1.2-1.7 2.2-1.7 1.2 0 1.9.8 1.9 2v4.1l1 .1v.4z"/><path d="m148 577.4-.1.7h-1.4v3h-1.1v-3h-4l-.2-.5 4.9-6.6.3.1v6.3zm-2.7 0v-4.4l-3.3 4.4z"/><path d="m155 576.1c0 2.5-.9 5-3.2 5s-3.2-2.5-3.2-5 .9-5 3.2-5 3.2 2.5 3.2 5zm-1.2 0c0-2.3-.4-4.6-2-4.6s-1.9 2.2-1.9 4.6.4 4.6 1.9 4.6c1.6 0 2-2.2 2-4.6z"/><path d="m164.9 580.4c-.2.3-.7.7-1.3.7s-1-.4-1.1-.9c-.4.5-1.2.9-1.8.9-1 0-1.8-.7-1.8-1.6 0-1.1.9-1.7 2-1.9l1.5-.3v-1.1c0-.8-.3-1.2-1.2-1.2-.7 0-1.3.5-1.7 1.1l-.3-.3c.5-.8 1.3-1.4 2.2-1.4 1.4 0 2 .6 2 1.7v3.4c0 .8.3 1 .6 1 .2 0 .5-.1.6-.3zm-2.5-.5v-2.2l-1 .2c-.8.2-1.4.6-1.4 1.4 0 .7.5 1.2 1.1 1.2.5 0 1-.2 1.3-.6z"/><path d="m172.1 581h-3.1v-.3l1.1-.1v-5c-.1-.4-.6-.6-1.1-.6-1.2 0-1.9 1.2-1.9 2.7v2.9l1.1.1v.3h-3.1v-.3l1-.1v-5.3l-1-.2v-.3l2-.3v1.6c.4-1.1 1.2-1.7 2.2-1.7 1.2 0 1.9.8 1.9 2v4.1l1 .1v.4z"/><path d="m179.3 580.8-2 .3v-1c-.4.6-.9 1-1.9 1-1.3 0-2.7-1.1-2.7-3.1 0-2.1 1.3-3.5 3-3.5.8 0 1.3.3 1.6.6v-4l-1-.2v-.3l2.1-.3v10l1 .2v.3zm-2.1-1.3v-3.7c-.3-.5-.9-.9-1.5-.9-1.4 0-1.9 1.5-1.9 3 0 1.6.7 2.7 1.9 2.7.9 0 1.3-.6 1.5-1.1z"/><path d="m189.2 577.9c0 1.6-1.1 3.3-3.1 3.3-2.2 0-3.2-2-3.2-4.3 0-3.5 2-5.8 5.4-5.8v.5c-2.4 0-3.9 1.4-4.2 4.4.6-.8 1.4-1.2 2.2-1.2 1.8-.1 2.9 1.4 2.9 3.1zm-1.1.1c0-1.9-.9-2.7-1.9-2.7-.8 0-1.6.4-2 1.1v.6c0 1.7.5 3.7 2.1 3.7.9 0 1.8-1 1.8-2.7z"/><path d="m196.5 576.1c0 2.5-.9 5-3.2 5s-3.2-2.5-3.2-5 .9-5 3.2-5c2.4 0 3.2 2.5 3.2 5zm-1.2 0c0-2.3-.4-4.6-2-4.6s-1.9 2.2-1.9 4.6.4 4.6 1.9 4.6 2-2.2 2-4.6z"/><path d="m46.8 597c-.3.5-1 1.2-2.4 1.2-1.7 0-3.1-1.4-3.1-3.4s1.5-3.3 3.1-3.3c.7 0 1.2.1 1.8.4l.2-.4h.3l-.1 1.8h-.3c-.2-.9-.8-1.5-1.8-1.5-1.2 0-2 1.1-2 2.8s.9 2.9 2.1 2.9c1 0 1.5-.4 1.9-.9z"/><path d="m54.5 598h-3.1v-.3l1.1-.1v-5c-.2-.4-.6-.6-1.1-.6-1.2 0-1.9 1.2-1.9 2.7v2.9l1.1.1v.3h-3.1v-.3l1-.1v-9.4l-1-.2v-.3l2.1-.3v5.7c.4-1 1.1-1.6 2.2-1.6 1.2 0 1.9.8 1.9 2v4.1l1 .1v.3z"/><path d="m60.9 597.4c-.2.3-.7.7-1.3.7s-1-.4-1.1-.9c-.4.5-1.2.9-1.8.9-1 0-1.8-.7-1.8-1.6 0-1.1.9-1.7 2-1.9l1.5-.3v-1.1c0-.8-.3-1.2-1.2-1.2-.7 0-1.3.5-1.7 1.1l-.3-.3c.5-.8 1.3-1.4 2.2-1.4 1.4 0 2 .6 2 1.7v3.4c0 .8.3 1 .6 1 .2 0 .5-.1.6-.3zm-2.4-.5v-2.2l-1 .2c-.8.2-1.4.6-1.4 1.4 0 .7.5 1.2 1.1 1.2.4 0 .9-.2 1.3-.6z"/><path d="m65.8 591.9-.4.9c-.2-.1-.9-.5-1.1-.5-.7 0-1.2 1-1.2 2.4v3l1.4.1v.3h-3.4v-.3l1-.1v-5.3l-1-.2v-.3l2-.3v1.6c.3-1.2 1.1-1.7 1.8-1.7.3 0 .7.2.9.4z"/><path d="m72 597.4c-.2.3-.7.7-1.3.7s-1-.4-1.1-.9c-.4.5-1.2.9-1.8.9-1 0-1.8-.7-1.8-1.6 0-1.1.9-1.7 2-1.9l1.5-.3v-1.1c0-.8-.3-1.2-1.2-1.2-.7 0-1.3.5-1.7 1.1l-.3-.3c.5-.8 1.3-1.4 2.2-1.4 1.4 0 2 .6 2 1.7v3.4c0 .8.3 1 .6 1 .2 0 .5-.1.6-.3zm-2.4-.5v-2.2l-1 .2c-.8.2-1.4.6-1.4 1.4 0 .7.5 1.2 1.1 1.2.5 0 1-.2 1.3-.6z"/><path d="m77.7 597c-.3.5-1 1.2-2.4 1.2-1.7 0-3.1-1.4-3.1-3.4s1.5-3.3 3.1-3.3c.7 0 1.2.1 1.8.4l.2-.4h.3l-.1 1.8h-.3c-.2-.9-.8-1.5-1.8-1.5-1.2 0-2 1.1-2 2.8s.9 2.9 2.1 2.9c1 0 1.5-.4 1.9-.9z"/><path d="m82.5 597.2c-.3.5-.9.9-1.8.9-.8 0-1.5-.5-1.5-1.7v-4.2h-1v-.3l1-.4.8-1.9h.3v2.1h1.8v.4h-1.8v4.1c0 .9.4 1.2 1 1.2.5 0 .8-.3 1-.5z"/><path d="m88.2 594.3h-4.3v.4c0 1.8.9 2.9 2.1 2.9 1 0 1.5-.4 1.9-.9l.3.3c-.3.5-1 1.2-2.4 1.2-1.8 0-3.1-1.4-3.1-3.3 0-2 1.5-3.3 3-3.3s2.5 1 2.5 2.5zm-1.1-.4c0-1-.3-2.1-1.4-2.1-.9 0-1.5.9-1.7 2.1z"/><path d="m93.7 591.9-.4.9c-.2-.1-.9-.5-1.1-.5-.7 0-1.2 1-1.2 2.4v3l1.4.1v.3h-3.4v-.3l1-.1v-5.3l-1-.2v-.3l2-.3v1.6c.3-1.2 1.1-1.7 1.8-1.7.3 0 .7.2.9.4z"/><path d="m98.5 596.2c0 1-.8 1.9-2.1 1.9-.6 0-1.1-.1-1.5-.4l-.1.4h-.3l-.1-2h.3c.2 1.1.8 1.6 1.7 1.6.7 0 1.2-.5 1.2-1.2 0-.8-.7-1.1-1.4-1.4-.8-.3-1.7-.8-1.7-1.9 0-1 .8-1.8 1.9-1.8.6 0 1 .1 1.4.4l.2-.3h.3v1.7h-.3c-.1-.9-.6-1.4-1.5-1.4-.7 0-1.1.5-1.1 1 0 .8.7 1.1 1.4 1.4.8.5 1.7.9 1.7 2z"/><path d="m101.1 597.3c0 .4-.3.8-.8.8s-.8-.3-.8-.8c0-.4.3-.8.8-.8s.8.4.8.8z"/><path d="m230.1 513h-3.4v-.3l1.3-.1-1.1-2.8h-3.5l-1 2.8 1.3.2v.3h-2.6v-.3l.8-.2 3.5-9.2h.3l3.5 9.3.8.1v.2zm-3.3-3.8-1.6-4.2-1.6 4.2z"/><path d="m234.9 506.9-.4.9c-.2-.1-.9-.5-1.1-.5-.7 0-1.2 1-1.2 2.4v3l1.4.1v.3h-3.4v-.3l1-.1v-5.3l-1-.2v-.3l2-.3v1.6c.3-1.2 1.1-1.7 1.8-1.7.4 0 .7.2.9.4z"/><path d="m240.8 509.3h-4.3v.4c0 1.8.9 2.9 2.1 2.9 1 0 1.5-.4 1.9-.9l.3.3c-.3.5-1 1.2-2.4 1.2-1.8 0-3.1-1.4-3.1-3.3 0-2 1.5-3.3 3-3.3s2.5 1 2.5 2.5zm-1.2-.4c0-1-.3-2.1-1.4-2.1-.9 0-1.5.9-1.7 2.1z"/><path d="m247.5 512.4c-.2.3-.7.7-1.3.7s-1-.4-1.1-.9c-.5.5-1.2.9-1.8.9-1 0-1.8-.7-1.8-1.6 0-1.1.9-1.7 2-1.9l1.5-.3v-1.1c0-.8-.3-1.2-1.2-1.2-.7 0-1.3.5-1.7 1.1l-.3-.3c.5-.8 1.3-1.4 2.2-1.4 1.4 0 2 .6 2 1.7v3.4c0 .8.3 1 .6 1 .2 0 .5-.1.6-.3zm-2.4-.5v-2.2l-1 .2c-.8.2-1.4.6-1.4 1.4 0 .7.5 1.2 1.1 1.2.5 0 1-.2 1.3-.6z"/><path d="m252.1 511.2c0 1-.8 1.9-2.1 1.9-.6 0-1.1-.1-1.5-.4l-.2.4h-.3l-.1-2h.3c.2 1.1.8 1.6 1.7 1.6.7 0 1.2-.5 1.2-1.2 0-.8-.7-1.1-1.4-1.4-.8-.3-1.7-.8-1.7-1.9 0-1 .8-1.8 1.9-1.8.6 0 1 .1 1.4.4l.2-.3h.3v1.7h-.3c-.1-.9-.6-1.4-1.5-1.4-.7 0-1.1.5-1.1 1 0 .8.7 1.1 1.4 1.4.9.5 1.8.9 1.8 2z"/><path d="m265.8 507-.7.2-2.5 6h-.1l-1.8-4.5-1.8 4.5h-.1l-2.5-6.1-.7-.1v-.3h2.9v.3l-1 .1 1.7 4.3 1.3-3.3-.4-1-.7-.1v-.3h2.9v.3l-1 .1v.1l1.7 4.3 1.7-4.3-1-.1v-.3h2.3v.2z"/><path d="m269.2 513h-3v-.3l1-.1v-5.3l-1-.2v-.3l2.1-.3v6.1l1 .1v.3zm-.9-8.8c0 .4-.3.7-.7.7s-.7-.3-.7-.7.3-.7.7-.7.7.4.7.7z"/><path d="m273.9 512.2c-.3.5-.9.9-1.8.9-.8 0-1.5-.5-1.5-1.7v-4.2h-1v-.3l1-.4.8-1.9h.3v2.1h1.8v.4h-1.8v4.1c0 .9.4 1.2 1 1.2.5 0 .8-.3 1-.5z"/><path d="m281.3 513h-3.1v-.3l1.1-.1v-5c-.2-.4-.6-.6-1.1-.6-1.2 0-1.9 1.2-1.9 2.7v2.9l1.1.1v.3h-3.1v-.3l1-.1v-9.4l-1-.2v-.3l2.1-.3v5.7c.4-1 1.1-1.6 2.2-1.6 1.2 0 1.9.8 1.9 2v4.1l1 .1v.3z"/><path d="m290.7 512.4c-.2.3-.7.7-1.3.7s-1-.4-1.1-.9c-.5.5-1.2.9-1.8.9-1 0-1.8-.7-1.8-1.6 0-1.1.9-1.7 2-1.9l1.5-.3v-1.1c0-.8-.3-1.2-1.2-1.2-.7 0-1.3.5-1.7 1.1l-.3-.3c.5-.8 1.3-1.4 2.2-1.4 1.4 0 2 .6 2 1.7v3.4c0 .8.3 1 .6 1 .2 0 .5-.1.6-.3zm-2.4-.5v-2.2l-1 .2c-.8.2-1.4.6-1.4 1.4 0 .7.5 1.2 1.1 1.2.4 0 1-.2 1.3-.6z"/><path d="m303.8 507-.7.2-2.5 6h-.2l-1.8-4.5-1.8 4.5h-.2l-2.5-6.1-.7-.1v-.3h2.9v.3l-1 .1 1.7 4.3 1.3-3.3-.4-1-.7-.1v-.3h2.9v.3l-1 .1v.1l1.7 4.3 1.7-4.3-1-.1v-.3h2.3z"/><path d="m307.2 513h-3v-.3l1-.1v-5.3l-1-.2v-.3l2.1-.3v6.1l1 .1v.3zm-.9-8.8c0 .4-.3.7-.7.7s-.7-.3-.7-.7.3-.7.7-.7.7.4.7.7z"/><path d="m314.5 512.8-2 .3v-1c-.4.6-.9 1-1.9 1-1.3 0-2.7-1.1-2.7-3.1 0-2.1 1.3-3.5 3-3.5.8 0 1.3.3 1.6.6v-4l-1-.2v-.3l2.1-.3v10l1 .2v.3zm-2.1-1.3v-3.7c-.3-.5-.9-.9-1.5-.9-1.4 0-1.9 1.5-1.9 3 0 1.6.7 2.7 1.9 2.7.9 0 1.3-.6 1.5-1.1z"/><path d="m320.5 509.3h-4.3v.4c0 1.8.9 2.9 2.1 2.9 1 0 1.5-.4 1.9-.9l.3.3c-.3.5-1 1.2-2.4 1.2-1.8 0-3.1-1.4-3.1-3.3 0-2 1.5-3.3 3-3.3s2.5 1 2.5 2.5zm-1.1-.4c0-1-.3-2.1-1.4-2.1-.9 0-1.5.9-1.7 2.1z"/><path d="m326 506.9-.4.9c-.2-.1-.9-.5-1.1-.5-.7 0-1.2 1-1.2 2.4v3l1.4.1v.3h-3.4v-.3l1-.1v-5.3l-1-.2v-.3l2-.3v1.6c.3-1.2 1.1-1.7 1.8-1.7.3 0 .7.2.9.4z"/><path d="m332.4 513h-3v-.3l1-.1v-9.4l-1-.2v-.3l2.1-.3v10.2l1 .1v.3z"/><path d="m336.1 513h-3v-.3l1-.1v-5.3l-1-.2v-.3l2.1-.3v6.1l1 .1v.3zm-1-8.8c0 .4-.3.7-.7.7s-.7-.3-.7-.7.3-.7.7-.7.7.4.7.7z"/><path d="m343.8 513h-3.1v-.3l1.1-.1v-5c-.1-.4-.6-.6-1.1-.6-1.2 0-1.9 1.2-1.9 2.7v2.9l1.1.1v.3h-3.1v-.3l1-.1v-5.3l-1-.2v-.3l2-.3v1.6c.4-1.1 1.2-1.7 2.2-1.7 1.2 0 1.9.8 1.9 2v4.1l1 .1v.4z"/><path d="m349.8 509.3h-4.3v.4c0 1.8.9 2.9 2.1 2.9 1 0 1.5-.4 1.9-.9l.3.3c-.3.5-1 1.2-2.4 1.2-1.8 0-3.1-1.4-3.1-3.3 0-2 1.5-3.3 3-3.3s2.5 1 2.5 2.5zm-1.2-.4c0-1-.3-2.1-1.4-2.1-.9 0-1.5.9-1.7 2.1z"/><path d="m224.3 530h-3v-.3l1-.1v-9.4l-1-.2v-.3l2.1-.3v10.2l1 .1v.3z"/><path d="m230.5 526.3h-4.3v.4c0 1.8.9 2.9 2.1 2.9 1 0 1.5-.4 1.9-.9l.3.3c-.3.5-1 1.2-2.4 1.2-1.8 0-3.1-1.4-3.1-3.3 0-2 1.5-3.3 3-3.3s2.5 1 2.5 2.5zm-1.2-.4c0-1-.3-2.1-1.4-2.1-.9 0-1.5.9-1.7 2.1z"/><path d="m238.3 530h-3.1v-.3l1.1-.1v-5c-.1-.4-.6-.6-1.1-.6-1.2 0-1.9 1.2-1.9 2.7v2.9l1.1.1v.3h-3.1v-.3l1-.1v-5.3l-1-.2v-.3l2-.3v1.6c.4-1.1 1.2-1.7 2.2-1.7 1.2 0 1.9.8 1.9 2v4.1l1 .1v.4z"/><path d="m244.9 524.3-1.7-.2c.5.4.8 1 .8 1.6 0 1.5-1.3 2.3-2.5 2.4-1 .1-1.4.5-1.4.9 0 .2.1.3.2.4l2.8.3c.8.1 1.7.6 1.7 1.6 0 1.6-1.4 2.6-3.5 2.6-1.3 0-2.7-.7-2.7-2 0-.8.5-1.3 1.2-1.7-.3-.2-.5-.5-.5-.9 0-.5.4-1 1.3-1.3-.9-.3-1.6-1.1-1.6-2.2 0-1.4 1.2-2.4 2.5-2.4.5 0 1 .2 1.4.4l2-.4zm-1 7.5c0-.6-.4-1-1.1-1.1l-2.8-.3c-.4.2-.6.8-.6 1.3 0 .9.7 1.9 2.3 1.9.9 0 2.2-.6 2.2-1.8zm-1-5.9c0-1.2-.6-2-1.4-2-.9 0-1.4.8-1.4 2s.6 2 1.4 2 1.4-.9 1.4-2z"/><path d="m249.4 529.2c-.3.5-.9.9-1.8.9-.8 0-1.5-.5-1.5-1.7v-4.2h-1v-.3l1-.4.8-1.9h.3v2.1h1.8v.4h-1.8v4.1c0 .9.4 1.2 1 1.2.5 0 .8-.3 1-.5z"/><path d="m256.7 530h-3.1v-.3l1.1-.1v-5c-.2-.4-.6-.6-1.1-.6-1.2 0-1.9 1.2-1.9 2.7v2.9l1.1.1v.3h-3.1v-.3l1-.1v-9.4l-1-.2v-.3l2.1-.3v5.7c.4-1 1.1-1.6 2.2-1.6 1.2 0 1.9.8 1.9 2v4.1l1 .1v.3z"/><path d="m261.5 528.2c0 1-.8 1.9-2.1 1.9-.6 0-1.1-.1-1.5-.4l-.2.4h-.3l-.1-2h.3c.2 1.1.8 1.6 1.7 1.6.7 0 1.2-.5 1.2-1.2 0-.8-.7-1.1-1.4-1.4-.8-.3-1.7-.8-1.7-1.9 0-1 .8-1.8 1.9-1.8.6 0 1 .1 1.4.4l.2-.3h.3v1.7h-.3c-.1-.9-.6-1.4-1.5-1.4-.7 0-1.1.5-1.1 1 0 .8.7 1.1 1.4 1.4 1 .5 1.8.9 1.8 2z"/><path d="m264.3 529.8c0 1.1-.7 1.8-1.6 2.1l-.2-.4c.7-.2 1.2-.7 1.2-1.5l-1.2-.5c-.1-.1-.1-.3-.1-.4 0-.4.3-.7.8-.7.6.1 1.1.7 1.1 1.4z"/><path d="m278.3 524-.7.2-2.5 6h-.1l-1.8-4.5-1.8 4.5h-.1l-2.5-6.1-.8-.1v-.3h2.9v.3l-1 .1 1.7 4.3 1.3-3.3-.4-1-.7-.1v-.3h2.9v.3l-1 .1v.1l1.7 4.3 1.7-4.3-1-.1v-.3h2.3v.2z"/><path d="m285.5 530h-3.1v-.3l1.1-.1v-5c-.2-.4-.6-.6-1.1-.6-1.2 0-1.9 1.2-1.9 2.7v2.9l1.1.1v.3h-3.1v-.3l1-.1v-9.4l-1-.2v-.3l2.1-.3v5.7c.4-1 1.1-1.6 2.2-1.6 1.2 0 1.9.8 1.9 2v4.1l1 .1v.3z"/><path d="m289 530h-3v-.3l1-.1v-5.3l-1-.2v-.3l2.1-.3v6.1l1 .1v.3zm-.9-8.8c0 .4-.3.7-.7.7s-.7-.3-.7-.7.3-.7.7-.7.7.4.7.7z"/><path d="m295.1 529c-.3.5-1 1.2-2.4 1.2-1.7 0-3.1-1.4-3.1-3.4s1.5-3.3 3.1-3.3c.7 0 1.2.1 1.8.4l.2-.4h.3l-.1 1.8h-.3c-.2-.9-.8-1.5-1.8-1.5-1.2 0-2 1.1-2 2.8s.9 2.9 2.1 2.9c1 0 1.5-.4 1.9-.9z"/><path d="m302.7 530h-3.1v-.3l1.1-.1v-5c-.2-.4-.6-.6-1.1-.6-1.2 0-1.9 1.2-1.9 2.7v2.9l1.1.1v.3h-3.1v-.3l1-.1v-9.4l-1-.2v-.3l2.1-.3v5.7c.4-1 1.1-1.6 2.2-1.6 1.2 0 1.9.8 1.9 2v4.1l1 .1v.3z"/><path d="m316.1 524-.7.2-2.5 6h-.1l-1.8-4.5-1.8 4.5h-.2l-2.5-6.1-.7-.1v-.3h2.9v.3l-1 .1 1.7 4.3 1.3-3.3-.4-1-.7-.1v-.3h2.9v.3l-1 .1v.1l1.7 4.3 1.7-4.3-1-.1v-.3h2.3v.2z"/><path d="m319.5 530h-3v-.3l1-.1v-5.3l-1-.2v-.3l2.1-.3v6.1l1 .1v.3zm-.9-8.8c0 .4-.3.7-.7.7s-.7-.3-.7-.7.3-.7.7-.7.7.4.7.7z"/><path d="m323.1 530h-3v-.3l1-.1v-9.4l-1-.2v-.3l2.1-.3v10.2l1 .1v.3z"/><path d="m326.6 530h-3v-.3l1-.1v-9.4l-1-.2v-.3l2.1-.3v10.2l1 .1v.3z"/><path d="m336.5 526.6c0 2.1-1.2 3.5-3.4 3.5-.9 0-1.7-.2-2.2-.5v-9.5l-1-.2v-.3l2.1-.3v5.1c.4-.6 1.1-1 2-1 1.2.1 2.5 1.2 2.5 3.2zm-1.2.1c0-1.6-.6-2.7-1.8-2.7-.8 0-1.3.4-1.7 1.1v4.2c.2.2.8.4 1.3.4 1.5 0 2.2-1.3 2.2-3z"/><path d="m342.8 526.3h-4.3v.4c0 1.8.9 2.9 2.1 2.9 1 0 1.5-.4 1.9-.9l.3.3c-.3.5-1 1.2-2.4 1.2-1.8 0-3.1-1.4-3.1-3.3 0-2 1.5-3.3 3-3.3s2.5 1 2.5 2.5zm-1.2-.4c0-1-.3-2.1-1.4-2.1-.9 0-1.5.9-1.7 2.1z"/><path d="m232.2 547h-3.1v-.3l1.1-.1v-5c-.2-.4-.4-.6-1-.6-1 0-1.8 1.1-1.8 2.7v2.9l1.1.1v.3h-3.2v-.3l1.1-.1v-5c-.2-.4-.4-.6-1-.6-1 0-1.8 1.1-1.8 2.7v2.9l1.1.1v.3h-3.1v-.3l1-.1v-5.3l-1-.2v-.3l2-.3v1.6c.3-.9 1.1-1.7 2.1-1.7s1.6.6 1.8 1.7c.3-1 1.1-1.7 2.1-1.7 1.1 0 1.8.8 1.8 2v4.1l1 .1v.4z"/><path d="m238.9 543.8c0 2-1.4 3.3-3.1 3.3s-3.1-1.3-3.1-3.3 1.4-3.3 3.1-3.3c1.8 0 3.1 1.3 3.1 3.3zm-1.2 0c0-1.8-.7-3-1.9-3s-1.9 1.1-1.9 3 .7 3 1.9 3 1.9-1.1 1.9-3z"/><path d="m244 545.2c0 1-.8 1.9-2.1 1.9-.6 0-1.1-.1-1.5-.4l-.1.4h-.3l-.1-2h.3c.2 1.1.8 1.6 1.7 1.6.7 0 1.2-.5 1.2-1.2 0-.8-.7-1.1-1.4-1.4-.8-.3-1.7-.8-1.7-1.9 0-1 .8-1.8 1.9-1.8.6 0 1 .1 1.4.4l.2-.3h.3v1.7h-.3c-.2-.9-.6-1.4-1.5-1.4-.7 0-1.1.5-1.1 1 0 .8.7 1.1 1.4 1.4.8.5 1.7.9 1.7 2z"/><path d="m248.9 546.2c-.3.5-.9.9-1.8.9-.8 0-1.5-.5-1.5-1.7v-4.2h-1v-.3l1-.4.8-1.9h.3v2.1h1.8v.4h-1.8v4.1c0 .9.4 1.2 1 1.2.5 0 .8-.3 1-.5z"/><path d="m252.2 547h-3v-.3l1-.1v-9.4l-1-.2v-.3l2.1-.3v10.2l1 .1v.3z"/><path d="m258.8 541-.7.2-2.4 5.9-1.3 3.8h-1l1.9-3.9-2.3-5.8-.7-.1v-.3h2.9v.3l-1 .1 1.7 4.6 1.7-4.5-1-.1v-.3h2.3v.1z"/><path d="m269 546.8-2 .3v-1.6c-.4 1.1-1.2 1.7-2.2 1.7-1.2 0-1.9-.8-1.9-2v-4l-1-.2v-.3h2.1v5.3c.1.4.5.6 1.1.6 1.2 0 1.9-1.2 1.9-2.7v-2.7l-1.1-.2v-.3h2.2v5.7l1 .2v.2z"/><path d="m273.9 545.2c0 1-.8 1.9-2.1 1.9-.6 0-1.1-.1-1.5-.4l-.1.4h-.3l-.1-2h.3c.2 1.1.8 1.6 1.7 1.6.7 0 1.2-.5 1.2-1.2 0-.8-.7-1.1-1.4-1.4-.8-.3-1.7-.8-1.7-1.9 0-1 .8-1.8 1.9-1.8.6 0 1 .1 1.4.4l.2-.3h.3v1.7h-.3c-.2-.9-.6-1.4-1.5-1.4-.7 0-1.1.5-1.1 1 0 .8.7 1.1 1.4 1.4.8.5 1.7.9 1.7 2z"/><path d="m280.2 543.3h-4.3v.4c0 1.8.9 2.9 2.1 2.9 1 0 1.5-.4 1.9-.9l.3.3c-.3.5-1 1.2-2.4 1.2-1.8 0-3.1-1.4-3.1-3.3 0-2 1.5-3.3 3-3.3s2.5 1 2.5 2.5zm-1.1-.4c0-1-.3-2.1-1.4-2.1-.9 0-1.5.9-1.7 2.1z"/><path d="m287.7 546.8-2 .3v-1c-.4.6-.9 1-1.9 1-1.3 0-2.7-1.1-2.7-3.1 0-2.1 1.3-3.5 3-3.5.8 0 1.3.3 1.6.6v-4l-1-.2v-.3l2.1-.3v10l1 .2v.3zm-2.1-1.3v-3.7c-.3-.5-.9-.9-1.5-.9-1.4 0-1.9 1.5-1.9 3 0 1.6.7 2.7 1.9 2.7.9 0 1.3-.6 1.5-1.1z"/><path d="m294.2 547h-3v-.3l1-.1v-5.3l-1-.2v-.3l2.1-.3v6.1l1 .1v.3zm-.9-8.8c0 .4-.3.7-.7.7s-.7-.3-.7-.7.3-.7.7-.7.7.4.7.7z"/><path d="m301.9 547h-3.1v-.3l1.1-.1v-5c-.1-.4-.6-.6-1.1-.6-1.2 0-1.9 1.2-1.9 2.7v2.9l1.1.1v.3h-3.1v-.3l1-.1v-5.3l-1-.2v-.3l2-.3v1.6c.4-1.1 1.2-1.7 2.2-1.7 1.2 0 1.9.8 1.9 2v4.1l1 .1v.4z"/><path d="m312.1 546.8-2 .3v-1c-.4.6-.9 1-1.9 1-1.3 0-2.7-1.1-2.7-3.1 0-2.1 1.3-3.5 3-3.5.8 0 1.3.3 1.6.6v-4l-1-.2v-.3l2.1-.3v10l1 .2v.3zm-2.1-1.3v-3.7c-.3-.5-.9-.9-1.5-.9-1.4 0-1.9 1.5-1.9 3 0 1.6.7 2.7 1.9 2.7.9 0 1.3-.6 1.5-1.1z"/><path d="m318.1 543.3h-4.3v.4c0 1.8.9 2.9 2.1 2.9 1 0 1.5-.4 1.9-.9l.3.3c-.3.5-1 1.2-2.4 1.2-1.8 0-3.1-1.4-3.1-3.3 0-2 1.5-3.3 3-3.3s2.5 1 2.5 2.5zm-1.1-.4c0-1-.3-2.1-1.4-2.1-.9 0-1.5.9-1.7 2.1z"/><path d="m323.2 545.2c0 1-.8 1.9-2.1 1.9-.6 0-1.1-.1-1.5-.4l-.1.4h-.3l-.1-2h.3c.2 1.1.8 1.6 1.7 1.6.7 0 1.2-.5 1.2-1.2 0-.8-.7-1.1-1.4-1.4-.8-.3-1.7-.8-1.7-1.9 0-1 .8-1.8 1.9-1.8.6 0 1 .1 1.4.4l.2-.3h.3v1.7h-.3c-.2-.9-.6-1.4-1.5-1.4-.7 0-1.1.5-1.1 1 0 .8.7 1.1 1.4 1.4.9.5 1.7.9 1.7 2z"/><path d="m330.7 547h-1.7l-.3-.4-2.3-2.8h-.4v2.8l1 .1v.3h-3v-.3l1-.1v-9.4l-1-.2v-.3l2.1-.3v7.2l2.6-2.4-1-.1v-.3h2.6v.3l-.9.1-2.2 2 2.9 3.4.6.2z"/><path d="m335.1 546.2c-.3.5-.9.9-1.8.9-.8 0-1.5-.5-1.5-1.7v-4.2h-1v-.3l1-.4.8-1.9h.3v2.1h1.8v.4h-1.8v4.1c0 .9.4 1.2 1 1.2.5 0 .8-.3 1-.5z"/><path d="m341.5 543.8c0 2-1.4 3.3-3.1 3.3s-3.1-1.3-3.1-3.3 1.4-3.3 3.1-3.3 3.1 1.3 3.1 3.3zm-1.2 0c0-1.8-.7-3-1.9-3s-1.9 1.1-1.9 3 .7 3 1.9 3 1.9-1.1 1.9-3z"/><path d="m348.7 543.6c0 2.1-1.4 3.5-3.1 3.5-.7 0-1.1-.2-1.5-.4v3.7l1.4.1v.3h-3.5v-.3l1-.1v-9.1l-1-.2v-.3l2-.3v1c.4-.6 1.1-1.1 2-1.1 1.4.1 2.7 1.2 2.7 3.2zm-1.2.1c0-1.6-.6-2.7-1.8-2.7-.8 0-1.4.5-1.6 1.1v4c.3.3.9.6 1.3.6 1.5 0 2.1-1.5 2.1-3z"/><path d="m351.3 546.8c0 1.1-.7 1.8-1.6 2.1l-.2-.4c.7-.2 1.2-.7 1.2-1.5l-1.2-.5c-.1-.1-.1-.3-.1-.4 0-.4.3-.7.8-.7.6.1 1.1.7 1.1 1.4z"/><path d="m365.2 541-.7.2-2.5 6h-.2l-1.8-4.5-1.8 4.5h-.2l-2.5-6.1-.5-.1v-.3h2.9v.3l-1 .1 1.7 4.3 1.3-3.3-.4-1-.7-.1v-.3h2.9v.3l-1 .1v.1l1.7 4.3 1.7-4.3-1-.1v-.3h2.3v.2z"/><path d="m368.7 547h-3v-.3l1-.1v-5.3l-1-.2v-.3l2.1-.3v6.1l1 .1v.3zm-.9-8.8c0 .4-.3.7-.7.7s-.7-.3-.7-.7.3-.7.7-.7.7.4.7.7z"/><path d="m372.2 547h-3v-.3l1-.1v-9.4l-1-.2v-.3l2.1-.3v10.2l1 .1v.3z"/><path d="m375.7 547h-3v-.3l1-.1v-9.4l-1-.2v-.3l2.1-.3v10.2l1 .1v.3z"/><path d="m228.5 564h-3.1v-.3l1.1-.1v-5c-.2-.4-.6-.6-1.1-.6-1.2 0-1.9 1.2-1.9 2.7v2.9l1.1.1v.3h-3.1v-.3l1-.1v-5.3l-1-.2v-.3l2-.3v1.6c.4-1.1 1.2-1.7 2.2-1.7 1.2 0 1.9.8 1.9 2v4.1l1 .1v.4z"/><path d="m234.5 560.3h-4.3v.4c0 1.8.9 2.9 2.1 2.9 1 0 1.5-.4 1.9-.9l.3.3c-.3.5-1 1.2-2.4 1.2-1.8 0-3.1-1.4-3.1-3.3 0-2 1.5-3.3 3-3.3s2.5 1 2.5 2.5zm-1.1-.4c0-1-.3-2.1-1.4-2.1-.9 0-1.5.9-1.7 2.1z"/><path d="m240.8 560.3h-4.3v.4c0 1.8.9 2.9 2.1 2.9 1 0 1.5-.4 1.9-.9l.3.3c-.3.5-1 1.2-2.4 1.2-1.8 0-3.1-1.4-3.1-3.3 0-2 1.5-3.3 3-3.3s2.5 1 2.5 2.5zm-1.1-.4c0-1-.3-2.1-1.4-2.1-.9 0-1.5.9-1.7 2.1z"/><path d="m248.3 563.8-2 .3v-1c-.4.6-.9 1-1.9 1-1.3 0-2.7-1.1-2.7-3.1 0-2.1 1.3-3.5 3-3.5.8 0 1.3.3 1.6.6v-4l-1-.2v-.3l2.1-.3v10l1 .2v.3zm-2.1-1.3v-3.7c-.3-.5-.9-.9-1.5-.9-1.4 0-1.9 1.5-1.9 3 0 1.6.7 2.7 1.9 2.7.9 0 1.3-.6 1.5-1.1z"/><path d="m257.8 563.4c-.2.3-.7.7-1.3.7s-1-.4-1.1-.9c-.4.5-1.2.9-1.8.9-1 0-1.8-.7-1.8-1.6 0-1.1.9-1.7 2-1.9l1.5-.3v-1.1c0-.8-.3-1.2-1.2-1.2-.7 0-1.3.5-1.7 1.1l-.3-.3c.5-.8 1.3-1.4 2.2-1.4 1.3 0 2 .6 2 1.7v3.4c0 .8.3 1 .6 1 .2 0 .5-.1.6-.3zm-2.5-.5v-2.2l-1 .2c-.8.2-1.4.6-1.4 1.4 0 .7.5 1.2 1.1 1.2.5 0 1-.2 1.3-.6z"/><path d="m265 564h-3.1v-.3l1.1-.1v-5c-.1-.4-.6-.6-1.1-.6-1.2 0-1.9 1.2-1.9 2.7v2.9l1.1.1v.3h-3.1v-.3l1-.1v-5.3l-1-.2v-.3l2-.3v1.6c.4-1.1 1.2-1.7 2.2-1.7 1.2 0 1.9.8 1.9 2v4.1l1 .1v.4z"/><path d="m272.2 563.8-2 .3v-1c-.4.6-.9 1-1.9 1-1.3 0-2.7-1.1-2.7-3.1 0-2.1 1.3-3.5 3-3.5.8 0 1.3.3 1.6.6v-4l-1-.2v-.3l2.1-.3v10l1 .2v.3zm-2.1-1.3v-3.7c-.3-.5-.9-.9-1.5-.9-1.4 0-1.9 1.5-1.9 3 0 1.6.7 2.7 1.9 2.7.9 0 1.3-.6 1.5-1.1z"/><path d="m278.7 564h-3v-.3l1-.1v-5.3l-1-.2v-.3l2.1-.3v6.1l1 .1v.3zm-.9-8.8c0 .4-.3.7-.7.7s-.7-.3-.7-.7.3-.7.7-.7.7.4.7.7z"/><path d="m286.4 564h-3.1v-.3l1.1-.1v-5c-.1-.4-.6-.6-1.1-.6-1.2 0-1.9 1.2-1.9 2.7v2.9l1.1.1v.3h-3.1v-.3l1-.1v-5.3l-1-.2v-.3l2-.3v1.6c.4-1.1 1.2-1.7 2.2-1.7 1.2 0 1.9.8 1.9 2v4.1l1 .1v.4z"/><path d="m292.4 563c-.3.5-1 1.2-2.4 1.2-1.7 0-3.1-1.4-3.1-3.4s1.5-3.3 3.1-3.3c.7 0 1.2.1 1.8.4l.2-.4h.3l-.1 1.8h-.3c-.2-.9-.8-1.5-1.8-1.5-1.2 0-2 1.1-2 2.8s.9 2.9 2.1 2.9c1 0 1.5-.4 1.9-.9z"/><path d="m297.7 557.9-.4.9c-.2-.1-.9-.5-1.1-.5-.7 0-1.2 1-1.2 2.4v3l1.4.1v.3h-3.4v-.3l1-.1v-5.3l-1-.2v-.3l2-.3v1.6c.3-1.2 1.1-1.7 1.8-1.7.4 0 .7.2.9.4z"/><path d="m303.6 560.3h-4.3v.4c0 1.8.9 2.9 2.1 2.9 1 0 1.5-.4 1.9-.9l.3.3c-.3.5-1 1.2-2.4 1.2-1.8 0-3.1-1.4-3.1-3.3 0-2 1.5-3.3 3-3.3s2.5 1 2.5 2.5zm-1.2-.4c0-1-.3-2.1-1.4-2.1-.9 0-1.5.9-1.7 2.1z"/><path d="m310.3 563.4c-.2.3-.7.7-1.3.7s-1-.4-1.1-.9c-.5.5-1.2.9-1.8.9-1 0-1.8-.7-1.8-1.6 0-1.1.9-1.7 2-1.9l1.5-.3v-1.1c0-.8-.3-1.2-1.2-1.2-.7 0-1.3.5-1.7 1.1l-.3-.3c.5-.8 1.3-1.4 2.2-1.4 1.4 0 2 .6 2 1.7v3.4c0 .8.3 1 .6 1 .2 0 .5-.1.6-.3zm-2.4-.5v-2.2l-1 .2c-.8.2-1.4.6-1.4 1.4 0 .7.5 1.2 1.1 1.2.5 0 1-.2 1.3-.6z"/><path d="m314.9 562.2c0 1-.8 1.9-2.1 1.9-.6 0-1.1-.1-1.5-.4l-.2.4h-.3l-.1-2h.3c.2 1.1.8 1.6 1.7 1.6.7 0 1.2-.5 1.2-1.2 0-.8-.7-1.1-1.4-1.4-.8-.3-1.7-.8-1.7-1.9 0-1 .8-1.8 1.9-1.8.6 0 1 .1 1.4.4l.2-.3h.3v1.7h-.3c-.1-.9-.6-1.4-1.5-1.4-.7 0-1.1.5-1.1 1 0 .8.7 1.1 1.4 1.4.9.5 1.8.9 1.8 2z"/><path d="m321.2 560.3h-4.3v.4c0 1.8.9 2.9 2.1 2.9 1 0 1.5-.4 1.9-.9l.3.3c-.3.5-1 1.2-2.4 1.2-1.8 0-3.1-1.4-3.1-3.3 0-2 1.5-3.3 3-3.3s2.5 1 2.5 2.5zm-1.1-.4c0-1-.3-2.1-1.4-2.1-.9 0-1.5.9-1.7 2.1z"/><path d="m328.7 563.8-2 .3v-1c-.4.6-.9 1-1.9 1-1.3 0-2.7-1.1-2.7-3.1 0-2.1 1.3-3.5 3-3.5.8 0 1.3.3 1.6.6v-4l-1-.2v-.3l2.1-.3v10l1 .2v.3zm-2.1-1.3v-3.7c-.3-.5-.9-.9-1.5-.9-1.4 0-1.9 1.5-1.9 3 0 1.6.7 2.7 1.9 2.7.9 0 1.3-.6 1.5-1.1z"/><path d="m335.1 564h-3v-.3l1-.1v-9.4l-1-.2v-.3l2.1-.3v10.2l1 .1v.3z"/><path d="m338.8 564h-3v-.3l1-.1v-5.3l-1-.2v-.3l2.1-.3v6.1l1 .1v.3zm-.9-8.8c0 .4-.3.7-.7.7s-.7-.3-.7-.7.3-.7.7-.7.7.4.7.7z"/><path d="m346.5 564h-3.1v-.3l1.1-.1v-5c-.2-.4-.6-.6-1.1-.6-1.2 0-1.9 1.2-1.9 2.7v2.9l1.1.1v.3h-3.1v-.3l1-.1v-5.3l-1-.2v-.3l2-.3v1.6c.4-1.1 1.2-1.7 2.2-1.7 1.2 0 1.9.8 1.9 2v4.1l1 .1v.4z"/><path d="m352.5 560.3h-4.3v.4c0 1.8.9 2.9 2.1 2.9 1 0 1.5-.4 1.9-.9l.3.3c-.3.5-1 1.2-2.4 1.2-1.8 0-3.1-1.4-3.1-3.3 0-2 1.5-3.3 3-3.3s2.5 1 2.5 2.5zm-1.1-.4c0-1-.3-2.1-1.4-2.1-.9 0-1.5.9-1.7 2.1z"/><path d="m228.3 581h-3.1v-.3l1.1-.1v-5c-.2-.4-.6-.6-1.1-.6-1.2 0-1.9 1.2-1.9 2.7v2.9l1.1.1v.3h-3.1v-.3l1-.1v-9.4l-1-.2v-.3l2.1-.3v5.7c.4-1 1.1-1.6 2.2-1.6 1.2 0 1.9.8 1.9 2v4.1l1 .1v.3z"/><path d="m234.4 577.3h-4.4v.4c0 1.8.9 2.9 2.1 2.9 1 0 1.5-.4 1.9-.9l.3.3c-.3.5-1 1.2-2.4 1.2-1.8 0-3.1-1.4-3.1-3.3 0-2 1.5-3.3 3-3.3s2.5 1 2.5 2.5v.2zm-1.2-.4c0-1-.3-2.1-1.4-2.1-.9 0-1.5.9-1.7 2.1z"/><path d="m238.2 581h-3v-.3l1-.1v-5.3l-1-.2v-.3l2.1-.3v6.1l1 .1v.3zm-.9-8.8c0 .4-.3.7-.7.7s-.7-.3-.7-.7.3-.7.7-.7.7.4.7.7z"/><path d="m244.9 575.3-1.7-.2c.5.4.8 1 .8 1.6 0 1.5-1.3 2.3-2.5 2.4-1 .1-1.4.5-1.4.9 0 .2.1.3.2.4l2.8.3c.8.1 1.7.6 1.7 1.6 0 1.6-1.4 2.6-3.5 2.6-1.3 0-2.7-.7-2.7-2 0-.8.5-1.3 1.2-1.7-.3-.2-.5-.5-.5-.9 0-.5.4-1 1.3-1.3-.9-.3-1.6-1.1-1.6-2.2 0-1.4 1.2-2.4 2.5-2.4.5 0 1 .2 1.4.4l2-.4zm-1 7.5c0-.6-.4-1-1.1-1.1l-2.8-.3c-.4.2-.6.8-.6 1.3 0 .9.7 1.9 2.3 1.9.8 0 2.2-.6 2.2-1.8zm-1.1-5.9c0-1.2-.6-2-1.4-2-.9 0-1.4.8-1.4 2s.6 2 1.4 2c.9 0 1.4-.9 1.4-2z"/><path d="m252.2 581h-3.1v-.3l1.1-.1v-5c-.2-.4-.6-.6-1.1-.6-1.2 0-1.9 1.2-1.9 2.7v2.9l1.1.1v.3h-3.1v-.3l1-.1v-9.4l-1-.2v-.3l2.1-.3v5.7c.4-1 1.1-1.6 2.2-1.6 1.2 0 1.9.8 1.9 2v4.1l1 .1v.3z"/><path d="m256.8 580.2c-.3.5-.9.9-1.8.9-.8 0-1.5-.5-1.5-1.7v-4.2h-1v-.3l1-.4.8-1.9h.3v2.1h1.8v.4h-1.8v4.1c0 .9.4 1.2 1 1.2.5 0 .8-.3 1-.5z"/><path d="m264.8 570.5-.4.9c-.6-.4-1.1-.7-1.4-.7-.5 0-.8.4-.8 1.6v2.4h1.8v.4h-1.8v5.4l1.4.1v.3h-3.5v-.3l1-.1v-5.4h-1v-.3l1-.3v-1.2c0-1.8.7-3.3 2.5-3.3.5.2.8.3 1.2.5z"/><path d="m269 574.9-.4.9c-.2-.1-.9-.5-1.1-.5-.7 0-1.2 1-1.2 2.4v3l1.4.1v.3h-3.4v-.3l1-.1v-5.3l-1-.2v-.3l2-.3v1.6c.3-1.2 1.1-1.7 1.8-1.7.3 0 .7.2.9.4z"/><path d="m275.5 577.8c0 2-1.4 3.3-3.1 3.3s-3.1-1.3-3.1-3.3 1.4-3.3 3.1-3.3 3.1 1.3 3.1 3.3zm-1.2 0c0-1.8-.7-3-1.9-3s-1.9 1.1-1.9 3 .7 3 1.9 3 1.9-1.1 1.9-3z"/><path d="m287 581h-3.1v-.3l1.1-.1v-5c-.2-.4-.4-.6-1-.6-1 0-1.8 1.1-1.8 2.7v2.9l1.1.1v.3h-3.3v-.3l1.1-.1v-5c-.2-.4-.4-.6-1-.6-1 0-1.8 1.1-1.8 2.7v2.9l1.1.1v.3h-3.1v-.3l1-.1v-5.3l-1-.2v-.3l2-.3v1.6c.3-.9 1.1-1.7 2.1-1.7s1.6.6 1.8 1.7c.3-1 1.1-1.7 2.1-1.7 1.1 0 1.8.8 1.8 2v4.1l1 .1v.4z"/><path d="m296.6 578.9-.3 2.1h-5.8l-.1-.5 2.3-2.4c1.5-1.5 2.4-2.6 2.4-4.4 0-1.3-.7-2.1-1.9-2.1-1 0-1.7.6-2 1.6l-.5-.3c.4-1.1 1.3-1.9 2.7-1.9 1.7 0 2.8.9 2.8 2.6 0 1.6-.8 2.5-2.4 4.1l-2.2 2.3h4.2l.4-1.2z"/><path d="m304 576.1c0 2.5-.9 5-3.2 5s-3.2-2.5-3.2-5 .9-5 3.2-5 3.2 2.5 3.2 5zm-1.2 0c0-2.3-.4-4.6-2-4.6s-2 2.2-2 4.6.4 4.6 2 4.6 2-2.2 2-4.6z"/><path d="m311.4 577.6c0 2.1-1.4 3.5-3.1 3.5-.7 0-1.1-.2-1.5-.4v3.7l1.4.1v.3h-3.4v-.3l1-.1v-9.1l-1-.2v-.3l2-.3v1c.4-.6 1.1-1.1 2-1.1 1.3.1 2.6 1.2 2.6 3.2zm-1.2.1c0-1.6-.6-2.7-1.8-2.7-.8 0-1.4.5-1.6 1.1v4c.3.3.9.6 1.3.6 1.5 0 2.1-1.5 2.1-3z"/><path d="m316.5 579.2c0 1-.8 1.9-2.1 1.9-.6 0-1.1-.1-1.5-.4l-.2.4h-.3l-.1-2h.3c.2 1.1.8 1.6 1.7 1.6.7 0 1.2-.5 1.2-1.2 0-.8-.7-1.1-1.4-1.4-.8-.3-1.7-.8-1.7-1.9 0-1 .8-1.8 1.9-1.8.6 0 1 .1 1.4.4l.2-.3h.3v1.7h-.3c-.1-.9-.6-1.4-1.5-1.4-.7 0-1.1.5-1.1 1 0 .8.7 1.1 1.4 1.4.9.5 1.8.9 1.8 2z"/><path d="m324.4 580.2c-.3.5-.9.9-1.8.9-.8 0-1.5-.5-1.5-1.7v-4.2h-1v-.3l1-.4.8-1.9h.3v2.1h1.8v.4h-1.8v4.1c0 .9.4 1.2 1 1.2.5 0 .8-.3 1-.5z"/><path d="m330.8 577.8c0 2-1.4 3.3-3.1 3.3s-3.1-1.3-3.1-3.3 1.4-3.3 3.1-3.3 3.1 1.3 3.1 3.3zm-1.2 0c0-1.8-.7-3-1.9-3s-1.9 1.1-1.9 3 .7 3 1.9 3 1.9-1.1 1.9-3z"/><path d="m340.6 578.9-.3 2.1h-5.8l-.1-.5 2.3-2.4c1.5-1.5 2.4-2.6 2.4-4.4 0-1.3-.7-2.1-1.9-2.1-1 0-1.7.6-2 1.6l-.5-.3c.4-1.1 1.3-1.9 2.7-1.9 1.7 0 2.8.9 2.8 2.6 0 1.6-.8 2.5-2.4 4.1l-2.2 2.3h4.2l.4-1.2z"/><path d="m347.7 577.4-.1.7h-1.4v3h-1.1v-3h-4l-.2-.5 4.9-6.6.3.1v6.3zm-2.6 0v-4.4l-3.3 4.4z"/><path d="m354.7 577.6c0 2.1-1.4 3.5-3.1 3.5-.7 0-1.1-.2-1.5-.4v3.7l1.4.1v.3h-3.5v-.3l1-.1v-9.1l-1-.2v-.3l2-.3v1c.4-.6 1.1-1.1 2-1.1 1.4.1 2.7 1.2 2.7 3.2zm-1.2.1c0-1.6-.6-2.7-1.8-2.7-.8 0-1.4.5-1.6 1.1v4c.3.3.9.6 1.3.6 1.5 0 2.1-1.5 2.1-3z"/><path d="m359.8 579.2c0 1-.8 1.9-2.1 1.9-.6 0-1.1-.1-1.5-.4l-.2.4h-.3l-.1-2h.3c.2 1.1.8 1.6 1.7 1.6.7 0 1.2-.5 1.2-1.2 0-.8-.7-1.1-1.4-1.4-.8-.3-1.7-.8-1.7-1.9 0-1 .8-1.8 1.9-1.8.6 0 1 .1 1.4.4l.2-.3h.3v1.7h-.3c-.1-.9-.6-1.4-1.5-1.4-.7 0-1.1.5-1.1 1 0 .8.7 1.1 1.4 1.4.9.5 1.8.9 1.8 2z"/><path d="m362.4 580.3c0 .4-.3.8-.8.8-.4 0-.8-.3-.8-.8 0-.4.3-.8.8-.8.4.1.8.4.8.8z"/><path d="m395.2 90.7v3.6h-.4l-.1-1.4-3 1.1v3.7l3 1.1.2-1.3h.4v2.8h-.4l-.2-.9-9.8-3.7v-.4l9.9-3.8.1-.9h.3zm-4 3.5-4.5 1.7 4.5 1.7z"/><path d="m395.2 87.2v3.2h-.3l-.1-1h-10.1l-.2 1h-.3l-.3-2.2h10.9l.1-1z"/><path d="m395.2 83.5v3.2h-.3l-.1-1h-10.1l-.2 1h-.3l-.3-2.2h10.9l.1-1z"/><path d="m394.4 75.2c.5.4.9.9.9 1.9 0 .9-.6 1.6-1.8 1.6h-4.5v1.1h-.3l-.4-1-2-.8v-.4h2.2v-2h.5v2h4.4c.9 0 1.3-.4 1.3-1 0-.5-.3-.9-.6-1.1z"/><path d="m388.7 69.9 1 .4c-.1.2-.5 1-.5 1.1 0 .8 1.1 1.2 2.5 1.2h3.2l.1-1.5h.3v3.7h-.3l-.1-1h-5.6l-.2 1h-.3l-.3-2.1h1.7c-1.2-.4-1.8-1.1-1.8-2-.1-.2.1-.6.3-.8z"/><path d="m388.8 62.6.2.8 6.3 2.5 4 1.4v1.1l-4.1-2-6.2 2.5-.2.8h-.3v-3.1h.3l.1 1.1 4.9-1.8-4.8-1.9-.2 1.1h-.3v-2.4h.3z"/><path d="m395.2 59v3.2h-.3l-.1-1h-5.7l-.2 1h-.3l-.4-2.2h6.5l.1-1zm-9.3 1c.4 0 .7.3.7.7s-.3.7-.7.7-.7-.3-.7-.7.3-.7.7-.7z"/><path d="m395.2 50.8v3.3h-.3l-.1-1.2h-5.3c-.4.2-.6.6-.6 1.2 0 1.3 1.3 2 2.9 2h3.1l.1-1.2h.3v3.3h-.3l-.1-1h-5.6l-.2 1h-.3l-.3-2.1h1.7c-1.1-.4-1.8-1.2-1.8-2.4s.9-2 2.1-2h4.4l.1-1h.2z"/><path d="m389.2 43.8-.2 1.8c.4-.6 1.1-.8 1.8-.8 1.6 0 2.4 1.3 2.5 2.7.1 1 .5 1.5 1 1.5.2 0 .3-.1.4-.2l.3-3c.1-.8.6-1.8 1.7-1.8 1.7 0 2.8 1.5 2.8 3.7 0 1.4-.8 2.8-2.2 2.8-.9 0-1.4-.6-1.8-1.3-.2.3-.6.5-1 .5-.5 0-1.1-.4-1.4-1.4-.4 1-1.2 1.7-2.4 1.7-1.5 0-2.5-1.2-2.5-2.7 0-.6.2-1.1.4-1.5l-.4-2.1h1zm8 1c-.7 0-1.1.4-1.2 1.1l-.3 2.9c.3.4.8.7 1.4.7 1 0 2-.8 2-2.4 0-.8-.6-2.3-1.9-2.3zm-6.4 1.1c-1.2 0-2.1.6-2.1 1.5s.9 1.5 2.1 1.5 2.1-.6 2.1-1.5c.1-.9-.8-1.5-2.1-1.5z"/><path d="m394.5 41.5c.5 0 .8.4.8.8s-.4.8-.8.8-.8-.4-.8-.8.4-.8.8-.8z"/></svg>