<?xml version="1.0" encoding="utf-8"?>
<!-- Generator: Adobe Illustrator 24.1.0, SVG Export Plug-In . SVG Version: 6.00 Build 0)  -->
<svg version="1.1" id="Layer_1" xmlns="http://www.w3.org/2000/svg" xmlns:xlink="http://www.w3.org/1999/xlink" x="0px" y="0px"
	 viewBox="0 0 437 643" style="enable-background:new 0 0 437 643;" xml:space="preserve">
<style type="text/css">
	.st0{fill:#FFFFFF;}
	.st1{fill:#C3D1C4;}
	.st2{fill:none;}
	.st3{fill:#EB5E5E;}
	.st4{font-family:'WhitmanDisplay-Regular';}
	.st5{font-size:120px;}
	.st6{font-family:'WhitmanDisplay-Black';}
	.st7{font-size:200px;}
	.st8{font-size:30px;}
	.st9{font-size:16px;}
	.st10{font-size:15px;}
</style>
<rect class="st0" width="437" height="643"/>
<rect y="133.9" class="st1" width="437" height="219.4"/>
<rect x="34" y="87" class="st2" width="134.6" height="93.9"/>
<text transform="matrix(1 0 0 1 34 171.4795)" class="st3 st4 st5">#</text>
<rect x="98.7" y="30.4" class="st2" width="213.6" height="153.4"/>
<text transform="matrix(1 0 0 1 98.677 171.8194)" class="st3 st6 st7">8</text>
<rect x="41" y="387.2" class="st2" width="329.2" height="38.6"/>
<text transform="matrix(1 0 0 1 41 408.3818)"><tspan x="0" y="0" class="st6 st8">WE.</tspan><tspan x="53.4" y="0" class="st4 st8"> MORE. LESS</tspan></text>
<rect x="41" y="425.2" class="st2" width="329.2" height="38.6"/>
<text transform="matrix(1 0 0 1 41 436.507)" class="st4 st9">Typo posters.</text>
<rect x="41" y="502.4" class="st2" width="163.7" height="97.2"/>
<text transform="matrix(1 0 0 1 41 512.9705)"><tspan x="0" y="0" class="st4 st10">Line lengths is a huge and </tspan><tspan x="0" y="17" class="st4 st10">important topic which </tspan><tspan x="0" y="34" class="st4 st10">definitely needs to put focus </tspan><tspan x="0" y="51" class="st4 st10">on. The classic Body usually </tspan><tspan x="0" y="68" class="st4 st10">takes up between 40 and 60 </tspan><tspan x="0" y="85" class="st4 st10">characters. </tspan></text>
<rect x="221" y="502.4" class="st2" width="161.9" height="98"/>
<text transform="matrix(1 0 0 1 221.037 512.9705)"><tspan x="0" y="0" class="st4 st10">Areas with a wider line </tspan><tspan x="0" y="17" class="st4 st10">lengths, which will be </tspan><tspan x="0" y="34" class="st4 st10">mostly used in desktop, will </tspan><tspan x="0" y="51" class="st4 st10">need and increased line </tspan><tspan x="0" y="68" class="st4 st10">height from 20ps to 24ps.</tspan></text>
<g>
	<path d="M395.2,90.7v3.6h-0.4l-0.1-1.4l-3,1.1v3.7l3,1.1l0.2-1.3h0.4v2.8h-0.4l-0.2-0.9l-9.8-3.7v-0.4l9.9-3.8l0.1-0.9H395.2z
		 M391.2,94.2l-4.5,1.7l4.5,1.7V94.2z"/>
	<path d="M395.2,87.2v3.2h-0.3l-0.1-1h-10.1l-0.2,1h-0.3l-0.3-2.2h10.9l0.1-1H395.2z"/>
	<path d="M395.2,83.5v3.2h-0.3l-0.1-1h-10.1l-0.2,1h-0.3l-0.3-2.2h10.9l0.1-1H395.2z"/>
	<path d="M394.4,75.2c0.5,0.4,0.9,0.9,0.9,1.9c0,0.9-0.6,1.6-1.8,1.6h-4.5v1.1h-0.3l-0.4-1l-2-0.8v-0.4h2.2v-2h0.5v2h4.4
		c0.9,0,1.3-0.4,1.3-1c0-0.5-0.3-0.9-0.6-1.1L394.4,75.2z"/>
	<path d="M388.7,69.9l1,0.4c-0.1,0.2-0.5,1-0.5,1.1c0,0.8,1.1,1.2,2.5,1.2h3.2l0.1-1.5h0.3v3.7h-0.3l-0.1-1h-5.6l-0.2,1h-0.3
		l-0.3-2.1h1.7v0c-1.2-0.4-1.8-1.1-1.8-2C388.3,70.5,388.5,70.1,388.7,69.9z"/>
	<path d="M388.8,62.6l0.2,0.8l6.3,2.5l4,1.4v1.1l-4.1-2l-6.2,2.5l-0.2,0.8h-0.3v-3.1h0.3l0.1,1.1l4.9-1.8L389,64l-0.2,1.1h-0.3v-2.4
		H388.8z"/>
	<path d="M395.2,59v3.2h-0.3l-0.1-1h-5.7l-0.2,1h-0.3l-0.4-2.2h6.5l0.1-1H395.2z M385.9,60c0.4,0,0.7,0.3,0.7,0.7
		c0,0.4-0.3,0.7-0.7,0.7s-0.7-0.3-0.7-0.7C385.2,60.3,385.5,60,385.9,60z"/>
	<path d="M395.2,50.8v3.3h-0.3l-0.1-1.2h-5.3c-0.4,0.2-0.6,0.6-0.6,1.2c0,1.3,1.3,2,2.9,2h3.1l0.1-1.2h0.3v3.3h-0.3l-0.1-1h-5.6
		l-0.2,1h-0.3l-0.3-2.1h1.7v0c-1.1-0.4-1.8-1.2-1.8-2.4c0-1.2,0.9-2,2.1-2h4.4l0.1-1H395.2z"/>
	<path d="M389.2,43.8l-0.2,1.8l0,0c0.4-0.6,1.1-0.8,1.8-0.8c1.6,0,2.4,1.3,2.5,2.7c0.1,1,0.5,1.5,1,1.5c0.2,0,0.3-0.1,0.4-0.2l0.3-3
		c0.1-0.8,0.6-1.8,1.7-1.8c1.7,0,2.8,1.5,2.8,3.7c0,1.4-0.8,2.8-2.2,2.8c-0.9,0-1.4-0.6-1.8-1.3c-0.2,0.3-0.6,0.5-1,0.5
		c-0.5,0-1.1-0.4-1.4-1.4h0c-0.4,1-1.2,1.7-2.4,1.7c-1.5,0-2.5-1.2-2.5-2.7c0-0.6,0.2-1.1,0.4-1.5l-0.4-2.1H389.2z M397.2,44.8
		c-0.7,0-1.1,0.4-1.2,1.1l-0.3,2.9c0.3,0.4,0.8,0.7,1.4,0.7c1,0,2-0.8,2-2.4C399.1,46.3,398.5,44.8,397.2,44.8z M390.8,45.9
		c-1.2,0-2.1,0.6-2.1,1.5c0,0.9,0.9,1.5,2.1,1.5c1.2,0,2.1-0.6,2.1-1.5C393,46.5,392.1,45.9,390.8,45.9z"/>
	<path d="M394.5,41.5c0.5,0,0.8,0.4,0.8,0.8s-0.4,0.8-0.8,0.8s-0.8-0.4-0.8-0.8S394.1,41.5,394.5,41.5z"/>
</g>
</svg>
