<svg enable-background="new 0 0 437 643" viewBox="0 0 437 643" xmlns="http://www.w3.org/2000/svg"><path d="m0 0h437v643h-437z" fill="#fff"/><path d="m0 133.9h437v219.4h-437z" fill="#d6efce"/><path d="m94.7 118.7-.6 4.3h-12.1l-2.5 19.8h12.1l-.6 4.3h-12.1l-3 24.4h-4.4l3-24.4h-17.2l-3 24.4h-4.4l3-24.4h-12.2l.6-4.3h12.1l2.6-19.8h-12.2l.6-4.3h12.1l3.1-24.5h4.4l-3 24.5h17.2l3.1-24.5h4.4l-3.1 24.5zm-17.1 4.3h-17.2l-2.5 19.8h17.1z" fill="#eb5e5e"/><path d="m193.5 132.6-3.6 39.2h-88l-.8-11.2 28-26.6c24.8-23.6 29-38.6 29-56.8 0-13.6-6.8-24-20.2-24-11.4 0-19.4 8.2-25.2 20l-10.2-8c8.4-15 19.6-25.4 43.4-25.4 26.4 0 44 12.8 44 38.2 0 19.4-13.6 35-47.8 60.6l-9.8 8.8v.8h46.6l5.4-17.2z" fill="#eb5e5e"/><path d="m56.8 402.9c0 3.2-2.3 5.5-7.9 5.5h-6.7v-.7l2.3-.2v-17.5l-2.3-.2v-.7h7.4c3.6 0 5.8 1.4 5.8 4.6 0 2.4-1.8 4-3.9 4.4v.1c2.9.1 5.3 1.5 5.3 4.7zm-3.7-9.1c0-2.6-1.6-3.9-4.2-3.9-.8 0-1.4 0-2 .1v7.8h1.7c3 .1 4.5-1.6 4.5-4zm1.3 9.4c0-2.5-1.8-4.5-5.1-4.5h-2.4v8.5c.9.2 1.4.2 2.7.2 3.1.1 4.8-1.7 4.8-4.2z"/><path d="m75.7 408.4h-3.7l-5.8-8.5-2.5.2v7.4l2.6.2v.7h-7.3v-.7l2.3-.2v-17.5l-2.3-.2v-.7h7.4c3.3 0 6.1 1.5 6.1 4.8 0 2.6-1.7 4.7-4.1 5.5l5.6 8.1 1.6.3v.6zm-5.5-14.1c0-2.9-1.6-4.3-4.4-4.3-.7 0-1.3 0-2 .1v9h1.5c3 0 4.9-1.8 4.9-4.8z"/><path d="m84.1 408.4h-7v-.7l2.3-.2v-17.5l-2.3-.2v-.7h7v.7l-2.3.2v17.5l2.3.2z"/><path d="m104.4 401.3-1.2.4v5.2c-1.3.9-3.9 1.9-7.3 1.9-5.5 0-9.4-4-9.4-10 0-6.1 4-10.2 9.9-10.2 2.8 0 4.4.5 5.5 1l.3-1h.8l-.2 5.3h-.7l-.5-2.5c-1.4-1.2-3-1.9-5.8-1.9-3.7 0-6.8 3.4-6.8 9 0 5.2 2.7 9.3 7.2 9.3 2 0 3.4-.4 4.6-1.3v-4.8l-3-.2v-.7h6.5v.5z"/><path d="m125.8 408.4h-7v-.7l2.3-.2v-8.7h-9.8v8.7l2.3.2v.7h-7v-.7l2.3-.2v-17.5l-2.3-.2v-.7h7v.7l-2.3.2v7.9h9.8v-7.9l-2.3-.2v-.7h7v.7l-2.3.2v17.5l2.3.2z"/><path d="m143.1 393.7h-.8l-.4-3.7h-5.3v17.5l2.5.2v.7h-7.4v-.7l2.5-.2v-17.5h-5.3l-.4 3.7h-.8v-4.7h15.4z"/><path d="m146.1 407.1c0 .9-.7 1.6-1.6 1.6s-1.6-.7-1.6-1.6.7-1.6 1.6-1.6 1.6.8 1.6 1.6z"/><path d="m174.3 398.5c0 5.8-3.7 9.9-9.8 9.9h-9.8v-1.3l2.3-.4v-16.1l-2.3-.4v-1.3h9.6c6 .2 10 4 10 9.6zm-5.2.2c0-4.5-1.6-8.1-5.8-8.1-.5 0-.9 0-1.4.1v16c.4.2 1 .2 1.5.2 4.2 0 5.7-3.6 5.7-8.2z"/><path d="m193.8 408.4h-8.9v-1.3l2.2-.4-1.4-4h-6.3l-1.4 4 2.2.4v1.3h-5.9v-1.3l1.5-.4 6.8-17.8h2.9l6.8 17.8 1.6.4v1.3zm-8.7-7.4-2.5-7.1-2.6 7.1z"/><path d="m213.9 408.4h-6l-4.7-8-1.3.1v6.3l2.2.4v1.3h-9.3v-1.3l2.3-.4v-16.1l-2.3-.4v-1.3h9.2c3.7 0 6.9 1.3 6.9 5 0 2.5-1.6 4.5-3.5 5.3l4.8 7.2 1.6.5v1.4zm-7.8-14c0-2.3-1.1-3.8-3.1-3.8-.4 0-.8 0-1.1.1v8.2h.8c2.1-.1 3.4-1.9 3.4-4.5z"/><path d="m234.8 408.4h-6.3l-5.8-8.8h-.7v7.1l2.1.4v1.3h-9.2v-1.3l2.3-.4v-16.1l-2.3-.4v-1.3h9.2v1.3l-2.1.4v7.5h.4l6.5-7.6-1.8-.3v-1.3h6.5v1.3l-2.1.4-5.5 6.2 7.2 9.8 1.6.4z"/><path d="m241.1 406.3c0 1.3-1 2.3-2.3 2.3s-2.3-1-2.3-2.3 1-2.3 2.3-2.3 2.3 1.1 2.3 2.3z"/><path d="m264.7 393.7h-.8l-.4-3.7h-5.3v17.5l2.5.2v.7h-7.4v-.7l2.5-.2v-17.5h-5.3l-.4 3.7h-.8v-4.7h15.4z"/><path d="m285.6 408.4h-7v-.7l2.3-.2v-8.7h-9.8v8.7l2.3.2v.7h-7v-.7l2.3-.2v-17.5l-2.3-.2v-.7h7v.7l-2.3.2v7.9h9.8v-7.9l-2.3-.2v-.7h7v.7l-2.3.2v17.5l2.3.2z"/><path d="m304.7 408.4h-3.7l-5.8-8.5-2.5.2v7.4l2.6.2v.7h-7.3v-.7l2.3-.2v-17.5l-2.3-.2v-.7h7.4c3.3 0 6.1 1.5 6.1 4.8 0 2.6-1.7 4.7-4.1 5.5l5.6 8.1 1.6.3v.6zm-5.5-14.1c0-2.9-1.6-4.3-4.4-4.3-.7 0-1.3 0-2 .1v9h1.5c3 0 4.9-1.8 4.9-4.8z"/><path d="m319.4 408.4h-13.4v-.7l2.3-.2v-17.5l-2.3-.2v-.7h13v4.1h-.8l-.4-3.1h-7v7.8h5.2l.3-2.1h.8v5.1h-.8l-.3-2.1h-5.2v8.5h7.4l.4-3.4h.9v4.5z"/><path d="m335.6 408.4h-13.4v-.7l2.3-.2v-17.5l-2.3-.2v-.7h13v4.1h-.8l-.4-3.1h-7v7.8h5.2l.3-2.1h.8v5.1h-.8l-.3-2.1h-5.2v8.5h7.4l.4-3.4h.9v4.5z"/><path d="m341.9 407.1c0 .9-.7 1.6-1.6 1.6s-1.6-.7-1.6-1.6.7-1.6 1.6-1.6 1.6.8 1.6 1.6z"/><path d="m49 428.9c0 2-1.5 3.4-4.2 3.4-.1 0-.5 0-.6 0v3.8l1.4.1v.4h-3.9v-.4l1.2-.1v-9.3l-1.2-.1v-.4h4c1.8-.1 3.3 1 3.3 2.6zm-1.3.1c0-1.5-1-2.4-2.5-2.4-.4 0-.8 0-1.1.1v5.1h.8c2 0 2.8-1.3 2.8-2.8z"/><path d="m54.5 430-.4 1c-.2-.1-1-.5-1.1-.5-.8 0-1.2 1.1-1.2 2.5v3.2l1.5.1v.3h-3.7v-.3l1-.1v-5.6l-1-.2v-.4l2.1-.3v1.7c.4-1.2 1.1-1.8 2-1.8.2 0 .6.2.8.4z"/><path d="m58.3 436.5h-3.2v-.3l1-.1v-5.7l-1-.2v-.2l2.2-.4v6.5l1 .1zm-1-9.3c0 .4-.3.7-.7.7s-.7-.3-.7-.7.3-.7.7-.7.7.3.7.7z"/><path d="m66.5 436.5h-3.3v-.3l1.2-.1v-5.3c-.2-.4-.6-.6-1.2-.6-1.3 0-2 1.3-2 2.9v3.1l1.2.1v.3h-3.4v-.3l1-.1v-5.6l-1-.2v-.4l2.1-.3v1.7c.4-1.1 1.2-1.8 2.4-1.8s2 .9 2 2.1v4.4l1 .1z"/><path d="m72.9 435.4c-.3.5-1.1 1.3-2.5 1.3-1.8 0-3.3-1.5-3.3-3.6s1.6-3.5 3.3-3.5c.8 0 1.3.1 1.9.4l.2-.4h.3l-.1 2h-.3c-.2-1-.8-1.6-1.9-1.6-1.3 0-2.1 1.2-2.1 3s1 3.1 2.2 3.1c1 0 1.6-.4 2-1z"/><path d="m76.9 436.5h-3.2v-.3l1-.1v-5.7l-1-.2v-.2l2.2-.4v6.5l1 .1zm-1-9.3c0 .4-.3.7-.7.7s-.7-.3-.7-.7.3-.7.7-.7c.3 0 .7.3.7.7z"/><path d="m84.4 432.9c0 2.2-1.4 3.8-3.3 3.8-.7 0-1.2-.2-1.6-.4v3.9l1.5.1v.3h-3.7v-.3l1-.1v-9.7l-1-.2v-.3l2.1-.3v1.1c.4-.7 1.2-1.2 2.2-1.2 1.4 0 2.8 1.2 2.8 3.3zm-1.2.1c0-1.7-.7-2.9-1.9-2.9-.8 0-1.5.5-1.8 1.2v4.3c.3.4.9.6 1.4.6 1.6.1 2.3-1.6 2.3-3.2z"/><path d="m88.3 436.5h-3.2v-.3l1-.1v-10.1l-1-.2v-.3l2.2-.3v10.9l1 .1z"/><path d="m94.9 432.6h-4.6v.4c0 1.9.9 3.1 2.2 3.1 1 0 1.6-.4 2-1l.3.3c-.3.5-1.1 1.3-2.5 1.3-1.9 0-3.3-1.5-3.3-3.6s1.6-3.5 3.2-3.5c1.7 0 2.7 1.1 2.7 2.7zm-1.3-.4c0-1-.3-2.2-1.5-2.2-.9 0-1.6.9-1.8 2.2z"/><path d="m100.3 434.7c0 1-.8 2-2.3 2-.7 0-1.2-.1-1.6-.4l-.2.4h-.2l-.1-2.1h.3c.2 1.1.8 1.8 1.8 1.8.8 0 1.3-.5 1.3-1.3s-.7-1.2-1.5-1.5c-.9-.4-1.8-.8-1.8-2 0-1.1.9-1.9 2-1.9.6 0 1 .1 1.5.4l.2-.4h.3v1.8h-.3c-.2-.9-.7-1.5-1.6-1.5-.8 0-1.2.6-1.2 1.1 0 .8.7 1.2 1.5 1.5 1 .4 1.9.9 1.9 2.1z"/><path d="m103.1 435.8c0 .5-.4.8-.8.8s-.8-.4-.8-.8.4-.8.8-.8.8.4.8.8z"/><path d="m48.2 513h-6.6v-.3l1.2-.1v-8.8l-1.2-.1v-.3h3.7v.3l-1.3.1v8.7h3.6l.2-1.8h.4z"/><path d="m54.5 509.3h-4.3v.4c0 1.8.9 2.9 2.1 2.9 1 0 1.5-.4 1.9-.9l.3.3c-.3.5-1 1.2-2.4 1.2-1.8 0-3.1-1.4-3.1-3.3 0-2 1.5-3.3 3-3.3s2.5 1 2.5 2.5zm-1.2-.4c0-1-.3-2.1-1.4-2.1-.9 0-1.5.9-1.7 2.1z"/><path d="m59.3 512.2c-.3.5-.9.9-1.8.9-.8 0-1.5-.5-1.5-1.7v-4.2h-1v-.3l1-.4.8-1.9h.3v2.1h1.9v.4h-1.8v4.1c0 .9.4 1.2 1 1.2.5 0 .8-.3 1-.5z"/><path d="m63.6 512.2c-.3.5-.9.9-1.8.9-.8 0-1.5-.5-1.5-1.7v-4.2h-1v-.3l1-.4.8-1.9h.3v2.1h1.8v.4h-1.8v4.1c0 .9.4 1.2 1 1.2.5 0 .8-.3 1-.5z"/><path d="m69.4 509.3h-4.3v.4c0 1.8.9 2.9 2.1 2.9 1 0 1.5-.4 1.9-.9l.3.3c-.3.5-1 1.2-2.4 1.2-1.8 0-3.1-1.4-3.1-3.3 0-2 1.5-3.3 3-3.3s2.5 1 2.5 2.5zm-1.1-.4c0-1-.3-2.1-1.4-2.1-.9 0-1.5.9-1.7 2.1z"/><path d="m74.9 506.9-.4.9c-.2-.1-.9-.5-1.1-.5-.7 0-1.2 1-1.2 2.4v3l1.4.1v.3h-3.4v-.3l1-.1v-5.3l-1-.2v-.3l2-.3v1.6c.3-1.2 1.1-1.7 1.8-1.7.3 0 .7.2.9.4z"/><path d="m78.3 509.7-3 .4v-.7l3-.4z"/><path d="m85.6 510.4c0 1.6-1.4 2.8-2.9 2.8-1 0-1.7-.2-2.3-.5l-.1.5h-.4l-.1-3h.4l.3 1.6c.5.6 1.2 1 2.1 1 1.2 0 2.1-.7 2.1-2 0-1-.6-1.5-2.2-2.3-1.8-.8-2.5-1.5-2.5-2.9 0-1.5 1.2-2.5 2.8-2.5.8 0 1.4.2 2 .5l.2-.5h.4l-.1 2.7h-.4l-.3-1.4c-.4-.6-1.1-.8-1.8-.8-.9 0-1.8.6-1.8 1.7 0 1 .4 1.3 2.2 2.2 1.5.7 2.4 1.4 2.4 2.9z"/><path d="m92.9 509.6c0 2.1-1.4 3.5-3.1 3.5-.7 0-1.1-.2-1.5-.4v3.7l1.4.1v.3h-3.4v-.3l1-.1v-9.1l-1-.2v-.3l2-.3v1c.4-.6 1.1-1.1 2-1.1 1.3.1 2.6 1.2 2.6 3.2zm-1.2.1c0-1.6-.6-2.7-1.8-2.7-.8 0-1.4.5-1.6 1.1v4c.3.3.9.6 1.4.6 1.4 0 2-1.5 2-3z"/><path d="m99.6 512.4c-.2.3-.7.7-1.3.7s-1-.4-1.1-.9c-.4.5-1.2.9-1.8.9-1 0-1.8-.7-1.8-1.6 0-1.1.9-1.7 2-1.9l1.5-.3v-1.1c0-.8-.3-1.2-1.2-1.2-.7 0-1.3.5-1.7 1.1l-.3-.3c.5-.8 1.3-1.4 2.2-1.4 1.4 0 2 .6 2 1.7v3.4c0 .8.3 1 .6 1 .2 0 .5-.1.6-.3zm-2.5-.5v-2.2l-1 .2c-.8.2-1.4.6-1.4 1.4 0 .7.5 1.2 1.1 1.2.5 0 1-.2 1.3-.6z"/><path d="m105.2 512c-.3.5-1 1.2-2.4 1.2-1.7 0-3.1-1.4-3.1-3.4s1.5-3.3 3.1-3.3c.7 0 1.2.1 1.8.4l.2-.4h.3l-.1 1.8h-.3c-.2-.9-.8-1.5-1.8-1.5-1.2 0-2 1.1-2 2.8s.9 2.9 2.1 2.9c1 0 1.5-.4 1.9-.9z"/><path d="m108.9 513h-3v-.3l1-.1v-5.3l-1-.2v-.3l2.1-.3v6.1l1 .1v.3zm-.9-8.8c0 .4-.3.7-.7.7s-.7-.3-.7-.7.3-.7.7-.7.7.4.7.7z"/><path d="m116.6 513h-3.1v-.3l1.1-.1v-5c-.1-.4-.6-.6-1.1-.6-1.2 0-1.9 1.2-1.9 2.7v2.9l1.1.1v.3h-3.1v-.3l1-.1v-5.3l-1-.2v-.3l2-.3v1.6c.4-1.1 1.2-1.7 2.2-1.7 1.2 0 1.9.8 1.9 2v4.1l1 .1v.4z"/><path d="m123.2 507.3-1.7-.2c.5.4.8 1 .8 1.6 0 1.5-1.3 2.3-2.5 2.4-1 .1-1.4.5-1.4.9 0 .2.1.3.2.4l2.8.3c.8.1 1.7.6 1.7 1.6 0 1.6-1.4 2.6-3.5 2.6-1.3 0-2.7-.7-2.7-2 0-.8.5-1.3 1.2-1.7-.3-.2-.5-.5-.5-.9 0-.5.4-1 1.3-1.3-.9-.3-1.6-1.1-1.6-2.2 0-1.4 1.2-2.4 2.5-2.4.5 0 1 .2 1.4.4l2-.4zm-1 7.5c0-.6-.4-1-1.1-1.1l-2.8-.3c-.4.2-.6.8-.6 1.3 0 .9.7 1.9 2.3 1.9.9 0 2.2-.6 2.2-1.8zm-1-5.9c0-1.2-.6-2-1.4-2s-1.4.8-1.4 2 .6 2 1.4 2 1.4-.9 1.4-2z"/><path d="m125.6 512.8c0 1.1-.7 1.8-1.6 2.1l-.2-.4c.7-.2 1.2-.7 1.2-1.5l-1.2-.5c-.1-.1-.1-.3-.1-.4 0-.4.3-.7.8-.7.6.1 1.1.7 1.1 1.4z"/><path d="m137.2 510.2c0 1.6-1.2 2.7-3.9 2.7h-3.4v-.3l1.2-.1v-8.8l-1.2-.1v-.3h3.7c1.8 0 2.9.7 2.9 2.3 0 1.2-.9 2-1.9 2.2 1.4.1 2.6.8 2.6 2.4zm-1.9-4.5c0-1.3-.8-2-2.1-2-.4 0-.7 0-1 .1v3.9h.9c1.5 0 2.2-.8 2.2-2zm.7 4.7c0-1.2-.9-2.2-2.6-2.2h-1.2v4.3c.4.1.7.1 1.3.1 1.7 0 2.5-1 2.5-2.2z"/><path d="m144.1 512.4c-.2.3-.7.7-1.3.7s-1-.4-1.1-.9c-.4.5-1.2.9-1.8.9-1 0-1.8-.7-1.8-1.6 0-1.1.9-1.7 2-1.9l1.5-.3v-1.1c0-.8-.3-1.2-1.2-1.2-.7 0-1.3.5-1.7 1.1l-.3-.3c.5-.8 1.3-1.4 2.2-1.4 1.4 0 2 .6 2 1.7v3.4c0 .8.3 1 .6 1 .2 0 .5-.1.6-.3zm-2.4-.5v-2.2l-1 .2c-.8.2-1.4.6-1.4 1.4 0 .7.5 1.2 1.1 1.2.4 0 .9-.2 1.3-.6z"/><path d="m148.6 511.2c0 1-.8 1.9-2.1 1.9-.6 0-1.1-.1-1.5-.4l-.1.4h-.3l-.1-2h.3c.2 1.1.8 1.6 1.7 1.6.7 0 1.2-.5 1.2-1.2 0-.8-.7-1.1-1.4-1.4-.8-.3-1.7-.8-1.7-1.9 0-1 .8-1.8 1.9-1.8.6 0 1 .1 1.4.4l.2-.3h.3v1.7h-.4c-.1-.9-.6-1.4-1.5-1.4-.7 0-1.1.5-1.1 1 0 .8.7 1.1 1.4 1.4 1 .5 1.8.9 1.8 2z"/><path d="m155 509.3h-4.3v.4c0 1.8.9 2.9 2.1 2.9 1 0 1.5-.4 1.9-.9l.3.3c-.3.5-1 1.2-2.4 1.2-1.8 0-3.1-1.4-3.1-3.3 0-2 1.5-3.3 3-3.3s2.5 1 2.5 2.5zm-1.1-.4c0-1-.3-2.1-1.4-2.1-.9 0-1.5.9-1.7 2.1z"/><path d="m158.7 513h-3v-.3l1-.1v-9.4l-1-.2v-.3l2.1-.3v10.2l1 .1v.3z"/><path d="m162.4 513h-3v-.3l1-.1v-5.3l-1-.2v-.3l2.1-.3v6.1l1 .1v.3zm-.9-8.8c0 .4-.3.7-.7.7s-.7-.3-.7-.7.3-.7.7-.7.7.4.7.7z"/><path d="m170.1 513h-3.1v-.3l1.1-.1v-5c-.1-.4-.6-.6-1.1-.6-1.2 0-1.9 1.2-1.9 2.7v2.9l1.1.1v.3h-3.2v-.3l1-.1v-5.3l-1-.2v-.3l2-.3v1.6c.4-1.1 1.2-1.7 2.2-1.7 1.2 0 1.9.8 1.9 2v4.1l1 .1z"/><path d="m176.1 509.3h-4.3v.4c0 1.8.9 2.9 2.1 2.9 1 0 1.5-.4 1.9-.9l.3.3c-.3.5-1 1.2-2.4 1.2-1.8 0-3.1-1.4-3.1-3.3 0-2 1.5-3.3 3-3.3s2.5 1 2.5 2.5zm-1.1-.4c0-1-.3-2.1-1.4-2.1-.9 0-1.5.9-1.7 2.1z"/><path d="m179 512.8c0 1.1-.7 1.8-1.6 2.1l-.2-.4c.7-.2 1.2-.7 1.2-1.5l-1.2-.5c-.1-.1-.1-.3-.1-.4 0-.4.3-.7.8-.7.6.1 1.1.7 1.1 1.4z"/><path d="m49.7 528.7c-1 1-2.1 1.5-3.5 1.5-2.7 0-4.7-2-4.7-5s2-5.1 4.9-5.1c1.2 0 2.1.2 2.7.5l.2-.5h.4l-.1 2.7h-.4l-.2-1.3c-.7-.6-1.5-.9-2.8-.9-1.8 0-3.3 1.8-3.3 4.4 0 2.4 1.3 4.6 3.5 4.6 1.2 0 2.3-.5 3.1-1.3z"/><path d="m56.5 529.4c-.2.3-.7.7-1.3.7s-1-.4-1.1-.9c-.4.5-1.2.9-1.8.9-1 0-1.8-.7-1.8-1.6 0-1.1.9-1.7 2-1.9l1.5-.3v-1.1c0-.8-.3-1.2-1.2-1.2-.7 0-1.3.5-1.7 1.1l-.3-.3c.5-.8 1.3-1.4 2.2-1.4 1.4 0 2 .6 2 1.7v3.4c0 .8.3 1 .6 1 .2 0 .5-.1.6-.3zm-2.5-.5v-2.2l-1 .2c-.8.2-1.4.6-1.4 1.4 0 .7.5 1.2 1.1 1.2.5 0 1-.2 1.3-.6z"/><path d="m63.1 526.6c0 2.1-1.4 3.5-3.1 3.5-.7 0-1.1-.2-1.5-.4v3.7l1.4.1v.3h-3.4v-.3l1-.1v-9.1l-1-.2v-.3l2-.3v1c.4-.6 1.1-1.1 2-1.1 1.3.1 2.6 1.2 2.6 3.2zm-1.1.1c0-1.6-.6-2.7-1.8-2.7-.8 0-1.4.5-1.6 1.1v4c.3.3.9.6 1.4.6 1.3 0 2-1.5 2-3z"/><path d="m65.7 529.8c0 1.1-.7 1.8-1.6 2.1l-.2-.4c.7-.2 1.2-.7 1.2-1.5l-1.2-.5c-.1-.1-.1-.3-.1-.4 0-.4.3-.7.8-.7.6.1 1.1.7 1.1 1.4z"/><path d="m78.4 530h-3.4v-.3l1.3-.1-1-2.8h-3.5l-1 2.8 1.3.2v.3h-2.6v-.3l.8-.2 3.5-9.2h.3l3.5 9.3.8.1zm-3.3-3.8-1.6-4.2-1.6 4.2z"/><path d="m82.9 528.2c0 1-.8 1.9-2.1 1.9-.6 0-1.1-.1-1.5-.4l-.1.4h-.3l-.1-2h.3c.2 1.1.8 1.6 1.7 1.6.7 0 1.2-.5 1.2-1.2 0-.8-.7-1.1-1.4-1.4-.8-.3-1.7-.8-1.7-1.9 0-1 .8-1.8 1.9-1.8.6 0 1 .1 1.4.4l.2-.3h.3v1.7h-.3c-.1-.9-.6-1.4-1.5-1.4-.7 0-1.1.5-1.1 1 0 .8.7 1.1 1.4 1.4.8.5 1.7.9 1.7 2z"/><path d="m89.2 529c-.3.5-1 1.2-2.4 1.2-1.7 0-3.1-1.4-3.1-3.4s1.5-3.3 3.1-3.3c.7 0 1.2.1 1.8.4l.2-.4h.2l-.1 1.8h-.3c-.2-.9-.8-1.5-1.8-1.5-1.2 0-2 1.1-2 2.8s.9 2.9 2.1 2.9c1 0 1.5-.4 1.9-.9z"/><path d="m95.3 526.3h-4.3v.4c0 1.8.9 2.9 2.1 2.9 1 0 1.5-.4 1.9-.9l.3.3c-.3.5-1 1.2-2.4 1.2-1.8 0-3.1-1.4-3.1-3.3 0-2 1.5-3.3 3-3.3s2.5 1 2.5 2.5zm-1.1-.4c0-1-.3-2.1-1.4-2.1-.9 0-1.5.9-1.7 2.1z"/><path d="m103.2 530h-3.1v-.3l1.1-.1v-5c-.1-.4-.6-.6-1.1-.6-1.2 0-1.9 1.2-1.9 2.7v2.9l1.1.1v.3h-3.1v-.3l1-.1v-5.3l-1-.2v-.3l2-.3v1.6c.4-1.1 1.2-1.7 2.2-1.7 1.2 0 1.9.8 1.9 2v4.1l1 .1v.4z"/><path d="m110.4 529.8-2 .3v-1c-.4.6-.9 1-1.9 1-1.3 0-2.7-1.1-2.7-3.1 0-2.1 1.3-3.5 3-3.5.8 0 1.3.3 1.6.6v-4l-1-.2v-.3l2.1-.3v10l1 .2v.3zm-2.1-1.3v-3.7c-.3-.5-.9-.9-1.5-.9-1.4 0-1.9 1.5-1.9 3 0 1.6.7 2.7 1.9 2.7.9 0 1.3-.6 1.5-1.1z"/><path d="m116.4 526.3h-4.3v.4c0 1.8.9 2.9 2.1 2.9 1 0 1.5-.4 1.9-.9l.3.3c-.3.5-1 1.2-2.4 1.2-1.8 0-3.1-1.4-3.1-3.3 0-2 1.5-3.3 3-3.3s2.5 1 2.5 2.5zm-1.2-.4c0-1-.3-2.1-1.4-2.1-.9 0-1.5.9-1.7 2.1z"/><path d="m121.8 523.9-.4.9c-.2-.1-.9-.5-1.1-.5-.7 0-1.2 1-1.2 2.4v3l1.4.1v.3h-3.4v-.3l1-.1v-5.3l-1-.2v-.3l2-.3v1.6c.3-1.2 1.1-1.7 1.8-1.7.4 0 .8.2.9.4z"/><path d="m123.7 529.8c0 1.1-.7 1.8-1.6 2.1l-.2-.4c.7-.2 1.2-.7 1.2-1.5l-1.2-.5c-.1-.1-.1-.3-.1-.4 0-.4.3-.7.8-.7.6.1 1.1.7 1.1 1.4z"/><path d="m136.4 530h-3.4v-.3l1.3-.1-1-2.8h-3.5l-1 2.8 1.3.2v.3h-2.6v-.3l.8-.2 3.5-9.2h.3l3.5 9.3.8.1zm-3.3-3.8-1.6-4.2-1.6 4.2z"/><path d="m142.9 526.6c0 2.1-1.4 3.5-3.1 3.5-.7 0-1.1-.2-1.5-.4v3.7l1.4.1v.3h-3.4v-.3l1-.1v-9.1l-1-.2v-.3l2-.3v1c.4-.6 1.1-1.1 2-1.1 1.3.1 2.6 1.2 2.6 3.2zm-1.1.1c0-1.6-.6-2.7-1.8-2.7-.8 0-1.4.5-1.6 1.1v4c.3.3.9.6 1.4.6 1.4 0 2-1.5 2-3z"/><path d="m149.2 526.3h-4.3v.4c0 1.8.9 2.9 2.1 2.9 1 0 1.5-.4 1.9-.9l.3.3c-.3.5-1 1.2-2.4 1.2-1.8 0-3.1-1.4-3.1-3.3 0-2 1.5-3.3 3-3.3s2.5 1 2.5 2.5zm-1.2-.4c0-1-.3-2.1-1.4-2.1-.9 0-1.5.9-1.7 2.1z"/><path d="m154.6 523.9-.4.9c-.2-.1-.9-.5-1.1-.5-.7 0-1.2 1-1.2 2.4v3l1.4.1v.3h-3.3v-.3l1-.1v-5.3l-1-.2v-.3l2-.3v1.6c.3-1.2 1.1-1.7 1.8-1.7.3 0 .6.2.8.4z"/><path d="m159.2 529.2c-.3.5-.9.9-1.8.9-.8 0-1.5-.5-1.5-1.7v-4.2h-1v-.3l1-.4.8-1.9h.3v2.1h1.8v.4h-1.8v4.1c0 .9.4 1.2 1 1.2.5 0 .8-.3 1-.5z"/><path d="m166.3 529.8-2 .3v-1.6c-.4 1.1-1.2 1.7-2.2 1.7-1.2 0-1.9-.8-1.9-2v-4l-1-.2v-.3h2.1v5.3c.1.4.5.6 1.1.6 1.2 0 1.9-1.2 1.9-2.7v-2.7l-1.1-.2v-.3h2.2v5.7l1 .2v.2z"/><path d="m171.5 523.9-.4.9c-.2-.1-.9-.5-1.1-.5-.7 0-1.2 1-1.2 2.4v3l1.4.1v.3h-3.4v-.3l1-.1v-5.3l-1-.2v-.3l2-.3v1.6c.3-1.2 1.1-1.7 1.8-1.7.3 0 .7.2.9.4z"/><path d="m177.3 526.3h-4.3v.4c0 1.8.9 2.9 2.1 2.9 1 0 1.5-.4 1.9-.9l.3.3c-.3.5-1 1.2-2.4 1.2-1.8 0-3.1-1.4-3.1-3.3 0-2 1.5-3.3 3-3.3s2.5 1 2.5 2.5zm-1.2-.4c0-1-.3-2.1-1.4-2.1-.9 0-1.5.9-1.7 2.1z"/><path d="m180.2 529.8c0 1.1-.7 1.8-1.6 2.1l-.2-.4c.7-.2 1.2-.7 1.2-1.5l-1.2-.5c-.1-.1-.1-.3-.1-.4 0-.4.3-.7.8-.7.6.1 1.1.7 1.1 1.4z"/><path d="m50.1 547h-3.5v-.3l1.2-.1-2.5-3.9-2.5 3.9 1.2.1v.3h-3v-.3l1.1-.2 2.9-4.3-3-4.4-.9-.1v-.3h3.5v.3l-1.2.1 2.3 3.5 2.3-3.5-1.2-.1v-.3h3v.3l-1.1.2-2.6 3.9 3.2 4.8.9.1v.3z"/><path d="m53.5 543.7-3 .4v-.7l3-.4z"/><path d="m61.4 547h-3.1v-.3l1.1-.1v-5c-.2-.4-.6-.6-1.1-.6-1.2 0-1.9 1.2-1.9 2.7v2.9l1.1.1v.3h-3.1v-.3l1-.1v-9.4l-1-.2v-.3l2.1-.3v5.7c.4-1 1.1-1.6 2.2-1.6 1.2 0 1.9.8 1.9 2v4.1l1 .1v.3z"/><path d="m67.4 543.3h-4.4v.4c0 1.8.9 2.9 2.1 2.9 1 0 1.5-.4 1.9-.9l.3.3c-.3.5-1 1.2-2.4 1.2-1.8 0-3.1-1.4-3.1-3.3 0-2 1.5-3.3 3-3.3s2.5 1 2.5 2.5v.2zm-1.2-.4c0-1-.3-2.1-1.4-2.1-.9 0-1.5.9-1.7 2.1z"/><path d="m71.2 547h-3v-.3l1-.1v-5.3l-1-.2v-.3l2.1-.3v6.1l1 .1v.3zm-.9-8.8c0 .4-.3.7-.7.7s-.7-.3-.7-.7.3-.7.7-.7.7.4.7.7z"/><path d="m77.9 541.3-1.7-.2c.5.4.8 1 .8 1.6 0 1.5-1.3 2.3-2.5 2.4-1 .1-1.4.5-1.4.9 0 .2.1.3.2.4l2.8.3c.8.1 1.7.6 1.7 1.6 0 1.6-1.4 2.6-3.5 2.6-1.3 0-2.7-.7-2.7-2 0-.8.5-1.3 1.2-1.7-.3-.2-.5-.5-.5-.9 0-.5.4-1 1.3-1.3-.9-.3-1.6-1.1-1.6-2.2 0-1.4 1.2-2.4 2.5-2.4.5 0 1 .2 1.4.4l2-.4zm-1 7.5c0-.6-.4-1-1.1-1.1l-2.8-.3c-.4.2-.6.8-.6 1.3 0 .9.7 1.9 2.3 1.9.8 0 2.2-.6 2.2-1.8zm-1.1-5.9c0-1.2-.6-2-1.4-2s-1.4.8-1.4 2 .6 2 1.4 2 1.4-.9 1.4-2z"/><path d="m85.2 547h-3.1v-.3l1.1-.1v-5c-.2-.4-.6-.6-1.1-.6-1.2 0-1.9 1.2-1.9 2.7v2.9l1.1.1v.3h-3.1v-.3l1-.1v-9.4l-1-.2v-.3l2.1-.3v5.7c.4-1 1.1-1.6 2.2-1.6 1.2 0 1.9.8 1.9 2v4.1l1 .1v.3z"/><path d="m89.8 546.2c-.3.5-.9.9-1.8.9-.8 0-1.5-.5-1.5-1.7v-4.2h-1v-.3l1-.4.8-1.9h.3v2.1h1.8v.4h-1.8v4.1c0 .9.4 1.2 1 1.2.5 0 .8-.3 1-.5z"/><path d="m92.4 546.8c0 1.1-.7 1.8-1.6 2.1l-.2-.4c.7-.2 1.2-.7 1.2-1.5l-1.2-.5c-.1-.1-.1-.3-.1-.4 0-.4.3-.7.8-.7.6.1 1.1.7 1.1 1.4z"/><path d="m102.8 544.4c0 1.6-1.4 2.8-2.9 2.8-1 0-1.7-.2-2.3-.5l-.1.5h-.5l-.1-3h.4l.3 1.6c.5.6 1.2 1 2.1 1 1.2 0 2.1-.7 2.1-2 0-1-.6-1.5-2.2-2.3-1.8-.8-2.5-1.5-2.5-2.9 0-1.5 1.2-2.5 2.8-2.5.8 0 1.4.2 2 .5l.2-.5h.4l-.1 2.7h-.4l-.3-1.4c-.4-.6-1.1-.8-1.8-.8-.9 0-1.8.6-1.8 1.7 0 1 .4 1.3 2.2 2.2 1.5.7 2.5 1.4 2.5 2.9z"/><path d="m107.8 546.2c-.3.5-.9.9-1.8.9-.8 0-1.5-.5-1.5-1.7v-4.2h-1v-.3l1-.4.8-1.9h.3v2.1h1.8v.4h-1.8v4.1c0 .9.4 1.2 1 1.2.5 0 .8-.3 1-.5z"/><path d="m112.8 540.9-.4.9c-.2-.1-.9-.5-1.1-.5-.7 0-1.2 1-1.2 2.4v3l1.4.1v.3h-3.4v-.3l1-.1v-5.3l-1-.2v-.3l2-.3v1.6c.3-1.2 1.1-1.7 1.8-1.7.3 0 .7.2.9.4z"/><path d="m119.3 543.8c0 2-1.4 3.3-3.1 3.3s-3.1-1.3-3.1-3.3 1.4-3.3 3.1-3.3 3.1 1.3 3.1 3.3zm-1.2 0c0-1.8-.7-3-1.9-3s-1.9 1.1-1.9 3 .7 3 1.9 3 1.9-1.1 1.9-3z"/><path d="m126.7 547h-1.7l-.3-.4-2.3-2.8h-.4v2.8l1 .1v.3h-3.1v-.3l1-.1v-9.4l-1-.2v-.3l2.1-.3v7.2l2.6-2.4-1-.1v-.3h2.6v.3l-.9.1-2.2 2 2.9 3.4.6.2v.2z"/><path d="m132.3 543.3h-4.3v.4c0 1.8.9 2.9 2.1 2.9 1 0 1.5-.4 1.9-.9l.3.3c-.3.5-1 1.2-2.4 1.2-1.8 0-3.1-1.4-3.1-3.3 0-2 1.5-3.3 3-3.3s2.5 1 2.5 2.5zm-1.2-.4c0-1-.3-2.1-1.4-2.1-.9 0-1.5.9-1.7 2.1z"/><path d="m135.2 546.8c0 1.1-.7 1.8-1.6 2.1l-.2-.4c.7-.2 1.2-.7 1.2-1.5l-1.2-.5c-.1-.1-.1-.3-.1-.4 0-.4.3-.7.8-.7.6.1 1.1.7 1.1 1.4z"/><path d="m145.5 544.4c0 1.6-1.4 2.8-2.9 2.8-1 0-1.7-.2-2.3-.5l-.1.5h-.4l-.1-3h.4l.3 1.6c.5.6 1.2 1 2.1 1 1.2 0 2.1-.7 2.1-2 0-1-.6-1.5-2.2-2.3-1.8-.8-2.5-1.5-2.5-2.9 0-1.5 1.2-2.5 2.8-2.5.8 0 1.4.2 2 .5l.2-.5h.4l-.1 2.7h-.4l-.3-1.4c-.4-.6-1.1-.8-1.8-.8-.9 0-1.8.6-1.8 1.7 0 1 .4 1.3 2.2 2.2 1.5.7 2.4 1.4 2.4 2.9z"/><path d="m150.5 546.2c-.3.5-.9.9-1.8.9-.8 0-1.5-.5-1.5-1.7v-4.2h-1v-.3l1-.4.8-1.9h.3v2.1h1.8v.4h-1.8v4.1c0 .9.4 1.2 1 1.2.5 0 .8-.3 1-.5z"/><path d="m155.6 540.9-.4.9c-.2-.1-.9-.5-1.1-.5-.7 0-1.2 1-1.2 2.4v3l1.4.1v.3h-3.4v-.3l1-.1v-5.3l-1-.2v-.3l2-.3v1.6c.3-1.2 1.1-1.7 1.8-1.7.3 0 .7.2.9.4z"/><path d="m161.4 543.3h-4.3v.4c0 1.8.9 2.9 2.1 2.9 1 0 1.5-.4 1.9-.9l.3.3c-.3.5-1 1.2-2.4 1.2-1.8 0-3.1-1.4-3.1-3.3 0-2 1.5-3.3 3-3.3s2.5 1 2.5 2.5zm-1.2-.4c0-1-.3-2.1-1.4-2.1-.9 0-1.5.9-1.7 2.1z"/><path d="m173 547h-3.1v-.3l1.1-.1v-5c-.2-.4-.4-.6-1-.6-1 0-1.8 1.1-1.8 2.7v2.9l1.1.1v.3h-3.3v-.3l1.1-.1v-5c-.2-.4-.4-.6-1-.6-1 0-1.8 1.1-1.8 2.7v2.9l1.1.1v.3h-3.1v-.3l1-.1v-5.3l-1-.2v-.3l2-.3v1.6c.3-.9 1.1-1.7 2.1-1.7s1.6.6 1.8 1.7c.3-1 1.1-1.7 2.1-1.7 1.1 0 1.8.8 1.8 2v4.1l1 .1v.4z"/><path d="m175.6 546.3c0 .4-.3.8-.8.8s-.8-.3-.8-.8c0-.4.3-.8.8-.8s.8.4.8.8z"/><path d="m49 556.7h-.4l-.2-1.9h-2.6v8.7l1.3.1v.3h-3.7v-.3l1.3-.1v-8.7h-2.6l-.2 1.9h-.4v-2.3h7.5z"/><path d="m52.2 564h-3v-.3l1-.1v-5.3l-1-.2v-.3l2.1-.3v6.1l1 .1v.3zm-.9-8.8c0 .4-.3.7-.7.7s-.7-.3-.7-.7.3-.7.7-.7.7.4.7.7z"/><path d="m63.6 564h-3.1v-.3l1.1-.1v-5c-.2-.4-.4-.6-1-.6-1 0-1.8 1.1-1.8 2.7v2.9l1.1.1v.3h-3.2v-.3l1.1-.1v-5c-.2-.4-.4-.6-1-.6-1 0-1.8 1.1-1.8 2.7v2.9l1.1.1v.3h-3.1v-.3l1-.1v-5.3l-1-.2v-.3l2-.3v1.6c.3-.9 1.1-1.7 2.1-1.7s1.6.6 1.8 1.7c.3-1 1.1-1.7 2.1-1.7 1.1 0 1.8.8 1.8 2v4.1l1 .1v.4z"/><path d="m69.7 560.3h-4.3v.4c0 1.8.9 2.9 2.1 2.9 1 0 1.5-.4 1.9-.9l.3.3c-.3.5-1 1.2-2.4 1.2-1.8 0-3.1-1.4-3.1-3.3 0-2 1.5-3.3 3-3.3s2.5 1 2.5 2.5zm-1.2-.4c0-1-.3-2.1-1.4-2.1-.9 0-1.5.9-1.7 2.1z"/><path d="m77.6 563.2c-.3.5-.9.9-1.8.9-.8 0-1.5-.5-1.5-1.7v-4.2h-1v-.3l1-.4.8-1.9h.3v2.1h1.8v.4h-1.8v4.1c0 .9.4 1.2 1 1.2.5 0 .8-.3 1-.5z"/><path d="m84 560.8c0 2-1.4 3.3-3.1 3.3s-3.1-1.3-3.1-3.3 1.4-3.3 3.1-3.3 3.1 1.3 3.1 3.3zm-1.2 0c0-1.8-.7-3-1.9-3s-1.9 1.1-1.9 3 .7 3 1.9 3 1.9-1.1 1.9-3z"/><path d="m93.8 558.3-1.7-.2c.5.4.8 1 .8 1.6 0 1.5-1.3 2.3-2.5 2.4-1 .1-1.4.5-1.4.9 0 .2.1.3.2.4l2.8.3c.8.1 1.7.6 1.7 1.6 0 1.6-1.4 2.6-3.5 2.6-1.3 0-2.7-.7-2.7-2 0-.8.5-1.3 1.2-1.7-.3-.2-.5-.5-.5-.9 0-.5.4-1 1.3-1.3-.9-.3-1.6-1.1-1.6-2.2 0-1.4 1.2-2.4 2.5-2.4.5 0 1 .2 1.4.4l2-.4zm-1 7.5c0-.6-.4-1-1.1-1.1l-2.8-.3c-.4.2-.6.8-.6 1.3 0 .9.7 1.9 2.3 1.9.8 0 2.2-.6 2.2-1.8zm-1.1-5.9c0-1.2-.6-2-1.4-2s-1.4.8-1.4 2 .6 2 1.4 2 1.4-.9 1.4-2z"/><path d="m100.2 560.8c0 2-1.4 3.3-3.1 3.3s-3.1-1.3-3.1-3.3 1.4-3.3 3.1-3.3c1.8 0 3.1 1.3 3.1 3.3zm-1.2 0c0-1.8-.7-3-1.9-3s-1.9 1.1-1.9 3 .7 3 1.9 3 1.9-1.1 1.9-3z"/><path d="m107 564h-3v-.3l1-.1v-5.3l-1-.2v-.3l2.1-.3v6.1l1 .1v.3zm-.9-8.8c0 .4-.3.7-.7.7s-.7-.3-.7-.7.3-.7.7-.7.7.4.7.7z"/><path d="m114.7 564h-3.1v-.3l1.1-.1v-5c-.1-.4-.6-.6-1.1-.6-1.2 0-1.9 1.2-1.9 2.7v2.9l1.1.1v.3h-3.1v-.3l1-.1v-5.3l-1-.2v-.3l2-.3v1.6c.4-1.1 1.2-1.7 2.2-1.7 1.2 0 1.9.8 1.9 2v4.1l1 .1v.4z"/><path d="m119.3 563.2c-.3.5-.9.9-1.8.9-.8 0-1.5-.5-1.5-1.7v-4.2h-1v-.3l1-.4.8-1.9h.3v2.1h1.8v.4h-1.8v4.1c0 .9.4 1.2 1 1.2.5 0 .8-.3 1-.5z"/><path d="m125.7 560.8c0 2-1.4 3.3-3.1 3.3s-3.1-1.3-3.1-3.3 1.4-3.3 3.1-3.3 3.1 1.3 3.1 3.3zm-1.2 0c0-1.8-.7-3-1.9-3s-1.9 1.1-1.9 3 .7 3 1.9 3 1.9-1.1 1.9-3z"/><path d="m136.1 563.8-2 .3v-1c-.4.6-.9 1-1.9 1-1.3 0-2.7-1.1-2.7-3.1 0-2.1 1.3-3.5 3-3.5.8 0 1.3.3 1.6.6v-4l-1-.2v-.3l2.1-.3v10l1 .2v.3zm-2.1-1.3v-3.7c-.3-.5-.9-.9-1.5-.9-1.4 0-1.9 1.5-1.9 3 0 1.6.7 2.7 1.9 2.7.9 0 1.3-.6 1.5-1.1z"/><path d="m142.1 560.3h-4.3v.4c0 1.8.9 2.9 2.1 2.9 1 0 1.5-.4 1.9-.9l.3.3c-.3.5-1 1.2-2.4 1.2-1.8 0-3.1-1.4-3.1-3.3 0-2 1.5-3.3 3-3.3s2.5 1 2.5 2.5zm-1.1-.4c0-1-.3-2.1-1.4-2.1-.9 0-1.5.9-1.7 2.1z"/><path d="m147 563.2c-.3.5-.9.9-1.8.9-.8 0-1.5-.5-1.5-1.7v-4.2h-1v-.3l1-.4.8-1.9h.3v2.1h1.8v.4h-1.8v4.1c0 .9.4 1.2 1 1.2.5 0 .8-.3 1-.5z"/><path d="m153.3 563.4c-.2.3-.7.7-1.3.7s-1-.4-1.1-.9c-.4.5-1.2.9-1.8.9-1 0-1.8-.7-1.8-1.6 0-1.1.9-1.7 2-1.9l1.5-.3v-1.1c0-.8-.3-1.2-1.2-1.2-.7 0-1.3.5-1.7 1.1l-.3-.3c.5-.8 1.3-1.4 2.2-1.4 1.4 0 2 .6 2 1.7v3.4c0 .8.3 1 .6 1 .2 0 .5-.1.6-.3zm-2.4-.5v-2.2l-1 .2c-.8.2-1.4.6-1.4 1.4 0 .7.5 1.2 1.1 1.2.4 0 1-.2 1.3-.6z"/><path d="m156.6 564h-3v-.3l1-.1v-5.3l-1-.2v-.3l2.1-.3v6.1l1 .1v.3zm-1-8.8c0 .4-.3.7-.7.7s-.7-.3-.7-.7.3-.7.7-.7.7.4.7.7z"/><path d="m160.1 564h-3v-.3l1-.1v-9.4l-1-.2v-.3l2.1-.3v10.2l1 .1v.3z"/><path d="m169.7 563.4c-.2.3-.7.7-1.3.7s-1-.4-1.1-.9c-.4.5-1.2.9-1.8.9-1 0-1.8-.7-1.8-1.6 0-1.1.9-1.7 2-1.9l1.5-.3v-1.1c0-.8-.3-1.2-1.2-1.2-.7 0-1.3.5-1.7 1.1l-.3-.3c.5-.8 1.3-1.4 2.2-1.4 1.4 0 2 .6 2 1.7v3.4c0 .8.3 1 .6 1 .2 0 .5-.1.6-.3zm-2.4-.5v-2.2l-1 .2c-.8.2-1.4.6-1.4 1.4 0 .7.5 1.2 1.1 1.2.4 0 .9-.2 1.3-.6z"/><path d="m177 564h-3.1v-.3l1.1-.1v-5c-.1-.4-.6-.6-1.1-.6-1.2 0-1.9 1.2-1.9 2.7v2.9l1.1.1v.3h-3.1v-.3l1-.1v-5.3l-1-.2v-.3l2-.3v1.6c.4-1.1 1.2-1.7 2.2-1.7 1.2 0 1.9.8 1.9 2v4.1l1 .1v.4z"/><path d="m184.1 563.8-2 .3v-1c-.4.6-.9 1-1.9 1-1.3 0-2.7-1.1-2.7-3.1 0-2.1 1.3-3.5 3-3.5.8 0 1.3.3 1.6.6v-4l-1-.2v-.3l2.1-.3v10l1 .2v.3zm-2-1.3v-3.7c-.3-.5-.9-.9-1.5-.9-1.4 0-1.9 1.5-1.9 3 0 1.6.7 2.7 1.9 2.7.8 0 1.2-.6 1.5-1.1z"/><path d="m44.3 581h-3v-.3l1-.1v-9.4l-1-.2v-.3l2.1-.3v10.2l1 .1v.3z"/><path d="m50.4 577.3h-4.3v.4c0 1.8.9 2.9 2.1 2.9 1 0 1.5-.4 1.9-.9l.3.3c-.3.5-1 1.2-2.4 1.2-1.8 0-3.1-1.4-3.1-3.3 0-2 1.5-3.3 3-3.3s2.5 1 2.5 2.5zm-1.1-.4c0-1-.3-2.1-1.4-2.1-.9 0-1.5.9-1.7 2.1z"/><path d="m57.2 580.4c-.2.3-.7.7-1.3.7s-1-.4-1.1-.9c-.4.5-1.2.9-1.8.9-1 0-1.8-.7-1.8-1.6 0-1.1.9-1.7 2-1.9l1.5-.3v-1.1c0-.8-.3-1.2-1.2-1.2-.7 0-1.3.5-1.7 1.1l-.3-.3c.5-.8 1.3-1.4 2.2-1.4 1.4 0 2 .6 2 1.7v3.4c0 .8.3 1 .6 1 .2 0 .5-.1.6-.3zm-2.4-.5v-2.2l-1 .2c-.8.2-1.4.6-1.4 1.4 0 .7.5 1.2 1.1 1.2.4 0 .9-.2 1.3-.6z"/><path d="m63.1 575-.7.2-2.5 6h-.1l-2.5-6.1-.7-.1v-.3h2.9v.3l-1 .1 1.7 4.4 1.7-4.3-1-.1v-.3h2.3v.2z"/><path d="m66.5 581h-3v-.3l1-.1v-5.3l-1-.2v-.3l2.1-.3v6.1l1 .1v.3zm-.9-8.8c0 .4-.3.7-.7.7s-.7-.3-.7-.7.3-.7.7-.7.7.4.7.7z"/><path d="m74.2 581h-3.1v-.3l1.1-.1v-5c-.1-.4-.6-.6-1.1-.6-1.2 0-1.9 1.2-1.9 2.7v2.9l1.1.1v.3h-3.1v-.3l1-.1v-5.3l-1-.2v-.3l2-.3v1.6c.4-1.1 1.2-1.7 2.2-1.7 1.2 0 1.9.8 1.9 2v4.1l1 .1v.4z"/><path d="m80.8 575.3-1.7-.2c.5.4.8 1 .8 1.6 0 1.5-1.3 2.3-2.5 2.4-1 .1-1.4.5-1.4.9 0 .2.1.3.2.4l2.8.3c.8.1 1.7.6 1.7 1.6 0 1.6-1.4 2.6-3.5 2.6-1.3 0-2.7-.7-2.7-2 0-.8.5-1.3 1.2-1.7-.3-.2-.5-.5-.5-.9 0-.5.4-1 1.3-1.3-.9-.3-1.6-1.1-1.6-2.2 0-1.4 1.2-2.4 2.5-2.4.5 0 1 .2 1.4.4l2-.4zm-1 7.5c0-.6-.4-1-1.1-1.1l-2.8-.3c-.4.2-.6.8-.6 1.3 0 .9.7 1.9 2.3 1.9.9 0 2.2-.6 2.2-1.8zm-1-5.9c0-1.2-.6-2-1.4-2s-1.4.8-1.4 2 .6 2 1.4 2 1.4-.9 1.4-2z"/><path d="m91.3 581h-3.1v-.3l1.1-.1v-5c-.1-.4-.6-.6-1.1-.6-1.2 0-1.9 1.2-1.9 2.7v2.9l1.1.1v.3h-3.1v-.3l1-.1v-5.3l-1-.2v-.3l2-.3v1.6c.4-1.1 1.2-1.7 2.2-1.7 1.2 0 1.9.8 1.9 2v4.1l1 .1v.4z"/><path d="m98 577.8c0 2-1.4 3.3-3.1 3.3s-3.1-1.3-3.1-3.3 1.4-3.3 3.1-3.3 3.1 1.3 3.1 3.3zm-1.2 0c0-1.8-.7-3-1.9-3s-1.9 1.1-1.9 3 .7 3 1.9 3 1.9-1.1 1.9-3z"/><path d="m102.8 580.2c-.3.5-.9.9-1.8.9-.8 0-1.5-.5-1.5-1.7v-4.2h-1v-.3l1-.4.8-1.9h.3v2.1h1.8v.4h-1.8v4.1c0 .9.4 1.2 1 1.2.5 0 .8-.3 1-.5z"/><path d="m110.1 581h-3.1v-.3l1.1-.1v-5c-.2-.4-.6-.6-1.1-.6-1.2 0-1.9 1.2-1.9 2.7v2.9l1.1.1v.3h-3.2v-.3l1-.1v-9.4l-1-.2v-.3l2.1-.3v5.7c.4-1 1.1-1.6 2.2-1.6 1.2 0 1.9.8 1.9 2v4.1l1 .1v.3z"/><path d="m113.6 581h-3v-.3l1-.1v-5.3l-1-.2v-.3l2.1-.3v6.1l1 .1v.3zm-.9-8.8c0 .4-.3.7-.7.7s-.7-.3-.7-.7.3-.7.7-.7.7.4.7.7z"/><path d="m121.3 581h-3.1v-.3l1.1-.1v-5c-.1-.4-.6-.6-1.1-.6-1.2 0-1.9 1.2-1.9 2.7v2.9l1.1.1v.3h-3.1v-.3l1-.1v-5.3l-1-.2v-.3l2-.3v1.6c.4-1.1 1.2-1.7 2.2-1.7 1.2 0 1.9.8 1.9 2v4.1l1 .1v.4z"/><path d="m127.9 575.3-1.7-.2c.5.4.8 1 .8 1.6 0 1.5-1.3 2.3-2.5 2.4-1 .1-1.4.5-1.4.9 0 .2.1.3.2.4l2.8.3c.8.1 1.7.6 1.7 1.6 0 1.6-1.4 2.6-3.5 2.6-1.3 0-2.7-.7-2.7-2 0-.8.5-1.3 1.2-1.7-.3-.2-.5-.5-.5-.9 0-.5.4-1 1.3-1.3-.9-.3-1.6-1.1-1.6-2.2 0-1.4 1.2-2.4 2.5-2.4.5 0 1 .2 1.4.4l2-.4zm-1 7.5c0-.6-.4-1-1.1-1.1l-2.8-.3c-.4.2-.6.8-.6 1.3 0 .9.7 1.9 2.3 1.9.8 0 2.2-.6 2.2-1.8zm-1.1-5.9c0-1.2-.6-2-1.4-2s-1.4.8-1.4 2 .6 2 1.4 2 1.4-.9 1.4-2z"/><path d="m138.1 580.8-2 .3v-1.6c-.4 1.1-1.2 1.7-2.2 1.7-1.2 0-1.9-.8-1.9-2v-4l-1-.2v-.3h2.1v5.3c.1.4.5.6 1.1.6 1.2 0 1.9-1.2 1.9-2.7v-2.7l-1.1-.2v-.3h2.2v5.7l1 .2v.2z"/><path d="m145.7 581h-3.1v-.3l1.1-.1v-5c-.1-.4-.6-.6-1.1-.6-1.2 0-1.9 1.2-1.9 2.7v2.9l1.1.1v.3h-3.1v-.3l1-.1v-5.3l-1-.2v-.3l2-.3v1.6c.4-1.1 1.2-1.7 2.2-1.7 1.2 0 1.9.8 1.9 2v4.1l1 .1v.4z"/><path d="m151.7 577.3h-4.3v.4c0 1.8.9 2.9 2.1 2.9 1 0 1.5-.4 1.9-.9l.3.3c-.3.5-1 1.2-2.4 1.2-1.8 0-3.1-1.4-3.1-3.3 0-2 1.5-3.3 3-3.3s2.5 1 2.5 2.5zm-1.2-.4c0-1-.3-2.1-1.4-2.1-.9 0-1.5.9-1.7 2.1z"/><path d="m158.4 581h-2.9v-.3l1-.1-1.5-2.3-1.4 2.3 1 .1v.3h-2.5v-.3l.9-.1 1.7-2.6-1.9-2.8-.7-.1v-.3h2.8v.3l-.9.1 1.3 2.1 1.3-2.1-.9-.1v-.3h2.4v.3l-.9.1-1.6 2.4 2 3 .7.1v.3z"/><path d="m165.3 577.6c0 2.1-1.4 3.5-3.1 3.5-.7 0-1.1-.2-1.5-.4v3.7l1.4.1v.3h-3.4v-.3l1-.1v-9.1l-1-.2v-.3l2-.3v1c.4-.6 1.1-1.1 2-1.1 1.3.1 2.6 1.2 2.6 3.2zm-1.2.1c0-1.6-.6-2.7-1.8-2.7-.8 0-1.4.5-1.6 1.1v4c.3.3.9.6 1.4.6 1.4 0 2-1.5 2-3z"/><path d="m168.9 581h-3v-.3l1-.1v-9.4l-1-.2v-.3l2.1-.3v10.2l1 .1v.3z"/><path d="m175.5 580.4c-.2.3-.7.7-1.3.7s-1-.4-1.1-.9c-.4.5-1.2.9-1.8.9-1 0-1.8-.7-1.8-1.6 0-1.1.9-1.7 2-1.9l1.5-.3v-1.1c0-.8-.3-1.2-1.2-1.2-.7 0-1.3.5-1.7 1.1l-.3-.3c.5-.8 1.3-1.4 2.2-1.4 1.4 0 2 .6 2 1.7v3.4c0 .8.3 1 .6 1 .2 0 .5-.1.6-.3zm-2.4-.5v-2.2l-1 .2c-.8.2-1.4.6-1.4 1.4 0 .7.5 1.2 1.1 1.2.4 0 1-.2 1.3-.6z"/><path d="m178.8 581h-3v-.3l1-.1v-5.3l-1-.2v-.3l2.1-.3v6.1l1 .1v.3zm-1-8.8c0 .4-.3.7-.7.7s-.7-.3-.7-.7.3-.7.7-.7.7.4.7.7z"/><path d="m186.5 581h-3.1v-.3l1.1-.1v-5c-.1-.4-.6-.6-1.1-.6-1.2 0-1.9 1.2-1.9 2.7v2.9l1.1.1v.3h-3.1v-.3l1-.1v-5.3l-1-.2v-.3l2-.3v1.6c.4-1.1 1.2-1.7 2.2-1.7 1.2 0 1.9.8 1.9 2v4.1l1 .1v.4z"/><path d="m192.5 577.3h-4.3v.4c0 1.8.9 2.9 2.1 2.9 1 0 1.5-.4 1.9-.9l.3.3c-.3.5-1 1.2-2.4 1.2-1.8 0-3.1-1.4-3.1-3.3 0-2 1.5-3.3 3-3.3s2.5 1 2.5 2.5zm-1.2-.4c0-1-.3-2.1-1.4-2.1-.9 0-1.5.9-1.7 2.1z"/><path d="m199.9 580.8-2 .3v-1c-.4.6-.9 1-1.9 1-1.3 0-2.7-1.1-2.7-3.1 0-2.1 1.3-3.5 3-3.5.8 0 1.3.3 1.6.6v-4l-1-.2v-.3l2.1-.3v10l1 .2v.3zm-2-1.3v-3.7c-.3-.5-.9-.9-1.5-.9-1.4 0-1.9 1.5-1.9 3 0 1.6.7 2.7 1.9 2.7.8 0 1.3-.6 1.5-1.1z"/><path d="m202.5 580.3c0 .4-.3.8-.8.8s-.8-.3-.8-.8c0-.4.3-.8.8-.8s.8.4.8.8z"/><path d="m230.7 503.6-1.2.2v5.6c0 2.2-1.1 3.7-3.5 3.7-2.3 0-3.5-1.4-3.5-3.7v-5.7l-1.2-.1v-.3h3.5v.3l-1.2.1v5.5c0 2 .6 3.2 2.6 3.2 1.9 0 2.7-1.3 2.7-3.2v-5.5l-1.2-.2v-.3h2.9v.4z"/><path d="m237.9 513h-3.1v-.3l1.1-.1v-5c-.1-.4-.6-.6-1.1-.6-1.2 0-1.9 1.2-1.9 2.7v2.9l1.1.1v.3h-3.1v-.3l1-.1v-5.3l-1-.2v-.3l2-.3v1.6c.4-1.1 1.2-1.7 2.2-1.7 1.2 0 1.9.8 1.9 2v4.1l1 .1v.4z"/><path d="m245.1 512.8-2 .3v-1c-.4.6-.9 1-1.9 1-1.3 0-2.7-1.1-2.7-3.1 0-2.1 1.3-3.5 3-3.5.8 0 1.3.3 1.6.6v-4l-1-.2v-.3l2.1-.3v10l1 .2v.3zm-2.1-1.3v-3.7c-.3-.5-.9-.9-1.5-.9-1.4 0-1.9 1.5-1.9 3 0 1.6.7 2.7 1.9 2.7.9 0 1.3-.6 1.5-1.1z"/><path d="m251.1 509.3h-4.3v.4c0 1.8.9 2.9 2.1 2.9 1 0 1.5-.4 1.9-.9l.3.3c-.3.5-1 1.2-2.4 1.2-1.8 0-3.1-1.4-3.1-3.3 0-2 1.5-3.3 3-3.3s2.5 1 2.5 2.5zm-1.1-.4c0-1-.3-2.1-1.4-2.1-.9 0-1.5.9-1.7 2.1z"/><path d="m256.6 506.9-.4.9c-.2-.1-.9-.5-1.1-.5-.7 0-1.2 1-1.2 2.4v3l1.4.1v.3h-3.4v-.3l1-.1v-5.3l-1-.2v-.3l2-.3v1.6c.3-1.2 1.1-1.7 1.8-1.7.3 0 .7.2.9.4z"/><path d="m261.3 511.2c0 1-.8 1.9-2.1 1.9-.6 0-1.1-.1-1.5-.4l-.1.4h-.3l-.1-2h.3c.2 1.1.8 1.6 1.7 1.6.7 0 1.2-.5 1.2-1.2 0-.8-.7-1.1-1.4-1.4-.8-.3-1.7-.8-1.7-1.9 0-1 .8-1.8 1.9-1.8.6 0 1 .1 1.4.4l.2-.3h.3v1.7h-.3c-.2-.9-.6-1.4-1.5-1.4-.7 0-1.1.5-1.1 1 0 .8.7 1.1 1.4 1.4.9.5 1.7.9 1.7 2z"/><path d="m266.2 512.2c-.3.5-.9.9-1.8.9-.8 0-1.5-.5-1.5-1.7v-4.2h-1v-.3l1-.4.8-1.9h.3v2.1h1.8v.4h-1.8v4.1c0 .9.4 1.2 1 1.2.5 0 .8-.3 1-.5z"/><path d="m272.6 512.4c-.2.3-.7.7-1.3.7s-1-.4-1.1-.9c-.5.5-1.2.9-1.8.9-1 0-1.8-.7-1.8-1.6 0-1.1.9-1.7 2-1.9l1.5-.3v-1.1c0-.8-.3-1.2-1.2-1.2-.7 0-1.3.5-1.7 1.1l-.3-.3c.5-.8 1.3-1.4 2.2-1.4 1.4 0 2 .6 2 1.7v3.4c0 .8.3 1 .6 1 .2 0 .5-.1.6-.3zm-2.4-.5v-2.2l-1 .2c-.8.2-1.4.6-1.4 1.4 0 .7.5 1.2 1.1 1.2.4 0 .9-.2 1.3-.6z"/><path d="m279.9 513h-3.1v-.3l1.1-.1v-5c-.2-.4-.6-.6-1.1-.6-1.2 0-1.9 1.2-1.9 2.7v2.9l1.1.1v.3h-3.1v-.3l1-.1v-5.3l-1-.2v-.3l2-.3v1.6c.4-1.1 1.2-1.7 2.2-1.7 1.2 0 1.9.8 1.9 2v4.1l1 .1v.4z"/><path d="m287 512.8-2 .3v-1c-.4.6-.9 1-1.9 1-1.3 0-2.7-1.1-2.7-3.1 0-2.1 1.3-3.5 3-3.5.8 0 1.3.3 1.6.6v-4l-1-.2v-.3l2.1-.3v10l1 .2v.3zm-2-1.3v-3.7c-.3-.5-.9-.9-1.5-.9-1.4 0-1.9 1.5-1.9 3 0 1.6.7 2.7 1.9 2.7.8 0 1.3-.6 1.5-1.1z"/><path d="m290.6 513h-3v-.3l1-.1v-5.3l-1-.2v-.3l2.1-.3v6.1l1 .1v.3zm-.9-8.8c0 .4-.3.7-.7.7s-.7-.3-.7-.7.3-.7.7-.7.7.4.7.7z"/><path d="m298.3 513h-3.1v-.3l1.1-.1v-5c-.2-.4-.6-.6-1.1-.6-1.2 0-1.9 1.2-1.9 2.7v2.9l1.1.1v.3h-3.1v-.3l1-.1v-5.3l-1-.2v-.3l2-.3v1.6c.4-1.1 1.2-1.7 2.2-1.7 1.2 0 1.9.8 1.9 2v4.1l1 .1v.4z"/><path d="m304.8 507.3-1.7-.2c.5.4.8 1 .8 1.6 0 1.5-1.3 2.3-2.5 2.4-1 .1-1.4.5-1.4.9 0 .2.1.3.2.4l2.8.3c.8.1 1.7.6 1.7 1.6 0 1.6-1.4 2.6-3.5 2.6-1.3 0-2.7-.7-2.7-2 0-.8.5-1.3 1.2-1.7-.3-.2-.5-.5-.5-.9 0-.5.4-1 1.3-1.3-.9-.3-1.6-1.1-1.6-2.2 0-1.4 1.2-2.4 2.5-2.4.5 0 1 .2 1.4.4l2-.4zm-1 7.5c0-.6-.4-1-1.1-1.1l-2.8-.3c-.4.2-.6.8-.6 1.3 0 .9.7 1.9 2.3 1.9.9 0 2.2-.6 2.2-1.8zm-1-5.9c0-1.2-.6-2-1.4-2-.9 0-1.4.8-1.4 2s.6 2 1.4 2 1.4-.9 1.4-2z"/><path d="m312.3 512.2c-.3.5-.9.9-1.8.9-.8 0-1.5-.5-1.5-1.7v-4.2h-1v-.3l1-.4.8-1.9h.3v2.1h1.8v.4h-1.8v4.1c0 .9.4 1.2 1 1.2.5 0 .8-.3 1-.5z"/><path d="m318.7 507-.7.2-2.4 5.9-1.3 3.8h-1l1.9-3.9-2.3-5.8-.7-.1v-.3h2.9v.3l-1 .1 1.7 4.6 1.7-4.5-1-.1v-.3h2.3v.1z"/><path d="m325.6 509.6c0 2.1-1.3 3.5-3.1 3.5-.7 0-1.1-.2-1.5-.4v3.7l1.4.1v.3h-3.4v-.3l1-.1v-9.1l-1-.2v-.3l2-.3v1c.4-.6 1.1-1.1 2-1.1 1.3.1 2.6 1.2 2.6 3.2zm-1.2.1c0-1.6-.6-2.7-1.8-2.7-.8 0-1.4.5-1.7 1.1v4c.3.3.9.6 1.4.6 1.5 0 2.1-1.5 2.1-3z"/><path d="m332.5 509.8c0 2-1.4 3.3-3.1 3.3s-3.1-1.3-3.1-3.3 1.4-3.3 3.1-3.3 3.1 1.3 3.1 3.3zm-1.2 0c0-1.8-.7-3-1.9-3s-1.9 1.1-1.9 3 .7 3 1.9 3 1.9-1.1 1.9-3z"/><path d="m339.2 507.3-1.7-.2c.5.4.8 1 .8 1.6 0 1.5-1.3 2.3-2.5 2.4-1 .1-1.4.5-1.4.9 0 .2.1.3.2.4l2.8.3c.8.1 1.7.6 1.7 1.6 0 1.6-1.4 2.6-3.5 2.6-1.3 0-2.7-.7-2.7-2 0-.8.5-1.3 1.2-1.7-.3-.2-.5-.5-.5-.9 0-.5.4-1 1.3-1.3-.9-.3-1.6-1.1-1.6-2.2 0-1.4 1.2-2.4 2.5-2.4.5 0 1 .2 1.4.4l2-.4zm-1 7.5c0-.6-.4-1-1.1-1.1l-2.8-.3c-.4.2-.6.8-.6 1.3 0 .9.7 1.9 2.3 1.9.9 0 2.2-.6 2.2-1.8zm-1-5.9c0-1.2-.6-2-1.4-2-.9 0-1.4.8-1.4 2s.6 2 1.4 2c.9 0 1.4-.9 1.4-2z"/><path d="m344.3 506.9-.4.9c-.2-.1-.9-.5-1.1-.5-.7 0-1.2 1-1.2 2.4v3l1.4.1v.3h-3.4v-.3l1-.1v-5.3l-1-.2v-.3l2-.3v1.6c.3-1.2 1.1-1.7 1.8-1.7.3 0 .7.2.9.4z"/><path d="m350.6 512.4c-.2.3-.7.7-1.3.7s-1-.4-1.1-.9c-.5.5-1.2.9-1.8.9-1 0-1.8-.7-1.8-1.6 0-1.1.9-1.7 2-1.9l1.5-.3v-1.1c0-.8-.3-1.2-1.2-1.2-.7 0-1.3.5-1.7 1.1l-.3-.3c.5-.8 1.3-1.4 2.2-1.4 1.4 0 2 .6 2 1.7v3.4c0 .8.3 1 .6 1 .2 0 .5-.1.6-.3zm-2.5-.5v-2.2l-1 .2c-.8.2-1.4.6-1.4 1.4 0 .7.5 1.2 1.1 1.2.5 0 1-.2 1.3-.6z"/><path d="m357.2 509.6c0 2.1-1.3 3.5-3.1 3.5-.7 0-1.1-.2-1.5-.4v3.7l1.4.1v.3h-3.4v-.3l1-.1v-9.1l-1-.2v-.3l2-.3v1c.4-.6 1.1-1.1 2-1.1 1.4.1 2.6 1.2 2.6 3.2zm-1.1.1c0-1.6-.6-2.7-1.8-2.7-.8 0-1.4.5-1.7 1.1v4c.3.3.9.6 1.4.6 1.5 0 2.1-1.5 2.1-3z"/><path d="m364.9 513h-3.1v-.3l1.1-.1v-5c-.2-.4-.6-.6-1.1-.6-1.2 0-1.9 1.2-1.9 2.7v2.9l1.1.1v.3h-3.1v-.3l1-.1v-9.4l-1-.2v-.3l2.1-.3v5.7c.4-1 1.1-1.6 2.2-1.6 1.2 0 1.9.8 1.9 2v4.1l1 .1v.3z"/><path d="m371.2 507-.7.2-2.4 5.9-1.3 3.8h-1l1.9-3.9-2.3-5.8-.7-.1v-.3h2.9v.3l-1 .1 1.7 4.6 1.7-4.5-1-.1v-.3h2.3v.1z"/><path d="m231.3 524-.7.2-2.5 6h-.1l-1.8-4.5-1.8 4.5h-.2l-2.5-6.1-.7-.1v-.3h2.9v.3l-1 .1 1.7 4.3 1.3-3.3-.4-1-.7-.1v-.3h2.9v.3l-1 .1v.1l1.7 4.3 1.7-4.3-1-.1v-.3h2.3v.2z"/><path d="m234.7 530h-3v-.3l1-.1v-5.3l-1-.2v-.3l2.1-.3v6.1l1 .1v.3zm-.9-8.8c0 .4-.3.7-.7.7s-.7-.3-.7-.7.3-.7.7-.7.7.4.7.7z"/><path d="m238.3 530h-3v-.3l1-.1v-9.4l-1-.2v-.3l2.1-.3v10.2l1 .1v.3z"/><path d="m241.8 530h-3v-.3l1-.1v-9.4l-1-.2v-.3l2.1-.3v10.2l1 .1v.3z"/><path d="m252.5 530h-3.1v-.3l1.1-.1v-5c-.1-.4-.6-.6-1.1-.6-1.2 0-1.9 1.2-1.9 2.7v2.9l1.1.1v.3h-3.1v-.3l1-.1v-5.3l-1-.2v-.3l2-.3v1.6c.4-1.1 1.2-1.7 2.2-1.7 1.2 0 1.9.8 1.9 2v4.1l1 .1v.4z"/><path d="m259.2 526.8c0 2-1.4 3.3-3.1 3.3s-3.1-1.3-3.1-3.3 1.4-3.3 3.1-3.3 3.1 1.3 3.1 3.3zm-1.2 0c0-1.8-.7-3-1.9-3s-1.9 1.1-1.9 3 .7 3 1.9 3 1.9-1.1 1.9-3z"/><path d="m264 529.2c-.3.5-.9.9-1.8.9-.8 0-1.5-.5-1.5-1.7v-4.2h-1v-.3l1-.4.8-1.9h.3v2.1h1.8v.4h-1.8v4.1c0 .9.4 1.2 1 1.2.5 0 .8-.3 1-.5z"/><path d="m273.6 526.8c0 2-1.4 3.3-3.1 3.3s-3.1-1.3-3.1-3.3 1.4-3.3 3.1-3.3 3.1 1.3 3.1 3.3zm-1.2 0c0-1.8-.7-3-1.9-3s-1.9 1.1-1.9 3 .7 3 1.9 3 1.9-1.1 1.9-3z"/><path d="m281.4 530h-3.1v-.3l1.1-.1v-5c-.1-.4-.6-.6-1.1-.6-1.2 0-1.9 1.2-1.9 2.7v2.9l1.1.1v.3h-3.1v-.3l1-.1v-5.3l-1-.2v-.3l2-.3v1.6c.4-1.1 1.2-1.7 2.2-1.7 1.2 0 1.9.8 1.9 2v4.1l1 .1v.4z"/><path d="m284.8 530h-3v-.3l1-.1v-9.4l-1-.2v-.3l2.1-.3v10.2l1 .1v.3z"/><path d="m291.4 524-.7.2-2.4 5.9-1.3 3.8h-1l1.9-3.9-2.3-5.8-.7-.1v-.3h2.9v.3l-1 .1 1.7 4.6 1.7-4.5-1-.1v-.3h2.3v.1z"/><path d="m299.1 528.2c0 1-.8 1.9-2.1 1.9-.6 0-1.1-.1-1.5-.4l-.1.4h-.3l-.1-2h.3c.2 1.1.8 1.6 1.7 1.6.7 0 1.2-.5 1.2-1.2 0-.8-.7-1.1-1.4-1.4-.8-.3-1.7-.8-1.7-1.9 0-1 .8-1.8 1.9-1.8.6 0 1 .1 1.4.4l.2-.3h.3v1.7h-.3c-.2-.9-.6-1.4-1.5-1.4-.7 0-1.1.5-1.1 1 0 .8.7 1.1 1.4 1.4.9.5 1.7.9 1.7 2z"/><path d="m306.4 526.6c0 2.1-1.3 3.5-3.1 3.5-.7 0-1.1-.2-1.5-.4v3.7l1.4.1v.3h-3.4v-.3l1-.1v-9.1l-1-.2v-.3l2-.3v1c.4-.6 1.1-1.1 2-1.1 1.4.1 2.6 1.2 2.6 3.2zm-1.1.1c0-1.6-.6-2.7-1.8-2.7-.8 0-1.4.5-1.7 1.1v4c.3.3.9.6 1.4.6 1.5 0 2.1-1.5 2.1-3z"/><path d="m310.2 530h-3v-.3l1-.1v-5.3l-1-.2v-.3l2.1-.3v6.1l1 .1v.3zm-.9-8.8c0 .4-.3.7-.7.7s-.7-.3-.7-.7.3-.7.7-.7.7.4.7.7z"/><path d="m316.3 529c-.3.5-1 1.2-2.4 1.2-1.7 0-3.1-1.4-3.1-3.4s1.5-3.3 3.1-3.3c.7 0 1.2.1 1.8.4l.2-.4h.3l-.1 1.8h-.3c-.2-.9-.8-1.5-1.8-1.5-1.2 0-2 1.1-2 2.8s.9 2.9 2.1 2.9c1 0 1.5-.4 1.9-.9z"/><path d="m322.4 526.3h-4.3v.4c0 1.8.9 2.9 2.1 2.9 1 0 1.5-.4 1.9-.9l.3.3c-.3.5-1 1.2-2.4 1.2-1.8 0-3.1-1.4-3.1-3.3 0-2 1.5-3.3 3-3.3s2.5 1 2.5 2.5zm-1.1-.4c0-1-.3-2.1-1.4-2.1-.9 0-1.5.9-1.7 2.1z"/><path d="m333 529.8-2 .3v-1.6c-.4 1.1-1.2 1.7-2.2 1.7-1.2 0-1.9-.8-1.9-2v-4l-1-.2v-.3h2.1v5.3c.2.4.5.6 1.1.6 1.2 0 1.9-1.2 1.9-2.7v-2.7l-1.1-.2v-.3h2.2v5.7l1 .2v.2z"/><path d="m340 526.6c0 2.1-1.3 3.5-3.1 3.5-.7 0-1.1-.2-1.5-.4v3.7l1.4.1v.3h-3.4v-.3l1-.1v-9.1l-1-.2v-.3l2-.3v1c.4-.6 1.1-1.1 2-1.1 1.3.1 2.6 1.2 2.6 3.2zm-1.2.1c0-1.6-.6-2.7-1.8-2.7-.8 0-1.4.5-1.7 1.1v4c.3.3.9.6 1.4.6 1.5 0 2.1-1.5 2.1-3z"/><path d="m349.9 524-.7.2-2.4 5.9-1.3 3.8h-1l1.9-3.9-2.3-5.8-.7-.1v-.3h2.9v.3l-1 .1 1.7 4.6 1.7-4.5-1-.1v-.3h2.3v.1z"/><path d="m356.2 526.8c0 2-1.4 3.3-3.1 3.3s-3.1-1.3-3.1-3.3 1.4-3.3 3.1-3.3 3.1 1.3 3.1 3.3zm-1.2 0c0-1.8-.7-3-1.9-3s-1.9 1.1-1.9 3 .7 3 1.9 3 1.9-1.1 1.9-3z"/><path d="m363.7 529.8-2 .3v-1.6c-.4 1.1-1.2 1.7-2.2 1.7-1.2 0-1.9-.8-1.9-2v-4l-1-.2v-.3h2.1v5.3c.1.4.5.6 1.1.6 1.2 0 1.9-1.2 1.9-2.7v-2.7l-1.1-.2v-.3h2.2v5.7l1 .2v.2z"/><path d="m368.8 523.9-.4.9c-.2-.1-.9-.5-1.1-.5-.7 0-1.2 1-1.2 2.4v3l1.4.1v.3h-3.4v-.3l1-.1v-5.3l-1-.2v-.3l2-.3v1.6c.3-1.2 1.1-1.7 1.8-1.7.4 0 .8.2.9.4z"/><path d="m227.7 543.6c0 2.1-1.2 3.5-3.4 3.5-.9 0-1.7-.2-2.2-.5v-9.5l-1-.2v-.3l2.1-.3v5.1c.4-.6 1.1-1 2-1 1.2.1 2.5 1.2 2.5 3.2zm-1.2.1c0-1.6-.6-2.7-1.8-2.7-.8 0-1.3.4-1.7 1.1v4.2c.2.2.8.4 1.3.4 1.4 0 2.2-1.3 2.2-3z"/><path d="m233.1 540.9-.4.9c-.2-.1-.9-.5-1.1-.5-.7 0-1.2 1-1.2 2.4v3l1.4.1v.3h-3.4v-.3l1-.1v-5.3l-1-.2v-.3l2-.3v1.6c.3-1.2 1.1-1.7 1.8-1.7.3 0 .7.2.9.4z"/><path d="m239.4 546.4c-.2.3-.7.7-1.3.7s-1-.4-1.1-.9c-.4.5-1.2.9-1.8.9-1 0-1.8-.7-1.8-1.6 0-1.1.9-1.7 2-1.9l1.5-.3v-1.1c0-.8-.3-1.2-1.2-1.2-.7 0-1.3.5-1.7 1.1l-.3-.3c.5-.8 1.3-1.4 2.2-1.4 1.3 0 2 .6 2 1.7v3.4c0 .8.3 1 .6 1 .2 0 .5-.1.6-.3zm-2.5-.5v-2.2l-1 .2c-.8.2-1.4.6-1.4 1.4 0 .7.5 1.2 1.1 1.2.5 0 1-.2 1.3-.6z"/><path d="m246.6 547h-3.1v-.3l1.1-.1v-5c-.1-.4-.6-.6-1.1-.6-1.2 0-1.9 1.2-1.9 2.7v2.9l1.1.1v.3h-3.1v-.3l1-.1v-5.3l-1-.2v-.3l2-.3v1.6c.4-1.1 1.2-1.7 2.2-1.7 1.2 0 1.9.8 1.9 2v4.1l1 .1v.4z"/><path d="m253.8 546.8-2 .3v-1c-.4.6-.9 1-1.9 1-1.3 0-2.7-1.1-2.7-3.1 0-2.1 1.3-3.5 3-3.5.8 0 1.3.3 1.6.6v-4l-1-.2v-.3l2.1-.3v10l1 .2v.3zm-2.1-1.3v-3.7c-.3-.5-.9-.9-1.5-.9-1.4 0-1.9 1.5-1.9 3 0 1.6.7 2.7 1.9 2.7.9 0 1.3-.6 1.5-1.1z"/><path d="m263.7 543.6c0 2.1-1.3 3.5-3.1 3.5-.7 0-1.1-.2-1.5-.4v3.7l1.4.1v.3h-3.4v-.3l1-.1v-9.1l-1-.2v-.3l2-.3v1c.4-.6 1.1-1.1 2-1.1 1.4.1 2.6 1.2 2.6 3.2zm-1.1.1c0-1.6-.6-2.7-1.8-2.7-.8 0-1.4.5-1.7 1.1v4c.3.3.9.6 1.4.6 1.5 0 2.1-1.5 2.1-3z"/><path d="m269.1 540.9-.4.9c-.2-.1-.9-.5-1.1-.5-.7 0-1.2 1-1.2 2.4v3l1.4.1v.3h-3.4v-.3l1-.1v-5.3l-1-.2v-.3l2-.3v1.6c.3-1.2 1.1-1.7 1.8-1.7.4 0 .7.2.9.4z"/><path d="m275 543.3h-4.3v.4c0 1.8.9 2.9 2.1 2.9 1 0 1.5-.4 1.9-.9l.3.3c-.3.5-1 1.2-2.4 1.2-1.8 0-3.1-1.4-3.1-3.3 0-2 1.5-3.3 3-3.3s2.5 1 2.5 2.5zm-1.2-.4c0-1-.3-2.1-1.4-2.1-.9 0-1.5.9-1.7 2.1z"/><path d="m280.1 545.2c0 1-.8 1.9-2.1 1.9-.6 0-1.1-.1-1.5-.4l-.2.4h-.3l-.1-2h.3c.2 1.1.8 1.6 1.7 1.6.7 0 1.2-.5 1.2-1.2 0-.8-.7-1.1-1.4-1.4-.8-.3-1.7-.8-1.7-1.9 0-1 .8-1.8 1.9-1.8.6 0 1 .1 1.4.4l.2-.3h.3v1.7h-.3c-.1-.9-.6-1.4-1.5-1.4-.7 0-1.1.5-1.1 1 0 .8.7 1.1 1.4 1.4.9.5 1.8.9 1.8 2z"/><path d="m286.5 543.3h-4.3v.4c0 1.8.9 2.9 2.1 2.9 1 0 1.5-.4 1.9-.9l.3.3c-.3.5-1 1.2-2.4 1.2-1.8 0-3.1-1.4-3.1-3.3 0-2 1.5-3.3 3-3.3s2.5 1 2.5 2.5zm-1.2-.4c0-1-.3-2.1-1.4-2.1-.9 0-1.5.9-1.7 2.1z"/><path d="m294.3 547h-3.1v-.3l1.1-.1v-5c-.2-.4-.6-.6-1.1-.6-1.2 0-1.9 1.2-1.9 2.7v2.9l1.1.1v.3h-3.1v-.3l1-.1v-5.3l-1-.2v-.3l2-.3v1.6c.4-1.1 1.2-1.7 2.2-1.7 1.2 0 1.9.8 1.9 2v4.1l1 .1v.4z"/><path d="m300.3 546c-.3.5-1 1.2-2.4 1.2-1.7 0-3.1-1.4-3.1-3.4s1.5-3.3 3.1-3.3c.7 0 1.2.1 1.8.4l.2-.4h.3l-.1 1.8h-.3c-.2-.9-.8-1.5-1.8-1.5-1.2 0-2 1.1-2 2.8s.9 2.9 2.1 2.9c1 0 1.5-.4 1.9-.9z"/><path d="m306.4 543.3h-4.3v.4c0 1.8.9 2.9 2.1 2.9 1 0 1.5-.4 1.9-.9l.3.3c-.3.5-1 1.2-2.4 1.2-1.8 0-3.1-1.4-3.1-3.3 0-2 1.5-3.3 3-3.3s2.5 1 2.5 2.5zm-1.1-.4c0-1-.3-2.1-1.4-2.1-.9 0-1.5.9-1.7 2.1z"/><path d="m309.4 546.8c0 1.1-.7 1.8-1.6 2.1l-.2-.4c.7-.2 1.2-.7 1.2-1.5l-1.2-.5c-.1-.1-.1-.3-.1-.4 0-.4.3-.7.8-.7.5.1 1.1.7 1.1 1.4z"/><path d="m316.4 547h-3v-.3l1-.1v-5.3l-1-.2v-.3l2.1-.3v6.1l1 .1v.3zm-.9-8.8c0 .4-.3.7-.7.7s-.7-.3-.7-.7.3-.7.7-.7.7.4.7.7z"/><path d="m321.1 546.2c-.3.5-.9.9-1.8.9-.8 0-1.5-.5-1.5-1.7v-4.2h-1v-.3l1-.4.8-1.9h.3v2.1h1.8v.4h-1.8v4.1c0 .9.4 1.2 1 1.2.5 0 .8-.3 1-.5z"/><path d="m334.4 541-.7.2-2.5 6h-.1l-1.8-4.5-1.8 4.5h-.1l-2.5-6.1-.7-.1v-.3h2.9v.3l-1 .1 1.7 4.3 1.3-3.3-.4-1-.7-.1v-.3h2.9v.3l-1 .1v.1l1.7 4.3 1.7-4.3-1-.1v-.3h2.3v.2z"/><path d="m337.8 547h-3v-.3l1-.1v-5.3l-1-.2v-.3l2.1-.3v6.1l1 .1v.3zm-.9-8.8c0 .4-.3.7-.7.7s-.7-.3-.7-.7.3-.7.7-.7.7.4.7.7z"/><path d="m341.4 547h-3v-.3l1-.1v-9.4l-1-.2v-.3l2.1-.3v10.2l1 .1v.3z"/><path d="m344.9 547h-3v-.3l1-.1v-9.4l-1-.2v-.3l2.1-.3v10.2l1 .1v.3z"/><path d="m354.5 546.4c-.2.3-.7.7-1.3.7s-1-.4-1.1-.9c-.5.5-1.2.9-1.8.9-1 0-1.8-.7-1.8-1.6 0-1.1.9-1.7 2-1.9l1.5-.3v-1.1c0-.8-.3-1.2-1.2-1.2-.7 0-1.3.5-1.7 1.1l-.3-.3c.5-.8 1.3-1.4 2.2-1.4 1.4 0 2 .6 2 1.7v3.4c0 .8.3 1 .6 1 .2 0 .5-.1.6-.3zm-2.4-.5v-2.2l-1 .2c-.8.2-1.4.6-1.4 1.4 0 .7.5 1.2 1.1 1.2.4 0 .9-.2 1.3-.6z"/><path d="m357.6 547h-3v-.3l1-.1v-9.4l-1-.2v-.3l2.1-.3v10.2l1 .1v.3z"/><path d="m362.6 545.2c0 1-.8 1.9-2.1 1.9-.6 0-1.1-.1-1.5-.4l-.2.4h-.3l-.1-2h.3c.2 1.1.8 1.6 1.7 1.6.7 0 1.2-.5 1.2-1.2 0-.8-.7-1.1-1.4-1.4-.8-.3-1.7-.8-1.7-1.9 0-1 .8-1.8 1.9-1.8.6 0 1 .1 1.4.4l.2-.3h.3v1.7h-.3c-.1-.9-.6-1.4-1.5-1.4-.7 0-1.1.5-1.1 1 0 .8.7 1.1 1.4 1.4.9.5 1.8.9 1.8 2z"/><path d="m369.6 543.8c0 2-1.4 3.3-3.1 3.3s-3.1-1.3-3.1-3.3 1.4-3.3 3.1-3.3 3.1 1.3 3.1 3.3zm-1.2 0c0-1.8-.7-3-1.9-3s-1.9 1.1-1.9 3 .7 3 1.9 3 1.9-1.1 1.9-3z"/><path d="m226.9 560.3h-4.3v.4c0 1.8.9 2.9 2.1 2.9 1 0 1.5-.4 1.9-.9l.3.3c-.3.5-1 1.2-2.4 1.2-1.8 0-3.1-1.4-3.1-3.3 0-2 1.5-3.3 3-3.3s2.5 1 2.5 2.5zm-1.1-.4c0-1-.3-2.1-1.4-2.1-.9 0-1.5.9-1.7 2.1z"/><path d="m234.8 564h-3.1v-.3l1.1-.1v-5c-.1-.4-.6-.6-1.1-.6-1.2 0-1.9 1.2-1.9 2.7v2.9l1.1.1v.3h-3.1v-.3l1-.1v-5.3l-1-.2v-.3l2-.3v1.6c.4-1.1 1.2-1.7 2.2-1.7 1.2 0 1.9.8 1.9 2v4.1l1 .1v.4z"/><path d="m239.7 562.2c0 1-.8 1.9-2.1 1.9-.6 0-1.1-.1-1.5-.4l-.1.4h-.3l-.1-2h.3c.2 1.1.8 1.6 1.7 1.6.7 0 1.2-.5 1.2-1.2 0-.8-.7-1.1-1.4-1.4-.8-.3-1.7-.8-1.7-1.9 0-1 .8-1.8 1.9-1.8.6 0 1 .1 1.4.4l.2-.3h.3v1.7h-.5c-.2-.9-.6-1.4-1.5-1.4-.7 0-1.1.5-1.1 1 0 .8.7 1.1 1.4 1.4 1 .5 1.9.9 1.9 2z"/><path d="m247.3 563.8-2 .3v-1.6c-.4 1.1-1.2 1.7-2.2 1.7-1.2 0-1.9-.8-1.9-2v-4l-1-.2v-.3h2.1v5.3c.1.4.5.6 1.1.6 1.2 0 1.9-1.2 1.9-2.7v-2.7l-1.1-.2v-.3h2.2v5.7l1 .2v.2z"/><path d="m252.5 557.9-.4.9c-.2-.1-.9-.5-1.1-.5-.7 0-1.2 1-1.2 2.4v3l1.4.1v.3h-3.4v-.3l1-.1v-5.3l-1-.2v-.3l2-.3v1.6c.3-1.2 1.1-1.7 1.8-1.7.3 0 .7.2.9.4z"/><path d="m258.3 560.3h-4.3v.4c0 1.8.9 2.9 2.1 2.9 1 0 1.5-.4 1.9-.9l.3.3c-.3.5-1 1.2-2.4 1.2-1.8 0-3.1-1.4-3.1-3.3 0-2 1.5-3.3 3-3.3s2.5 1 2.5 2.5zm-1.2-.4c0-1-.3-2.1-1.4-2.1-.9 0-1.5.9-1.7 2.1z"/><path d="m268.1 563.4c-.2.3-.7.7-1.3.7s-1-.4-1.1-.9c-.4.5-1.2.9-1.8.9-1 0-1.8-.7-1.8-1.6 0-1.1.9-1.7 2-1.9l1.5-.3v-1.1c0-.8-.3-1.2-1.2-1.2-.7 0-1.3.5-1.7 1.1l-.3-.3c.5-.8 1.3-1.4 2.2-1.4 1.3 0 2 .6 2 1.7v3.4c0 .8.3 1 .6 1 .2 0 .5-.1.6-.3zm-2.5-.5v-2.2l-1 .2c-.8.2-1.4.6-1.4 1.4 0 .7.5 1.2 1.1 1.2.5 0 1-.2 1.3-.6z"/><path d="m277.3 558.3-1.7-.2c.5.4.8 1 .8 1.6 0 1.5-1.3 2.3-2.5 2.4-1 .1-1.4.5-1.4.9 0 .2.1.3.2.4l2.8.3c.8.1 1.7.6 1.7 1.6 0 1.6-1.4 2.6-3.5 2.6-1.3 0-2.7-.7-2.7-2 0-.8.5-1.3 1.2-1.7-.3-.2-.5-.5-.5-.9 0-.5.4-1 1.3-1.3-.9-.3-1.6-1.1-1.6-2.2 0-1.4 1.2-2.4 2.5-2.4.5 0 1 .2 1.4.4l2-.4zm-1 7.5c0-.6-.4-1-1.1-1.1l-2.8-.3c-.4.2-.6.8-.6 1.3 0 .9.7 1.9 2.3 1.9.9 0 2.2-.6 2.2-1.8zm-1-5.9c0-1.2-.6-2-1.4-2-.9 0-1.4.8-1.4 2s.6 2 1.4 2 1.4-.9 1.4-2z"/><path d="m282.4 557.9-.4.9c-.2-.1-.9-.5-1.1-.5-.7 0-1.2 1-1.2 2.4v3l1.4.1v.3h-3.4v-.3l1-.1v-5.3l-1-.2v-.3l2-.3v1.6c.3-1.2 1.1-1.7 1.8-1.7.3 0 .7.2.9.4z"/><path d="m288.2 560.3h-4.3v.4c0 1.8.9 2.9 2.1 2.9 1 0 1.5-.4 1.9-.9l.3.3c-.3.5-1 1.2-2.4 1.2-1.8 0-3.1-1.4-3.1-3.3 0-2 1.5-3.3 3-3.3s2.5 1 2.5 2.5zm-1.2-.4c0-1-.3-2.1-1.4-2.1-.9 0-1.5.9-1.7 2.1z"/><path d="m295 563.4c-.2.3-.7.7-1.3.7s-1-.4-1.1-.9c-.4.5-1.2.9-1.8.9-1 0-1.8-.7-1.8-1.6 0-1.1.9-1.7 2-1.9l1.5-.3v-1.1c0-.8-.3-1.2-1.2-1.2-.7 0-1.3.5-1.7 1.1l-.3-.3c.5-.8 1.3-1.4 2.2-1.4 1.3 0 2 .6 2 1.7v3.4c0 .8.3 1 .6 1 .2 0 .5-.1.6-.3zm-2.5-.5v-2.2l-1 .2c-.8.2-1.4.6-1.4 1.4 0 .7.5 1.2 1.1 1.2.5 0 1-.2 1.3-.6z"/><path d="m299.1 563.2c-.3.5-.9.9-1.8.9-.8 0-1.5-.5-1.5-1.7v-4.2h-1v-.3l1-.4.8-1.9h.3v2.1h1.8v.4h-1.8v4.1c0 .9.4 1.2 1 1.2.5 0 .8-.3 1-.5z"/><path d="m304.9 560.3h-4.3v.4c0 1.8.9 2.9 2.1 2.9 1 0 1.5-.4 1.9-.9l.3.3c-.3.5-1 1.2-2.4 1.2-1.8 0-3.1-1.4-3.1-3.3 0-2 1.5-3.3 3-3.3s2.5 1 2.5 2.5zm-1.2-.4c0-1-.3-2.1-1.4-2.1-.9 0-1.5.9-1.7 2.1z"/><path d="m310.3 557.9-.4.9c-.2-.1-.9-.5-1.1-.5-.7 0-1.2 1-1.2 2.4v3l1.4.1v.3h-3.4v-.3l1-.1v-5.3l-1-.2v-.3l2-.3v1.6c.3-1.2 1.1-1.7 1.8-1.7.4 0 .7.2.9.4z"/><path d="m318.2 562.2c0 1-.8 1.9-2.1 1.9-.6 0-1.1-.1-1.5-.4l-.2.4h-.3l-.1-2h.3c.2 1.1.8 1.6 1.7 1.6.7 0 1.2-.5 1.2-1.2 0-.8-.7-1.1-1.4-1.4-.8-.3-1.7-.8-1.7-1.9 0-1 .8-1.8 1.9-1.8.6 0 1 .1 1.4.4l.2-.3h.3v1.7h-.3c-.1-.9-.6-1.4-1.5-1.4-.7 0-1.1.5-1.1 1 0 .8.7 1.1 1.4 1.4.9.5 1.8.9 1.8 2z"/><path d="m325.8 563.8-2 .3v-1.6c-.4 1.1-1.2 1.7-2.2 1.7-1.2 0-1.9-.8-1.9-2v-4l-1-.2v-.3h2.1v5.3c.2.4.5.6 1.1.6 1.2 0 1.9-1.2 1.9-2.7v-2.7l-1.1-.2v-.3h2.2v5.7l1 .2v.2z"/><path d="m331.8 563c-.3.5-1 1.2-2.4 1.2-1.7 0-3.1-1.4-3.1-3.4s1.5-3.3 3.1-3.3c.7 0 1.2.1 1.8.4l.2-.4h.3l-.1 1.8h-.3c-.2-.9-.8-1.5-1.8-1.5-1.2 0-2 1.1-2 2.8s.9 2.9 2.1 2.9c1 0 1.5-.4 1.9-.9z"/><path d="m337.8 563c-.3.5-1 1.2-2.4 1.2-1.7 0-3.1-1.4-3.1-3.4s1.5-3.3 3.1-3.3c.7 0 1.2.1 1.8.4l.2-.4h.3l-.1 1.8h-.3c-.2-.9-.8-1.5-1.8-1.5-1.2 0-2 1.1-2 2.8s.9 2.9 2.1 2.9c1 0 1.5-.4 1.9-.9z"/><path d="m344 560.3h-4.3v.4c0 1.8.9 2.9 2.1 2.9 1 0 1.5-.4 1.9-.9l.3.3c-.3.5-1 1.2-2.4 1.2-1.8 0-3.1-1.4-3.1-3.3 0-2 1.5-3.3 3-3.3s2.5 1 2.5 2.5zm-1.2-.4c0-1-.3-2.1-1.4-2.1-.9 0-1.5.9-1.7 2.1z"/><path d="m349.1 562.2c0 1-.8 1.9-2.1 1.9-.6 0-1.1-.1-1.5-.4l-.2.4h-.3l-.1-2h.3c.2 1.1.8 1.6 1.7 1.6.7 0 1.2-.5 1.2-1.2 0-.8-.7-1.1-1.4-1.4-.8-.3-1.7-.8-1.7-1.9 0-1 .8-1.8 1.9-1.8.6 0 1 .1 1.4.4l.2-.3h.3v1.7h-.3c-.1-.9-.6-1.4-1.5-1.4-.7 0-1.1.5-1.1 1 0 .8.7 1.1 1.4 1.4 1 .5 1.8.9 1.8 2z"/><path d="m354.2 562.2c0 1-.8 1.9-2.1 1.9-.6 0-1.1-.1-1.5-.4l-.2.4h-.3l-.1-2h.3c.2 1.1.8 1.6 1.7 1.6.7 0 1.2-.5 1.2-1.2 0-.8-.7-1.1-1.4-1.4-.8-.3-1.7-.8-1.7-1.9 0-1 .8-1.8 1.9-1.8.6 0 1 .1 1.4.4l.2-.3h.3v1.7h-.3c-.1-.9-.6-1.4-1.5-1.4-.7 0-1.1.5-1.1 1 0 .8.7 1.1 1.4 1.4 1 .5 1.8.9 1.8 2z"/><path d="m361.1 564h-3v-.3l1-.1v-5.3l-1-.2v-.3l2.1-.3v6.1l1 .1v.3zm-.9-8.8c0 .4-.3.7-.7.7s-.7-.3-.7-.7.3-.7.7-.7.7.4.7.7z"/><path d="m368.8 564h-3.1v-.3l1.1-.1v-5c-.2-.4-.6-.6-1.1-.6-1.2 0-1.9 1.2-1.9 2.7v2.9l1.1.1v.3h-3.1v-.3l1-.1v-5.3l-1-.2v-.3l2-.3v1.6c.4-1.1 1.2-1.7 2.2-1.7 1.2 0 1.9.8 1.9 2v4.1l1 .1v.4z"/><path d="m378.3 563.4c-.2.3-.7.7-1.3.7s-1-.4-1.1-.9c-.5.5-1.2.9-1.8.9-1 0-1.8-.7-1.8-1.6 0-1.1.9-1.7 2-1.9l1.5-.3v-1.1c0-.8-.3-1.2-1.2-1.2-.7 0-1.3.5-1.7 1.1l-.3-.3c.5-.8 1.3-1.4 2.2-1.4 1.4 0 2 .6 2 1.7v3.4c0 .8.3 1 .6 1 .2 0 .5-.1.6-.3zm-2.4-.5v-2.2l-1 .2c-.8.2-1.4.6-1.4 1.4 0 .7.5 1.2 1.1 1.2.4 0 .9-.2 1.3-.6z"/><path d="m227.9 577.6c0 2.1-1.3 3.5-3.1 3.5-.7 0-1.1-.2-1.5-.4v3.7l1.4.1v.3h-3.4v-.3l1-.1v-9.1l-1-.2v-.3l2-.3v1c.4-.6 1.1-1.1 2-1.1 1.3.1 2.6 1.2 2.6 3.2zm-1.2.1c0-1.6-.6-2.7-1.8-2.7-.8 0-1.4.5-1.7 1.1v4c.3.3.9.6 1.4.6 1.5 0 2.1-1.5 2.1-3z"/><path d="m234.6 580.4c-.2.3-.7.7-1.3.7s-1-.4-1.1-.9c-.4.5-1.2.9-1.8.9-1 0-1.8-.7-1.8-1.6 0-1.1.9-1.7 2-1.9l1.5-.3v-1.1c0-.8-.3-1.2-1.2-1.2-.7 0-1.3.5-1.7 1.1l-.3-.3c.5-.8 1.3-1.4 2.2-1.4 1.3 0 2 .6 2 1.7v3.4c0 .8.3 1 .6 1 .2 0 .5-.1.6-.3zm-2.5-.5v-2.2l-1 .2c-.8.2-1.4.6-1.4 1.4 0 .7.5 1.2 1.1 1.2.5 0 1-.2 1.3-.6z"/><path d="m239.4 574.9-.4.9c-.2-.1-.9-.5-1.1-.5-.7 0-1.2 1-1.2 2.4v3l1.4.1v.3h-3.4v-.3l1-.1v-5.3l-1-.2v-.3l2-.3v1.6c.3-1.2 1.1-1.7 1.8-1.7.3 0 .7.2.9.4z"/><path d="m244 580.2c-.3.5-.9.9-1.8.9-.8 0-1.5-.5-1.5-1.7v-4.2h-1v-.3l1-.4.8-1.9h.3v2.1h1.8v.4h-1.8v4.1c0 .9.4 1.2 1 1.2.5 0 .8-.3 1-.5z"/><path d="m253.5 577.8c0 2-1.4 3.3-3.1 3.3s-3.1-1.3-3.1-3.3 1.4-3.3 3.1-3.3c1.8 0 3.1 1.3 3.1 3.3zm-1.2 0c0-1.8-.7-3-1.9-3s-1.9 1.1-1.9 3 .7 3 1.9 3 1.9-1.1 1.9-3z"/><path d="m258.9 570.5-.4.9c-.6-.4-1.1-.7-1.4-.7-.5 0-.8.4-.8 1.6v2.4h1.8v.4h-1.8v5.4l1.4.1v.3h-3.5v-.3l1-.1v-5.4h-1v-.3l1-.3v-1.2c0-1.8.7-3.3 2.5-3.3.6.2.9.3 1.2.5z"/><path d="m267.4 580.4c-.2.3-.7.7-1.3.7s-1-.4-1.1-.9c-.4.5-1.2.9-1.8.9-1 0-1.8-.7-1.8-1.6 0-1.1.9-1.7 2-1.9l1.5-.3v-1.1c0-.8-.3-1.2-1.2-1.2-.7 0-1.3.5-1.7 1.1l-.3-.3c.5-.8 1.3-1.4 2.2-1.4 1.3 0 2 .6 2 1.7v3.4c0 .8.3 1 .6 1 .2 0 .5-.1.6-.3zm-2.4-.5v-2.2l-1 .2c-.8.2-1.4.6-1.4 1.4 0 .7.5 1.2 1.1 1.2.4 0 .9-.2 1.3-.6z"/><path d="m280.5 575-.7.2-2.5 6h-.1l-1.8-4.5-1.8 4.5h-.1l-2.5-6.1-.7-.1v-.3h2.9v.3l-1 .1 1.7 4.3 1.3-3.3-.4-1-.8-.1v-.3h2.9v.3l-1 .1v.1l1.7 4.3 1.7-4.3-1-.1v-.3h2.3v.2z"/><path d="m286.1 577.3h-4.3v.4c0 1.8.9 2.9 2.1 2.9 1 0 1.5-.4 1.9-.9l.3.3c-.3.5-1 1.2-2.4 1.2-1.8 0-3.1-1.4-3.1-3.3 0-2 1.5-3.3 3-3.3s2.5 1 2.5 2.5zm-1.2-.4c0-1-.3-2.1-1.4-2.1-.9 0-1.5.9-1.7 2.1z"/><path d="m289.8 581h-3v-.3l1-.1v-9.4l-1-.2v-.3l2.1-.3v10.2l1 .1v.3z"/><path d="m293.3 581h-3v-.3l1-.1v-9.4l-1-.2v-.3l2.1-.3v10.2l1 .1v.3z"/><path d="m297.2 577.7-3 .4v-.7l3-.4z"/><path d="m305.1 580.8-2 .3v-1c-.4.6-.9 1-1.9 1-1.3 0-2.7-1.1-2.7-3.1 0-2.1 1.3-3.5 3-3.5.8 0 1.3.3 1.6.6v-4l-1-.2v-.3l2.1-.3v10l1 .2v.3zm-2.1-1.3v-3.7c-.3-.5-.9-.9-1.5-.9-1.4 0-1.9 1.5-1.9 3 0 1.6.7 2.7 1.9 2.7.9 0 1.3-.6 1.5-1.1z"/><path d="m311.1 577.3h-4.3v.4c0 1.8.9 2.9 2.1 2.9 1 0 1.5-.4 1.9-.9l.3.3c-.3.5-1 1.2-2.4 1.2-1.8 0-3.1-1.4-3.1-3.3 0-2 1.5-3.3 3-3.3s2.5 1 2.5 2.5zm-1.1-.4c0-1-.3-2.1-1.4-2.1-.9 0-1.5.9-1.7 2.1z"/><path d="m316.3 579.2c0 1-.8 1.9-2.1 1.9-.6 0-1.1-.1-1.5-.4l-.1.4h-.3l-.1-2h.3c.2 1.1.8 1.6 1.7 1.6.7 0 1.2-.5 1.2-1.2 0-.8-.7-1.1-1.4-1.4-.8-.3-1.7-.8-1.7-1.9 0-1 .8-1.8 1.9-1.8.6 0 1 .1 1.4.4l.2-.3h.3v1.7h-.3c-.2-.9-.6-1.4-1.5-1.4-.7 0-1.1.5-1.1 1 0 .8.7 1.1 1.4 1.4.8.5 1.7.9 1.7 2z"/><path d="m320.1 581h-3v-.3l1-.1v-5.3l-1-.2v-.3l2.1-.3v6.1l1 .1v.3zm-.9-8.8c0 .4-.3.7-.7.7s-.7-.3-.7-.7.3-.7.7-.7.7.4.7.7z"/><path d="m326.8 575.3-1.7-.2c.5.4.8 1 .8 1.6 0 1.5-1.3 2.3-2.5 2.4-1 .1-1.4.5-1.4.9 0 .2.1.3.2.4l2.8.3c.8.1 1.7.6 1.7 1.6 0 1.6-1.4 2.6-3.5 2.6-1.3 0-2.7-.7-2.7-2 0-.8.5-1.3 1.2-1.7-.3-.2-.5-.5-.5-.9 0-.5.4-1 1.3-1.3-.9-.3-1.6-1.1-1.6-2.2 0-1.4 1.2-2.4 2.5-2.4.5 0 1 .2 1.4.4l2-.4zm-1 7.5c0-.6-.4-1-1.1-1.1l-2.8-.3c-.4.2-.6.8-.6 1.3 0 .9.7 1.9 2.3 1.9.9 0 2.2-.6 2.2-1.8zm-1-5.9c0-1.2-.6-2-1.4-2-.9 0-1.4.8-1.4 2s.6 2 1.4 2 1.4-.9 1.4-2z"/><path d="m334.3 581h-3.1v-.3l1.1-.1v-5c-.2-.4-.6-.6-1.1-.6-1.2 0-1.9 1.2-1.9 2.7v2.9l1.1.1v.3h-3.1v-.3l1-.1v-5.3l-1-.2v-.3l2-.3v1.6c.4-1.1 1.2-1.7 2.2-1.7 1.2 0 1.9.8 1.9 2v4.1l1 .1v.4z"/><path d="m340.3 577.3h-4.3v.4c0 1.8.9 2.9 2.1 2.9 1 0 1.5-.4 1.9-.9l.3.3c-.3.5-1 1.2-2.4 1.2-1.8 0-3.1-1.4-3.1-3.3 0-2 1.5-3.3 3-3.3s2.5 1 2.5 2.5zm-1.1-.4c0-1-.3-2.1-1.4-2.1-.9 0-1.5.9-1.7 2.1z"/><path d="m347.8 580.8-2 .3v-1c-.4.6-.9 1-1.9 1-1.3 0-2.7-1.1-2.7-3.1 0-2.1 1.3-3.5 3-3.5.8 0 1.3.3 1.6.6v-4l-1-.2v-.3l2.1-.3v10l1 .2v.3zm-2.1-1.3v-3.7c-.3-.5-.9-.9-1.5-.9-1.4 0-1.9 1.5-1.9 3 0 1.6.7 2.7 1.9 2.7.9 0 1.3-.6 1.5-1.1z"/><path d="m358.1 580.8-2 .3v-1.6c-.4 1.1-1.2 1.7-2.2 1.7-1.2 0-1.9-.8-1.9-2v-4l-1-.2v-.3h2.1v5.3c.1.4.5.6 1.1.6 1.2 0 1.9-1.2 1.9-2.7v-2.7l-1.1-.2v-.3h2.2v5.7l1 .2v.2z"/><path d="m362.9 579.2c0 1-.8 1.9-2.1 1.9-.6 0-1.1-.1-1.5-.4l-.1.4h-.3l-.1-2h.3c.2 1.1.8 1.6 1.7 1.6.7 0 1.2-.5 1.2-1.2 0-.8-.7-1.1-1.4-1.4-.8-.3-1.7-.8-1.7-1.9 0-1 .8-1.8 1.9-1.8.6 0 1 .1 1.4.4l.2-.3h.3v1.7h-.3c-.2-.9-.6-1.4-1.5-1.4-.7 0-1.1.5-1.1 1 0 .8.7 1.1 1.4 1.4.9.5 1.7.9 1.7 2z"/><path d="m369.3 577.3h-4.3v.4c0 1.8.9 2.9 2.1 2.9 1 0 1.5-.4 1.9-.9l.3.3c-.3.5-1 1.2-2.4 1.2-1.8 0-3.1-1.4-3.1-3.3 0-2 1.5-3.3 3-3.3s2.5 1 2.5 2.5zm-1.2-.4c0-1-.3-2.1-1.4-2.1-.9 0-1.5.9-1.7 2.1z"/><path d="m374.7 574.9-.4.9c-.2-.1-.9-.5-1.1-.5-.7 0-1.2 1-1.2 2.4v3l1.4.1v.3h-3.4v-.3l1-.1v-5.3l-1-.2v-.3l2-.3v1.6c.3-1.2 1.1-1.7 1.8-1.7.4 0 .7.2.9.4z"/><path d="m226.9 594.3h-4.3v.4c0 1.8.9 2.9 2.1 2.9 1 0 1.5-.4 1.9-.9l.3.3c-.3.5-1 1.2-2.4 1.2-1.8 0-3.1-1.4-3.1-3.3 0-2 1.5-3.3 3-3.3s2.5 1 2.5 2.5zm-1.1-.4c0-1-.3-2.1-1.4-2.1-.9 0-1.5.9-1.7 2.1z"/><path d="m233.6 598h-2.9v-.3l1-.1-1.5-2.3-1.4 2.3 1 .1v.3h-2.5v-.3l.9-.1 1.7-2.6-1.9-2.8-.7-.1v-.3h2.8v.3l-.9.1 1.3 2.1 1.3-2.1-.8-.2v-.3h2.4v.3l-.9.1-1.6 2.4 2 3 .7.1z"/><path d="m240.5 594.6c0 2.1-1.3 3.5-3.1 3.5-.7 0-1.1-.2-1.5-.4v3.7l1.4.1v.3h-3.4v-.3l1-.1v-9.1l-1-.2v-.3l2-.3v1c.4-.6 1.1-1.1 2-1.1 1.3.1 2.6 1.2 2.6 3.2zm-1.1.1c0-1.6-.6-2.7-1.8-2.7-.8 0-1.4.5-1.7 1.1v4c.3.3.9.6 1.4.6 1.5 0 2.1-1.5 2.1-3z"/><path d="m246.8 594.3h-4.3v.4c0 1.8.9 2.9 2.1 2.9 1 0 1.5-.4 1.9-.9l.3.3c-.3.5-1 1.2-2.4 1.2-1.8 0-3.1-1.4-3.1-3.3 0-2 1.5-3.3 3-3.3s2.5 1 2.5 2.5zm-1.2-.4c0-1-.3-2.1-1.4-2.1-.9 0-1.5.9-1.7 2.1z"/><path d="m252.2 591.9-.4.9c-.2-.1-.9-.5-1.1-.5-.7 0-1.2 1-1.2 2.4v3l1.4.1v.3h-3.4v-.3l1-.1v-5.3l-1-.2v-.3l2-.3v1.6c.3-1.2 1.1-1.7 1.8-1.7.4 0 .7.2.9.4z"/><path d="m255.7 598h-3v-.3l1-.1v-5.3l-1-.2v-.3l2.1-.3v6.1l1 .1v.3zm-.9-8.8c0 .4-.3.7-.7.7s-.7-.3-.7-.7.3-.7.7-.7.7.4.7.7z"/><path d="m261.9 594.3h-4.3v.4c0 1.8.9 2.9 2.1 2.9 1 0 1.5-.4 1.9-.9l.3.3c-.3.5-1 1.2-2.4 1.2-1.8 0-3.1-1.4-3.1-3.3 0-2 1.5-3.3 3-3.3s2.5 1 2.5 2.5zm-1.2-.4c0-1-.3-2.1-1.4-2.1-.9 0-1.5.9-1.7 2.1z"/><path d="m269.8 598h-3.1v-.3l1.1-.1v-5c-.1-.4-.6-.6-1.1-.6-1.2 0-1.9 1.2-1.9 2.7v2.9l1.1.1v.3h-3.1v-.3l1-.1v-5.3l-1-.2v-.3l2-.3v1.6c.4-1.1 1.2-1.7 2.2-1.7 1.2 0 1.9.8 1.9 2v4.1l1 .1v.4z"/><path d="m275.7 597c-.3.5-1 1.2-2.4 1.2-1.7 0-3.1-1.4-3.1-3.4s1.5-3.3 3.1-3.3c.7 0 1.2.1 1.8.4l.2-.4h.3l-.1 1.8h-.3c-.2-.9-.8-1.5-1.8-1.5-1.2 0-2 1.1-2 2.8s.9 2.9 2.1 2.9c1 0 1.5-.4 1.9-.9z"/><path d="m281.9 594.3h-4.3v.4c0 1.8.9 2.9 2.1 2.9 1 0 1.5-.4 1.9-.9l.3.3c-.3.5-1 1.2-2.4 1.2-1.8 0-3.1-1.4-3.1-3.3 0-2 1.5-3.3 3-3.3s2.5 1 2.5 2.5zm-1.2-.4c0-1-.3-2.1-1.4-2.1-.9 0-1.5.9-1.7 2.1z"/><path d="m292.7 598h-3.1v-.3l1.1-.1v-5c-.1-.4-.6-.6-1.1-.6-1.2 0-1.9 1.2-1.9 2.7v2.9l1.1.1v.3h-3.1v-.3l1-.1v-5.3l-1-.2v-.3l2-.3v1.6c.4-1.1 1.2-1.7 2.2-1.7 1.2 0 1.9.8 1.9 2v4.1l1 .1v.4z"/><path d="m299.4 594.8c0 2-1.4 3.3-3.1 3.3s-3.1-1.3-3.1-3.3 1.4-3.3 3.1-3.3 3.1 1.3 3.1 3.3zm-1.2 0c0-1.8-.7-3-1.9-3s-1.9 1.1-1.9 3 .7 3 1.9 3 1.9-1.1 1.9-3z"/><path d="m309.7 592-.7.2-2.5 6h-.1l-1.8-4.5-1.8 4.5h-.1l-2.5-6.1-.7-.1v-.3h2.9v.3l-1 .1 1.7 4.3 1.3-3.3-.4-1-.7-.1v-.3h2.9v.3l-1 .1v.1l1.7 4.3 1.7-4.3-1-.1v-.3h2.3v.2z"/><path d="m315.7 597.4c-.2.3-.7.7-1.3.7s-1-.4-1.1-.9c-.4.5-1.2.9-1.8.9-1 0-1.8-.7-1.8-1.6 0-1.1.9-1.7 2-1.9l1.5-.3v-1.1c0-.8-.3-1.2-1.2-1.2-.7 0-1.3.5-1.7 1.1l-.3-.3c.5-.8 1.3-1.4 2.2-1.4 1.3 0 2 .6 2 1.7v3.4c0 .8.3 1 .6 1 .2 0 .5-.1.6-.3zm-2.5-.5v-2.2l-1 .2c-.8.2-1.4.6-1.4 1.4 0 .7.5 1.2 1.1 1.2.5 0 1-.2 1.3-.6z"/><path d="m322.5 597.8-2 .3v-1c-.4.6-.9 1-1.9 1-1.3 0-2.7-1.1-2.7-3.1 0-2.1 1.3-3.5 3-3.5.8 0 1.3.3 1.6.6v-4l-1-.2v-.3l2.1-.3v10l1 .2v.3zm-2.1-1.3v-3.7c-.3-.5-.9-.9-1.5-.9-1.4 0-1.9 1.5-1.9 3 0 1.6.7 2.7 1.9 2.7.9 0 1.3-.6 1.5-1.1z"/><path d="m329 597.4c-.2.3-.7.7-1.3.7s-1-.4-1.1-.9c-.5.5-1.2.9-1.8.9-1 0-1.8-.7-1.8-1.6 0-1.1.9-1.7 2-1.9l1.5-.3v-1.1c0-.8-.3-1.2-1.2-1.2-.7 0-1.3.5-1.7 1.1l-.3-.3c.5-.8 1.3-1.4 2.2-1.4 1.4 0 2 .6 2 1.7v3.4c0 .8.3 1 .6 1 .2 0 .5-.1.6-.3zm-2.5-.5v-2.2l-1 .2c-.8.2-1.4.6-1.4 1.4 0 .7.5 1.2 1.1 1.2.5 0 1-.2 1.3-.6z"/><path d="m335 592-.7.2-2.4 5.9-1.3 3.8h-1l1.9-3.9-2.3-5.8-.7-.1v-.3h2.9v.3l-1 .1 1.7 4.6 1.7-4.5-1-.1v-.3h2.3v.1z"/><path d="m339.4 596.2c0 1-.8 1.9-2.1 1.9-.6 0-1.1-.1-1.5-.4l-.2.4h-.3l-.1-2h.3c.2 1.1.8 1.6 1.7 1.6.7 0 1.2-.5 1.2-1.2 0-.8-.7-1.1-1.4-1.4-.8-.3-1.7-.8-1.7-1.9 0-1 .8-1.8 1.9-1.8.6 0 1 .1 1.4.4l.2-.3h.3v1.7h-.3c-.1-.9-.6-1.4-1.5-1.4-.7 0-1.1.5-1.1 1 0 .8.7 1.1 1.4 1.4.9.5 1.8.9 1.8 2z"/><path d="m342 597.3c0 .4-.3.8-.8.8-.4 0-.8-.3-.8-.8 0-.4.3-.8.8-.8.4.1.8.4.8.8z"/><path d="m395.2 90.7v3.6h-.4l-.1-1.4-3 1.1v3.7l3 1.1.2-1.3h.4v2.8h-.4l-.2-.9-9.8-3.7v-.4l9.9-3.8.1-.9h.3zm-4 3.5-4.5 1.7 4.5 1.7z"/><path d="m395.2 87.2v3.2h-.3l-.1-1h-10.1l-.2 1h-.3l-.3-2.2h10.9l.1-1z"/><path d="m395.2 83.5v3.2h-.3l-.1-1h-10.1l-.2 1h-.3l-.3-2.2h10.9l.1-1z"/><path d="m394.4 75.2c.5.4.9.9.9 1.9 0 .9-.6 1.6-1.8 1.6h-4.5v1.1h-.3l-.4-1-2-.8v-.4h2.2v-2h.5v2h4.4c.9 0 1.3-.4 1.3-1 0-.5-.3-.9-.6-1.1z"/><path d="m388.7 69.9 1 .4c-.1.2-.5 1-.5 1.1 0 .8 1.1 1.2 2.5 1.2h3.2l.1-1.5h.3v3.7h-.3l-.1-1h-5.6l-.2 1h-.3l-.3-2.1h1.7c-1.2-.4-1.8-1.1-1.8-2-.1-.2.1-.6.3-.8z"/><path d="m388.8 62.6.2.8 6.3 2.5 4 1.4v1.1l-4.1-2-6.2 2.5-.2.8h-.3v-3.1h.3l.1 1.1 4.9-1.8-4.8-1.9-.2 1.1h-.3v-2.4h.3z"/><path d="m395.2 59v3.2h-.3l-.1-1h-5.7l-.2 1h-.3l-.4-2.2h6.5l.1-1zm-9.3 1c.4 0 .7.3.7.7s-.3.7-.7.7-.7-.3-.7-.7.3-.7.7-.7z"/><path d="m395.2 50.8v3.3h-.3l-.1-1.2h-5.3c-.4.2-.6.6-.6 1.2 0 1.3 1.3 2 2.9 2h3.1l.1-1.2h.3v3.3h-.3l-.1-1h-5.6l-.2 1h-.3l-.3-2.1h1.7c-1.1-.4-1.8-1.2-1.8-2.4s.9-2 2.1-2h4.4l.1-1h.2z"/><path d="m389.2 43.8-.2 1.8c.4-.6 1.1-.8 1.8-.8 1.6 0 2.4 1.3 2.5 2.7.1 1 .5 1.5 1 1.5.2 0 .3-.1.4-.2l.3-3c.1-.8.6-1.8 1.7-1.8 1.7 0 2.8 1.5 2.8 3.7 0 1.4-.8 2.8-2.2 2.8-.9 0-1.4-.6-1.8-1.3-.2.3-.6.5-1 .5-.5 0-1.1-.4-1.4-1.4-.4 1-1.2 1.7-2.4 1.7-1.5 0-2.5-1.2-2.5-2.7 0-.6.2-1.1.4-1.5l-.4-2.1h1zm8 1c-.7 0-1.1.4-1.2 1.1l-.3 2.9c.3.4.8.7 1.4.7 1 0 2-.8 2-2.4 0-.8-.6-2.3-1.9-2.3zm-6.4 1.1c-1.2 0-2.1.6-2.1 1.5s.9 1.5 2.1 1.5 2.1-.6 2.1-1.5c.1-.9-.8-1.5-2.1-1.5z"/><path d="m394.5 41.5c.5 0 .8.4.8.8s-.4.8-.8.8-.8-.4-.8-.8.4-.8.8-.8z"/></svg>