<?xml version="1.0" encoding="utf-8"?>
<!-- Generator: Adobe Illustrator 24.1.0, SVG Export Plug-In . SVG Version: 6.00 Build 0)  -->
<svg version="1.1" id="Layer_1" xmlns="http://www.w3.org/2000/svg" xmlns:xlink="http://www.w3.org/1999/xlink" x="0px" y="0px"
	 viewBox="0 0 437 643" style="enable-background:new 0 0 437 643;" xml:space="preserve">
<style type="text/css">
	.st0{fill:#FFFFFF;}
	.st1{fill:#BFE0E2;}
	.st2{fill:#EB5E5E;}
</style>
<rect class="st0" width="437" height="643"/>
<rect y="133.9" class="st1" width="437" height="219.4"/>
<g>
	<path d="M54.4,403.2c0,3.3-2.8,5.6-5.9,5.6c-2,0-3.4-0.4-4.5-1l-0.3,1h-0.8l-0.2-6l0.7-0.1l0.7,3.2c0.9,1.3,2.5,2,4.1,2
		c2.3,0,4.2-1.4,4.2-4c0-2-1.3-3-4.5-4.6c-3.5-1.7-4.9-3.1-4.9-5.8c0-3,2.5-4.9,5.5-4.9c1.6,0,2.9,0.3,3.9,0.9l0.3-0.9h0.8l-0.1,5.3
		h-0.7l-0.5-2.9c-0.8-1.2-2.2-1.6-3.7-1.6c-1.9,0-3.6,1.3-3.6,3.4c0,1.9,0.8,2.7,4.5,4.5C52.5,398.9,54.4,400.3,54.4,403.2z"/>
	<path d="M76,398.6c0,6.1-4.1,10.2-9.6,10.2S57,405,57,398.9s4.1-10.2,9.6-10.2C72.1,388.6,76,392.5,76,398.6z M73.4,398.9
		c0-5.7-3.1-9.3-7-9.3c-3.8,0-6.8,3.3-6.8,9c0,5.7,3.1,9.3,7,9.3C70.4,407.8,73.4,404.6,73.4,398.9z"/>
	<path d="M101.9,408.4h-7v-0.7l2.4-0.2l-0.9-15.8l-6.9,16.7h-0.2l-7-16.6l-0.9,15.5l2.4,0.4v0.7h-5.8v-0.7l2.3-0.4l1-17.3l-2.4-0.3
		v-0.7h4.7l6.5,15.5l6.4-15.5h4.6v0.7l-2.4,0.2l1,17.5l2.3,0.2V408.4z"/>
	<path d="M117.4,408.4H104v-0.7l2.3-0.2V390l-2.3-0.2v-0.7h13v4.1h-0.8l-0.4-3.1h-7v7.8h5.2l0.3-2.1h0.8v5.1h-0.8l-0.3-2.1h-5.2v8.5
		h7.4l0.4-3.4h0.9V408.4z"/>
	<path d="M134.9,393.7H134l-0.4-3.7h-5.3v17.5l2.5,0.2v0.7h-7.4v-0.7l2.5-0.2V390h-5.3l-0.4,3.7h-0.8v-4.7h15.4V393.7z"/>
	<path d="M155.8,408.4h-7v-0.7l2.3-0.2v-8.7h-9.8v8.7l2.3,0.2v0.7h-7v-0.7l2.3-0.2V390l-2.3-0.2v-0.7h7v0.7l-2.3,0.2v7.9h9.8V390
		l-2.3-0.2v-0.7h7v0.7l-2.3,0.2v17.5l2.3,0.2V408.4z"/>
	<path d="M165.4,408.4h-7v-0.7l2.3-0.2V390l-2.3-0.2v-0.7h7v0.7l-2.3,0.2v17.5l2.3,0.2V408.4z"/>
	<path d="M186.9,389.7l-2.3,0.4v18.4h-0.5l-12.8-16v14.7l2.3,0.4v0.7h-5.8v-0.7l2.3-0.4v-16.1l-0.9-1.1l-1.4-0.3v-0.7h3.7l12,14.9
		v-13.9l-2.3-0.4v-0.7h5.8V389.7z"/>
	<path d="M206.4,401.3l-1.2,0.4v5.2c-1.3,0.9-3.9,1.9-7.3,1.9c-5.5,0-9.4-4-9.4-10c0-6.1,4-10.2,9.9-10.2c2.8,0,4.4,0.5,5.5,1l0.3-1
		h0.8l-0.2,5.3h-0.7l-0.5-2.6c-1.4-1.2-3-1.9-5.8-1.9c-3.7,0-6.8,3.4-6.8,9c0,5.2,2.7,9.3,7.2,9.3c2,0,3.4-0.5,4.6-1.3v-4.8l-3-0.2
		v-0.7h6.5V401.3z"/>
	<path d="M212.3,407.1c0,0.9-0.7,1.6-1.6,1.6s-1.6-0.7-1.6-1.6s0.7-1.6,1.6-1.6S212.3,406.3,212.3,407.1z"/>
	<path d="M239.7,408.4h-8.9v-1.3l2.2-0.4l-1.4-4h-6.3l-1.4,4l2.2,0.4v1.3h-5.9v-1.3l1.5-0.4l6.8-17.8h2.9l6.8,17.8l1.6,0.4V408.4z
		 M230.9,401l-2.5-7.1l-2.5,7.1H230.9z"/>
	<path d="M266.4,408.4H257v-1.3l2.3-0.4l-0.8-13.9l-5.8,15.5H251l-5.9-15.3l-0.7,13.6l2.3,0.4v1.3h-6.5v-1.3l2.3-0.4l0.9-15.9
		l-2.4-0.4v-1.3h7.6l4.8,12.8l4.7-12.8h7.4v1.3l-2.5,0.4l1,16l2.3,0.4V408.4z"/>
	<path d="M286.5,408.4h-8.9v-1.3l2.2-0.4l-1.4-4H272l-1.4,4l2.2,0.4v1.3H267v-1.3l1.5-0.4l6.8-17.8h2.9l6.8,17.8l1.6,0.4V408.4z
		 M277.7,401l-2.5-7.1l-2.5,7.1H277.7z"/>
	<path d="M303.4,402.4l-0.3,6h-16l-0.1-1l10.3-16.6h-7l-0.6,3.9h-1.7v-5.6h15.1v0.7l-10.4,16.9h8l0.9-4.2H303.4z"/>
	<path d="M314.4,408.4h-9.5v-1.3l2.3-0.4v-16.1l-2.3-0.4v-1.3h9.5v1.3l-2.3,0.4v16.1l2.3,0.4V408.4z"/>
	<path d="M336.3,390.3l-2.3,0.4v17.8h-2.3l-11.2-14.2v12.3l2.3,0.4v1.3h-6.7v-1.3l2.3-0.4v-14.8l-1.1-1.4l-1.3-0.2v-1.2h6.2
		l9.8,12.3v-10.6l-2.3-0.4v-1.3h6.7V390.3z"/>
	<path d="M356.5,401l-1.2,0.5v5.4c-1.6,1.1-4.9,1.9-7.8,1.9c-6.1,0-10-3.8-10-10c0-6.1,4.2-10.1,10.4-10.1c1.7,0,3.9,0.3,5.2,0.9
		l0.4-0.9h1.5l-0.3,6.2h-1.5l-0.6-2.8c-1-1.1-2.4-1.8-4.4-1.8c-3.9,0-5.5,3.8-5.5,8.5c0,5,2,8.3,5.5,8.3c0.9,0,1.7-0.3,2.2-0.7v-4.9
		l-2.7-0.4v-1.3h8.7V401z"/>
	<path d="M363.3,406.3c0,1.3-1,2.3-2.3,2.3s-2.3-1-2.3-2.3c0-1.3,1-2.3,2.3-2.3S363.3,405.1,363.3,406.3z"/>
</g>
<g>
	<path d="M48.7,436.5h-7v-0.4l1.2-0.1v-9.3l-1.2-0.1v-0.4h3.9v0.4l-1.4,0.1v9.3H48l0.2-1.9h0.5V436.5z"/>
	<path d="M55.4,432.6h-4.6c0,0.1,0,0.3,0,0.4c0,1.9,0.9,3.1,2.2,3.1c1,0,1.6-0.4,2-1l0.3,0.3c-0.3,0.5-1.1,1.3-2.5,1.3
		c-1.9,0-3.3-1.5-3.3-3.6c0-2.1,1.6-3.5,3.2-3.5c1.7,0,2.7,1.1,2.7,2.7V432.6z M54.2,432.2c0-1-0.3-2.2-1.5-2.2
		c-0.9,0-1.6,0.9-1.8,2.2H54.2z"/>
	<path d="M60.6,435.7c-0.4,0.5-0.9,0.9-1.9,0.9c-0.9,0-1.6-0.6-1.6-1.8v-4.5H56v-0.3l1-0.4l0.8-2h0.4v2.2h2v0.5h-2v4.4
		c0,0.9,0.4,1.3,1,1.3c0.5,0,0.9-0.3,1.1-0.6L60.6,435.7z"/>
	<path d="M62.7,426.9c0,1.1-0.6,1.8-1.5,2.1l-0.3-0.4c0.7-0.3,1.1-0.8,1.1-1.5l-1.1-0.4c-0.1-0.1-0.1-0.3-0.1-0.5
		c0-0.4,0.3-0.7,0.8-0.7C62.2,425.7,62.7,426.3,62.7,426.9z"/>
	<path d="M67,434.7c0,1-0.8,2-2.3,2c-0.7,0-1.2-0.1-1.6-0.4l-0.2,0.4h-0.3l-0.1-2.1l0.3,0c0.2,1.1,0.8,1.8,1.8,1.8
		c0.8,0,1.3-0.5,1.3-1.3c0-0.8-0.7-1.2-1.5-1.5c-0.9-0.4-1.8-0.8-1.8-2c0-1.1,0.9-1.9,2-1.9c0.6,0,1,0.1,1.5,0.4l0.2-0.4h0.3l0,1.8
		h-0.3c-0.2-0.9-0.7-1.5-1.6-1.5c-0.8,0-1.2,0.6-1.2,1.1c0,0.8,0.7,1.2,1.5,1.5C66.1,433,67,433.5,67,434.7z"/>
	<path d="M76.9,435.4c-0.3,0.5-1.1,1.3-2.5,1.3c-1.8,0-3.3-1.5-3.3-3.6c0-2.1,1.6-3.5,3.3-3.5c0.8,0,1.3,0.1,1.9,0.4l0.2-0.4h0.3
		l-0.1,2h-0.3c-0.2-1-0.8-1.6-1.9-1.6c-1.3,0-2.1,1.2-2.1,3c0,1.8,1,3.1,2.2,3.1c1,0,1.6-0.4,2-1L76.9,435.4z"/>
	<path d="M82.6,430l-0.4,1c-0.2-0.1-1-0.5-1.1-0.5c-0.8,0-1.2,1.1-1.2,2.5v3.2l1.5,0.1v0.3h-3.7v-0.3l1-0.1v-5.6l-1-0.2V430l2.1-0.3
		v1.7h0c0.4-1.2,1.1-1.8,2-1.8C82,429.6,82.4,429.8,82.6,430z"/>
	<path d="M88.9,432.6h-4.6c0,0.1,0,0.3,0,0.4c0,1.9,0.9,3.1,2.2,3.1c1,0,1.6-0.4,2-1l0.3,0.3c-0.3,0.5-1.1,1.3-2.5,1.3
		c-1.9,0-3.3-1.5-3.3-3.6c0-2.1,1.6-3.5,3.2-3.5c1.7,0,2.7,1.1,2.7,2.7V432.6z M87.6,432.2c0-1-0.3-2.2-1.5-2.2
		c-0.9,0-1.6,0.9-1.8,2.2H87.6z"/>
	<path d="M96.1,435.9c-0.2,0.4-0.8,0.8-1.4,0.8s-1-0.4-1.2-1c-0.5,0.5-1.2,1-1.9,1c-1.1,0-1.9-0.7-1.9-1.8c0-1.2,1-1.8,2.2-2
		l1.6-0.3v-1.2c0-0.9-0.4-1.3-1.3-1.3c-0.7,0-1.4,0.5-1.8,1.2L90,431c0.6-0.9,1.3-1.5,2.4-1.5c1.4,0,2.2,0.7,2.2,1.8v3.6
		c0,0.9,0.3,1.1,0.7,1.1c0.3,0,0.5-0.1,0.6-0.3L96.1,435.9z M93.5,435.4V433l-1.1,0.2c-0.8,0.2-1.5,0.6-1.5,1.5
		c0,0.8,0.5,1.3,1.2,1.3C92.6,436,93.1,435.8,93.5,435.4z"/>
	<path d="M100.5,435.7c-0.4,0.5-0.9,0.9-1.9,0.9c-0.9,0-1.6-0.6-1.6-1.8v-4.5h-1.1v-0.3l1-0.4l0.8-2h0.4v2.2h2v0.5h-2v4.4
		c0,0.9,0.4,1.3,1,1.3c0.5,0,0.9-0.3,1.1-0.6L100.5,435.7z"/>
	<path d="M106.7,432.6H102c0,0.1,0,0.3,0,0.4c0,1.9,0.9,3.1,2.2,3.1c1,0,1.6-0.4,2-1l0.3,0.3c-0.3,0.5-1.1,1.3-2.5,1.3
		c-1.9,0-3.3-1.5-3.3-3.6c0-2.1,1.6-3.5,3.2-3.5c1.7,0,2.7,1.1,2.7,2.7V432.6z M105.4,432.2c0-1-0.3-2.2-1.5-2.2
		c-0.9,0-1.6,0.9-1.8,2.2H105.4z"/>
	<path d="M117.1,435.9c-0.2,0.4-0.8,0.8-1.4,0.8s-1-0.4-1.2-1c-0.5,0.5-1.2,1-1.9,1c-1.1,0-1.9-0.7-1.9-1.8c0-1.2,1-1.8,2.2-2
		l1.6-0.3v-1.2c0-0.9-0.4-1.3-1.3-1.3c-0.7,0-1.4,0.5-1.8,1.2L111,431c0.6-0.9,1.3-1.5,2.4-1.5c1.4,0,2.2,0.7,2.2,1.8v3.6
		c0,0.9,0.3,1.1,0.7,1.1c0.3,0,0.5-0.1,0.6-0.3L117.1,435.9z M114.5,435.4V433l-1.1,0.2c-0.8,0.2-1.5,0.6-1.5,1.5
		c0,0.8,0.5,1.3,1.2,1.3C113.6,436,114.1,435.8,114.5,435.4z"/>
	<path d="M128,436.5h-3.3v-0.3l1.2-0.1v-5.3c-0.2-0.4-0.6-0.6-1.2-0.6c-1.3,0-2,1.3-2,2.9v3.1l1.2,0.1v0.3h-3.3v-0.3l1-0.1v-5.6
		l-1-0.2V430l2.1-0.3v1.7h0c0.4-1.1,1.2-1.8,2.4-1.8c1.2,0,2,0.9,2,2.1v4.4l1,0.1V436.5z"/>
	<path d="M134.5,432.6h-4.6c0,0.1,0,0.3,0,0.4c0,1.9,0.9,3.1,2.2,3.1c1,0,1.6-0.4,2-1l0.3,0.3c-0.3,0.5-1.1,1.3-2.5,1.3
		c-1.9,0-3.3-1.5-3.3-3.6c0-2.1,1.6-3.5,3.2-3.5c1.7,0,2.7,1.1,2.7,2.7V432.6z M133.2,432.2c0-1-0.3-2.2-1.5-2.2
		c-0.9,0-1.6,0.9-1.8,2.2H133.2z"/>
	<path d="M145.6,430.1l-0.8,0.2l-2.6,6.4h-0.2l-1.9-4.8l-1.9,4.8h-0.2l-2.6-6.5l-0.8-0.2v-0.3h3.1v0.3l-1.1,0.1l1.8,4.6l1.4-3.6
		l-0.4-1.1l-0.8-0.1v-0.3h3.1v0.3l-1.1,0.1v0.1l1.8,4.6l1.8-4.6l-1.1-0.2v-0.3h2.4V430.1z"/>
	<path d="M160.8,436.5h-3.3v-0.3l1.2-0.1v-5.3c-0.2-0.4-0.5-0.6-1.1-0.6c-1.1,0-1.9,1.2-1.9,2.9v3.1l1.2,0.1v0.3h-3.5v-0.3l1.2-0.1
		v-5.3c-0.2-0.4-0.5-0.6-1.1-0.6c-1.1,0-1.9,1.2-1.9,2.9v3.1l1.2,0.1v0.3h-3.3v-0.3l1-0.1v-5.6l-1-0.2V430l2.1-0.3v1.7h0
		c0.3-1,1.2-1.8,2.3-1.8c1.1,0,1.8,0.7,1.9,1.8h0c0.4-1.1,1.2-1.8,2.3-1.8c1.2,0,1.9,0.9,1.9,2.1v4.4l1,0.1V436.5z"/>
	<path d="M167.7,435.9c-0.2,0.4-0.8,0.8-1.4,0.8s-1-0.4-1.2-1c-0.5,0.5-1.2,1-1.9,1c-1.1,0-1.9-0.7-1.9-1.8c0-1.2,1-1.8,2.2-2
		l1.6-0.3v-1.2c0-0.9-0.4-1.3-1.3-1.3c-0.7,0-1.4,0.5-1.8,1.2l-0.4-0.3c0.6-0.9,1.3-1.5,2.4-1.5c1.4,0,2.2,0.7,2.2,1.8v3.6
		c0,0.9,0.3,1.1,0.7,1.1c0.3,0,0.5-0.1,0.6-0.3L167.7,435.9z M165.1,435.4V433l-1.1,0.2c-0.8,0.2-1.5,0.6-1.5,1.5
		c0,0.8,0.5,1.3,1.2,1.3C164.2,436,164.8,435.8,165.1,435.4z"/>
	<path d="M174.4,430.5l-1.8-0.2l0,0c0.6,0.4,0.8,1.1,0.8,1.8c0,1.6-1.3,2.4-2.7,2.5c-1,0.1-1.5,0.5-1.5,1c0,0.2,0.1,0.3,0.2,0.4
		l3,0.3c0.8,0.1,1.8,0.6,1.8,1.7c0,1.7-1.5,2.8-3.7,2.8c-1.4,0-2.8-0.8-2.8-2.2c0-0.9,0.6-1.4,1.3-1.8c-0.3-0.2-0.5-0.6-0.5-1
		c0-0.5,0.4-1.1,1.4-1.4v0c-1-0.4-1.7-1.2-1.7-2.4c0-1.5,1.2-2.5,2.7-2.5c0.6,0,1.1,0.2,1.5,0.4l2.1-0.4V430.5z M173.3,438.5
		c0-0.7-0.4-1.1-1.1-1.2l-2.9-0.3c-0.4,0.3-0.7,0.8-0.7,1.4c0,1,0.8,2,2.4,2C171.9,440.4,173.3,439.8,173.3,438.5z M172.2,432.1
		c0-1.2-0.6-2.1-1.5-2.1c-0.9,0-1.5,0.9-1.5,2.1c0,1.2,0.6,2.1,1.5,2.1C171.6,434.3,172.2,433.4,172.2,432.1z"/>
	<path d="M181.1,435.9c-0.2,0.4-0.8,0.8-1.4,0.8s-1-0.4-1.2-1c-0.5,0.5-1.2,1-1.9,1c-1.1,0-1.9-0.7-1.9-1.8c0-1.2,1-1.8,2.2-2
		l1.6-0.3v-1.2c0-0.9-0.4-1.3-1.3-1.3c-0.7,0-1.4,0.5-1.8,1.2L175,431c0.6-0.9,1.3-1.5,2.4-1.5c1.4,0,2.2,0.7,2.2,1.8v3.6
		c0,0.9,0.3,1.1,0.7,1.1c0.3,0,0.5-0.1,0.6-0.3L181.1,435.9z M178.5,435.4V433l-1.1,0.2c-0.8,0.2-1.5,0.6-1.5,1.5
		c0,0.8,0.5,1.3,1.2,1.3C177.6,436,178.1,435.8,178.5,435.4z"/>
	<path d="M186.9,434.3l-0.1,2.2h-5.6l-0.1-0.3l4.3-6h-3.3l-0.2,1.4h-0.4v-1.8h5.3v0.3l-4.3,6h3.7l0.3-1.7H186.9z"/>
	<path d="M191,436.5h-3.2v-0.3l1-0.1v-5.7l-1-0.2V430l2.2-0.4v6.5l1,0.1V436.5z M190,427.2c0,0.4-0.3,0.7-0.7,0.7
		c-0.4,0-0.7-0.3-0.7-0.7c0-0.4,0.3-0.7,0.7-0.7C189.7,426.5,190,426.8,190,427.2z"/>
	<path d="M199.2,436.5h-3.3v-0.3l1.2-0.1v-5.3c-0.2-0.4-0.6-0.6-1.2-0.6c-1.3,0-2,1.3-2,2.9v3.1l1.2,0.1v0.3h-3.3v-0.3l1-0.1v-5.6
		l-1-0.2V430l2.1-0.3v1.7h0c0.4-1.1,1.2-1.8,2.4-1.8c1.2,0,2,0.9,2,2.1v4.4l1,0.1V436.5z"/>
	<path d="M201.9,435.8c0,0.5-0.4,0.8-0.8,0.8s-0.8-0.4-0.8-0.8c0-0.5,0.4-0.8,0.8-0.8S201.9,435.4,201.9,435.8z"/>
</g>
<g>
	<path d="M49,505.7h-0.4l-0.2-1.9h-2.6v8.7l1.3,0.1v0.3h-3.7v-0.3l1.3-0.1v-8.7h-2.6l-0.2,1.9h-0.4v-2.3H49V505.7z"/>
	<path d="M56.4,513h-3.1v-0.3l1.1-0.1v-5c-0.2-0.4-0.6-0.6-1.1-0.6c-1.2,0-1.9,1.2-1.9,2.7v2.9l1.1,0.1v0.3h-3.1v-0.3l1-0.1v-9.4
		l-1-0.2v-0.3l2.1-0.3v5.7c0.4-1,1.1-1.6,2.2-1.6c1.2,0,1.9,0.8,1.9,2v4.1l1,0.1V513z"/>
	<path d="M59.9,513h-3v-0.3l1-0.1v-5.3l-1-0.2v-0.3l2.1-0.3v6.1l1,0.1V513z M59,504.2c0,0.4-0.3,0.7-0.7,0.7s-0.7-0.3-0.7-0.7
		s0.3-0.7,0.7-0.7S59,503.9,59,504.2z"/>
	<path d="M64.9,511.2c0,1-0.8,1.9-2.1,1.9c-0.6,0-1.1-0.1-1.5-0.4l-0.1,0.4h-0.3l-0.1-2l0.3,0c0.2,1.1,0.8,1.6,1.7,1.6
		c0.7,0,1.2-0.5,1.2-1.2c0-0.8-0.7-1.1-1.4-1.4c-0.8-0.3-1.7-0.8-1.7-1.9c0-1,0.8-1.8,1.9-1.8c0.6,0,1,0.1,1.4,0.4l0.2-0.3h0.3
		l0,1.7h-0.3c-0.1-0.9-0.6-1.4-1.5-1.4c-0.7,0-1.1,0.5-1.1,1c0,0.8,0.7,1.1,1.4,1.4C64,509.7,64.9,510.1,64.9,511.2z"/>
	<path d="M73.1,511.2c0,1-0.8,1.9-2.1,1.9c-0.6,0-1.1-0.1-1.5-0.4l-0.1,0.4H69l-0.1-2l0.3,0c0.2,1.1,0.8,1.6,1.7,1.6
		c0.7,0,1.2-0.5,1.2-1.2c0-0.8-0.7-1.1-1.4-1.4c-0.8-0.3-1.7-0.8-1.7-1.9c0-1,0.8-1.8,1.9-1.8c0.6,0,1,0.1,1.4,0.4l0.2-0.3h0.3
		l0,1.7h-0.3c-0.1-0.9-0.6-1.4-1.5-1.4c-0.7,0-1.1,0.5-1.1,1c0,0.8,0.7,1.1,1.4,1.4C72.2,509.7,73.1,510.1,73.1,511.2z"/>
	<path d="M80.9,513h-3.1v-0.3l1.1-0.1v-5c-0.2-0.4-0.6-0.6-1.1-0.6c-1.2,0-1.9,1.2-1.9,2.7v2.9l1.1,0.1v0.3h-3.1v-0.3l1-0.1v-9.4
		l-1-0.2v-0.3l2.1-0.3v5.7c0.4-1,1.1-1.6,2.2-1.6c1.2,0,1.9,0.8,1.9,2v4.1l1,0.1V513z"/>
	<path d="M87.5,509.8c0,2-1.4,3.3-3.1,3.3c-1.7,0-3.1-1.3-3.1-3.3c0-2,1.4-3.3,3.1-3.3C86.2,506.5,87.5,507.8,87.5,509.8z
		 M86.3,509.8c0-1.8-0.7-3-1.9-3s-1.9,1.1-1.9,3s0.7,3,1.9,3S86.3,511.7,86.3,509.8z"/>
	<path d="M95,512.8l-2,0.3v-1.6h0c-0.4,1.1-1.2,1.7-2.2,1.7c-1.2,0-1.9-0.8-1.9-2v-4l-1-0.2v-0.3H90v5.3c0.1,0.4,0.5,0.6,1.1,0.6
		c1.2,0,1.9-1.2,1.9-2.7v-2.7l-1.1-0.2v-0.3h2.2v5.7l1,0.2V512.8z"/>
	<path d="M98.5,513h-3v-0.3l1-0.1v-9.4l-1-0.2v-0.3l2.1-0.3v10.2l1,0.1V513z"/>
	<path d="M105.7,512.8l-2,0.3v-1l0,0c-0.4,0.6-0.9,1-1.9,1c-1.3,0-2.7-1.1-2.7-3.1c0-2.1,1.3-3.5,3-3.5c0.8,0,1.3,0.3,1.6,0.6v-4
		l-1-0.2v-0.3l2.1-0.3v10l1,0.2V512.8z M103.7,511.5v-3.7c-0.3-0.5-0.9-0.9-1.5-0.9c-1.4,0-1.9,1.5-1.9,3c0,1.6,0.7,2.7,1.9,2.7
		C103.1,512.6,103.5,512,103.7,511.5z"/>
	<path d="M115.3,507.3l-1.7-0.2l0,0c0.5,0.4,0.8,1,0.8,1.6c0,1.5-1.3,2.3-2.5,2.4c-1,0.1-1.4,0.5-1.4,0.9c0,0.2,0.1,0.3,0.2,0.4
		l2.8,0.3c0.8,0.1,1.7,0.6,1.7,1.6c0,1.6-1.4,2.6-3.5,2.6c-1.3,0-2.7-0.7-2.7-2c0-0.8,0.5-1.3,1.2-1.7c-0.3-0.2-0.5-0.5-0.5-0.9
		c0-0.5,0.4-1,1.3-1.3v0c-0.9-0.3-1.6-1.1-1.6-2.2c0-1.4,1.2-2.4,2.5-2.4c0.5,0,1,0.2,1.4,0.4l2-0.4V507.3z M114.3,514.8
		c0-0.6-0.4-1-1.1-1.1l-2.8-0.3c-0.4,0.2-0.6,0.8-0.6,1.3c0,0.9,0.7,1.9,2.3,1.9C113,516.6,114.3,516,114.3,514.8z M113.3,508.9
		c0-1.2-0.6-2-1.4-2s-1.4,0.8-1.4,2s0.6,2,1.4,2S113.3,510,113.3,508.9z"/>
	<path d="M118.7,513h-3v-0.3l1-0.1v-5.3l-1-0.2v-0.3l2.1-0.3v6.1l1,0.1V513z M117.8,504.2c0,0.4-0.3,0.7-0.7,0.7s-0.7-0.3-0.7-0.7
		s0.3-0.7,0.7-0.7S117.8,503.9,117.8,504.2z"/>
	<path d="M125.4,507l-0.7,0.2l-2.5,6H122l-2.5-6.1l-0.7-0.1v-0.3h2.9v0.3l-1,0.1l1.7,4.4l1.7-4.3l-1-0.1v-0.3h2.3V507z"/>
	<path d="M131,509.3h-4.3c0,0.1,0,0.3,0,0.4c0,1.8,0.9,2.9,2.1,2.9c1,0,1.5-0.4,1.9-0.9l0.3,0.3c-0.3,0.5-1,1.2-2.4,1.2
		c-1.8,0-3.1-1.4-3.1-3.3c0-2,1.5-3.3,3-3.3s2.5,1,2.5,2.5V509.3z M129.8,508.9c0-1-0.3-2.1-1.4-2.1c-0.9,0-1.5,0.9-1.7,2.1H129.8z"
		/>
	<path d="M140.9,507l-0.7,0.2l-2.4,5.9l-1.3,3.8h-1l1.9-3.9l-2.3-5.8l-0.7-0.1v-0.3h2.9v0.3l-1,0.1l1.7,4.6l1.7-4.5l-1-0.1v-0.3h2.3
		V507z"/>
	<path d="M147.2,509.8c0,2-1.4,3.3-3.1,3.3c-1.7,0-3.1-1.3-3.1-3.3c0-2,1.4-3.3,3.1-3.3C145.8,506.5,147.2,507.8,147.2,509.8z
		 M146,509.8c0-1.8-0.7-3-1.9-3s-1.9,1.1-1.9,3s0.7,3,1.9,3S146,511.7,146,509.8z"/>
	<path d="M154.7,512.8l-2,0.3v-1.6h0c-0.4,1.1-1.2,1.7-2.2,1.7c-1.2,0-1.9-0.8-1.9-2v-4l-1-0.2v-0.3h2.1v5.3
		c0.1,0.4,0.5,0.6,1.1,0.6c1.2,0,1.9-1.2,1.9-2.7v-2.7l-1.1-0.2v-0.3h2.2v5.7l1,0.2V512.8z"/>
	<path d="M164.2,512.4c-0.2,0.3-0.7,0.7-1.3,0.7s-1-0.4-1.1-0.9c-0.4,0.5-1.2,0.9-1.8,0.9c-1,0-1.8-0.7-1.8-1.6c0-1.1,0.9-1.7,2-1.9
		l1.5-0.3v-1.1c0-0.8-0.3-1.2-1.2-1.2c-0.7,0-1.3,0.5-1.7,1.1l-0.3-0.3c0.5-0.8,1.3-1.4,2.2-1.4c1.4,0,2,0.6,2,1.7v3.4
		c0,0.8,0.3,1,0.6,1c0.2,0,0.5-0.1,0.6-0.3L164.2,512.4z M161.7,511.9v-2.2l-1,0.2c-0.8,0.2-1.4,0.6-1.4,1.4c0,0.7,0.5,1.2,1.1,1.2
		C160.9,512.5,161.4,512.3,161.7,511.9z"/>
	<path d="M171.5,512.2c-0.3,0.5-0.9,0.9-1.8,0.9c-0.8,0-1.5-0.5-1.5-1.7v-4.2h-1v-0.3l1-0.4l0.8-1.9h0.3v2.1h1.8v0.4h-1.8v4.1
		c0,0.9,0.4,1.2,1,1.2c0.5,0,0.8-0.3,1-0.5L171.5,512.2z"/>
	<path d="M174.9,513h-3v-0.3l1-0.1v-5.3l-1-0.2v-0.3l2.1-0.3v6.1l1,0.1V513z M174,504.2c0,0.4-0.3,0.7-0.7,0.7s-0.7-0.3-0.7-0.7
		s0.3-0.7,0.7-0.7S174,503.9,174,504.2z"/>
	<path d="M182.6,513h-3.1v-0.3l1.1-0.1v-5c-0.1-0.4-0.6-0.6-1.1-0.6c-1.2,0-1.9,1.2-1.9,2.7v2.9l1.1,0.1v0.3h-3.1v-0.3l1-0.1v-5.3
		l-1-0.2v-0.3l2-0.3v1.6h0c0.4-1.1,1.2-1.7,2.2-1.7c1.2,0,1.9,0.8,1.9,2v4.1l1,0.1V513z"/>
	<path d="M188.9,507l-0.7,0.2l-2.4,5.9l-1.3,3.8h-1l1.9-3.9l-2.3-5.8l-0.7-0.1v-0.3h2.9v0.3l-1,0.1l1.7,4.6l1.7-4.5l-1-0.1v-0.3h2.3
		V507z"/>
	<path d="M47.4,524.3l-1.7-0.2l0,0c0.5,0.4,0.8,1,0.8,1.6c0,1.5-1.3,2.3-2.5,2.4c-1,0.1-1.4,0.5-1.4,0.9c0,0.2,0.1,0.3,0.2,0.4
		l2.8,0.3c0.8,0.1,1.7,0.6,1.7,1.6c0,1.6-1.4,2.6-3.5,2.6c-1.3,0-2.7-0.7-2.7-2c0-0.8,0.5-1.3,1.2-1.7c-0.3-0.2-0.5-0.5-0.5-0.9
		c0-0.5,0.4-1,1.3-1.3v0c-0.9-0.3-1.6-1.1-1.6-2.2c0-1.4,1.2-2.4,2.5-2.4c0.5,0,1,0.2,1.4,0.4l2-0.4V524.3z M46.4,531.8
		c0-0.6-0.4-1-1.1-1.1l-2.8-0.3c-0.4,0.2-0.6,0.8-0.6,1.3c0,0.9,0.7,1.9,2.3,1.9C45.1,533.6,46.4,533,46.4,531.8z M45.4,525.9
		c0-1.2-0.6-2-1.4-2s-1.4,0.8-1.4,2s0.6,2,1.4,2S45.4,527,45.4,525.9z"/>
	<path d="M50.7,530h-3v-0.3l1-0.1v-9.4l-1-0.2v-0.3l2.1-0.3v10.2l1,0.1V530z"/>
	<path d="M54.4,530h-3v-0.3l1-0.1v-5.3l-1-0.2v-0.3l2.1-0.3v6.1l1,0.1V530z M53.5,521.2c0,0.4-0.3,0.7-0.7,0.7s-0.7-0.3-0.7-0.7
		s0.3-0.7,0.7-0.7S53.5,520.9,53.5,521.2z"/>
	<path d="M65.8,530h-3.1v-0.3l1.1-0.1v-5c-0.2-0.4-0.4-0.6-1-0.6c-1,0-1.8,1.1-1.8,2.7v2.9l1.1,0.1v0.3h-3.2v-0.3l1.1-0.1v-5
		c-0.2-0.4-0.4-0.6-1-0.6c-1,0-1.8,1.1-1.8,2.7v2.9l1.1,0.1v0.3H55v-0.3l1-0.1v-5.3l-1-0.2v-0.3l2-0.3v1.6h0
		c0.3-0.9,1.1-1.7,2.1-1.7c1,0,1.6,0.6,1.8,1.7h0c0.3-1,1.1-1.7,2.1-1.7c1.1,0,1.8,0.8,1.8,2v4.1l1,0.1V530z"/>
	<path d="M72.8,526.6c0,2.1-1.4,3.5-3.1,3.5c-0.7,0-1.1-0.2-1.5-0.4v3.7l1.4,0.1v0.3h-3.4v-0.3l1-0.1v-9.1l-1-0.2v-0.3l2-0.3v1h0
		c0.4-0.6,1.1-1.1,2-1.1C71.5,523.5,72.8,524.6,72.8,526.6z M71.7,526.7c0-1.6-0.6-2.7-1.8-2.7c-0.8,0-1.4,0.5-1.6,1.1v4
		c0.3,0.3,0.9,0.6,1.4,0.6C71,529.7,71.7,528.2,71.7,526.7z"/>
	<path d="M77.9,528.2c0,1-0.8,1.9-2.1,1.9c-0.6,0-1.1-0.1-1.5-0.4l-0.1,0.4h-0.3l-0.1-2l0.3,0c0.2,1.1,0.8,1.6,1.7,1.6
		c0.7,0,1.2-0.5,1.2-1.2c0-0.8-0.7-1.1-1.4-1.4c-0.8-0.3-1.7-0.8-1.7-1.9c0-1,0.8-1.8,1.9-1.8c0.6,0,1,0.1,1.4,0.4l0.2-0.3h0.3
		l0,1.7h-0.3c-0.1-0.9-0.6-1.4-1.5-1.4c-0.7,0-1.1,0.5-1.1,1c0,0.8,0.7,1.1,1.4,1.4C77,526.7,77.9,527.1,77.9,528.2z"/>
	<path d="M84.8,530h-3v-0.3l1-0.1v-5.3l-1-0.2v-0.3l2.1-0.3v6.1l1,0.1V530z M83.9,521.2c0,0.4-0.3,0.7-0.7,0.7s-0.7-0.3-0.7-0.7
		s0.3-0.7,0.7-0.7S83.9,520.9,83.9,521.2z"/>
	<path d="M92.5,530h-3.1v-0.3l1.1-0.1v-5c-0.1-0.4-0.6-0.6-1.1-0.6c-1.2,0-1.9,1.2-1.9,2.7v2.9l1.1,0.1v0.3h-3.1v-0.3l1-0.1v-5.3
		l-1-0.2v-0.3l2-0.3v1.6h0c0.4-1.1,1.2-1.7,2.2-1.7c1.2,0,1.9,0.8,1.9,2v4.1l1,0.1V530z"/>
	<path d="M105.9,524l-0.7,0.2l-2.5,6h-0.1l-1.8-4.5l-1.8,4.5h-0.1l-2.5-6.1l-0.7-0.1v-0.3h2.9v0.3l-1,0.1l1.7,4.3l1.3-3.3l-0.4-1
		l-0.7-0.1v-0.3h2.9v0.3l-1,0.1v0.1l1.7,4.3l1.7-4.3l-1-0.1v-0.3h2.3V524z"/>
	<path d="M113.1,530H110v-0.3l1.1-0.1v-5c-0.2-0.4-0.6-0.6-1.1-0.6c-1.2,0-1.9,1.2-1.9,2.7v2.9l1.1,0.1v0.3H106v-0.3l1-0.1v-9.4
		l-1-0.2v-0.3l2.1-0.3v5.7c0.4-1,1.1-1.6,2.2-1.6c1.2,0,1.9,0.8,1.9,2v4.1l1,0.1V530z"/>
	<path d="M119.6,529.4c-0.2,0.3-0.7,0.7-1.3,0.7s-1-0.4-1.1-0.9c-0.4,0.5-1.2,0.9-1.8,0.9c-1,0-1.8-0.7-1.8-1.6c0-1.1,0.9-1.7,2-1.9
		l1.5-0.3v-1.1c0-0.8-0.3-1.2-1.2-1.2c-0.7,0-1.3,0.5-1.7,1.1l-0.3-0.3c0.5-0.8,1.3-1.4,2.2-1.4c1.4,0,2,0.6,2,1.7v3.4
		c0,0.8,0.3,1,0.6,1c0.2,0,0.5-0.1,0.6-0.3L119.6,529.4z M117.1,528.9v-2.2l-1,0.2c-0.8,0.2-1.4,0.6-1.4,1.4c0,0.7,0.5,1.2,1.1,1.2
		C116.3,529.5,116.8,529.3,117.1,528.9z"/>
	<path d="M123.7,529.2c-0.3,0.5-0.9,0.9-1.8,0.9c-0.8,0-1.5-0.5-1.5-1.7v-4.2h-1v-0.3l1-0.4l0.8-1.9h0.3v2.1h1.8v0.4h-1.8v4.1
		c0,0.9,0.4,1.2,1,1.2c0.5,0,0.8-0.3,1-0.5L123.7,529.2z"/>
	<path d="M133.3,524l-0.7,0.2l-2.4,5.9l-1.3,3.8h-1l1.9-3.9l-2.3-5.8l-0.7-0.1v-0.3h2.9v0.3l-1,0.1l1.7,4.6l1.7-4.5l-1-0.1v-0.3h2.3
		V524z"/>
	<path d="M139.5,526.8c0,2-1.4,3.3-3.1,3.3c-1.7,0-3.1-1.3-3.1-3.3c0-2,1.4-3.3,3.1-3.3C138.2,523.5,139.5,524.8,139.5,526.8z
		 M138.3,526.8c0-1.8-0.7-3-1.9-3s-1.9,1.1-1.9,3s0.7,3,1.9,3S138.3,528.7,138.3,526.8z"/>
	<path d="M147,529.8l-2,0.3v-1.6h0c-0.4,1.1-1.2,1.7-2.2,1.7c-1.2,0-1.9-0.8-1.9-2v-4l-1-0.2v-0.3h2.1v5.3c0.1,0.4,0.5,0.6,1.1,0.6
		c1.2,0,1.9-1.2,1.9-2.7v-2.7l-1.1-0.2v-0.3h2.2v5.7l1,0.2V529.8z"/>
	<path d="M156,529c-0.3,0.5-1,1.2-2.4,1.2c-1.7,0-3.1-1.4-3.1-3.4c0-2,1.5-3.3,3.1-3.3c0.7,0,1.2,0.1,1.8,0.4l0.2-0.4h0.3l-0.1,1.8
		h-0.3c-0.2-0.9-0.8-1.5-1.8-1.5c-1.2,0-2,1.1-2,2.8c0,1.7,0.9,2.9,2.1,2.9c1,0,1.5-0.4,1.9-0.9L156,529z"/>
	<path d="M162.7,529.4c-0.2,0.3-0.7,0.7-1.3,0.7s-1-0.4-1.1-0.9c-0.4,0.5-1.2,0.9-1.8,0.9c-1,0-1.8-0.7-1.8-1.6c0-1.1,0.9-1.7,2-1.9
		l1.5-0.3v-1.1c0-0.8-0.3-1.2-1.2-1.2c-0.7,0-1.3,0.5-1.7,1.1l-0.3-0.3c0.5-0.8,1.3-1.4,2.2-1.4c1.4,0,2,0.6,2,1.7v3.4
		c0,0.8,0.3,1,0.6,1c0.2,0,0.5-0.1,0.6-0.3L162.7,529.4z M160.2,528.9v-2.2l-1,0.2c-0.8,0.2-1.4,0.6-1.4,1.4c0,0.7,0.5,1.2,1.1,1.2
		C159.4,529.5,159.9,529.3,160.2,528.9z"/>
	<path d="M169.9,530h-3.1v-0.3l1.1-0.1v-5c-0.1-0.4-0.6-0.6-1.1-0.6c-1.2,0-1.9,1.2-1.9,2.7v2.9l1.1,0.1v0.3h-3.1v-0.3l1-0.1v-5.3
		l-1-0.2v-0.3l2-0.3v1.6h0c0.4-1.1,1.2-1.7,2.2-1.7c1.2,0,1.9,0.8,1.9,2v4.1l1,0.1V530z"/>
	<path d="M46.8,546c-0.3,0.5-1,1.2-2.4,1.2c-1.7,0-3.1-1.4-3.1-3.4c0-2,1.5-3.3,3.1-3.3c0.7,0,1.2,0.1,1.8,0.4l0.2-0.4h0.3l-0.1,1.8
		h-0.3c-0.2-0.9-0.8-1.5-1.8-1.5c-1.2,0-2,1.1-2,2.8c0,1.7,0.9,2.9,2.1,2.9c1,0,1.5-0.4,1.9-0.9L46.8,546z"/>
	<path d="M52.2,540.9l-0.4,0.9c-0.2-0.1-0.9-0.5-1.1-0.5c-0.7,0-1.2,1-1.2,2.4v3l1.4,0.1v0.3h-3.4v-0.3l1-0.1v-5.3l-1-0.2v-0.3
		l2-0.3v1.6h0c0.3-1.2,1.1-1.7,1.8-1.7C51.6,540.5,52,540.7,52.2,540.9z"/>
	<path d="M58,543.3h-4.3c0,0.1,0,0.3,0,0.4c0,1.8,0.9,2.9,2.1,2.9c1,0,1.5-0.4,1.9-0.9l0.3,0.3c-0.3,0.5-1,1.2-2.4,1.2
		c-1.8,0-3.1-1.4-3.1-3.3c0-2,1.5-3.3,3-3.3s2.5,1,2.5,2.5V543.3z M56.9,542.9c0-1-0.3-2.1-1.4-2.1c-0.9,0-1.5,0.9-1.7,2.1H56.9z"/>
	<path d="M64.8,546.4c-0.2,0.3-0.7,0.7-1.3,0.7s-1-0.4-1.1-0.9c-0.4,0.5-1.2,0.9-1.8,0.9c-1,0-1.8-0.7-1.8-1.6c0-1.1,0.9-1.7,2-1.9
		l1.5-0.3v-1.1c0-0.8-0.3-1.2-1.2-1.2c-0.7,0-1.3,0.5-1.7,1.1l-0.3-0.3c0.5-0.8,1.3-1.4,2.2-1.4c1.4,0,2,0.6,2,1.7v3.4
		c0,0.8,0.3,1,0.6,1c0.2,0,0.5-0.1,0.6-0.3L64.8,546.4z M62.3,545.9v-2.2l-1,0.2c-0.8,0.2-1.4,0.6-1.4,1.4c0,0.7,0.5,1.2,1.1,1.2
		C61.5,546.5,62,546.3,62.3,545.9z"/>
	<path d="M68.9,546.2c-0.3,0.5-0.9,0.9-1.8,0.9c-0.8,0-1.5-0.5-1.5-1.7v-4.2h-1v-0.3l1-0.4l0.8-1.9h0.3v2.1h1.8v0.4h-1.8v4.1
		c0,0.9,0.4,1.2,1,1.2c0.5,0,0.8-0.3,1-0.5L68.9,546.2z"/>
	<path d="M74.7,543.3h-4.3c0,0.1,0,0.3,0,0.4c0,1.8,0.9,2.9,2.1,2.9c1,0,1.5-0.4,1.9-0.9l0.3,0.3c-0.3,0.5-1,1.2-2.4,1.2
		c-1.8,0-3.1-1.4-3.1-3.3c0-2,1.5-3.3,3-3.3s2.5,1,2.5,2.5V543.3z M73.5,542.9c0-1-0.3-2.1-1.4-2.1c-0.9,0-1.5,0.9-1.7,2.1H73.5z"/>
	<path d="M77.4,546.3c0,0.4-0.3,0.8-0.8,0.8s-0.8-0.3-0.8-0.8c0-0.4,0.3-0.8,0.8-0.8S77.4,545.9,77.4,546.3z"/>
	<path d="M88.5,547h-6.6v-0.3l1.2-0.1v-8.8l-1.2-0.1v-0.3h3.7v0.3l-1.3,0.1v8.7h3.6l0.2-1.8h0.4V547z"/>
	<path d="M94.8,543.3h-4.3c0,0.1,0,0.3,0,0.4c0,1.8,0.9,2.9,2.1,2.9c1,0,1.5-0.4,1.9-0.9l0.3,0.3c-0.3,0.5-1,1.2-2.4,1.2
		c-1.8,0-3.1-1.4-3.1-3.3c0-2,1.5-3.3,3-3.3s2.5,1,2.5,2.5V543.3z M93.6,542.9c0-1-0.3-2.1-1.4-2.1c-0.9,0-1.5,0.9-1.7,2.1H93.6z"/>
	<path d="M99.6,546.2c-0.3,0.5-0.9,0.9-1.8,0.9c-0.8,0-1.5-0.5-1.5-1.7v-4.2h-1v-0.3l1-0.4l0.8-1.9h0.3v2.1h1.8v0.4h-1.8v4.1
		c0,0.9,0.4,1.2,1,1.2c0.5,0,0.8-0.3,1-0.5L99.6,546.2z"/>
	<path d="M101.6,538c0,1-0.6,1.6-1.4,2l-0.3-0.4c0.7-0.3,1-0.8,1-1.4l-1.1-0.3c-0.1-0.1-0.1-0.3-0.1-0.4c0-0.4,0.3-0.6,0.7-0.6
		C101.2,536.8,101.6,537.4,101.6,538z"/>
	<path d="M105.6,545.2c0,1-0.8,1.9-2.1,1.9c-0.6,0-1.1-0.1-1.5-0.4l-0.1,0.4h-0.3l-0.1-2l0.3,0c0.2,1.1,0.8,1.6,1.7,1.6
		c0.7,0,1.2-0.5,1.2-1.2c0-0.8-0.7-1.1-1.4-1.4c-0.8-0.3-1.7-0.8-1.7-1.9c0-1,0.8-1.8,1.9-1.8c0.6,0,1,0.1,1.4,0.4l0.2-0.3h0.3
		l0,1.7H105c-0.1-0.9-0.6-1.4-1.5-1.4c-0.7,0-1.1,0.5-1.1,1c0,0.8,0.7,1.1,1.4,1.4C104.8,543.7,105.6,544.1,105.6,545.2z"/>
	<path d="M116.3,546.8l-2,0.3v-1.6h0c-0.4,1.1-1.2,1.7-2.2,1.7c-1.2,0-1.9-0.8-1.9-2v-4l-1-0.2v-0.3h2.1v5.3
		c0.1,0.4,0.5,0.6,1.1,0.6c1.2,0,1.9-1.2,1.9-2.7v-2.7l-1.1-0.2v-0.3h2.2v5.7l1,0.2V546.8z"/>
	<path d="M123.3,543.6c0,2.1-1.4,3.5-3.1,3.5c-0.7,0-1.1-0.2-1.5-0.4v3.7l1.4,0.1v0.3h-3.4v-0.3l1-0.1v-9.1l-1-0.2v-0.3l2-0.3v1h0
		c0.4-0.6,1.1-1.1,2-1.1C122,540.5,123.3,541.6,123.3,543.6z M122.1,543.7c0-1.6-0.6-2.7-1.8-2.7c-0.8,0-1.4,0.5-1.6,1.1v4
		c0.3,0.3,0.9,0.6,1.4,0.6C121.5,546.7,122.1,545.2,122.1,543.7z"/>
	<path d="M126.9,547h-3v-0.3l1-0.1v-9.4l-1-0.2v-0.3l2.1-0.3v10.2l1,0.1V547z"/>
	<path d="M133.7,543.8c0,2-1.4,3.3-3.1,3.3c-1.7,0-3.1-1.3-3.1-3.3c0-2,1.4-3.3,3.1-3.3C132.3,540.5,133.7,541.8,133.7,543.8z
		 M132.5,543.8c0-1.8-0.7-3-1.9-3s-1.9,1.1-1.9,3s0.7,3,1.9,3S132.5,545.7,132.5,543.8z"/>
	<path d="M140.4,546.4c-0.2,0.3-0.7,0.7-1.3,0.7s-1-0.4-1.1-0.9c-0.4,0.5-1.2,0.9-1.8,0.9c-1,0-1.8-0.7-1.8-1.6c0-1.1,0.9-1.7,2-1.9
		l1.5-0.3v-1.1c0-0.8-0.3-1.2-1.2-1.2c-0.7,0-1.3,0.5-1.7,1.1l-0.3-0.3c0.5-0.8,1.3-1.4,2.2-1.4c1.4,0,2,0.6,2,1.7v3.4
		c0,0.8,0.3,1,0.6,1c0.2,0,0.5-0.1,0.6-0.3L140.4,546.4z M138,545.9v-2.2l-1,0.2c-0.8,0.2-1.4,0.6-1.4,1.4c0,0.7,0.5,1.2,1.1,1.2
		C137.1,546.5,137.6,546.3,138,545.9z"/>
	<path d="M147.2,546.8l-2,0.3v-1l0,0c-0.4,0.6-0.9,1-1.9,1c-1.3,0-2.7-1.1-2.7-3.1c0-2.1,1.3-3.5,3-3.5c0.8,0,1.3,0.3,1.6,0.6v-4
		l-1-0.2v-0.3l2.1-0.3v10l1,0.2V546.8z M145.2,545.5v-3.7c-0.3-0.5-0.9-0.9-1.5-0.9c-1.4,0-1.9,1.5-1.9,3c0,1.6,0.7,2.7,1.9,2.7
		C144.5,546.6,145,546,145.2,545.5z"/>
	<path d="M156.7,546.4c-0.2,0.3-0.7,0.7-1.3,0.7s-1-0.4-1.1-0.9c-0.4,0.5-1.2,0.9-1.8,0.9c-1,0-1.8-0.7-1.8-1.6c0-1.1,0.9-1.7,2-1.9
		l1.5-0.3v-1.1c0-0.8-0.3-1.2-1.2-1.2c-0.7,0-1.3,0.5-1.7,1.1l-0.3-0.3c0.5-0.8,1.3-1.4,2.2-1.4c1.4,0,2,0.6,2,1.7v3.4
		c0,0.8,0.3,1,0.6,1c0.2,0,0.5-0.1,0.6-0.3L156.7,546.4z M154.3,545.9v-2.2l-1,0.2c-0.8,0.2-1.4,0.6-1.4,1.4c0,0.7,0.5,1.2,1.1,1.2
		C153.4,546.5,153.9,546.3,154.3,545.9z"/>
	<path d="M164,547h-3.1v-0.3l1.1-0.1v-5c-0.1-0.4-0.6-0.6-1.1-0.6c-1.2,0-1.9,1.2-1.9,2.7v2.9l1.1,0.1v0.3h-3.1v-0.3l1-0.1v-5.3
		l-1-0.2v-0.3l2-0.3v1.6h0c0.4-1.1,1.2-1.7,2.2-1.7c1.2,0,1.9,0.8,1.9,2v4.1l1,0.1V547z"/>
	<path d="M170.7,543.8c0,2-1.4,3.3-3.1,3.3c-1.7,0-3.1-1.3-3.1-3.3c0-2,1.4-3.3,3.1-3.3C169.3,540.5,170.7,541.8,170.7,543.8z
		 M169.5,543.8c0-1.8-0.7-3-1.9-3s-1.9,1.1-1.9,3s0.7,3,1.9,3S169.5,545.7,169.5,543.8z"/>
	<path d="M175.5,546.2c-0.3,0.5-0.9,0.9-1.8,0.9c-0.8,0-1.5-0.5-1.5-1.7v-4.2h-1v-0.3l1-0.4l0.8-1.9h0.3v2.1h1.8v0.4h-1.8v4.1
		c0,0.9,0.4,1.2,1,1.2c0.5,0,0.8-0.3,1-0.5L175.5,546.2z"/>
	<path d="M182.8,547h-3.1v-0.3l1.1-0.1v-5c-0.2-0.4-0.6-0.6-1.1-0.6c-1.2,0-1.9,1.2-1.9,2.7v2.9l1.1,0.1v0.3h-3.1v-0.3l1-0.1v-9.4
		l-1-0.2v-0.3l2.1-0.3v5.7c0.4-1,1.1-1.6,2.2-1.6c1.2,0,1.9,0.8,1.9,2v4.1l1,0.1V547z"/>
	<path d="M188.8,543.3h-4.3c0,0.1,0,0.3,0,0.4c0,1.8,0.9,2.9,2.1,2.9c1,0,1.5-0.4,1.9-0.9l0.3,0.3c-0.3,0.5-1,1.2-2.4,1.2
		c-1.8,0-3.1-1.4-3.1-3.3c0-2,1.5-3.3,3-3.3s2.5,1,2.5,2.5V543.3z M187.7,542.9c0-1-0.3-2.1-1.4-2.1c-0.9,0-1.5,0.9-1.7,2.1H187.7z"
		/>
	<path d="M194.3,540.9l-0.4,0.9c-0.2-0.1-0.9-0.5-1.1-0.5c-0.7,0-1.2,1-1.2,2.4v3l1.4,0.1v0.3h-3.4v-0.3l1-0.1v-5.3l-1-0.2v-0.3
		l2-0.3v1.6h0c0.3-1.2,1.1-1.7,1.8-1.7C193.7,540.5,194.1,540.7,194.3,540.9z"/>
	<path d="M52.2,564h-3.1v-0.3l1.1-0.1v-5c-0.2-0.4-0.4-0.6-1-0.6c-1,0-1.8,1.1-1.8,2.7v2.9l1.1,0.1v0.3h-3.2v-0.3l1.1-0.1v-5
		c-0.2-0.4-0.4-0.6-1-0.6c-1,0-1.8,1.1-1.8,2.7v2.9l1.1,0.1v0.3h-3.1v-0.3l1-0.1v-5.3l-1-0.2v-0.3l2-0.3v1.6h0
		c0.3-0.9,1.1-1.7,2.1-1.7c1,0,1.6,0.6,1.8,1.7h0c0.3-1,1.1-1.7,2.1-1.7c1.1,0,1.8,0.8,1.8,2v4.1l1,0.1V564z"/>
	<path d="M58.7,563.4c-0.2,0.3-0.7,0.7-1.3,0.7s-1-0.4-1.1-0.9c-0.4,0.5-1.2,0.9-1.8,0.9c-1,0-1.8-0.7-1.8-1.6c0-1.1,0.9-1.7,2-1.9
		l1.5-0.3v-1.1c0-0.8-0.3-1.2-1.2-1.2c-0.7,0-1.3,0.5-1.7,1.1l-0.3-0.3c0.5-0.8,1.3-1.4,2.2-1.4c1.4,0,2,0.6,2,1.7v3.4
		c0,0.8,0.3,1,0.6,1c0.2,0,0.5-0.1,0.6-0.3L58.7,563.4z M56.2,562.9v-2.2l-1,0.2c-0.8,0.2-1.4,0.6-1.4,1.4c0,0.7,0.5,1.2,1.1,1.2
		C55.4,563.5,55.9,563.3,56.2,562.9z"/>
	<path d="M64.9,558.3l-1.7-0.2l0,0c0.5,0.4,0.8,1,0.8,1.6c0,1.5-1.3,2.3-2.5,2.4c-1,0.1-1.4,0.5-1.4,0.9c0,0.2,0.1,0.3,0.2,0.4
		l2.8,0.3c0.8,0.1,1.7,0.6,1.7,1.6c0,1.6-1.4,2.6-3.5,2.6c-1.3,0-2.7-0.7-2.7-2c0-0.8,0.5-1.3,1.2-1.7c-0.3-0.2-0.5-0.5-0.5-0.9
		c0-0.5,0.4-1,1.3-1.3v0c-0.9-0.3-1.6-1.1-1.6-2.2c0-1.4,1.2-2.4,2.5-2.4c0.5,0,1,0.2,1.4,0.4l2-0.4V558.3z M63.9,565.8
		c0-0.6-0.4-1-1.1-1.1l-2.8-0.3c-0.4,0.2-0.6,0.8-0.6,1.3c0,0.9,0.7,1.9,2.3,1.9C62.6,567.6,63.9,567,63.9,565.8z M62.9,559.9
		c0-1.2-0.6-2-1.4-2s-1.4,0.8-1.4,2s0.6,2,1.4,2S62.9,561,62.9,559.9z"/>
	<path d="M71.2,563.4c-0.2,0.3-0.7,0.7-1.3,0.7s-1-0.4-1.1-0.9c-0.4,0.5-1.2,0.9-1.8,0.9c-1,0-1.8-0.7-1.8-1.6c0-1.1,0.9-1.7,2-1.9
		l1.5-0.3v-1.1c0-0.8-0.3-1.2-1.2-1.2c-0.7,0-1.3,0.5-1.7,1.1l-0.3-0.3c0.5-0.8,1.3-1.4,2.2-1.4c1.4,0,2,0.6,2,1.7v3.4
		c0,0.8,0.3,1,0.6,1c0.2,0,0.5-0.1,0.6-0.3L71.2,563.4z M68.7,562.9v-2.2l-1,0.2c-0.8,0.2-1.4,0.6-1.4,1.4c0,0.7,0.5,1.2,1.1,1.2
		C67.9,563.5,68.4,563.3,68.7,562.9z"/>
	<path d="M76.7,561.9l-0.1,2h-5.3l-0.1-0.2l4-5.6h-3.1l-0.2,1.3h-0.4v-1.7h5v0.2l-4,5.6h3.5l0.2-1.6H76.7z"/>
	<path d="M80.5,564h-3v-0.3l1-0.1v-5.3l-1-0.2v-0.3l2.1-0.3v6.1l1,0.1V564z M79.6,555.2c0,0.4-0.3,0.7-0.7,0.7s-0.7-0.3-0.7-0.7
		s0.3-0.7,0.7-0.7S79.6,554.9,79.6,555.2z"/>
	<path d="M88.2,564H85v-0.3l1.1-0.1v-5c-0.1-0.4-0.6-0.6-1.1-0.6c-1.2,0-1.9,1.2-1.9,2.7v2.9l1.1,0.1v0.3h-3.1v-0.3l1-0.1v-5.3
		l-1-0.2v-0.3l2-0.3v1.6h0c0.4-1.1,1.2-1.7,2.2-1.7c1.2,0,1.9,0.8,1.9,2v4.1l1,0.1V564z"/>
	<path d="M96,562.2c0,1-0.8,1.9-2.1,1.9c-0.6,0-1.1-0.1-1.5-0.4l-0.1,0.4H92l-0.1-2l0.3,0c0.2,1.1,0.8,1.6,1.7,1.6
		c0.7,0,1.2-0.5,1.2-1.2c0-0.8-0.7-1.1-1.4-1.4c-0.8-0.3-1.7-0.8-1.7-1.9c0-1,0.8-1.8,1.9-1.8c0.6,0,1,0.1,1.4,0.4l0.2-0.3h0.3
		l0,1.7h-0.3c-0.1-0.9-0.6-1.4-1.5-1.4c-0.7,0-1.1,0.5-1.1,1c0,0.8,0.7,1.1,1.4,1.4C95.2,560.7,96,561.1,96,562.2z"/>
	<path d="M103.1,560.8c0,2-1.4,3.3-3.1,3.3c-1.7,0-3.1-1.3-3.1-3.3c0-2,1.4-3.3,3.1-3.3C101.7,557.5,103.1,558.8,103.1,560.8z
		 M101.9,560.8c0-1.8-0.7-3-1.9-3s-1.9,1.1-1.9,3s0.7,3,1.9,3S101.9,562.7,101.9,560.8z"/>
	<path d="M113.2,560.6c0,2.1-1.4,3.5-3.1,3.5c-0.7,0-1.1-0.2-1.5-0.4v3.7l1.4,0.1v0.3h-3.4v-0.3l1-0.1v-9.1l-1-0.2v-0.3l2-0.3v1h0
		c0.4-0.6,1.1-1.1,2-1.1C112,557.5,113.2,558.6,113.2,560.6z M112.1,560.7c0-1.6-0.6-2.7-1.8-2.7c-0.8,0-1.4,0.5-1.6,1.1v4
		c0.3,0.3,0.9,0.6,1.4,0.6C111.5,563.7,112.1,562.2,112.1,560.7z"/>
	<path d="M119.5,560.3h-4.3c0,0.1,0,0.3,0,0.4c0,1.8,0.9,2.9,2.1,2.9c1,0,1.5-0.4,1.9-0.9l0.3,0.3c-0.3,0.5-1,1.2-2.4,1.2
		c-1.8,0-3.1-1.4-3.1-3.3c0-2,1.5-3.3,3-3.3s2.5,1,2.5,2.5V560.3z M118.3,559.9c0-1-0.3-2.1-1.4-2.1c-0.9,0-1.5,0.9-1.7,2.1H118.3z"
		/>
	<path d="M126.5,560.8c0,2-1.4,3.3-3.1,3.3c-1.7,0-3.1-1.3-3.1-3.3c0-2,1.4-3.3,3.1-3.3C125.1,557.5,126.5,558.8,126.5,560.8z
		 M125.3,560.8c0-1.8-0.7-3-1.9-3s-1.9,1.1-1.9,3s0.7,3,1.9,3S125.3,562.7,125.3,560.8z"/>
	<path d="M133.6,560.6c0,2.1-1.4,3.5-3.1,3.5c-0.7,0-1.1-0.2-1.5-0.4v3.7l1.4,0.1v0.3H127v-0.3l1-0.1v-9.1l-1-0.2v-0.3l2-0.3v1h0
		c0.4-0.6,1.1-1.1,2-1.1C132.4,557.5,133.6,558.6,133.6,560.6z M132.5,560.7c0-1.6-0.6-2.7-1.8-2.7c-0.8,0-1.4,0.5-1.6,1.1v4
		c0.3,0.3,0.9,0.6,1.4,0.6C131.9,563.7,132.5,562.2,132.5,560.7z"/>
	<path d="M137.3,564h-3v-0.3l1-0.1v-9.4l-1-0.2v-0.3l2.1-0.3v10.2l1,0.1V564z"/>
	<path d="M143.4,560.3h-4.3c0,0.1,0,0.3,0,0.4c0,1.8,0.9,2.9,2.1,2.9c1,0,1.5-0.4,1.9-0.9l0.3,0.3c-0.3,0.5-1,1.2-2.4,1.2
		c-1.8,0-3.1-1.4-3.1-3.3c0-2,1.5-3.3,3-3.3s2.5,1,2.5,2.5V560.3z M142.3,559.9c0-1-0.3-2.1-1.4-2.1c-0.9,0-1.5,0.9-1.7,2.1H142.3z"
		/>
	<path d="M152.7,563c-0.3,0.5-1,1.2-2.4,1.2c-1.7,0-3.1-1.4-3.1-3.4c0-2,1.5-3.3,3.1-3.3c0.7,0,1.2,0.1,1.8,0.4l0.2-0.4h0.3
		l-0.1,1.8h-0.3c-0.2-0.9-0.8-1.5-1.8-1.5c-1.2,0-2,1.1-2,2.8c0,1.7,0.9,2.9,2.1,2.9c1,0,1.5-0.4,1.9-0.9L152.7,563z"/>
	<path d="M159.3,563.4c-0.2,0.3-0.7,0.7-1.3,0.7s-1-0.4-1.1-0.9c-0.4,0.5-1.2,0.9-1.8,0.9c-1,0-1.8-0.7-1.8-1.6c0-1.1,0.9-1.7,2-1.9
		l1.5-0.3v-1.1c0-0.8-0.3-1.2-1.2-1.2c-0.7,0-1.3,0.5-1.7,1.1l-0.3-0.3c0.5-0.8,1.3-1.4,2.2-1.4c1.4,0,2,0.6,2,1.7v3.4
		c0,0.8,0.3,1,0.6,1c0.2,0,0.5-0.1,0.6-0.3L159.3,563.4z M156.9,562.9v-2.2l-1,0.2c-0.8,0.2-1.4,0.6-1.4,1.4c0,0.7,0.5,1.2,1.1,1.2
		C156.1,563.5,156.6,563.3,156.9,562.9z"/>
	<path d="M166.6,564h-3.1v-0.3l1.1-0.1v-5c-0.1-0.4-0.6-0.6-1.1-0.6c-1.2,0-1.9,1.2-1.9,2.7v2.9l1.1,0.1v0.3h-3.1v-0.3l1-0.1v-5.3
		l-1-0.2v-0.3l2-0.3v1.6h0c0.4-1.1,1.2-1.7,2.2-1.7c1.2,0,1.9,0.8,1.9,2v4.1l1,0.1V564z"/>
	<path d="M173,564h-3v-0.3l1-0.1v-9.4l-1-0.2v-0.3l2.1-0.3v10.2l1,0.1V564z"/>
	<path d="M179.2,560.3h-4.3c0,0.1,0,0.3,0,0.4c0,1.8,0.9,2.9,2.1,2.9c1,0,1.5-0.4,1.9-0.9l0.3,0.3c-0.3,0.5-1,1.2-2.4,1.2
		c-1.8,0-3.1-1.4-3.1-3.3c0-2,1.5-3.3,3-3.3s2.5,1,2.5,2.5V560.3z M178,559.9c0-1-0.3-2.1-1.4-2.1c-0.9,0-1.5,0.9-1.7,2.1H178z"/>
	<path d="M186,563.4c-0.2,0.3-0.7,0.7-1.3,0.7s-1-0.4-1.1-0.9c-0.4,0.5-1.2,0.9-1.8,0.9c-1,0-1.8-0.7-1.8-1.6c0-1.1,0.9-1.7,2-1.9
		l1.5-0.3v-1.1c0-0.8-0.3-1.2-1.2-1.2c-0.7,0-1.3,0.5-1.7,1.1l-0.3-0.3c0.5-0.8,1.3-1.4,2.2-1.4c1.4,0,2,0.6,2,1.7v3.4
		c0,0.8,0.3,1,0.6,1c0.2,0,0.5-0.1,0.6-0.3L186,563.4z M183.5,562.9v-2.2l-1,0.2c-0.8,0.2-1.4,0.6-1.4,1.4c0,0.7,0.5,1.2,1.1,1.2
		C182.7,563.5,183.2,563.3,183.5,562.9z"/>
	<path d="M190.8,557.9l-0.4,0.9c-0.2-0.1-0.9-0.5-1.1-0.5c-0.7,0-1.2,1-1.2,2.4v3l1.4,0.1v0.3h-3.4v-0.3l1-0.1v-5.3l-1-0.2v-0.3
		l2-0.3v1.6h0c0.3-1.2,1.1-1.7,1.8-1.7C190.2,557.5,190.6,557.7,190.8,557.9z"/>
	<path d="M198.4,564h-3.1v-0.3l1.1-0.1v-5c-0.1-0.4-0.6-0.6-1.1-0.6c-1.2,0-1.9,1.2-1.9,2.7v2.9l1.1,0.1v0.3h-3.1v-0.3l1-0.1v-5.3
		l-1-0.2v-0.3l2-0.3v1.6h0c0.4-1.1,1.2-1.7,2.2-1.7c1.2,0,1.9,0.8,1.9,2v4.1l1,0.1V564z"/>
	<path d="M52.2,581h-3.1v-0.3l1.1-0.1v-5c-0.2-0.4-0.4-0.6-1-0.6c-1,0-1.8,1.1-1.8,2.7v2.9l1.1,0.1v0.3h-3.2v-0.3l1.1-0.1v-5
		c-0.2-0.4-0.4-0.6-1-0.6c-1,0-1.8,1.1-1.8,2.7v2.9l1.1,0.1v0.3h-3.1v-0.3l1-0.1v-5.3l-1-0.2v-0.3l2-0.3v1.6h0
		c0.3-0.9,1.1-1.7,2.1-1.7c1,0,1.6,0.6,1.8,1.7h0c0.3-1,1.1-1.7,2.1-1.7c1.1,0,1.8,0.8,1.8,2v4.1l1,0.1V581z"/>
	<path d="M58.9,577.8c0,2-1.4,3.3-3.1,3.3c-1.7,0-3.1-1.3-3.1-3.3c0-2,1.4-3.3,3.1-3.3C57.5,574.5,58.9,575.8,58.9,577.8z
		 M57.7,577.8c0-1.8-0.7-3-1.9-3s-1.9,1.1-1.9,3s0.7,3,1.9,3S57.7,579.7,57.7,577.8z"/>
	<path d="M64.3,574.9l-0.4,0.9c-0.2-0.1-0.9-0.5-1.1-0.5c-0.7,0-1.2,1-1.2,2.4v3l1.4,0.1v0.3h-3.4v-0.3l1-0.1v-5.3l-1-0.2v-0.3
		l2-0.3v1.6h0c0.3-1.2,1.1-1.7,1.8-1.7C63.7,574.5,64.1,574.7,64.3,574.9z"/>
	<path d="M70.1,577.3h-4.3c0,0.1,0,0.3,0,0.4c0,1.8,0.9,2.9,2.1,2.9c1,0,1.5-0.4,1.9-0.9L70,580c-0.3,0.5-1,1.2-2.4,1.2
		c-1.8,0-3.1-1.4-3.1-3.3c0-2,1.5-3.3,3-3.3s2.5,1,2.5,2.5V577.3z M68.9,576.9c0-1-0.3-2.1-1.4-2.1c-0.9,0-1.5,0.9-1.7,2.1H68.9z"/>
	<path d="M79.9,580.4c-0.2,0.3-0.7,0.7-1.3,0.7s-1-0.4-1.1-0.9c-0.4,0.5-1.2,0.9-1.8,0.9c-1,0-1.8-0.7-1.8-1.6c0-1.1,0.9-1.7,2-1.9
		l1.5-0.3v-1.1c0-0.8-0.3-1.2-1.2-1.2c-0.7,0-1.3,0.5-1.7,1.1l-0.3-0.3c0.5-0.8,1.3-1.4,2.2-1.4c1.4,0,2,0.6,2,1.7v3.4
		c0,0.8,0.3,1,0.6,1c0.2,0,0.5-0.1,0.6-0.3L79.9,580.4z M77.4,579.9v-2.2l-1,0.2c-0.8,0.2-1.4,0.6-1.4,1.4c0,0.7,0.5,1.2,1.1,1.2
		C76.6,580.5,77.1,580.3,77.4,579.9z"/>
	<path d="M86.3,577.6c0,2.1-1.2,3.5-3.4,3.5c-0.9,0-1.7-0.2-2.2-0.5v-9.5l-1-0.2v-0.3l2.1-0.3v5.1c0.4-0.6,1.1-1,2-1
		C85,574.5,86.3,575.6,86.3,577.6z M85.2,577.7c0-1.6-0.6-2.7-1.8-2.7c-0.8,0-1.3,0.4-1.7,1.1v4.2c0.2,0.2,0.8,0.4,1.4,0.4
		C84.4,580.7,85.2,579.4,85.2,577.7z"/>
	<path d="M93.2,577.8c0,2-1.4,3.3-3.1,3.3c-1.7,0-3.1-1.3-3.1-3.3c0-2,1.4-3.3,3.1-3.3C91.9,574.5,93.2,575.8,93.2,577.8z M92,577.8
		c0-1.8-0.7-3-1.9-3s-1.9,1.1-1.9,3s0.7,3,1.9,3S92,579.7,92,577.8z"/>
	<path d="M100.7,580.8l-2,0.3v-1.6h0c-0.4,1.1-1.2,1.7-2.2,1.7c-1.2,0-1.9-0.8-1.9-2v-4l-1-0.2v-0.3h2.1v5.3
		c0.1,0.4,0.5,0.6,1.1,0.6c1.2,0,1.9-1.2,1.9-2.7v-2.7l-1.1-0.2v-0.3h2.2v5.7l1,0.2V580.8z"/>
	<path d="M105.3,580.2c-0.3,0.5-0.9,0.9-1.8,0.9c-0.8,0-1.5-0.5-1.5-1.7v-4.2h-1v-0.3l1-0.4l0.8-1.9h0.3v2.1h1.8v0.4h-1.8v4.1
		c0,0.9,0.4,1.2,1,1.2c0.5,0,0.8-0.3,1-0.5L105.3,580.2z"/>
	<path d="M112.8,580.2c-0.3,0.5-0.9,0.9-1.8,0.9c-0.8,0-1.5-0.5-1.5-1.7v-4.2h-1v-0.3l1-0.4l0.8-1.9h0.3v2.1h1.8v0.4h-1.8v4.1
		c0,0.9,0.4,1.2,1,1.2c0.5,0,0.8-0.3,1-0.5L112.8,580.2z"/>
	<path d="M119.2,575l-0.7,0.2l-2.4,5.9l-1.3,3.8h-1l1.9-3.9l-2.3-5.8l-0.7-0.1v-0.3h2.9v0.3l-1,0.1l1.7,4.6l1.7-4.5l-1-0.1v-0.3h2.3
		V575z"/>
	<path d="M126,577.6c0,2.1-1.4,3.5-3.1,3.5c-0.7,0-1.1-0.2-1.5-0.4v3.7l1.4,0.1v0.3h-3.4v-0.3l1-0.1v-9.1l-1-0.2v-0.3l2-0.3v1h0
		c0.4-0.6,1.1-1.1,2-1.1C124.8,574.5,126,575.6,126,577.6z M124.9,577.7c0-1.6-0.6-2.7-1.8-2.7c-0.8,0-1.4,0.5-1.6,1.1v4
		c0.3,0.3,0.9,0.6,1.4,0.6C124.3,580.7,124.9,579.2,124.9,577.7z"/>
	<path d="M132.9,577.8c0,2-1.4,3.3-3.1,3.3c-1.7,0-3.1-1.3-3.1-3.3c0-2,1.4-3.3,3.1-3.3C131.6,574.5,132.9,575.8,132.9,577.8z
		 M131.7,577.8c0-1.8-0.7-3-1.9-3s-1.9,1.1-1.9,3s0.7,3,1.9,3S131.7,579.7,131.7,577.8z"/>
	<path d="M139.7,575.3l-1.7-0.2l0,0c0.5,0.4,0.8,1,0.8,1.6c0,1.5-1.3,2.3-2.5,2.4c-1,0.1-1.4,0.5-1.4,0.9c0,0.2,0.1,0.3,0.2,0.4
		l2.8,0.3c0.8,0.1,1.7,0.6,1.7,1.6c0,1.6-1.4,2.6-3.5,2.6c-1.3,0-2.7-0.7-2.7-2c0-0.8,0.5-1.3,1.2-1.7c-0.3-0.2-0.5-0.5-0.5-0.9
		c0-0.5,0.4-1,1.3-1.3v0c-0.9-0.3-1.6-1.1-1.6-2.2c0-1.4,1.2-2.4,2.5-2.4c0.5,0,1,0.2,1.4,0.4l2-0.4V575.3z M138.7,582.8
		c0-0.6-0.4-1-1.1-1.1l-2.8-0.3c-0.4,0.2-0.6,0.8-0.6,1.3c0,0.9,0.7,1.9,2.3,1.9C137.4,584.6,138.7,584,138.7,582.8z M137.7,576.9
		c0-1.2-0.6-2-1.4-2s-1.4,0.8-1.4,2s0.6,2,1.4,2S137.7,578,137.7,576.9z"/>
	<path d="M144.8,574.9l-0.4,0.9c-0.2-0.1-0.9-0.5-1.1-0.5c-0.7,0-1.2,1-1.2,2.4v3l1.4,0.1v0.3h-3.4v-0.3l1-0.1v-5.3l-1-0.2v-0.3
		l2-0.3v1.6h0c0.3-1.2,1.1-1.7,1.8-1.7C144.2,574.5,144.6,574.7,144.8,574.9z"/>
	<path d="M151.1,580.4c-0.2,0.3-0.7,0.7-1.3,0.7s-1-0.4-1.1-0.9c-0.4,0.5-1.2,0.9-1.8,0.9c-1,0-1.8-0.7-1.8-1.6c0-1.1,0.9-1.7,2-1.9
		l1.5-0.3v-1.1c0-0.8-0.3-1.2-1.2-1.2c-0.7,0-1.3,0.5-1.7,1.1l-0.3-0.3c0.5-0.8,1.3-1.4,2.2-1.4c1.4,0,2,0.6,2,1.7v3.4
		c0,0.8,0.3,1,0.6,1c0.2,0,0.5-0.1,0.6-0.3L151.1,580.4z M148.6,579.9v-2.2l-1,0.2c-0.8,0.2-1.4,0.6-1.4,1.4c0,0.7,0.5,1.2,1.1,1.2
		C147.8,580.5,148.3,580.3,148.6,579.9z"/>
	<path d="M157.7,577.6c0,2.1-1.4,3.5-3.1,3.5c-0.7,0-1.1-0.2-1.5-0.4v3.7l1.4,0.1v0.3h-3.4v-0.3l1-0.1v-9.1l-1-0.2v-0.3l2-0.3v1h0
		c0.4-0.6,1.1-1.1,2-1.1C156.4,574.5,157.7,575.6,157.7,577.6z M156.6,577.7c0-1.6-0.6-2.7-1.8-2.7c-0.8,0-1.4,0.5-1.6,1.1v4
		c0.3,0.3,0.9,0.6,1.4,0.6C155.9,580.7,156.6,579.2,156.6,577.7z"/>
	<path d="M165.4,581h-3.1v-0.3l1.1-0.1v-5c-0.2-0.4-0.6-0.6-1.1-0.6c-1.2,0-1.9,1.2-1.9,2.7v2.9l1.1,0.1v0.3h-3.1v-0.3l1-0.1v-9.4
		l-1-0.2v-0.3l2.1-0.3v5.7c0.4-1,1.1-1.6,2.2-1.6c1.2,0,1.9,0.8,1.9,2v4.1l1,0.1V581z"/>
	<path d="M171.7,575l-0.7,0.2l-2.4,5.9l-1.3,3.8h-1l1.9-3.9l-2.3-5.8l-0.7-0.1v-0.3h2.9v0.3l-1,0.1l1.7,4.6l1.7-4.5l-1-0.1v-0.3h2.3
		V575z"/>
	<path d="M181.1,580.4c-0.2,0.3-0.7,0.7-1.3,0.7s-1-0.4-1.1-0.9c-0.4,0.5-1.2,0.9-1.8,0.9c-1,0-1.8-0.7-1.8-1.6c0-1.1,0.9-1.7,2-1.9
		l1.5-0.3v-1.1c0-0.8-0.3-1.2-1.2-1.2c-0.7,0-1.3,0.5-1.7,1.1l-0.3-0.3c0.5-0.8,1.3-1.4,2.2-1.4c1.4,0,2,0.6,2,1.7v3.4
		c0,0.8,0.3,1,0.6,1c0.2,0,0.5-0.1,0.6-0.3L181.1,580.4z M178.6,579.9v-2.2l-1,0.2c-0.8,0.2-1.4,0.6-1.4,1.4c0,0.7,0.5,1.2,1.1,1.2
		C177.8,580.5,178.3,580.3,178.6,579.9z"/>
	<path d="M188.3,581h-3.1v-0.3l1.1-0.1v-5c-0.1-0.4-0.6-0.6-1.1-0.6c-1.2,0-1.9,1.2-1.9,2.7v2.9l1.1,0.1v0.3h-3.1v-0.3l1-0.1v-5.3
		l-1-0.2v-0.3l2-0.3v1.6h0c0.4-1.1,1.2-1.7,2.2-1.7c1.2,0,1.9,0.8,1.9,2v4.1l1,0.1V581z"/>
	<path d="M195.5,580.8l-2,0.3v-1l0,0c-0.4,0.6-0.9,1-1.9,1c-1.3,0-2.7-1.1-2.7-3.1c0-2.1,1.3-3.5,3-3.5c0.8,0,1.3,0.3,1.6,0.6v-4
		l-1-0.2v-0.3l2.1-0.3v10l1,0.2V580.8z M193.4,579.5v-3.7c-0.3-0.5-0.9-0.9-1.5-0.9c-1.4,0-1.9,1.5-1.9,3c0,1.6,0.7,2.7,1.9,2.7
		C192.8,580.6,193.2,580,193.4,579.5z"/>
	<path d="M48,597.8l-2,0.3v-1l0,0c-0.4,0.6-0.9,1-1.9,1c-1.3,0-2.7-1.1-2.7-3.1c0-2.1,1.3-3.5,3-3.5c0.8,0,1.3,0.3,1.6,0.6v-4
		l-1-0.2v-0.3l2.1-0.3v10l1,0.2V597.8z M45.9,596.5v-3.7c-0.3-0.5-0.9-0.9-1.5-0.9c-1.4,0-1.9,1.5-1.9,3c0,1.6,0.7,2.7,1.9,2.7
		C45.3,597.6,45.7,597,45.9,596.5z"/>
	<path d="M54,594.3h-4.3c0,0.1,0,0.3,0,0.4c0,1.8,0.9,2.9,2.1,2.9c1,0,1.5-0.4,1.9-0.9L54,597c-0.3,0.5-1,1.2-2.4,1.2
		c-1.8,0-3.1-1.4-3.1-3.3c0-2,1.5-3.3,3-3.3s2.5,1,2.5,2.5V594.3z M52.9,593.9c0-1-0.3-2.1-1.4-2.1c-0.9,0-1.5,0.9-1.7,2.1H52.9z"/>
	<path d="M59.2,596.2c0,1-0.8,1.9-2.1,1.9c-0.6,0-1.1-0.1-1.5-0.4l-0.1,0.4h-0.3l-0.1-2l0.3,0c0.2,1.1,0.8,1.6,1.7,1.6
		c0.7,0,1.2-0.5,1.2-1.2c0-0.8-0.7-1.1-1.4-1.4c-0.8-0.3-1.7-0.8-1.7-1.9c0-1,0.8-1.8,1.9-1.8c0.6,0,1,0.1,1.4,0.4l0.2-0.3h0.3
		l0,1.7h-0.3c-0.1-0.9-0.6-1.4-1.5-1.4c-0.7,0-1.1,0.5-1.1,1c0,0.8,0.7,1.1,1.4,1.4C58.3,594.7,59.2,595.1,59.2,596.2z"/>
	<path d="M63.1,598h-3v-0.3l1-0.1v-5.3l-1-0.2v-0.3l2.1-0.3v6.1l1,0.1V598z M62.1,589.2c0,0.4-0.3,0.7-0.7,0.7s-0.7-0.3-0.7-0.7
		s0.3-0.7,0.7-0.7S62.1,588.9,62.1,589.2z"/>
	<path d="M69.7,592.3l-1.7-0.2l0,0c0.5,0.4,0.8,1,0.8,1.6c0,1.5-1.3,2.3-2.5,2.4c-1,0.1-1.4,0.5-1.4,0.9c0,0.2,0.1,0.3,0.2,0.4
		l2.8,0.3c0.8,0.1,1.7,0.6,1.7,1.6c0,1.6-1.4,2.6-3.5,2.6c-1.3,0-2.7-0.7-2.7-2c0-0.8,0.5-1.3,1.2-1.7c-0.3-0.2-0.5-0.5-0.5-0.9
		c0-0.5,0.4-1,1.3-1.3v0c-0.9-0.3-1.6-1.1-1.6-2.2c0-1.4,1.2-2.4,2.5-2.4c0.5,0,1,0.2,1.4,0.4l2-0.4V592.3z M68.7,599.8
		c0-0.6-0.4-1-1.1-1.1l-2.8-0.3c-0.4,0.2-0.6,0.8-0.6,1.3c0,0.9,0.7,1.9,2.3,1.9C67.4,601.6,68.7,601,68.7,599.8z M67.7,593.9
		c0-1.2-0.6-2-1.4-2s-1.4,0.8-1.4,2s0.6,2,1.4,2S67.7,595,67.7,593.9z"/>
	<path d="M77.2,598h-3.1v-0.3l1.1-0.1v-5c-0.1-0.4-0.6-0.6-1.1-0.6c-1.2,0-1.9,1.2-1.9,2.7v2.9l1.1,0.1v0.3h-3.1v-0.3l1-0.1v-5.3
		l-1-0.2v-0.3l2-0.3v1.6h0c0.4-1.1,1.2-1.7,2.2-1.7c1.2,0,1.9,0.8,1.9,2v4.1l1,0.1V598z"/>
	<path d="M79.8,597.3c0,0.4-0.3,0.8-0.8,0.8s-0.8-0.3-0.8-0.8c0-0.4,0.3-0.8,0.8-0.8S79.8,596.9,79.8,597.3z"/>
	<path d="M87.8,598h-3.5v-0.3l1.2-0.1v-8.8l-1.2-0.1v-0.3h3.5v0.3l-1.2,0.1v8.8l1.2,0.1V598z"/>
	<path d="M92.6,597.2c-0.3,0.5-0.9,0.9-1.8,0.9c-0.8,0-1.5-0.5-1.5-1.7v-4.2h-1v-0.3l1-0.4l0.8-1.9h0.3v2.1h1.8v0.4h-1.8v4.1
		c0,0.9,0.4,1.2,1,1.2c0.5,0,0.8-0.3,1-0.5L92.6,597.2z"/>
	<path d="M94.6,589c0,1-0.6,1.6-1.4,2l-0.3-0.4c0.7-0.3,1-0.8,1-1.4l-1.1-0.3c-0.1-0.1-0.1-0.3-0.1-0.4c0-0.4,0.3-0.6,0.7-0.6
		C94.1,587.8,94.6,588.4,94.6,589z"/>
	<path d="M98.6,596.2c0,1-0.8,1.9-2.1,1.9c-0.6,0-1.1-0.1-1.5-0.4l-0.1,0.4h-0.3l-0.1-2l0.3,0c0.2,1.1,0.8,1.6,1.7,1.6
		c0.7,0,1.2-0.5,1.2-1.2c0-0.8-0.7-1.1-1.4-1.4c-0.8-0.3-1.7-0.8-1.7-1.9c0-1,0.8-1.8,1.9-1.8c0.6,0,1,0.1,1.4,0.4l0.2-0.3h0.3
		l0,1.7h-0.3c-0.1-0.9-0.6-1.4-1.5-1.4c-0.7,0-1.1,0.5-1.1,1c0,0.8,0.7,1.1,1.4,1.4C97.7,594.7,98.6,595.1,98.6,596.2z"/>
	<path d="M108.4,597.4c-0.2,0.3-0.7,0.7-1.3,0.7s-1-0.4-1.1-0.9c-0.4,0.5-1.2,0.9-1.8,0.9c-1,0-1.8-0.7-1.8-1.6c0-1.1,0.9-1.7,2-1.9
		l1.5-0.3v-1.1c0-0.8-0.3-1.2-1.2-1.2c-0.7,0-1.3,0.5-1.7,1.1l-0.3-0.3c0.5-0.8,1.3-1.4,2.2-1.4c1.4,0,2,0.6,2,1.7v3.4
		c0,0.8,0.3,1,0.6,1c0.2,0,0.5-0.1,0.6-0.3L108.4,597.4z M106,596.9v-2.2l-1,0.2c-0.8,0.2-1.4,0.6-1.4,1.4c0,0.7,0.5,1.2,1.1,1.2
		C105.1,597.5,105.6,597.3,106,596.9z"/>
	<path d="M114.9,594.6c0,2.1-1.2,3.5-3.4,3.5c-0.9,0-1.7-0.2-2.2-0.5v-9.5l-1-0.2v-0.3l2.1-0.3v5.1c0.4-0.6,1.1-1,2-1
		C113.6,591.5,114.9,592.6,114.9,594.6z M113.7,594.7c0-1.6-0.6-2.7-1.8-2.7c-0.8,0-1.3,0.4-1.7,1.1v4.2c0.2,0.2,0.8,0.4,1.4,0.4
		C112.9,597.7,113.7,596.4,113.7,594.7z"/>
	<path d="M121.8,594.8c0,2-1.4,3.3-3.1,3.3c-1.7,0-3.1-1.3-3.1-3.3c0-2,1.4-3.3,3.1-3.3C120.4,591.5,121.8,592.8,121.8,594.8z
		 M120.6,594.8c0-1.8-0.7-3-1.9-3s-1.9,1.1-1.9,3s0.7,3,1.9,3S120.6,596.7,120.6,594.8z"/>
	<path d="M129.3,597.8l-2,0.3v-1.6h0c-0.4,1.1-1.2,1.7-2.2,1.7c-1.2,0-1.9-0.8-1.9-2v-4l-1-0.2v-0.3h2.1v5.3
		c0.1,0.4,0.5,0.6,1.1,0.6c1.2,0,1.9-1.2,1.9-2.7v-2.7l-1.1-0.2v-0.3h2.2v5.7l1,0.2V597.8z"/>
	<path d="M133.9,597.2c-0.3,0.5-0.9,0.9-1.8,0.9c-0.8,0-1.5-0.5-1.5-1.7v-4.2h-1v-0.3l1-0.4l0.8-1.9h0.3v2.1h1.8v0.4h-1.8v4.1
		c0,0.9,0.4,1.2,1,1.2c0.5,0,0.8-0.3,1-0.5L133.9,597.2z"/>
	<path d="M141.3,597.2c-0.3,0.5-0.9,0.9-1.8,0.9c-0.8,0-1.5-0.5-1.5-1.7v-4.2h-1v-0.3l1-0.4l0.8-1.9h0.3v2.1h1.8v0.4h-1.8v4.1
		c0,0.9,0.4,1.2,1,1.2c0.5,0,0.8-0.3,1-0.5L141.3,597.2z"/>
	<path d="M144.8,598h-3v-0.3l1-0.1v-5.3l-1-0.2v-0.3l2.1-0.3v6.1l1,0.1V598z M143.8,589.2c0,0.4-0.3,0.7-0.7,0.7s-0.7-0.3-0.7-0.7
		s0.3-0.7,0.7-0.7S143.8,588.9,143.8,589.2z"/>
	<path d="M156.2,598h-3.1v-0.3l1.1-0.1v-5c-0.2-0.4-0.4-0.6-1-0.6c-1,0-1.8,1.1-1.8,2.7v2.9l1.1,0.1v0.3h-3.2v-0.3l1.1-0.1v-5
		c-0.2-0.4-0.4-0.6-1-0.6c-1,0-1.8,1.1-1.8,2.7v2.9l1.1,0.1v0.3h-3.1v-0.3l1-0.1v-5.3l-1-0.2v-0.3l2-0.3v1.6h0
		c0.3-0.9,1.1-1.7,2.1-1.7c1,0,1.6,0.6,1.8,1.7h0c0.3-1,1.1-1.7,2.1-1.7c1.1,0,1.8,0.8,1.8,2v4.1l1,0.1V598z"/>
	<path d="M162.2,594.3h-4.3c0,0.1,0,0.3,0,0.4c0,1.8,0.9,2.9,2.1,2.9c1,0,1.5-0.4,1.9-0.9l0.3,0.3c-0.3,0.5-1,1.2-2.4,1.2
		c-1.8,0-3.1-1.4-3.1-3.3c0-2,1.5-3.3,3-3.3s2.5,1,2.5,2.5V594.3z M161.1,593.9c0-1-0.3-2.1-1.4-2.1c-0.9,0-1.5,0.9-1.7,2.1H161.1z"
		/>
	<path d="M170.1,597.2c-0.3,0.5-0.9,0.9-1.8,0.9c-0.8,0-1.5-0.5-1.5-1.7v-4.2h-1v-0.3l1-0.4l0.8-1.9h0.3v2.1h1.8v0.4h-1.8v4.1
		c0,0.9,0.4,1.2,1,1.2c0.5,0,0.8-0.3,1-0.5L170.1,597.2z"/>
	<path d="M176.5,594.8c0,2-1.4,3.3-3.1,3.3c-1.7,0-3.1-1.3-3.1-3.3c0-2,1.4-3.3,3.1-3.3C175.2,591.5,176.5,592.8,176.5,594.8z
		 M175.3,594.8c0-1.8-0.7-3-1.9-3s-1.9,1.1-1.9,3s0.7,3,1.9,3S175.3,596.7,175.3,594.8z"/>
	<path d="M186.3,592.3l-1.7-0.2l0,0c0.5,0.4,0.8,1,0.8,1.6c0,1.5-1.3,2.3-2.5,2.4c-1,0.1-1.4,0.5-1.4,0.9c0,0.2,0.1,0.3,0.2,0.4
		l2.8,0.3c0.8,0.1,1.7,0.6,1.7,1.6c0,1.6-1.4,2.6-3.5,2.6c-1.3,0-2.7-0.7-2.7-2c0-0.8,0.5-1.3,1.2-1.7c-0.3-0.2-0.5-0.5-0.5-0.9
		c0-0.5,0.4-1,1.3-1.3v0c-0.9-0.3-1.6-1.1-1.6-2.2c0-1.4,1.2-2.4,2.5-2.4c0.5,0,1,0.2,1.4,0.4l2-0.4V592.3z M185.3,599.8
		c0-0.6-0.4-1-1.1-1.1l-2.8-0.3c-0.4,0.2-0.6,0.8-0.6,1.3c0,0.9,0.7,1.9,2.3,1.9C184,601.6,185.3,601,185.3,599.8z M184.3,593.9
		c0-1.2-0.6-2-1.4-2s-1.4,0.8-1.4,2s0.6,2,1.4,2S184.3,595,184.3,593.9z"/>
	<path d="M192.1,594.3h-4.3c0,0.1,0,0.3,0,0.4c0,1.8,0.9,2.9,2.1,2.9c1,0,1.5-0.4,1.9-0.9l0.3,0.3c-0.3,0.5-1,1.2-2.4,1.2
		c-1.8,0-3.1-1.4-3.1-3.3c0-2,1.5-3.3,3-3.3s2.5,1,2.5,2.5V594.3z M191,593.9c0-1-0.3-2.1-1.4-2.1c-0.9,0-1.5,0.9-1.7,2.1H191z"/>
	<path d="M197,597.2c-0.3,0.5-0.9,0.9-1.8,0.9c-0.8,0-1.5-0.5-1.5-1.7v-4.2h-1v-0.3l1-0.4l0.8-1.9h0.3v2.1h1.8v0.4h-1.8v4.1
		c0,0.9,0.4,1.2,1,1.2c0.5,0,0.8-0.3,1-0.5L197,597.2z"/>
</g>
<g>
	<path d="M227.4,512.4c-0.2,0.3-0.7,0.7-1.3,0.7s-1-0.4-1.1-0.9c-0.5,0.5-1.2,0.9-1.8,0.9c-1,0-1.8-0.7-1.8-1.7c0-1.1,0.9-1.7,2-1.9
		l1.5-0.3v-1.1c0-0.8-0.3-1.2-1.2-1.2c-0.7,0-1.3,0.5-1.7,1.1l-0.3-0.3c0.5-0.8,1.3-1.4,2.2-1.4c1.4,0,2,0.6,2,1.7v3.4
		c0,0.8,0.3,1,0.6,1c0.2,0,0.5-0.1,0.6-0.3L227.4,512.4z M224.9,511.9v-2.2l-1,0.2c-0.8,0.1-1.4,0.6-1.4,1.4c0,0.7,0.5,1.2,1.1,1.2
		C224.1,512.5,224.6,512.3,224.9,511.9z"/>
	<path d="M234.6,513h-3.1v-0.3l1.1-0.1v-5c-0.2-0.4-0.6-0.6-1.1-0.6c-1.2,0-1.9,1.2-1.9,2.7v2.9l1.1,0.1v0.3h-3.1v-0.3l1-0.1v-5.3
		l-1-0.2v-0.3l2-0.3v1.6h0c0.4-1.1,1.2-1.7,2.2-1.7c1.2,0,1.9,0.8,1.9,2v4.1l1,0.1V513z"/>
	<path d="M241.3,509.8c0,2-1.4,3.3-3.1,3.3c-1.7,0-3.1-1.4-3.1-3.3c0-2,1.4-3.3,3.1-3.3C240,506.5,241.3,507.8,241.3,509.8z
		 M240.1,509.8c0-1.8-0.7-3-1.9-3s-1.9,1.1-1.9,3s0.7,3,1.9,3S240.1,511.7,240.1,509.8z"/>
	<path d="M246.1,512.2c-0.3,0.5-0.9,0.9-1.8,0.9c-0.8,0-1.5-0.5-1.5-1.7v-4.2h-1v-0.3l1-0.4l0.8-1.9h0.3v2.1h1.8v0.4h-1.8v4.1
		c0,0.9,0.4,1.2,1,1.2c0.5,0,0.8-0.3,1-0.5L246.1,512.2z"/>
	<path d="M253.5,513h-3.1v-0.3l1.1-0.1v-5c-0.2-0.4-0.6-0.6-1.1-0.6c-1.2,0-1.9,1.2-1.9,2.7v2.9l1.1,0.1v0.3h-3.1v-0.3l1-0.1v-9.4
		l-1-0.2v-0.3l2.1-0.3v5.7c0.4-1,1.1-1.6,2.2-1.6c1.2,0,1.9,0.8,1.9,2v4.1l1,0.1V513z"/>
	<path d="M259.5,509.3h-4.3c0,0.1,0,0.3,0,0.4c0,1.8,0.9,2.9,2.1,2.9c1,0,1.5-0.4,1.9-0.9l0.3,0.3c-0.3,0.5-1,1.2-2.4,1.2
		c-1.8,0-3.1-1.4-3.1-3.3c0-2,1.5-3.3,3-3.3s2.5,1,2.5,2.5V509.3z M258.3,508.9c0-1-0.3-2.1-1.4-2.1c-0.9,0-1.5,0.9-1.7,2.1H258.3z"
		/>
	<path d="M264.9,506.9l-0.4,0.9c-0.2-0.1-0.9-0.5-1.1-0.5c-0.7,0-1.2,1-1.2,2.4v3l1.4,0.1v0.3h-3.4v-0.3l1-0.1v-5.3l-1-0.2v-0.3
		l2-0.3v1.6h0c0.3-1.2,1.1-1.7,1.8-1.7C264.3,506.5,264.7,506.7,264.9,506.9z"/>
	<path d="M279.2,513h-3.1v-0.3l1.1-0.1v-5c-0.2-0.4-0.4-0.6-1-0.6c-1,0-1.8,1.1-1.8,2.7v2.9l1.1,0.1v0.3h-3.2v-0.3l1.1-0.1v-5
		c-0.2-0.4-0.4-0.6-1-0.6c-1,0-1.8,1.1-1.8,2.7v2.9l1.1,0.1v0.3h-3.1v-0.3l1-0.1v-5.3l-1-0.2v-0.3l2-0.3v1.6h0
		c0.3-0.9,1.1-1.7,2.1-1.7c1,0,1.7,0.6,1.8,1.7h0c0.3-1,1.1-1.7,2.1-1.7c1.1,0,1.8,0.8,1.8,2v4.1l1,0.1V513z"/>
	<path d="M285.7,512.4c-0.2,0.3-0.7,0.7-1.3,0.7s-1-0.4-1.1-0.9c-0.4,0.5-1.2,0.9-1.8,0.9c-1,0-1.8-0.7-1.8-1.7c0-1.1,0.9-1.7,2-1.9
		l1.5-0.3v-1.1c0-0.8-0.3-1.2-1.2-1.2c-0.7,0-1.3,0.5-1.7,1.1l-0.3-0.3c0.5-0.8,1.3-1.4,2.2-1.4c1.3,0,2,0.6,2,1.7v3.4
		c0,0.8,0.3,1,0.6,1c0.2,0,0.5-0.1,0.6-0.3L285.7,512.4z M283.3,511.9v-2.2l-1,0.2c-0.8,0.1-1.4,0.6-1.4,1.4c0,0.7,0.5,1.2,1.1,1.2
		C282.4,512.5,282.9,512.3,283.3,511.9z"/>
	<path d="M292,507.3l-1.7-0.1l0,0c0.5,0.4,0.8,1,0.8,1.7c0,1.5-1.3,2.3-2.5,2.4c-1,0.1-1.4,0.4-1.4,0.9c0,0.2,0.1,0.3,0.2,0.4
		l2.8,0.3c0.8,0.1,1.7,0.6,1.7,1.6c0,1.6-1.4,2.6-3.5,2.6c-1.3,0-2.7-0.7-2.7-2c0-0.8,0.5-1.3,1.2-1.7c-0.3-0.2-0.5-0.5-0.5-0.9
		c0-0.5,0.4-1,1.3-1.3v0c-0.9-0.3-1.6-1.1-1.6-2.2c0-1.4,1.2-2.4,2.5-2.4c0.5,0,1,0.2,1.4,0.4l2-0.4V507.3z M291,514.8
		c0-0.6-0.4-1-1.1-1.1l-2.8-0.3c-0.4,0.2-0.6,0.8-0.6,1.3c0,0.9,0.7,1.9,2.3,1.9C289.6,516.6,291,516,291,514.8z M289.9,508.9
		c0-1.2-0.6-2-1.4-2c-0.9,0-1.4,0.8-1.4,2s0.6,2,1.4,2C289.4,510.9,289.9,510,289.9,508.9z"/>
	<path d="M298.2,512.4c-0.2,0.3-0.7,0.7-1.3,0.7s-1-0.4-1.1-0.9c-0.5,0.5-1.2,0.9-1.8,0.9c-1,0-1.8-0.7-1.8-1.7c0-1.1,0.9-1.7,2-1.9
		l1.5-0.3v-1.1c0-0.8-0.3-1.2-1.2-1.2c-0.7,0-1.3,0.5-1.7,1.1l-0.3-0.3c0.5-0.8,1.3-1.4,2.2-1.4c1.4,0,2,0.6,2,1.7v3.4
		c0,0.8,0.3,1,0.6,1c0.2,0,0.5-0.1,0.6-0.3L298.2,512.4z M295.8,511.9v-2.2l-1,0.2c-0.8,0.1-1.4,0.6-1.4,1.4c0,0.7,0.5,1.2,1.1,1.2
		C294.9,512.5,295.4,512.3,295.8,511.9z"/>
	<path d="M303.7,510.9l-0.1,2h-5.3l-0.1-0.2l4-5.6h-3.1l-0.2,1.3h-0.4v-1.7h5v0.2l-4,5.6h3.5l0.2-1.6H303.7z"/>
	<path d="M307.5,513h-3v-0.3l1-0.1v-5.3l-1-0.2v-0.3l2.1-0.3v6.1l1,0.1V513z M306.6,504.2c0,0.4-0.3,0.7-0.7,0.7s-0.7-0.3-0.7-0.7
		s0.3-0.7,0.7-0.7S306.6,503.9,306.6,504.2z"/>
	<path d="M315.2,513h-3.1v-0.3l1.1-0.1v-5c-0.1-0.4-0.6-0.6-1.1-0.6c-1.2,0-1.9,1.2-1.9,2.7v2.9l1.1,0.1v0.3h-3.1v-0.3l1-0.1v-5.3
		l-1-0.2v-0.3l2-0.3v1.6h0c0.4-1.1,1.2-1.7,2.2-1.7c1.2,0,1.9,0.8,1.9,2v4.1l1,0.1V513z"/>
	<path d="M325.4,512.8l-2,0.3v-1l0,0c-0.4,0.6-0.9,1-1.9,1c-1.3,0-2.7-1.1-2.7-3.1c0-2.1,1.3-3.5,3-3.5c0.8,0,1.3,0.3,1.6,0.6v-4
		l-1-0.2v-0.3l2.1-0.3v10l1,0.2V512.8z M323.3,511.5v-3.7c-0.3-0.5-0.9-0.9-1.5-0.9c-1.4,0-1.9,1.5-1.9,3c0,1.6,0.7,2.7,1.9,2.7
		C322.7,512.6,323.1,512,323.3,511.5z"/>
	<path d="M332,509.8c0,2-1.4,3.3-3.1,3.3c-1.7,0-3.1-1.4-3.1-3.3c0-2,1.4-3.3,3.1-3.3C330.7,506.5,332,507.8,332,509.8z
		 M330.9,509.8c0-1.8-0.7-3-1.9-3s-1.9,1.1-1.9,3s0.7,3,1.9,3S330.9,511.7,330.9,509.8z"/>
	<path d="M339.9,513h-3.1v-0.3l1.1-0.1v-5c-0.1-0.4-0.6-0.6-1.1-0.6c-1.2,0-1.9,1.2-1.9,2.7v2.9l1.1,0.1v0.3h-3.1v-0.3l1-0.1v-5.3
		l-1-0.2v-0.3l2-0.3v1.6h0c0.4-1.1,1.2-1.7,2.2-1.7c1.2,0,1.9,0.8,1.9,2v4.1l1,0.1V513z"/>
	<path d="M345.9,509.3h-4.3c0,0.1,0,0.3,0,0.4c0,1.8,0.9,2.9,2.1,2.9c1,0,1.5-0.4,1.9-0.9l0.3,0.3c-0.3,0.5-1,1.2-2.4,1.2
		c-1.8,0-3.1-1.4-3.1-3.3c0-2,1.5-3.3,3-3.3s2.5,1,2.5,2.5V509.3z M344.7,508.9c0-1-0.3-2.1-1.4-2.1c-0.9,0-1.5,0.9-1.7,2.1H344.7z"
		/>
	<path d="M348.6,512.3c0,0.4-0.3,0.8-0.8,0.8c-0.4,0-0.8-0.3-0.8-0.8c0-0.4,0.3-0.8,0.8-0.8C348.2,511.6,348.6,511.9,348.6,512.3z"
		/>
	<path d="M360.4,505.7H360l-0.2-1.9h-2.6v8.7l1.3,0.1v0.3h-3.7v-0.3l1.3-0.1v-8.7h-2.6l-0.2,1.9h-0.4v-2.3h7.7V505.7z"/>
	<path d="M367.9,513h-3.1v-0.3l1.1-0.1v-5c-0.2-0.4-0.6-0.6-1.1-0.6c-1.2,0-1.9,1.2-1.9,2.7v2.9l1.1,0.1v0.3h-3.1v-0.3l1-0.1v-9.4
		l-1-0.2v-0.3l2.1-0.3v5.7c0.4-1,1.1-1.6,2.2-1.6c1.2,0,1.9,0.8,1.9,2v4.1l1,0.1V513z"/>
	<path d="M371.4,513h-3v-0.3l1-0.1v-5.3l-1-0.2v-0.3l2.1-0.3v6.1l1,0.1V513z M370.5,504.2c0,0.4-0.3,0.7-0.7,0.7s-0.7-0.3-0.7-0.7
		s0.3-0.7,0.7-0.7S370.5,503.9,370.5,504.2z"/>
	<path d="M376.4,511.2c0,1-0.8,1.9-2.1,1.9c-0.6,0-1.1-0.1-1.5-0.4l-0.1,0.4h-0.3l-0.1-2l0.3,0c0.2,1.1,0.8,1.7,1.7,1.7
		c0.7,0,1.2-0.5,1.2-1.2c0-0.8-0.7-1.1-1.4-1.4c-0.8-0.3-1.7-0.8-1.7-1.9c0-1,0.8-1.8,1.9-1.8c0.6,0,1,0.1,1.4,0.4l0.2-0.3h0.3
		l0,1.7h-0.3c-0.2-0.9-0.6-1.4-1.5-1.4c-0.7,0-1.1,0.5-1.1,1c0,0.8,0.7,1.1,1.4,1.4C375.5,509.7,376.4,510.1,376.4,511.2z"/>
	<path d="M383.2,513h-3v-0.3l1-0.1v-5.3l-1-0.2v-0.3l2.1-0.3v6.1l1,0.1V513z M382.3,504.2c0,0.4-0.3,0.7-0.7,0.7s-0.7-0.3-0.7-0.7
		s0.3-0.7,0.7-0.7S382.3,503.9,382.3,504.2z"/>
	<path d="M388.2,511.2c0,1-0.8,1.9-2.1,1.9c-0.6,0-1.1-0.1-1.5-0.4l-0.1,0.4h-0.3l-0.1-2l0.3,0c0.2,1.1,0.8,1.7,1.7,1.7
		c0.7,0,1.2-0.5,1.2-1.2c0-0.8-0.7-1.1-1.4-1.4c-0.8-0.3-1.7-0.8-1.7-1.9c0-1,0.8-1.8,1.9-1.8c0.6,0,1,0.1,1.4,0.4l0.2-0.3h0.3
		l0,1.7h-0.3c-0.2-0.9-0.6-1.4-1.5-1.4c-0.7,0-1.1,0.5-1.1,1c0,0.8,0.7,1.1,1.4,1.4C387.3,509.7,388.2,510.1,388.2,511.2z"/>
	<path d="M227.4,529.4c-0.2,0.3-0.7,0.7-1.3,0.7s-1-0.4-1.1-0.9c-0.5,0.5-1.2,0.9-1.8,0.9c-1,0-1.8-0.7-1.8-1.7c0-1.1,0.9-1.7,2-1.9
		l1.5-0.3v-1.1c0-0.8-0.3-1.2-1.2-1.2c-0.7,0-1.3,0.5-1.7,1.1l-0.3-0.3c0.5-0.8,1.3-1.4,2.2-1.4c1.4,0,2,0.6,2,1.7v3.4
		c0,0.8,0.3,1,0.6,1c0.2,0,0.5-0.1,0.6-0.3L227.4,529.4z M224.9,528.9v-2.2l-1,0.2c-0.8,0.1-1.4,0.6-1.4,1.4c0,0.7,0.5,1.2,1.1,1.2
		C224.1,529.5,224.6,529.3,224.9,528.9z"/>
	<path d="M234.6,529.2c-0.3,0.5-0.9,0.9-1.8,0.9c-0.8,0-1.5-0.5-1.5-1.7v-4.2h-1v-0.3l1-0.4l0.8-1.9h0.3v2.1h1.8v0.4h-1.8v4.1
		c0,0.9,0.4,1.2,1,1.2c0.5,0,0.8-0.3,1-0.5L234.6,529.2z"/>
	<path d="M240.4,526.3h-4.3c0,0.1,0,0.3,0,0.4c0,1.8,0.9,2.9,2.1,2.9c1,0,1.5-0.4,1.9-0.9l0.3,0.3c-0.3,0.5-1,1.2-2.4,1.2
		c-1.8,0-3.1-1.4-3.1-3.3c0-2,1.5-3.3,3-3.3s2.5,1,2.5,2.5V526.3z M239.3,525.9c0-1-0.3-2.1-1.4-2.1c-0.9,0-1.5,0.9-1.7,2.1H239.3z"
		/>
	<path d="M252,530h-3.1v-0.3l1.1-0.1v-5c-0.2-0.4-0.4-0.6-1-0.6c-1,0-1.8,1.1-1.8,2.7v2.9l1.1,0.1v0.3H245v-0.3l1.1-0.1v-5
		c-0.2-0.4-0.4-0.6-1-0.6c-1,0-1.8,1.1-1.8,2.7v2.9l1.1,0.1v0.3h-3.1v-0.3l1-0.1v-5.3l-1-0.2v-0.3l2-0.3v1.6h0
		c0.3-0.9,1.1-1.7,2.1-1.7c1,0,1.7,0.6,1.8,1.7h0c0.3-1,1.1-1.7,2.1-1.7c1.1,0,1.8,0.8,1.8,2v4.1l1,0.1V530z"/>
	<path d="M259,526.6c0,2.1-1.4,3.5-3.1,3.5c-0.7,0-1.1-0.2-1.5-0.4v3.7l1.4,0.1v0.3h-3.4v-0.3l1-0.1v-9.1l-1-0.2v-0.3l2-0.3v1h0
		c0.4-0.6,1.1-1.1,2-1.1C257.7,523.5,259,524.6,259,526.6z M257.9,526.7c0-1.6-0.6-2.7-1.8-2.7c-0.8,0-1.4,0.5-1.6,1.1v4
		c0.3,0.3,0.9,0.6,1.3,0.6C257.2,529.7,257.9,528.2,257.9,526.7z"/>
	<path d="M262.7,530h-3v-0.3l1-0.1v-9.5l-1-0.2v-0.3l2.1-0.3v10.2l1,0.1V530z"/>
	<path d="M269.3,529.4c-0.2,0.3-0.7,0.7-1.3,0.7s-1-0.4-1.1-0.9c-0.5,0.5-1.2,0.9-1.8,0.9c-1,0-1.8-0.7-1.8-1.7c0-1.1,0.9-1.7,2-1.9
		l1.5-0.3v-1.1c0-0.8-0.3-1.2-1.2-1.2c-0.7,0-1.3,0.5-1.7,1.1l-0.3-0.3c0.5-0.8,1.3-1.4,2.2-1.4c1.4,0,2,0.6,2,1.7v3.4
		c0,0.8,0.3,1,0.6,1c0.2,0,0.5-0.1,0.6-0.3L269.3,529.4z M266.8,528.9v-2.2l-1,0.2c-0.8,0.1-1.4,0.6-1.4,1.4c0,0.7,0.5,1.2,1.1,1.2
		C266,529.5,266.5,529.3,266.8,528.9z"/>
	<path d="M273.4,529.2c-0.3,0.5-0.9,0.9-1.8,0.9c-0.8,0-1.5-0.5-1.5-1.7v-4.2h-1v-0.3l1-0.4l0.8-1.9h0.3v2.1h1.8v0.4h-1.8v4.1
		c0,0.9,0.4,1.2,1,1.2c0.5,0,0.8-0.3,1-0.5L273.4,529.2z"/>
	<path d="M279.2,526.3h-4.3c0,0.1,0,0.3,0,0.4c0,1.8,0.9,2.9,2.1,2.9c1,0,1.5-0.4,1.9-0.9l0.3,0.3c-0.3,0.5-1,1.2-2.4,1.2
		c-1.8,0-3.1-1.4-3.1-3.3c0-2,1.5-3.3,3-3.3s2.5,1,2.5,2.5V526.3z M278,525.9c0-1-0.3-2.1-1.4-2.1c-0.9,0-1.5,0.9-1.7,2.1H278z"/>
	<path d="M289.2,526.8c0,2-1.4,3.3-3.1,3.3c-1.7,0-3.1-1.4-3.1-3.3c0-2,1.4-3.3,3.1-3.3C287.8,523.5,289.2,524.8,289.2,526.8z
		 M288,526.8c0-1.8-0.7-3-1.9-3s-1.9,1.1-1.9,3s0.7,3,1.9,3S288,528.7,288,526.8z"/>
	<path d="M294.6,519.5l-0.4,0.9c-0.6-0.4-1.1-0.7-1.4-0.7c-0.5,0-0.8,0.4-0.8,1.6v2.4h1.8v0.4h-1.8v5.4l1.4,0.1v0.3h-3.5v-0.3l1-0.1
		v-5.4h-1v-0.3l1-0.3v-1.2c0-1.8,0.7-3.3,2.5-3.3C293.9,519.2,294.2,519.3,294.6,519.5z"/>
	<path d="M303,529.4c-0.2,0.3-0.7,0.7-1.3,0.7s-1-0.4-1.1-0.9c-0.4,0.5-1.2,0.9-1.8,0.9c-1,0-1.8-0.7-1.8-1.7c0-1.1,0.9-1.7,2-1.9
		l1.5-0.3v-1.1c0-0.8-0.3-1.2-1.2-1.2c-0.7,0-1.3,0.5-1.7,1.1l-0.3-0.3c0.5-0.8,1.3-1.4,2.2-1.4c1.3,0,2,0.6,2,1.7v3.4
		c0,0.8,0.3,1,0.6,1c0.2,0,0.5-0.1,0.6-0.3L303,529.4z M300.6,528.9v-2.2l-1,0.2c-0.8,0.1-1.4,0.6-1.4,1.4c0,0.7,0.5,1.2,1.1,1.2
		C299.7,529.5,300.3,529.3,300.6,528.9z"/>
	<path d="M310.3,530h-3.1v-0.3l1.1-0.1v-5c-0.1-0.4-0.6-0.6-1.1-0.6c-1.2,0-1.9,1.2-1.9,2.7v2.9l1.1,0.1v0.3h-3.1v-0.3l1-0.1v-5.3
		l-1-0.2v-0.3l2-0.3v1.6h0c0.4-1.1,1.2-1.7,2.2-1.7c1.2,0,1.9,0.8,1.9,2v4.1l1,0.1V530z"/>
	<path d="M316.6,524l-0.7,0.2l-2.4,5.9l-1.3,3.8h-1l1.9-3.9l-2.3-5.8l-0.7-0.2v-0.3h2.9v0.3l-1,0.1l1.7,4.6l1.7-4.5l-1-0.2v-0.3h2.3
		V524z"/>
	<path d="M324.7,519.5l-0.4,0.9c-0.6-0.4-1.1-0.7-1.4-0.7c-0.5,0-0.8,0.4-0.8,1.6v2.4h1.8v0.4H322v5.4l1.4,0.1v0.3H320v-0.3l1-0.1
		v-5.4h-1v-0.3l1-0.3v-1.2c0-1.8,0.7-3.3,2.5-3.3C324,519.2,324.3,519.3,324.7,519.5z"/>
	<path d="M331.1,529.8l-2,0.3v-1.7h0c-0.4,1.1-1.2,1.7-2.2,1.7c-1.2,0-1.9-0.8-1.9-2v-4l-1-0.2v-0.3h2.1v5.3
		c0.1,0.4,0.5,0.6,1.1,0.6c1.2,0,1.9-1.2,1.9-2.7v-2.7L328,524v-0.3h2.2v5.7l1,0.2V529.8z"/>
	<path d="M335.7,529.2c-0.3,0.5-0.9,0.9-1.8,0.9c-0.8,0-1.5-0.5-1.5-1.7v-4.2h-1v-0.3l1-0.4l0.8-1.9h0.3v2.1h1.8v0.4h-1.8v4.1
		c0,0.9,0.4,1.2,1,1.2c0.5,0,0.8-0.3,1-0.5L335.7,529.2z"/>
	<path d="M342.8,529.8l-2,0.3v-1.7h0c-0.4,1.1-1.2,1.7-2.2,1.7c-1.2,0-1.9-0.8-1.9-2v-4l-1-0.2v-0.3h2.1v5.3
		c0.1,0.4,0.5,0.6,1.1,0.6c1.2,0,1.9-1.2,1.9-2.7v-2.7l-1.1-0.2v-0.3h2.2v5.7l1,0.2V529.8z"/>
	<path d="M348,523.9l-0.4,0.9c-0.2-0.1-0.9-0.5-1.1-0.5c-0.7,0-1.2,1-1.2,2.4v3l1.4,0.1v0.3h-3.4v-0.3l1-0.1v-5.3l-1-0.2v-0.3l2-0.3
		v1.6h0c0.3-1.2,1.1-1.7,1.8-1.7C347.4,523.5,347.8,523.7,348,523.9z"/>
	<path d="M353.8,526.3h-4.3c0,0.1,0,0.3,0,0.4c0,1.8,0.9,2.9,2.1,2.9c1,0,1.5-0.4,1.9-0.9l0.3,0.3c-0.3,0.5-1,1.2-2.4,1.2
		c-1.8,0-3.1-1.4-3.1-3.3c0-2,1.5-3.3,3-3.3s2.5,1,2.5,2.5V526.3z M352.7,525.9c0-1-0.3-2.1-1.4-2.1c-0.9,0-1.5,0.9-1.7,2.1H352.7z"
		/>
	<path d="M363.1,529c-0.3,0.5-1,1.2-2.4,1.2c-1.7,0-3.1-1.4-3.1-3.4c0-2,1.5-3.3,3.1-3.3c0.7,0,1.2,0.1,1.8,0.4l0.2-0.4h0.3
		l-0.1,1.8h-0.3c-0.2-0.9-0.8-1.5-1.8-1.5c-1.2,0-2,1.1-2,2.8c0,1.7,0.9,2.9,2.1,2.9c1,0,1.5-0.4,1.9-0.9L363.1,529z"/>
	<path d="M369.9,526.8c0,2-1.4,3.3-3.1,3.3c-1.7,0-3.1-1.4-3.1-3.3c0-2,1.4-3.3,3.1-3.3C368.5,523.5,369.9,524.8,369.9,526.8z
		 M368.7,526.8c0-1.8-0.7-3-1.9-3s-1.9,1.1-1.9,3s0.7,3,1.9,3S368.7,528.7,368.7,526.8z"/>
	<path d="M376.4,524l-0.7,0.2l-2.5,6h-0.1l-2.5-6.1l-0.7-0.2v-0.3h2.9v0.3l-1,0.1l1.7,4.4l1.7-4.3l-1-0.2v-0.3h2.3V524z"/>
	<path d="M382,526.3h-4.3c0,0.1,0,0.3,0,0.4c0,1.8,0.9,2.9,2.1,2.9c1,0,1.5-0.4,1.9-0.9l0.3,0.3c-0.3,0.5-1,1.2-2.4,1.2
		c-1.8,0-3.1-1.4-3.1-3.3c0-2,1.5-3.3,3-3.3s2.5,1,2.5,2.5V526.3z M380.8,525.9c0-1-0.3-2.1-1.4-2.1c-0.9,0-1.5,0.9-1.7,2.1H380.8z"
		/>
	<path d="M387.4,523.9l-0.4,0.9c-0.2-0.1-0.9-0.5-1.1-0.5c-0.7,0-1.2,1-1.2,2.4v3l1.4,0.1v0.3h-3.4v-0.3l1-0.1v-5.3l-1-0.2v-0.3
		l2-0.3v1.6h0c0.3-1.2,1.1-1.7,1.8-1.7C386.9,523.5,387.2,523.7,387.4,523.9z"/>
	<path d="M227.4,546.4c-0.2,0.3-0.7,0.7-1.3,0.7s-1-0.4-1.1-0.9c-0.5,0.5-1.2,0.9-1.8,0.9c-1,0-1.8-0.7-1.8-1.7c0-1.1,0.9-1.7,2-1.9
		l1.5-0.3v-1.1c0-0.8-0.3-1.2-1.2-1.2c-0.7,0-1.3,0.5-1.7,1.1l-0.3-0.3c0.5-0.8,1.3-1.4,2.2-1.4c1.4,0,2,0.6,2,1.7v3.4
		c0,0.8,0.3,1,0.6,1c0.2,0,0.5-0.1,0.6-0.3L227.4,546.4z M224.9,545.9v-2.2l-1,0.2c-0.8,0.1-1.4,0.6-1.4,1.4c0,0.7,0.5,1.2,1.1,1.2
		C224.1,546.5,224.6,546.3,224.9,545.9z"/>
	<path d="M234.6,547h-3.1v-0.3l1.1-0.1v-5c-0.2-0.4-0.6-0.6-1.1-0.6c-1.2,0-1.9,1.2-1.9,2.7v2.9l1.1,0.1v0.3h-3.1v-0.3l1-0.1v-5.3
		l-1-0.2v-0.3l2-0.3v1.6h0c0.4-1.1,1.2-1.7,2.2-1.7c1.2,0,1.9,0.8,1.9,2v4.1l1,0.1V547z"/>
	<path d="M241.8,546.8l-2,0.3v-1l0,0c-0.4,0.6-0.9,1-1.9,1c-1.3,0-2.7-1.1-2.7-3.1c0-2.1,1.3-3.5,3-3.5c0.8,0,1.3,0.3,1.6,0.6v-4
		l-1-0.2v-0.3l2.1-0.3v10l1,0.2V546.8z M239.7,545.5v-3.7c-0.3-0.5-0.9-0.9-1.5-0.9c-1.4,0-1.9,1.5-1.9,3c0,1.6,0.7,2.7,1.9,2.7
		C239.1,546.6,239.5,546,239.7,545.5z"/>
	<path d="M249.4,546.2c-0.3,0.5-0.9,0.9-1.8,0.9c-0.8,0-1.5-0.5-1.5-1.7v-4.2h-1v-0.3l1-0.4l0.8-1.9h0.3v2.1h1.8v0.4h-1.8v4.1
		c0,0.9,0.4,1.2,1,1.2c0.5,0,0.8-0.3,1-0.5L249.4,546.2z"/>
	<path d="M256.7,547h-3.1v-0.3l1.1-0.1v-5c-0.2-0.4-0.6-0.6-1.1-0.6c-1.2,0-1.9,1.2-1.9,2.7v2.9l1.1,0.1v0.3h-3.1v-0.3l1-0.1v-9.4
		l-1-0.2v-0.3l2.1-0.3v5.7c0.4-1,1.1-1.6,2.2-1.6c1.2,0,1.9,0.8,1.9,2v4.1l1,0.1V547z"/>
	<path d="M260.2,547h-3v-0.3l1-0.1v-5.3l-1-0.2v-0.3l2.1-0.3v6.1l1,0.1V547z M259.3,538.2c0,0.4-0.3,0.7-0.7,0.7s-0.7-0.3-0.7-0.7
		s0.3-0.7,0.7-0.7S259.3,537.9,259.3,538.2z"/>
	<path d="M265.2,545.2c0,1-0.8,1.9-2.1,1.9c-0.6,0-1.1-0.1-1.5-0.4l-0.2,0.4h-0.3l-0.1-2l0.3,0c0.2,1.1,0.8,1.7,1.7,1.7
		c0.7,0,1.2-0.5,1.2-1.2c0-0.8-0.7-1.1-1.4-1.4c-0.8-0.3-1.7-0.8-1.7-1.9c0-1,0.8-1.8,1.9-1.8c0.6,0,1,0.1,1.4,0.4l0.2-0.3h0.3
		l0,1.7h-0.3c-0.1-0.9-0.6-1.4-1.5-1.4c-0.7,0-1.1,0.5-1.1,1c0,0.8,0.7,1.1,1.4,1.4C264.3,543.7,265.2,544.1,265.2,545.2z"/>
	<path d="M274.5,546c-0.3,0.5-1,1.2-2.4,1.2c-1.7,0-3.1-1.4-3.1-3.4c0-2,1.5-3.3,3.1-3.3c0.7,0,1.2,0.1,1.8,0.4l0.2-0.4h0.3
		l-0.1,1.8H274c-0.2-0.9-0.8-1.5-1.8-1.5c-1.2,0-2,1.1-2,2.8c0,1.7,0.9,2.9,2.1,2.9c1,0,1.5-0.4,1.9-0.9L274.5,546z"/>
	<path d="M281.3,543.8c0,2-1.4,3.3-3.1,3.3s-3.1-1.4-3.1-3.3c0-2,1.4-3.3,3.1-3.3S281.3,541.8,281.3,543.8z M280.1,543.8
		c0-1.8-0.7-3-1.9-3s-1.9,1.1-1.9,3s0.7,3,1.9,3S280.1,545.7,280.1,543.8z"/>
	<path d="M288.8,546.8l-2,0.3v-1.7h0c-0.4,1.1-1.2,1.7-2.2,1.7c-1.2,0-1.9-0.8-1.9-2v-4l-1-0.2v-0.3h2.1v5.3
		c0.1,0.4,0.5,0.6,1.1,0.6c1.2,0,1.9-1.2,1.9-2.7v-2.7l-1.1-0.2v-0.3h2.2v5.7l1,0.2V546.8z"/>
	<path d="M292.2,547h-3v-0.3l1-0.1v-9.5l-1-0.2v-0.3l2.1-0.3v10.2l1,0.1V547z"/>
	<path d="M299.5,546.8l-2,0.3v-1l0,0c-0.4,0.6-0.9,1-1.9,1c-1.3,0-2.7-1.1-2.7-3.1c0-2.1,1.3-3.5,3-3.5c0.8,0,1.3,0.3,1.6,0.6v-4
		l-1-0.2v-0.3l2.1-0.3v10l1,0.2V546.8z M297.4,545.5v-3.7c-0.3-0.5-0.9-0.9-1.5-0.9c-1.4,0-1.9,1.5-1.9,3c0,1.6,0.7,2.7,1.9,2.7
		C296.8,546.6,297.2,546,297.4,545.5z"/>
	<path d="M310,547h-3.1v-0.3l1.1-0.1v-5c-0.2-0.4-0.6-0.6-1.1-0.6c-1.2,0-1.9,1.2-1.9,2.7v2.9l1.1,0.1v0.3h-3.1v-0.3l1-0.1v-9.4
		l-1-0.2v-0.3l2.1-0.3v5.7c0.4-1,1.1-1.6,2.2-1.6c1.2,0,1.9,0.8,1.9,2v4.1l1,0.1V547z"/>
	<path d="M316,543.3h-4.3c0,0.1,0,0.3,0,0.4c0,1.8,0.9,2.9,2.1,2.9c1,0,1.5-0.4,1.9-0.9l0.3,0.3c-0.3,0.5-1,1.2-2.4,1.2
		c-1.8,0-3.1-1.4-3.1-3.3c0-2,1.5-3.3,3-3.3s2.5,1,2.5,2.5V543.3z M314.8,542.9c0-1-0.3-2.1-1.4-2.1c-0.9,0-1.5,0.9-1.7,2.1H314.8z"
		/>
	<path d="M319.7,547h-3v-0.3l1-0.1v-9.5l-1-0.2v-0.3l2.1-0.3v10.2l1,0.1V547z"/>
	<path d="M326.8,543.6c0,2.1-1.4,3.5-3.1,3.5c-0.7,0-1.1-0.2-1.5-0.4v3.7l1.4,0.1v0.3h-3.4v-0.3l1-0.1v-9.1l-1-0.2v-0.3l2-0.3v1h0
		c0.4-0.6,1.1-1.1,2-1.1C325.5,540.5,326.8,541.6,326.8,543.6z M325.6,543.7c0-1.6-0.6-2.7-1.8-2.7c-0.8,0-1.4,0.5-1.6,1.1v4
		c0.3,0.3,0.9,0.6,1.3,0.6C325,546.7,325.6,545.2,325.6,543.7z"/>
	<path d="M336.7,541l-0.7,0.2l-2.4,5.9l-1.3,3.8h-1l1.9-3.9l-2.3-5.8l-0.7-0.2v-0.3h2.9v0.3l-1,0.1l1.7,4.6l1.7-4.5l-1-0.2v-0.3h2.3
		V541z"/>
	<path d="M342.9,543.8c0,2-1.4,3.3-3.1,3.3c-1.7,0-3.1-1.4-3.1-3.3c0-2,1.4-3.3,3.1-3.3C341.6,540.5,342.9,541.8,342.9,543.8z
		 M341.7,543.8c0-1.8-0.7-3-1.9-3s-1.9,1.1-1.9,3s0.7,3,1.9,3S341.7,545.7,341.7,543.8z"/>
	<path d="M350.4,546.8l-2,0.3v-1.7h0c-0.4,1.1-1.2,1.7-2.2,1.7c-1.2,0-1.9-0.8-1.9-2v-4l-1-0.2v-0.3h2.1v5.3
		c0.2,0.4,0.5,0.6,1.1,0.6c1.2,0,1.9-1.2,1.9-2.7v-2.7l-1.1-0.2v-0.3h2.2v5.7l1,0.2V546.8z"/>
	<path d="M361,547h-3v-0.3l1-0.1v-5.3l-0.7-0.1H356v5.4l1.4,0.1v0.3h-3.5v-0.3l1-0.1v-5.4h-1v-0.3l1-0.3v-1c0-2.1,1.2-3.5,3.2-3.5
		c0.8,0,1.4,0.3,1.9,0.8l-0.6,1c-1.1-1.1-1.4-1.3-1.7-1.3c-1.1,0-1.8,0.5-1.8,2.6v1.5h2.2l1.8-0.2v6l1,0.1V547z"/>
	<path d="M368.7,547h-3.1v-0.3l1.1-0.1v-5c-0.2-0.4-0.6-0.6-1.1-0.6c-1.2,0-1.9,1.2-1.9,2.7v2.9l1.1,0.1v0.3h-3.1v-0.3l1-0.1v-5.3
		l-1-0.2v-0.3l2-0.3v1.6h0c0.4-1.1,1.2-1.7,2.2-1.7c1.2,0,1.9,0.8,1.9,2v4.1l1,0.1V547z"/>
	<path d="M375.8,546.8l-2,0.3v-1l0,0c-0.4,0.6-0.9,1-1.9,1c-1.3,0-2.7-1.1-2.7-3.1c0-2.1,1.3-3.5,3-3.5c0.8,0,1.3,0.3,1.6,0.6v-4
		l-1-0.2v-0.3l2.1-0.3v10l1,0.2V546.8z M373.8,545.5v-3.7c-0.3-0.5-0.9-0.9-1.5-0.9c-1.4,0-1.9,1.5-1.9,3c0,1.6,0.7,2.7,1.9,2.7
		C373.1,546.6,373.5,546,373.8,545.5z"/>
	<path d="M225.7,562.2c0,1-0.8,1.9-2.1,1.9c-0.6,0-1.1-0.1-1.5-0.4l-0.2,0.4h-0.3l-0.1-2l0.3,0c0.2,1.1,0.8,1.7,1.7,1.7
		c0.7,0,1.2-0.5,1.2-1.2c0-0.8-0.7-1.1-1.4-1.4c-0.8-0.3-1.7-0.8-1.7-1.9c0-1,0.8-1.8,1.9-1.8c0.6,0,1,0.1,1.4,0.4l0.2-0.3h0.3
		l0,1.7h-0.3c-0.1-0.9-0.6-1.4-1.5-1.4c-0.7,0-1.1,0.5-1.1,1c0,0.8,0.7,1.1,1.4,1.4C224.9,560.7,225.7,561.1,225.7,562.2z"/>
	<path d="M232.8,560.8c0,2-1.4,3.3-3.1,3.3s-3.1-1.4-3.1-3.3c0-2,1.4-3.3,3.1-3.3S232.8,558.8,232.8,560.8z M231.6,560.8
		c0-1.8-0.7-3-1.9-3s-1.9,1.1-1.9,3s0.7,3,1.9,3S231.6,562.7,231.6,560.8z"/>
	<path d="M244.3,564h-3.1v-0.3l1.1-0.1v-5c-0.2-0.4-0.4-0.6-1-0.6c-1,0-1.8,1.1-1.8,2.7v2.9l1.1,0.1v0.3h-3.2v-0.3l1.1-0.1v-5
		c-0.2-0.4-0.4-0.6-1-0.6c-1,0-1.8,1.1-1.8,2.7v2.9l1.1,0.1v0.3h-3.1v-0.3l1-0.1v-5.3l-1-0.2v-0.3l2-0.3v1.6h0
		c0.3-0.9,1.1-1.7,2.1-1.7c1,0,1.6,0.6,1.8,1.7h0c0.3-1,1.1-1.7,2.1-1.7c1.1,0,1.8,0.8,1.8,2v4.1l1,0.1V564z"/>
	<path d="M250.4,560.3H246c0,0.1,0,0.3,0,0.4c0,1.8,0.9,2.9,2.1,2.9c1,0,1.5-0.4,1.9-0.9l0.3,0.3c-0.3,0.5-1,1.2-2.4,1.2
		c-1.8,0-3.1-1.4-3.1-3.3c0-2,1.5-3.3,3-3.3s2.5,1,2.5,2.5V560.3z M249.2,559.9c0-1-0.3-2.1-1.4-2.1c-0.9,0-1.5,0.9-1.7,2.1H249.2z"
		/>
	<path d="M265,564h-3.1v-0.3l1.1-0.1v-5c-0.2-0.4-0.4-0.6-1-0.6c-1,0-1.8,1.1-1.8,2.7v2.9l1.1,0.1v0.3h-3.2v-0.3l1.1-0.1v-5
		c-0.2-0.4-0.4-0.6-1-0.6c-1,0-1.8,1.1-1.8,2.7v2.9l1.1,0.1v0.3h-3.1v-0.3l1-0.1v-5.3l-1-0.2v-0.3l2-0.3v1.6h0
		c0.3-0.9,1.1-1.7,2.1-1.7c1,0,1.7,0.6,1.8,1.7h0c0.3-1,1.1-1.7,2.1-1.7c1.1,0,1.8,0.8,1.8,2v4.1l1,0.1V564z"/>
	<path d="M271.7,560.8c0,2-1.4,3.3-3.1,3.3s-3.1-1.4-3.1-3.3c0-2,1.4-3.3,3.1-3.3S271.7,558.8,271.7,560.8z M270.5,560.8
		c0-1.8-0.7-3-1.9-3s-1.9,1.1-1.9,3s0.7,3,1.9,3S270.5,562.7,270.5,560.8z"/>
	<path d="M277,557.9l-0.4,0.9c-0.2-0.1-0.9-0.5-1.1-0.5c-0.7,0-1.2,1-1.2,2.4v3l1.4,0.1v0.3h-3.4v-0.3l1-0.1v-5.3l-1-0.2v-0.3l2-0.3
		v1.6h0c0.3-1.2,1.1-1.7,1.8-1.7C276.5,557.5,276.9,557.7,277,557.9z"/>
	<path d="M282.9,560.3h-4.3c0,0.1,0,0.3,0,0.4c0,1.8,0.9,2.9,2.1,2.9c1,0,1.5-0.4,1.9-0.9l0.3,0.3c-0.3,0.5-1,1.2-2.4,1.2
		c-1.8,0-3.1-1.4-3.1-3.3c0-2,1.5-3.3,3-3.3s2.5,1,2.5,2.5V560.3z M281.7,559.9c0-1-0.3-2.1-1.4-2.1c-0.9,0-1.5,0.9-1.7,2.1H281.7z"
		/>
	<path d="M289.7,564h-3v-0.3l1-0.1v-5.3l-1-0.2v-0.3l2.1-0.3v6.1l1,0.1V564z M288.8,555.2c0,0.4-0.3,0.7-0.7,0.7s-0.7-0.3-0.7-0.7
		s0.3-0.7,0.7-0.7S288.8,554.9,288.8,555.2z"/>
	<path d="M297.4,564h-3.1v-0.3l1.1-0.1v-5c-0.1-0.4-0.6-0.6-1.1-0.6c-1.2,0-1.9,1.2-1.9,2.7v2.9l1.1,0.1v0.3h-3.1v-0.3l1-0.1v-5.3
		l-1-0.2v-0.3l2-0.3v1.6h0c0.4-1.1,1.2-1.7,2.2-1.7c1.2,0,1.9,0.8,1.9,2v4.1l1,0.1V564z"/>
	<path d="M302.3,562.2c0,1-0.8,1.9-2.1,1.9c-0.6,0-1.1-0.1-1.5-0.4l-0.1,0.4h-0.3l-0.1-2l0.3,0c0.2,1.1,0.8,1.7,1.7,1.7
		c0.7,0,1.2-0.5,1.2-1.2c0-0.8-0.7-1.1-1.4-1.4c-0.8-0.3-1.7-0.8-1.7-1.9c0-1,0.8-1.8,1.9-1.8c0.6,0,1,0.1,1.4,0.4l0.2-0.3h0.3
		l0,1.7h-0.3c-0.2-0.9-0.6-1.4-1.5-1.4c-0.7,0-1.1,0.5-1.1,1c0,0.8,0.7,1.1,1.4,1.4C301.4,560.7,302.3,561.1,302.3,562.2z"/>
	<path d="M309.6,560.6c0,2.1-1.3,3.5-3.1,3.5c-0.7,0-1.1-0.2-1.5-0.4v3.7l1.4,0.1v0.3h-3.4v-0.3l1-0.1v-9.1l-1-0.2v-0.3l2-0.3v1h0
		c0.4-0.6,1.1-1.1,2-1.1C308.3,557.5,309.6,558.6,309.6,560.6z M308.4,560.7c0-1.6-0.6-2.7-1.8-2.7c-0.8,0-1.4,0.5-1.7,1.1v4
		c0.3,0.3,0.9,0.6,1.4,0.6C307.8,563.7,308.4,562.2,308.4,560.7z"/>
	<path d="M313.3,564h-3v-0.3l1-0.1v-5.3l-1-0.2v-0.3l2.1-0.3v6.1l1,0.1V564z M312.4,555.2c0,0.4-0.3,0.7-0.7,0.7s-0.7-0.3-0.7-0.7
		s0.3-0.7,0.7-0.7S312.4,554.9,312.4,555.2z"/>
	<path d="M318.6,557.9l-0.4,0.9c-0.2-0.1-0.9-0.5-1.1-0.5c-0.7,0-1.2,1-1.2,2.4v3l1.4,0.1v0.3h-3.4v-0.3l1-0.1v-5.3l-1-0.2v-0.3
		l2-0.3v1.6h0c0.3-1.2,1.1-1.7,1.8-1.7C318,557.5,318.4,557.7,318.6,557.9z"/>
	<path d="M324.9,563.4c-0.2,0.3-0.7,0.7-1.3,0.7s-1-0.4-1.1-0.9c-0.5,0.5-1.2,0.9-1.8,0.9c-1,0-1.8-0.7-1.8-1.7c0-1.1,0.9-1.7,2-1.9
		l1.5-0.3v-1.1c0-0.8-0.3-1.2-1.2-1.2c-0.7,0-1.3,0.5-1.7,1.1l-0.3-0.3c0.5-0.8,1.3-1.4,2.2-1.4c1.4,0,2,0.6,2,1.7v3.4
		c0,0.8,0.3,1,0.6,1c0.2,0,0.5-0.1,0.6-0.3L324.9,563.4z M322.5,562.9v-2.2l-1,0.2c-0.8,0.1-1.4,0.6-1.4,1.4c0,0.7,0.5,1.2,1.1,1.2
		C321.6,563.5,322.1,563.3,322.5,562.9z"/>
	<path d="M329,563.2c-0.3,0.5-0.9,0.9-1.8,0.9c-0.8,0-1.5-0.5-1.5-1.7v-4.2h-1v-0.3l1-0.4l0.8-1.9h0.3v2.1h1.8v0.4h-1.8v4.1
		c0,0.9,0.4,1.2,1,1.2c0.5,0,0.8-0.3,1-0.5L329,563.2z"/>
	<path d="M332.5,564h-3v-0.3l1-0.1v-5.3l-1-0.2v-0.3l2.1-0.3v6.1l1,0.1V564z M331.5,555.2c0,0.4-0.3,0.7-0.7,0.7s-0.7-0.3-0.7-0.7
		s0.3-0.7,0.7-0.7S331.5,554.9,331.5,555.2z"/>
	<path d="M339.2,560.8c0,2-1.4,3.3-3.1,3.3c-1.7,0-3.1-1.4-3.1-3.3c0-2,1.4-3.3,3.1-3.3C337.9,557.5,339.2,558.8,339.2,560.8z
		 M338.1,560.8c0-1.8-0.7-3-1.9-3s-1.9,1.1-1.9,3s0.7,3,1.9,3S338.1,562.7,338.1,560.8z"/>
	<path d="M347,564h-3.1v-0.3l1.1-0.1v-5c-0.2-0.4-0.6-0.6-1.1-0.6c-1.2,0-1.9,1.2-1.9,2.7v2.9l1.1,0.1v0.3H340v-0.3l1-0.1v-5.3
		l-1-0.2v-0.3l2-0.3v1.6h0c0.4-1.1,1.2-1.7,2.2-1.7c1.2,0,1.9,0.8,1.9,2v4.1l1,0.1V564z"/>
	<path d="M354.6,563.2c-0.3,0.5-0.9,0.9-1.8,0.9c-0.8,0-1.5-0.5-1.5-1.7v-4.2h-1v-0.3l1-0.4l0.8-1.9h0.3v2.1h1.8v0.4h-1.8v4.1
		c0,0.9,0.4,1.2,1,1.2c0.5,0,0.8-0.3,1-0.5L354.6,563.2z"/>
	<path d="M361.1,560.8c0,2-1.4,3.3-3.1,3.3s-3.1-1.4-3.1-3.3c0-2,1.4-3.3,3.1-3.3S361.1,558.8,361.1,560.8z M359.9,560.8
		c0-1.8-0.7-3-1.9-3s-1.9,1.1-1.9,3s0.7,3,1.9,3S359.9,562.7,359.9,560.8z"/>
	<path d="M371.4,563.8l-2,0.3v-1l0,0c-0.4,0.6-0.9,1-1.9,1c-1.3,0-2.7-1.1-2.7-3.1c0-2.1,1.3-3.5,3-3.5c0.8,0,1.3,0.3,1.6,0.6v-4
		l-1-0.2v-0.3l2.1-0.3v10l1,0.2V563.8z M369.4,562.5v-3.7c-0.3-0.5-0.9-0.9-1.5-0.9c-1.4,0-1.9,1.5-1.9,3c0,1.6,0.7,2.7,1.9,2.7
		C368.8,563.6,369.2,563,369.4,562.5z"/>
	<path d="M378.1,560.8c0,2-1.4,3.3-3.1,3.3s-3.1-1.4-3.1-3.3c0-2,1.4-3.3,3.1-3.3S378.1,558.8,378.1,560.8z M376.9,560.8
		c0-1.8-0.7-3-1.9-3s-1.9,1.1-1.9,3s0.7,3,1.9,3S376.9,562.7,376.9,560.8z"/>
	<path d="M225.7,579.2c0,1-0.8,1.9-2.1,1.9c-0.6,0-1.1-0.1-1.5-0.4l-0.2,0.4h-0.3l-0.1-2l0.3,0c0.2,1.1,0.8,1.7,1.7,1.7
		c0.7,0,1.2-0.5,1.2-1.2c0-0.8-0.7-1.1-1.4-1.4c-0.8-0.3-1.7-0.8-1.7-1.9c0-1,0.8-1.8,1.9-1.8c0.6,0,1,0.1,1.4,0.4l0.2-0.3h0.3
		l0,1.7h-0.3c-0.1-0.9-0.6-1.4-1.5-1.4c-0.7,0-1.1,0.5-1.1,1c0,0.8,0.7,1.1,1.4,1.4C224.9,577.7,225.7,578.1,225.7,579.2z"/>
	<path d="M232.8,577.8c0,2-1.4,3.3-3.1,3.3s-3.1-1.4-3.1-3.3c0-2,1.4-3.3,3.1-3.3S232.8,575.8,232.8,577.8z M231.6,577.8
		c0-1.8-0.7-3-1.9-3s-1.9,1.1-1.9,3s0.7,3,1.9,3S231.6,579.7,231.6,577.8z"/>
	<path d="M235.2,580.3c0,0.4-0.3,0.8-0.8,0.8c-0.4,0-0.8-0.3-0.8-0.8c0-0.4,0.3-0.8,0.8-0.8C234.8,579.6,235.2,579.9,235.2,580.3z"
		/>
</g>
<g>
	<path d="M395.2,90.7v3.6h-0.4l-0.1-1.4l-3,1.1v3.7l3,1.1l0.2-1.3h0.4v2.8h-0.4l-0.2-0.9l-9.8-3.7v-0.4l9.9-3.8l0.1-0.9H395.2z
		 M391.2,94.2l-4.5,1.7l4.5,1.7V94.2z"/>
	<path d="M395.2,87.2v3.2h-0.3l-0.1-1h-10.1l-0.2,1h-0.3l-0.3-2.2h10.9l0.1-1H395.2z"/>
	<path d="M395.2,83.5v3.2h-0.3l-0.1-1h-10.1l-0.2,1h-0.3l-0.3-2.2h10.9l0.1-1H395.2z"/>
	<path d="M394.4,75.2c0.5,0.4,0.9,0.9,0.9,1.9c0,0.9-0.6,1.6-1.8,1.6h-4.5v1.1h-0.3l-0.4-1l-2-0.8v-0.4h2.2v-2h0.5v2h4.4
		c0.9,0,1.3-0.4,1.3-1c0-0.5-0.3-0.9-0.6-1.1L394.4,75.2z"/>
	<path d="M388.7,69.9l1,0.4c-0.1,0.2-0.5,1-0.5,1.1c0,0.8,1.1,1.2,2.5,1.2h3.2l0.1-1.5h0.3v3.7h-0.3l-0.1-1h-5.6l-0.2,1h-0.3
		l-0.3-2.1h1.7v0c-1.2-0.4-1.8-1.1-1.8-2C388.3,70.5,388.5,70.1,388.7,69.9z"/>
	<path d="M388.8,62.6l0.2,0.8l6.3,2.5l4,1.4v1.1l-4.1-2l-6.2,2.5l-0.2,0.8h-0.3v-3.1h0.3l0.1,1.1l4.9-1.8L389,64l-0.2,1.1h-0.3v-2.4
		H388.8z"/>
	<path d="M395.2,59v3.2h-0.3l-0.1-1h-5.7l-0.2,1h-0.3l-0.4-2.2h6.5l0.1-1H395.2z M385.9,60c0.4,0,0.7,0.3,0.7,0.7
		c0,0.4-0.3,0.7-0.7,0.7s-0.7-0.3-0.7-0.7C385.2,60.3,385.5,60,385.9,60z"/>
	<path d="M395.2,50.8v3.3h-0.3l-0.1-1.2h-5.3c-0.4,0.2-0.6,0.6-0.6,1.2c0,1.3,1.3,2,2.9,2h3.1l0.1-1.2h0.3v3.3h-0.3l-0.1-1h-5.6
		l-0.2,1h-0.3l-0.3-2.1h1.7v0c-1.1-0.4-1.8-1.2-1.8-2.4c0-1.2,0.9-2,2.1-2h4.4l0.1-1H395.2z"/>
	<path d="M389.2,43.8l-0.2,1.8l0,0c0.4-0.6,1.1-0.8,1.8-0.8c1.6,0,2.4,1.3,2.5,2.7c0.1,1,0.5,1.5,1,1.5c0.2,0,0.3-0.1,0.4-0.2l0.3-3
		c0.1-0.8,0.6-1.8,1.7-1.8c1.7,0,2.8,1.5,2.8,3.7c0,1.4-0.8,2.8-2.2,2.8c-0.9,0-1.4-0.6-1.8-1.3c-0.2,0.3-0.6,0.5-1,0.5
		c-0.5,0-1.1-0.4-1.4-1.4h0c-0.4,1-1.2,1.7-2.4,1.7c-1.5,0-2.5-1.2-2.5-2.7c0-0.6,0.2-1.1,0.4-1.5l-0.4-2.1H389.2z M397.2,44.8
		c-0.7,0-1.1,0.4-1.2,1.1l-0.3,2.9c0.3,0.4,0.8,0.7,1.4,0.7c1,0,2-0.8,2-2.4C399.1,46.3,398.5,44.8,397.2,44.8z M390.8,45.9
		c-1.2,0-2.1,0.6-2.1,1.5c0,0.9,0.9,1.5,2.1,1.5c1.2,0,2.1-0.6,2.1-1.5C393,46.5,392.1,45.9,390.8,45.9z"/>
	<path d="M394.5,41.5c0.5,0,0.8,0.4,0.8,0.8s-0.4,0.8-0.8,0.8s-0.8-0.4-0.8-0.8S394.1,41.5,394.5,41.5z"/>
</g>
<g>
	<path class="st2" d="M94.7,118.7l-0.6,4.3H82l-2.5,19.8h12.1l-0.6,4.3H78.9l-3,24.4h-4.4l3-24.4H57.3l-3,24.4h-4.4l3-24.4H40.7
		l0.6-4.3h12.1L56,123H43.8l0.6-4.3h12.1l3.1-24.5h4.4L61,118.7h17.2l3.1-24.5h4.4l-3.1,24.5H94.7z M77.6,123H60.4l-2.5,19.8H75
		L77.6,123z"/>
</g>
<g>
	<path class="st2" d="M228.9,171.8h-65.4v-8.4l16-2.4l-25.2-40.2l-25,40.2l15.8,2.4v8.4h-48v-8.4l16-2.6l34-51l-37-56l-12-2.4V43
		h65.2v8.4l-15.6,2.4l22.4,36.4l22.4-36.4l-15.6-2.4V43h48v8.4L208.7,54l-31.2,47.2l39.4,59.8l12,2.4V171.8z"/>
</g>
<g>
	<path class="st2" d="M220.6,300.1h-3l-0.9-6.8h-7.4V321l4.4,0.6v2.2h-17v-2.2l4.4-0.6v-27.7h-7.4l-0.9,6.8h-3v-9.8h30.9V300.1z"/>
	<path class="st2" d="M240.7,312h-14.9c-0.1,0.2-0.1,0.9-0.1,1c0,4.1,2.1,7.9,6,7.9c3.2,0,5.1-1.3,6.9-3.2l1.7,2.3
		c-2.9,3.2-6,4.4-10.6,4.4c-7.1,0-12.1-4.7-12.1-11.9c0-6.7,4.9-12,12.6-12c6.6,0,10.3,4,10.3,10.3V312z M233.2,309.4
		c0-3.7-0.6-6.5-3.1-6.5c-2.7,0-3.9,3.2-4.1,6.7L233.2,309.4z"/>
	<path class="st2" d="M285.7,323.8h-13.1v-2l2.5-0.5v-16c-0.5-0.6-1-1-2.1-1c-3.4,0-4.7,3.8-4.7,8.1v8.9l2.4,0.5v2h-12.6v-2l2.5-0.5
		v-16c-0.5-0.6-1-1-2.1-1c-3.4,0-4.7,3.8-4.7,8.1v8.9l2.4,0.5v2h-13.2v-2l3-0.5v-16.8l-3-0.6v-2.1l10.2-1.1v5h0.1
		c1.8-4,4.5-5.3,7.6-5.3c3.7,0,6,1.9,6.9,5.1h0.1c1.8-3.9,4.4-5.1,7.6-5.1c4.8,0,7.3,3.2,7.3,8v12.7l2.9,0.5V323.8z"/>
	<path class="st2" d="M313.7,312.1c0,7.6-5.6,12.3-11.8,12.3c-1.9,0-3.5-0.3-4.7-1v11.2l4.8,0.6v2h-15.4v-2l3-0.6v-30.1l-3-0.6v-2.1
		l10.2-1.1v4.1h0.1c1.7-3,4.3-4.3,7.4-4.3C309.4,300.5,313.7,304.7,313.7,312.1z M305.7,312.7c0-4.4-1-8.4-4.7-8.4
		c-1.7,0-3.3,1.4-3.8,3.2v12.9c0.8,0.9,1.9,1.5,3.4,1.5C303.7,321.8,305.7,318.1,305.7,312.7z"/>
	<path class="st2" d="M329,323.8h-13.7v-2l3-0.5v-30.7l-3-0.5v-2.1l10.7-0.9v34.3l3,0.5V323.8z"/>
	<path class="st2" d="M354.4,322.1c-1.4,1.6-3.4,2.3-5.4,2.3c-2.8,0-4.5-1-5.5-3.2c-1.7,1.8-3.2,3.2-6.4,3.2c-3.3,0-6.4-2.6-6.4-6
		c0-5.1,4-6.6,8.6-7.4l3.8-0.7v-2.9c0-1.9-0.8-3.5-3.3-3.5c-2.3,0-4.6,1.3-6.1,3.3l-1.9-2.7c2.7-2.8,5.6-4,9.9-4c5.8,0,9,2.5,9,7.6
		v10c0,1.6,0.7,2.3,1.8,2.3c0.7,0,1.1-0.2,1.6-0.5L354.4,322.1z M343,319.4v-7l-2.7,0.6c-2,0.4-3,2.3-3,4.2s1.5,3.3,3.1,3.3
		C341.3,320.5,342.5,320.1,343,319.4z"/>
	<path class="st2" d="M372.4,321.3c-1.3,1.5-3.2,3.2-7.8,3.2c-4.9,0-7.3-3.3-7.3-7v-13.2l-3.3-0.2v-2.1l3.6-1.4l4-7.7h3.3v8.2h6.4
		v2.9H365v12.2c0,2.8,0.7,4.2,3.1,4.2c1.2,0,2.5-0.5,3.3-1.4L372.4,321.3z"/>
	<path class="st2" d="M396,312h-14.9c-0.1,0.2-0.1,0.9-0.1,1c0,4.1,2.1,7.9,6,7.9c3.2,0,5.1-1.3,6.9-3.2l1.7,2.3
		c-2.9,3.2-6,4.4-10.6,4.4c-7.1,0-12.1-4.7-12.1-11.9c0-6.7,4.9-12,12.6-12c6.6,0,10.3,4,10.3,10.3V312z M388.4,309.4
		c0-3.7-0.6-6.5-3.1-6.5c-2.7,0-3.9,3.2-4.1,6.7L388.4,309.4z"/>
</g>
</svg>
