<?xml version="1.0" encoding="utf-8"?>
<!-- Generator: Adobe Illustrator 24.1.0, SVG Export Plug-In . SVG Version: 6.00 Build 0)  -->
<svg version="1.1" id="Layer_1" xmlns="http://www.w3.org/2000/svg" xmlns:xlink="http://www.w3.org/1999/xlink" x="0px" y="0px"
	 viewBox="0 0 437 643" style="enable-background:new 0 0 437 643;" xml:space="preserve">
<style type="text/css">
	.st0{fill:#FFFFFF;}
	.st1{fill:#F1D3F4;}
	.st2{fill:#EB5E5E;}
</style>
<rect class="st0" width="437" height="643"/>
<rect y="133.9" class="st1" width="437" height="219.4"/>
<g>
	<path class="st2" d="M94.7,118.7l-0.6,4.3H82l-2.5,19.8h12.1l-0.6,4.3H78.9l-3,24.4h-4.4l3-24.4H57.3l-3,24.4h-4.4l3-24.4H40.7
		l0.6-4.3h12.1L56,123H43.8l0.6-4.3h12.1l3.1-24.5h4.4L61,118.7h17.2l3.1-24.5h4.4l-3.1,24.5H94.7z M77.6,123H60.4l-2.5,19.8H75
		L77.6,123z"/>
</g>
<g>
	<path class="st2" d="M191.5,55.8l-33,75.4l-13.4,43h-33.6L172.9,67h-57.8l-5.4,15.8l-9.2-1.2l5.6-38.6h85.4V55.8z"/>
</g>
<g>
	<path d="M57.6,408.4H41.9v-1.3l2.3-0.4v-16.1l-2.3-0.4v-1.3h9.8v1.3l-2.6,0.4v15.9h6.2l0.5-3.9h1.8V408.4z"/>
	<path d="M68.7,408.4h-9.5v-1.3l2.3-0.4v-16.1l-2.3-0.4v-1.3h9.5v1.3l-2.3,0.4v16.1l2.3,0.4V408.4z"/>
	<path d="M90.6,390.3l-2.3,0.4v17.8h-2.3l-11.2-14.2v12.3l2.3,0.4v1.3h-6.7v-1.3l2.3-0.4v-14.8l-1.1-1.4l-1.3-0.2v-1.2h6.2l9.8,12.3
		v-10.6l-2.3-0.4v-1.3h6.7V390.3z"/>
	<path d="M107.8,408.4H91.9v-1.3l2.3-0.4v-16.1l-2.3-0.4v-1.3h15.4v5.1h-1.7l-0.5-3.4H99v6.8h4l0.3-2.1h1.4v5.9h-1.4l-0.3-2.1h-4
		v7.3h6.5l0.5-3.7h1.8V408.4z"/>
	<path d="M115.3,406.3c0,1.3-1,2.3-2.3,2.3s-2.3-1-2.3-2.3c0-1.3,1-2.3,2.3-2.3S115.3,405.1,115.3,406.3z"/>
	<path d="M143.1,389.7l-2.3,0.4v18.4h-0.5l-12.8-16v14.7l2.3,0.4v0.7h-5.8v-0.7l2.3-0.4v-16.1l-0.9-1.1l-1.4-0.3v-0.7h3.7l12,14.9
		v-13.9l-2.3-0.4v-0.7h5.8V389.7z"/>
	<path d="M158.3,408.4h-13.4v-0.7l2.3-0.2V390l-2.3-0.2v-0.7h13v4.1h-0.8l-0.4-3.1h-7v7.8h5.2l0.3-2.1h0.8v5.1h-0.8l-0.3-2.1h-5.2
		v8.5h7.4l0.4-3.4h0.9V408.4z"/>
	<path d="M185.8,389.7l-1.6,0.3l-6.4,18.7h-0.4l-4.6-13.4l-4.6,13.4h-0.4l-6.4-18.7l-1.6-0.3v-0.7h6.7v0.7l-2.6,0.2l4.7,14.2
		l3.6-10.6l-1.3-3.6l-1.7-0.2v-0.7h6.9v0.7l-2.6,0.2v0.2l4.7,14L183,390l-2.5-0.2v-0.7h5.3V389.7z"/>
	<path d="M188,407.1c0,0.9-0.7,1.6-1.6,1.6s-1.6-0.7-1.6-1.6c0-0.9,0.7-1.6,1.6-1.6S188,406.3,188,407.1z"/>
	<path d="M215.8,408.4h-6.6v-0.5l2.4-0.2v-8.8h-10.3v8.8l2.3,0.2v0.5h-6.6v-0.5l2.3-0.2v-17.8l-2.3-0.2v-0.5h6.6v0.5l-2.3,0.2v8.1
		h10.3v-8.1l-2.4-0.2v-0.5h6.6v0.5l-2.3,0.2v17.8l2.3,0.2V408.4z"/>
	<path d="M231.3,408.4h-12.9v-0.5l2.3-0.2v-17.8l-2.3-0.2v-0.5h12.4v4h-0.7l-0.4-3.2h-7.1v8h5.3l0.3-2.1h0.7v5h-0.7l-0.3-2.1h-5.3
		v8.8h7.5l0.4-3.4h0.7V408.4z"/>
	<path d="M240.8,408.4h-6.6v-0.5l2.3-0.2v-17.8l-2.3-0.2v-0.5h6.6v0.5l-2.3,0.2v17.8l2.3,0.2V408.4z"/>
	<path d="M261,401.4l-1.2,0.3v5.2c-1.3,0.9-3.9,1.9-7.2,1.9c-5.4,0-9.3-4-9.3-10c0-6,3.9-10.1,9.7-10.1c2.9,0,4.6,0.5,5.6,1l0.3-1
		h0.7l-0.2,5.1h-0.6l-0.5-2.6c-1.3-1.1-2.9-1.7-5.8-1.7c-3.6,0-7.1,3.2-7.1,9c0,5.2,2.8,9.5,7.4,9.5c2.2,0,3.9-0.5,5.2-1.5v-4.7
		l-3.1-0.2v-0.5h6.1V401.4z"/>
	<path d="M282.1,408.4h-6.6v-0.5l2.4-0.2v-8.8h-10.3v8.8l2.3,0.2v0.5h-6.6v-0.5l2.3-0.2v-17.8l-2.3-0.2v-0.5h6.6v0.5l-2.3,0.2v8.1
		h10.3v-8.1l-2.4-0.2v-0.5h6.6v0.5l-2.3,0.2v17.8l2.3,0.2V408.4z"/>
	<path d="M298.9,393.6h-0.7l-0.4-3.8h-5.4v17.7l2.5,0.2v0.5H288v-0.5l2.5-0.2v-17.7h-5.4l-0.4,3.8H284v-4.6h14.9V393.6z"/>
	<path d="M301.7,407.3c0,0.8-0.6,1.4-1.4,1.4s-1.4-0.6-1.4-1.4s0.6-1.4,1.4-1.4S301.7,406.6,301.7,407.3z"/>
</g>
<g>
	<path d="M48.7,436.5h-7v-0.4l1.2-0.1v-9.3l-1.2-0.1v-0.4h3.9v0.4l-1.4,0.1v9.3H48l0.2-1.9h0.5V436.5z"/>
	<path d="M55.9,435.9c-0.2,0.4-0.8,0.8-1.4,0.8s-1-0.4-1.2-1c-0.5,0.5-1.2,1-1.9,1c-1.1,0-1.9-0.7-1.9-1.8c0-1.2,1-1.8,2.2-2
		l1.6-0.3v-1.2c0-0.9-0.4-1.3-1.3-1.3c-0.7,0-1.4,0.5-1.8,1.2l-0.4-0.3c0.6-0.9,1.3-1.5,2.4-1.5c1.4,0,2.2,0.7,2.2,1.8v3.6
		c0,0.9,0.3,1.1,0.7,1.1c0.3,0,0.5-0.1,0.6-0.3L55.9,435.9z M53.3,435.4V433l-1.1,0.2c-0.8,0.2-1.5,0.6-1.5,1.5
		c0,0.8,0.5,1.3,1.2,1.3C52.4,436,52.9,435.8,53.3,435.4z"/>
	<path d="M60.3,435.7c-0.4,0.5-0.9,0.9-1.9,0.9c-0.9,0-1.6-0.6-1.6-1.8v-4.5h-1.1v-0.3l1-0.4l0.8-2h0.4v2.2h2v0.5h-2v4.4
		c0,0.9,0.4,1.3,1,1.3c0.5,0,0.9-0.3,1.1-0.6L60.3,435.7z"/>
	<path d="M66.5,432.6h-4.6c0,0.1,0,0.3,0,0.4c0,1.9,0.9,3.1,2.2,3.1c1,0,1.6-0.4,2-1l0.3,0.3c-0.3,0.5-1.1,1.3-2.5,1.3
		c-1.9,0-3.3-1.5-3.3-3.6c0-2.1,1.6-3.5,3.2-3.5c1.7,0,2.7,1.1,2.7,2.7V432.6z M65.2,432.2c0-1-0.3-2.2-1.5-2.2
		c-0.9,0-1.6,0.9-1.8,2.2H65.2z"/>
	<path d="M71.9,434.7c0,1-0.8,2-2.3,2c-0.7,0-1.2-0.1-1.6-0.4l-0.2,0.4h-0.3l-0.1-2.1l0.3,0c0.2,1.1,0.8,1.8,1.8,1.8
		c0.8,0,1.3-0.5,1.3-1.3c0-0.8-0.7-1.2-1.5-1.5c-0.9-0.4-1.8-0.8-1.8-2c0-1.1,0.9-1.9,2-1.9c0.6,0,1,0.1,1.5,0.4l0.2-0.4h0.3l0,1.8
		h-0.3c-0.2-0.9-0.7-1.5-1.6-1.5c-0.8,0-1.2,0.6-1.2,1.1c0,0.8,0.7,1.2,1.5,1.5C71,433,71.9,433.5,71.9,434.7z"/>
	<path d="M77.2,435.7c-0.4,0.5-0.9,0.9-1.9,0.9c-0.9,0-1.6-0.6-1.6-1.8v-4.5h-1.1v-0.3l1-0.4l0.8-2h0.4v2.2h2v0.5h-2v4.4
		c0,0.9,0.4,1.3,1,1.3c0.5,0,0.9-0.3,1.1-0.6L77.2,435.7z"/>
	<path d="M88,428.4h-0.4l-0.2-1.6h-3.7v4.3h2.8l0.2-1.1h0.4v2.7h-0.4l-0.2-1.1h-2.8v4.5l1.6,0.1v0.4h-4.1v-0.4l1.2-0.1v-9.3
		l-1.2-0.1v-0.4H88V428.4z"/>
	<path d="M94.7,433.1c0,2.1-1.5,3.6-3.3,3.6s-3.3-1.4-3.3-3.6c0-2.1,1.5-3.6,3.3-3.6S94.7,431,94.7,433.1z M93.4,433.1
		c0-2-0.8-3.2-2-3.2s-2,1.2-2,3.2c0,2,0.8,3.2,2,3.2S93.4,435.1,93.4,433.1z"/>
	<path d="M103,436.5h-3.3v-0.3l1.2-0.1v-5.3c-0.2-0.4-0.6-0.6-1.2-0.6c-1.3,0-2,1.3-2,2.9v3.1l1.2,0.1v0.3h-3.3v-0.3l1-0.1v-5.6
		l-1-0.2V430l2.1-0.3v1.7h0c0.4-1.1,1.2-1.8,2.4-1.8c1.2,0,2,0.9,2,2.1v4.4l1,0.1V436.5z"/>
	<path d="M107.9,435.7c-0.4,0.5-0.9,0.9-1.9,0.9c-0.9,0-1.6-0.6-1.6-1.8v-4.5h-1.1v-0.3l1-0.4l0.8-2h0.4v2.2h2v0.5h-2v4.4
		c0,0.9,0.4,1.3,1,1.3c0.5,0,0.9-0.3,1.1-0.6L107.9,435.7z"/>
	<path d="M112.9,434.7c0,1-0.8,2-2.3,2c-0.7,0-1.2-0.1-1.6-0.4l-0.2,0.4h-0.3l-0.1-2.1l0.3,0c0.2,1.1,0.8,1.8,1.8,1.8
		c0.8,0,1.3-0.5,1.3-1.3c0-0.8-0.7-1.2-1.5-1.5c-0.9-0.4-1.8-0.8-1.8-2c0-1.1,0.9-1.9,2-1.9c0.6,0,1,0.1,1.5,0.4l0.2-0.4h0.3l0,1.8
		h-0.3c-0.2-0.9-0.7-1.5-1.6-1.5c-0.8,0-1.2,0.6-1.2,1.1c0,0.8,0.7,1.2,1.5,1.5C112,433,112.9,433.5,112.9,434.7z"/>
	<path d="M115.7,435.8c0,0.5-0.4,0.8-0.8,0.8s-0.8-0.4-0.8-0.8s0.4-0.8,0.8-0.8S115.7,435.4,115.7,435.8z"/>
</g>
<g>
	<path d="M45.2,513h-3.5v-0.3l1.2-0.1v-8.8l-1.2-0.1v-0.3h3.5v0.3l-1.2,0.1v8.8l1.2,0.1V513z"/>
	<path d="M52.9,513h-3.1v-0.3l1.1-0.1v-5c-0.1-0.4-0.6-0.6-1.1-0.6c-1.2,0-1.9,1.2-1.9,2.7v2.9l1.1,0.1v0.3h-3.1v-0.3l1-0.1v-5.3
		l-1-0.2v-0.3l2-0.3v1.6h0c0.4-1.1,1.2-1.7,2.2-1.7c1.2,0,1.9,0.8,1.9,2v4.1l1,0.1V513z"/>
	<path d="M62.6,509.8c0,2-1.4,3.3-3.1,3.3c-1.7,0-3.1-1.3-3.1-3.3c0-2,1.4-3.3,3.1-3.3C61.2,506.5,62.6,507.8,62.6,509.8z
		 M61.4,509.8c0-1.8-0.7-3-1.9-3s-1.9,1.1-1.9,3s0.7,3,1.9,3S61.4,511.7,61.4,509.8z"/>
	<path d="M70.1,512.8l-2,0.3v-1.6h0c-0.4,1.1-1.2,1.7-2.2,1.7c-1.2,0-1.9-0.8-1.9-2v-4l-1-0.2v-0.3h2.1v5.3c0.1,0.4,0.5,0.6,1.1,0.6
		c1.2,0,1.9-1.2,1.9-2.7v-2.7L67,507v-0.3h2.2v5.7l1,0.2V512.8z"/>
	<path d="M75.3,506.9l-0.4,0.9c-0.2-0.1-0.9-0.5-1.1-0.5c-0.7,0-1.2,1-1.2,2.4v3l1.4,0.1v0.3h-3.4v-0.3l1-0.1v-5.3l-1-0.2v-0.3
		l2-0.3v1.6h0c0.3-1.2,1.1-1.7,1.8-1.7C74.7,506.5,75.1,506.7,75.3,506.9z"/>
	<path d="M85.4,512.8l-2,0.3v-1l0,0c-0.4,0.6-0.9,1-1.9,1c-1.3,0-2.7-1.1-2.7-3.1c0-2.1,1.3-3.5,3-3.5c0.8,0,1.3,0.3,1.6,0.6v-4
		l-1-0.2v-0.3l2.1-0.3v10l1,0.2V512.8z M83.3,511.5v-3.7c-0.3-0.5-0.9-0.9-1.5-0.9c-1.4,0-1.9,1.5-1.9,3c0,1.6,0.7,2.7,1.9,2.7
		C82.7,512.6,83.1,512,83.3,511.5z"/>
	<path d="M89,513h-3v-0.3l1-0.1v-5.3l-1-0.2v-0.3l2.1-0.3v6.1l1,0.1V513z M88,504.2c0,0.4-0.3,0.7-0.7,0.7s-0.7-0.3-0.7-0.7
		s0.3-0.7,0.7-0.7S88,503.9,88,504.2z"/>
	<path d="M95.6,507.3l-1.7-0.2l0,0c0.5,0.4,0.8,1,0.8,1.6c0,1.5-1.3,2.3-2.5,2.4c-1,0.1-1.4,0.5-1.4,0.9c0,0.2,0.1,0.3,0.2,0.4
		l2.8,0.3c0.8,0.1,1.7,0.6,1.7,1.6c0,1.6-1.4,2.6-3.5,2.6c-1.3,0-2.7-0.7-2.7-2c0-0.8,0.5-1.3,1.2-1.7c-0.3-0.2-0.5-0.5-0.5-0.9
		c0-0.5,0.4-1,1.3-1.3v0c-0.9-0.3-1.6-1.1-1.6-2.2c0-1.4,1.2-2.4,2.5-2.4c0.5,0,1,0.2,1.4,0.4l2-0.4V507.3z M94.6,514.8
		c0-0.6-0.4-1-1.1-1.1l-2.8-0.3c-0.4,0.2-0.6,0.8-0.6,1.3c0,0.9,0.7,1.9,2.3,1.9C93.3,516.6,94.6,516,94.6,514.8z M93.6,508.9
		c0-1.2-0.6-2-1.4-2s-1.4,0.8-1.4,2s0.6,2,1.4,2S93.6,510,93.6,508.9z"/>
	<path d="M99.1,513h-3v-0.3l1-0.1v-5.3l-1-0.2v-0.3l2.1-0.3v6.1l1,0.1V513z M98.1,504.2c0,0.4-0.3,0.7-0.7,0.7s-0.7-0.3-0.7-0.7
		s0.3-0.7,0.7-0.7S98.1,503.9,98.1,504.2z"/>
	<path d="M103.8,512.2c-0.3,0.5-0.9,0.9-1.8,0.9c-0.8,0-1.5-0.5-1.5-1.7v-4.2h-1v-0.3l1-0.4l0.8-1.9h0.3v2.1h1.8v0.4h-1.8v4.1
		c0,0.9,0.4,1.2,1,1.2c0.5,0,0.8-0.3,1-0.5L103.8,512.2z"/>
	<path d="M110.1,512.4c-0.2,0.3-0.7,0.7-1.3,0.7s-1-0.4-1.1-0.9c-0.4,0.5-1.2,0.9-1.8,0.9c-1,0-1.8-0.7-1.8-1.6c0-1.1,0.9-1.7,2-1.9
		l1.5-0.3v-1.1c0-0.8-0.3-1.2-1.2-1.2c-0.7,0-1.3,0.5-1.7,1.1l-0.3-0.3c0.5-0.8,1.3-1.4,2.2-1.4c1.4,0,2,0.6,2,1.7v3.4
		c0,0.8,0.3,1,0.6,1c0.2,0,0.5-0.1,0.6-0.3L110.1,512.4z M107.7,511.9v-2.2l-1,0.2c-0.8,0.2-1.4,0.6-1.4,1.4c0,0.7,0.5,1.2,1.1,1.2
		C106.8,512.5,107.3,512.3,107.7,511.9z"/>
	<path d="M113.2,513h-3v-0.3l1-0.1v-9.4l-1-0.2v-0.3l2.1-0.3v10.2l1,0.1V513z"/>
	<path d="M122.8,512.4c-0.2,0.3-0.7,0.7-1.3,0.7s-1-0.4-1.1-0.9c-0.4,0.5-1.2,0.9-1.8,0.9c-1,0-1.8-0.7-1.8-1.6c0-1.1,0.9-1.7,2-1.9
		l1.5-0.3v-1.1c0-0.8-0.3-1.2-1.2-1.2c-0.7,0-1.3,0.5-1.7,1.1l-0.3-0.3c0.5-0.8,1.3-1.4,2.2-1.4c1.4,0,2,0.6,2,1.7v3.4
		c0,0.8,0.3,1,0.6,1c0.2,0,0.5-0.1,0.6-0.3L122.8,512.4z M120.4,511.9v-2.2l-1,0.2c-0.8,0.2-1.4,0.6-1.4,1.4c0,0.7,0.5,1.2,1.1,1.2
		C119.5,512.5,120,512.3,120.4,511.9z"/>
	<path d="M129.1,507.3l-1.7-0.2l0,0c0.5,0.4,0.8,1,0.8,1.6c0,1.5-1.3,2.3-2.5,2.4c-1,0.1-1.4,0.5-1.4,0.9c0,0.2,0.1,0.3,0.2,0.4
		l2.8,0.3c0.8,0.1,1.7,0.6,1.7,1.6c0,1.6-1.4,2.6-3.5,2.6c-1.3,0-2.7-0.7-2.7-2c0-0.8,0.5-1.3,1.2-1.7c-0.3-0.2-0.5-0.5-0.5-0.9
		c0-0.5,0.4-1,1.3-1.3v0c-0.9-0.3-1.6-1.1-1.6-2.2c0-1.4,1.2-2.4,2.5-2.4c0.5,0,1,0.2,1.4,0.4l2-0.4V507.3z M128.1,514.8
		c0-0.6-0.4-1-1.1-1.1l-2.8-0.3c-0.4,0.2-0.6,0.8-0.6,1.3c0,0.9,0.7,1.9,2.3,1.9C126.7,516.6,128.1,516,128.1,514.8z M127,508.9
		c0-1.2-0.6-2-1.4-2s-1.4,0.8-1.4,2s0.6,2,1.4,2S127,510,127,508.9z"/>
	<path d="M134.9,509.3h-4.3c0,0.1,0,0.3,0,0.4c0,1.8,0.9,2.9,2.1,2.9c1,0,1.5-0.4,1.9-0.9l0.3,0.3c-0.3,0.5-1,1.2-2.4,1.2
		c-1.8,0-3.1-1.4-3.1-3.3c0-2,1.5-3.3,3-3.3s2.5,1,2.5,2.5V509.3z M133.7,508.9c0-1-0.3-2.1-1.4-2.1c-0.9,0-1.5,0.9-1.7,2.1H133.7z"
		/>
	<path d="M137.8,512.8c0,1.1-0.7,1.8-1.6,2.1l-0.2-0.4c0.7-0.2,1.2-0.7,1.2-1.5l-1.2-0.5c-0.1-0.1-0.1-0.3-0.1-0.4
		c0-0.4,0.3-0.7,0.8-0.7C137.3,511.5,137.8,512.1,137.8,512.8z"/>
	<path d="M151.7,507l-0.7,0.2l-2.5,6h-0.1l-1.8-4.5l-1.8,4.5h-0.1l-2.5-6.1l-0.7-0.1v-0.3h2.9v0.3l-1,0.1l1.7,4.3l1.3-3.3l-0.4-1
		l-0.7-0.1v-0.3h2.9v0.3l-1,0.1v0.1l1.7,4.3l1.7-4.3l-1-0.1v-0.3h2.3V507z"/>
	<path d="M157.3,509.3H153c0,0.1,0,0.3,0,0.4c0,1.8,0.9,2.9,2.1,2.9c1,0,1.5-0.4,1.9-0.9l0.3,0.3c-0.3,0.5-1,1.2-2.4,1.2
		c-1.8,0-3.1-1.4-3.1-3.3c0-2,1.5-3.3,3-3.3s2.5,1,2.5,2.5V509.3z M156.1,508.9c0-1-0.3-2.1-1.4-2.1c-0.9,0-1.5,0.9-1.7,2.1H156.1z"
		/>
	<path d="M167.3,509.8c0,2-1.4,3.3-3.1,3.3c-1.7,0-3.1-1.3-3.1-3.3c0-2,1.4-3.3,3.1-3.3C165.9,506.5,167.3,507.8,167.3,509.8z
		 M166.1,509.8c0-1.8-0.7-3-1.9-3s-1.9,1.1-1.9,3s0.7,3,1.9,3S166.1,511.7,166.1,509.8z"/>
	<path d="M172.7,502.5l-0.4,0.9c-0.6-0.4-1.1-0.7-1.4-0.7c-0.5,0-0.8,0.4-0.8,1.6v2.4h1.8v0.4H170v5.4l1.4,0.1v0.3H168v-0.3l1-0.1
		v-5.4h-1v-0.3l1-0.3v-1.2c0-1.8,0.7-3.3,2.5-3.3C172,502.2,172.3,502.3,172.7,502.5z"/>
	<path d="M176.3,512.2c-0.3,0.5-0.9,0.9-1.8,0.9c-0.8,0-1.5-0.5-1.5-1.7v-4.2h-1v-0.3l1-0.4l0.8-1.9h0.3v2.1h1.8v0.4h-1.8v4.1
		c0,0.9,0.4,1.2,1,1.2c0.5,0,0.8-0.3,1-0.5L176.3,512.2z"/>
	<path d="M182.1,509.3h-4.3c0,0.1,0,0.3,0,0.4c0,1.8,0.9,2.9,2.1,2.9c1,0,1.5-0.4,1.9-0.9l0.3,0.3c-0.3,0.5-1,1.2-2.4,1.2
		c-1.8,0-3.1-1.4-3.1-3.3c0-2,1.5-3.3,3-3.3s2.5,1,2.5,2.5V509.3z M180.9,508.9c0-1-0.3-2.1-1.4-2.1c-0.9,0-1.5,0.9-1.7,2.1H180.9z"
		/>
	<path d="M189.9,513h-3.1v-0.3l1.1-0.1v-5c-0.1-0.4-0.6-0.6-1.1-0.6c-1.2,0-1.9,1.2-1.9,2.7v2.9l1.1,0.1v0.3h-3.1v-0.3l1-0.1v-5.3
		l-1-0.2v-0.3l2-0.3v1.6h0c0.4-1.1,1.2-1.7,2.2-1.7c1.2,0,1.9,0.8,1.9,2v4.1l1,0.1V513z"/>
	<path d="M47.4,524.3l-1.7-0.2l0,0c0.5,0.4,0.8,1,0.8,1.6c0,1.5-1.3,2.3-2.5,2.4c-1,0.1-1.4,0.5-1.4,0.9c0,0.2,0.1,0.3,0.2,0.4
		l2.8,0.3c0.8,0.1,1.7,0.6,1.7,1.6c0,1.6-1.4,2.6-3.5,2.6c-1.3,0-2.7-0.7-2.7-2c0-0.8,0.5-1.3,1.2-1.7c-0.3-0.2-0.5-0.5-0.5-0.9
		c0-0.5,0.4-1,1.3-1.3v0c-0.9-0.3-1.6-1.1-1.6-2.2c0-1.4,1.2-2.4,2.5-2.4c0.5,0,1,0.2,1.4,0.4l2-0.4V524.3z M46.4,531.8
		c0-0.6-0.4-1-1.1-1.1l-2.8-0.3c-0.4,0.2-0.6,0.8-0.6,1.3c0,0.9,0.7,1.9,2.3,1.9C45.1,533.6,46.4,533,46.4,531.8z M45.4,525.9
		c0-1.2-0.6-2-1.4-2s-1.4,0.8-1.4,2s0.6,2,1.4,2S45.4,527,45.4,525.9z"/>
	<path d="M52.5,523.9l-0.4,0.9c-0.2-0.1-0.9-0.5-1.1-0.5c-0.7,0-1.2,1-1.2,2.4v3l1.4,0.1v0.3h-3.4v-0.3l1-0.1v-5.3l-1-0.2v-0.3
		l2-0.3v1.6h0c0.3-1.2,1.1-1.7,1.8-1.7C51.9,523.5,52.3,523.7,52.5,523.9z"/>
	<path d="M58.8,529.4c-0.2,0.3-0.7,0.7-1.3,0.7s-1-0.4-1.1-0.9c-0.4,0.5-1.2,0.9-1.8,0.9c-1,0-1.8-0.7-1.8-1.6c0-1.1,0.9-1.7,2-1.9
		l1.5-0.3v-1.1c0-0.8-0.3-1.2-1.2-1.2c-0.7,0-1.3,0.5-1.7,1.1l-0.3-0.3c0.5-0.8,1.3-1.4,2.2-1.4c1.4,0,2,0.6,2,1.7v3.4
		c0,0.8,0.3,1,0.6,1c0.2,0,0.5-0.1,0.6-0.3L58.8,529.4z M56.3,528.9v-2.2l-1,0.2c-0.8,0.2-1.4,0.6-1.4,1.4c0,0.7,0.5,1.2,1.1,1.2
		C55.5,529.5,56,529.3,56.3,528.9z"/>
	<path d="M64.7,524l-0.7,0.2l-2.5,6h-0.1l-2.5-6.1l-0.7-0.1v-0.3h2.9v0.3l-1,0.1l1.7,4.4l1.7-4.3l-1-0.1v-0.3h2.3V524z"/>
	<path d="M68.1,530h-3v-0.3l1-0.1v-5.3l-1-0.2v-0.3l2.1-0.3v6.1l1,0.1V530z M67.2,521.2c0,0.4-0.3,0.7-0.7,0.7s-0.7-0.3-0.7-0.7
		s0.3-0.7,0.7-0.7S67.2,520.9,67.2,521.2z"/>
	<path d="M72.8,529.2c-0.3,0.5-0.9,0.9-1.8,0.9c-0.8,0-1.5-0.5-1.5-1.7v-4.2h-1v-0.3l1-0.4l0.8-1.9h0.3v2.1h1.8v0.4h-1.8v4.1
		c0,0.9,0.4,1.2,1,1.2c0.5,0,0.8-0.3,1-0.5L72.8,529.2z"/>
	<path d="M79.2,529.4c-0.2,0.3-0.7,0.7-1.3,0.7s-1-0.4-1.1-0.9c-0.4,0.5-1.2,0.9-1.8,0.9c-1,0-1.8-0.7-1.8-1.6c0-1.1,0.9-1.7,2-1.9
		l1.5-0.3v-1.1c0-0.8-0.3-1.2-1.2-1.2c-0.7,0-1.3,0.5-1.7,1.1l-0.3-0.3c0.5-0.8,1.3-1.4,2.2-1.4c1.4,0,2,0.6,2,1.7v3.4
		c0,0.8,0.3,1,0.6,1c0.2,0,0.5-0.1,0.6-0.3L79.2,529.4z M76.7,528.9v-2.2l-1,0.2c-0.8,0.2-1.4,0.6-1.4,1.4c0,0.7,0.5,1.2,1.1,1.2
		C75.9,529.5,76.4,529.3,76.7,528.9z"/>
	<path d="M83.3,529.2c-0.3,0.5-0.9,0.9-1.8,0.9c-0.8,0-1.5-0.5-1.5-1.7v-4.2h-1v-0.3l1-0.4l0.8-1.9h0.3v2.1h1.8v0.4h-1.8v4.1
		c0,0.9,0.4,1.2,1,1.2c0.5,0,0.8-0.3,1-0.5L83.3,529.2z"/>
	<path d="M89.1,526.3h-4.3c0,0.1,0,0.3,0,0.4c0,1.8,0.9,2.9,2.1,2.9c1,0,1.5-0.4,1.9-0.9L89,529c-0.3,0.5-1,1.2-2.4,1.2
		c-1.8,0-3.1-1.4-3.1-3.3c0-2,1.5-3.3,3-3.3s2.5,1,2.5,2.5V526.3z M87.9,525.9c0-1-0.3-2.1-1.4-2.1c-0.9,0-1.5,0.9-1.7,2.1H87.9z"/>
	<path d="M96.9,529.2c-0.3,0.5-0.9,0.9-1.8,0.9c-0.8,0-1.5-0.5-1.5-1.7v-4.2h-1v-0.3l1-0.4l0.8-1.9h0.3v2.1h1.8v0.4h-1.8v4.1
		c0,0.9,0.4,1.2,1,1.2c0.5,0,0.8-0.3,1-0.5L96.9,529.2z"/>
	<path d="M103.4,526.8c0,2-1.4,3.3-3.1,3.3c-1.7,0-3.1-1.3-3.1-3.3c0-2,1.4-3.3,3.1-3.3C102,523.5,103.4,524.8,103.4,526.8z
		 M102.2,526.8c0-1.8-0.7-3-1.9-3s-1.9,1.1-1.9,3s0.7,3,1.9,3S102.2,528.7,102.2,526.8z"/>
	<path d="M113.7,524l-0.7,0.2l-2.5,6h-0.1l-1.8-4.5l-1.8,4.5h-0.1l-2.5-6.1l-0.7-0.1v-0.3h2.9v0.3l-1,0.1l1.7,4.3l1.3-3.3l-0.4-1
		l-0.7-0.1v-0.3h2.9v0.3l-1,0.1v0.1l1.7,4.3l1.7-4.3l-1-0.1v-0.3h2.3V524z"/>
	<path d="M119.6,529.4c-0.2,0.3-0.7,0.7-1.3,0.7s-1-0.4-1.1-0.9c-0.4,0.5-1.2,0.9-1.8,0.9c-1,0-1.8-0.7-1.8-1.6c0-1.1,0.9-1.7,2-1.9
		l1.5-0.3v-1.1c0-0.8-0.3-1.2-1.2-1.2c-0.7,0-1.3,0.5-1.7,1.1l-0.3-0.3c0.5-0.8,1.3-1.4,2.2-1.4c1.4,0,2,0.6,2,1.7v3.4
		c0,0.8,0.3,1,0.6,1c0.2,0,0.5-0.1,0.6-0.3L119.6,529.4z M117.2,528.9v-2.2l-1,0.2c-0.8,0.2-1.4,0.6-1.4,1.4c0,0.7,0.5,1.2,1.1,1.2
		C116.3,529.5,116.9,529.3,117.2,528.9z"/>
	<path d="M124.5,523.9l-0.4,0.9c-0.2-0.1-0.9-0.5-1.1-0.5c-0.7,0-1.2,1-1.2,2.4v3l1.4,0.1v0.3h-3.4v-0.3l1-0.1v-5.3l-1-0.2v-0.3
		l2-0.3v1.6h0c0.3-1.2,1.1-1.7,1.8-1.7C123.9,523.5,124.3,523.7,124.5,523.9z"/>
	<path d="M131.4,529.8l-2,0.3v-1l0,0c-0.4,0.6-0.9,1-1.9,1c-1.3,0-2.7-1.1-2.7-3.1c0-2.1,1.3-3.5,3-3.5c0.8,0,1.3,0.3,1.6,0.6v-4
		l-1-0.2v-0.3l2.1-0.3v10l1,0.2V529.8z M129.4,528.5v-3.7c-0.3-0.5-0.9-0.9-1.5-0.9c-1.4,0-1.9,1.5-1.9,3c0,1.6,0.7,2.7,1.9,2.7
		C128.7,529.6,129.2,529,129.4,528.5z"/>
	<path d="M136.3,528.2c0,1-0.8,1.9-2.1,1.9c-0.6,0-1.1-0.1-1.5-0.4l-0.1,0.4h-0.3l-0.1-2l0.3,0c0.2,1.1,0.8,1.6,1.7,1.6
		c0.7,0,1.2-0.5,1.2-1.2c0-0.8-0.7-1.1-1.4-1.4c-0.8-0.3-1.7-0.8-1.7-1.9c0-1,0.8-1.8,1.9-1.8c0.6,0,1,0.1,1.4,0.4l0.2-0.3h0.3
		l0,1.7h-0.3c-0.1-0.9-0.6-1.4-1.5-1.4c-0.7,0-1.1,0.5-1.1,1c0,0.8,0.7,1.1,1.4,1.4C135.4,526.7,136.3,527.1,136.3,528.2z"/>
	<path d="M144.5,528.2c0,1-0.8,1.9-2.1,1.9c-0.6,0-1.1-0.1-1.5-0.4l-0.1,0.4h-0.3l-0.1-2l0.3,0c0.2,1.1,0.8,1.6,1.7,1.6
		c0.7,0,1.2-0.5,1.2-1.2c0-0.8-0.7-1.1-1.4-1.4c-0.8-0.3-1.7-0.8-1.7-1.9c0-1,0.8-1.8,1.9-1.8c0.6,0,1,0.1,1.4,0.4l0.2-0.3h0.3
		l0,1.7h-0.3c-0.1-0.9-0.6-1.4-1.5-1.4c-0.7,0-1.1,0.5-1.1,1c0,0.8,0.7,1.1,1.4,1.4C143.6,526.7,144.5,527.1,144.5,528.2z"/>
	<path d="M151.3,529.4c-0.2,0.3-0.7,0.7-1.3,0.7s-1-0.4-1.1-0.9c-0.4,0.5-1.2,0.9-1.8,0.9c-1,0-1.8-0.7-1.8-1.6c0-1.1,0.9-1.7,2-1.9
		l1.5-0.3v-1.1c0-0.8-0.3-1.2-1.2-1.2c-0.7,0-1.3,0.5-1.7,1.1l-0.3-0.3c0.5-0.8,1.3-1.4,2.2-1.4c1.4,0,2,0.6,2,1.7v3.4
		c0,0.8,0.3,1,0.6,1c0.2,0,0.5-0.1,0.6-0.3L151.3,529.4z M148.8,528.9v-2.2l-1,0.2c-0.8,0.2-1.4,0.6-1.4,1.4c0,0.7,0.5,1.2,1.1,1.2
		C148,529.5,148.5,529.3,148.8,528.9z"/>
	<path d="M158.6,530h-3.1v-0.3l1.1-0.1v-5c-0.1-0.4-0.6-0.6-1.1-0.6c-1.2,0-1.9,1.2-1.9,2.7v2.9l1.1,0.1v0.3h-3.1v-0.3l1-0.1v-5.3
		l-1-0.2v-0.3l2-0.3v1.6h0c0.4-1.1,1.2-1.7,2.2-1.7c1.2,0,1.9,0.8,1.9,2v4.1l1,0.1V530z"/>
	<path d="M163.4,528.2c0,1-0.8,1.9-2.1,1.9c-0.6,0-1.1-0.1-1.5-0.4l-0.1,0.4h-0.3l-0.1-2l0.3,0c0.2,1.1,0.8,1.6,1.7,1.6
		c0.7,0,1.2-0.5,1.2-1.2c0-0.8-0.7-1.1-1.4-1.4c-0.8-0.3-1.7-0.8-1.7-1.9c0-1,0.8-1.8,1.9-1.8c0.6,0,1,0.1,1.4,0.4l0.2-0.3h0.3
		l0,1.7h-0.3c-0.1-0.9-0.6-1.4-1.5-1.4c-0.7,0-1.1,0.5-1.1,1c0,0.8,0.7,1.1,1.4,1.4C162.5,526.7,163.4,527.1,163.4,528.2z"/>
	<path d="M167.5,526.7l-3,0.4v-0.7l3-0.4V526.7z"/>
	<path d="M172.8,528.2c0,1-0.8,1.9-2.1,1.9c-0.6,0-1.1-0.1-1.5-0.4l-0.1,0.4h-0.3l-0.1-2l0.3,0c0.2,1.1,0.8,1.6,1.7,1.6
		c0.7,0,1.2-0.5,1.2-1.2c0-0.8-0.7-1.1-1.4-1.4c-0.8-0.3-1.7-0.8-1.7-1.9c0-1,0.8-1.8,1.9-1.8c0.6,0,1,0.1,1.4,0.4l0.2-0.3h0.3
		l0,1.7h-0.3c-0.1-0.9-0.6-1.4-1.5-1.4c-0.7,0-1.1,0.5-1.1,1c0,0.8,0.7,1.1,1.4,1.4C171.9,526.7,172.8,527.1,172.8,528.2z"/>
	<path d="M179.2,526.3h-4.3c0,0.1,0,0.3,0,0.4c0,1.8,0.9,2.9,2.1,2.9c1,0,1.5-0.4,1.9-0.9l0.3,0.3c-0.3,0.5-1,1.2-2.4,1.2
		c-1.8,0-3.1-1.4-3.1-3.3c0-2,1.5-3.3,3-3.3s2.5,1,2.5,2.5V526.3z M178,525.9c0-1-0.3-2.1-1.4-2.1c-0.9,0-1.5,0.9-1.7,2.1H178z"/>
	<path d="M184.6,523.9l-0.4,0.9c-0.2-0.1-0.9-0.5-1.1-0.5c-0.7,0-1.2,1-1.2,2.4v3l1.4,0.1v0.3H180v-0.3l1-0.1v-5.3l-1-0.2v-0.3
		l2-0.3v1.6h0c0.3-1.2,1.1-1.7,1.8-1.7C184.1,523.5,184.4,523.7,184.6,523.9z"/>
	<path d="M188.1,530h-3v-0.3l1-0.1v-5.3l-1-0.2v-0.3l2.1-0.3v6.1l1,0.1V530z M187.2,521.2c0,0.4-0.3,0.7-0.7,0.7s-0.7-0.3-0.7-0.7
		s0.3-0.7,0.7-0.7S187.2,520.9,187.2,521.2z"/>
	<path d="M193.5,519.5l-0.4,0.9c-0.6-0.4-1.1-0.7-1.4-0.7c-0.5,0-0.8,0.4-0.8,1.6v2.4h1.8v0.4h-1.8v5.4l1.4,0.1v0.3h-3.5v-0.3l1-0.1
		v-5.4h-1v-0.3l1-0.3v-1.2c0-1.8,0.7-3.3,2.5-3.3C192.8,519.2,193.1,519.3,193.5,519.5z"/>
	<path d="M197.3,528.2c0,1-0.8,1.9-2.1,1.9c-0.6,0-1.1-0.1-1.5-0.4l-0.1,0.4h-0.3l-0.1-2l0.3,0c0.2,1.1,0.8,1.6,1.7,1.6
		c0.7,0,1.2-0.5,1.2-1.2c0-0.8-0.7-1.1-1.4-1.4c-0.8-0.3-1.7-0.8-1.7-1.9c0-1,0.8-1.8,1.9-1.8c0.6,0,1,0.1,1.4,0.4l0.2-0.3h0.3
		l0,1.7h-0.3c-0.1-0.9-0.6-1.4-1.5-1.4c-0.7,0-1.1,0.5-1.1,1c0,0.8,0.7,1.1,1.4,1.4C196.4,526.7,197.3,527.1,197.3,528.2z"/>
	<path d="M47.6,543.6c0,2.1-1.2,3.5-3.4,3.5c-0.9,0-1.7-0.2-2.2-0.5v-9.5l-1-0.2v-0.3l2.1-0.3v5.1c0.4-0.6,1.1-1,2-1
		C46.4,540.5,47.6,541.6,47.6,543.6z M46.5,543.7c0-1.6-0.6-2.7-1.8-2.7c-0.8,0-1.3,0.4-1.7,1.1v4.2c0.2,0.2,0.8,0.4,1.4,0.4
		C45.7,546.7,46.5,545.4,46.5,543.7z"/>
	<path d="M53.9,543.3h-4.3c0,0.1,0,0.3,0,0.4c0,1.8,0.9,2.9,2.1,2.9c1,0,1.5-0.4,1.9-0.9l0.3,0.3c-0.3,0.5-1,1.2-2.4,1.2
		c-1.8,0-3.1-1.4-3.1-3.3c0-2,1.5-3.3,3-3.3s2.5,1,2.5,2.5V543.3z M52.7,542.9c0-1-0.3-2.1-1.4-2.1c-0.9,0-1.5,0.9-1.7,2.1H52.7z"/>
	<path d="M60.1,546c-0.3,0.5-1,1.2-2.4,1.2c-1.7,0-3.1-1.4-3.1-3.4c0-2,1.5-3.3,3.1-3.3c0.7,0,1.2,0.1,1.8,0.4l0.2-0.4H60l-0.1,1.8
		h-0.3c-0.2-0.9-0.8-1.5-1.8-1.5c-1.2,0-2,1.1-2,2.8c0,1.7,0.9,2.9,2.1,2.9c1,0,1.5-0.4,1.9-0.9L60.1,546z"/>
	<path d="M66.8,546.4c-0.2,0.3-0.7,0.7-1.3,0.7s-1-0.4-1.1-0.9c-0.4,0.5-1.2,0.9-1.8,0.9c-1,0-1.8-0.7-1.8-1.6c0-1.1,0.9-1.7,2-1.9
		l1.5-0.3v-1.1c0-0.8-0.3-1.2-1.2-1.2c-0.7,0-1.3,0.5-1.7,1.1l-0.3-0.3c0.5-0.8,1.3-1.4,2.2-1.4c1.4,0,2,0.6,2,1.7v3.4
		c0,0.8,0.3,1,0.6,1c0.2,0,0.5-0.1,0.6-0.3L66.8,546.4z M64.4,545.9v-2.2l-1,0.2c-0.8,0.2-1.4,0.6-1.4,1.4c0,0.7,0.5,1.2,1.1,1.2
		C63.5,546.5,64,546.3,64.4,545.9z"/>
	<path d="M73.8,546.8l-2,0.3v-1.6h0c-0.4,1.1-1.2,1.7-2.2,1.7c-1.2,0-1.9-0.8-1.9-2v-4l-1-0.2v-0.3h2.1v5.3c0.1,0.4,0.5,0.6,1.1,0.6
		c1.2,0,1.9-1.2,1.9-2.7v-2.7l-1.1-0.2v-0.3h2.2v5.7l1,0.2V546.8z"/>
	<path d="M78.6,545.2c0,1-0.8,1.9-2.1,1.9c-0.6,0-1.1-0.1-1.5-0.4l-0.1,0.4h-0.3l-0.1-2l0.3,0c0.2,1.1,0.8,1.6,1.7,1.6
		c0.7,0,1.2-0.5,1.2-1.2c0-0.8-0.7-1.1-1.4-1.4c-0.8-0.3-1.7-0.8-1.7-1.9c0-1,0.8-1.8,1.9-1.8c0.6,0,1,0.1,1.4,0.4l0.2-0.3h0.3
		l0,1.7H78c-0.1-0.9-0.6-1.4-1.5-1.4c-0.7,0-1.1,0.5-1.1,1c0,0.8,0.7,1.1,1.4,1.4C77.8,543.7,78.6,544.1,78.6,545.2z"/>
	<path d="M85,543.3h-4.3c0,0.1,0,0.3,0,0.4c0,1.8,0.9,2.9,2.1,2.9c1,0,1.5-0.4,1.9-0.9l0.3,0.3c-0.3,0.5-1,1.2-2.4,1.2
		c-1.8,0-3.1-1.4-3.1-3.3c0-2,1.5-3.3,3-3.3s2.5,1,2.5,2.5V543.3z M83.9,542.9c0-1-0.3-2.1-1.4-2.1c-0.9,0-1.5,0.9-1.7,2.1H83.9z"/>
	<path d="M92.9,546.2c-0.3,0.5-0.9,0.9-1.8,0.9c-0.8,0-1.5-0.5-1.5-1.7v-4.2h-1v-0.3l1-0.4l0.8-1.9h0.3v2.1h1.8v0.4h-1.8v4.1
		c0,0.9,0.4,1.2,1,1.2c0.5,0,0.8-0.3,1-0.5L92.9,546.2z"/>
	<path d="M100.2,547h-3.1v-0.3l1.1-0.1v-5c-0.2-0.4-0.6-0.6-1.1-0.6c-1.2,0-1.9,1.2-1.9,2.7v2.9l1.1,0.1v0.3h-3.1v-0.3l1-0.1v-9.4
		l-1-0.2v-0.3l2.1-0.3v5.7c0.4-1,1.1-1.6,2.2-1.6c1.2,0,1.9,0.8,1.9,2v4.1l1,0.1V547z"/>
	<path d="M106.2,543.3h-4.3c0,0.1,0,0.3,0,0.4c0,1.8,0.9,2.9,2.1,2.9c1,0,1.5-0.4,1.9-0.9l0.3,0.3c-0.3,0.5-1,1.2-2.4,1.2
		c-1.8,0-3.1-1.4-3.1-3.3c0-2,1.5-3.3,3-3.3s2.5,1,2.5,2.5V543.3z M105.1,542.9c0-1-0.3-2.1-1.4-2.1c-0.9,0-1.5,0.9-1.7,2.1H105.1z"
		/>
	<path d="M113,541l-0.7,0.2l-2.4,5.9l-1.3,3.8h-1l1.9-3.9l-2.3-5.8l-0.7-0.1v-0.3h2.9v0.3l-1,0.1l1.7,4.6l1.7-4.5l-1-0.1v-0.3h2.3
		V541z"/>
	<path d="M123.3,547h-3.1v-0.3l1.1-0.1v-5c-0.2-0.4-0.6-0.6-1.1-0.6c-1.2,0-1.9,1.2-1.9,2.7v2.9l1.1,0.1v0.3h-3.1v-0.3l1-0.1v-9.4
		l-1-0.2v-0.3l2.1-0.3v5.7c0.4-1,1.1-1.6,2.2-1.6c1.2,0,1.9,0.8,1.9,2v4.1l1,0.1V547z"/>
	<path d="M129.8,546.4c-0.2,0.3-0.7,0.7-1.3,0.7s-1-0.4-1.1-0.9c-0.4,0.5-1.2,0.9-1.8,0.9c-1,0-1.8-0.7-1.8-1.6c0-1.1,0.9-1.7,2-1.9
		l1.5-0.3v-1.1c0-0.8-0.3-1.2-1.2-1.2c-0.7,0-1.3,0.5-1.7,1.1l-0.3-0.3c0.5-0.8,1.3-1.4,2.2-1.4c1.4,0,2,0.6,2,1.7v3.4
		c0,0.8,0.3,1,0.6,1c0.2,0,0.5-0.1,0.6-0.3L129.8,546.4z M127.4,545.9v-2.2l-1,0.2c-0.8,0.2-1.4,0.6-1.4,1.4c0,0.7,0.5,1.2,1.1,1.2
		C126.5,546.5,127,546.3,127.4,545.9z"/>
	<path d="M135.7,541l-0.7,0.2l-2.5,6h-0.1l-2.5-6.1l-0.7-0.1v-0.3h2.9v0.3l-1,0.1l1.7,4.4l1.7-4.3l-1-0.1v-0.3h2.3V541z"/>
	<path d="M141.3,543.3H137c0,0.1,0,0.3,0,0.4c0,1.8,0.9,2.9,2.1,2.9c1,0,1.5-0.4,1.9-0.9l0.3,0.3c-0.3,0.5-1,1.2-2.4,1.2
		c-1.8,0-3.1-1.4-3.1-3.3c0-2,1.5-3.3,3-3.3s2.5,1,2.5,2.5V543.3z M140.1,542.9c0-1-0.3-2.1-1.4-2.1c-0.9,0-1.5,0.9-1.7,2.1H140.1z"
		/>
	<path d="M151.1,546.4c-0.2,0.3-0.7,0.7-1.3,0.7s-1-0.4-1.1-0.9c-0.4,0.5-1.2,0.9-1.8,0.9c-1,0-1.8-0.7-1.8-1.6c0-1.1,0.9-1.7,2-1.9
		l1.5-0.3v-1.1c0-0.8-0.3-1.2-1.2-1.2c-0.7,0-1.3,0.5-1.7,1.1l-0.3-0.3c0.5-0.8,1.3-1.4,2.2-1.4c1.4,0,2,0.6,2,1.7v3.4
		c0,0.8,0.3,1,0.6,1c0.2,0,0.5-0.1,0.6-0.3L151.1,546.4z M148.6,545.9v-2.2l-1,0.2c-0.8,0.2-1.4,0.6-1.4,1.4c0,0.7,0.5,1.2,1.1,1.2
		C147.8,546.5,148.3,546.3,148.6,545.9z"/>
	<path d="M154.2,547h-3v-0.3l1-0.1v-9.4l-1-0.2v-0.3l2.1-0.3v10.2l1,0.1V547z"/>
	<path d="M164.5,541l-0.7,0.2l-2.5,6h-0.1l-1.8-4.5l-1.8,4.5h-0.1l-2.5-6.1l-0.7-0.1v-0.3h2.9v0.3l-1,0.1l1.7,4.3l1.3-3.3l-0.4-1
		L158,541v-0.3h2.9v0.3l-1,0.1v0.1l1.7,4.3l1.7-4.3l-1-0.1v-0.3h2.3V541z"/>
	<path d="M170.4,546.4c-0.2,0.3-0.7,0.7-1.3,0.7s-1-0.4-1.1-0.9c-0.4,0.5-1.2,0.9-1.8,0.9c-1,0-1.8-0.7-1.8-1.6c0-1.1,0.9-1.7,2-1.9
		l1.5-0.3v-1.1c0-0.8-0.3-1.2-1.2-1.2c-0.7,0-1.3,0.5-1.7,1.1l-0.3-0.3c0.5-0.8,1.3-1.4,2.2-1.4c1.4,0,2,0.6,2,1.7v3.4
		c0,0.8,0.3,1,0.6,1c0.2,0,0.5-0.1,0.6-0.3L170.4,546.4z M168,545.9v-2.2l-1,0.2c-0.8,0.2-1.4,0.6-1.4,1.4c0,0.7,0.5,1.2,1.1,1.2
		C167.1,546.5,167.7,546.3,168,545.9z"/>
	<path d="M176.4,541l-0.7,0.2l-2.4,5.9l-1.3,3.8h-1l1.9-3.9l-2.3-5.8l-0.7-0.1v-0.3h2.9v0.3l-1,0.1l1.7,4.6l1.7-4.5l-1-0.1v-0.3h2.3
		V541z"/>
	<path d="M180.8,545.2c0,1-0.8,1.9-2.1,1.9c-0.6,0-1.1-0.1-1.5-0.4l-0.1,0.4h-0.3l-0.1-2l0.3,0c0.2,1.1,0.8,1.6,1.7,1.6
		c0.7,0,1.2-0.5,1.2-1.2c0-0.8-0.7-1.1-1.4-1.4c-0.8-0.3-1.7-0.8-1.7-1.9c0-1,0.8-1.8,1.9-1.8c0.6,0,1,0.1,1.4,0.4l0.2-0.3h0.3
		l0,1.7h-0.3c-0.1-0.9-0.6-1.4-1.5-1.4c-0.7,0-1.1,0.5-1.1,1c0,0.8,0.7,1.1,1.4,1.4C179.9,543.7,180.8,544.1,180.8,545.2z"/>
	<path d="M47.6,560.6c0,2.1-1.2,3.5-3.4,3.5c-0.9,0-1.7-0.2-2.2-0.5v-9.5l-1-0.2v-0.3l2.1-0.3v5.1c0.4-0.6,1.1-1,2-1
		C46.4,557.5,47.6,558.6,47.6,560.6z M46.5,560.7c0-1.6-0.6-2.7-1.8-2.7c-0.8,0-1.3,0.4-1.7,1.1v4.2c0.2,0.2,0.8,0.4,1.4,0.4
		C45.7,563.7,46.5,562.4,46.5,560.7z"/>
	<path d="M53.9,560.3h-4.3c0,0.1,0,0.3,0,0.4c0,1.8,0.9,2.9,2.1,2.9c1,0,1.5-0.4,1.9-0.9l0.3,0.3c-0.3,0.5-1,1.2-2.4,1.2
		c-1.8,0-3.1-1.4-3.1-3.3c0-2,1.5-3.3,3-3.3s2.5,1,2.5,2.5V560.3z M52.7,559.9c0-1-0.3-2.1-1.4-2.1c-0.9,0-1.5,0.9-1.7,2.1H52.7z"/>
	<path d="M60.2,560.3h-4.3c0,0.1,0,0.3,0,0.4c0,1.8,0.9,2.9,2.1,2.9c1,0,1.5-0.4,1.9-0.9l0.3,0.3c-0.3,0.5-1,1.2-2.4,1.2
		c-1.8,0-3.1-1.4-3.1-3.3c0-2,1.5-3.3,3-3.3s2.5,1,2.5,2.5V560.3z M59.1,559.9c0-1-0.3-2.1-1.4-2.1c-0.9,0-1.5,0.9-1.7,2.1H59.1z"/>
	<path d="M68.1,564h-3.1v-0.3l1.1-0.1v-5c-0.1-0.4-0.6-0.6-1.1-0.6c-1.2,0-1.9,1.2-1.9,2.7v2.9l1.1,0.1v0.3H61v-0.3l1-0.1v-5.3
		l-1-0.2v-0.3l2-0.3v1.6h0c0.4-1.1,1.2-1.7,2.2-1.7c1.2,0,1.9,0.8,1.9,2v4.1l1,0.1V564z"/>
	<path d="M77,563c-0.3,0.5-1,1.2-2.4,1.2c-1.7,0-3.1-1.4-3.1-3.4c0-2,1.5-3.3,3.1-3.3c0.7,0,1.2,0.1,1.8,0.4l0.2-0.4h0.3l-0.1,1.8
		h-0.3c-0.2-0.9-0.8-1.5-1.8-1.5c-1.2,0-2,1.1-2,2.8c0,1.7,0.9,2.9,2.1,2.9c1,0,1.5-0.4,1.9-0.9L77,563z"/>
	<path d="M83.8,560.8c0,2-1.4,3.3-3.1,3.3c-1.7,0-3.1-1.3-3.1-3.3c0-2,1.4-3.3,3.1-3.3C82.5,557.5,83.8,558.8,83.8,560.8z
		 M82.6,560.8c0-1.8-0.7-3-1.9-3s-1.9,1.1-1.9,3s0.7,3,1.9,3S82.6,562.7,82.6,560.8z"/>
	<path d="M91.6,564h-3.1v-0.3l1.1-0.1v-5c-0.1-0.4-0.6-0.6-1.1-0.6c-1.2,0-1.9,1.2-1.9,2.7v2.9l1.1,0.1v0.3h-3.1v-0.3l1-0.1v-5.3
		l-1-0.2v-0.3l2-0.3v1.6h0c0.4-1.1,1.2-1.7,2.2-1.7c1.2,0,1.9,0.8,1.9,2v4.1l1,0.1V564z"/>
	<path d="M96.5,562.2c0,1-0.8,1.9-2.1,1.9c-0.6,0-1.1-0.1-1.5-0.4l-0.1,0.4h-0.3l-0.1-2l0.3,0c0.2,1.1,0.8,1.6,1.7,1.6
		c0.7,0,1.2-0.5,1.2-1.2c0-0.8-0.7-1.1-1.4-1.4c-0.8-0.3-1.7-0.8-1.7-1.9c0-1,0.8-1.8,1.9-1.8c0.6,0,1,0.1,1.4,0.4l0.2-0.3h0.3
		l0,1.7h-0.3c-0.1-0.9-0.6-1.4-1.5-1.4c-0.7,0-1.1,0.5-1.1,1c0,0.8,0.7,1.1,1.4,1.4C95.6,560.7,96.5,561.1,96.5,562.2z"/>
	<path d="M100.4,564h-3v-0.3l1-0.1v-5.3l-1-0.2v-0.3l2.1-0.3v6.1l1,0.1V564z M99.5,555.2c0,0.4-0.3,0.7-0.7,0.7s-0.7-0.3-0.7-0.7
		s0.3-0.7,0.7-0.7S99.5,554.9,99.5,555.2z"/>
	<path d="M107.6,563.8l-2,0.3v-1l0,0c-0.4,0.6-0.9,1-1.9,1c-1.3,0-2.7-1.1-2.7-3.1c0-2.1,1.3-3.5,3-3.5c0.8,0,1.3,0.3,1.6,0.6v-4
		l-1-0.2v-0.3l2.1-0.3v10l1,0.2V563.8z M105.6,562.5v-3.7c-0.3-0.5-0.9-0.9-1.5-0.9c-1.4,0-1.9,1.5-1.9,3c0,1.6,0.7,2.7,1.9,2.7
		C105,563.6,105.4,563,105.6,562.5z"/>
	<path d="M113.7,560.3h-4.3c0,0.1,0,0.3,0,0.4c0,1.8,0.9,2.9,2.1,2.9c1,0,1.5-0.4,1.9-0.9l0.3,0.3c-0.3,0.5-1,1.2-2.4,1.2
		c-1.8,0-3.1-1.4-3.1-3.3c0-2,1.5-3.3,3-3.3s2.5,1,2.5,2.5V560.3z M112.5,559.9c0-1-0.3-2.1-1.4-2.1c-0.9,0-1.5,0.9-1.7,2.1H112.5z"
		/>
	<path d="M119.1,557.9l-0.4,0.9c-0.2-0.1-0.9-0.5-1.1-0.5c-0.7,0-1.2,1-1.2,2.4v3l1.4,0.1v0.3h-3.4v-0.3l1-0.1v-5.3l-1-0.2v-0.3
		l2-0.3v1.6h0c0.3-1.2,1.1-1.7,1.8-1.7C118.6,557.5,118.9,557.7,119.1,557.9z"/>
	<path d="M125,560.3h-4.3c0,0.1,0,0.3,0,0.4c0,1.8,0.9,2.9,2.1,2.9c1,0,1.5-0.4,1.9-0.9l0.3,0.3c-0.3,0.5-1,1.2-2.4,1.2
		c-1.8,0-3.1-1.4-3.1-3.3c0-2,1.5-3.3,3-3.3s2.5,1,2.5,2.5V560.3z M123.8,559.9c0-1-0.3-2.1-1.4-2.1c-0.9,0-1.5,0.9-1.7,2.1H123.8z"
		/>
	<path d="M132.4,563.8l-2,0.3v-1l0,0c-0.4,0.6-0.9,1-1.9,1c-1.3,0-2.7-1.1-2.7-3.1c0-2.1,1.3-3.5,3-3.5c0.8,0,1.3,0.3,1.6,0.6v-4
		l-1-0.2v-0.3l2.1-0.3v10l1,0.2V563.8z M130.3,562.5v-3.7c-0.3-0.5-0.9-0.9-1.5-0.9c-1.4,0-1.9,1.5-1.9,3c0,1.6,0.7,2.7,1.9,2.7
		C129.7,563.6,130.1,563,130.3,562.5z"/>
	<path d="M146.7,564h-3.1v-0.3l1.1-0.1v-5c-0.2-0.4-0.4-0.6-1-0.6c-1,0-1.8,1.1-1.8,2.7v2.9l1.1,0.1v0.3h-3.2v-0.3l1.1-0.1v-5
		c-0.2-0.4-0.4-0.6-1-0.6c-1,0-1.8,1.1-1.8,2.7v2.9l1.1,0.1v0.3h-3.1v-0.3l1-0.1v-5.3l-1-0.2v-0.3l2-0.3v1.6h0
		c0.3-0.9,1.1-1.7,2.1-1.7c1,0,1.6,0.6,1.8,1.7h0c0.3-1,1.1-1.7,2.1-1.7c1.1,0,1.8,0.8,1.8,2v4.1l1,0.1V564z"/>
	<path d="M153.4,560.8c0,2-1.4,3.3-3.1,3.3c-1.7,0-3.1-1.3-3.1-3.3c0-2,1.4-3.3,3.1-3.3C152.1,557.5,153.4,558.8,153.4,560.8z
		 M152.2,560.8c0-1.8-0.7-3-1.9-3s-1.9,1.1-1.9,3s0.7,3,1.9,3S152.2,562.7,152.2,560.8z"/>
	<path d="M158.8,557.9l-0.4,0.9c-0.2-0.1-0.9-0.5-1.1-0.5c-0.7,0-1.2,1-1.2,2.4v3l1.4,0.1v0.3h-3.4v-0.3l1-0.1v-5.3l-1-0.2v-0.3
		l2-0.3v1.6h0c0.3-1.2,1.1-1.7,1.8-1.7C158.2,557.5,158.6,557.7,158.8,557.9z"/>
	<path d="M164.6,560.3h-4.3c0,0.1,0,0.3,0,0.4c0,1.8,0.9,2.9,2.1,2.9c1,0,1.5-0.4,1.9-0.9l0.3,0.3c-0.3,0.5-1,1.2-2.4,1.2
		c-1.8,0-3.1-1.4-3.1-3.3c0-2,1.5-3.3,3-3.3s2.5,1,2.5,2.5V560.3z M163.5,559.9c0-1-0.3-2.1-1.4-2.1c-0.9,0-1.5,0.9-1.7,2.1H163.5z"
		/>
	<path d="M43.1,573.4c0,0.4-0.3,0.6-0.7,0.6c-0.6,0-1-0.5-1-1.2c0-1,0.6-1.7,1.3-2l0.3,0.4c-0.7,0.3-1,0.8-1,1.4l1,0.3
		C43.1,573,43.1,573.2,43.1,573.4z M45.5,573.4c0,0.4-0.3,0.6-0.7,0.6c-0.6,0-1-0.5-1-1.2c0-1,0.6-1.7,1.3-2l0.3,0.4
		c-0.7,0.3-1,0.8-1,1.4l1,0.3C45.5,573,45.5,573.2,45.5,573.4z"/>
	<path d="M57.3,581h-3.1v-0.3l1.1-0.1v-5c-0.2-0.4-0.4-0.6-1-0.6c-1,0-1.8,1.1-1.8,2.7v2.9l1.1,0.1v0.3h-3.2v-0.3l1.1-0.1v-5
		c-0.2-0.4-0.4-0.6-1-0.6c-1,0-1.8,1.1-1.8,2.7v2.9l1.1,0.1v0.3h-3.1v-0.3l1-0.1v-5.3l-1-0.2v-0.3l2-0.3v1.6h0
		c0.3-0.9,1.1-1.7,2.1-1.7c1,0,1.6,0.6,1.8,1.7h0c0.3-1,1.1-1.7,2.1-1.7c1.1,0,1.8,0.8,1.8,2v4.1l1,0.1V581z"/>
	<path d="M63.9,577.8c0,2-1.4,3.3-3.1,3.3c-1.7,0-3.1-1.3-3.1-3.3c0-2,1.4-3.3,3.1-3.3C62.6,574.5,63.9,575.8,63.9,577.8z
		 M62.7,577.8c0-1.8-0.7-3-1.9-3s-1.9,1.1-1.9,3s0.7,3,1.9,3S62.7,579.7,62.7,577.8z"/>
	<path d="M71.3,580.8l-2,0.3v-1l0,0c-0.4,0.6-0.9,1-1.9,1c-1.3,0-2.7-1.1-2.7-3.1c0-2.1,1.3-3.5,3-3.5c0.8,0,1.3,0.3,1.6,0.6v-4
		l-1-0.2v-0.3l2.1-0.3v10l1,0.2V580.8z M69.3,579.5v-3.7c-0.3-0.5-0.9-0.9-1.5-0.9c-1.4,0-1.9,1.5-1.9,3c0,1.6,0.7,2.7,1.9,2.7
		C68.6,580.6,69,580,69.3,579.5z"/>
	<path d="M77.4,577.3H73c0,0.1,0,0.3,0,0.4c0,1.8,0.9,2.9,2.1,2.9c1,0,1.5-0.4,1.9-0.9l0.3,0.3c-0.3,0.5-1,1.2-2.4,1.2
		c-1.8,0-3.1-1.4-3.1-3.3c0-2,1.5-3.3,3-3.3s2.5,1,2.5,2.5V577.3z M76.2,576.9c0-1-0.3-2.1-1.4-2.1c-0.9,0-1.5,0.9-1.7,2.1H76.2z"/>
	<path d="M82.8,574.9l-0.4,0.9c-0.2-0.1-0.9-0.5-1.1-0.5c-0.7,0-1.2,1-1.2,2.4v3l1.4,0.1v0.3h-3.4v-0.3l1-0.1v-5.3l-1-0.2v-0.3
		l2-0.3v1.6h0c0.3-1.2,1.1-1.7,1.8-1.7C82.2,574.5,82.6,574.7,82.8,574.9z"/>
	<path d="M90.4,581h-3.1v-0.3l1.1-0.1v-5c-0.1-0.4-0.6-0.6-1.1-0.6c-1.2,0-1.9,1.2-1.9,2.7v2.9l1.1,0.1v0.3h-3.1v-0.3l1-0.1v-5.3
		l-1-0.2v-0.3l2-0.3v1.6h0c0.4-1.1,1.2-1.7,2.2-1.7c1.2,0,1.9,0.8,1.9,2v4.1l1,0.1V581z"/>
	<path d="M91.9,572c0,1-0.6,1.6-1.3,2l-0.3-0.4c0.7-0.3,1.1-0.8,1.1-1.4l-1-0.3c-0.1-0.1-0.1-0.3-0.1-0.4c0-0.4,0.3-0.6,0.7-0.6
		C91.5,570.8,91.9,571.4,91.9,572z M94.3,572c0,1-0.6,1.6-1.3,2l-0.3-0.4c0.7-0.3,1.1-0.8,1.1-1.4l-1-0.3c-0.1-0.1-0.1-0.3-0.1-0.4
		c0-0.4,0.3-0.6,0.7-0.6C93.9,570.8,94.3,571.4,94.3,572z"/>
	<path d="M95.5,580.3c0,0.4-0.3,0.8-0.8,0.8s-0.8-0.3-0.8-0.8c0-0.4,0.3-0.8,0.8-0.8S95.5,579.9,95.5,580.3z"/>
	<path d="M107.3,578.2c0,1.6-1.2,2.7-3.9,2.7H100v-0.3l1.2-0.1v-8.8l-1.2-0.1v-0.3h3.7c1.8,0,2.9,0.7,2.9,2.3c0,1.2-0.9,2-1.9,2.2v0
		C106,575.9,107.3,576.6,107.3,578.2z M105.4,573.7c0-1.3-0.8-2-2.1-2c-0.4,0-0.7,0-1,0.1v3.9h0.9
		C104.6,575.7,105.4,574.9,105.4,573.7z M106.1,578.4c0-1.2-0.9-2.2-2.6-2.2h-1.2v4.3c0.4,0.1,0.7,0.1,1.3,0.1
		C105.2,580.6,106.1,579.6,106.1,578.4z"/>
	<path d="M114.8,580.8l-2,0.3v-1.6h0c-0.4,1.1-1.2,1.7-2.2,1.7c-1.2,0-1.9-0.8-1.9-2v-4l-1-0.2v-0.3h2.1v5.3
		c0.1,0.4,0.5,0.6,1.1,0.6c1.2,0,1.9-1.2,1.9-2.7v-2.7l-1.1-0.2v-0.3h2.2v5.7l1,0.2V580.8z"/>
	<path d="M119.4,580.2c-0.3,0.5-0.9,0.9-1.8,0.9c-0.8,0-1.5-0.5-1.5-1.7v-4.2h-1v-0.3l1-0.4l0.8-1.9h0.3v2.1h1.8v0.4h-1.8v4.1
		c0,0.9,0.4,1.2,1,1.2c0.5,0,0.8-0.3,1-0.5L119.4,580.2z"/>
	<path d="M132.7,575l-0.7,0.2l-2.5,6h-0.1l-1.8-4.5l-1.8,4.5h-0.1l-2.5-6.1l-0.7-0.1v-0.3h2.9v0.3l-1,0.1l1.7,4.3l1.3-3.3l-0.4-1
		l-0.7-0.1v-0.3h2.9v0.3l-1,0.1v0.1l1.7,4.3l1.7-4.3l-1-0.1v-0.3h2.3V575z"/>
	<path d="M138.3,577.3h-4.3c0,0.1,0,0.3,0,0.4c0,1.8,0.9,2.9,2.1,2.9c1,0,1.5-0.4,1.9-0.9l0.3,0.3c-0.3,0.5-1,1.2-2.4,1.2
		c-1.8,0-3.1-1.4-3.1-3.3c0-2,1.5-3.3,3-3.3s2.5,1,2.5,2.5V577.3z M137.1,576.9c0-1-0.3-2.1-1.4-2.1c-0.9,0-1.5,0.9-1.7,2.1H137.1z"
		/>
	<path d="M140.3,572c0,1-0.6,1.6-1.4,2l-0.3-0.4c0.7-0.3,1-0.8,1-1.4l-1.1-0.3c-0.1-0.1-0.1-0.3-0.1-0.4c0-0.4,0.3-0.6,0.7-0.6
		C139.9,570.8,140.3,571.4,140.3,572z"/>
	<path d="M145.2,574.9l-0.4,0.9c-0.2-0.1-0.9-0.5-1.1-0.5c-0.7,0-1.2,1-1.2,2.4v3l1.4,0.1v0.3h-3.4v-0.3l1-0.1v-5.3l-1-0.2v-0.3
		l2-0.3v1.6h0c0.3-1.2,1.1-1.7,1.8-1.7C144.7,574.5,145,574.7,145.2,574.9z"/>
	<path d="M151.1,577.3h-4.3c0,0.1,0,0.3,0,0.4c0,1.8,0.9,2.9,2.1,2.9c1,0,1.5-0.4,1.9-0.9l0.3,0.3c-0.3,0.5-1,1.2-2.4,1.2
		c-1.8,0-3.1-1.4-3.1-3.3c0-2,1.5-3.3,3-3.3s2.5,1,2.5,2.5V577.3z M149.9,576.9c0-1-0.3-2.1-1.4-2.1c-0.9,0-1.5,0.9-1.7,2.1H149.9z"
		/>
	<path d="M159.2,579.2c0,1-0.8,1.9-2.1,1.9c-0.6,0-1.1-0.1-1.5-0.4l-0.1,0.4h-0.3l-0.1-2l0.3,0c0.2,1.1,0.8,1.6,1.7,1.6
		c0.7,0,1.2-0.5,1.2-1.2c0-0.8-0.7-1.1-1.4-1.4c-0.8-0.3-1.7-0.8-1.7-1.9c0-1,0.8-1.8,1.9-1.8c0.6,0,1,0.1,1.4,0.4l0.2-0.3h0.3
		l0,1.7h-0.3c-0.1-0.9-0.6-1.4-1.5-1.4c-0.7,0-1.1,0.5-1.1,1c0,0.8,0.7,1.1,1.4,1.4C158.3,577.7,159.2,578.1,159.2,579.2z"/>
	<path d="M165.6,577.3h-4.3c0,0.1,0,0.3,0,0.4c0,1.8,0.9,2.9,2.1,2.9c1,0,1.5-0.4,1.9-0.9l0.3,0.3c-0.3,0.5-1,1.2-2.4,1.2
		c-1.8,0-3.1-1.4-3.1-3.3c0-2,1.5-3.3,3-3.3s2.5,1,2.5,2.5V577.3z M164.4,576.9c0-1-0.3-2.1-1.4-2.1c-0.9,0-1.5,0.9-1.7,2.1H164.4z"
		/>
	<path d="M171.9,577.3h-4.3c0,0.1,0,0.3,0,0.4c0,1.8,0.9,2.9,2.1,2.9c1,0,1.5-0.4,1.9-0.9l0.3,0.3c-0.3,0.5-1,1.2-2.4,1.2
		c-1.8,0-3.1-1.4-3.1-3.3c0-2,1.5-3.3,3-3.3s2.5,1,2.5,2.5V577.3z M170.7,576.9c0-1-0.3-2.1-1.4-2.1c-0.9,0-1.5,0.9-1.7,2.1H170.7z"
		/>
	<path d="M175.7,581h-3v-0.3l1-0.1v-5.3l-1-0.2v-0.3l2.1-0.3v6.1l1,0.1V581z M174.8,572.2c0,0.4-0.3,0.7-0.7,0.7s-0.7-0.3-0.7-0.7
		s0.3-0.7,0.7-0.7S174.8,571.9,174.8,572.2z"/>
	<path d="M183.4,581h-3.1v-0.3l1.1-0.1v-5c-0.1-0.4-0.6-0.6-1.1-0.6c-1.2,0-1.9,1.2-1.9,2.7v2.9l1.1,0.1v0.3h-3.1v-0.3l1-0.1v-5.3
		l-1-0.2v-0.3l2-0.3v1.6h0c0.4-1.1,1.2-1.7,2.2-1.7c1.2,0,1.9,0.8,1.9,2v4.1l1,0.1V581z"/>
	<path d="M190,575.3l-1.7-0.2l0,0c0.5,0.4,0.8,1,0.8,1.6c0,1.5-1.3,2.3-2.5,2.4c-1,0.1-1.4,0.5-1.4,0.9c0,0.2,0.1,0.3,0.2,0.4
		l2.8,0.3c0.8,0.1,1.7,0.6,1.7,1.6c0,1.6-1.4,2.6-3.5,2.6c-1.3,0-2.7-0.7-2.7-2c0-0.8,0.5-1.3,1.2-1.7c-0.3-0.2-0.5-0.5-0.5-0.9
		c0-0.5,0.4-1,1.3-1.3v0c-0.9-0.3-1.6-1.1-1.6-2.2c0-1.4,1.2-2.4,2.5-2.4c0.5,0,1,0.2,1.4,0.4l2-0.4V575.3z M189,582.8
		c0-0.6-0.4-1-1.1-1.1l-2.8-0.3c-0.4,0.2-0.6,0.8-0.6,1.3c0,0.9,0.7,1.9,2.3,1.9C187.6,584.6,189,584,189,582.8z M187.9,576.9
		c0-1.2-0.6-2-1.4-2s-1.4,0.8-1.4,2s0.6,2,1.4,2S187.9,578,187.9,576.9z"/>
	<path d="M199.4,580.4c-0.2,0.3-0.7,0.7-1.3,0.7s-1-0.4-1.1-0.9c-0.4,0.5-1.2,0.9-1.8,0.9c-1,0-1.8-0.7-1.8-1.6c0-1.1,0.9-1.7,2-1.9
		l1.5-0.3v-1.1c0-0.8-0.3-1.2-1.2-1.2c-0.7,0-1.3,0.5-1.7,1.1l-0.3-0.3c0.5-0.8,1.3-1.4,2.2-1.4c1.4,0,2,0.6,2,1.7v3.4
		c0,0.8,0.3,1,0.6,1c0.2,0,0.5-0.1,0.6-0.3L199.4,580.4z M196.9,579.9v-2.2l-1,0.2c-0.8,0.2-1.4,0.6-1.4,1.4c0,0.7,0.5,1.2,1.1,1.2
		C196.1,580.5,196.6,580.3,196.9,579.9z"/>
	<path d="M52.2,598h-3.1v-0.3l1.1-0.1v-5c-0.2-0.4-0.4-0.6-1-0.6c-1,0-1.8,1.1-1.8,2.7v2.9l1.1,0.1v0.3h-3.2v-0.3l1.1-0.1v-5
		c-0.2-0.4-0.4-0.6-1-0.6c-1,0-1.8,1.1-1.8,2.7v2.9l1.1,0.1v0.3h-3.1v-0.3l1-0.1v-5.3l-1-0.2v-0.3l2-0.3v1.6h0
		c0.3-0.9,1.1-1.7,2.1-1.7c1,0,1.6,0.6,1.8,1.7h0c0.3-1,1.1-1.7,2.1-1.7c1.1,0,1.8,0.8,1.8,2v4.1l1,0.1V598z"/>
	<path d="M58.7,597.4c-0.2,0.3-0.7,0.7-1.3,0.7s-1-0.4-1.1-0.9c-0.4,0.5-1.2,0.9-1.8,0.9c-1,0-1.8-0.7-1.8-1.6c0-1.1,0.9-1.7,2-1.9
		l1.5-0.3v-1.1c0-0.8-0.3-1.2-1.2-1.2c-0.7,0-1.3,0.5-1.7,1.1l-0.3-0.3c0.5-0.8,1.3-1.4,2.2-1.4c1.4,0,2,0.6,2,1.7v3.4
		c0,0.8,0.3,1,0.6,1c0.2,0,0.5-0.1,0.6-0.3L58.7,597.4z M56.2,596.9v-2.2l-1,0.2c-0.8,0.2-1.4,0.6-1.4,1.4c0,0.7,0.5,1.2,1.1,1.2
		C55.4,597.5,55.9,597.3,56.2,596.9z"/>
	<path d="M63.5,591.9l-0.4,0.9c-0.2-0.1-0.9-0.5-1.1-0.5c-0.7,0-1.2,1-1.2,2.4v3l1.4,0.1v0.3h-3.4v-0.3l1-0.1v-5.3l-1-0.2v-0.3
		l2-0.3v1.6h0c0.3-1.2,1.1-1.7,1.8-1.7C63,591.5,63.3,591.7,63.5,591.9z"/>
	<path d="M70.6,598h-1.7l-0.3-0.4l-2.3-2.8h-0.4v2.8l1,0.1v0.3h-3.1v-0.3l1-0.1v-9.4l-1-0.2v-0.3l2.1-0.3v7.2h0l2.6-2.4v0l-1-0.1
		v-0.3h2.6v0.3l-0.9,0.1l-2.2,2l2.9,3.4l0.6,0.2V598z"/>
	<path d="M76.2,594.3h-4.3c0,0.1,0,0.3,0,0.4c0,1.8,0.9,2.9,2.1,2.9c1,0,1.5-0.4,1.9-0.9l0.3,0.3c-0.3,0.5-1,1.2-2.4,1.2
		c-1.8,0-3.1-1.4-3.1-3.3c0-2,1.5-3.3,3-3.3s2.5,1,2.5,2.5V594.3z M75.1,593.9c0-1-0.3-2.1-1.4-2.1c-0.9,0-1.5,0.9-1.7,2.1H75.1z"/>
	<path d="M83.7,597.8l-2,0.3v-1l0,0c-0.4,0.6-0.9,1-1.9,1c-1.3,0-2.7-1.1-2.7-3.1c0-2.1,1.3-3.5,3-3.5c0.8,0,1.3,0.3,1.6,0.6v-4
		l-1-0.2v-0.3l2.1-0.3v10l1,0.2V597.8z M81.6,596.5v-3.7c-0.3-0.5-0.9-0.9-1.5-0.9c-1.4,0-1.9,1.5-1.9,3c0,1.6,0.7,2.7,1.9,2.7
		C81,597.6,81.4,597,81.6,596.5z"/>
	<path d="M94,597.8l-2,0.3v-1.6h0c-0.4,1.1-1.2,1.7-2.2,1.7c-1.2,0-1.9-0.8-1.9-2v-4l-1-0.2v-0.3h2.1v5.3c0.1,0.4,0.5,0.6,1.1,0.6
		c1.2,0,1.9-1.2,1.9-2.7v-2.7l-1.1-0.2v-0.3H93v5.7l1,0.2V597.8z"/>
	<path d="M100.9,594.6c0,2.1-1.4,3.5-3.1,3.5c-0.7,0-1.1-0.2-1.5-0.4v3.7l1.4,0.1v0.3h-3.4v-0.3l1-0.1v-9.1l-1-0.2v-0.3l2-0.3v1h0
		c0.4-0.6,1.1-1.1,2-1.1C99.7,591.5,100.9,592.6,100.9,594.6z M99.8,594.7c0-1.6-0.6-2.7-1.8-2.7c-0.8,0-1.4,0.5-1.6,1.1v4
		c0.3,0.3,0.9,0.6,1.4,0.6C99.2,597.7,99.8,596.2,99.8,594.7z"/>
	<path d="M105.7,597.2c-0.3,0.5-0.9,0.9-1.8,0.9c-0.8,0-1.5-0.5-1.5-1.7v-4.2h-1v-0.3l1-0.4l0.8-1.9h0.3v2.1h1.8v0.4h-1.8v4.1
		c0,0.9,0.4,1.2,1,1.2c0.5,0,0.8-0.3,1-0.5L105.7,597.2z"/>
	<path d="M109.2,598h-3v-0.3l1-0.1v-5.3l-1-0.2v-0.3l2.1-0.3v6.1l1,0.1V598z M108.2,589.2c0,0.4-0.3,0.7-0.7,0.7s-0.7-0.3-0.7-0.7
		s0.3-0.7,0.7-0.7S108.2,588.9,108.2,589.2z"/>
	<path d="M115.2,597c-0.3,0.5-1,1.2-2.4,1.2c-1.7,0-3.1-1.4-3.1-3.4c0-2,1.5-3.3,3.1-3.3c0.7,0,1.2,0.1,1.8,0.4l0.2-0.4h0.3
		l-0.1,1.8h-0.3c-0.2-0.9-0.8-1.5-1.8-1.5c-1.2,0-2,1.1-2,2.8c0,1.7,0.9,2.9,2.1,2.9c1,0,1.5-0.4,1.9-0.9L115.2,597z"/>
	<path d="M122.6,598h-1.7l-0.3-0.4l-2.3-2.8h-0.4v2.8l1,0.1v0.3h-3.1v-0.3l1-0.1v-9.4l-1-0.2v-0.3l2.1-0.3v7.2h0l2.6-2.4v0l-1-0.1
		v-0.3h2.6v0.3l-0.9,0.1l-2.2,2l2.9,3.4l0.6,0.2V598z"/>
	<path d="M129,598h-3v-0.3l1-0.1v-5.3l-1-0.2v-0.3l2.1-0.3v6.1l1,0.1V598z M128.1,589.2c0,0.4-0.3,0.7-0.7,0.7s-0.7-0.3-0.7-0.7
		s0.3-0.7,0.7-0.7S128.1,588.9,128.1,589.2z"/>
	<path d="M136.7,598h-3.1v-0.3l1.1-0.1v-5c-0.1-0.4-0.6-0.6-1.1-0.6c-1.2,0-1.9,1.2-1.9,2.7v2.9l1.1,0.1v0.3h-3.1v-0.3l1-0.1v-5.3
		l-1-0.2v-0.3l2-0.3v1.6h0c0.4-1.1,1.2-1.7,2.2-1.7c1.2,0,1.9,0.8,1.9,2v4.1l1,0.1V598z"/>
	<path d="M146.5,594.6c0,2.1-1.2,3.5-3.4,3.5c-0.9,0-1.7-0.2-2.2-0.5v-9.5l-1-0.2v-0.3l2.1-0.3v5.1c0.4-0.6,1.1-1,2-1
		C145.2,591.5,146.5,592.6,146.5,594.6z M145.3,594.7c0-1.6-0.6-2.7-1.8-2.7c-0.8,0-1.3,0.4-1.7,1.1v4.2c0.2,0.2,0.8,0.4,1.4,0.4
		C144.5,597.7,145.3,596.4,145.3,594.7z"/>
	<path d="M151.9,591.9l-0.4,0.9c-0.2-0.1-0.9-0.5-1.1-0.5c-0.7,0-1.2,1-1.2,2.4v3l1.4,0.1v0.3h-3.4v-0.3l1-0.1v-5.3l-1-0.2v-0.3
		l2-0.3v1.6h0c0.3-1.2,1.1-1.7,1.8-1.7C151.3,591.5,151.7,591.7,151.9,591.9z"/>
	<path d="M158.1,597.4c-0.2,0.3-0.7,0.7-1.3,0.7s-1-0.4-1.1-0.9c-0.4,0.5-1.2,0.9-1.8,0.9c-1,0-1.8-0.7-1.8-1.6c0-1.1,0.9-1.7,2-1.9
		l1.5-0.3v-1.1c0-0.8-0.3-1.2-1.2-1.2c-0.7,0-1.3,0.5-1.7,1.1l-0.3-0.3c0.5-0.8,1.3-1.4,2.2-1.4c1.4,0,2,0.6,2,1.7v3.4
		c0,0.8,0.3,1,0.6,1c0.2,0,0.5-0.1,0.6-0.3L158.1,597.4z M155.7,596.9v-2.2l-1,0.2c-0.8,0.2-1.4,0.6-1.4,1.4c0,0.7,0.5,1.2,1.1,1.2
		C154.9,597.5,155.4,597.3,155.7,596.9z"/>
	<path d="M165.4,598h-3.1v-0.3l1.1-0.1v-5c-0.1-0.4-0.6-0.6-1.1-0.6c-1.2,0-1.9,1.2-1.9,2.7v2.9l1.1,0.1v0.3h-3.1v-0.3l1-0.1v-5.3
		l-1-0.2v-0.3l2-0.3v1.6h0c0.4-1.1,1.2-1.7,2.2-1.7c1.2,0,1.9,0.8,1.9,2v4.1l1,0.1V598z"/>
	<path d="M172.6,597.8l-2,0.3v-1l0,0c-0.4,0.6-0.9,1-1.9,1c-1.3,0-2.7-1.1-2.7-3.1c0-2.1,1.3-3.5,3-3.5c0.8,0,1.3,0.3,1.6,0.6v-4
		l-1-0.2v-0.3l2.1-0.3v10l1,0.2V597.8z M170.5,596.5v-3.7c-0.3-0.5-0.9-0.9-1.5-0.9c-1.4,0-1.9,1.5-1.9,3c0,1.6,0.7,2.7,1.9,2.7
		C169.9,597.6,170.3,597,170.5,596.5z"/>
	<path d="M177.4,596.2c0,1-0.8,1.9-2.1,1.9c-0.6,0-1.1-0.1-1.5-0.4l-0.1,0.4h-0.3l-0.1-2l0.3,0c0.2,1.1,0.8,1.6,1.7,1.6
		c0.7,0,1.2-0.5,1.2-1.2c0-0.8-0.7-1.1-1.4-1.4c-0.8-0.3-1.7-0.8-1.7-1.9c0-1,0.8-1.8,1.9-1.8c0.6,0,1,0.1,1.4,0.4l0.2-0.3h0.3
		l0,1.7h-0.3c-0.1-0.9-0.6-1.4-1.5-1.4c-0.7,0-1.1,0.5-1.1,1c0,0.8,0.7,1.1,1.4,1.4C176.6,594.7,177.4,595.1,177.4,596.2z"/>
</g>
<g>
	<path d="M228.2,512.8l-2,0.3v-1.7h0c-0.4,1.1-1.2,1.7-2.2,1.7c-1.2,0-1.9-0.8-1.9-2v-4l-1-0.2v-0.3h2.1v5.3
		c0.1,0.4,0.5,0.6,1.1,0.6c1.2,0,1.9-1.2,1.9-2.7v-2.7l-1.1-0.2v-0.3h2.2v5.7l1,0.2V512.8z"/>
	<path d="M233.1,511.2c0,1-0.8,1.9-2.1,1.9c-0.6,0-1.1-0.1-1.5-0.4l-0.1,0.4H229l-0.1-2l0.3,0c0.2,1.1,0.8,1.7,1.7,1.7
		c0.7,0,1.2-0.5,1.2-1.2c0-0.8-0.7-1.1-1.4-1.4c-0.8-0.3-1.7-0.8-1.7-1.9c0-1,0.8-1.8,1.9-1.8c0.6,0,1,0.1,1.4,0.4l0.2-0.3h0.3
		l0,1.7h-0.3c-0.2-0.9-0.6-1.4-1.5-1.4c-0.7,0-1.1,0.5-1.1,1c0,0.8,0.7,1.1,1.4,1.4C232.2,509.7,233.1,510.1,233.1,511.2z"/>
	<path d="M236.9,513h-3v-0.3l1-0.1v-5.3l-1-0.2v-0.3l2.1-0.3v6.1l1,0.1V513z M236,504.2c0,0.4-0.3,0.7-0.7,0.7s-0.7-0.3-0.7-0.7
		s0.3-0.7,0.7-0.7S236,503.9,236,504.2z"/>
	<path d="M244.6,513h-3.1v-0.3l1.1-0.1v-5c-0.1-0.4-0.6-0.6-1.1-0.6c-1.2,0-1.9,1.2-1.9,2.7v2.9l1.1,0.1v0.3h-3.1v-0.3l1-0.1v-5.3
		l-1-0.2v-0.3l2-0.3v1.6h0c0.4-1.1,1.2-1.7,2.2-1.7c1.2,0,1.9,0.8,1.9,2v4.1l1,0.1V513z"/>
	<path d="M251.2,507.3l-1.7-0.1l0,0c0.5,0.4,0.8,1,0.8,1.7c0,1.5-1.3,2.3-2.5,2.4c-1,0.1-1.4,0.4-1.4,0.9c0,0.2,0.1,0.3,0.2,0.4
		l2.8,0.3c0.8,0.1,1.7,0.6,1.7,1.6c0,1.6-1.4,2.6-3.5,2.6c-1.3,0-2.7-0.7-2.7-2c0-0.8,0.5-1.3,1.2-1.7c-0.3-0.2-0.5-0.5-0.5-0.9
		c0-0.5,0.4-1,1.3-1.3v0c-0.9-0.3-1.6-1.1-1.6-2.2c0-1.4,1.2-2.4,2.5-2.4c0.5,0,1,0.2,1.4,0.4l2-0.4V507.3z M250.2,514.8
		c0-0.6-0.4-1-1.1-1.1l-2.8-0.3c-0.4,0.2-0.6,0.8-0.6,1.3c0,0.9,0.7,1.9,2.3,1.9C248.9,516.6,250.2,516,250.2,514.8z M249.2,508.9
		c0-1.2-0.6-2-1.4-2c-0.9,0-1.4,0.8-1.4,2s0.6,2,1.4,2C248.6,510.9,249.2,510,249.2,508.9z"/>
	<path d="M260.9,509.6c0,2.1-1.2,3.5-3.4,3.5c-0.9,0-1.7-0.2-2.2-0.5v-9.5l-1-0.2v-0.3l2.1-0.3v5.1c0.4-0.6,1.1-1,2-1
		C259.6,506.5,260.9,507.6,260.9,509.6z M259.7,509.7c0-1.6-0.6-2.7-1.8-2.7c-0.8,0-1.3,0.4-1.7,1.1v4.2c0.2,0.2,0.8,0.4,1.3,0.4
		C258.9,512.7,259.7,511.4,259.7,509.7z"/>
	<path d="M267.8,509.8c0,2-1.4,3.3-3.1,3.3c-1.7,0-3.1-1.4-3.1-3.3c0-2,1.4-3.3,3.1-3.3C266.4,506.5,267.8,507.8,267.8,509.8z
		 M266.6,509.8c0-1.8-0.7-3-1.9-3s-1.9,1.1-1.9,3s0.7,3,1.9,3S266.6,511.7,266.6,509.8z"/>
	<path d="M271.4,513h-3v-0.3l1-0.1v-9.5l-1-0.2v-0.3l2.1-0.3v10.2l1,0.1V513z"/>
	<path d="M278.7,512.8l-2,0.3v-1l0,0c-0.4,0.6-0.9,1-1.9,1c-1.3,0-2.7-1.1-2.7-3.1c0-2.1,1.3-3.5,3-3.5c0.8,0,1.3,0.3,1.6,0.6v-4
		l-1-0.2v-0.3l2.1-0.3v10l1,0.2V512.8z M276.6,511.5v-3.7c-0.3-0.5-0.9-0.9-1.5-0.9c-1.4,0-1.9,1.5-1.9,3c0,1.6,0.7,2.7,1.9,2.7
		C276,512.6,276.4,512,276.6,511.5z"/>
	<path d="M281.5,512.8c0,1.1-0.7,1.8-1.6,2.1l-0.2-0.4c0.7-0.2,1.2-0.7,1.2-1.5l-1.2-0.5c-0.1-0.1-0.1-0.3-0.1-0.4
		c0-0.4,0.3-0.7,0.8-0.7C281,511.5,281.5,512.1,281.5,512.8z"/>
	<path d="M292.4,513h-3.1v-0.3l1.1-0.1v-5c-0.2-0.4-0.6-0.6-1.1-0.6c-1.2,0-1.9,1.2-1.9,2.7v2.9l1.1,0.1v0.3h-3.1v-0.3l1-0.1v-9.4
		l-1-0.2v-0.3l2.1-0.3v5.7c0.4-1,1.1-1.6,2.2-1.6c1.2,0,1.9,0.8,1.9,2v4.1l1,0.1V513z"/>
	<path d="M296,513h-3v-0.3l1-0.1v-5.3l-1-0.2v-0.3l2.1-0.3v6.1l1,0.1V513z M295,504.2c0,0.4-0.3,0.7-0.7,0.7s-0.7-0.3-0.7-0.7
		s0.3-0.7,0.7-0.7S295,503.9,295,504.2z"/>
	<path d="M302.6,507.3l-1.7-0.1l0,0c0.5,0.4,0.8,1,0.8,1.7c0,1.5-1.3,2.3-2.5,2.4c-1,0.1-1.4,0.4-1.4,0.9c0,0.2,0.1,0.3,0.2,0.4
		l2.8,0.3c0.8,0.1,1.7,0.6,1.7,1.6c0,1.6-1.4,2.6-3.5,2.6c-1.3,0-2.7-0.7-2.7-2c0-0.8,0.5-1.3,1.2-1.7c-0.3-0.2-0.5-0.5-0.5-0.9
		c0-0.5,0.4-1,1.3-1.3v0c-0.9-0.3-1.6-1.1-1.6-2.2c0-1.4,1.2-2.4,2.5-2.4c0.5,0,1,0.2,1.4,0.4l2-0.4V507.3z M301.6,514.8
		c0-0.6-0.4-1-1.1-1.1l-2.8-0.3c-0.4,0.2-0.6,0.8-0.6,1.3c0,0.9,0.7,1.9,2.3,1.9C300.3,516.6,301.6,516,301.6,514.8z M300.6,508.9
		c0-1.2-0.6-2-1.4-2c-0.9,0-1.4,0.8-1.4,2s0.6,2,1.4,2C300,510.9,300.6,510,300.6,508.9z"/>
	<path d="M310,513h-3.1v-0.3l1.1-0.1v-5c-0.2-0.4-0.6-0.6-1.1-0.6c-1.2,0-1.9,1.2-1.9,2.7v2.9l1.1,0.1v0.3h-3.1v-0.3l1-0.1v-9.4
		l-1-0.2v-0.3l2.1-0.3v5.7c0.4-1,1.1-1.6,2.2-1.6c1.2,0,1.9,0.8,1.9,2v4.1l1,0.1V513z"/>
	<path d="M313.7,509.7l-3,0.4v-0.7l3-0.4V509.7z"/>
	<path d="M320.4,512c-0.3,0.5-1,1.2-2.4,1.2c-1.7,0-3.1-1.4-3.1-3.4c0-2,1.5-3.3,3.1-3.3c0.7,0,1.2,0.1,1.8,0.4l0.2-0.4h0.3
		l-0.1,1.8h-0.3c-0.2-0.9-0.8-1.5-1.8-1.5c-1.2,0-2,1.1-2,2.8c0,1.7,0.9,2.9,2.1,2.9c1,0,1.5-0.4,1.9-0.9L320.4,512z"/>
	<path d="M327.2,509.8c0,2-1.4,3.3-3.1,3.3c-1.7,0-3.1-1.4-3.1-3.3c0-2,1.4-3.3,3.1-3.3C325.8,506.5,327.2,507.8,327.2,509.8z
		 M326,509.8c0-1.8-0.7-3-1.9-3s-1.9,1.1-1.9,3s0.7,3,1.9,3S326,511.7,326,509.8z"/>
	<path d="M335,513h-3.1v-0.3l1.1-0.1v-5c-0.1-0.4-0.6-0.6-1.1-0.6c-1.2,0-1.9,1.2-1.9,2.7v2.9l1.1,0.1v0.3h-3.1v-0.3l1-0.1v-5.3
		l-1-0.2v-0.3l2-0.3v1.6h0c0.4-1.1,1.2-1.7,2.2-1.7c1.2,0,1.9,0.8,1.9,2v4.1l1,0.1V513z"/>
	<path d="M339.6,512.2c-0.3,0.5-0.9,0.9-1.8,0.9c-0.8,0-1.5-0.5-1.5-1.7v-4.2h-1v-0.3l1-0.4l0.8-1.9h0.3v2.1h1.8v0.4h-1.8v4.1
		c0,0.9,0.4,1.2,1,1.2c0.5,0,0.8-0.3,1-0.5L339.6,512.2z"/>
	<path d="M344.6,506.9l-0.4,0.9c-0.2-0.1-0.9-0.5-1.1-0.5c-0.7,0-1.2,1-1.2,2.4v3l1.4,0.1v0.3H340v-0.3l1-0.1v-5.3l-1-0.2v-0.3
		l2-0.3v1.6h0c0.3-1.2,1.1-1.7,1.8-1.7C344.1,506.5,344.4,506.7,344.6,506.9z"/>
	<path d="M350.9,512.4c-0.2,0.3-0.7,0.7-1.3,0.7s-1-0.4-1.1-0.9c-0.4,0.5-1.2,0.9-1.8,0.9c-1,0-1.8-0.7-1.8-1.7c0-1.1,0.9-1.7,2-1.9
		l1.5-0.3v-1.1c0-0.8-0.3-1.2-1.2-1.2c-0.7,0-1.3,0.5-1.7,1.1l-0.3-0.3c0.5-0.8,1.3-1.4,2.2-1.4c1.3,0,2,0.6,2,1.7v3.4
		c0,0.8,0.3,1,0.6,1c0.2,0,0.5-0.1,0.6-0.3L350.9,512.4z M348.5,511.9v-2.2l-1,0.2c-0.8,0.1-1.4,0.6-1.4,1.4c0,0.7,0.5,1.2,1.1,1.2
		C347.6,512.5,348.1,512.3,348.5,511.9z"/>
	<path d="M355.4,511.2c0,1-0.8,1.9-2.1,1.9c-0.6,0-1.1-0.1-1.5-0.4l-0.1,0.4h-0.3l-0.1-2l0.3,0c0.2,1.1,0.8,1.7,1.7,1.7
		c0.7,0,1.2-0.5,1.2-1.2c0-0.8-0.7-1.1-1.4-1.4c-0.8-0.3-1.7-0.8-1.7-1.9c0-1,0.8-1.8,1.9-1.8c0.6,0,1,0.1,1.4,0.4l0.2-0.3h0.3
		l0,1.7h-0.3c-0.2-0.9-0.6-1.4-1.5-1.4c-0.7,0-1.1,0.5-1.1,1c0,0.8,0.7,1.1,1.4,1.4C354.6,509.7,355.4,510.1,355.4,511.2z"/>
	<path d="M360.4,512.2c-0.3,0.5-0.9,0.9-1.8,0.9c-0.8,0-1.5-0.5-1.5-1.7v-4.2h-1v-0.3l1-0.4l0.8-1.9h0.3v2.1h1.8v0.4h-1.8v4.1
		c0,0.9,0.4,1.2,1,1.2c0.5,0,0.8-0.3,1-0.5L360.4,512.2z"/>
	<path d="M225.7,528.2c0,1-0.8,1.9-2.1,1.9c-0.6,0-1.1-0.1-1.5-0.4l-0.2,0.4h-0.3l-0.1-2l0.3,0c0.2,1.1,0.8,1.7,1.7,1.7
		c0.7,0,1.2-0.5,1.2-1.2c0-0.8-0.7-1.1-1.4-1.4c-0.8-0.3-1.7-0.8-1.7-1.9c0-1,0.8-1.8,1.9-1.8c0.6,0,1,0.1,1.4,0.4l0.2-0.3h0.3
		l0,1.7h-0.3c-0.1-0.9-0.6-1.4-1.5-1.4c-0.7,0-1.1,0.5-1.1,1c0,0.8,0.7,1.1,1.4,1.4C224.9,526.7,225.7,527.1,225.7,528.2z"/>
	<path d="M232.1,526.3h-4.3c0,0.1,0,0.3,0,0.4c0,1.8,0.9,2.9,2.1,2.9c1,0,1.5-0.4,1.9-0.9l0.3,0.3c-0.3,0.5-1,1.2-2.4,1.2
		c-1.8,0-3.1-1.4-3.1-3.3c0-2,1.5-3.3,3-3.3s2.5,1,2.5,2.5V526.3z M231,525.9c0-1-0.3-2.1-1.4-2.1c-0.9,0-1.5,0.9-1.7,2.1H231z"/>
	<path d="M237.6,523.9l-0.4,0.9c-0.2-0.1-0.9-0.5-1.1-0.5c-0.7,0-1.2,1-1.2,2.4v3l1.4,0.1v0.3h-3.4v-0.3l1-0.1v-5.3l-1-0.2v-0.3
		l2-0.3v1.6h0c0.3-1.2,1.1-1.7,1.8-1.7C237,523.5,237.4,523.7,237.6,523.9z"/>
	<path d="M241.1,530h-3v-0.3l1-0.1v-5.3l-1-0.2v-0.3l2.1-0.3v6.1l1,0.1V530z M240.2,521.2c0,0.4-0.3,0.7-0.7,0.7s-0.7-0.3-0.7-0.7
		s0.3-0.7,0.7-0.7S240.2,520.9,240.2,521.2z"/>
	<path d="M246.4,519.5l-0.4,0.9c-0.6-0.4-1.1-0.7-1.4-0.7c-0.5,0-0.8,0.4-0.8,1.6v2.4h1.8v0.4h-1.8v5.4l1.4,0.1v0.3h-3.5v-0.3l1-0.1
		v-5.4h-1v-0.3l1-0.3v-1.2c0-1.8,0.7-3.3,2.5-3.3C245.7,519.2,246,519.3,246.4,519.5z"/>
	<path d="M250.2,528.2c0,1-0.8,1.9-2.1,1.9c-0.6,0-1.1-0.1-1.5-0.4l-0.2,0.4h-0.3l-0.1-2l0.3,0c0.2,1.1,0.8,1.7,1.7,1.7
		c0.7,0,1.2-0.5,1.2-1.2c0-0.8-0.7-1.1-1.4-1.4c-0.8-0.3-1.7-0.8-1.7-1.9c0-1,0.8-1.8,1.9-1.8c0.6,0,1,0.1,1.4,0.4l0.2-0.3h0.3
		l0,1.7h-0.3c-0.1-0.9-0.6-1.4-1.5-1.4c-0.7,0-1.1,0.5-1.1,1c0,0.8,0.7,1.1,1.4,1.4C249.4,526.7,250.2,527.1,250.2,528.2z"/>
	<path d="M257.1,530h-3v-0.3l1-0.1v-5.3l-1-0.2v-0.3l2.1-0.3v6.1l1,0.1V530z M256.2,521.2c0,0.4-0.3,0.7-0.7,0.7s-0.7-0.3-0.7-0.7
		s0.3-0.7,0.7-0.7S256.2,520.9,256.2,521.2z"/>
	<path d="M264.8,530h-3.1v-0.3l1.1-0.1v-5c-0.2-0.4-0.6-0.6-1.1-0.6c-1.2,0-1.9,1.2-1.9,2.7v2.9l1.1,0.1v0.3h-3.1v-0.3l1-0.1v-5.3
		l-1-0.2v-0.3l2-0.3v1.6h0c0.4-1.1,1.2-1.7,2.2-1.7c1.2,0,1.9,0.8,1.9,2v4.1l1,0.1V530z"/>
	<path d="M272.4,529.2c-0.3,0.5-0.9,0.9-1.8,0.9c-0.8,0-1.5-0.5-1.5-1.7v-4.2h-1v-0.3l1-0.4l0.8-1.9h0.3v2.1h1.8v0.4h-1.8v4.1
		c0,0.9,0.4,1.2,1,1.2c0.5,0,0.8-0.3,1-0.5L272.4,529.2z"/>
	<path d="M279.7,530h-3.1v-0.3l1.1-0.1v-5c-0.2-0.4-0.6-0.6-1.1-0.6c-1.2,0-1.9,1.2-1.9,2.7v2.9l1.1,0.1v0.3h-3.1v-0.3l1-0.1v-9.4
		l-1-0.2v-0.3l2.1-0.3v5.7c0.4-1,1.1-1.6,2.2-1.6c1.2,0,1.9,0.8,1.9,2v4.1l1,0.1V530z"/>
	<path d="M285.7,526.3h-4.3c0,0.1,0,0.3,0,0.4c0,1.8,0.9,2.9,2.1,2.9c1,0,1.5-0.4,1.9-0.9l0.3,0.3c-0.3,0.5-1,1.2-2.4,1.2
		c-1.8,0-3.1-1.4-3.1-3.3c0-2,1.5-3.3,3-3.3s2.5,1,2.5,2.5V526.3z M284.6,525.9c0-1-0.3-2.1-1.4-2.1c-0.9,0-1.5,0.9-1.7,2.1H284.6z"
		/>
	<path d="M289.6,530h-3v-0.3l1-0.1v-5.3l-1-0.2v-0.3l2.1-0.3v6.1l1,0.1V530z M288.6,521.2c0,0.4-0.3,0.7-0.7,0.7s-0.7-0.3-0.7-0.7
		s0.3-0.7,0.7-0.7S288.6,520.9,288.6,521.2z"/>
	<path d="M294.8,523.9l-0.4,0.9c-0.2-0.1-0.9-0.5-1.1-0.5c-0.7,0-1.2,1-1.2,2.4v3l1.4,0.1v0.3h-3.4v-0.3l1-0.1v-5.3l-1-0.2v-0.3
		l2-0.3v1.6h0c0.3-1.2,1.1-1.7,1.8-1.7C294.3,523.5,294.6,523.7,294.8,523.9z"/>
	<path d="M301.2,530h-3v-0.3l1-0.1v-9.5l-1-0.2v-0.3l2.1-0.3v10.2l1,0.1V530z"/>
	<path d="M308,526.8c0,2-1.4,3.3-3.1,3.3s-3.1-1.4-3.1-3.3c0-2,1.4-3.3,3.1-3.3S308,524.8,308,526.8z M306.8,526.8
		c0-1.8-0.7-3-1.9-3s-1.9,1.1-1.9,3s0.7,3,1.9,3S306.8,528.7,306.8,526.8z"/>
	<path d="M314.8,524.3l-1.7-0.1l0,0c0.5,0.4,0.8,1,0.8,1.7c0,1.5-1.3,2.3-2.5,2.4c-1,0.1-1.4,0.4-1.4,0.9c0,0.2,0.1,0.3,0.2,0.4
		l2.8,0.3c0.8,0.1,1.7,0.6,1.7,1.6c0,1.6-1.4,2.6-3.5,2.6c-1.3,0-2.7-0.7-2.7-2c0-0.8,0.5-1.3,1.2-1.7c-0.3-0.2-0.5-0.5-0.5-0.9
		c0-0.5,0.4-1,1.3-1.3v0c-0.9-0.3-1.6-1.1-1.6-2.2c0-1.4,1.2-2.4,2.5-2.4c0.5,0,1,0.2,1.4,0.4l2-0.4V524.3z M313.8,531.8
		c0-0.6-0.4-1-1.1-1.1l-2.8-0.3c-0.4,0.2-0.6,0.8-0.6,1.3c0,0.9,0.7,1.9,2.3,1.9C312.5,533.6,313.8,533,313.8,531.8z M312.8,525.9
		c0-1.2-0.6-2-1.4-2c-0.9,0-1.4,0.8-1.4,2s0.6,2,1.4,2C312.2,527.9,312.8,527,312.8,525.9z"/>
	<path d="M321.3,526.8c0,2-1.4,3.3-3.1,3.3s-3.1-1.4-3.1-3.3c0-2,1.4-3.3,3.1-3.3S321.3,524.8,321.3,526.8z M320.1,526.8
		c0-1.8-0.7-3-1.9-3s-1.9,1.1-1.9,3s0.7,3,1.9,3S320.1,528.7,320.1,526.8z"/>
	<path d="M326.3,528.2c0,1-0.8,1.9-2.1,1.9c-0.6,0-1.1-0.1-1.5-0.4l-0.2,0.4h-0.3l-0.1-2l0.3,0c0.2,1.1,0.8,1.7,1.7,1.7
		c0.7,0,1.2-0.5,1.2-1.2c0-0.8-0.7-1.1-1.4-1.4c-0.8-0.3-1.7-0.8-1.7-1.9c0-1,0.8-1.8,1.9-1.8c0.6,0,1,0.1,1.4,0.4l0.2-0.3h0.3
		l0,1.7h-0.3c-0.1-0.9-0.6-1.4-1.5-1.4c-0.7,0-1.1,0.5-1.1,1c0,0.8,0.7,1.1,1.4,1.4C325.5,526.7,326.3,527.1,326.3,528.2z"/>
	<path d="M336.2,529.4c-0.2,0.3-0.7,0.7-1.3,0.7s-1-0.4-1.1-0.9c-0.4,0.5-1.2,0.9-1.8,0.9c-1,0-1.8-0.7-1.8-1.7c0-1.1,0.9-1.7,2-1.9
		l1.5-0.3v-1.1c0-0.8-0.3-1.2-1.2-1.2c-0.7,0-1.3,0.5-1.7,1.1l-0.3-0.3c0.5-0.8,1.3-1.4,2.2-1.4c1.3,0,2,0.6,2,1.7v3.4
		c0,0.8,0.3,1,0.6,1c0.2,0,0.5-0.1,0.6-0.3L336.2,529.4z M333.7,528.9v-2.2l-1,0.2c-0.8,0.1-1.4,0.6-1.4,1.4c0,0.7,0.5,1.2,1.1,1.2
		C332.9,529.5,333.4,529.3,333.7,528.9z"/>
	<path d="M343.4,530h-3.1v-0.3l1.1-0.1v-5c-0.1-0.4-0.6-0.6-1.1-0.6c-1.2,0-1.9,1.2-1.9,2.7v2.9l1.1,0.1v0.3h-3.1v-0.3l1-0.1v-5.3
		l-1-0.2v-0.3l2-0.3v1.6h0c0.4-1.1,1.2-1.7,2.2-1.7c1.2,0,1.9,0.8,1.9,2v4.1l1,0.1V530z"/>
	<path d="M350.6,529.8l-2,0.3v-1l0,0c-0.4,0.6-0.9,1-1.9,1c-1.3,0-2.7-1.1-2.7-3.1c0-2.1,1.3-3.5,3-3.5c0.8,0,1.3,0.3,1.6,0.6v-4
		l-1-0.2v-0.3l2.1-0.3v10l1,0.2V529.8z M348.5,528.5v-3.7c-0.3-0.5-0.9-0.9-1.5-0.9c-1.4,0-1.9,1.5-1.9,3c0,1.6,0.7,2.7,1.9,2.7
		C347.9,529.6,348.3,529,348.5,528.5z"/>
	<path d="M231.3,541l-0.7,0.2l-2.5,6H228l-1.8-4.5l-1.8,4.5h-0.2l-2.5-6.1l-0.7-0.2v-0.3h2.9v0.3l-1,0.1l1.7,4.3l1.3-3.3l-0.4-1
		l-0.7-0.1v-0.3h2.9v0.3l-1,0.1v0.1l1.7,4.3l1.7-4.3l-1-0.2v-0.3h2.3V541z"/>
	<path d="M236.9,543.3h-4.3c0,0.1,0,0.3,0,0.4c0,1.8,0.9,2.9,2.1,2.9c1,0,1.5-0.4,1.9-0.9l0.3,0.3c-0.3,0.5-1,1.2-2.4,1.2
		c-1.8,0-3.1-1.4-3.1-3.3c0-2,1.5-3.3,3-3.3s2.5,1,2.5,2.5V543.3z M235.7,542.9c0-1-0.3-2.1-1.4-2.1c-0.9,0-1.5,0.9-1.7,2.1H235.7z"
		/>
	<path d="M244,543.6c0,2.1-1.2,3.5-3.4,3.5c-0.9,0-1.7-0.2-2.2-0.5v-9.5l-1-0.2v-0.3l2.1-0.3v5.1c0.4-0.6,1.1-1,2-1
		C242.7,540.5,244,541.6,244,543.6z M242.8,543.7c0-1.6-0.6-2.7-1.8-2.7c-0.8,0-1.3,0.4-1.7,1.1v4.2c0.2,0.2,0.8,0.4,1.3,0.4
		C242,546.7,242.8,545.4,242.8,543.7z"/>
	<path d="M249,545.2c0,1-0.8,1.9-2.1,1.9c-0.6,0-1.1-0.1-1.5-0.4l-0.2,0.4H245l-0.1-2l0.3,0c0.2,1.1,0.8,1.7,1.7,1.7
		c0.7,0,1.2-0.5,1.2-1.2c0-0.8-0.7-1.1-1.4-1.4c-0.8-0.3-1.7-0.8-1.7-1.9c0-1,0.8-1.8,1.9-1.8c0.6,0,1,0.1,1.4,0.4l0.2-0.3h0.3
		l0,1.7h-0.3c-0.1-0.9-0.6-1.4-1.5-1.4c-0.7,0-1.1,0.5-1.1,1c0,0.8,0.7,1.1,1.4,1.4C248.2,543.7,249,544.1,249,545.2z"/>
	<path d="M252.9,547h-3v-0.3l1-0.1v-5.3l-1-0.2v-0.3l2.1-0.3v6.1l1,0.1V547z M252,538.2c0,0.4-0.3,0.7-0.7,0.7s-0.7-0.3-0.7-0.7
		s0.3-0.7,0.7-0.7S252,537.9,252,538.2z"/>
	<path d="M257.6,546.2c-0.3,0.5-0.9,0.9-1.8,0.9c-0.8,0-1.5-0.5-1.5-1.7v-4.2h-1v-0.3l1-0.4l0.8-1.9h0.3v2.1h1.8v0.4h-1.8v4.1
		c0,0.9,0.4,1.2,1,1.2c0.5,0,0.8-0.3,1-0.5L257.6,546.2z"/>
	<path d="M263.4,543.3h-4.3c0,0.1,0,0.3,0,0.4c0,1.8,0.9,2.9,2.1,2.9c1,0,1.5-0.4,1.9-0.9l0.3,0.3c-0.3,0.5-1,1.2-2.4,1.2
		c-1.8,0-3.1-1.4-3.1-3.3c0-2,1.5-3.3,3-3.3s2.5,1,2.5,2.5V543.3z M262.2,542.9c0-1-0.3-2.1-1.4-2.1c-0.9,0-1.5,0.9-1.7,2.1H262.2z"
		/>
	<path d="M272.6,546c-0.3,0.5-1,1.2-2.4,1.2c-1.7,0-3.1-1.4-3.1-3.4c0-2,1.5-3.3,3.1-3.3c0.7,0,1.2,0.1,1.8,0.4l0.2-0.4h0.3
		l-0.1,1.8h-0.3c-0.2-0.9-0.8-1.5-1.8-1.5c-1.2,0-2,1.1-2,2.8c0,1.7,0.9,2.9,2.1,2.9c1,0,1.5-0.4,1.9-0.9L272.6,546z"/>
	<path d="M279.4,543.8c0,2-1.4,3.3-3.1,3.3s-3.1-1.4-3.1-3.3c0-2,1.4-3.3,3.1-3.3S279.4,541.8,279.4,543.8z M278.2,543.8
		c0-1.8-0.7-3-1.9-3s-1.9,1.1-1.9,3s0.7,3,1.9,3S278.2,545.7,278.2,543.8z"/>
	<path d="M286.6,543.6c0,2.1-1.3,3.5-3.1,3.5c-0.7,0-1.1-0.2-1.5-0.4v3.7l1.4,0.1v0.3H280v-0.3l1-0.1v-9.1l-1-0.2v-0.3l2-0.3v1h0
		c0.4-0.6,1.1-1.1,2-1.1C285.3,540.5,286.6,541.6,286.6,543.6z M285.5,543.7c0-1.6-0.6-2.7-1.8-2.7c-0.8,0-1.4,0.5-1.7,1.1v4
		c0.3,0.3,0.9,0.6,1.4,0.6C284.8,546.7,285.5,545.2,285.5,543.7z"/>
	<path d="M293.3,541l-0.7,0.2l-2.4,5.9l-1.3,3.8h-1l1.9-3.9l-2.3-5.8l-0.7-0.2v-0.3h2.9v0.3l-1,0.1l1.7,4.6l1.7-4.5l-1-0.2v-0.3h2.3
		V541z"/>
	<path d="M294.7,546.8c0,1.1-0.7,1.8-1.6,2.1l-0.2-0.4c0.7-0.2,1.2-0.7,1.2-1.5l-1.2-0.5c-0.1-0.1-0.1-0.3-0.1-0.4
		c0-0.4,0.3-0.7,0.8-0.7C294.2,545.5,294.7,546.1,294.7,546.8z"/>
	<path d="M304.8,546.4c-0.2,0.3-0.7,0.7-1.3,0.7s-1-0.4-1.1-0.9c-0.4,0.5-1.2,0.9-1.8,0.9c-1,0-1.8-0.7-1.8-1.7c0-1.1,0.9-1.7,2-1.9
		l1.5-0.3v-1.1c0-0.8-0.3-1.2-1.2-1.2c-0.7,0-1.3,0.5-1.7,1.1l-0.3-0.3c0.5-0.8,1.3-1.4,2.2-1.4c1.3,0,2,0.6,2,1.7v3.4
		c0,0.8,0.3,1,0.6,1c0.2,0,0.5-0.1,0.6-0.3L304.8,546.4z M302.3,545.9v-2.2l-1,0.2c-0.8,0.1-1.4,0.6-1.4,1.4c0,0.7,0.5,1.2,1.1,1.2
		C301.5,546.5,302,546.3,302.3,545.9z"/>
	<path d="M312,547h-3.1v-0.3l1.1-0.1v-5c-0.1-0.4-0.6-0.6-1.1-0.6c-1.2,0-1.9,1.2-1.9,2.7v2.9l1.1,0.1v0.3h-3.1v-0.3l1-0.1v-5.3
		l-1-0.2v-0.3l2-0.3v1.6h0c0.4-1.1,1.2-1.7,2.2-1.7c1.2,0,1.9,0.8,1.9,2v4.1l1,0.1V547z"/>
	<path d="M319.2,546.8l-2,0.3v-1l0,0c-0.4,0.6-0.9,1-1.9,1c-1.3,0-2.7-1.1-2.7-3.1c0-2.1,1.3-3.5,3-3.5c0.8,0,1.3,0.3,1.6,0.6v-4
		l-1-0.2v-0.3l2.1-0.3v10l1,0.2V546.8z M317.1,545.5v-3.7c-0.3-0.5-0.9-0.9-1.5-0.9c-1.4,0-1.9,1.5-1.9,3c0,1.6,0.7,2.7,1.9,2.7
		C316.5,546.6,316.9,546,317.1,545.5z"/>
	<path d="M332.6,541l-0.7,0.2l-2.5,6h-0.2l-1.8-4.5l-1.8,4.5h-0.2l-2.5-6.1l-0.7-0.2v-0.3h2.9v0.3l-1,0.1l1.7,4.3l1.3-3.3l-0.4-1
		l-0.7-0.1v-0.3h2.9v0.3l-1,0.1v0.1l1.7,4.3l1.7-4.3l-1-0.2v-0.3h2.3V541z"/>
	<path d="M338.2,543.3h-4.3c0,0.1,0,0.3,0,0.4c0,1.8,0.9,2.9,2.1,2.9c1,0,1.5-0.4,1.9-0.9l0.3,0.3c-0.3,0.5-1,1.2-2.4,1.2
		c-1.8,0-3.1-1.4-3.1-3.3c0-2,1.5-3.3,3-3.3s2.5,1,2.5,2.5V543.3z M337,542.9c0-1-0.3-2.1-1.4-2.1c-0.9,0-1.5,0.9-1.7,2.1H337z"/>
	<path d="M347.5,543.3h-4.3c0,0.1,0,0.3,0,0.4c0,1.8,0.9,2.9,2.1,2.9c1,0,1.5-0.4,1.9-0.9l0.3,0.3c-0.3,0.5-1,1.2-2.4,1.2
		c-1.8,0-3.1-1.4-3.1-3.3c0-2,1.5-3.3,3-3.3s2.5,1,2.5,2.5V543.3z M346.3,542.9c0-1-0.3-2.1-1.4-2.1c-0.9,0-1.5,0.9-1.7,2.1H346.3z"
		/>
	<path d="M354.2,547h-2.9v-0.3l1-0.1l-1.5-2.3l-1.4,2.3l1,0.1v0.3h-2.5v-0.3l0.9-0.2l1.7-2.6l-1.9-2.8L348,541v-0.3h2.8v0.3
		l-0.9,0.1l1.3,2.1l1.3-2.1l-0.9-0.1v-0.3h2.4v0.3l-0.9,0.2l-1.6,2.4l2,3l0.7,0.1V547z"/>
	<path d="M361.1,543.6c0,2.1-1.4,3.5-3.1,3.5c-0.7,0-1.1-0.2-1.5-0.4v3.7l1.4,0.1v0.3h-3.4v-0.3l1-0.1v-9.1l-1-0.2v-0.3l2-0.3v1h0
		c0.4-0.6,1.1-1.1,2-1.1C359.8,540.5,361.1,541.6,361.1,543.6z M359.9,543.7c0-1.6-0.6-2.7-1.8-2.7c-0.8,0-1.4,0.5-1.6,1.1v4
		c0.3,0.3,0.9,0.6,1.3,0.6C359.3,546.7,359.9,545.2,359.9,543.7z"/>
	<path d="M367.3,543.3H363c0,0.1,0,0.3,0,0.4c0,1.8,0.9,2.9,2.1,2.9c1,0,1.5-0.4,1.9-0.9l0.3,0.3c-0.3,0.5-1,1.2-2.4,1.2
		c-1.8,0-3.1-1.4-3.1-3.3c0-2,1.5-3.3,3-3.3s2.5,1,2.5,2.5V543.3z M366.2,542.9c0-1-0.3-2.1-1.4-2.1c-0.9,0-1.5,0.9-1.7,2.1H366.2z"
		/>
	<path d="M373.6,546c-0.3,0.5-1,1.2-2.4,1.2c-1.7,0-3.1-1.4-3.1-3.4c0-2,1.5-3.3,3.1-3.3c0.7,0,1.2,0.1,1.8,0.4l0.2-0.4h0.3
		l-0.1,1.8H373c-0.2-0.9-0.8-1.5-1.8-1.5c-1.2,0-2,1.1-2,2.8c0,1.7,0.9,2.9,2.1,2.9c1,0,1.5-0.4,1.9-0.9L373.6,546z"/>
	<path d="M378.3,546.2c-0.3,0.5-0.9,0.9-1.8,0.9c-0.8,0-1.5-0.5-1.5-1.7v-4.2h-1v-0.3l1-0.4l0.8-1.9h0.3v2.1h1.8v0.4h-1.8v4.1
		c0,0.9,0.4,1.2,1,1.2c0.5,0,0.8-0.3,1-0.5L378.3,546.2z"/>
	<path d="M225.5,563.2c-0.3,0.5-0.9,0.9-1.8,0.9c-0.8,0-1.5-0.5-1.5-1.7v-4.2h-1v-0.3l1-0.4l0.8-1.9h0.3v2.1h1.8v0.4h-1.8v4.1
		c0,0.9,0.4,1.2,1,1.2c0.5,0,0.8-0.3,1-0.5L225.5,563.2z"/>
	<path d="M232.8,564h-3.1v-0.3l1.1-0.1v-5c-0.2-0.4-0.6-0.6-1.1-0.6c-1.2,0-1.9,1.2-1.9,2.7v2.9l1.1,0.1v0.3h-3.1v-0.3l1-0.1v-9.4
		l-1-0.2v-0.3l2.1-0.3v5.7c0.4-1,1.1-1.6,2.2-1.6c1.2,0,1.9,0.8,1.9,2v4.1l1,0.1V564z"/>
	<path d="M236.3,564h-3v-0.3l1-0.1v-5.3l-1-0.2v-0.3l2.1-0.3v6.1l1,0.1V564z M235.4,555.2c0,0.4-0.3,0.7-0.7,0.7s-0.7-0.3-0.7-0.7
		s0.3-0.7,0.7-0.7S235.4,554.9,235.4,555.2z"/>
	<path d="M241.3,562.2c0,1-0.8,1.9-2.1,1.9c-0.6,0-1.1-0.1-1.5-0.4l-0.1,0.4h-0.3l-0.1-2l0.3,0c0.2,1.1,0.8,1.7,1.7,1.7
		c0.7,0,1.2-0.5,1.2-1.2c0-0.8-0.7-1.1-1.4-1.4c-0.8-0.3-1.7-0.8-1.7-1.9c0-1,0.8-1.8,1.9-1.8c0.6,0,1,0.1,1.4,0.4l0.2-0.3h0.3
		l0,1.7h-0.3c-0.2-0.9-0.6-1.4-1.5-1.4c-0.7,0-1.1,0.5-1.1,1c0,0.8,0.7,1.1,1.4,1.4C240.4,560.7,241.3,561.1,241.3,562.2z"/>
	<path d="M249.2,563.2c-0.3,0.5-0.9,0.9-1.8,0.9c-0.8,0-1.5-0.5-1.5-1.7v-4.2h-1v-0.3l1-0.4l0.8-1.9h0.3v2.1h1.8v0.4H247v4.1
		c0,0.9,0.4,1.2,1,1.2c0.5,0,0.8-0.3,1-0.5L249.2,563.2z"/>
	<path d="M255.6,560.8c0,2-1.4,3.3-3.1,3.3c-1.7,0-3.1-1.4-3.1-3.3c0-2,1.4-3.3,3.1-3.3C254.3,557.5,255.6,558.8,255.6,560.8z
		 M254.4,560.8c0-1.8-0.7-3-1.9-3s-1.9,1.1-1.9,3s0.7,3,1.9,3S254.4,562.7,254.4,560.8z"/>
	<path d="M265.6,560.6c0,2.1-1.2,3.5-3.4,3.5c-0.9,0-1.7-0.2-2.2-0.5v-9.5l-1-0.2v-0.3l2.1-0.3v5.1c0.4-0.6,1.1-1,2-1
		C264.4,557.5,265.6,558.6,265.6,560.6z M264.5,560.7c0-1.6-0.6-2.7-1.8-2.7c-0.8,0-1.3,0.4-1.7,1.1v4.2c0.2,0.2,0.8,0.4,1.4,0.4
		C263.7,563.7,264.5,562.4,264.5,560.7z"/>
	<path d="M271.9,560.3h-4.3c0,0.1,0,0.3,0,0.4c0,1.8,0.9,2.9,2.1,2.9c1,0,1.5-0.4,1.9-0.9l0.3,0.3c-0.3,0.5-1,1.2-2.4,1.2
		c-1.8,0-3.1-1.4-3.1-3.3c0-2,1.5-3.3,3-3.3s2.5,1,2.5,2.5V560.3z M270.7,559.9c0-1-0.3-2.1-1.4-2.1c-0.9,0-1.5,0.9-1.7,2.1H270.7z"
		/>
	<path d="M281.7,563.4c-0.2,0.3-0.7,0.7-1.3,0.7s-1-0.4-1.1-0.9c-0.5,0.5-1.2,0.9-1.8,0.9c-1,0-1.8-0.7-1.8-1.7c0-1.1,0.9-1.7,2-1.9
		l1.5-0.3v-1.1c0-0.8-0.3-1.2-1.2-1.2c-0.7,0-1.3,0.5-1.7,1.1l-0.3-0.3c0.5-0.8,1.3-1.4,2.2-1.4c1.4,0,2,0.6,2,1.7v3.4
		c0,0.8,0.3,1,0.6,1c0.2,0,0.5-0.1,0.6-0.3L281.7,563.4z M279.2,562.9v-2.2l-1,0.2c-0.8,0.1-1.4,0.6-1.4,1.4c0,0.7,0.5,1.2,1.1,1.2
		C278.4,563.5,278.9,563.3,279.2,562.9z"/>
	<path d="M287.8,564h-3v-0.3l1-0.1v-9.5l-1-0.2v-0.3l2.1-0.3v10.2l1,0.1V564z"/>
	<path d="M293.9,560.3h-4.3c0,0.1,0,0.3,0,0.4c0,1.8,0.9,2.9,2.1,2.9c1,0,1.5-0.4,1.9-0.9l0.3,0.3c-0.3,0.5-1,1.2-2.4,1.2
		c-1.8,0-3.1-1.4-3.1-3.3c0-2,1.5-3.3,3-3.3s2.5,1,2.5,2.5V560.3z M292.8,559.9c0-1-0.3-2.1-1.4-2.1c-0.9,0-1.5,0.9-1.7,2.1H292.8z"
		/>
	<path d="M300.7,563.4c-0.2,0.3-0.7,0.7-1.3,0.7s-1-0.4-1.1-0.9c-0.4,0.5-1.2,0.9-1.8,0.9c-1,0-1.8-0.7-1.8-1.7c0-1.1,0.9-1.7,2-1.9
		l1.5-0.3v-1.1c0-0.8-0.3-1.2-1.2-1.2c-0.7,0-1.3,0.5-1.7,1.1l-0.3-0.3c0.5-0.8,1.3-1.4,2.2-1.4c1.3,0,2,0.6,2,1.7v3.4
		c0,0.8,0.3,1,0.6,1c0.2,0,0.5-0.1,0.6-0.3L300.7,563.4z M298.2,562.9v-2.2l-1,0.2c-0.8,0.1-1.4,0.6-1.4,1.4c0,0.7,0.5,1.2,1.1,1.2
		C297.4,563.5,297.9,563.3,298.2,562.9z"/>
	<path d="M307.5,563.8l-2,0.3v-1l0,0c-0.4,0.6-0.9,1-1.9,1c-1.3,0-2.7-1.1-2.7-3.1c0-2.1,1.3-3.5,3-3.5c0.8,0,1.3,0.3,1.6,0.6v-4
		l-1-0.2v-0.3l2.1-0.3v10l1,0.2V563.8z M305.5,562.5v-3.7c-0.3-0.5-0.9-0.9-1.5-0.9c-1.4,0-1.9,1.5-1.9,3c0,1.6,0.7,2.7,1.9,2.7
		C304.8,563.6,305.2,563,305.5,562.5z"/>
	<path d="M311.1,564h-3v-0.3l1-0.1v-5.3l-1-0.2v-0.3l2.1-0.3v6.1l1,0.1V564z M310.2,555.2c0,0.4-0.3,0.7-0.7,0.7s-0.7-0.3-0.7-0.7
		s0.3-0.7,0.7-0.7S310.2,554.9,310.2,555.2z"/>
	<path d="M318.8,564h-3.1v-0.3l1.1-0.1v-5c-0.1-0.4-0.6-0.6-1.1-0.6c-1.2,0-1.9,1.2-1.9,2.7v2.9l1.1,0.1v0.3h-3.1v-0.3l1-0.1v-5.3
		l-1-0.2v-0.3l2-0.3v1.6h0c0.4-1.1,1.2-1.7,2.2-1.7c1.2,0,1.9,0.8,1.9,2v4.1l1,0.1V564z"/>
	<path d="M325.3,558.3l-1.7-0.1l0,0c0.5,0.4,0.8,1,0.8,1.7c0,1.5-1.3,2.3-2.5,2.4c-1,0.1-1.4,0.4-1.4,0.9c0,0.2,0.1,0.3,0.2,0.4
		l2.8,0.3c0.8,0.1,1.7,0.6,1.7,1.6c0,1.6-1.4,2.6-3.5,2.6c-1.3,0-2.7-0.7-2.7-2c0-0.8,0.5-1.3,1.2-1.7c-0.3-0.2-0.5-0.5-0.5-0.9
		c0-0.5,0.4-1,1.3-1.3v0c-0.9-0.3-1.6-1.1-1.6-2.2c0-1.4,1.2-2.4,2.5-2.4c0.5,0,1,0.2,1.4,0.4l2-0.4V558.3z M324.3,565.8
		c0-0.6-0.4-1-1.1-1.1l-2.8-0.3c-0.4,0.2-0.6,0.8-0.6,1.3c0,0.9,0.7,1.9,2.3,1.9C323,567.6,324.3,567,324.3,565.8z M323.3,559.9
		c0-1.2-0.6-2-1.4-2c-0.9,0-1.4,0.8-1.4,2s0.6,2,1.4,2C322.7,561.9,323.3,561,323.3,559.9z"/>
	<path d="M332.8,563.2c-0.3,0.5-0.9,0.9-1.8,0.9c-0.8,0-1.5-0.5-1.5-1.7v-4.2h-1v-0.3l1-0.4l0.8-1.9h0.3v2.1h1.8v0.4h-1.8v4.1
		c0,0.9,0.4,1.2,1,1.2c0.5,0,0.8-0.3,1-0.5L332.8,563.2z"/>
	<path d="M337.8,557.9l-0.4,0.9c-0.2-0.1-0.9-0.5-1.1-0.5c-0.7,0-1.2,1-1.2,2.4v3l1.4,0.1v0.3h-3.4v-0.3l1-0.1v-5.3l-1-0.2v-0.3
		l2-0.3v1.6h0c0.3-1.2,1.1-1.7,1.8-1.7C337.3,557.5,337.6,557.7,337.8,557.9z"/>
	<path d="M343.7,560.3h-4.3c0,0.1,0,0.3,0,0.4c0,1.8,0.9,2.9,2.1,2.9c1,0,1.5-0.4,1.9-0.9l0.3,0.3c-0.3,0.5-1,1.2-2.4,1.2
		c-1.8,0-3.1-1.4-3.1-3.3c0-2,1.5-3.3,3-3.3s2.5,1,2.5,2.5V560.3z M342.5,559.9c0-1-0.3-2.1-1.4-2.1c-0.9,0-1.5,0.9-1.7,2.1H342.5z"
		/>
	<path d="M351.5,564h-3.1v-0.3l1.1-0.1v-5c-0.2-0.4-0.6-0.6-1.1-0.6c-1.2,0-1.9,1.2-1.9,2.7v2.9l1.1,0.1v0.3h-3.1v-0.3l1-0.1v-5.3
		l-1-0.2v-0.3l2-0.3v1.6h0c0.4-1.1,1.2-1.7,2.2-1.7c1.2,0,1.9,0.8,1.9,2v4.1l1,0.1V564z"/>
	<path d="M358.7,563.8l-2,0.3v-1l0,0c-0.4,0.6-0.9,1-1.9,1c-1.3,0-2.7-1.1-2.7-3.1c0-2.1,1.3-3.5,3-3.5c0.8,0,1.3,0.3,1.6,0.6v-4
		l-1-0.2v-0.3l2.1-0.3v10l1,0.2V563.8z M356.6,562.5v-3.7c-0.3-0.5-0.9-0.9-1.5-0.9c-1.4,0-1.9,1.5-1.9,3c0,1.6,0.7,2.7,1.9,2.7
		C356,563.6,356.4,563,356.6,562.5z"/>
	<path d="M366.3,563.2c-0.3,0.5-0.9,0.9-1.8,0.9c-0.8,0-1.5-0.5-1.5-1.7v-4.2h-1v-0.3l1-0.4l0.8-1.9h0.3v2.1h1.8v0.4h-1.8v4.1
		c0,0.9,0.4,1.2,1,1.2c0.5,0,0.8-0.3,1-0.5L366.3,563.2z"/>
	<path d="M373.6,564h-3.1v-0.3l1.1-0.1v-5c-0.2-0.4-0.6-0.6-1.1-0.6c-1.2,0-1.9,1.2-1.9,2.7v2.9l1.1,0.1v0.3h-3.1v-0.3l1-0.1v-9.4
		l-1-0.2v-0.3l2.1-0.3v5.7c0.4-1,1.1-1.6,2.2-1.6c1.2,0,1.9,0.8,1.9,2v4.1l1,0.1V564z"/>
	<path d="M377.1,564h-3v-0.3l1-0.1v-5.3l-1-0.2v-0.3l2.1-0.3v6.1l1,0.1V564z M376.2,555.2c0,0.4-0.3,0.7-0.7,0.7s-0.7-0.3-0.7-0.7
		s0.3-0.7,0.7-0.7S376.2,554.9,376.2,555.2z"/>
	<path d="M382.1,562.2c0,1-0.8,1.9-2.1,1.9c-0.6,0-1.1-0.1-1.5-0.4l-0.2,0.4H378l-0.1-2l0.3,0c0.2,1.1,0.8,1.7,1.7,1.7
		c0.7,0,1.2-0.5,1.2-1.2c0-0.8-0.7-1.1-1.4-1.4c-0.8-0.3-1.7-0.8-1.7-1.9c0-1,0.8-1.8,1.9-1.8c0.6,0,1,0.1,1.4,0.4l0.2-0.3h0.3
		l0,1.7h-0.3c-0.1-0.9-0.6-1.4-1.5-1.4c-0.7,0-1.1,0.5-1.1,1c0,0.8,0.7,1.1,1.4,1.4C381.2,560.7,382.1,561.1,382.1,562.2z"/>
	<path d="M227.6,575l-0.7,0.2l-2.4,5.9l-1.3,3.8h-1l1.9-3.9l-2.3-5.8l-0.7-0.2v-0.3h2.9v0.3l-1,0.1l1.7,4.6l1.7-4.5l-1-0.2v-0.3h2.3
		V575z"/>
	<path d="M233.2,577.3h-4.3c0,0.1,0,0.3,0,0.4c0,1.8,0.9,2.9,2.1,2.9c1,0,1.5-0.4,1.9-0.9l0.3,0.3c-0.3,0.5-1,1.2-2.4,1.2
		c-1.8,0-3.1-1.4-3.1-3.3c0-2,1.5-3.3,3-3.3s2.5,1,2.5,2.5V577.3z M232,576.9c0-1-0.3-2.1-1.4-2.1c-0.9,0-1.5,0.9-1.7,2.1H232z"/>
	<path d="M240,580.4c-0.2,0.3-0.7,0.7-1.3,0.7s-1-0.4-1.1-0.9c-0.5,0.5-1.2,0.9-1.8,0.9c-1,0-1.8-0.7-1.8-1.7c0-1.1,0.9-1.7,2-1.9
		l1.5-0.3v-1.1c0-0.8-0.3-1.2-1.2-1.2c-0.7,0-1.3,0.5-1.7,1.1l-0.3-0.3c0.5-0.8,1.3-1.4,2.2-1.4c1.4,0,2,0.6,2,1.7v3.4
		c0,0.8,0.3,1,0.6,1c0.2,0,0.5-0.1,0.6-0.3L240,580.4z M237.5,579.9v-2.2l-1,0.2c-0.8,0.1-1.4,0.6-1.4,1.4c0,0.7,0.5,1.2,1.1,1.2
		C236.7,580.5,237.2,580.3,237.5,579.9z"/>
	<path d="M244.8,574.9l-0.4,0.9c-0.2-0.1-0.9-0.5-1.1-0.5c-0.7,0-1.2,1-1.2,2.4v3l1.4,0.1v0.3h-3.4v-0.3l1-0.1v-5.3l-1-0.2v-0.3
		l2-0.3v1.6h0c0.3-1.2,1.1-1.7,1.8-1.7C244.2,574.5,244.6,574.7,244.8,574.9z"/>
	<path d="M246.5,580.3c0,0.4-0.3,0.8-0.8,0.8c-0.4,0-0.8-0.3-0.8-0.8c0-0.4,0.3-0.8,0.8-0.8C246.1,579.6,246.5,579.9,246.5,580.3z"
		/>
</g>
<g>
	<path d="M395.2,90.7v3.6h-0.4l-0.1-1.4l-3,1.1v3.7l3,1.1l0.2-1.3h0.4v2.8h-0.4l-0.2-0.9l-9.8-3.7v-0.4l9.9-3.8l0.1-0.9H395.2z
		 M391.2,94.2l-4.5,1.7l4.5,1.7V94.2z"/>
	<path d="M395.2,87.2v3.2h-0.3l-0.1-1h-10.1l-0.2,1h-0.3l-0.3-2.2h10.9l0.1-1H395.2z"/>
	<path d="M395.2,83.5v3.2h-0.3l-0.1-1h-10.1l-0.2,1h-0.3l-0.3-2.2h10.9l0.1-1H395.2z"/>
	<path d="M394.4,75.2c0.5,0.4,0.9,0.9,0.9,1.9c0,0.9-0.6,1.6-1.8,1.6h-4.5v1.1h-0.3l-0.4-1l-2-0.8v-0.4h2.2v-2h0.5v2h4.4
		c0.9,0,1.3-0.4,1.3-1c0-0.5-0.3-0.9-0.6-1.1L394.4,75.2z"/>
	<path d="M388.7,69.9l1,0.4c-0.1,0.2-0.5,1-0.5,1.1c0,0.8,1.1,1.2,2.5,1.2h3.2l0.1-1.5h0.3v3.7h-0.3l-0.1-1h-5.6l-0.2,1h-0.3
		l-0.3-2.1h1.7v0c-1.2-0.4-1.8-1.1-1.8-2C388.3,70.5,388.5,70.1,388.7,69.9z"/>
	<path d="M388.8,62.6l0.2,0.8l6.3,2.5l4,1.4v1.1l-4.1-2l-6.2,2.5l-0.2,0.8h-0.3v-3.1h0.3l0.1,1.1l4.9-1.8L389,64l-0.2,1.1h-0.3v-2.4
		H388.8z"/>
	<path d="M395.2,59v3.2h-0.3l-0.1-1h-5.7l-0.2,1h-0.3l-0.4-2.2h6.5l0.1-1H395.2z M385.9,60c0.4,0,0.7,0.3,0.7,0.7
		c0,0.4-0.3,0.7-0.7,0.7s-0.7-0.3-0.7-0.7C385.2,60.3,385.5,60,385.9,60z"/>
	<path d="M395.2,50.8v3.3h-0.3l-0.1-1.2h-5.3c-0.4,0.2-0.6,0.6-0.6,1.2c0,1.3,1.3,2,2.9,2h3.1l0.1-1.2h0.3v3.3h-0.3l-0.1-1h-5.6
		l-0.2,1h-0.3l-0.3-2.1h1.7v0c-1.1-0.4-1.8-1.2-1.8-2.4c0-1.2,0.9-2,2.1-2h4.4l0.1-1H395.2z"/>
	<path d="M389.2,43.8l-0.2,1.8l0,0c0.4-0.6,1.1-0.8,1.8-0.8c1.6,0,2.4,1.3,2.5,2.7c0.1,1,0.5,1.5,1,1.5c0.2,0,0.3-0.1,0.4-0.2l0.3-3
		c0.1-0.8,0.6-1.8,1.7-1.8c1.7,0,2.8,1.5,2.8,3.7c0,1.4-0.8,2.8-2.2,2.8c-0.9,0-1.4-0.6-1.8-1.3c-0.2,0.3-0.6,0.5-1,0.5
		c-0.5,0-1.1-0.4-1.4-1.4h0c-0.4,1-1.2,1.7-2.4,1.7c-1.5,0-2.5-1.2-2.5-2.7c0-0.6,0.2-1.1,0.4-1.5l-0.4-2.1H389.2z M397.2,44.8
		c-0.7,0-1.1,0.4-1.2,1.1l-0.3,2.9c0.3,0.4,0.8,0.7,1.4,0.7c1,0,2-0.8,2-2.4C399.1,46.3,398.5,44.8,397.2,44.8z M390.8,45.9
		c-1.2,0-2.1,0.6-2.1,1.5c0,0.9,0.9,1.5,2.1,1.5c1.2,0,2.1-0.6,2.1-1.5C393,46.5,392.1,45.9,390.8,45.9z"/>
	<path d="M394.5,41.5c0.5,0,0.8,0.4,0.8,0.8s-0.4,0.8-0.8,0.8s-0.8-0.4-0.8-0.8S394.1,41.5,394.5,41.5z"/>
</g>
</svg>
