<svg enable-background="new 0 0 437 643" viewBox="0 0 437 643" xmlns="http://www.w3.org/2000/svg"><path d="m0 0h437v643h-437z" fill="#fff"/><path d="m0 133.9h437v219.4h-437z" fill="#bfe1e8"/><path d="m94.7 118.7-.6 4.3h-12.1l-2.5 19.8h12.1l-.6 4.3h-12.1l-3 24.4h-4.4l3-24.4h-17.2l-3 24.4h-4.4l3-24.4h-12.2l.6-4.3h12.1l2.6-19.8h-12.2l.6-4.3h12.1l3.1-24.5h4.4l-3 24.5h17.2l3.1-24.5h4.4l-3.1 24.5zm-17.1 4.3h-17.2l-2.5 19.8h17.1z" fill="#eb5e5e"/><path d="m189.7 135c0 27.6-22.6 40.4-53.2 40.4-13.8 0-27.4-5-35-11.4l5.6-11.6c7.4 6 16.6 9.8 27 9.8 15.8 0 24.2-10.4 24.2-27.2 0-14.6-12.2-24-24.6-24-4.2 0-9 .8-13.4 2l-1.8-13.8c22.2 0 34.6-7.8 34.6-27.2 0-13.4-7.6-19.2-17.2-19.2-10.6 0-17.6 5.8-22.8 15.4l-9.4-8.6c9.4-13.4 20.2-19.8 38.8-19.8 21.4 0 41.2 8.8 41.2 32.2 0 14.8-13 28-30.8 30.8v.4c18.6 1.4 36.8 12.6 36.8 31.8z" fill="#eb5e5e"/><path d="m67.1 389.7-1.6.3-6.4 18.7h-.4l-4.6-13.4-4.6 13.4h-.4l-6.4-18.7-1.6-.3v-.7h6.7v.7l-2.6.2 4.7 14.2 3.6-10.6-1.3-3.6-1.7-.2v-.7h6.9v.7l-2.6.2v.2l4.7 14 4.8-14.2-2.5-.2v-.7h5.3z"/><path d="m87.6 408.4h-7v-.7l2.3-.2v-8.7h-9.8v8.7l2.3.2v.7h-7v-.7l2.3-.2v-17.5l-2.3-.2v-.7h7v.7l-2.3.2v7.9h9.8v-7.9l-2.3-.2v-.7h7v.7l-2.3.2v17.5l2.3.2z"/><path d="m97.2 408.4h-7v-.7l2.3-.2v-17.5l-2.3-.2v-.7h7v.7l-2.3.2v17.5l2.3.2z"/><path d="m114.4 393.7h-.8l-.4-3.7h-5.3v17.5l2.5.2v.7h-7.4v-.7l2.5-.2v-17.5h-5.3l-.4 3.7h-.8v-4.7h15.4z"/><path d="m129.6 408.4h-13.4v-.7l2.3-.2v-17.5l-2.3-.2v-.7h13v4.1h-.8l-.4-3.1h-7v7.8h5.2l.3-2.1h.8v5.1h-.8l-.3-2.1h-5.2v8.5h7.4l.4-3.4h.9v4.5z"/><path d="m136 407.1c0 .9-.7 1.6-1.6 1.6s-1.6-.7-1.6-1.6.7-1.6 1.6-1.6 1.6.8 1.6 1.6z"/><path d="m163.9 389.7-2.3.4v18.4h-.5l-12.8-16v14.7l2.3.4v.7h-5.8v-.7l2.3-.4v-16.1l-.9-1.1-1.4-.3v-.7h3.7l12 14.9v-13.9l-2.3-.4v-.7h5.8v.8z"/><path d="m183.9 389.7-2.3.4v11.2c0 4.3-2.2 7.4-7 7.4-4.6 0-7.1-2.8-7.1-7.4v-11.3l-2.3-.2v-.7h7v.7l-2.3.2v11.1c0 3.9 1.3 6.5 5.2 6.5 3.8 0 5.5-2.5 5.5-6.4v-11l-2.3-.4v-.7h5.8v.6z"/><path d="m209.1 408.4h-7v-.7l2.4-.2-.9-15.8-6.9 16.7h-.2l-7-16.6-.9 15.5 2.4.4v.7h-6v-.7l2.3-.4 1-17.3-2.4-.3v-.7h4.7l6.5 15.5 6.4-15.5h4.6v.7l-2.4.2 1 17.5 2.3.2v.8z"/><path d="m225.8 402.9c0 3.2-2.3 5.5-7.9 5.5h-6.7v-.7l2.3-.2v-17.5l-2.3-.2v-.7h7.4c3.6 0 5.8 1.4 5.8 4.6 0 2.4-1.8 4-3.9 4.4v.1c2.9.1 5.3 1.5 5.3 4.7zm-3.7-9.1c0-2.6-1.6-3.9-4.2-3.9-.8 0-1.4 0-2 .1v7.8h1.7c2.9.1 4.5-1.6 4.5-4zm1.3 9.4c0-2.5-1.8-4.5-5.1-4.5h-2.4v8.5c.9.2 1.4.2 2.7.2 3.1.1 4.8-1.7 4.8-4.2z"/><path d="m241.5 408.4h-13.4v-.7l2.3-.2v-17.5l-2.3-.2v-.7h13v4.1h-.8l-.4-3.1h-7v7.8h5.2l.3-2.1h.8v5.1h-.8l-.3-2.1h-5.2v8.5h7.4l.4-3.4h.9v4.5z"/><path d="m260.9 408.4h-3.7l-5.8-8.5-2.5.2v7.4l2.6.2v.7h-7.3v-.7l2.3-.2v-17.5l-2.3-.2v-.7h7.4c3.3 0 6.1 1.5 6.1 4.8 0 2.6-1.7 4.7-4.1 5.5l5.6 8.1 1.6.3v.6zm-5.6-14.1c0-2.9-1.6-4.3-4.4-4.3-.7 0-1.3 0-2 .1v9h1.5c3 0 4.9-1.8 4.9-4.8z"/><path d="m265.8 407.1c0 .9-.7 1.6-1.6 1.6s-1.6-.7-1.6-1.6.7-1.6 1.6-1.6 1.6.8 1.6 1.6z"/><path d="m291.9 394.7h-1.7l-.5-3.9h-4.3v16l2.5.4v1.3h-9.9v-1.3l2.5-.4v-16h-4.3l-.5 3.9h-1.7v-5.6h17.8v5.6z"/><path d="m314.5 408.4h-9.5v-1.3l2.4-.4v-7.6h-7v7.6l2.4.4v1.3h-9.5v-1.3l2.3-.4v-16.1l-2.3-.4v-1.3h9.5v1.3l-2.4.4v6.8h7v-6.8l-2.4-.4v-1.3h9.5v1.3l-2.3.4v16.1l2.3.4z"/><path d="m325.9 408.4h-9.5v-1.3l2.3-.4v-16.1l-2.3-.4v-1.3h9.5v1.3l-2.3.4v16.1l2.3.4z"/><path d="m347.8 390.3-2.3.4v17.8h-2.3l-11.2-14.2v12.3l2.3.4v1.3h-6.7v-1.3l2.3-.4v-14.8l-1.1-1.4-1.3-.2v-1.2h6.2l9.8 12.3v-10.6l-2.3-.4v-1.3h6.7v1.3z"/><path d="m353.5 406.3c0 1.3-1 2.3-2.3 2.3s-2.3-1-2.3-2.3 1-2.3 2.3-2.3 2.3 1.1 2.3 2.3z"/><path d="m48.7 436.5h-7v-.4l1.2-.1v-9.3l-1.2-.1v-.4h3.9v.4l-1.4.1v9.3h3.8l.2-1.9h.5z"/><path d="m52.7 436.5h-3.2v-.3l1-.1v-5.7l-1-.2v-.2l2.2-.4v6.5l1 .1zm-.9-9.3c0 .4-.3.7-.7.7s-.7-.3-.7-.7.3-.7.7-.7c.3 0 .7.3.7.7z"/><path d="m60.9 436.5h-3.3v-.3l1.2-.1v-5.3c-.2-.4-.6-.6-1.2-.6-1.3 0-2 1.3-2 2.9v3.1l1.2.1v.3h-3.3v-.3l1-.1v-5.6l-1-.2v-.4l2.1-.3v1.7c.4-1.1 1.2-1.8 2.4-1.8s2 .9 2 2.1v4.4l1 .1v.3z"/><path d="m67.4 432.6h-4.6v.4c0 1.9.9 3.1 2.2 3.1 1 0 1.6-.4 2-1l.3.3c-.3.5-1.1 1.3-2.5 1.3-1.9 0-3.3-1.5-3.3-3.6s1.6-3.5 3.2-3.5c1.7 0 2.7 1.1 2.7 2.7zm-1.2-.4c0-1-.3-2.2-1.5-2.2-.9 0-1.6.9-1.8 2.2z"/><path d="m74.5 436.5h-3.2v-.3l1-.1v-10.1l-1-.2v-.3l2.2-.3v10.9l1 .1z"/><path d="m81.1 432.6h-4.6v.4c0 1.9.9 3.1 2.2 3.1 1 0 1.6-.4 2-1l.3.3c-.3.5-1.1 1.3-2.5 1.3-1.9 0-3.3-1.5-3.3-3.6s1.6-3.5 3.2-3.5c1.7 0 2.7 1.1 2.7 2.7zm-1.2-.4c0-1-.3-2.2-1.5-2.2-.9 0-1.6.9-1.8 2.2z"/><path d="m89.5 436.5h-3.3v-.3l1.2-.1v-5.3c-.2-.4-.6-.6-1.2-.6-1.3 0-2 1.3-2 2.9v3.1l1.2.1v.3h-3.3v-.3l1-.1v-5.6l-1-.2v-.4l2.1-.3v1.7c.4-1.1 1.2-1.8 2.4-1.8s2 .9 2 2.1v4.4l1 .1v.3z"/><path d="m96.5 430.5-1.8-.2c.6.4.8 1.1.8 1.8 0 1.6-1.3 2.4-2.7 2.5-1 .1-1.5.5-1.5 1 0 .2.1.3.2.4l3 .3c.8.1 1.8.6 1.8 1.7 0 1.7-1.5 2.8-3.7 2.8-1.4 0-2.8-.8-2.8-2.2 0-.9.6-1.4 1.3-1.8-.3-.2-.5-.6-.5-1 0-.5.4-1.1 1.4-1.4-1-.4-1.7-1.2-1.7-2.4 0-1.5 1.2-2.5 2.7-2.5.6 0 1.1.2 1.5.4l2.1-.4v1zm-1.1 8c0-.7-.4-1.1-1.1-1.2l-2.9-.3c-.4.3-.7.8-.7 1.4 0 1 .8 2 2.4 2 .9 0 2.3-.6 2.3-1.9zm-1.1-6.4c0-1.2-.6-2.1-1.5-2.1s-1.5.9-1.5 2.1.6 2.1 1.5 2.1c.9.1 1.5-.8 1.5-2.1z"/><path d="m101.3 435.7c-.4.5-.9.9-1.9.9-.9 0-1.6-.6-1.6-1.8v-4.5h-1.1v-.3l1-.4.8-2h.4v2.2h2v.5h-2v4.4c0 .9.4 1.3 1 1.3.5 0 .9-.3 1.1-.6z"/><path d="m109.1 436.5h-3.3v-.3l1.2-.1v-5.3c-.2-.4-.6-.6-1.2-.6-1.3 0-2 1.3-2 2.9v3.1l1.2.1v.3h-3.3v-.3l1-.1v-10.2l-1-.2v-.3l2.2-.3v6c.4-1 1.2-1.7 2.3-1.7 1.2 0 2 .9 2 2.1v4.4l1 .1v.4z"/><path d="m114.2 434.7c0 1-.8 2-2.3 2-.7 0-1.2-.1-1.6-.4l-.2.4h-.3l-.1-2.1h.3c.2 1.1.8 1.8 1.8 1.8.8 0 1.3-.5 1.3-1.3s-.7-1.2-1.5-1.5c-.9-.4-1.8-.8-1.8-2 0-1.1.9-1.9 2-1.9.6 0 1 .1 1.5.4l.2-.4h.3v1.8h-.3c-.2-.9-.7-1.5-1.6-1.5-.8 0-1.2.6-1.2 1.1 0 .8.7 1.2 1.5 1.5 1.1.4 2 .9 2 2.1z"/><path d="m117 435.8c0 .5-.4.8-.8.8s-.8-.4-.8-.8.4-.8.8-.8.8.4.8.8z"/><path d="m50 513h-3.4v-.3l1.3-.1-1.1-2.8h-3.5l-1 2.8 1.3.2v.3h-2.6v-.3l.8-.2 3.5-9.2h.3l3.5 9.3.8.1v.2zm-3.3-3.8-1.6-4.2-1.6 4.2z"/><path d="m57.5 512.2c-.3.5-.9.9-1.8.9-.8 0-1.5-.5-1.5-1.7v-4.2h-1v-.3l1-.4.8-1.9h.3v2.1h1.8v.4h-1.8v4.1c0 .9.4 1.2 1 1.2.5 0 .8-.3 1-.5z"/><path d="m63.9 507-.7.2-2.4 5.9-1.3 3.8h-1l1.9-3.9-2.3-5.8-.7-.1v-.3h2.9v.3l-1 .1 1.7 4.6 1.7-4.5-1-.1v-.3h2.3v.1z"/><path d="m70.8 509.6c0 2.1-1.4 3.5-3.1 3.5-.7 0-1.1-.2-1.5-.4v3.7l1.4.1v.3h-3.4v-.3l1-.1v-9.1l-1-.2v-.3l2-.3v1c.4-.6 1.1-1.1 2-1.1 1.3.1 2.6 1.2 2.6 3.2zm-1.2.1c0-1.6-.6-2.7-1.8-2.7-.8 0-1.4.5-1.6 1.1v4c.3.3.9.6 1.4.6 1.4 0 2-1.5 2-3z"/><path d="m77 509.3h-4.3v.4c0 1.8.9 2.9 2.1 2.9 1 0 1.5-.4 1.9-.9l.3.3c-.3.5-1 1.2-2.4 1.2-1.8 0-3.1-1.4-3.1-3.3 0-2 1.5-3.3 3-3.3s2.5 1 2.5 2.5zm-1.1-.4c0-1-.3-2.1-1.4-2.1-.9 0-1.5.9-1.7 2.1z"/><path d="m82.5 502.5-.4.9c-.6-.4-1.1-.7-1.4-.7-.5 0-.8.4-.8 1.6v2.4h1.8v.4h-1.8v5.4l1.4.1v.3h-3.5v-.3l1-.1v-5.4h-1v-.3l1-.3v-1.2c0-1.8.7-3.3 2.5-3.3.5.2.8.3 1.2.5z"/><path d="m87.9 512.4c-.2.3-.7.7-1.3.7s-1-.4-1.1-.9c-.4.5-1.2.9-1.8.9-1 0-1.8-.7-1.8-1.6 0-1.1.9-1.7 2-1.9l1.5-.3v-1.1c0-.8-.3-1.2-1.2-1.2-.7 0-1.3.5-1.7 1.1l-.3-.3c.5-.8 1.3-1.4 2.2-1.4 1.4 0 2 .6 2 1.7v3.4c0 .8.3 1 .6 1 .2 0 .5-.1.6-.3zm-2.4-.5v-2.2l-1 .2c-.8.2-1.4.6-1.4 1.4 0 .7.5 1.2 1.1 1.2.5 0 1-.2 1.3-.6z"/><path d="m93.6 512c-.3.5-1 1.2-2.4 1.2-1.7 0-3.1-1.4-3.1-3.4s1.5-3.3 3.1-3.3c.7 0 1.2.1 1.8.4l.2-.4h.3l-.1 1.8h-.4c-.2-.9-.8-1.5-1.8-1.5-1.2 0-2 1.1-2 2.8s.9 2.9 2.1 2.9c1 0 1.5-.4 1.9-.9z"/><path d="m99.7 509.3h-4.3v.4c0 1.8.9 2.9 2.1 2.9 1 0 1.5-.4 1.9-.9l.3.3c-.3.5-1 1.2-2.4 1.2-1.8 0-3.1-1.4-3.1-3.3 0-2 1.5-3.3 3-3.3s2.5 1 2.5 2.5zm-1.1-.4c0-1-.3-2.1-1.4-2.1-.9 0-1.5.9-1.7 2.1z"/><path d="m108.2 506.9-.4.9c-.2-.1-.9-.5-1.1-.5-.7 0-1.2 1-1.2 2.4v3l1.4.1v.3h-3.4v-.3l1-.1v-5.3l-1-.2v-.3l2-.3v1.6c.3-1.2 1.1-1.7 1.8-1.7.3 0 .7.2.9.4z"/><path d="m114 509.3h-4.3v.4c0 1.8.9 2.9 2.1 2.9 1 0 1.5-.4 1.9-.9l.3.3c-.3.5-1 1.2-2.4 1.2-1.8 0-3.1-1.4-3.1-3.3 0-2 1.5-3.3 3-3.3s2.5 1 2.5 2.5zm-1.1-.4c0-1-.3-2.1-1.4-2.1-.9 0-1.5.9-1.7 2.1z"/><path d="m121.3 509.6c0 2.1-1.4 3.5-3.1 3.5-.7 0-1.1-.2-1.5-.4v3.7l1.4.1v.3h-3.4v-.3l1-.1v-9.1l-1-.2v-.3l2-.3v1c.4-.6 1.1-1.1 2-1.1 1.3.1 2.6 1.2 2.6 3.2zm-1.2.1c0-1.6-.6-2.7-1.8-2.7-.8 0-1.4.5-1.6 1.1v4c.3.3.9.6 1.4.6 1.4 0 2-1.5 2-3z"/><path d="m126.6 506.9-.4.9c-.2-.1-.9-.5-1.1-.5-.7 0-1.2 1-1.2 2.4v3l1.4.1v.3h-3.3v-.3l1-.1v-5.3l-1-.2v-.3l2-.3v1.6c.3-1.2 1.1-1.7 1.8-1.7.3 0 .7.2.8.4z"/><path d="m132.5 509.3h-4.3v.4c0 1.8.9 2.9 2.1 2.9 1 0 1.5-.4 1.9-.9l.3.3c-.3.5-1 1.2-2.4 1.2-1.8 0-3.1-1.4-3.1-3.3 0-2 1.5-3.3 3-3.3s2.5 1 2.5 2.5zm-1.2-.4c0-1-.3-2.1-1.4-2.1-.9 0-1.5.9-1.7 2.1z"/><path d="m137.6 511.2c0 1-.8 1.9-2.1 1.9-.6 0-1.1-.1-1.5-.4l-.1.4h-.3l-.1-2h.3c.2 1.1.8 1.6 1.7 1.6.7 0 1.2-.5 1.2-1.2 0-.8-.7-1.1-1.4-1.4-.8-.3-1.7-.8-1.7-1.9 0-1 .8-1.8 1.9-1.8.6 0 1 .1 1.4.4l.2-.3h.3v1.7h-.4c-.1-.9-.6-1.4-1.5-1.4-.7 0-1.1.5-1.1 1 0 .8.7 1.1 1.4 1.4.9.5 1.8.9 1.8 2z"/><path d="m144 509.3h-4.3v.4c0 1.8.9 2.9 2.1 2.9 1 0 1.5-.4 1.9-.9l.3.3c-.3.5-1 1.2-2.4 1.2-1.8 0-3.1-1.4-3.1-3.3 0-2 1.5-3.3 3-3.3s2.5 1 2.5 2.5zm-1.2-.4c0-1-.3-2.1-1.4-2.1-.9 0-1.5.9-1.7 2.1z"/><path d="m151.8 513h-3.1v-.3l1.1-.1v-5c-.1-.4-.6-.6-1.1-.6-1.2 0-1.9 1.2-1.9 2.7v2.9l1.1.1v.3h-3.1v-.3l1-.1v-5.3l-1-.2v-.3l2-.3v1.6c.4-1.1 1.2-1.7 2.2-1.7 1.2 0 1.9.8 1.9 2v4.1l1 .1v.4z"/><path d="m156.4 512.2c-.3.5-.9.9-1.8.9-.8 0-1.5-.5-1.5-1.7v-4.2h-1v-.3l1-.4.8-1.9h.3v2.1h1.8v.4h-1.8v4.1c0 .9.4 1.2 1 1.2.5 0 .8-.3 1-.5z"/><path d="m164.2 511.2c0 1-.8 1.9-2.1 1.9-.6 0-1.1-.1-1.5-.4l-.1.4h-.3l-.1-2h.3c.2 1.1.8 1.6 1.7 1.6.7 0 1.2-.5 1.2-1.2 0-.8-.7-1.1-1.4-1.4-.8-.3-1.7-.8-1.7-1.9 0-1 .8-1.8 1.9-1.8.6 0 1 .1 1.4.4l.2-.3h.3v1.7h-.3c-.1-.9-.6-1.4-1.5-1.4-.7 0-1.1.5-1.1 1 0 .8.7 1.1 1.4 1.4.8.5 1.7.9 1.7 2z"/><path d="m171.9 513h-3.1v-.3l1.1-.1v-5c-.2-.4-.6-.6-1.1-.6-1.2 0-1.9 1.2-1.9 2.7v2.9l1.1.1v.3h-3.1v-.3l1-.1v-9.4l-1-.2v-.3l2.1-.3v5.7c.4-1 1.1-1.6 2.2-1.6 1.2 0 1.9.8 1.9 2v4.1l1 .1v.3z"/><path d="m178.4 512.4c-.2.3-.7.7-1.3.7s-1-.4-1.1-.9c-.4.5-1.2.9-1.8.9-1 0-1.8-.7-1.8-1.6 0-1.1.9-1.7 2-1.9l1.5-.3v-1.1c0-.8-.3-1.2-1.2-1.2-.7 0-1.3.5-1.7 1.1l-.3-.3c.5-.8 1.3-1.4 2.2-1.4 1.4 0 2 .6 2 1.7v3.4c0 .8.3 1 .6 1 .2 0 .5-.1.6-.3zm-2.4-.5v-2.2l-1 .2c-.8.2-1.4.6-1.4 1.4 0 .7.5 1.2 1.1 1.2.4 0 .9-.2 1.3-.6z"/><path d="m183.3 506.9-.4.9c-.2-.1-.9-.5-1.1-.5-.7 0-1.2 1-1.2 2.4v3l1.4.1v.3h-3.4v-.3l1-.1v-5.3l-1-.2v-.3l2-.3v1.6c.3-1.2 1.1-1.7 1.8-1.7.3 0 .7.2.9.4z"/><path d="m189.1 509.3h-4.3v.4c0 1.8.9 2.9 2.1 2.9 1 0 1.5-.4 1.9-.9l.3.3c-.3.5-1 1.2-2.4 1.2-1.8 0-3.1-1.4-3.1-3.3 0-2 1.5-3.3 3-3.3s2.5 1 2.5 2.5zm-1.2-.4c0-1-.3-2.1-1.4-2.1-.9 0-1.5.9-1.7 2.1z"/><path d="m196.5 512.8-2 .3v-1c-.4.6-.9 1-1.9 1-1.3 0-2.7-1.1-2.7-3.1 0-2.1 1.3-3.5 3-3.5.8 0 1.3.3 1.6.6v-4l-1-.2v-.3l2.1-.3v10l1 .2v.3zm-2-1.3v-3.7c-.3-.5-.9-.9-1.5-.9-1.4 0-1.9 1.5-1.9 3 0 1.6.7 2.7 1.9 2.7.8 0 1.3-.6 1.5-1.1z"/><path d="m47.8 526.6c0 2.1-1.4 3.5-3.1 3.5-.7 0-1.1-.2-1.5-.4v3.7l1.4.1v.3h-3.4v-.3l1-.1v-9.1l-1-.2v-.3l2-.3v1c.4-.6 1.1-1.1 2-1.1 1.3.1 2.6 1.2 2.6 3.2zm-1.1.1c0-1.6-.6-2.7-1.8-2.7-.8 0-1.4.5-1.6 1.1v4c.3.3.9.6 1.4.6 1.4 0 2-1.5 2-3z"/><path d="m54.5 529.4c-.2.3-.7.7-1.3.7s-1-.4-1.1-.9c-.4.5-1.2.9-1.8.9-1 0-1.8-.7-1.8-1.6 0-1.1.9-1.7 2-1.9l1.5-.3v-1.1c0-.8-.3-1.2-1.2-1.2-.7 0-1.3.5-1.7 1.1l-.3-.3c.5-.8 1.3-1.4 2.2-1.4 1.4 0 2 .6 2 1.7v3.4c0 .8.3 1 .6 1 .2 0 .5-.1.6-.3zm-2.4-.5v-2.2l-1 .2c-.8.2-1.4.6-1.4 1.4 0 .7.5 1.2 1.1 1.2.4 0 1-.2 1.3-.6z"/><path d="m58.7 529.2c-.3.5-.9.9-1.8.9-.8 0-1.5-.5-1.5-1.7v-4.2h-1v-.3l1-.4.8-1.9h.3v2.1h1.8v.4h-1.8v4.1c0 .9.4 1.2 1 1.2.5 0 .8-.3 1-.5z"/><path d="m63 529.2c-.3.5-.9.9-1.8.9-.8 0-1.5-.5-1.5-1.7v-4.2h-1v-.3l1-.4.8-1.9h.3v2.1h1.8v.4h-1.8v4.1c0 .9.4 1.2 1 1.2.5 0 .8-.3 1-.5z"/><path d="m68.8 526.3h-4.3v.4c0 1.8.9 2.9 2.1 2.9 1 0 1.5-.4 1.9-.9l.3.3c-.3.5-1 1.2-2.4 1.2-1.8 0-3.1-1.4-3.1-3.3 0-2 1.5-3.3 3-3.3s2.5 1 2.5 2.5zm-1.2-.4c0-1-.3-2.1-1.4-2.1-.9 0-1.5.9-1.7 2.1z"/><path d="m74.2 523.9-.4.9c-.2-.1-.9-.5-1.1-.5-.7 0-1.2 1-1.2 2.4v3l1.4.1v.3h-3.4v-.3l1-.1v-5.3l-1-.2v-.3l2-.3v1.6c.3-1.2 1.1-1.7 1.8-1.7.3 0 .7.2.9.4z"/><path d="m81.8 530h-3.1v-.3l1.1-.1v-5c-.1-.4-.6-.6-1.1-.6-1.2 0-1.9 1.2-1.9 2.7v2.9l1.1.1v.3h-3.1v-.3l1-.1v-5.3l-1-.2v-.3l2-.3v1.6c.4-1.1 1.2-1.7 2.2-1.7 1.2 0 1.9.8 1.9 2v4.1l1 .1v.4z"/><path d="m86.6 528.2c0 1-.8 1.9-2.1 1.9-.6 0-1.1-.1-1.5-.4l-.1.4h-.3l-.1-2h.3c.2 1.1.8 1.6 1.7 1.6.7 0 1.2-.5 1.2-1.2 0-.8-.7-1.1-1.4-1.4-.8-.3-1.7-.8-1.7-1.9 0-1 .8-1.8 1.9-1.8.6 0 1 .1 1.4.4l.2-.3h.3v1.7h-.4c-.1-.9-.6-1.4-1.5-1.4-.7 0-1.1.5-1.1 1 0 .8.7 1.1 1.4 1.4 1 .5 1.8.9 1.8 2z"/><path d="m96.5 529.4c-.2.3-.7.7-1.3.7s-1-.4-1.1-.9c-.4.5-1.2.9-1.8.9-1 0-1.8-.7-1.8-1.6 0-1.1.9-1.7 2-1.9l1.5-.3v-1.1c0-.8-.3-1.2-1.2-1.2-.7 0-1.3.5-1.7 1.1l-.3-.3c.5-.8 1.3-1.4 2.2-1.4 1.4 0 2 .6 2 1.7v3.4c0 .8.3 1 .6 1 .2 0 .5-.1.6-.3zm-2.5-.5v-2.2l-1 .2c-.8.2-1.4.6-1.4 1.4 0 .7.5 1.2 1.1 1.2.5 0 1-.2 1.3-.6z"/><path d="m102.1 529c-.3.5-1 1.2-2.4 1.2-1.7 0-3.1-1.4-3.1-3.4s1.5-3.3 3.1-3.3c.7 0 1.2.1 1.8.4l.2-.4h.3l-.1 1.8h-.3c-.2-.9-.8-1.5-1.8-1.5-1.2 0-2 1.1-2 2.8s.9 2.9 2.1 2.9c1 0 1.5-.4 1.9-.9z"/><path d="m107.5 523.9-.4.9c-.2-.1-.9-.5-1.1-.5-.7 0-1.2 1-1.2 2.4v3l1.4.1v.3h-3.4v-.3l1-.1v-5.3l-1-.2v-.3l2-.3v1.6c.3-1.2 1.1-1.7 1.8-1.7.3 0 .7.2.9.4z"/><path d="m114 526.8c0 2-1.4 3.3-3.1 3.3s-3.1-1.3-3.1-3.3 1.4-3.3 3.1-3.3 3.1 1.3 3.1 3.3zm-1.2 0c0-1.8-.7-3-1.9-3s-1.9 1.1-1.9 3 .7 3 1.9 3 1.9-1.1 1.9-3z"/><path d="m119 528.2c0 1-.8 1.9-2.1 1.9-.6 0-1.1-.1-1.5-.4l-.1.4h-.3l-.1-2h.3c.2 1.1.8 1.6 1.7 1.6.7 0 1.2-.5 1.2-1.2 0-.8-.7-1.1-1.4-1.4-.8-.3-1.7-.8-1.7-1.9 0-1 .8-1.8 1.9-1.8.6 0 1 .1 1.4.4l.2-.3h.3v1.7h-.3c-.1-.9-.6-1.4-1.5-1.4-.7 0-1.1.5-1.1 1 0 .8.7 1.1 1.4 1.4.9.5 1.7.9 1.7 2z"/><path d="m124.1 528.2c0 1-.8 1.9-2.1 1.9-.6 0-1.1-.1-1.5-.4l-.1.4h-.3l-.1-2h.3c.2 1.1.8 1.6 1.7 1.6.7 0 1.2-.5 1.2-1.2 0-.8-.7-1.1-1.4-1.4-.8-.3-1.7-.8-1.7-1.9 0-1 .8-1.8 1.9-1.8.6 0 1 .1 1.4.4l.2-.3h.3v1.7h-.3c-.1-.9-.6-1.4-1.5-1.4-.7 0-1.1.5-1.1 1 0 .8.7 1.1 1.4 1.4.9.5 1.7.9 1.7 2z"/><path d="m134 529.4c-.2.3-.7.7-1.3.7s-1-.4-1.1-.9c-.4.5-1.2.9-1.8.9-1 0-1.8-.7-1.8-1.6 0-1.1.9-1.7 2-1.9l1.5-.3v-1.1c0-.8-.3-1.2-1.2-1.2-.7 0-1.3.5-1.7 1.1l-.3-.3c.5-.8 1.3-1.4 2.2-1.4 1.4 0 2 .6 2 1.7v3.4c0 .8.3 1 .6 1 .2 0 .5-.1.6-.3zm-2.5-.5v-2.2l-1 .2c-.8.2-1.4.6-1.4 1.4 0 .7.5 1.2 1.1 1.2.5 0 1-.2 1.3-.6z"/><path d="m142.6 529c-.3.5-1 1.2-2.4 1.2-1.7 0-3.1-1.4-3.1-3.4s1.5-3.3 3.1-3.3c.7 0 1.2.1 1.8.4l.2-.4h.3l-.1 1.8h-.3c-.2-.9-.8-1.5-1.8-1.5-1.2 0-2 1.1-2 2.8s.9 2.9 2.1 2.9c1 0 1.5-.4 1.9-.9z"/><path d="m149.4 526.8c0 2-1.4 3.3-3.1 3.3s-3.1-1.3-3.1-3.3 1.4-3.3 3.1-3.3 3.1 1.3 3.1 3.3zm-1.2 0c0-1.8-.7-3-1.9-3s-1.9 1.1-1.9 3 .7 3 1.9 3 1.9-1.1 1.9-3z"/><path d="m153 530h-3v-.3l1-.1v-9.4l-1-.2v-.3l2.1-.3v10.2l1 .1v.3z"/><path d="m156.6 530h-3v-.3l1-.1v-9.4l-1-.2v-.3l2.1-.3v10.2l1 .1v.3z"/><path d="m162.7 526.3h-4.3v.4c0 1.8.9 2.9 2.1 2.9 1 0 1.5-.4 1.9-.9l.3.3c-.3.5-1 1.2-2.4 1.2-1.8 0-3.1-1.4-3.1-3.3 0-2 1.5-3.3 3-3.3s2.5 1 2.5 2.5zm-1.1-.4c0-1-.3-2.1-1.4-2.1-.9 0-1.5.9-1.7 2.1z"/><path d="m169 529c-.3.5-1 1.2-2.4 1.2-1.7 0-3.1-1.4-3.1-3.4s1.5-3.3 3.1-3.3c.7 0 1.2.1 1.8.4l.2-.4h.3l-.1 1.8h-.3c-.2-.9-.8-1.5-1.8-1.5-1.2 0-2 1.1-2 2.8s.9 2.9 2.1 2.9c1 0 1.5-.4 1.9-.9z"/><path d="m173.8 529.2c-.3.5-.9.9-1.8.9-.8 0-1.5-.5-1.5-1.7v-4.2h-1v-.3l1-.4.8-1.9h.3v2.1h1.8v.4h-1.8v4.1c0 .9.4 1.2 1 1.2.5 0 .8-.3 1-.5z"/><path d="m177.2 530h-3v-.3l1-.1v-5.3l-1-.2v-.3l2.1-.3v6.1l1 .1v.3zm-.9-8.8c0 .4-.3.7-.7.7s-.7-.3-.7-.7.3-.7.7-.7.7.4.7.7z"/><path d="m184 526.8c0 2-1.4 3.3-3.1 3.3s-3.1-1.3-3.1-3.3 1.4-3.3 3.1-3.3 3.1 1.3 3.1 3.3zm-1.2 0c0-1.8-.7-3-1.9-3s-1.9 1.1-1.9 3 .7 3 1.9 3 1.9-1.1 1.9-3z"/><path d="m191.8 530h-3.1v-.3l1.1-.1v-5c-.1-.4-.6-.6-1.1-.6-1.2 0-1.9 1.2-1.9 2.7v2.9l1.1.1v.3h-3.1v-.3l1-.1v-5.3l-1-.2v-.3l2-.3v1.6c.4-1.1 1.2-1.7 2.2-1.7 1.2 0 1.9.8 1.9 2v4.1l1 .1v.4z"/><path d="m52.2 547h-3.1v-.3l1.1-.1v-5c-.2-.4-.4-.6-1-.6-1 0-1.8 1.1-1.8 2.7v2.9l1.1.1v.3h-3.2v-.3l1.1-.1v-5c-.2-.4-.4-.6-1-.6-1 0-1.8 1.1-1.8 2.7v2.9l1.1.1v.3h-3.1v-.3l1-.1v-5.3l-1-.2v-.3l2-.3v1.6c.3-.9 1.1-1.7 2.1-1.7s1.6.6 1.8 1.7c.3-1 1.1-1.7 2.1-1.7 1.1 0 1.8.8 1.8 2v4.1l1 .1v.4z"/><path d="m58.7 546.4c-.2.3-.7.7-1.3.7s-1-.4-1.1-.9c-.4.5-1.2.9-1.8.9-1 0-1.8-.7-1.8-1.6 0-1.1.9-1.7 2-1.9l1.5-.3v-1.1c0-.8-.3-1.2-1.2-1.2-.7 0-1.3.5-1.7 1.1l-.3-.3c.5-.8 1.3-1.4 2.2-1.4 1.4 0 2 .6 2 1.7v3.4c0 .8.3 1 .6 1 .2 0 .5-.1.6-.3zm-2.5-.5v-2.2l-1 .2c-.8.2-1.4.6-1.4 1.4 0 .7.5 1.2 1.1 1.2.5 0 1-.2 1.3-.6z"/><path d="m65.5 546.8-2 .3v-1c-.4.6-.9 1-1.9 1-1.3 0-2.7-1.1-2.7-3.1 0-2.1 1.3-3.5 3-3.5.8 0 1.3.3 1.6.6v-4l-1-.2v-.3l2.1-.3v10l1 .2v.3zm-2-1.3v-3.7c-.3-.5-.9-.9-1.5-.9-1.4 0-1.9 1.5-1.9 3 0 1.6.7 2.7 1.9 2.7.8 0 1.2-.6 1.5-1.1z"/><path d="m71.6 543.3h-4.3v.4c0 1.8.9 2.9 2.1 2.9 1 0 1.5-.4 1.9-.9l.3.3c-.3.5-1 1.2-2.4 1.2-1.8 0-3.1-1.4-3.1-3.3 0-2 1.5-3.3 3-3.3s2.5 1 2.5 2.5zm-1.2-.4c0-1-.3-2.1-1.4-2.1-.9 0-1.5.9-1.7 2.1z"/><path d="m81.5 543.8c0 2-1.4 3.3-3.1 3.3s-3.1-1.3-3.1-3.3 1.4-3.3 3.1-3.3 3.1 1.3 3.1 3.3zm-1.2 0c0-1.8-.7-3-1.9-3s-1.9 1.1-1.9 3 .7 3 1.9 3 1.9-1.1 1.9-3z"/><path d="m89 546.8-2 .3v-1.6c-.4 1.1-1.2 1.7-2.2 1.7-1.2 0-1.9-.8-1.9-2v-4l-1-.2v-.3h2.1v5.3c.1.4.5.6 1.1.6 1.2 0 1.9-1.2 1.9-2.7v-2.7l-1.1-.2v-.3h2.2v5.7l1 .2v.2z"/><path d="m93.6 546.2c-.3.5-.9.9-1.8.9-.8 0-1.5-.5-1.5-1.7v-4.2h-1v-.3l1-.4.8-1.9h.3v2.1h1.8v.4h-1.8v4.1c0 .9.4 1.2 1 1.2.5 0 .8-.3 1-.5z"/><path d="m103.2 543.8c0 2-1.4 3.3-3.1 3.3s-3.1-1.3-3.1-3.3 1.4-3.3 3.1-3.3 3.1 1.3 3.1 3.3zm-1.2 0c0-1.8-.7-3-1.9-3s-1.9 1.1-1.9 3 .7 3 1.9 3 1.9-1.1 1.9-3z"/><path d="m108.6 536.5-.4.9c-.6-.4-1.1-.7-1.4-.7-.5 0-.8.4-.8 1.6v2.4h1.8v.4h-1.8v5.4l1.4.1v.3h-3.5v-.3l1-.1v-5.4h-1v-.3l1-.3v-1.2c0-1.8.7-3.3 2.5-3.3.5.2.8.3 1.2.5z"/><path d="m114 547h-3v-.3l1-.1v-9.4l-1-.2v-.3l2.1-.3v10.2l1 .1v.3z"/><path d="m120.1 543.3h-4.3v.4c0 1.8.9 2.9 2.1 2.9 1 0 1.5-.4 1.9-.9l.3.3c-.3.5-1 1.2-2.4 1.2-1.8 0-3.1-1.4-3.1-3.3 0-2 1.5-3.3 3-3.3s2.5 1 2.5 2.5zm-1.1-.4c0-1-.3-2.1-1.4-2.1-.9 0-1.5.9-1.7 2.1z"/><path d="m125 546.2c-.3.5-.9.9-1.8.9-.8 0-1.5-.5-1.5-1.7v-4.2h-1v-.3l1-.4.8-1.9h.3v2.1h1.8v.4h-1.8v4.1c0 .9.4 1.2 1 1.2.5 0 .8-.3 1-.5z"/><path d="m129.3 546.2c-.3.5-.9.9-1.8.9-.8 0-1.5-.5-1.5-1.7v-4.2h-1v-.3l1-.4.8-1.9h.3v2.1h1.8v.4h-1.8v4.1c0 .9.4 1.2 1 1.2.5 0 .8-.3 1-.5z"/><path d="m135.1 543.3h-4.3v.4c0 1.8.9 2.9 2.1 2.9 1 0 1.5-.4 1.9-.9l.3.3c-.3.5-1 1.2-2.4 1.2-1.8 0-3.1-1.4-3.1-3.3 0-2 1.5-3.3 3-3.3s2.5 1 2.5 2.5zm-1.2-.4c0-1-.3-2.1-1.4-2.1-.9 0-1.5.9-1.7 2.1z"/><path d="m140.5 540.9-.4.9c-.2-.1-.9-.5-1.1-.5-.7 0-1.2 1-1.2 2.4v3l1.4.1v.3h-3.4v-.3l1-.1v-5.3l-1-.2v-.3l2-.3v1.6c.3-1.2 1.1-1.7 1.8-1.7.4 0 .7.2.9.4z"/><path d="m145.3 545.2c0 1-.8 1.9-2.1 1.9-.6 0-1.1-.1-1.5-.4l-.1.4h-.3l-.1-2h.3c.2 1.1.8 1.6 1.7 1.6.7 0 1.2-.5 1.2-1.2 0-.8-.7-1.1-1.4-1.4-.8-.3-1.7-.8-1.7-1.9 0-1 .8-1.8 1.9-1.8.6 0 1 .1 1.4.4l.2-.3h.3v1.7h-.3c-.1-.9-.6-1.4-1.5-1.4-.7 0-1.1.5-1.1 1 0 .8.7 1.1 1.4 1.4.8.5 1.7.9 1.7 2z"/><path d="m147.9 546.3c0 .4-.3.8-.8.8s-.8-.3-.8-.8c0-.4.3-.8.8-.8s.8.4.8.8z"/><path d="m160.8 547h-3.4v-.3l1.3-.1-1-2.8h-3.5l-1 2.8 1.3.2v.3h-2.6v-.3l.8-.2 3.5-9.2h.3l3.5 9.3.8.1zm-3.3-3.8-1.6-4.2-1.6 4.2z"/><path d="m164 547h-3v-.3l1-.1v-9.4l-1-.2v-.3l2.1-.3v10.2l1 .1v.3z"/><path d="m167.6 547h-3v-.3l1-.1v-9.4l-1-.2v-.3l2.1-.3v10.2l1 .1v.3z"/><path d="m177.4 541-.7.2-2.4 5.9-1.3 3.8h-1l1.9-3.9-2.3-5.8-.7-.1v-.3h2.9v.3l-1 .1 1.7 4.6 1.7-4.5-1-.1v-.3h2.3v.1z"/><path d="m183.6 543.8c0 2-1.4 3.3-3.1 3.3s-3.1-1.3-3.1-3.3 1.4-3.3 3.1-3.3c1.8 0 3.1 1.3 3.1 3.3zm-1.2 0c0-1.8-.7-3-1.9-3s-1.9 1.1-1.9 3 .7 3 1.9 3 1.9-1.1 1.9-3z"/><path d="m191.1 546.8-2 .3v-1.6c-.4 1.1-1.2 1.7-2.2 1.7-1.2 0-1.9-.8-1.9-2v-4l-1-.2v-.3h2.1v5.3c.1.4.5.6 1.1.6 1.2 0 1.9-1.2 1.9-2.7v-2.7l-1.1-.2v-.3h2.2v5.7l1 .2v.2z"/><path d="m48.4 564h-3.1v-.3l1.1-.1v-5c-.1-.4-.6-.6-1.1-.6-1.2 0-1.9 1.2-1.9 2.7v2.9l1.1.1v.3h-3.1v-.3l1-.1v-5.3l-1-.2v-.3l2-.3v1.6c.4-1.1 1.2-1.7 2.2-1.7 1.2 0 1.9.8 1.9 2v4.1l1 .1v.4z"/><path d="m54.5 560.3h-4.3v.4c0 1.8.9 2.9 2.1 2.9 1 0 1.5-.4 1.9-.9l.3.3c-.3.5-1 1.2-2.4 1.2-1.8 0-3.1-1.4-3.1-3.3 0-2 1.5-3.3 3-3.3s2.5 1 2.5 2.5zm-1.2-.4c0-1-.3-2.1-1.4-2.1-.9 0-1.5.9-1.7 2.1z"/><path d="m60.8 560.3h-4.3v.4c0 1.8.9 2.9 2.1 2.9 1 0 1.5-.4 1.9-.9l.3.3c-.3.5-1 1.2-2.4 1.2-1.8 0-3.1-1.4-3.1-3.3 0-2 1.5-3.3 3-3.3s2.5 1 2.5 2.5zm-1.2-.4c0-1-.3-2.1-1.4-2.1-.9 0-1.5.9-1.7 2.1z"/><path d="m68.2 563.8-2 .3v-1c-.4.6-.9 1-1.9 1-1.3 0-2.7-1.1-2.7-3.1 0-2.1 1.3-3.5 3-3.5.8 0 1.3.3 1.6.6v-4l-1-.2v-.3l2.1-.3v10l1 .2v.3zm-2-1.3v-3.7c-.3-.5-.9-.9-1.5-.9-1.4 0-1.9 1.5-1.9 3 0 1.6.7 2.7 1.9 2.7.8 0 1.3-.6 1.5-1.1z"/><path d="m75.8 563.2c-.3.5-.9.9-1.8.9-.8 0-1.5-.5-1.5-1.7v-4.2h-1v-.3l1-.4.8-1.9h.3v2.1h1.8v.4h-1.8v4.1c0 .9.4 1.2 1 1.2.5 0 .8-.3 1-.5z"/><path d="m82.2 560.8c0 2-1.4 3.3-3.1 3.3s-3.1-1.3-3.1-3.3 1.4-3.3 3.1-3.3c1.8 0 3.1 1.3 3.1 3.3zm-1.2 0c0-1.8-.7-3-1.9-3s-1.9 1.1-1.9 3 .7 3 1.9 3 1.9-1.1 1.9-3z"/><path d="m92.6 563.8-2 .3v-1c-.4.6-.9 1-1.9 1-1.3 0-2.7-1.1-2.7-3.1 0-2.1 1.3-3.5 3-3.5.8 0 1.3.3 1.6.6v-4l-1-.2v-.3l2.1-.3v10l1 .2v.3zm-2-1.3v-3.7c-.3-.5-.9-.9-1.5-.9-1.4 0-1.9 1.5-1.9 3 0 1.6.7 2.7 1.9 2.7.8 0 1.2-.6 1.5-1.1z"/><path d="m99.3 560.8c0 2-1.4 3.3-3.1 3.3s-3.1-1.3-3.1-3.3 1.4-3.3 3.1-3.3 3.1 1.3 3.1 3.3zm-1.2 0c0-1.8-.7-3-1.9-3s-1.9 1.1-1.9 3 .7 3 1.9 3 1.9-1.1 1.9-3z"/><path d="m106.1 564h-3v-.3l1-.1v-5.3l-1-.2v-.3l2.1-.3v6.1l1 .1v.3zm-.9-8.8c0 .4-.3.7-.7.7s-.7-.3-.7-.7.3-.7.7-.7.7.4.7.7z"/><path d="m111 562.2c0 1-.8 1.9-2.1 1.9-.6 0-1.1-.1-1.5-.4l-.1.4h-.3l-.1-2h.3c.2 1.1.8 1.6 1.7 1.6.7 0 1.2-.5 1.2-1.2 0-.8-.7-1.1-1.4-1.4-.8-.3-1.7-.8-1.7-1.9 0-1 .8-1.8 1.9-1.8.6 0 1 .1 1.4.4l.2-.3h.3v1.7h-.3c-.1-.9-.6-1.4-1.5-1.4-.7 0-1.1.5-1.1 1 0 .8.7 1.1 1.4 1.4.9.5 1.7.9 1.7 2z"/><path d="m119.6 553.5-.4.9c-.6-.4-1.1-.7-1.4-.7-.5 0-.8.4-.8 1.6v2.4h1.8v.4h-1.8v5.4l1.4.1v.3h-3.5v-.3l1-.1v-5.4h-1v-.3l1-.3v-1.2c0-1.8.7-3.3 2.5-3.3.5.2.8.3 1.2.5z"/><path d="m125.2 560.8c0 2-1.4 3.3-3.1 3.3s-3.1-1.3-3.1-3.3 1.4-3.3 3.1-3.3c1.8 0 3.1 1.3 3.1 3.3zm-1.2 0c0-1.8-.7-3-1.9-3s-1.9 1.1-1.9 3 .7 3 1.9 3 1.9-1.1 1.9-3z"/><path d="m128.9 564h-3v-.3l1-.1v-9.4l-1-.2v-.3l2.1-.3v10.2l1 .1v.3z"/><path d="m132.4 564h-3v-.3l1-.1v-9.4l-1-.2v-.3l2.1-.3v10.2l1 .1v.3z"/><path d="m139.2 560.8c0 2-1.4 3.3-3.1 3.3s-3.1-1.3-3.1-3.3 1.4-3.3 3.1-3.3 3.1 1.3 3.1 3.3zm-1.2 0c0-1.8-.7-3-1.9-3s-1.9 1.1-1.9 3 .7 3 1.9 3 1.9-1.1 1.9-3z"/><path d="m149.5 558-.7.2-2.5 6h-.1l-1.8-4.5-1.8 4.5h-.1l-2.5-6.1-.7-.1v-.3h2.9v.3l-1 .1 1.7 4.3 1.3-3.3-.4-1-.8-.1v-.3h2.9v.3l-1 .1v.1l1.7 4.3 1.7-4.3-1-.1v-.3h2.3v.2z"/><path d="m152.9 564h-3v-.3l1-.1v-5.3l-1-.2v-.3l2.1-.3v6.1l1 .1v.3zm-.9-8.8c0 .4-.3.7-.7.7s-.7-.3-.7-.7.3-.7.7-.7.7.4.7.7z"/><path d="m160.6 564h-3.1v-.3l1.1-.1v-5c-.1-.4-.6-.6-1.1-.6-1.2 0-1.9 1.2-1.9 2.7v2.9l1.1.1v.3h-3.1v-.3l1-.1v-5.3l-1-.2v-.3l2-.3v1.6c.4-1.1 1.2-1.7 2.2-1.7 1.2 0 1.9.8 1.9 2v4.1l1 .1v.4z"/><path d="m167.2 558.3-1.7-.2c.5.4.8 1 .8 1.6 0 1.5-1.3 2.3-2.5 2.4-1 .1-1.4.5-1.4.9 0 .2.1.3.2.4l2.8.3c.8.1 1.7.6 1.7 1.6 0 1.6-1.4 2.6-3.5 2.6-1.3 0-2.7-.7-2.7-2 0-.8.5-1.3 1.2-1.7-.3-.2-.5-.5-.5-.9 0-.5.4-1 1.3-1.3-.9-.3-1.6-1.1-1.6-2.2 0-1.4 1.2-2.4 2.5-2.4.5 0 1 .2 1.4.4l2-.4zm-1 7.5c0-.6-.4-1-1.1-1.1l-2.8-.3c-.4.2-.6.8-.6 1.3 0 .9.7 1.9 2.3 1.9.9 0 2.2-.6 2.2-1.8zm-1-5.9c0-1.2-.6-2-1.4-2s-1.4.8-1.4 2 .6 2 1.4 2 1.4-.9 1.4-2z"/><path d="m47.8 577.6c0 2.1-1.4 3.5-3.1 3.5-.7 0-1.1-.2-1.5-.4v3.7l1.4.1v.3h-3.4v-.3l1-.1v-9.1l-1-.2v-.3l2-.3v1c.4-.6 1.1-1.1 2-1.1 1.3.1 2.6 1.2 2.6 3.2zm-1.1.1c0-1.6-.6-2.7-1.8-2.7-.8 0-1.4.5-1.6 1.1v4c.3.3.9.6 1.4.6 1.4 0 2-1.5 2-3z"/><path d="m53.2 574.9-.4.9c-.2-.1-.9-.5-1.1-.5-.7 0-1.2 1-1.2 2.4v3l1.4.1v.3h-3.4v-.3l1-.1v-5.3l-1-.2v-.3l2-.3v1.6c.3-1.2 1.1-1.7 1.8-1.7.3 0 .7.2.9.4z"/><path d="m56.7 581h-3v-.3l1-.1v-5.3l-1-.2v-.3l2.1-.3v6.1l1 .1v.3zm-.9-8.8c0 .4-.3.7-.7.7s-.7-.3-.7-.7.3-.7.7-.7.7.4.7.7z"/><path d="m64.4 581h-3.1v-.3l1.1-.1v-5c-.1-.4-.6-.6-1.1-.6-1.2 0-1.9 1.2-1.9 2.7v2.9l1.1.1v.3h-3.1v-.3l1-.1v-5.3l-1-.2v-.3l2-.3v1.6c.4-1.1 1.2-1.7 2.2-1.7 1.2 0 1.9.8 1.9 2v4.1l1 .1v.4z"/><path d="m70.4 580c-.3.5-1 1.2-2.4 1.2-1.7 0-3.1-1.4-3.1-3.4s1.5-3.3 3.1-3.3c.7 0 1.2.1 1.8.4l.2-.4h.3l-.1 1.8h-.3c-.2-.9-.8-1.5-1.8-1.5-1.2 0-2 1.1-2 2.8s.9 2.9 2.1 2.9c1 0 1.5-.4 1.9-.9z"/><path d="m74.1 581h-3v-.3l1-.1v-5.3l-1-.2v-.3l2.1-.3v6.1l1 .1v.3zm-.9-8.8c0 .4-.3.7-.7.7s-.7-.3-.7-.7.3-.7.7-.7.7.4.7.7z"/><path d="m81.2 577.6c0 2.1-1.4 3.5-3.1 3.5-.7 0-1.1-.2-1.5-.4v3.7l1.4.1v.3h-3.4v-.3l1-.1v-9.1l-1-.2v-.3l2-.3v1c.4-.6 1.1-1.1 2-1.1 1.3.1 2.6 1.2 2.6 3.2zm-1.1.1c0-1.6-.6-2.7-1.8-2.7-.8 0-1.4.5-1.6 1.1v4c.3.3.9.6 1.4.6 1.3 0 2-1.5 2-3z"/><path d="m84.9 581h-3v-.3l1-.1v-9.4l-1-.2v-.3l2.1-.3v10.2l1 .1v.3z"/><path d="m91 577.3h-4.3v.4c0 1.8.9 2.9 2.1 2.9 1 0 1.5-.4 1.9-.9l.3.3c-.3.5-1 1.2-2.4 1.2-1.8 0-3.1-1.4-3.1-3.3 0-2 1.5-3.3 3-3.3s2.5 1 2.5 2.5zm-1.1-.4c0-1-.3-2.1-1.4-2.1-.9 0-1.5.9-1.7 2.1z"/><path d="m96.1 579.2c0 1-.8 1.9-2.1 1.9-.6 0-1.1-.1-1.5-.4l-.1.4h-.3l-.1-2h.3c.2 1.1.8 1.6 1.7 1.6.7 0 1.2-.5 1.2-1.2 0-.8-.7-1.1-1.4-1.4-.8-.3-1.7-.8-1.7-1.9 0-1 .8-1.8 1.9-1.8.6 0 1 .1 1.4.4l.2-.3h.3v1.7h-.3c-.1-.9-.6-1.4-1.5-1.4-.7 0-1.1.5-1.1 1 0 .8.7 1.1 1.4 1.4.9.5 1.7.9 1.7 2z"/><path d="m104.1 580.2c-.3.5-.9.9-1.8.9-.8 0-1.5-.5-1.5-1.7v-4.2h-1v-.3l1-.4.8-1.9h.3v2.1h1.8v.4h-1.8v4.1c0 .9.4 1.2 1 1.2.5 0 .8-.3 1-.5z"/><path d="m110.5 577.8c0 2-1.4 3.3-3.1 3.3s-3.1-1.3-3.1-3.3 1.4-3.3 3.1-3.3 3.1 1.3 3.1 3.3zm-1.2 0c0-1.8-.7-3-1.9-3s-1.9 1.1-1.9 3 .7 3 1.9 3 1.9-1.1 1.9-3z"/><path d="m118.6 579.2c0 1-.8 1.9-2.1 1.9-.6 0-1.1-.1-1.5-.4l-.1.4h-.3l-.1-2h.3c.2 1.1.8 1.6 1.7 1.6.7 0 1.2-.5 1.2-1.2 0-.8-.7-1.1-1.4-1.4-.8-.3-1.7-.8-1.7-1.9 0-1 .8-1.8 1.9-1.8.6 0 1 .1 1.4.4l.2-.3h.3v1.7h-.3c-.1-.9-.6-1.4-1.5-1.4-.7 0-1.1.5-1.1 1 0 .8.7 1.1 1.4 1.4.8.5 1.7.9 1.7 2z"/><path d="m124.9 577.3h-4.3v.4c0 1.8.9 2.9 2.1 2.9 1 0 1.5-.4 1.9-.9l.3.3c-.3.5-1 1.2-2.4 1.2-1.8 0-3.1-1.4-3.1-3.3 0-2 1.5-3.3 3-3.3s2.5 1 2.5 2.5zm-1.1-.4c0-1-.3-2.1-1.4-2.1-.9 0-1.5.9-1.7 2.1z"/><path d="m128.6 581h-3v-.3l1-.1v-9.4l-1-.2v-.3l2.1-.3v10.2l1 .1v.3z"/><path d="m134.8 577.3h-4.3v.4c0 1.8.9 2.9 2.1 2.9 1 0 1.5-.4 1.9-.9l.3.3c-.3.5-1 1.2-2.4 1.2-1.8 0-3.1-1.4-3.1-3.3 0-2 1.5-3.3 3-3.3s2.5 1 2.5 2.5zm-1.2-.4c0-1-.3-2.1-1.4-2.1-.9 0-1.5.9-1.7 2.1z"/><path d="m141 580c-.3.5-1 1.2-2.4 1.2-1.7 0-3.1-1.4-3.1-3.4s1.5-3.3 3.1-3.3c.7 0 1.2.1 1.8.4l.2-.4h.3l-.1 1.8h-.3c-.2-.9-.8-1.5-1.8-1.5-1.2 0-2 1.1-2 2.8s.9 2.9 2.1 2.9c1 0 1.5-.4 1.9-.9z"/><path d="m145.8 580.2c-.3.5-.9.9-1.8.9-.8 0-1.5-.5-1.5-1.7v-4.2h-1v-.3l1-.4.8-1.9h.3v2.1h1.8v.4h-1.8v4.1c0 .9.4 1.2 1 1.2.5 0 .8-.3 1-.5z"/><path d="m153.3 580.2c-.3.5-.9.9-1.8.9-.8 0-1.5-.5-1.5-1.7v-4.2h-1v-.3l1-.4.8-1.9h.3v2.1h1.8v.4h-1.8v4.1c0 .9.4 1.2 1 1.2.5 0 .8-.3 1-.5z"/><path d="m160.6 581h-3.1v-.3l1.1-.1v-5c-.2-.4-.6-.6-1.1-.6-1.2 0-1.9 1.2-1.9 2.7v2.9l1.1.1v.3h-3.1v-.3l1-.1v-9.4l-1-.2v-.3l2.1-.3v5.7c.4-1 1.1-1.6 2.2-1.6 1.2 0 1.9.8 1.9 2v4.1l1 .1v.3z"/><path d="m166.6 577.3h-4.3v.4c0 1.8.9 2.9 2.1 2.9 1 0 1.5-.4 1.9-.9l.3.3c-.3.5-1 1.2-2.4 1.2-1.8 0-3.1-1.4-3.1-3.3 0-2 1.5-3.3 3-3.3s2.5 1 2.5 2.5zm-1.2-.4c0-1-.3-2.1-1.4-2.1-.9 0-1.5.9-1.7 2.1z"/><path d="m175 574.9-.4.9c-.2-.1-.9-.5-1.1-.5-.7 0-1.2 1-1.2 2.4v3l1.4.1v.3h-3.4v-.3l1-.1v-5.3l-1-.2v-.3l2-.3v1.6c.3-1.2 1.1-1.7 1.8-1.7.4 0 .7.2.9.4z"/><path d="m178.6 581h-3v-.3l1-.1v-5.3l-1-.2v-.3l2.1-.3v6.1l1 .1v.3zm-1-8.8c0 .4-.3.7-.7.7s-.7-.3-.7-.7.3-.7.7-.7.7.4.7.7z"/><path d="m185.2 575.3-1.7-.2c.5.4.8 1 .8 1.6 0 1.5-1.3 2.3-2.5 2.4-1 .1-1.4.5-1.4.9 0 .2.1.3.2.4l2.8.3c.8.1 1.7.6 1.7 1.6 0 1.6-1.4 2.6-3.5 2.6-1.3 0-2.7-.7-2.7-2 0-.8.5-1.3 1.2-1.7-.3-.2-.5-.5-.5-.9 0-.5.4-1 1.3-1.3-.9-.3-1.6-1.1-1.6-2.2 0-1.4 1.2-2.4 2.5-2.4.5 0 1 .2 1.4.4l2-.4zm-1 7.5c0-.6-.4-1-1.1-1.1l-2.8-.3c-.4.2-.6.8-.6 1.3 0 .9.7 1.9 2.3 1.9.9 0 2.2-.6 2.2-1.8zm-1-5.9c0-1.2-.6-2-1.4-2s-1.4.8-1.4 2 .6 2 1.4 2 1.4-.9 1.4-2z"/><path d="m192.6 581h-3.1v-.3l1.1-.1v-5c-.2-.4-.6-.6-1.1-.6-1.2 0-1.9 1.2-1.9 2.7v2.9l1.1.1v.3h-3.1v-.3l1-.1v-9.4l-1-.2v-.3l2.1-.3v5.7c.4-1 1.1-1.6 2.2-1.6 1.2 0 1.9.8 1.9 2v4.1l1 .1v.3z"/><path d="m197.1 580.2c-.3.5-.9.9-1.8.9-.8 0-1.5-.5-1.5-1.7v-4.2h-1v-.3l1-.4.8-1.9h.3v2.1h1.8v.4h-1.8v4.1c0 .9.4 1.2 1 1.2.5 0 .8-.3 1-.5z"/><path d="m45.7 596.2c0 1-.8 1.9-2.1 1.9-.6 0-1.1-.1-1.5-.4l-.1.4h-.3l-.1-2h.3c.2 1.1.8 1.6 1.7 1.6.7 0 1.2-.5 1.2-1.2 0-.8-.7-1.1-1.4-1.4-.8-.3-1.7-.8-1.7-1.9 0-1 .8-1.8 1.9-1.8.6 0 1 .1 1.4.4l.2-.3h.3v1.7h-.3c-.1-.9-.6-1.4-1.5-1.4-.7 0-1.1.5-1.1 1 0 .8.7 1.1 1.4 1.4.8.5 1.7.9 1.7 2z"/><path d="m50.6 597.2c-.3.5-.9.9-1.8.9-.8 0-1.5-.5-1.5-1.7v-4.2h-1v-.3l1-.4.8-1.9h.3v2.1h1.8v.4h-1.8v4.1c0 .9.4 1.2 1 1.2.5 0 .8-.3 1-.5z"/><path d="m57 592-.7.2-2.4 5.9-1.3 3.8h-1l1.9-3.9-2.3-5.8-.7-.1v-.3h2.9v.3l-1 .1 1.7 4.6 1.7-4.5-1-.1v-.3h2.2z"/><path d="m60.2 598h-3v-.3l1-.1v-9.4l-1-.2v-.3l2.1-.3v10.2l1 .1v.3z"/><path d="m66.3 594.3h-4.3v.4c0 1.8.9 2.9 2.1 2.9 1 0 1.5-.4 1.9-.9l.3.3c-.3.5-1 1.2-2.4 1.2-1.8 0-3.1-1.4-3.1-3.3 0-2 1.5-3.3 3-3.3s2.5 1 2.5 2.5zm-1.1-.4c0-1-.3-2.1-1.4-2.1-.9 0-1.5.9-1.7 2.1z"/><path d="m69.2 597.8c0 1.1-.7 1.8-1.6 2.1l-.2-.4c.7-.2 1.2-.7 1.2-1.5l-1.2-.5c-.1-.1-.1-.3-.1-.4 0-.4.3-.7.8-.7.6.1 1.1.7 1.1 1.4z"/><path d="m77.9 591.9-.4.9c-.2-.1-.9-.5-1.1-.5-.7 0-1.2 1-1.2 2.4v3l1.4.1v.3h-3.4v-.3l1-.1v-5.3l-1-.2v-.3l2-.3v1.6c.3-1.2 1.1-1.7 1.8-1.7.3 0 .7.2.9.4z"/><path d="m83.7 594.3h-4.3v.4c0 1.8.9 2.9 2.1 2.9 1 0 1.5-.4 1.9-.9l.3.3c-.3.5-1 1.2-2.4 1.2-1.8 0-3.1-1.4-3.1-3.3 0-2 1.5-3.3 3-3.3s2.5 1 2.5 2.5zm-1.1-.4c0-1-.3-2.1-1.4-2.1-.9 0-1.5.9-1.7 2.1z"/><path d="m90.5 597.4c-.2.3-.7.7-1.3.7s-1-.4-1.1-.9c-.4.5-1.2.9-1.8.9-1 0-1.8-.7-1.8-1.6 0-1.1.9-1.7 2-1.9l1.5-.3v-1.1c0-.8-.3-1.2-1.2-1.2-.7 0-1.3.5-1.7 1.1l-.3-.3c.5-.8 1.3-1.4 2.2-1.4 1.4 0 2 .6 2 1.7v3.4c0 .8.3 1 .6 1 .2 0 .5-.1.6-.3zm-2.4-.5v-2.2l-1 .2c-.8.2-1.4.6-1.4 1.4 0 .7.5 1.2 1.1 1.2.4 0 .9-.2 1.3-.6z"/><path d="m97.3 597.8-2 .3v-1c-.4.6-.9 1-1.9 1-1.3 0-2.7-1.1-2.7-3.1 0-2.1 1.3-3.5 3-3.5.8 0 1.3.3 1.6.6v-4l-1-.2v-.3l2.1-.3v10l1 .2v.3zm-2-1.3v-3.7c-.3-.5-.9-.9-1.5-.9-1.4 0-1.9 1.5-1.9 3 0 1.6.7 2.7 1.9 2.7.9 0 1.3-.6 1.5-1.1z"/><path d="m103.8 597.4c-.2.3-.7.7-1.3.7s-1-.4-1.1-.9c-.4.5-1.2.9-1.8.9-1 0-1.8-.7-1.8-1.6 0-1.1.9-1.7 2-1.9l1.5-.3v-1.1c0-.8-.3-1.2-1.2-1.2-.7 0-1.3.5-1.7 1.1l-.3-.3c.5-.8 1.3-1.4 2.2-1.4 1.4 0 2 .6 2 1.7v3.4c0 .8.3 1 .6 1 .2 0 .5-.1.6-.3zm-2.4-.5v-2.2l-1 .2c-.8.2-1.4.6-1.4 1.4 0 .7.5 1.2 1.1 1.2.4 0 1-.2 1.3-.6z"/><path d="m110.3 594.6c0 2.1-1.2 3.5-3.4 3.5-.9 0-1.7-.2-2.2-.5v-9.5l-1-.2v-.3l2.1-.3v5.1c.4-.6 1.1-1 2-1 1.2.1 2.5 1.2 2.5 3.2zm-1.2.1c0-1.6-.6-2.7-1.8-2.7-.8 0-1.3.4-1.7 1.1v4.2c.2.2.8.4 1.4.4 1.4 0 2.1-1.3 2.1-3z"/><path d="m114.1 598h-3v-.3l1-.1v-5.3l-1-.2v-.3l2.1-.3v6.1l1 .1v.3zm-1-8.8c0 .4-.3.7-.7.7s-.7-.3-.7-.7.3-.7.7-.7.7.4.7.7z"/><path d="m117.6 598h-3v-.3l1-.1v-9.4l-1-.2v-.3l2.1-.3v10.2l1 .1v.3z"/><path d="m121.3 598h-3v-.3l1-.1v-5.3l-1-.2v-.3l2.1-.3v6.1l1 .1v.3zm-1-8.8c0 .4-.3.7-.7.7s-.7-.3-.7-.7.3-.7.7-.7.7.4.7.7z"/><path d="m126 597.2c-.3.5-.9.9-1.8.9-.8 0-1.5-.5-1.5-1.7v-4.2h-1v-.3l1-.4.8-1.9h.3v2.1h1.8v.4h-1.8v4.1c0 .9.4 1.2 1 1.2.5 0 .8-.3 1-.5z"/><path d="m132.4 592-.7.2-2.4 5.9-1.3 3.8h-1l1.9-3.9-2.3-5.8-.7-.1v-.3h2.9v.3l-1 .1 1.7 4.6 1.7-4.5-1-.1v-.3h2.3v.1z"/><path d="m141.7 597.4c-.2.3-.7.7-1.3.7s-1-.4-1.1-.9c-.4.5-1.2.9-1.8.9-1 0-1.8-.7-1.8-1.6 0-1.1.9-1.7 2-1.9l1.5-.3v-1.1c0-.8-.3-1.2-1.2-1.2-.7 0-1.3.5-1.7 1.1l-.3-.3c.5-.8 1.3-1.4 2.2-1.4 1.4 0 2 .6 2 1.7v3.4c0 .8.3 1 .6 1 .2 0 .5-.1.6-.3zm-2.4-.5v-2.2l-1 .2c-.8.2-1.4.6-1.4 1.4 0 .7.5 1.2 1.1 1.2.5 0 1-.2 1.3-.6z"/><path d="m149 598h-3.1v-.3l1.1-.1v-5c-.1-.4-.6-.6-1.1-.6-1.2 0-1.9 1.2-1.9 2.7v2.9l1.1.1v.3h-3.1v-.3l1-.1v-5.3l-1-.2v-.3l2-.3v1.6c.4-1.1 1.2-1.7 2.2-1.7 1.2 0 1.9.8 1.9 2v4.1l1 .1v.4z"/><path d="m156.2 597.8-2 .3v-1c-.4.6-.9 1-1.9 1-1.3 0-2.7-1.1-2.7-3.1 0-2.1 1.3-3.5 3-3.5.8 0 1.3.3 1.6.6v-4l-1-.2v-.3l2.1-.3v10l1 .2v.3zm-2.1-1.3v-3.7c-.3-.5-.9-.9-1.5-.9-1.4 0-1.9 1.5-1.9 3 0 1.6.7 2.7 1.9 2.7.9 0 1.3-.6 1.5-1.1z"/><path d="m164 596.2c0 1-.8 1.9-2.1 1.9-.6 0-1.1-.1-1.5-.4l-.1.4h-.3l-.1-2h.3c.2 1.1.8 1.6 1.7 1.6.7 0 1.2-.5 1.2-1.2 0-.8-.7-1.1-1.4-1.4-.8-.3-1.7-.8-1.7-1.9 0-1 .8-1.8 1.9-1.8.6 0 1 .1 1.4.4l.2-.3h.3v1.7h-.3c-.1-.9-.6-1.4-1.5-1.4-.7 0-1.1.5-1.1 1 0 .8.7 1.1 1.4 1.4.8.5 1.7.9 1.7 2z"/><path d="m168.9 597.2c-.3.5-.9.9-1.8.9-.8 0-1.5-.5-1.5-1.7v-4.2h-1v-.3l1-.4.8-1.9h.3v2.1h1.8v.4h-1.8v4.1c0 .9.4 1.2 1 1.2.5 0 .8-.3 1-.5z"/><path d="m175.3 592-.7.2-2.4 5.9-1.3 3.8h-1l1.9-3.9-2.3-5.8-.7-.1v-.3h2.9v.3l-1 .1 1.7 4.6 1.7-4.5-1-.1v-.3h2.3v.1z"/><path d="m178.5 598h-3v-.3l1-.1v-9.4l-1-.2v-.3l2.1-.3v10.2l1 .1v.3z"/><path d="m184.6 594.3h-4.3v.4c0 1.8.9 2.9 2.1 2.9 1 0 1.5-.4 1.9-.9l.3.3c-.3.5-1 1.2-2.4 1.2-1.8 0-3.1-1.4-3.1-3.3 0-2 1.5-3.3 3-3.3s2.5 1 2.5 2.5zm-1.1-.4c0-1-.3-2.1-1.4-2.1-.9 0-1.5.9-1.7 2.1z"/><path d="m187.3 597.3c0 .4-.3.8-.8.8s-.8-.3-.8-.8c0-.4.3-.8.8-.8s.8.4.8.8z"/><path d="m234.1 503.6-.8.1-3.2 9.3h-.2l-2.3-6.7-2.3 6.7h-.2l-3.2-9.3-.8-.1v-.3h3.4v.3l-1.3.1 2.4 7.1 1.8-5.3-.6-1.8-.8-.1v-.3h3.4v.3l-1.3.1v.1l2.3 7 2.4-7.1-1.3-.1v-.3h2.7v.3z"/><path d="m241.3 513h-3.1v-.3l1.1-.1v-5c-.2-.4-.6-.6-1.1-.6-1.2 0-1.9 1.2-1.9 2.7v2.9l1.1.1v.3h-3.1v-.3l1-.1v-9.4l-1-.2v-.3l2.1-.3v5.7c.4-1 1.1-1.6 2.2-1.6 1.2 0 1.9.8 1.9 2v4.1l1 .1v.3z"/><path d="m247.3 509.3h-4.3v.4c0 1.8.9 2.9 2.1 2.9 1 0 1.5-.4 1.9-.9l.3.3c-.3.5-1 1.2-2.4 1.2-1.8 0-3.1-1.4-3.1-3.3 0-2 1.5-3.3 3-3.3s2.5 1 2.5 2.5zm-1.1-.4c0-1-.3-2.1-1.4-2.1-.9 0-1.5.9-1.7 2.1z"/><path d="m255.2 513h-3.2v-.3l1.1-.1v-5c-.1-.4-.6-.6-1.1-.6-1.2 0-1.9 1.2-1.9 2.7v2.9l1.1.1v.3h-3.1v-.3l1-.1v-5.3l-1-.2v-.3l2-.3v1.6c.4-1.1 1.2-1.7 2.2-1.7 1.2 0 1.9.8 1.9 2v4.1l1 .1z"/><path d="m265.5 512.8-2 .3v-1.7c-.4 1.1-1.2 1.7-2.2 1.7-1.2 0-1.9-.8-1.9-2v-4l-1-.2v-.3h2.1v5.3c.2.4.5.6 1.1.6 1.2 0 1.9-1.2 1.9-2.7v-2.7l-1.1-.2v-.3h2.2v5.7l1 .2v.3z"/><path d="m270.3 511.2c0 1-.8 1.9-2.1 1.9-.6 0-1.1-.1-1.5-.4l-.2.4h-.3l-.1-2h.3c.2 1.1.8 1.7 1.7 1.7.7 0 1.2-.5 1.2-1.2 0-.8-.7-1.1-1.4-1.4-.8-.3-1.7-.8-1.7-1.9 0-1 .8-1.8 1.9-1.8.6 0 1 .1 1.4.4l.2-.3h.3v1.7h-.3c-.1-.9-.6-1.4-1.5-1.4-.7 0-1.1.5-1.1 1 0 .8.7 1.1 1.4 1.4 1 .4 1.8.8 1.8 1.9z"/><path d="m274.2 513h-3v-.3l1-.1v-5.3l-1-.2v-.3l2.1-.3v6.1l1 .1v.3zm-.9-8.8c0 .4-.3.7-.7.7s-.7-.3-.7-.7.3-.7.7-.7.7.4.7.7z"/><path d="m281.9 513h-3.1v-.3l1.1-.1v-5c-.2-.4-.6-.6-1.1-.6-1.2 0-1.9 1.2-1.9 2.7v2.9l1.1.1v.3h-3.1v-.3l1-.1v-5.3l-1-.2v-.3l2-.3v1.6c.4-1.1 1.2-1.7 2.2-1.7 1.2 0 1.9.8 1.9 2v4.1l1 .1v.4z"/><path d="m288.5 507.3-1.7-.1c.5.4.8 1 .8 1.7 0 1.5-1.3 2.3-2.5 2.4-1 .1-1.4.4-1.4.9 0 .2.1.3.2.4l2.8.3c.8.1 1.7.6 1.7 1.6 0 1.6-1.4 2.6-3.5 2.6-1.3 0-2.7-.7-2.7-2 0-.8.5-1.3 1.2-1.7-.3-.2-.5-.5-.5-.9 0-.5.4-1 1.3-1.3-.9-.3-1.6-1.1-1.6-2.2 0-1.4 1.2-2.4 2.5-2.4.5 0 1 .2 1.4.4l2-.4zm-1 7.5c0-.6-.4-1-1.1-1.1l-2.8-.3c-.4.2-.6.8-.6 1.3 0 .9.7 1.9 2.3 1.9.9 0 2.2-.6 2.2-1.8zm-1-5.9c0-1.2-.6-2-1.4-2-.9 0-1.4.8-1.4 2s.6 2 1.4 2 1.4-.9 1.4-2z"/><path d="m294.8 513h-3v-.3l1-.1v-9.5l-1-.2v-.3l2.1-.3v10.2l1 .1v.4z"/><path d="m301.4 512.4c-.2.3-.7.7-1.3.7s-1-.4-1.1-.9c-.4.5-1.2.9-1.8.9-1 0-1.8-.7-1.8-1.7 0-1.1.9-1.7 2-1.9l1.5-.3v-1.1c0-.8-.3-1.2-1.2-1.2-.7 0-1.3.5-1.7 1.1l-.3-.3c.5-.8 1.3-1.4 2.2-1.4 1.3 0 2 .6 2 1.7v3.4c0 .8.3 1 .6 1 .2 0 .5-.1.6-.3zm-2.4-.5v-2.2l-1 .2c-.8.1-1.4.6-1.4 1.4 0 .7.5 1.2 1.1 1.2.4 0 .9-.2 1.3-.6z"/><path d="m306.3 506.9-.4.9c-.2-.1-.9-.5-1.1-.5-.7 0-1.2 1-1.2 2.4v3l1.4.1v.3h-3.4v-.3l1-.1v-5.3l-1-.2v-.3l2-.3v1.6c.3-1.2 1.1-1.7 1.8-1.7.3 0 .7.2.9.4z"/><path d="m312.7 507.3-1.7-.1c.5.4.8 1 .8 1.7 0 1.5-1.3 2.3-2.5 2.4-1 .1-1.4.4-1.4.9 0 .2.1.3.2.4l2.8.3c.8.1 1.7.6 1.7 1.6 0 1.6-1.4 2.6-3.5 2.6-1.3 0-2.7-.7-2.7-2 0-.8.5-1.3 1.2-1.7-.3-.2-.5-.5-.5-.9 0-.5.4-1 1.3-1.3-.9-.3-1.6-1.1-1.6-2.2 0-1.4 1.2-2.4 2.5-2.4.5 0 1 .2 1.4.4l2-.4zm-1 7.5c0-.6-.4-1-1.1-1.1l-2.8-.3c-.4.2-.6.8-.6 1.3 0 .9.7 1.9 2.3 1.9.8 0 2.2-.6 2.2-1.8zm-1.1-5.9c0-1.2-.6-2-1.4-2-.9 0-1.4.8-1.4 2s.6 2 1.4 2c.9 0 1.4-.9 1.4-2z"/><path d="m318.5 509.3h-4.3v.4c0 1.8.9 2.9 2.1 2.9 1 0 1.5-.4 1.9-.9l.3.3c-.3.5-1 1.2-2.4 1.2-1.8 0-3.1-1.4-3.1-3.3 0-2 1.5-3.3 3-3.3s2.5 1 2.5 2.5zm-1.2-.4c0-1-.3-2.1-1.4-2.1-.9 0-1.5.9-1.7 2.1z"/><path d="m323.9 506.9-.4.9c-.2-.1-.9-.5-1.1-.5-.7 0-1.2 1-1.2 2.4v3l1.4.1v.3h-3.4v-.3l1-.1v-5.3l-1-.2v-.3l2-.3v1.6c.3-1.2 1.1-1.7 1.8-1.7.4 0 .7.2.9.4z"/><path d="m331.5 512.2c-.3.5-.9.9-1.8.9-.8 0-1.5-.5-1.5-1.7v-4.2h-1v-.3l1-.4.8-1.9h.3v2.1h1.8v.4h-1.8v4.1c0 .9.4 1.2 1 1.2.5 0 .8-.3 1-.5z"/><path d="m337.9 507-.7.2-2.4 5.9-1.3 3.8h-1l1.9-3.9-2.3-5.8-.7-.2v-.3h2.9v.3l-1 .1 1.7 4.6 1.7-4.5-1-.2v-.3h2.3v.3z"/><path d="m344.7 509.6c0 2.1-1.3 3.5-3.1 3.5-.7 0-1.1-.2-1.5-.4v3.7l1.4.1v.3h-3.4v-.3l1-.1v-9.1l-1-.2v-.3l2-.3v1c.4-.6 1.1-1.1 2-1.1 1.4.1 2.6 1.2 2.6 3.2zm-1.1.1c0-1.6-.6-2.7-1.8-2.7-.8 0-1.4.5-1.7 1.1v4c.3.3.9.6 1.4.6 1.5 0 2.1-1.5 2.1-3z"/><path d="m351 509.3h-4.3v.4c0 1.8.9 2.9 2.1 2.9 1 0 1.5-.4 1.9-.9l.3.3c-.3.5-1 1.2-2.4 1.2-1.8 0-3.1-1.4-3.1-3.3 0-2 1.5-3.3 3-3.3s2.5 1 2.5 2.5zm-1.2-.4c0-1-.3-2.1-1.4-2.1-.9 0-1.5.9-1.7 2.1z"/><path d="m359.1 511.2c0 1-.8 1.9-2.1 1.9-.6 0-1.1-.1-1.5-.4l-.2.4h-.3l-.1-2h.3c.2 1.1.8 1.7 1.7 1.7.7 0 1.2-.5 1.2-1.2 0-.8-.7-1.1-1.4-1.4-.8-.3-1.7-.8-1.7-1.9 0-1 .8-1.8 1.9-1.8.6 0 1 .1 1.4.4l.2-.3h.3v1.7h-.3c-.1-.9-.6-1.4-1.5-1.4-.7 0-1.1.5-1.1 1 0 .8.7 1.1 1.4 1.4 1 .4 1.8.8 1.8 1.9z"/><path d="m363 513h-3v-.3l1-.1v-5.3l-1-.2v-.3l2.1-.3v6.1l1 .1v.3zm-.9-8.8c0 .4-.3.7-.7.7s-.7-.3-.7-.7.3-.7.7-.7.7.4.7.7z"/><path d="m369 510.9-.1 2h-5.3l-.1-.2 4-5.6h-3.1l-.2 1.3h-.4v-1.7h5v.2l-4 5.6h3.5l.2-1.6z"/><path d="m375.2 509.3h-4.3v.4c0 1.8.9 2.9 2.1 2.9 1 0 1.5-.4 1.9-.9l.3.3c-.3.5-1 1.2-2.4 1.2-1.8 0-3.1-1.4-3.1-3.3 0-2 1.5-3.3 3-3.3s2.5 1 2.5 2.5zm-1.1-.4c0-1-.3-2.1-1.4-2.1-.9 0-1.5.9-1.7 2.1z"/><path d="m380.4 511.2c0 1-.8 1.9-2.1 1.9-.6 0-1.1-.1-1.5-.4l-.1.4h-.3l-.1-2h.3c.2 1.1.8 1.7 1.7 1.7.7 0 1.2-.5 1.2-1.2 0-.8-.7-1.1-1.4-1.4-.8-.3-1.7-.8-1.7-1.9 0-1 .8-1.8 1.9-1.8.6 0 1 .1 1.4.4l.2-.3h.3v1.7h-.3c-.2-.9-.6-1.4-1.5-1.4-.7 0-1.1.5-1.1 1 0 .8.7 1.1 1.4 1.4.8.4 1.7.8 1.7 1.9z"/><path d="m383.2 512.8c0 1.1-.7 1.8-1.6 2.1l-.2-.4c.7-.2 1.2-.7 1.2-1.5l-1.2-.5c-.1-.1-.1-.3-.1-.4 0-.4.3-.7.8-.7.6.1 1.1.7 1.1 1.4z"/><path d="m225.7 528.2c0 1-.8 1.9-2.1 1.9-.6 0-1.1-.1-1.5-.4l-.2.4h-.3l-.1-2h.3c.2 1.1.8 1.7 1.7 1.7.7 0 1.2-.5 1.2-1.2 0-.8-.7-1.1-1.4-1.4-.8-.3-1.7-.8-1.7-1.9 0-1 .8-1.8 1.9-1.8.6 0 1 .1 1.4.4l.2-.3h.3v1.7h-.3c-.1-.9-.6-1.4-1.5-1.4-.7 0-1.1.5-1.1 1 0 .8.7 1.1 1.4 1.4 1 .4 1.8.8 1.8 1.9z"/><path d="m233.4 529.8-2 .3v-1.7c-.4 1.1-1.2 1.7-2.2 1.7-1.2 0-1.9-.8-1.9-2v-4l-1-.2v-.3h2.1v5.3c.2.4.5.6 1.1.6 1.2 0 1.9-1.2 1.9-2.7v-2.7l-1.1-.2v-.3h2.2v5.7l1 .2v.3z"/><path d="m239.4 529c-.3.5-1 1.2-2.4 1.2-1.7 0-3.1-1.4-3.1-3.4s1.5-3.3 3.1-3.3c.7 0 1.2.1 1.8.4l.2-.4h.3l-.1 1.8h-.3c-.2-.9-.8-1.5-1.8-1.5-1.2 0-2 1.1-2 2.8s.9 2.9 2.1 2.9c1 0 1.5-.4 1.9-.9z"/><path d="m247 530h-3.1v-.3l1.1-.1v-5c-.2-.4-.6-.6-1.1-.6-1.2 0-1.9 1.2-1.9 2.7v2.9l1.1.1v.3h-3.1v-.3l1-.1v-9.4l-1-.2v-.3l2.1-.3v5.7c.4-1 1.1-1.6 2.2-1.6 1.2 0 1.9.8 1.9 2v4.1l1 .1v.3z"/><path d="m256.5 529.4c-.2.3-.7.7-1.3.7s-1-.4-1.1-.9c-.4.5-1.2.9-1.8.9-1 0-1.8-.7-1.8-1.7 0-1.1.9-1.7 2-1.9l1.5-.3v-1.1c0-.8-.3-1.2-1.2-1.2-.7 0-1.3.5-1.7 1.1l-.3-.3c.5-.8 1.3-1.4 2.2-1.4 1.3 0 2 .6 2 1.7v3.4c0 .8.3 1 .6 1 .2 0 .5-.1.6-.3zm-2.5-.5v-2.2l-1 .2c-.8.1-1.4.6-1.4 1.4 0 .7.5 1.2 1.1 1.2.5 0 1-.2 1.3-.6z"/><path d="m261 528.2c0 1-.8 1.9-2.1 1.9-.6 0-1.1-.1-1.5-.4l-.1.4h-.3l-.1-2h.3c.2 1.1.8 1.7 1.7 1.7.7 0 1.2-.5 1.2-1.2 0-.8-.7-1.1-1.4-1.4-.8-.3-1.7-.8-1.7-1.9 0-1 .8-1.8 1.9-1.8.6 0 1 .1 1.4.4l.2-.3h.3v1.7h-.3c-.2-.9-.6-1.4-1.5-1.4-.7 0-1.1.5-1.1 1 0 .8.7 1.1 1.4 1.4.8.4 1.7.8 1.7 1.9z"/><path d="m271.8 530h-3.1v-.3l1.1-.1v-5c-.2-.4-.6-.6-1.1-.6-1.2 0-1.9 1.2-1.9 2.7v2.9l1.1.1v.3h-3.1v-.3l1-.1v-9.4l-1-.2v-.3l2.1-.3v5.7c.4-1 1.1-1.6 2.2-1.6 1.2 0 1.9.8 1.9 2v4.1l1 .1v.3z"/><path d="m277.8 526.3h-4.3v.4c0 1.8.9 2.9 2.1 2.9 1 0 1.5-.4 1.9-.9l.3.3c-.3.5-1 1.2-2.4 1.2-1.8 0-3.1-1.4-3.1-3.3 0-2 1.5-3.3 3-3.3s2.5 1 2.5 2.5zm-1.2-.4c0-1-.3-2.1-1.4-2.1-.9 0-1.5.9-1.7 2.1z"/><path d="m284.5 529.4c-.2.3-.7.7-1.3.7s-1-.4-1.1-.9c-.4.5-1.2.9-1.8.9-1 0-1.8-.7-1.8-1.7 0-1.1.9-1.7 2-1.9l1.5-.3v-1.1c0-.8-.3-1.2-1.2-1.2-.7 0-1.3.5-1.7 1.1l-.3-.3c.5-.8 1.3-1.4 2.2-1.4 1.3 0 2 .6 2 1.7v3.4c0 .8.3 1 .6 1 .2 0 .5-.1.6-.3zm-2.4-.5v-2.2l-1 .2c-.8.1-1.4.6-1.4 1.4 0 .7.5 1.2 1.1 1.2.5 0 1-.2 1.3-.6z"/><path d="m291.4 529.8-2 .3v-1c-.4.6-.9 1-1.9 1-1.3 0-2.7-1.1-2.7-3.1 0-2.1 1.3-3.5 3-3.5.8 0 1.3.3 1.6.6v-4l-1-.2v-.3l2.1-.3v10l1 .2v.3zm-2.1-1.3v-3.7c-.3-.5-.9-.9-1.5-.9-1.4 0-1.9 1.5-1.9 3 0 1.6.7 2.7 1.9 2.7.9 0 1.3-.6 1.5-1.1z"/><path d="m294.8 530h-3v-.3l1-.1v-9.5l-1-.2v-.3l2.1-.3v10.2l1 .1v.4z"/><path d="m298.5 530h-3v-.3l1-.1v-5.3l-1-.2v-.3l2.1-.3v6.1l1 .1v.3zm-.9-8.8c0 .4-.3.7-.7.7s-.7-.3-.7-.7.3-.7.7-.7.7.4.7.7z"/><path d="m306.2 530h-3.2v-.3l1.1-.1v-5c-.1-.4-.6-.6-1.1-.6-1.2 0-1.9 1.2-1.9 2.7v2.9l1.1.1v.3h-3.1v-.3l1-.1v-5.3l-1-.2v-.3l2-.3v1.6c.4-1.1 1.2-1.7 2.2-1.7 1.2 0 1.9.8 1.9 2v4.1l1 .1z"/><path d="m312.2 526.3h-4.3v.4c0 1.8.9 2.9 2.1 2.9 1 0 1.5-.4 1.9-.9l.3.3c-.3.5-1 1.2-2.4 1.2-1.8 0-3.1-1.4-3.1-3.3 0-2 1.5-3.3 3-3.3s2.5 1 2.5 2.5zm-1.1-.4c0-1-.3-2.1-1.4-2.1-.9 0-1.5.9-1.7 2.1z"/><path d="m317.3 528.2c0 1-.8 1.9-2.1 1.9-.6 0-1.1-.1-1.5-.4l-.2.4h-.3l-.1-2h.3c.2 1.1.8 1.7 1.7 1.7.7 0 1.2-.5 1.2-1.2 0-.8-.7-1.1-1.4-1.4-.8-.3-1.7-.8-1.7-1.9 0-1 .8-1.8 1.9-1.8.6 0 1 .1 1.4.4l.2-.3h.3v1.7h-.3c-.1-.9-.6-1.4-1.5-1.4-.7 0-1.1.5-1.1 1 0 .8.7 1.1 1.4 1.4 1 .4 1.8.8 1.8 1.9z"/><path d="m325.8 523.9-.4.9c-.2-.1-.9-.5-1.1-.5-.7 0-1.2 1-1.2 2.4v3l1.4.1v.3h-3.4v-.3l1-.1v-5.3l-1-.2v-.3l2-.3v1.6c.3-1.2 1.1-1.7 1.8-1.7.4 0 .7.2.9.4z"/><path d="m331.7 526.3h-4.3v.4c0 1.8.9 2.9 2.1 2.9 1 0 1.5-.4 1.9-.9l.3.3c-.3.5-1 1.2-2.4 1.2-1.8 0-3.1-1.4-3.1-3.3 0-2 1.5-3.3 3-3.3s2.5 1 2.5 2.5zm-1.2-.4c0-1-.3-2.1-1.4-2.1-.9 0-1.5.9-1.7 2.1z"/><path d="m339.1 529.8-2 .3v-1c-.4.6-.9 1-1.9 1-1.3 0-2.7-1.1-2.7-3.1 0-2.1 1.3-3.5 3-3.5.8 0 1.3.3 1.6.6v-4l-1-.2v-.3l2.1-.3v10l1 .2v.3zm-2.1-1.3v-3.7c-.3-.5-.9-.9-1.5-.9-1.4 0-1.9 1.5-1.9 3 0 1.6.7 2.7 1.9 2.7.9 0 1.3-.6 1.5-1.1z"/><path d="m346.4 529.8-2 .3v-1.7c-.4 1.1-1.2 1.7-2.2 1.7-1.2 0-1.9-.8-1.9-2v-4l-1-.2v-.3h2.1v5.3c.1.4.5.6 1.1.6 1.2 0 1.9-1.2 1.9-2.7v-2.7l-1.1-.2v-.3h2.2v5.7l1 .2v.3z"/><path d="m352.4 529c-.3.5-1 1.2-2.4 1.2-1.7 0-3.1-1.4-3.1-3.4s1.5-3.3 3.1-3.3c.7 0 1.2.1 1.8.4l.2-.4h.3l-.1 1.8h-.3c-.2-.9-.8-1.5-1.8-1.5-1.2 0-2 1.1-2 2.8s.9 2.9 2.1 2.9c1 0 1.5-.4 1.9-.9z"/><path d="m358.5 526.3h-4.3v.4c0 1.8.9 2.9 2.1 2.9 1 0 1.5-.4 1.9-.9l.3.3c-.3.5-1 1.2-2.4 1.2-1.8 0-3.1-1.4-3.1-3.3 0-2 1.5-3.3 3-3.3s2.5 1 2.5 2.5zm-1.1-.4c0-1-.3-2.1-1.4-2.1-.9 0-1.5.9-1.7 2.1z"/><path d="m366.4 529.2c-.3.5-.9.9-1.8.9-.8 0-1.5-.5-1.5-1.7v-4.2h-1v-.3l1-.4.8-1.9h.3v2.1h1.8v.4h-1.8v4.1c0 .9.4 1.2 1 1.2.5 0 .8-.3 1-.5z"/><path d="m373.7 530h-3.1v-.3l1.1-.1v-5c-.2-.4-.6-.6-1.1-.6-1.2 0-1.9 1.2-1.9 2.7v2.9l1.1.1v.3h-3.1v-.3l1-.1v-9.4l-1-.2v-.3l2.1-.3v5.7c.4-1 1.1-1.6 2.2-1.6 1.2 0 1.9.8 1.9 2v4.1l1 .1v.3z"/><path d="m379.7 526.3h-4.3v.4c0 1.8.9 2.9 2.1 2.9 1 0 1.5-.4 1.9-.9l.3.3c-.3.5-1 1.2-2.4 1.2-1.8 0-3.1-1.4-3.1-3.3 0-2 1.5-3.3 3-3.3s2.5 1 2.5 2.5zm-1.1-.4c0-1-.3-2.1-1.4-2.1-.9 0-1.5.9-1.7 2.1z"/><path d="m225.7 545.2c0 1-.8 1.9-2.1 1.9-.6 0-1.1-.1-1.5-.4l-.2.4h-.3l-.1-2h.3c.2 1.1.8 1.7 1.7 1.7.7 0 1.2-.5 1.2-1.2 0-.8-.7-1.1-1.4-1.4-.8-.3-1.7-.8-1.7-1.9 0-1 .8-1.8 1.9-1.8.6 0 1 .1 1.4.4l.2-.3h.3v1.7h-.3c-.1-.9-.6-1.4-1.5-1.4-.7 0-1.1.5-1.1 1 0 .8.7 1.1 1.4 1.4 1 .4 1.8.8 1.8 1.9z"/><path d="m233.1 543.6c0 2.1-1.4 3.5-3.1 3.5-.7 0-1.1-.2-1.5-.4v3.7l1.4.1v.3h-3.4v-.3l1-.1v-9.1l-1-.2v-.3l2-.3v1c.4-.6 1.1-1.1 2-1.1 1.3.1 2.6 1.2 2.6 3.2zm-1.2.1c0-1.6-.6-2.7-1.8-2.7-.8 0-1.4.5-1.6 1.1v4c.3.3.9.6 1.3.6 1.5 0 2.1-1.5 2.1-3z"/><path d="m239.8 546.4c-.2.3-.7.7-1.3.7s-1-.4-1.1-.9c-.5.5-1.2.9-1.8.9-1 0-1.8-.7-1.8-1.7 0-1.1.9-1.7 2-1.9l1.5-.3v-1.1c0-.8-.3-1.2-1.2-1.2-.7 0-1.3.5-1.7 1.1l-.3-.3c.5-.8 1.3-1.4 2.2-1.4 1.4 0 2 .6 2 1.7v3.4c0 .8.3 1 .6 1 .2 0 .5-.1.6-.3zm-2.5-.5v-2.2l-1 .2c-.8.1-1.4.6-1.4 1.4 0 .7.5 1.2 1.1 1.2.5 0 1-.2 1.3-.6z"/><path d="m245.4 546c-.3.5-1 1.2-2.4 1.2-1.7 0-3.1-1.4-3.1-3.4s1.5-3.3 3.1-3.3c.7 0 1.2.1 1.8.4l.2-.4h.3l-.1 1.8h-.3c-.2-.9-.8-1.5-1.8-1.5-1.2 0-2 1.1-2 2.8s.9 2.9 2.1 2.9c1 0 1.5-.4 1.9-.9z"/><path d="m251.5 543.3h-4.3v.4c0 1.8.9 2.9 2.1 2.9 1 0 1.5-.4 1.9-.9l.3.3c-.3.5-1 1.2-2.4 1.2-1.8 0-3.1-1.4-3.1-3.3 0-2 1.5-3.3 3-3.3s2.5 1 2.5 2.5zm-1.1-.4c0-1-.3-2.1-1.4-2.1-.9 0-1.5.9-1.7 2.1z"/><path d="m261.6 543.6c0 2.1-1.2 3.5-3.4 3.5-.9 0-1.7-.2-2.2-.5v-9.5l-1-.2v-.3l2.1-.3v5.1c.4-.6 1.1-1 2-1 1.2.1 2.5 1.2 2.5 3.2zm-1.1.1c0-1.6-.6-2.7-1.8-2.7-.8 0-1.3.4-1.7 1.1v4.2c.2.2.8.4 1.4.4 1.3 0 2.1-1.3 2.1-3z"/><path d="m267.9 543.3h-4.3v.4c0 1.8.9 2.9 2.1 2.9 1 0 1.5-.4 1.9-.9l.3.3c-.3.5-1 1.2-2.4 1.2-1.8 0-3.1-1.4-3.1-3.3 0-2 1.5-3.3 3-3.3s2.5 1 2.5 2.5zm-1.2-.4c0-1-.3-2.1-1.4-2.1-.9 0-1.5.9-1.7 2.1z"/><path d="m272.7 546.2c-.3.5-.9.9-1.8.9-.8 0-1.5-.5-1.5-1.7v-4.2h-1v-.3l1-.4.8-1.9h.3v2.1h1.8v.4h-1.8v4.1c0 .9.4 1.2 1 1.2.5 0 .8-.3 1-.5z"/><path d="m282.8 541-.7.2-2.5 6h-.1l-1.8-4.5-1.8 4.5h-.1l-2.5-6.1-.7-.2v-.3h2.9v.3l-1 .1 1.7 4.3 1.3-3.3-.4-1-.7-.1v-.3h2.9v.3l-1 .1v.1l1.7 4.3 1.7-4.3-1-.2v-.3h2.3v.4z"/><path d="m288.4 543.3h-4.3v.4c0 1.8.9 2.9 2.1 2.9 1 0 1.5-.4 1.9-.9l.3.3c-.3.5-1 1.2-2.4 1.2-1.8 0-3.1-1.4-3.1-3.3 0-2 1.5-3.3 3-3.3s2.5 1 2.5 2.5zm-1.1-.4c0-1-.3-2.1-1.4-2.1-.9 0-1.5.9-1.7 2.1z"/><path d="m294.7 543.3h-4.3v.4c0 1.8.9 2.9 2.1 2.9 1 0 1.5-.4 1.9-.9l.3.3c-.3.5-1 1.2-2.4 1.2-1.8 0-3.1-1.4-3.1-3.3 0-2 1.5-3.3 3-3.3s2.5 1 2.5 2.5zm-1.1-.4c0-1-.3-2.1-1.4-2.1-.9 0-1.5.9-1.7 2.1z"/><path d="m302.6 547h-3.1v-.3l1.1-.1v-5c-.2-.4-.6-.6-1.1-.6-1.2 0-1.9 1.2-1.9 2.7v2.9l1.1.1v.3h-3.1v-.3l1-.1v-5.3l-1-.2v-.3l2-.3v1.6c.4-1.1 1.2-1.7 2.2-1.7 1.2 0 1.9.8 1.9 2v4.1l1 .1v.4z"/><path d="m309 547h-3v-.3l1-.1v-9.5l-1-.2v-.3l2.1-.3v10.2l1 .1v.4z"/><path d="m315.2 543.3h-4.3v.4c0 1.8.9 2.9 2.1 2.9 1 0 1.5-.4 1.9-.9l.3.3c-.3.5-1 1.2-2.4 1.2-1.8 0-3.1-1.4-3.1-3.3 0-2 1.5-3.3 3-3.3s2.5 1 2.5 2.5zm-1.2-.4c0-1-.3-2.1-1.4-2.1-.9 0-1.5.9-1.7 2.1z"/><path d="m320 546.2c-.3.5-.9.9-1.8.9-.8 0-1.5-.5-1.5-1.7v-4.2h-1v-.3l1-.4.8-1.9h.3v2.1h1.8v.4h-1.8v4.1c0 .9.4 1.2 1 1.2.5 0 .8-.3 1-.5z"/><path d="m324.3 546.2c-.3.5-.9.9-1.8.9-.8 0-1.5-.5-1.5-1.7v-4.2h-1v-.3l1-.4.8-1.9h.3v2.1h1.8v.4h-1.8v4.1c0 .9.4 1.2 1 1.2.5 0 .8-.3 1-.5z"/><path d="m330.1 543.3h-4.3v.4c0 1.8.9 2.9 2.1 2.9 1 0 1.5-.4 1.9-.9l.3.3c-.3.5-1 1.2-2.4 1.2-1.8 0-3.1-1.4-3.1-3.3 0-2 1.5-3.3 3-3.3s2.5 1 2.5 2.5zm-1.1-.4c0-1-.3-2.1-1.4-2.1-.9 0-1.5.9-1.7 2.1z"/><path d="m335.6 540.9-.4.9c-.2-.1-.9-.5-1.1-.5-.7 0-1.2 1-1.2 2.4v3l1.4.1v.3h-3.4v-.3l1-.1v-5.3l-1-.2v-.3l2-.3v1.6c.3-1.2 1.1-1.7 1.8-1.7.3 0 .7.2.9.4z"/><path d="m340.3 545.2c0 1-.8 1.9-2.1 1.9-.6 0-1.1-.1-1.5-.4l-.1.4h-.3l-.1-2h.3c.2 1.1.8 1.7 1.7 1.7.7 0 1.2-.5 1.2-1.2 0-.8-.7-1.1-1.4-1.4-.8-.3-1.7-.8-1.7-1.9 0-1 .8-1.8 1.9-1.8.6 0 1 .1 1.4.4l.2-.3h.3v1.7h-.3c-.2-.9-.6-1.4-1.5-1.4-.7 0-1.1.5-1.1 1 0 .8.7 1.1 1.4 1.4.9.4 1.7.8 1.7 1.9z"/><path d="m342.9 546.3c0 .4-.3.8-.8.8-.4 0-.8-.3-.8-.8 0-.4.3-.8.8-.8.5.1.8.4.8.8z"/><path d="m354.8 539.7h-.4l-.2-1.9h-2.6v8.7l1.3.1v.3h-3.7v-.3l1.3-.1v-8.7h-2.6l-.2 1.9h-.4v-2.3h7.7v2.3z"/><path d="m362.2 547h-3.1v-.3l1.1-.1v-5c-.2-.4-.6-.6-1.1-.6-1.2 0-1.9 1.2-1.9 2.7v2.9l1.1.1v.3h-3.1v-.3l1-.1v-9.4l-1-.2v-.3l2.1-.3v5.7c.4-1 1.1-1.6 2.2-1.6 1.2 0 1.9.8 1.9 2v4.1l1 .1v.3z"/><path d="m365.7 547h-3v-.3l1-.1v-5.3l-1-.2v-.3l2.1-.3v6.1l1 .1v.3zm-.9-8.8c0 .4-.3.7-.7.7s-.7-.3-.7-.7.3-.7.7-.7.7.4.7.7z"/><path d="m370.7 545.2c0 1-.8 1.9-2.1 1.9-.6 0-1.1-.1-1.5-.4l-.2.4h-.3l-.1-2h.3c.2 1.1.8 1.7 1.7 1.7.7 0 1.2-.5 1.2-1.2 0-.8-.7-1.1-1.4-1.4-.8-.3-1.7-.8-1.7-1.9 0-1 .8-1.8 1.9-1.8.6 0 1 .1 1.4.4l.2-.3h.3v1.7h-.3c-.1-.9-.6-1.4-1.5-1.4-.7 0-1.1.5-1.1 1 0 .8.7 1.1 1.4 1.4.9.4 1.8.8 1.8 1.9z"/><path d="m231.3 558-.7.2-2.5 6h-.1l-1.8-4.5-1.8 4.5h-.2l-2.5-6.1-.7-.2v-.3h2.9v.3l-1 .1 1.7 4.3 1.3-3.3-.4-1-.7-.1v-.3h2.9v.3l-1 .1v.1l1.7 4.3 1.7-4.3-1-.2v-.3h2.3v.4z"/><path d="m234.7 564h-3v-.3l1-.1v-5.3l-1-.2v-.3l2.1-.3v6.1l1 .1v.3zm-.9-8.8c0 .4-.3.7-.7.7s-.7-.3-.7-.7.3-.7.7-.7.7.4.7.7z"/><path d="m238.3 564h-3v-.3l1-.1v-9.5l-1-.2v-.3l2.1-.3v10.2l1 .1v.4z"/><path d="m241.8 564h-3v-.3l1-.1v-9.5l-1-.2v-.3l2.1-.3v10.2l1 .1v.4z"/><path d="m248.5 564h-3v-.3l1-.1v-5.3l-1-.2v-.3l2.1-.3v6.1l1 .1v.3zm-.9-8.8c0 .4-.3.7-.7.7s-.7-.3-.7-.7.3-.7.7-.7.7.4.7.7z"/><path d="m259.9 564h-3.1v-.3l1.1-.1v-5c-.2-.4-.4-.6-1-.6-1 0-1.8 1.1-1.8 2.7v2.9l1.1.1v.3h-3.2v-.3l1.1-.1v-5c-.2-.4-.4-.6-1-.6-1 0-1.8 1.1-1.8 2.7v2.9l1.1.1v.3h-3.1v-.3l1-.1v-5.3l-1-.2v-.3l2-.3v1.6c.3-.9 1.1-1.7 2.1-1.7s1.6.6 1.8 1.7c.3-1 1.1-1.7 2.1-1.7 1.1 0 1.8.8 1.8 2v4.1l1 .1v.4z"/><path d="m266.9 560.6c0 2.1-1.3 3.5-3.1 3.5-.7 0-1.1-.2-1.5-.4v3.7l1.4.1v.3h-3.4v-.3l1-.1v-9.1l-1-.2v-.3l2-.3v1c.4-.6 1.1-1.1 2-1.1 1.3.1 2.6 1.2 2.6 3.2zm-1.2.1c0-1.6-.6-2.7-1.8-2.7-.8 0-1.4.5-1.7 1.1v4c.3.3.9.6 1.4.6 1.5 0 2.1-1.5 2.1-3z"/><path d="m272.3 557.9-.4.9c-.2-.1-.9-.5-1.1-.5-.7 0-1.2 1-1.2 2.4v3l1.4.1v.3h-3.4v-.3l1-.1v-5.3l-1-.2v-.3l2-.3v1.6c.3-1.2 1.1-1.7 1.8-1.7.3 0 .7.2.9.4z"/><path d="m278.8 560.8c0 2-1.4 3.3-3.1 3.3s-3.1-1.4-3.1-3.3c0-2 1.4-3.3 3.1-3.3s3.1 1.3 3.1 3.3zm-1.2 0c0-1.8-.7-3-1.9-3s-1.9 1.1-1.9 3 .7 3 1.9 3 1.9-1.1 1.9-3z"/><path d="m285.3 558-.7.2-2.5 6h-.1l-2.5-6.1-.7-.2v-.3h2.9v.3l-1 .1 1.7 4.4 1.7-4.3-1-.2v-.3h2.3v.4z"/><path d="m290.9 560.3h-4.3v.4c0 1.8.9 2.9 2.1 2.9 1 0 1.5-.4 1.9-.9l.3.3c-.3.5-1 1.2-2.4 1.2-1.8 0-3.1-1.4-3.1-3.3 0-2 1.5-3.3 3-3.3s2.5 1 2.5 2.5zm-1.1-.4c0-1-.3-2.1-1.4-2.1-.9 0-1.5.9-1.7 2.1z"/><path d="m300.9 558-.7.2-2.4 5.9-1.3 3.8h-1l1.9-3.9-2.3-5.8-.7-.2v-.3h2.9v.3l-1 .1 1.7 4.6 1.7-4.5-1-.2v-.3h2.3v.3z"/><path d="m307.2 560.8c0 2-1.4 3.3-3.1 3.3s-3.1-1.4-3.1-3.3c0-2 1.4-3.3 3.1-3.3s3.1 1.3 3.1 3.3zm-1.2 0c0-1.8-.7-3-1.9-3s-1.9 1.1-1.9 3 .7 3 1.9 3 1.9-1.1 1.9-3z"/><path d="m314.7 563.8-2 .3v-1.7c-.4 1.1-1.2 1.7-2.2 1.7-1.2 0-1.9-.8-1.9-2v-4l-1-.2v-.3h2.1v5.3c.1.4.5.6 1.1.6 1.2 0 1.9-1.2 1.9-2.7v-2.7l-1.1-.2v-.3h2.2v5.7l1 .2v.3z"/><path d="m319.8 557.9-.4.9c-.2-.1-.9-.5-1.1-.5-.7 0-1.2 1-1.2 2.4v3l1.4.1v.3h-3.4v-.3l1-.1v-5.3l-1-.2v-.3l2-.3v1.6c.3-1.2 1.1-1.7 1.8-1.7.4 0 .7.2.9.4z"/><path d="m328 557.9-.4.9c-.2-.1-.9-.5-1.1-.5-.7 0-1.2 1-1.2 2.4v3l1.4.1v.3h-3.4v-.3l1-.1v-5.3l-1-.2v-.3l2-.3v1.6c.3-1.2 1.1-1.7 1.8-1.7.3 0 .7.2.9.4z"/><path d="m333.8 560.3h-4.3v.4c0 1.8.9 2.9 2.1 2.9 1 0 1.5-.4 1.9-.9l.3.3c-.3.5-1 1.2-2.4 1.2-1.8 0-3.1-1.4-3.1-3.3 0-2 1.5-3.3 3-3.3s2.5 1 2.5 2.5zm-1.1-.4c0-1-.3-2.1-1.4-2.1-.9 0-1.5.9-1.7 2.1z"/><path d="m340.6 563.4c-.2.3-.7.7-1.3.7s-1-.4-1.1-.9c-.4.5-1.2.9-1.8.9-1 0-1.8-.7-1.8-1.7 0-1.1.9-1.7 2-1.9l1.5-.3v-1.1c0-.8-.3-1.2-1.2-1.2-.7 0-1.3.5-1.7 1.1l-.3-.3c.5-.8 1.3-1.4 2.2-1.4 1.3 0 2 .6 2 1.7v3.4c0 .8.3 1 .6 1 .2 0 .5-.1.6-.3zm-2.5-.5v-2.2l-1 .2c-.8.1-1.4.6-1.4 1.4 0 .7.5 1.2 1.1 1.2.5 0 1-.2 1.3-.6z"/><path d="m347.4 563.8-2 .3v-1c-.4.6-.9 1-1.9 1-1.3 0-2.7-1.1-2.7-3.1 0-2.1 1.3-3.5 3-3.5.8 0 1.3.3 1.6.6v-4l-1-.2v-.3l2.1-.3v10l1 .2v.3zm-2-1.3v-3.7c-.3-.5-.9-.9-1.5-.9-1.4 0-1.9 1.5-1.9 3 0 1.6.7 2.7 1.9 2.7.8 0 1.2-.6 1.5-1.1z"/><path d="m353.9 563.4c-.2.3-.7.7-1.3.7s-1-.4-1.1-.9c-.5.5-1.2.9-1.8.9-1 0-1.8-.7-1.8-1.7 0-1.1.9-1.7 2-1.9l1.5-.3v-1.1c0-.8-.3-1.2-1.2-1.2-.7 0-1.3.5-1.7 1.1l-.3-.3c.5-.8 1.3-1.4 2.2-1.4 1.4 0 2 .6 2 1.7v3.4c0 .8.3 1 .6 1 .2 0 .5-.1.6-.3zm-2.4-.5v-2.2l-1 .2c-.8.1-1.4.6-1.4 1.4 0 .7.5 1.2 1.1 1.2.4 0 .9-.2 1.3-.6z"/><path d="m360.4 560.6c0 2.1-1.2 3.5-3.4 3.5-.9 0-1.7-.2-2.2-.5v-9.5l-1-.2v-.3l2.1-.3v5.1c.4-.6 1.1-1 2-1 1.2.1 2.5 1.2 2.5 3.2zm-1.2.1c0-1.6-.6-2.7-1.8-2.7-.8 0-1.3.4-1.7 1.1v4.2c.2.2.8.4 1.3.4 1.4 0 2.2-1.3 2.2-3z"/><path d="m364.1 564h-3v-.3l1-.1v-5.3l-1-.2v-.3l2.1-.3v6.1l1 .1v.3zm-.9-8.8c0 .4-.3.7-.7.7s-.7-.3-.7-.7.3-.7.7-.7.7.4.7.7z"/><path d="m367.7 564h-3v-.3l1-.1v-9.5l-1-.2v-.3l2.1-.3v10.2l1 .1v.4z"/><path d="m371.3 564h-3v-.3l1-.1v-5.3l-1-.2v-.3l2.1-.3v6.1l1 .1v.3zm-.9-8.8c0 .4-.3.7-.7.7s-.7-.3-.7-.7.3-.7.7-.7.7.4.7.7z"/><path d="m376 563.2c-.3.5-.9.9-1.8.9-.8 0-1.5-.5-1.5-1.7v-4.2h-1v-.3l1-.4.8-1.9h.3v2.1h1.8v.4h-1.8v4.1c0 .9.4 1.2 1 1.2.5 0 .8-.3 1-.5z"/><path d="m382.4 558-.7.2-2.4 5.9-1.3 3.8h-1l1.9-3.9-2.3-5.8-.7-.2v-.3h2.9v.3l-1 .1 1.7 4.6 1.7-4.5-1-.2v-.3h2.3v.3z"/><path d="m226.1 574.9-.4.9c-.2-.1-.9-.5-1.1-.5-.7 0-1.2 1-1.2 2.4v3l1.4.1v.3h-3.4v-.3l1-.1v-5.3l-1-.2v-.3l2-.3v1.6c.3-1.2 1.1-1.7 1.8-1.7.3 0 .7.2.9.4z"/><path d="m229.6 581h-3v-.3l1-.1v-5.3l-1-.2v-.3l2.1-.3v6.1l1 .1v.3zm-.9-8.8c0 .4-.3.7-.7.7s-.7-.3-.7-.7.3-.7.7-.7.7.4.7.7z"/><path d="m236.3 575.3-1.7-.1c.5.4.8 1 .8 1.7 0 1.5-1.3 2.3-2.5 2.4-1 .1-1.4.4-1.4.9 0 .2.1.3.2.4l2.8.3c.8.1 1.7.6 1.7 1.6 0 1.6-1.4 2.6-3.5 2.6-1.3 0-2.7-.7-2.7-2 0-.8.5-1.3 1.2-1.7-.3-.2-.5-.5-.5-.9 0-.5.4-1 1.3-1.3-.9-.3-1.6-1.1-1.6-2.2 0-1.4 1.2-2.4 2.5-2.4.5 0 1 .2 1.4.4l2-.4zm-1 7.5c0-.6-.4-1-1.1-1.1l-2.8-.3c-.4.2-.6.8-.6 1.3 0 .9.7 1.9 2.3 1.9.8 0 2.2-.6 2.2-1.8zm-1.1-5.9c0-1.2-.6-2-1.4-2-.9 0-1.4.8-1.4 2s.6 2 1.4 2c.9 0 1.4-.9 1.4-2z"/><path d="m243.6 581h-3.1v-.3l1.1-.1v-5c-.2-.4-.6-.6-1.1-.6-1.2 0-1.9 1.2-1.9 2.7v2.9l1.1.1v.3h-3.1v-.3l1-.1v-9.4l-1-.2v-.3l2.1-.3v5.7c.4-1 1.1-1.6 2.2-1.6 1.2 0 1.9.8 1.9 2v4.1l1 .1v.3z"/><path d="m248.2 580.2c-.3.5-.9.9-1.8.9-.8 0-1.5-.5-1.5-1.7v-4.2h-1v-.3l1-.4.8-1.9h.3v2.1h1.8v.4h-1.8v4.1c0 .9.4 1.2 1 1.2.5 0 .8-.3 1-.5z"/><path d="m257.5 580.4c-.2.3-.7.7-1.3.7s-1-.4-1.1-.9c-.4.5-1.2.9-1.8.9-1 0-1.8-.7-1.8-1.7 0-1.1.9-1.7 2-1.9l1.5-.3v-1.1c0-.8-.3-1.2-1.2-1.2-.7 0-1.3.5-1.7 1.1l-.3-.3c.5-.8 1.3-1.4 2.2-1.4 1.3 0 2 .6 2 1.7v3.4c0 .8.3 1 .6 1 .2 0 .5-.1.6-.3zm-2.4-.5v-2.2l-1 .2c-.8.1-1.4.6-1.4 1.4 0 .7.5 1.2 1.1 1.2.4 0 .9-.2 1.3-.6z"/><path d="m267.2 575-.7.2-2.5 6h-.1l-1.8-4.5-1.8 4.5h-.1l-2.5-6.1-.7-.2v-.3h2.9v.3l-1 .1 1.7 4.3 1.3-3.3-.4-1-.7-.1v-.3h2.9v.3l-1 .1v.1l1.7 4.3 1.7-4.3-1-.2v-.3h2.3v.4z"/><path d="m273.1 580.4c-.2.3-.7.7-1.3.7s-1-.4-1.1-.9c-.4.5-1.2.9-1.8.9-1 0-1.8-.7-1.8-1.7 0-1.1.9-1.7 2-1.9l1.5-.3v-1.1c0-.8-.3-1.2-1.2-1.2-.7 0-1.3.5-1.7 1.1l-.3-.3c.5-.8 1.3-1.4 2.2-1.4 1.3 0 2 .6 2 1.7v3.4c0 .8.3 1 .6 1 .2 0 .5-.1.6-.3zm-2.4-.5v-2.2l-1 .2c-.8.1-1.4.6-1.4 1.4 0 .7.5 1.2 1.1 1.2.4 0 1-.2 1.3-.6z"/><path d="m279.1 575-.7.2-2.4 5.9-1.3 3.8h-1l1.9-3.9-2.3-5.8-.7-.2v-.3h2.9v.3l-1 .1 1.7 4.6 1.7-4.5-1-.2v-.3h2.3v.3z"/><path d="m280.4 580.3c0 .4-.3.8-.8.8-.4 0-.8-.3-.8-.8 0-.4.3-.8.8-.8.4.1.8.4.8.8z"/><path d="m293.3 581h-3.4v-.3l1.3-.1-1-2.8h-3.5l-1 2.8 1.3.1v.3h-2.6v-.3l.8-.2 3.5-9.2h.3l3.5 9.3.8.1zm-3.3-3.8-1.6-4.2-1.6 4.2z"/><path d="m296.5 581h-3v-.3l1-.1v-9.5l-1-.2v-.3l2.1-.3v10.2l1 .1v.4z"/><path d="m301.5 579.2c0 1-.8 1.9-2.1 1.9-.6 0-1.1-.1-1.5-.4l-.2.4h-.3l-.1-2h.3c.2 1.1.8 1.7 1.7 1.7.7 0 1.2-.5 1.2-1.2 0-.8-.7-1.1-1.4-1.4-.8-.3-1.7-.8-1.7-1.9 0-1 .8-1.8 1.9-1.8.6 0 1 .1 1.4.4l.2-.3h.3v1.7h-.3c-.1-.9-.6-1.4-1.5-1.4-.7 0-1.1.5-1.1 1 0 .8.7 1.1 1.4 1.4.9.4 1.8.8 1.8 1.9z"/><path d="m308.5 577.8c0 2-1.4 3.3-3.1 3.3s-3.1-1.4-3.1-3.3c0-2 1.4-3.3 3.1-3.3s3.1 1.3 3.1 3.3zm-1.2 0c0-1.8-.7-3-1.9-3s-1.9 1.1-1.9 3 .7 3 1.9 3 1.9-1.1 1.9-3z"/><path d="m319 580.8-2 .3v-1.7c-.4 1.1-1.2 1.7-2.2 1.7-1.2 0-1.9-.8-1.9-2v-4l-1-.2v-.3h2.1v5.3c.1.4.5.6 1.1.6 1.2 0 1.9-1.2 1.9-2.7v-2.7l-1.1-.2v-.3h2.2v5.7l1 .2v.3z"/><path d="m323.8 579.2c0 1-.8 1.9-2.1 1.9-.6 0-1.1-.1-1.5-.4l-.1.4h-.3l-.1-2h.3c.2 1.1.8 1.7 1.7 1.7.7 0 1.2-.5 1.2-1.2 0-.8-.7-1.1-1.4-1.4-.8-.3-1.7-.8-1.7-1.9 0-1 .8-1.8 1.9-1.8.6 0 1 .1 1.4.4l.2-.3h.3v1.7h-.3c-.2-.9-.6-1.4-1.5-1.4-.7 0-1.1.5-1.1 1 0 .8.7 1.1 1.4 1.4.9.4 1.7.8 1.7 1.9z"/><path d="m330.2 577.3h-4.3v.4c0 1.8.9 2.9 2.1 2.9 1 0 1.5-.4 1.9-.9l.3.3c-.3.5-1 1.2-2.4 1.2-1.8 0-3.1-1.4-3.1-3.3 0-2 1.5-3.3 3-3.3s2.5 1 2.5 2.5zm-1.1-.4c0-1-.3-2.1-1.4-2.1-.9 0-1.5.9-1.7 2.1z"/><path d="m338.1 580.2c-.3.5-.9.9-1.8.9-.8 0-1.5-.5-1.5-1.7v-4.2h-1v-.3l1-.4.8-1.9h.3v2.1h1.8v.4h-1.8v4.1c0 .9.4 1.2 1 1.2.5 0 .8-.3 1-.5z"/><path d="m341.5 581h-3v-.3l1-.1v-5.3l-1-.2v-.3l2.1-.3v6.1l1 .1v.3zm-.9-8.8c0 .4-.3.7-.7.7s-.7-.3-.7-.7.3-.7.7-.7.7.4.7.7z"/><path d="m348.2 575.3-1.7-.1c.5.4.8 1 .8 1.7 0 1.5-1.3 2.3-2.5 2.4-1 .1-1.4.4-1.4.9 0 .2.1.3.2.4l2.8.3c.8.1 1.7.6 1.7 1.6 0 1.6-1.4 2.6-3.5 2.6-1.3 0-2.7-.7-2.7-2 0-.8.5-1.3 1.2-1.7-.3-.2-.5-.5-.5-.9 0-.5.4-1 1.3-1.3-.9-.3-1.6-1.1-1.6-2.2 0-1.4 1.2-2.4 2.5-2.4.5 0 1 .2 1.4.4l2-.4zm-1 7.5c0-.6-.4-1-1.1-1.1l-2.8-.3c-.4.2-.6.8-.6 1.3 0 .9.7 1.9 2.3 1.9.8 0 2.2-.6 2.2-1.8zm-1.1-5.9c0-1.2-.6-2-1.4-2-.9 0-1.4.8-1.4 2s.6 2 1.4 2c.9 0 1.4-.9 1.4-2z"/><path d="m355.5 581h-3.1v-.3l1.1-.1v-5c-.2-.4-.6-.6-1.1-.6-1.2 0-1.9 1.2-1.9 2.7v2.9l1.1.1v.3h-3.1v-.3l1-.1v-9.4l-1-.2v-.3l2.1-.3v5.7c.4-1 1.1-1.6 2.2-1.6 1.2 0 1.9.8 1.9 2v4.1l1 .1v.3z"/><path d="m360.1 580.2c-.3.5-.9.9-1.8.9-.8 0-1.5-.5-1.5-1.7v-4.2h-1v-.3l1-.4.8-1.9h.3v2.1h1.8v.4h-1.8v4.1c0 .9.4 1.2 1 1.2.5 0 .8-.3 1-.5z"/><path d="m365.9 577.3h-4.3v.4c0 1.8.9 2.9 2.1 2.9 1 0 1.5-.4 1.9-.9l.3.3c-.3.5-1 1.2-2.4 1.2-1.8 0-3.1-1.4-3.1-3.3 0-2 1.5-3.3 3-3.3s2.5 1 2.5 2.5zm-1.2-.4c0-1-.3-2.1-1.4-2.1-.9 0-1.5.9-1.7 2.1z"/><path d="m371.3 574.9-.4.9c-.2-.1-.9-.5-1.1-.5-.7 0-1.2 1-1.2 2.4v3l1.4.1v.3h-3.4v-.3l1-.1v-5.3l-1-.2v-.3l2-.3v1.6c.3-1.2 1.1-1.7 1.8-1.7.3 0 .7.2.9.4z"/><path d="m224.3 598h-3v-.3l1-.1v-9.5l-1-.2v-.3l2.1-.3v10.2l1 .1v.4z"/><path d="m230.5 594.3h-4.3v.4c0 1.8.9 2.9 2.1 2.9 1 0 1.5-.4 1.9-.9l.3.3c-.3.5-1 1.2-2.4 1.2-1.8 0-3.1-1.4-3.1-3.3 0-2 1.5-3.3 3-3.3s2.5 1 2.5 2.5zm-1.2-.4c0-1-.3-2.1-1.4-2.1-.9 0-1.5.9-1.7 2.1z"/><path d="m235.3 597.2c-.3.5-.9.9-1.8.9-.8 0-1.5-.5-1.5-1.7v-4.2h-1v-.3l1-.4.8-1.9h.3v2.1h1.8v.4h-1.8v4.1c0 .9.4 1.2 1 1.2.5 0 .8-.3 1-.5z"/><path d="m239.6 597.2c-.3.5-.9.9-1.8.9-.8 0-1.5-.5-1.5-1.7v-4.2h-1v-.3l1-.4.8-1.9h.3v2.1h1.8v.4h-1.8v4.1c0 .9.4 1.2 1 1.2.5 0 .8-.3 1-.5z"/><path d="m245.4 594.3h-4.3v.4c0 1.8.9 2.9 2.1 2.9 1 0 1.5-.4 1.9-.9l.3.3c-.3.5-1 1.2-2.4 1.2-1.8 0-3.1-1.4-3.1-3.3 0-2 1.5-3.3 3-3.3s2.5 1 2.5 2.5zm-1.1-.4c0-1-.3-2.1-1.4-2.1-.9 0-1.5.9-1.7 2.1z"/><path d="m250.9 591.9-.4.9c-.2-.1-.9-.5-1.1-.5-.7 0-1.2 1-1.2 2.4v3l1.4.1v.3h-3.4v-.3l1-.1v-5.3l-1-.2v-.3l2-.3v1.6c.3-1.2 1.1-1.7 1.8-1.7.3 0 .7.2.9.4z"/><path d="m254.3 594.7-3 .4v-.7l3-.4z"/><path d="m259.6 596.2c0 1-.8 1.9-2.1 1.9-.6 0-1.1-.1-1.5-.4l-.2.4h-.3l-.1-2h.3c.2 1.1.8 1.7 1.7 1.7.7 0 1.2-.5 1.2-1.2 0-.8-.7-1.1-1.4-1.4-.8-.3-1.7-.8-1.7-1.9 0-1 .8-1.8 1.9-1.8.6 0 1 .1 1.4.4l.2-.3h.3v1.7h-.3c-.1-.9-.6-1.4-1.5-1.4-.7 0-1.1.5-1.1 1 0 .8.7 1.1 1.4 1.4.9.4 1.8.8 1.8 1.9z"/><path d="m266.9 594.6c0 2.1-1.4 3.5-3.1 3.5-.7 0-1.1-.2-1.5-.4v3.7l1.4.1v.3h-3.4v-.3l1-.1v-9.1l-1-.2v-.3l2-.3v1c.4-.6 1.1-1.1 2-1.1 1.3.1 2.6 1.2 2.6 3.2zm-1.1.1c0-1.6-.6-2.7-1.8-2.7-.8 0-1.4.5-1.6 1.1v4c.3.3.9.6 1.3.6 1.4 0 2.1-1.5 2.1-3z"/><path d="m273.6 597.4c-.2.3-.7.7-1.3.7s-1-.4-1.1-.9c-.5.5-1.2.9-1.8.9-1 0-1.8-.7-1.8-1.7 0-1.1.9-1.7 2-1.9l1.5-.3v-1.1c0-.8-.3-1.2-1.2-1.2-.7 0-1.3.5-1.7 1.1l-.3-.3c.5-.8 1.3-1.4 2.2-1.4 1.4 0 2 .6 2 1.7v3.4c0 .8.3 1 .6 1 .2 0 .5-.1.6-.3zm-2.4-.5v-2.2l-1 .2c-.8.1-1.4.6-1.4 1.4 0 .7.5 1.2 1.1 1.2.4 0 .9-.2 1.3-.6z"/><path d="m279.3 597c-.3.5-1 1.2-2.4 1.2-1.7 0-3.1-1.4-3.1-3.4s1.5-3.3 3.1-3.3c.7 0 1.2.1 1.8.4l.2-.4h.3l-.1 1.8h-.3c-.2-.9-.8-1.5-1.8-1.5-1.2 0-2 1.1-2 2.8s.9 2.9 2.1 2.9c1 0 1.5-.4 1.9-.9z"/><path d="m283 598h-3v-.3l1-.1v-5.3l-1-.2v-.3l2.1-.3v6.1l1 .1v.3zm-.9-8.8c0 .4-.3.7-.7.7s-.7-.3-.7-.7.3-.7.7-.7.7.4.7.7z"/><path d="m290.7 598h-3.1v-.3l1.1-.1v-5c-.2-.4-.6-.6-1.1-.6-1.2 0-1.9 1.2-1.9 2.7v2.9l1.1.1v.3h-3.1v-.3l1-.1v-5.3l-1-.2v-.3l2-.3v1.6c.4-1.1 1.2-1.7 2.2-1.7 1.2 0 1.9.8 1.9 2v4.1l1 .1v.4z"/><path d="m297.3 592.3-1.7-.1c.5.4.8 1 .8 1.7 0 1.5-1.3 2.3-2.5 2.4-1 .1-1.4.4-1.4.9 0 .2.1.3.2.4l2.8.3c.8.1 1.7.6 1.7 1.6 0 1.6-1.4 2.6-3.5 2.6-1.3 0-2.7-.7-2.7-2 0-.8.5-1.3 1.2-1.7-.3-.2-.5-.5-.5-.9 0-.5.4-1 1.3-1.3-.9-.3-1.6-1.1-1.6-2.2 0-1.4 1.2-2.4 2.5-2.4.5 0 1 .2 1.4.4l2-.4zm-1.1 7.5c0-.6-.4-1-1.1-1.1l-2.8-.3c-.4.2-.6.8-.6 1.3 0 .9.7 1.9 2.3 1.9.9 0 2.2-.6 2.2-1.8zm-1-5.9c0-1.2-.6-2-1.4-2-.9 0-1.4.8-1.4 2s.6 2 1.4 2c.9 0 1.4-.9 1.4-2z"/><path d="m299.3 597.3c0 .4-.3.8-.8.8-.4 0-.8-.3-.8-.8 0-.4.3-.8.8-.8.5.1.8.4.8.8z"/><path d="m395.2 90.7v3.6h-.4l-.1-1.4-3 1.1v3.7l3 1.1.2-1.3h.4v2.8h-.4l-.2-.9-9.8-3.7v-.4l9.9-3.8.1-.9h.3zm-4 3.5-4.5 1.7 4.5 1.7z"/><path d="m395.2 87.2v3.2h-.3l-.1-1h-10.1l-.2 1h-.3l-.3-2.2h10.9l.1-1z"/><path d="m395.2 83.5v3.2h-.3l-.1-1h-10.1l-.2 1h-.3l-.3-2.2h10.9l.1-1z"/><path d="m394.4 75.2c.5.4.9.9.9 1.9 0 .9-.6 1.6-1.8 1.6h-4.5v1.1h-.3l-.4-1-2-.8v-.4h2.2v-2h.5v2h4.4c.9 0 1.3-.4 1.3-1 0-.5-.3-.9-.6-1.1z"/><path d="m388.7 69.9 1 .4c-.1.2-.5 1-.5 1.1 0 .8 1.1 1.2 2.5 1.2h3.2l.1-1.5h.3v3.7h-.3l-.1-1h-5.6l-.2 1h-.3l-.3-2.1h1.7c-1.2-.4-1.8-1.1-1.8-2-.1-.2.1-.6.3-.8z"/><path d="m388.8 62.6.2.8 6.3 2.5 4 1.4v1.1l-4.1-2-6.2 2.5-.2.8h-.3v-3.1h.3l.1 1.1 4.9-1.8-4.8-1.9-.2 1.1h-.3v-2.4h.3z"/><path d="m395.2 59v3.2h-.3l-.1-1h-5.7l-.2 1h-.3l-.4-2.2h6.5l.1-1zm-9.3 1c.4 0 .7.3.7.7s-.3.7-.7.7-.7-.3-.7-.7.3-.7.7-.7z"/><path d="m395.2 50.8v3.3h-.3l-.1-1.2h-5.3c-.4.2-.6.6-.6 1.2 0 1.3 1.3 2 2.9 2h3.1l.1-1.2h.3v3.3h-.3l-.1-1h-5.6l-.2 1h-.3l-.3-2.1h1.7c-1.1-.4-1.8-1.2-1.8-2.4s.9-2 2.1-2h4.4l.1-1h.2z"/><path d="m389.2 43.8-.2 1.8c.4-.6 1.1-.8 1.8-.8 1.6 0 2.4 1.3 2.5 2.7.1 1 .5 1.5 1 1.5.2 0 .3-.1.4-.2l.3-3c.1-.8.6-1.8 1.7-1.8 1.7 0 2.8 1.5 2.8 3.7 0 1.4-.8 2.8-2.2 2.8-.9 0-1.4-.6-1.8-1.3-.2.3-.6.5-1 .5-.5 0-1.1-.4-1.4-1.4-.4 1-1.2 1.7-2.4 1.7-1.5 0-2.5-1.2-2.5-2.7 0-.6.2-1.1.4-1.5l-.4-2.1h1zm8 1c-.7 0-1.1.4-1.2 1.1l-.3 2.9c.3.4.8.7 1.4.7 1 0 2-.8 2-2.4 0-.8-.6-2.3-1.9-2.3zm-6.4 1.1c-1.2 0-2.1.6-2.1 1.5s.9 1.5 2.1 1.5 2.1-.6 2.1-1.5c.1-.9-.8-1.5-2.1-1.5z"/><path d="m394.5 41.5c.5 0 .8.4.8.8s-.4.8-.8.8-.8-.4-.8-.8.4-.8.8-.8z"/></svg>