<svg enable-background="new 0 0 437 643" viewBox="0 0 437 643" xml:space="preserve" xmlns="http://www.w3.org/2000/svg"><path d="m0 0h437v643h-437z" fill="#fff"/><path d="m0 133.9h437v219.4h-437z" fill="#f7f7f7"/><path d="m34 87h134.6v93.9h-134.6z" fill="none"/><text fill="#eb5e5e" font-family="'WhitmanDisplay-Regular'" font-size="120" transform="translate(34 171.4795)">#</text><path d="m96.7 30.4h213.6v153.4h-213.6z" fill="none"/><text fill="#eb5e5e" font-family="'WhitmanDisplay-Black'" font-size="200" transform="translate(96.677 171.8194)">1</text><path d="m41 387.2h329.2v38.6h-329.2z" fill="none"/><text transform="translate(41 408.3818)"><tspan font-family="'WhitmanDisplay-Regular'" font-size="30" x="0" y="0">THINK. </tspan><tspan font-family="'WhitmanDisplay-Black'" font-size="30" x="99.4" y="0">TALK.</tspan><tspan font-family="'WhitmanDisplay-Regular'" font-size="30" x="184" y="0"> REALIZE.</tspan></text><path d="m41 425.2h329.2v38.6h-329.2z" fill="none"/><text font-family="'WhitmanDisplay-Regular'" font-size="16" transform="translate(41 436.507)">Sanctus last all no sit.</text><path d="m41 519.4h163.7v97.2h-163.7z" fill="none"/><text transform="translate(41 530.6387)"><tspan font-family="'WhitmanDisplay-Regular'" font-size="16" x="0" y="0">Lorem ipsum dolor sit </tspan><tspan font-family="'WhitmanDisplay-Regular'" font-size="16" x="0" y="17">amet, consetetur sadipsc</tspan><tspan font-family="'WhitmanDisplay-Regular'" font-size="16" x="147.3" y="17">-</tspan><tspan font-family="'WhitmanDisplay-Regular'" font-size="16" x="0" y="34">ing elitr, sed diam nonumy </tspan><tspan font-family="'WhitmanDisplay-Regular'" font-size="16" x="0" y="51">eirmod tempor invidunt ut </tspan><tspan font-family="'WhitmanDisplay-Regular'" font-size="16" x="0" y="68">ero eos et accusam et justo.</tspan></text><path d="m221 519.4h164.4v98h-164.4z" fill="none"/><text transform="translate(221.0375 530.6387)"><tspan font-family="'WhitmanDisplay-Regular'" font-size="16" x="0" y="0">Stet clita kasd gubergren, </tspan><tspan font-family="'WhitmanDisplay-Regular'" font-size="16" x="0" y="17">no sea takimata sanctus est </tspan><tspan font-family="'WhitmanDisplay-Regular'" font-size="16" x="0" y="34">Lorem ipsum dolor sit </tspan><tspan font-family="'WhitmanDisplay-Regular'" font-size="16" x="0" y="51">amet. Lorem ips</tspan></text><path d="m395.2 90.7v3.6h-.4l-.1-1.4-3 1.1v3.7l3 1.1.2-1.3h.4v2.8h-.4l-.2-.9-9.8-3.7v-.4l9.9-3.8.1-.9h.3zm-4 3.5-4.5 1.7 4.5 1.7z"/><path d="m395.2 87.2v3.2h-.3l-.1-1h-10.1l-.2 1h-.3l-.3-2.2h10.9l.1-1z"/><path d="m395.2 83.5v3.2h-.3l-.1-1h-10.1l-.2 1h-.3l-.3-2.2h10.9l.1-1z"/><path d="m394.4 75.2c.5.4.9.9.9 1.9 0 .9-.6 1.6-1.8 1.6h-4.5v1.1h-.3l-.4-1-2-.8v-.4h2.2v-2h.5v2h4.4c.9 0 1.3-.4 1.3-1 0-.5-.3-.9-.6-1.1z"/><path d="m388.7 69.9 1 .4c-.1.2-.5 1-.5 1.1 0 .8 1.1 1.2 2.5 1.2h3.2l.1-1.5h.3v3.7h-.3l-.1-1h-5.6l-.2 1h-.3l-.3-2.1h1.7c-1.2-.4-1.8-1.1-1.8-2-.1-.2.1-.6.3-.8z"/><path d="m388.8 62.6.2.8 6.3 2.5 4 1.4v1.1l-4.1-2-6.2 2.5-.2.8h-.3v-3.1h.3l.1 1.1 4.9-1.8-4.8-1.9-.2 1.1h-.3v-2.4h.3z"/><path d="m395.2 59v3.2h-.3l-.1-1h-5.7l-.2 1h-.3l-.4-2.2h6.5l.1-1zm-9.3 1c.4 0 .7.3.7.7s-.3.7-.7.7-.7-.3-.7-.7.3-.7.7-.7z"/><path d="m395.2 50.8v3.3h-.3l-.1-1.2h-5.3c-.4.2-.6.6-.6 1.2 0 1.3 1.3 2 2.9 2h3.1l.1-1.2h.3v3.3h-.3l-.1-1h-5.6l-.2 1h-.3l-.3-2.1h1.7c-1.1-.4-1.8-1.2-1.8-2.4s.9-2 2.1-2h4.4l.1-1h.2z"/><path d="m389.2 43.8-.2 1.8c.4-.6 1.1-.8 1.8-.8 1.6 0 2.4 1.3 2.5 2.7.1 1 .5 1.5 1 1.5.2 0 .3-.1.4-.2l.3-3c.1-.8.6-1.8 1.7-1.8 1.7 0 2.8 1.5 2.8 3.7 0 1.4-.8 2.8-2.2 2.8-.9 0-1.4-.6-1.8-1.3-.2.3-.6.5-1 .5-.5 0-1.1-.4-1.4-1.4-.4 1-1.2 1.7-2.4 1.7-1.5 0-2.5-1.2-2.5-2.7 0-.6.2-1.1.4-1.5l-.4-2.1h1zm8 1c-.7 0-1.1.4-1.2 1.1l-.3 2.9c.3.4.8.7 1.4.7 1 0 2-.8 2-2.4 0-.8-.6-2.3-1.9-2.3zm-6.4 1.1c-1.2 0-2.1.6-2.1 1.5s.9 1.5 2.1 1.5 2.1-.6 2.1-1.5c.1-.9-.8-1.5-2.1-1.5z"/><path d="m394.5 41.5c.5 0 .8.4.8.8s-.4.8-.8.8-.8-.4-.8-.8.4-.8.8-.8z"/></svg>