<?xml version="1.0" encoding="utf-8"?>
<!-- Generator: Adobe Illustrator 24.1.0, SVG Export Plug-In . SVG Version: 6.00 Build 0)  -->
<svg version="1.1" id="Layer_1" xmlns="http://www.w3.org/2000/svg" xmlns:xlink="http://www.w3.org/1999/xlink" x="0px" y="0px"
	 viewBox="0 0 437 643" style="enable-background:new 0 0 437 643;" xml:space="preserve">
<style type="text/css">
	.st0{fill:#FFFFFF;}
	.st1{fill:#EAEAB5;}
	.st2{fill:#EB5E5E;}
</style>
<rect class="st0" width="437" height="643"/>
<rect y="133.9" class="st1" width="437" height="219.4"/>
<g>
	<path class="st2" d="M94.7,118.7l-0.6,4.3H82l-2.5,19.8h12.1l-0.6,4.3H78.9l-3,24.4h-4.4l3-24.4H57.3l-3,24.4h-4.4l3-24.4H40.7
		l0.6-4.3h12.1L56,123H43.8l0.6-4.3h12.1l3.1-24.5h4.4L61,118.7h17.2l3.1-24.5h4.4l-3.1,24.5H94.7z M77.6,123H60.4l-2.5,19.8H75
		L77.6,123z"/>
</g>
<g>
	<path class="st2" d="M202.1,129c0,24.8-17.2,46-49.2,46c-32.4,0-49.2-28.2-49.2-60.2c0-51.4,34-76.8,85-76.8v11.8
		c-36.8,0-49.4,20.4-53,46c6.4-5.8,14.4-9.6,26.4-9.6C186.7,86.2,202.1,103.8,202.1,129z M171.3,132.2c0-22.8-8-33-19-33
		c-7.8,0-13,4.2-17,9.8c-0.4,2.2-0.6,6.6-0.6,8.8c0,23.2,5.2,47.8,20.8,47.8C165.3,165.6,171.3,154.4,171.3,132.2z"/>
</g>
<g>
	<path d="M49.3,408.4h-7v-0.7l2.3-0.2V390l-2.3-0.2v-0.7h7v0.7L47,390v17.5l2.3,0.2V408.4z"/>
	<path d="M65.1,408.4H51.9v-0.7l2.3-0.2V390l-2.3-0.2v-0.7h7.3v0.7l-2.6,0.2v17.4h7.1l0.4-3.5h0.9V408.4z"/>
	<path d="M80.2,408.4H67.1v-0.7l2.3-0.2V390l-2.3-0.2v-0.7h7.3v0.7l-2.6,0.2v17.4h7.1l0.4-3.5h0.9V408.4z"/>
	<path d="M99.8,389.7l-2.3,0.4v11.2c0,4.3-2.2,7.4-7,7.4c-4.6,0-7.1-2.8-7.1-7.4V390l-2.3-0.2v-0.7h7v0.7l-2.3,0.2v11.1
		c0,3.9,1.3,6.5,5.2,6.5c3.8,0,5.5-2.5,5.5-6.4v-11l-2.3-0.4v-0.7h5.8V389.7z"/>
	<path d="M113.3,403.2c0,3.3-2.8,5.6-5.9,5.6c-2,0-3.4-0.4-4.5-1l-0.3,1h-0.8l-0.2-6l0.7-0.1l0.7,3.1c0.9,1.3,2.5,2,4.1,2
		c2.3,0,4.2-1.4,4.2-4c0-2-1.3-3-4.5-4.6c-3.5-1.7-4.9-3.1-4.9-5.8c0-3,2.5-4.9,5.5-4.9c1.6,0,2.9,0.3,3.9,0.9l0.3-0.9h0.8l-0.1,5.3
		h-0.7l-0.5-2.9c-0.8-1.2-2.2-1.6-3.7-1.6c-1.9,0-3.6,1.3-3.6,3.4c0,2,0.8,2.7,4.5,4.5C111.4,398.9,113.3,400.3,113.3,403.2z"/>
	<path d="M123,408.4h-7v-0.7l2.3-0.2V390l-2.3-0.2v-0.7h7v0.7l-2.3,0.2v17.5l2.3,0.2V408.4z"/>
	<path d="M144.6,398.6c0,6.1-4.1,10.2-9.6,10.2s-9.4-3.8-9.4-9.9s4.1-10.2,9.6-10.2C140.6,388.6,144.6,392.5,144.6,398.6z
		 M141.9,398.9c0-5.7-3.1-9.3-7-9.3c-3.8,0-6.8,3.3-6.8,9c0,5.7,3.1,9.3,7,9.3C138.9,407.8,141.9,404.6,141.9,398.9z"/>
	<path d="M165.8,389.7l-2.3,0.4v18.4H163l-12.8-16v14.7l2.3,0.4v0.7h-5.8v-0.7l2.3-0.4v-16.1l-0.9-1.1l-1.4-0.3v-0.7h3.7l12,14.9
		v-13.9l-2.3-0.4v-0.7h5.8V389.7z"/>
	<path d="M170.4,407.1c0,0.9-0.7,1.6-1.6,1.6s-1.6-0.7-1.6-1.6c0-0.9,0.7-1.6,1.6-1.6S170.4,406.3,170.4,407.1z"/>
	<path d="M188.6,408.4h-9.5v-1.3l2.3-0.4v-16.1l-2.3-0.4v-1.3h9.5v1.3l-2.3,0.4v16.1l2.3,0.4V408.4z"/>
	<path d="M207.9,394.7h-1.7l-0.5-3.9h-4.3v16l2.5,0.4v1.3H194v-1.3l2.5-0.4v-16h-4.3l-0.5,3.9H190v-5.6h17.8V394.7z"/>
	<path d="M226.3,408.4h-8.9v-1.3l2.3-0.4l-1.4-4h-6.3l-1.4,4l2.2,0.4v1.3h-5.9v-1.3l1.5-0.4l6.8-17.8h2.9l6.8,17.8l1.6,0.4V408.4z
		 M217.5,401l-2.5-7.1l-2.5,7.1H217.5z"/>
	<path d="M243,408.4h-15.7v-1.3l2.3-0.4v-16.1l-2.3-0.4v-1.3h9.8v1.3l-2.6,0.4v15.9h6.2l0.5-3.9h1.8V408.4z"/>
	<path d="M254.1,408.4h-9.5v-1.3l2.3-0.4v-16.1l-2.3-0.4v-1.3h9.5v1.3l-2.3,0.4v16.1l2.3,0.4V408.4z"/>
	<path d="M272.9,405.6c-1.8,2.2-4.2,3.2-7.4,3.2c-5.6,0-9.6-3.9-9.6-10s4-10.2,10-10.2c2,0,3.7,0.3,5,0.9l0.4-0.9h1.6l-0.3,6.1H271
		l-0.6-2.7c-0.9-1.1-2.2-1.8-4.1-1.8c-3.6,0-5.2,3.7-5.2,8.4c0,4.2,1.9,8.1,5.6,8.1c2,0,3.8-0.8,5.2-2.4L272.9,405.6z"/>
	<path d="M280.2,406.3c0,1.3-1,2.3-2.3,2.3s-2.3-1-2.3-2.3c0-1.3,1-2.3,2.3-2.3S280.2,405.1,280.2,406.3z"/>
	<path d="M302.2,408.4h-13.1v-0.7l2.3-0.2V390l-2.3-0.2v-0.7h7.3v0.7l-2.6,0.2v17.4h7.1l0.5-3.5h0.9V408.4z"/>
	<path d="M322.9,398.6c0,6.1-4.1,10.2-9.6,10.2s-9.4-3.8-9.4-9.9s4.1-10.2,9.6-10.2C319,388.6,322.9,392.5,322.9,398.6z
		 M320.3,398.9c0-5.7-3.1-9.3-7-9.3c-3.8,0-6.8,3.3-6.8,9c0,5.7,3.1,9.3,7,9.3C317.2,407.8,320.3,404.6,320.3,398.9z"/>
	<path d="M349.5,389.7l-1.6,0.3l-6.4,18.7h-0.4l-4.6-13.4l-4.6,13.4h-0.4L325,390l-1.6-0.3v-0.7h6.8v0.7l-2.6,0.2l4.7,14.2l3.6-10.6
		l-1.3-3.6l-1.7-0.2v-0.7h6.9v0.7l-2.6,0.2v0.2l4.7,14l4.8-14.2l-2.5-0.2v-0.7h5.3V389.7z"/>
	<path d="M351.7,407.1c0,0.9-0.7,1.6-1.6,1.6s-1.6-0.7-1.6-1.6c0-0.9,0.7-1.6,1.6-1.6S351.7,406.3,351.7,407.1z"/>
</g>
<g>
	<path d="M51.9,436.5h-3.7v-0.4l1.2-0.1v-4.6h-5.2v4.6l1.2,0.1v0.4h-3.7v-0.4l1.2-0.1v-9.3l-1.2-0.1v-0.4h3.7v0.4l-1.2,0.1v4.2h5.2
		v-4.2l-1.2-0.1v-0.4h3.7v0.4l-1.2,0.1v9.3l1.2,0.1V436.5z"/>
	<path d="M55.8,436.5h-3.2v-0.3l1-0.1v-5.7l-1-0.2V430l2.2-0.4v6.5l1,0.1V436.5z M54.8,427.2c0,0.4-0.3,0.7-0.7,0.7
		c-0.4,0-0.7-0.3-0.7-0.7s0.3-0.7,0.7-0.7C54.5,426.5,54.8,426.8,54.8,427.2z"/>
	<path d="M62.9,430.5l-1.8-0.2l0,0c0.6,0.4,0.8,1.1,0.8,1.8c0,1.6-1.3,2.4-2.7,2.5c-1,0.1-1.5,0.5-1.5,1c0,0.2,0.1,0.3,0.2,0.4
		l3,0.3c0.8,0.1,1.8,0.6,1.8,1.7c0,1.7-1.5,2.8-3.7,2.8c-1.4,0-2.8-0.8-2.8-2.2c0-0.9,0.6-1.4,1.3-1.8c-0.3-0.2-0.5-0.6-0.5-1
		c0-0.5,0.4-1.1,1.4-1.4v0c-1-0.4-1.7-1.2-1.7-2.4c0-1.5,1.2-2.5,2.7-2.5c0.6,0,1.1,0.2,1.5,0.4l2.1-0.4V430.5z M61.8,438.5
		c0-0.7-0.4-1.1-1.1-1.2l-2.9-0.3c-0.4,0.3-0.7,0.8-0.7,1.4c0,1,0.8,2,2.4,2C60.4,440.4,61.8,439.8,61.8,438.5z M60.7,432.1
		c0-1.2-0.6-2.1-1.5-2.1c-0.9,0-1.5,0.9-1.5,2.1c0,1.2,0.6,2.1,1.5,2.1C60.1,434.3,60.7,433.4,60.7,432.1z"/>
	<path d="M70.7,436.5h-3.3v-0.3l1.2-0.1v-5.3c-0.2-0.4-0.6-0.6-1.2-0.6c-1.3,0-2,1.3-2,2.9v3.1l1.2,0.1v0.3h-3.3v-0.3l1-0.1V426
		l-1-0.2v-0.3l2.2-0.3v6c0.4-1,1.2-1.7,2.3-1.7c1.2,0,2,0.9,2,2.1v4.4l1,0.1V436.5z"/>
	<path d="M75.6,435.7c-0.4,0.5-0.9,0.9-1.9,0.9c-0.9,0-1.6-0.6-1.6-1.8v-4.5H71v-0.3l1-0.4l0.8-2h0.4v2.2h2v0.5h-2v4.4
		c0,0.9,0.4,1.3,1,1.3c0.5,0,0.9-0.3,1.1-0.6L75.6,435.7z"/>
	<path d="M80.6,434.7c0,1-0.8,2-2.3,2c-0.7,0-1.2-0.1-1.6-0.4l-0.2,0.4h-0.3l-0.1-2.1l0.3,0c0.2,1.1,0.8,1.8,1.8,1.8
		c0.8,0,1.3-0.5,1.3-1.3c0-0.8-0.7-1.2-1.5-1.5c-0.9-0.4-1.8-0.8-1.8-2c0-1.1,0.9-1.9,2-1.9c0.6,0,1,0.1,1.5,0.4l0.2-0.4h0.3l0,1.8
		h-0.3c-0.2-0.9-0.7-1.5-1.6-1.5c-0.8,0-1.2,0.6-1.2,1.1c0,0.8,0.7,1.2,1.5,1.5C79.7,433,80.6,433.5,80.6,434.7z"/>
	<path d="M83.4,435.8c0,0.5-0.4,0.8-0.8,0.8s-0.8-0.4-0.8-0.8s0.4-0.8,0.8-0.8S83.4,435.4,83.4,435.8z"/>
</g>
<g>
	<path d="M45.2,513h-3.5v-0.3l1.2-0.1v-8.8l-1.2-0.1v-0.3h3.5v0.3l-1.2,0.1v8.8l1.2,0.1V513z"/>
	<path d="M52.9,513h-3.1v-0.3l1.1-0.1v-5c-0.1-0.4-0.6-0.6-1.1-0.6c-1.2,0-1.9,1.2-1.9,2.7v2.9l1.1,0.1v0.3h-3.1v-0.3l1-0.1v-5.3
		l-1-0.2v-0.3l2-0.3v1.6h0c0.4-1.1,1.2-1.7,2.2-1.7c1.2,0,1.9,0.8,1.9,2v4.1l1,0.1V513z"/>
	<path d="M60.5,512.2c-0.3,0.5-0.9,0.9-1.8,0.9c-0.8,0-1.5-0.5-1.5-1.7v-4.2h-1v-0.3l1-0.4l0.8-1.9h0.3v2.1h1.8v0.4h-1.8v4.1
		c0,0.9,0.4,1.2,1,1.2c0.5,0,0.8-0.3,1-0.5L60.5,512.2z"/>
	<path d="M66.9,507l-0.7,0.2l-2.4,5.9l-1.3,3.8h-1l1.9-3.9l-2.3-5.8l-0.7-0.2v-0.3h2.9v0.3l-1,0.1l1.7,4.6l1.7-4.5l-1-0.2v-0.3h2.3
		V507z"/>
	<path d="M73.7,509.6c0,2.1-1.4,3.5-3.1,3.5c-0.7,0-1.1-0.2-1.5-0.4v3.7l1.4,0.1v0.3h-3.4v-0.3l1-0.1v-9.1l-1-0.2v-0.3l2-0.3v1h0
		c0.4-0.6,1.1-1.1,2-1.1C72.5,506.5,73.7,507.6,73.7,509.6z M72.6,509.7c0-1.6-0.6-2.7-1.8-2.7c-0.8,0-1.4,0.5-1.6,1.1v4
		c0.3,0.3,0.9,0.6,1.4,0.6C72,512.7,72.6,511.2,72.6,509.7z"/>
	<path d="M80.6,509.8c0,2-1.4,3.3-3.1,3.3c-1.7,0-3.1-1.4-3.1-3.3c0-2,1.4-3.3,3.1-3.3C79.3,506.5,80.6,507.8,80.6,509.8z
		 M79.4,509.8c0-1.8-0.7-3-1.9-3s-1.9,1.1-1.9,3s0.7,3,1.9,3S79.4,511.7,79.4,509.8z"/>
	<path d="M87.4,507.3l-1.7-0.1l0,0c0.5,0.4,0.8,1,0.8,1.7c0,1.5-1.3,2.3-2.5,2.4c-1,0.1-1.4,0.4-1.4,0.9c0,0.2,0.1,0.3,0.2,0.4
		l2.8,0.3c0.8,0.1,1.7,0.6,1.7,1.6c0,1.6-1.4,2.6-3.5,2.6c-1.3,0-2.7-0.7-2.7-2c0-0.8,0.5-1.3,1.2-1.7c-0.3-0.2-0.5-0.5-0.5-0.9
		c0-0.5,0.4-1,1.3-1.3v0c-0.9-0.3-1.6-1.1-1.6-2.2c0-1.4,1.2-2.4,2.5-2.4c0.5,0,1,0.2,1.4,0.4l2-0.4V507.3z M86.4,514.8
		c0-0.6-0.4-1-1.1-1.1l-2.8-0.3c-0.4,0.2-0.6,0.8-0.6,1.3c0,0.9,0.7,1.9,2.3,1.9C85.1,516.6,86.4,516,86.4,514.8z M85.4,508.9
		c0-1.2-0.6-2-1.4-2s-1.4,0.8-1.4,2s0.6,2,1.4,2S85.4,510,85.4,508.9z"/>
	<path d="M92.5,506.9l-0.4,0.9c-0.2-0.1-0.9-0.5-1.1-0.5c-0.7,0-1.2,1-1.2,2.4v3l1.4,0.1v0.3h-3.4v-0.3l1-0.1v-5.3l-1-0.2v-0.3
		l2-0.3v1.6h0c0.3-1.2,1.1-1.7,1.8-1.7C91.9,506.5,92.3,506.7,92.5,506.9z"/>
	<path d="M98.8,512.4c-0.2,0.3-0.7,0.7-1.3,0.7s-1-0.4-1.1-0.9c-0.4,0.5-1.2,0.9-1.8,0.9c-1,0-1.8-0.7-1.8-1.7c0-1.1,0.9-1.7,2-1.9
		l1.5-0.3v-1.1c0-0.8-0.3-1.2-1.2-1.2c-0.7,0-1.3,0.5-1.7,1.1l-0.3-0.3c0.5-0.8,1.3-1.4,2.2-1.4c1.4,0,2,0.6,2,1.7v3.4
		c0,0.8,0.3,1,0.6,1c0.2,0,0.5-0.1,0.6-0.3L98.8,512.4z M96.3,511.9v-2.2l-1,0.2c-0.8,0.1-1.4,0.6-1.4,1.4c0,0.7,0.5,1.2,1.1,1.2
		C95.5,512.5,96,512.3,96.3,511.9z"/>
	<path d="M105.4,509.6c0,2.1-1.4,3.5-3.1,3.5c-0.7,0-1.1-0.2-1.5-0.4v3.7l1.4,0.1v0.3h-3.4v-0.3l1-0.1v-9.1l-1-0.2v-0.3l2-0.3v1h0
		c0.4-0.6,1.1-1.1,2-1.1C104.1,506.5,105.4,507.6,105.4,509.6z M104.3,509.7c0-1.6-0.6-2.7-1.8-2.7c-0.8,0-1.4,0.5-1.6,1.1v4
		c0.3,0.3,0.9,0.6,1.4,0.6C103.6,512.7,104.3,511.2,104.3,509.7z"/>
	<path d="M113.1,513h-3.1v-0.3l1.1-0.1v-5c-0.2-0.4-0.6-0.6-1.1-0.6c-1.2,0-1.9,1.2-1.9,2.7v2.9l1.1,0.1v0.3H106v-0.3l1-0.1v-9.4
		l-1-0.2v-0.3l2.1-0.3v5.7c0.4-1,1.1-1.6,2.2-1.6c1.2,0,1.9,0.8,1.9,2v4.1l1,0.1V513z"/>
	<path d="M119.4,507l-0.7,0.2l-2.4,5.9l-1.3,3.8h-1l1.9-3.9l-2.3-5.8l-0.7-0.2v-0.3h2.9v0.3l-1,0.1l1.7,4.6l1.7-4.5l-1-0.2v-0.3h2.3
		V507z"/>
	<path d="M120.8,512.8c0,1.1-0.7,1.8-1.6,2.1l-0.2-0.4c0.7-0.2,1.2-0.7,1.2-1.5l-1.2-0.5c-0.1-0.1-0.1-0.3-0.1-0.4
		c0-0.4,0.3-0.7,0.8-0.7C120.3,511.5,120.8,512.1,120.8,512.8z"/>
	<path d="M127.9,513h-3v-0.3l1-0.1v-5.3l-1-0.2v-0.3l2.1-0.3v6.1l1,0.1V513z M127,504.2c0,0.4-0.3,0.7-0.7,0.7s-0.7-0.3-0.7-0.7
		s0.3-0.7,0.7-0.7S127,503.9,127,504.2z"/>
	<path d="M132.6,512.2c-0.3,0.5-0.9,0.9-1.8,0.9c-0.8,0-1.5-0.5-1.5-1.7v-4.2h-1v-0.3l1-0.4l0.8-1.9h0.3v2.1h1.8v0.4h-1.8v4.1
		c0,0.9,0.4,1.2,1,1.2c0.5,0,0.8-0.3,1-0.5L132.6,512.2z"/>
	<path d="M139,512.4c-0.2,0.3-0.7,0.7-1.3,0.7s-1-0.4-1.1-0.9c-0.4,0.5-1.2,0.9-1.8,0.9c-1,0-1.8-0.7-1.8-1.7c0-1.1,0.9-1.7,2-1.9
		l1.5-0.3v-1.1c0-0.8-0.3-1.2-1.2-1.2c-0.7,0-1.3,0.5-1.7,1.1l-0.3-0.3c0.5-0.8,1.3-1.4,2.2-1.4c1.4,0,2,0.6,2,1.7v3.4
		c0,0.8,0.3,1,0.6,1c0.2,0,0.5-0.1,0.6-0.3L139,512.4z M136.5,511.9v-2.2l-1,0.2c-0.8,0.1-1.4,0.6-1.4,1.4c0,0.7,0.5,1.2,1.1,1.2
		C135.7,512.5,136.2,512.3,136.5,511.9z"/>
	<path d="M142.1,513h-3v-0.3l1-0.1v-9.5l-1-0.2v-0.3l2.1-0.3v10.2l1,0.1V513z"/>
	<path d="M145.7,513h-3v-0.3l1-0.1v-5.3l-1-0.2v-0.3l2.1-0.3v6.1l1,0.1V513z M144.8,504.2c0,0.4-0.3,0.7-0.7,0.7s-0.7-0.3-0.7-0.7
		s0.3-0.7,0.7-0.7S144.8,503.9,144.8,504.2z"/>
	<path d="M151.8,512c-0.3,0.5-1,1.2-2.4,1.2c-1.7,0-3.1-1.4-3.1-3.4c0-2,1.5-3.3,3.1-3.3c0.7,0,1.2,0.1,1.8,0.4l0.2-0.4h0.3
		l-0.1,1.8h-0.3c-0.2-0.9-0.8-1.5-1.8-1.5c-1.2,0-2,1.1-2,2.8c0,1.7,0.9,2.9,2.1,2.9c1,0,1.5-0.4,1.9-0.9L151.8,512z"/>
	<path d="M159.6,512.2c-0.3,0.5-0.9,0.9-1.8,0.9c-0.8,0-1.5-0.5-1.5-1.7v-4.2h-1v-0.3l1-0.4l0.8-1.9h0.3v2.1h1.8v0.4h-1.8v4.1
		c0,0.9,0.4,1.2,1,1.2c0.5,0,0.8-0.3,1-0.5L159.6,512.2z"/>
	<path d="M166,507l-0.7,0.2l-2.4,5.9l-1.3,3.8h-1l1.9-3.9l-2.3-5.8l-0.7-0.2v-0.3h2.9v0.3l-1,0.1l1.7,4.6l1.7-4.5l-1-0.2v-0.3h2.3
		V507z"/>
	<path d="M172.8,509.6c0,2.1-1.4,3.5-3.1,3.5c-0.7,0-1.1-0.2-1.5-0.4v3.7l1.4,0.1v0.3h-3.4v-0.3l1-0.1v-9.1l-1-0.2v-0.3l2-0.3v1h0
		c0.4-0.6,1.1-1.1,2-1.1C171.6,506.5,172.8,507.6,172.8,509.6z M171.7,509.7c0-1.6-0.6-2.7-1.8-2.7c-0.8,0-1.4,0.5-1.6,1.1v4
		c0.3,0.3,0.9,0.6,1.4,0.6C171.1,512.7,171.7,511.2,171.7,509.7z"/>
	<path d="M179.1,509.3h-4.3c0,0.1,0,0.3,0,0.4c0,1.8,0.9,2.9,2.1,2.9c1,0,1.5-0.4,1.9-0.9l0.3,0.3c-0.3,0.5-1,1.2-2.4,1.2
		c-1.8,0-3.1-1.4-3.1-3.3c0-2,1.5-3.3,3-3.3s2.5,1,2.5,2.5V509.3z M177.9,508.9c0-1-0.3-2.1-1.4-2.1c-0.9,0-1.5,0.9-1.7,2.1H177.9z"
		/>
	<path d="M185.9,513h-3v-0.3l1-0.1v-5.3l-1-0.2v-0.3l2.1-0.3v6.1l1,0.1V513z M185,504.2c0,0.4-0.3,0.7-0.7,0.7s-0.7-0.3-0.7-0.7
		s0.3-0.7,0.7-0.7S185,503.9,185,504.2z"/>
	<path d="M190.9,511.2c0,1-0.8,1.9-2.1,1.9c-0.6,0-1.1-0.1-1.5-0.4l-0.1,0.4h-0.3l-0.1-2l0.3,0c0.2,1.1,0.8,1.7,1.7,1.7
		c0.7,0,1.2-0.5,1.2-1.2c0-0.8-0.7-1.1-1.4-1.4c-0.8-0.3-1.7-0.8-1.7-1.9c0-1,0.8-1.8,1.9-1.8c0.6,0,1,0.1,1.4,0.4l0.2-0.3h0.3
		l0,1.7h-0.3c-0.1-0.9-0.6-1.4-1.5-1.4c-0.7,0-1.1,0.5-1.1,1c0,0.8,0.7,1.1,1.4,1.4C190,509.7,190.9,510.1,190.9,511.2z"/>
	<path d="M200.7,512.4c-0.2,0.3-0.7,0.7-1.3,0.7s-1-0.4-1.1-0.9c-0.4,0.5-1.2,0.9-1.8,0.9c-1,0-1.8-0.7-1.8-1.7c0-1.1,0.9-1.7,2-1.9
		l1.5-0.3v-1.1c0-0.8-0.3-1.2-1.2-1.2c-0.7,0-1.3,0.5-1.7,1.1l-0.3-0.3c0.5-0.8,1.3-1.4,2.2-1.4c1.4,0,2,0.6,2,1.7v3.4
		c0,0.8,0.3,1,0.6,1c0.2,0,0.5-0.1,0.6-0.3L200.7,512.4z M198.3,511.9v-2.2l-1,0.2c-0.8,0.1-1.4,0.6-1.4,1.4c0,0.7,0.5,1.2,1.1,1.2
		C197.4,512.5,197.9,512.3,198.3,511.9z"/>
	<path d="M46.8,529c-0.3,0.5-1,1.2-2.4,1.2c-1.7,0-3.1-1.4-3.1-3.4c0-2,1.5-3.3,3.1-3.3c0.7,0,1.2,0.1,1.8,0.4l0.2-0.4h0.3l-0.1,1.8
		h-0.3c-0.2-0.9-0.8-1.5-1.8-1.5c-1.2,0-2,1.1-2,2.8c0,1.7,0.9,2.9,2.1,2.9c1,0,1.5-0.4,1.9-0.9L46.8,529z"/>
	<path d="M54.3,529.8l-2,0.3v-1.7h0c-0.4,1.1-1.2,1.7-2.2,1.7c-1.2,0-1.9-0.8-1.9-2v-4l-1-0.2v-0.3h2.1v5.3c0.1,0.4,0.5,0.6,1.1,0.6
		c1.2,0,1.9-1.2,1.9-2.7v-2.7l-1.1-0.2v-0.3h2.2v5.7l1,0.2V529.8z"/>
	<path d="M59.5,523.9l-0.4,0.9c-0.2-0.1-0.9-0.5-1.1-0.5c-0.7,0-1.2,1-1.2,2.4v3l1.4,0.1v0.3h-3.4v-0.3l1-0.1v-5.3l-1-0.2v-0.3
		l2-0.3v1.6h0c0.3-1.2,1.1-1.7,1.8-1.7C58.9,523.5,59.3,523.7,59.5,523.9z"/>
	<path d="M64.2,528.2c0,1-0.8,1.9-2.1,1.9c-0.6,0-1.1-0.1-1.5-0.4l-0.1,0.4h-0.3l-0.1-2l0.3,0c0.2,1.1,0.8,1.7,1.7,1.7
		c0.7,0,1.2-0.5,1.2-1.2c0-0.8-0.7-1.1-1.4-1.4c-0.8-0.3-1.7-0.8-1.7-1.9c0-1,0.8-1.8,1.9-1.8c0.6,0,1,0.1,1.4,0.4l0.2-0.3h0.3
		l0,1.7h-0.3c-0.1-0.9-0.6-1.4-1.5-1.4c-0.7,0-1.1,0.5-1.1,1c0,0.8,0.7,1.1,1.4,1.4C63.4,526.7,64.2,527.1,64.2,528.2z"/>
	<path d="M68.1,530h-3v-0.3l1-0.1v-5.3l-1-0.2v-0.3l2.1-0.3v6.1l1,0.1V530z M67.2,521.2c0,0.4-0.3,0.7-0.7,0.7s-0.7-0.3-0.7-0.7
		s0.3-0.7,0.7-0.7S67.2,520.9,67.2,521.2z"/>
	<path d="M74.7,524l-0.7,0.2l-2.5,6h-0.1l-2.5-6.1l-0.7-0.2v-0.3h2.9v0.3l-1,0.1l1.7,4.4l1.7-4.3l-1-0.2v-0.3h2.3V524z"/>
	<path d="M80.3,526.3H76c0,0.1,0,0.3,0,0.4c0,1.8,0.9,2.9,2.1,2.9c1,0,1.5-0.4,1.9-0.9l0.3,0.3c-0.3,0.5-1,1.2-2.4,1.2
		c-1.8,0-3.1-1.4-3.1-3.3c0-2,1.5-3.3,3-3.3s2.5,1,2.5,2.5V526.3z M79.2,525.9c0-1-0.3-2.1-1.4-2.1c-0.9,0-1.5,0.9-1.7,2.1H79.2z"/>
	<path d="M88.8,519.5l-0.4,0.9c-0.6-0.4-1.1-0.7-1.4-0.7c-0.5,0-0.8,0.4-0.8,1.6v2.4h1.8v0.4h-1.8v5.4l1.4,0.1v0.3h-3.5v-0.3l1-0.1
		v-5.4h-1v-0.3l1-0.3v-1.2c0-1.8,0.7-3.3,2.5-3.3C88.1,519.2,88.4,519.3,88.8,519.5z"/>
	<path d="M94.5,526.8c0,2-1.4,3.3-3.1,3.3c-1.7,0-3.1-1.4-3.1-3.3c0-2,1.4-3.3,3.1-3.3C93.1,523.5,94.5,524.8,94.5,526.8z
		 M93.3,526.8c0-1.8-0.7-3-1.9-3s-1.9,1.1-1.9,3s0.7,3,1.9,3S93.3,528.7,93.3,526.8z"/>
	<path d="M102.3,530h-3.1v-0.3l1.1-0.1v-5c-0.1-0.4-0.6-0.6-1.1-0.6c-1.2,0-1.9,1.2-1.9,2.7v2.9l1.1,0.1v0.3h-3.1v-0.3l1-0.1v-5.3
		l-1-0.2v-0.3l2-0.3v1.6h0c0.4-1.1,1.2-1.7,2.2-1.7c1.2,0,1.9,0.8,1.9,2v4.1l1,0.1V530z"/>
	<path d="M106.8,529.2c-0.3,0.5-0.9,0.9-1.8,0.9c-0.8,0-1.5-0.5-1.5-1.7v-4.2h-1v-0.3l1-0.4l0.8-1.9h0.3v2.1h1.8v0.4h-1.8v4.1
		c0,0.9,0.4,1.2,1,1.2c0.5,0,0.8-0.3,1-0.5L106.8,529.2z"/>
	<path d="M116.5,526.6c0,2.1-1.2,3.5-3.4,3.5c-0.9,0-1.7-0.2-2.2-0.5v-9.5l-1-0.2v-0.3l2.1-0.3v5.1c0.4-0.6,1.1-1,2-1
		C115.2,523.5,116.5,524.6,116.5,526.6z M115.4,526.7c0-1.6-0.6-2.7-1.8-2.7c-0.8,0-1.3,0.4-1.7,1.1v4.2c0.2,0.2,0.8,0.4,1.4,0.4
		C114.6,529.7,115.4,528.4,115.4,526.7z"/>
	<path d="M123.2,529.4c-0.2,0.3-0.7,0.7-1.3,0.7s-1-0.4-1.1-0.9c-0.4,0.5-1.2,0.9-1.8,0.9c-1,0-1.8-0.7-1.8-1.7c0-1.1,0.9-1.7,2-1.9
		l1.5-0.3v-1.1c0-0.8-0.3-1.2-1.2-1.2c-0.7,0-1.3,0.5-1.7,1.1l-0.3-0.3c0.5-0.8,1.3-1.4,2.2-1.4c1.4,0,2,0.6,2,1.7v3.4
		c0,0.8,0.3,1,0.6,1c0.2,0,0.5-0.1,0.6-0.3L123.2,529.4z M120.8,528.9v-2.2l-1,0.2c-0.8,0.1-1.4,0.6-1.4,1.4c0,0.7,0.5,1.2,1.1,1.2
		C119.9,529.5,120.4,529.3,120.8,528.9z"/>
	<path d="M127.7,528.2c0,1-0.8,1.9-2.1,1.9c-0.6,0-1.1-0.1-1.5-0.4l-0.1,0.4h-0.3l-0.1-2l0.3,0c0.2,1.1,0.8,1.7,1.7,1.7
		c0.7,0,1.2-0.5,1.2-1.2c0-0.8-0.7-1.1-1.4-1.4c-0.8-0.3-1.7-0.8-1.7-1.9c0-1,0.8-1.8,1.9-1.8c0.6,0,1,0.1,1.4,0.4l0.2-0.3h0.3
		l0,1.7h-0.3c-0.1-0.9-0.6-1.4-1.5-1.4c-0.7,0-1.1,0.5-1.1,1c0,0.8,0.7,1.1,1.4,1.4C126.9,526.7,127.7,527.1,127.7,528.2z"/>
	<path d="M134.1,526.3h-4.3c0,0.1,0,0.3,0,0.4c0,1.8,0.9,2.9,2.1,2.9c1,0,1.5-0.4,1.9-0.9l0.3,0.3c-0.3,0.5-1,1.2-2.4,1.2
		c-1.8,0-3.1-1.4-3.1-3.3c0-2,1.5-3.3,3-3.3s2.5,1,2.5,2.5V526.3z M133,525.9c0-1-0.3-2.1-1.4-2.1c-0.9,0-1.5,0.9-1.7,2.1H133z"/>
	<path d="M141.5,529.8l-2,0.3v-1l0,0c-0.4,0.6-0.9,1-1.9,1c-1.3,0-2.7-1.1-2.7-3.1c0-2.1,1.3-3.5,3-3.5c0.8,0,1.3,0.3,1.6,0.6v-4
		l-1-0.2v-0.3l2.1-0.3v10l1,0.2V529.8z M139.5,528.5v-3.7c-0.3-0.5-0.9-0.9-1.5-0.9c-1.4,0-1.9,1.5-1.9,3c0,1.6,0.7,2.7,1.9,2.7
		C138.9,529.6,139.3,529,139.5,528.5z"/>
	<path d="M151.2,526.8c0,2-1.4,3.3-3.1,3.3c-1.7,0-3.1-1.4-3.1-3.3c0-2,1.4-3.3,3.1-3.3C149.9,523.5,151.2,524.8,151.2,526.8z
		 M150,526.8c0-1.8-0.7-3-1.9-3s-1.9,1.1-1.9,3s0.7,3,1.9,3S150,528.7,150,526.8z"/>
	<path d="M159,530h-3.1v-0.3l1.1-0.1v-5c-0.1-0.4-0.6-0.6-1.1-0.6c-1.2,0-1.9,1.2-1.9,2.7v2.9l1.1,0.1v0.3H152v-0.3l1-0.1v-5.3
		l-1-0.2v-0.3l2-0.3v1.6h0c0.4-1.1,1.2-1.7,2.2-1.7c1.2,0,1.9,0.8,1.9,2v4.1l1,0.1V530z"/>
	<path d="M168.5,529.4c-0.2,0.3-0.7,0.7-1.3,0.7s-1-0.4-1.1-0.9c-0.4,0.5-1.2,0.9-1.8,0.9c-1,0-1.8-0.7-1.8-1.7c0-1.1,0.9-1.7,2-1.9
		l1.5-0.3v-1.1c0-0.8-0.3-1.2-1.2-1.2c-0.7,0-1.3,0.5-1.7,1.1l-0.3-0.3c0.5-0.8,1.3-1.4,2.2-1.4c1.4,0,2,0.6,2,1.7v3.4
		c0,0.8,0.3,1,0.6,1c0.2,0,0.5-0.1,0.6-0.3L168.5,529.4z M166.1,528.9v-2.2l-1,0.2c-0.8,0.1-1.4,0.6-1.4,1.4c0,0.7,0.5,1.2,1.1,1.2
		C165.2,529.5,165.8,529.3,166.1,528.9z"/>
	<path d="M45.7,545.2c0,1-0.8,1.9-2.1,1.9c-0.6,0-1.1-0.1-1.5-0.4l-0.1,0.4h-0.3l-0.1-2l0.3,0c0.2,1.1,0.8,1.7,1.7,1.7
		c0.7,0,1.2-0.5,1.2-1.2c0-0.8-0.7-1.1-1.4-1.4c-0.8-0.3-1.7-0.8-1.7-1.9c0-1,0.8-1.8,1.9-1.8c0.6,0,1,0.1,1.4,0.4l0.2-0.3h0.3
		l0,1.7h-0.3c-0.1-0.9-0.6-1.4-1.5-1.4c-0.7,0-1.1,0.5-1.1,1c0,0.8,0.7,1.1,1.4,1.4C44.8,543.7,45.7,544.1,45.7,545.2z"/>
	<path d="M50.6,546.2c-0.3,0.5-0.9,0.9-1.8,0.9c-0.8,0-1.5-0.5-1.5-1.7v-4.2h-1v-0.3l1-0.4l0.8-1.9h0.3v2.1h1.8v0.4h-1.8v4.1
		c0,0.9,0.4,1.2,1,1.2c0.5,0,0.8-0.3,1-0.5L50.6,546.2z"/>
	<path d="M57,541l-0.7,0.2l-2.4,5.9l-1.3,3.8h-1l1.9-3.9l-2.3-5.8l-0.7-0.2v-0.3h2.9v0.3l-1,0.1l1.7,4.6l1.7-4.5l-1-0.2v-0.3H57V541
		z"/>
	<path d="M60.2,547h-3v-0.3l1-0.1v-9.5l-1-0.2v-0.3l2.1-0.3v10.2l1,0.1V547z"/>
	<path d="M63.8,547h-3v-0.3l1-0.1v-5.3l-1-0.2v-0.3l2.1-0.3v6.1l1,0.1V547z M62.9,538.2c0,0.4-0.3,0.7-0.7,0.7s-0.7-0.3-0.7-0.7
		s0.3-0.7,0.7-0.7S62.9,537.9,62.9,538.2z"/>
	<path d="M68.8,545.2c0,1-0.8,1.9-2.1,1.9c-0.6,0-1.1-0.1-1.5-0.4l-0.1,0.4h-0.3l-0.1-2l0.3,0c0.2,1.1,0.8,1.7,1.7,1.7
		c0.7,0,1.2-0.5,1.2-1.2c0-0.8-0.7-1.1-1.4-1.4c-0.8-0.3-1.7-0.8-1.7-1.9c0-1,0.8-1.8,1.9-1.8c0.6,0,1,0.1,1.4,0.4l0.2-0.3h0.3
		l0,1.7h-0.3c-0.1-0.9-0.6-1.4-1.5-1.4c-0.7,0-1.1,0.5-1.1,1c0,0.8,0.7,1.1,1.4,1.4C67.9,543.7,68.8,544.1,68.8,545.2z"/>
	<path d="M75.2,543.3h-4.3c0,0.1,0,0.3,0,0.4c0,1.8,0.9,2.9,2.1,2.9c1,0,1.5-0.4,1.9-0.9l0.3,0.3c-0.3,0.5-1,1.2-2.4,1.2
		c-1.8,0-3.1-1.4-3.1-3.3c0-2,1.5-3.3,3-3.3s2.5,1,2.5,2.5V543.3z M74,542.9c0-1-0.3-2.1-1.4-2.1c-0.9,0-1.5,0.9-1.7,2.1H74z"/>
	<path d="M82.6,546.8l-2,0.3v-1l0,0c-0.4,0.6-0.9,1-1.9,1c-1.3,0-2.7-1.1-2.7-3.1c0-2.1,1.3-3.5,3-3.5c0.8,0,1.3,0.3,1.6,0.6v-4
		l-1-0.2v-0.3l2.1-0.3v10l1,0.2V546.8z M80.5,545.5v-3.7c-0.3-0.5-0.9-0.9-1.5-0.9c-1.4,0-1.9,1.5-1.9,3c0,1.6,0.7,2.7,1.9,2.7
		C79.9,546.6,80.3,546,80.5,545.5z"/>
	<path d="M90.8,536.5l-0.4,0.9c-0.6-0.4-1.1-0.7-1.4-0.7c-0.5,0-0.8,0.4-0.8,1.6v2.4h1.8v0.4h-1.8v5.4l1.4,0.1v0.3h-3.5v-0.3l1-0.1
		v-5.4h-1v-0.3l1-0.3v-1.2c0-1.8,0.7-3.3,2.5-3.3C90.1,536.2,90.4,536.3,90.8,536.5z"/>
	<path d="M96.5,543.8c0,2-1.4,3.3-3.1,3.3c-1.7,0-3.1-1.4-3.1-3.3c0-2,1.4-3.3,3.1-3.3C95.1,540.5,96.5,541.8,96.5,543.8z
		 M95.3,543.8c0-1.8-0.7-3-1.9-3s-1.9,1.1-1.9,3s0.7,3,1.9,3S95.3,545.7,95.3,543.8z"/>
	<path d="M101.8,540.9l-0.4,0.9c-0.2-0.1-0.9-0.5-1.1-0.5c-0.7,0-1.2,1-1.2,2.4v3l1.4,0.1v0.3h-3.4v-0.3l1-0.1v-5.3l-1-0.2v-0.3
		l2-0.3v1.6h0c0.3-1.2,1.1-1.7,1.8-1.7C101.3,540.5,101.6,540.7,101.8,540.9z"/>
	<path d="M113.1,547H110v-0.3l1.1-0.1v-5c-0.2-0.4-0.4-0.6-1-0.6c-1,0-1.8,1.1-1.8,2.7v2.9l1.1,0.1v0.3h-3.2v-0.3l1.1-0.1v-5
		c-0.2-0.4-0.4-0.6-1-0.6c-1,0-1.8,1.1-1.8,2.7v2.9l1.1,0.1v0.3h-3.1v-0.3l1-0.1v-5.3l-1-0.2v-0.3l2-0.3v1.6h0
		c0.3-0.9,1.1-1.7,2.1-1.7c1,0,1.6,0.6,1.8,1.7h0c0.3-1,1.1-1.7,2.1-1.7c1.1,0,1.8,0.8,1.8,2v4.1l1,0.1V547z"/>
	<path d="M122.8,543.8c0,2-1.4,3.3-3.1,3.3c-1.7,0-3.1-1.4-3.1-3.3c0-2,1.4-3.3,3.1-3.3C121.5,540.5,122.8,541.8,122.8,543.8z
		 M121.6,543.8c0-1.8-0.7-3-1.9-3s-1.9,1.1-1.9,3s0.7,3,1.9,3S121.6,545.7,121.6,543.8z"/>
	<path d="M128.3,536.5l-0.4,0.9c-0.6-0.4-1.1-0.7-1.4-0.7c-0.5,0-0.8,0.4-0.8,1.6v2.4h1.8v0.4h-1.8v5.4l1.4,0.1v0.3h-3.5v-0.3l1-0.1
		v-5.4h-1v-0.3l1-0.3v-1.2c0-1.8,0.7-3.3,2.5-3.3C127.6,536.2,127.9,536.3,128.3,536.5z"/>
	<path d="M136.2,546c-0.3,0.5-1,1.2-2.4,1.2c-1.7,0-3.1-1.4-3.1-3.4c0-2,1.5-3.3,3.1-3.3c0.7,0,1.2,0.1,1.8,0.4l0.2-0.4h0.3
		l-0.1,1.8h-0.3c-0.2-0.9-0.8-1.5-1.8-1.5c-1.2,0-2,1.1-2,2.8c0,1.7,0.9,2.9,2.1,2.9c1,0,1.5-0.4,1.9-0.9L136.2,546z"/>
	<path d="M142.9,546.4c-0.2,0.3-0.7,0.7-1.3,0.7s-1-0.4-1.1-0.9c-0.4,0.5-1.2,0.9-1.8,0.9c-1,0-1.8-0.7-1.8-1.7c0-1.1,0.9-1.7,2-1.9
		l1.5-0.3v-1.1c0-0.8-0.3-1.2-1.2-1.2c-0.7,0-1.3,0.5-1.7,1.1l-0.3-0.3c0.5-0.8,1.3-1.4,2.2-1.4c1.4,0,2,0.6,2,1.7v3.4
		c0,0.8,0.3,1,0.6,1c0.2,0,0.5-0.1,0.6-0.3L142.9,546.4z M140.4,545.9v-2.2l-1,0.2c-0.8,0.1-1.4,0.6-1.4,1.4c0,0.7,0.5,1.2,1.1,1.2
		C139.6,546.5,140.1,546.3,140.4,545.9z"/>
	<path d="M146,547h-3v-0.3l1-0.1v-9.5l-1-0.2v-0.3l2.1-0.3v10.2l1,0.1V547z"/>
	<path d="M149.5,547h-3v-0.3l1-0.1v-9.5l-1-0.2v-0.3l2.1-0.3v10.2l1,0.1V547z"/>
	<path d="M153.2,547h-3v-0.3l1-0.1v-5.3l-1-0.2v-0.3l2.1-0.3v6.1l1,0.1V547z M152.3,538.2c0,0.4-0.3,0.7-0.7,0.7s-0.7-0.3-0.7-0.7
		s0.3-0.7,0.7-0.7S152.3,537.9,152.3,538.2z"/>
	<path d="M159.8,541.3l-1.7-0.1l0,0c0.5,0.4,0.8,1,0.8,1.7c0,1.5-1.3,2.3-2.5,2.4c-1,0.1-1.4,0.4-1.4,0.9c0,0.2,0.1,0.3,0.2,0.4
		l2.8,0.3c0.8,0.1,1.7,0.6,1.7,1.6c0,1.6-1.4,2.6-3.5,2.6c-1.3,0-2.7-0.7-2.7-2c0-0.8,0.5-1.3,1.2-1.7c-0.3-0.2-0.5-0.5-0.5-0.9
		c0-0.5,0.4-1,1.3-1.3v0c-0.9-0.3-1.6-1.1-1.6-2.2c0-1.4,1.2-2.4,2.5-2.4c0.5,0,1,0.2,1.4,0.4l2-0.4V541.3z M158.8,548.8
		c0-0.6-0.4-1-1.1-1.1l-2.8-0.3c-0.4,0.2-0.6,0.8-0.6,1.3c0,0.9,0.7,1.9,2.3,1.9C157.5,550.6,158.8,550,158.8,548.8z M157.8,542.9
		c0-1.2-0.6-2-1.4-2s-1.4,0.8-1.4,2s0.6,2,1.4,2S157.8,544,157.8,542.9z"/>
	<path d="M164.9,540.9l-0.4,0.9c-0.2-0.1-0.9-0.5-1.1-0.5c-0.7,0-1.2,1-1.2,2.4v3l1.4,0.1v0.3h-3.4v-0.3l1-0.1v-5.3l-1-0.2v-0.3
		l2-0.3v1.6h0c0.3-1.2,1.1-1.7,1.8-1.7C164.3,540.5,164.7,540.7,164.9,540.9z"/>
	<path d="M171.2,546.4c-0.2,0.3-0.7,0.7-1.3,0.7s-1-0.4-1.1-0.9c-0.4,0.5-1.2,0.9-1.8,0.9c-1,0-1.8-0.7-1.8-1.7c0-1.1,0.9-1.7,2-1.9
		l1.5-0.3v-1.1c0-0.8-0.3-1.2-1.2-1.2c-0.7,0-1.3,0.5-1.7,1.1l-0.3-0.3c0.5-0.8,1.3-1.4,2.2-1.4c1.4,0,2,0.6,2,1.7v3.4
		c0,0.8,0.3,1,0.6,1c0.2,0,0.5-0.1,0.6-0.3L171.2,546.4z M168.7,545.9v-2.2l-1,0.2c-0.8,0.1-1.4,0.6-1.4,1.4c0,0.7,0.5,1.2,1.1,1.2
		C167.9,546.5,168.4,546.3,168.7,545.9z"/>
	<path d="M177.8,543.6c0,2.1-1.4,3.5-3.1,3.5c-0.7,0-1.1-0.2-1.5-0.4v3.7l1.4,0.1v0.3h-3.4v-0.3l1-0.1v-9.1l-1-0.2v-0.3l2-0.3v1h0
		c0.4-0.6,1.1-1.1,2-1.1C176.6,540.5,177.8,541.6,177.8,543.6z M176.7,543.7c0-1.6-0.6-2.7-1.8-2.7c-0.8,0-1.4,0.5-1.6,1.1v4
		c0.3,0.3,0.9,0.6,1.4,0.6C176.1,546.7,176.7,545.2,176.7,543.7z"/>
	<path d="M185.5,547h-3.1v-0.3l1.1-0.1v-5c-0.2-0.4-0.6-0.6-1.1-0.6c-1.2,0-1.9,1.2-1.9,2.7v2.9l1.1,0.1v0.3h-3.1v-0.3l1-0.1v-9.4
		l-1-0.2v-0.3l2.1-0.3v5.7c0.4-1,1.1-1.6,2.2-1.6c1.2,0,1.9,0.8,1.9,2v4.1l1,0.1V547z"/>
	<path d="M189,547h-3v-0.3l1-0.1v-5.3l-1-0.2v-0.3l2.1-0.3v6.1l1,0.1V547z M188.1,538.2c0,0.4-0.3,0.7-0.7,0.7s-0.7-0.3-0.7-0.7
		s0.3-0.7,0.7-0.7S188.1,537.9,188.1,538.2z"/>
	<path d="M195.1,546c-0.3,0.5-1,1.2-2.4,1.2c-1.7,0-3.1-1.4-3.1-3.4c0-2,1.5-3.3,3.1-3.3c0.7,0,1.2,0.1,1.8,0.4l0.2-0.4h0.3
		l-0.1,1.8h-0.3c-0.2-0.9-0.8-1.5-1.8-1.5c-1.2,0-2,1.1-2,2.8c0,1.7,0.9,2.9,2.1,2.9c1,0,1.5-0.4,1.9-0.9L195.1,546z"/>
	<path d="M48.3,564h-3.1v-0.3l1.1-0.1v-5c-0.2-0.4-0.6-0.6-1.1-0.6c-1.2,0-1.9,1.2-1.9,2.7v2.9l1.1,0.1v0.3h-3.1v-0.3l1-0.1v-9.4
		l-1-0.2v-0.3l2.1-0.3v5.7c0.4-1,1.1-1.6,2.2-1.6c1.2,0,1.9,0.8,1.9,2v4.1l1,0.1V564z"/>
	<path d="M54.8,563.4c-0.2,0.3-0.7,0.7-1.3,0.7s-1-0.4-1.1-0.9c-0.4,0.5-1.2,0.9-1.8,0.9c-1,0-1.8-0.7-1.8-1.7c0-1.1,0.9-1.7,2-1.9
		l1.5-0.3v-1.1c0-0.8-0.3-1.2-1.2-1.2c-0.7,0-1.3,0.5-1.7,1.1l-0.3-0.3c0.5-0.8,1.3-1.4,2.2-1.4c1.4,0,2,0.6,2,1.7v3.4
		c0,0.8,0.3,1,0.6,1c0.2,0,0.5-0.1,0.6-0.3L54.8,563.4z M52.3,562.9v-2.2l-1,0.2c-0.8,0.1-1.4,0.6-1.4,1.4c0,0.7,0.5,1.2,1.1,1.2
		C51.5,563.5,52,563.3,52.3,562.9z"/>
	<path d="M62,564h-3.1v-0.3l1.1-0.1v-5c-0.1-0.4-0.6-0.6-1.1-0.6c-1.2,0-1.9,1.2-1.9,2.7v2.9l1.1,0.1v0.3h-3.1v-0.3l1-0.1v-5.3
		l-1-0.2v-0.3l2-0.3v1.6h0c0.4-1.1,1.2-1.7,2.2-1.7c1.2,0,1.9,0.8,1.9,2v4.1l1,0.1V564z"/>
	<path d="M69.2,563.8l-2,0.3v-1l0,0c-0.4,0.6-0.9,1-1.9,1c-1.3,0-2.7-1.1-2.7-3.1c0-2.1,1.3-3.5,3-3.5c0.8,0,1.3,0.3,1.6,0.6v-4
		l-1-0.2v-0.3l2.1-0.3v10l1,0.2V563.8z M67.1,562.5v-3.7c-0.3-0.5-0.9-0.9-1.5-0.9c-1.4,0-1.9,1.5-1.9,3c0,1.6,0.7,2.7,1.9,2.7
		C66.5,563.6,66.9,563,67.1,562.5z"/>
	<path d="M79.4,558l-0.7,0.2l-2.5,6h-0.1l-1.8-4.5l-1.8,4.5h-0.1l-2.5-6.1l-0.7-0.2v-0.3H72v0.3l-1,0.1l1.7,4.3l1.3-3.3l-0.4-1
		l-0.7-0.1v-0.3h2.9v0.3l-1,0.1v0.1l1.7,4.3l1.7-4.3l-1-0.2v-0.3h2.3V558z"/>
	<path d="M84.4,557.9l-0.4,0.9c-0.2-0.1-0.9-0.5-1.1-0.5c-0.7,0-1.2,1-1.2,2.4v3l1.4,0.1v0.3h-3.4v-0.3l1-0.1v-5.3l-1-0.2v-0.3
		l2-0.3v1.6h0c0.3-1.2,1.1-1.7,1.8-1.7C83.9,557.5,84.2,557.7,84.4,557.9z"/>
	<path d="M88,564h-3v-0.3l1-0.1v-5.3l-1-0.2v-0.3l2.1-0.3v6.1l1,0.1V564z M87,555.2c0,0.4-0.3,0.7-0.7,0.7s-0.7-0.3-0.7-0.7
		s0.3-0.7,0.7-0.7S87,554.9,87,555.2z"/>
	<path d="M92.7,563.2c-0.3,0.5-0.9,0.9-1.8,0.9c-0.8,0-1.5-0.5-1.5-1.7v-4.2h-1v-0.3l1-0.4l0.8-1.9h0.3v2.1h1.8v0.4h-1.8v4.1
		c0,0.9,0.4,1.2,1,1.2c0.5,0,0.8-0.3,1-0.5L92.7,563.2z"/>
	<path d="M96.1,564h-3v-0.3l1-0.1v-5.3l-1-0.2v-0.3l2.1-0.3v6.1l1,0.1V564z M95.2,555.2c0,0.4-0.3,0.7-0.7,0.7s-0.7-0.3-0.7-0.7
		s0.3-0.7,0.7-0.7S95.2,554.9,95.2,555.2z"/>
	<path d="M103.8,564h-3.1v-0.3l1.1-0.1v-5c-0.1-0.4-0.6-0.6-1.1-0.6c-1.2,0-1.9,1.2-1.9,2.7v2.9l1.1,0.1v0.3h-3.1v-0.3l1-0.1v-5.3
		l-1-0.2v-0.3l2-0.3v1.6h0c0.4-1.1,1.2-1.7,2.2-1.7c1.2,0,1.9,0.8,1.9,2v4.1l1,0.1V564z"/>
	<path d="M110.3,558.3l-1.7-0.1l0,0c0.5,0.4,0.8,1,0.8,1.7c0,1.5-1.3,2.3-2.5,2.4c-1,0.1-1.4,0.4-1.4,0.9c0,0.2,0.1,0.3,0.2,0.4
		l2.8,0.3c0.8,0.1,1.7,0.6,1.7,1.6c0,1.6-1.4,2.6-3.5,2.6c-1.3,0-2.7-0.7-2.7-2c0-0.8,0.5-1.3,1.2-1.7c-0.3-0.2-0.5-0.5-0.5-0.9
		c0-0.5,0.4-1,1.3-1.3v0c-0.9-0.3-1.6-1.1-1.6-2.2c0-1.4,1.2-2.4,2.5-2.4c0.5,0,1,0.2,1.4,0.4l2-0.4V558.3z M109.3,565.8
		c0-0.6-0.4-1-1.1-1.1l-2.8-0.3c-0.4,0.2-0.6,0.8-0.6,1.3c0,0.9,0.7,1.9,2.3,1.9C108,567.6,109.3,567,109.3,565.8z M108.3,559.9
		c0-1.2-0.6-2-1.4-2s-1.4,0.8-1.4,2s0.6,2,1.4,2S108.3,561,108.3,559.9z"/>
	<path d="M112.4,563.3c0,0.4-0.3,0.8-0.8,0.8s-0.8-0.3-0.8-0.8c0-0.4,0.3-0.8,0.8-0.8S112.4,562.9,112.4,563.3z"/>
	<path d="M124.3,556.7h-0.4l-0.2-1.9H121v8.7l1.3,0.1v0.3h-3.7v-0.3l1.3-0.1v-8.7h-2.6l-0.2,1.9h-0.4v-2.3h7.7V556.7z"/>
	<path d="M131.7,564h-3.1v-0.3l1.1-0.1v-5c-0.2-0.4-0.6-0.6-1.1-0.6c-1.2,0-1.9,1.2-1.9,2.7v2.9l1.1,0.1v0.3h-3.1v-0.3l1-0.1v-9.4
		l-1-0.2v-0.3l2.1-0.3v5.7c0.4-1,1.1-1.6,2.2-1.6c1.2,0,1.9,0.8,1.9,2v4.1l1,0.1V564z"/>
	<path d="M137.7,560.3h-4.3c0,0.1,0,0.3,0,0.4c0,1.8,0.9,2.9,2.1,2.9c1,0,1.5-0.4,1.9-0.9l0.3,0.3c-0.3,0.5-1,1.2-2.4,1.2
		c-1.8,0-3.1-1.4-3.1-3.3c0-2,1.5-3.3,3-3.3s2.5,1,2.5,2.5V560.3z M136.6,559.9c0-1-0.3-2.1-1.4-2.1c-0.9,0-1.5,0.9-1.7,2.1H136.6z"
		/>
	<path d="M148.6,564h-3.1v-0.3l1.1-0.1v-5c-0.1-0.4-0.6-0.6-1.1-0.6c-1.2,0-1.9,1.2-1.9,2.7v2.9l1.1,0.1v0.3h-3.1v-0.3l1-0.1v-5.3
		l-1-0.2v-0.3l2-0.3v1.6h0c0.4-1.1,1.2-1.7,2.2-1.7c1.2,0,1.9,0.8,1.9,2v4.1l1,0.1V564z"/>
	<path d="M155.1,563.4c-0.2,0.3-0.7,0.7-1.3,0.7s-1-0.4-1.1-0.9c-0.4,0.5-1.2,0.9-1.8,0.9c-1,0-1.8-0.7-1.8-1.7c0-1.1,0.9-1.7,2-1.9
		l1.5-0.3v-1.1c0-0.8-0.3-1.2-1.2-1.2c-0.7,0-1.3,0.5-1.7,1.1l-0.3-0.3c0.5-0.8,1.3-1.4,2.2-1.4c1.4,0,2,0.6,2,1.7v3.4
		c0,0.8,0.3,1,0.6,1c0.2,0,0.5-0.1,0.6-0.3L155.1,563.4z M152.6,562.9v-2.2l-1,0.2c-0.8,0.1-1.4,0.6-1.4,1.4c0,0.7,0.5,1.2,1.1,1.2
		C151.8,563.5,152.3,563.3,152.6,562.9z"/>
	<path d="M166.1,564h-3.1v-0.3l1.1-0.1v-5c-0.2-0.4-0.4-0.6-1-0.6c-1,0-1.8,1.1-1.8,2.7v2.9l1.1,0.1v0.3H159v-0.3l1.1-0.1v-5
		c-0.2-0.4-0.4-0.6-1-0.6c-1,0-1.8,1.1-1.8,2.7v2.9l1.1,0.1v0.3h-3.1v-0.3l1-0.1v-5.3l-1-0.2v-0.3l2-0.3v1.6h0
		c0.3-0.9,1.1-1.7,2.1-1.7c1,0,1.6,0.6,1.8,1.7h0c0.3-1,1.1-1.7,2.1-1.7c1.1,0,1.8,0.8,1.8,2v4.1l1,0.1V564z"/>
	<path d="M172.1,560.3h-4.3c0,0.1,0,0.3,0,0.4c0,1.8,0.9,2.9,2.1,2.9c1,0,1.5-0.4,1.9-0.9l0.3,0.3c-0.3,0.5-1,1.2-2.4,1.2
		c-1.8,0-3.1-1.4-3.1-3.3c0-2,1.5-3.3,3-3.3s2.5,1,2.5,2.5V560.3z M171,559.9c0-1-0.3-2.1-1.4-2.1c-0.9,0-1.5,0.9-1.7,2.1H171z"/>
	<path d="M46.8,580c-0.3,0.5-1,1.2-2.4,1.2c-1.7,0-3.1-1.4-3.1-3.4c0-2,1.5-3.3,3.1-3.3c0.7,0,1.2,0.1,1.8,0.4l0.2-0.4h0.3l-0.1,1.8
		h-0.3c-0.2-0.9-0.8-1.5-1.8-1.5c-1.2,0-2,1.1-2,2.8c0,1.7,0.9,2.9,2.1,2.9c1,0,1.5-0.4,1.9-0.9L46.8,580z"/>
	<path d="M53.6,577.8c0,2-1.4,3.3-3.1,3.3c-1.7,0-3.1-1.4-3.1-3.3c0-2,1.4-3.3,3.1-3.3C52.2,574.5,53.6,575.8,53.6,577.8z
		 M52.4,577.8c0-1.8-0.7-3-1.9-3s-1.9,1.1-1.9,3s0.7,3,1.9,3S52.4,579.7,52.4,577.8z"/>
	<path d="M65.2,581H62v-0.3l1.1-0.1v-5c-0.2-0.4-0.4-0.6-1-0.6c-1,0-1.8,1.1-1.8,2.7v2.9l1.1,0.1v0.3h-3.2v-0.3l1.1-0.1v-5
		c-0.2-0.4-0.4-0.6-1-0.6c-1,0-1.8,1.1-1.8,2.7v2.9l1.1,0.1v0.3h-3.1v-0.3l1-0.1v-5.3l-1-0.2v-0.3l2-0.3v1.6h0
		c0.3-0.9,1.1-1.7,2.1-1.7c1,0,1.6,0.6,1.8,1.7h0c0.3-1,1.1-1.7,2.1-1.7c1.1,0,1.8,0.8,1.8,2v4.1l1,0.1V581z"/>
	<path d="M71.2,577.3h-4.3c0,0.1,0,0.3,0,0.4c0,1.8,0.9,2.9,2.1,2.9c1,0,1.5-0.4,1.9-0.9l0.3,0.3c-0.3,0.5-1,1.2-2.4,1.2
		c-1.8,0-3.1-1.4-3.1-3.3c0-2,1.5-3.3,3-3.3s2.5,1,2.5,2.5V577.3z M70.1,576.9c0-1-0.3-2.1-1.4-2.1c-0.9,0-1.5,0.9-1.7,2.1H70.1z"/>
	<path d="M76.3,579.2c0,1-0.8,1.9-2.1,1.9c-0.6,0-1.1-0.1-1.5-0.4l-0.1,0.4h-0.3l-0.1-2l0.3,0c0.2,1.1,0.8,1.7,1.7,1.7
		c0.7,0,1.2-0.5,1.2-1.2c0-0.8-0.7-1.1-1.4-1.4c-0.8-0.3-1.7-0.8-1.7-1.9c0-1,0.8-1.8,1.9-1.8c0.6,0,1,0.1,1.4,0.4l0.2-0.3H76l0,1.7
		h-0.3c-0.1-0.9-0.6-1.4-1.5-1.4c-0.7,0-1.1,0.5-1.1,1c0,0.8,0.7,1.1,1.4,1.4C75.5,577.7,76.3,578.1,76.3,579.2z"/>
	<path d="M84.9,570.5l-0.4,0.9c-0.6-0.4-1.1-0.7-1.4-0.7c-0.5,0-0.8,0.4-0.8,1.6v2.4H84v0.4h-1.8v5.4l1.4,0.1v0.3h-3.5v-0.3l1-0.1
		v-5.4h-1v-0.3l1-0.3v-1.2c0-1.8,0.7-3.3,2.5-3.3C84.2,570.2,84.5,570.3,84.9,570.5z"/>
	<path d="M89,574.9l-0.4,0.9c-0.2-0.1-0.9-0.5-1.1-0.5c-0.7,0-1.2,1-1.2,2.4v3l1.4,0.1v0.3h-3.4v-0.3l1-0.1v-5.3l-1-0.2v-0.3l2-0.3
		v1.6h0c0.3-1.2,1.1-1.7,1.8-1.7C88.4,574.5,88.8,574.7,89,574.9z"/>
	<path d="M95.5,577.8c0,2-1.4,3.3-3.1,3.3c-1.7,0-3.1-1.4-3.1-3.3c0-2,1.4-3.3,3.1-3.3C94.2,574.5,95.5,575.8,95.5,577.8z
		 M94.3,577.8c0-1.8-0.7-3-1.9-3s-1.9,1.1-1.9,3s0.7,3,1.9,3S94.3,579.7,94.3,577.8z"/>
	<path d="M107.1,581h-3.1v-0.3l1.1-0.1v-5c-0.2-0.4-0.4-0.6-1-0.6c-1,0-1.8,1.1-1.8,2.7v2.9l1.1,0.1v0.3H100v-0.3l1.1-0.1v-5
		c-0.2-0.4-0.4-0.6-1-0.6c-1,0-1.8,1.1-1.8,2.7v2.9l1.1,0.1v0.3h-3.1v-0.3l1-0.1v-5.3l-1-0.2v-0.3l2-0.3v1.6h0
		c0.3-0.9,1.1-1.7,2.1-1.7c1,0,1.6,0.6,1.8,1.7h0c0.3-1,1.1-1.7,2.1-1.7c1.1,0,1.8,0.8,1.8,2v4.1l1,0.1V581z"/>
	<path d="M114.7,580.2c-0.3,0.5-0.9,0.9-1.8,0.9c-0.8,0-1.5-0.5-1.5-1.7v-4.2h-1v-0.3l1-0.4l0.8-1.9h0.3v2.1h1.8v0.4h-1.8v4.1
		c0,0.9,0.4,1.2,1,1.2c0.5,0,0.8-0.3,1-0.5L114.7,580.2z"/>
	<path d="M122,581h-3.1v-0.3l1.1-0.1v-5c-0.2-0.4-0.6-0.6-1.1-0.6c-1.2,0-1.9,1.2-1.9,2.7v2.9l1.1,0.1v0.3h-3.1v-0.3l1-0.1v-9.4
		l-1-0.2v-0.3l2.1-0.3v5.7c0.4-1,1.1-1.6,2.2-1.6c1.2,0,1.9,0.8,1.9,2v4.1l1,0.1V581z"/>
	<path d="M128,577.3h-4.3c0,0.1,0,0.3,0,0.4c0,1.8,0.9,2.9,2.1,2.9c1,0,1.5-0.4,1.9-0.9l0.3,0.3c-0.3,0.5-1,1.2-2.4,1.2
		c-1.8,0-3.1-1.4-3.1-3.3c0-2,1.5-3.3,3-3.3s2.5,1,2.5,2.5V577.3z M126.8,576.9c0-1-0.3-2.1-1.4-2.1c-0.9,0-1.5,0.9-1.7,2.1H126.8z"
		/>
	<path d="M136.5,570.5l-0.4,0.9c-0.6-0.4-1.1-0.7-1.4-0.7c-0.5,0-0.8,0.4-0.8,1.6v2.4h1.8v0.4h-1.8v5.4l1.4,0.1v0.3h-3.5v-0.3l1-0.1
		v-5.4h-1v-0.3l1-0.3v-1.2c0-1.8,0.7-3.3,2.5-3.3C135.8,570.2,136.1,570.3,136.5,570.5z"/>
	<path d="M141.9,580.4c-0.2,0.3-0.7,0.7-1.3,0.7s-1-0.4-1.1-0.9c-0.4,0.5-1.2,0.9-1.8,0.9c-1,0-1.8-0.7-1.8-1.7c0-1.1,0.9-1.7,2-1.9
		l1.5-0.3v-1.1c0-0.8-0.3-1.2-1.2-1.2c-0.7,0-1.3,0.5-1.7,1.1l-0.3-0.3c0.5-0.8,1.3-1.4,2.2-1.4c1.4,0,2,0.6,2,1.7v3.4
		c0,0.8,0.3,1,0.6,1c0.2,0,0.5-0.1,0.6-0.3L141.9,580.4z M139.5,579.9v-2.2l-1,0.2c-0.8,0.1-1.4,0.6-1.4,1.4c0,0.7,0.5,1.2,1.1,1.2
		C138.6,580.5,139.2,580.3,139.5,579.9z"/>
	<path d="M147.6,580c-0.3,0.5-1,1.2-2.4,1.2c-1.7,0-3.1-1.4-3.1-3.4c0-2,1.5-3.3,3.1-3.3c0.7,0,1.2,0.1,1.8,0.4l0.2-0.4h0.3
		l-0.1,1.8H147c-0.2-0.9-0.8-1.5-1.8-1.5c-1.2,0-2,1.1-2,2.8c0,1.7,0.9,2.9,2.1,2.9c1,0,1.5-0.4,1.9-0.9L147.6,580z"/>
	<path d="M152.3,580.2c-0.3,0.5-0.9,0.9-1.8,0.9c-0.8,0-1.5-0.5-1.5-1.7v-4.2h-1v-0.3l1-0.4l0.8-1.9h0.3v2.1h1.8v0.4h-1.8v4.1
		c0,0.9,0.4,1.2,1,1.2c0.5,0,0.8-0.3,1-0.5L152.3,580.2z"/>
	<path d="M159.8,580.2c-0.3,0.5-0.9,0.9-1.8,0.9c-0.8,0-1.5-0.5-1.5-1.7v-4.2h-1v-0.3l1-0.4l0.8-1.9h0.3v2.1h1.8v0.4h-1.8v4.1
		c0,0.9,0.4,1.2,1,1.2c0.5,0,0.8-0.3,1-0.5L159.8,580.2z"/>
	<path d="M167.1,581H164v-0.3l1.1-0.1v-5c-0.2-0.4-0.6-0.6-1.1-0.6c-1.2,0-1.9,1.2-1.9,2.7v2.9l1.1,0.1v0.3H160v-0.3l1-0.1v-9.4
		l-1-0.2v-0.3l2.1-0.3v5.7c0.4-1,1.1-1.6,2.2-1.6c1.2,0,1.9,0.8,1.9,2v4.1l1,0.1V581z"/>
	<path d="M173.6,580.4c-0.2,0.3-0.7,0.7-1.3,0.7s-1-0.4-1.1-0.9c-0.4,0.5-1.2,0.9-1.8,0.9c-1,0-1.8-0.7-1.8-1.7c0-1.1,0.9-1.7,2-1.9
		l1.5-0.3v-1.1c0-0.8-0.3-1.2-1.2-1.2c-0.7,0-1.3,0.5-1.7,1.1l-0.3-0.3c0.5-0.8,1.3-1.4,2.2-1.4c1.4,0,2,0.6,2,1.7v3.4
		c0,0.8,0.3,1,0.6,1c0.2,0,0.5-0.1,0.6-0.3L173.6,580.4z M171.1,579.9v-2.2l-1,0.2c-0.8,0.1-1.4,0.6-1.4,1.4c0,0.7,0.5,1.2,1.1,1.2
		C170.3,580.5,170.8,580.3,171.1,579.9z"/>
	<path d="M177.7,580.2c-0.3,0.5-0.9,0.9-1.8,0.9c-0.8,0-1.5-0.5-1.5-1.7v-4.2h-1v-0.3l1-0.4l0.8-1.9h0.3v2.1h1.8v0.4h-1.8v4.1
		c0,0.9,0.4,1.2,1,1.2c0.5,0,0.8-0.3,1-0.5L177.7,580.2z"/>
	<path d="M46.8,597c-0.3,0.5-1,1.2-2.4,1.2c-1.7,0-3.1-1.4-3.1-3.4c0-2,1.5-3.3,3.1-3.3c0.7,0,1.2,0.1,1.8,0.4l0.2-0.4h0.3l-0.1,1.8
		h-0.3c-0.2-0.9-0.8-1.5-1.8-1.5c-1.2,0-2,1.1-2,2.8c0,1.7,0.9,2.9,2.1,2.9c1,0,1.5-0.4,1.9-0.9L46.8,597z"/>
	<path d="M53.5,597.4c-0.2,0.3-0.7,0.7-1.3,0.7s-1-0.4-1.1-0.9c-0.4,0.5-1.2,0.9-1.8,0.9c-1,0-1.8-0.7-1.8-1.7c0-1.1,0.9-1.7,2-1.9
		l1.5-0.3v-1.1c0-0.8-0.3-1.2-1.2-1.2c-0.7,0-1.3,0.5-1.7,1.1l-0.3-0.3c0.5-0.8,1.3-1.4,2.2-1.4c1.4,0,2,0.6,2,1.7v3.4
		c0,0.8,0.3,1,0.6,1c0.2,0,0.5-0.1,0.6-0.3L53.5,597.4z M51,596.9v-2.2l-1,0.2c-0.8,0.1-1.4,0.6-1.4,1.4c0,0.7,0.5,1.2,1.1,1.2
		C50.2,597.5,50.7,597.3,51,596.9z"/>
	<path d="M56.6,598h-3v-0.3l1-0.1v-9.5l-1-0.2v-0.3l2.1-0.3v10.2l1,0.1V598z"/>
	<path d="M60.1,598h-3v-0.3l1-0.1v-9.5l-1-0.2v-0.3l2.1-0.3v10.2l1,0.1V598z"/>
	<path d="M63.8,598h-3v-0.3l1-0.1v-5.3l-1-0.2v-0.3l2.1-0.3v6.1l1,0.1V598z M62.9,589.2c0,0.4-0.3,0.7-0.7,0.7s-0.7-0.3-0.7-0.7
		s0.3-0.7,0.7-0.7S62.9,588.9,62.9,589.2z"/>
	<path d="M70.5,592.3l-1.7-0.1l0,0c0.5,0.4,0.8,1,0.8,1.7c0,1.5-1.3,2.3-2.5,2.4c-1,0.1-1.4,0.4-1.4,0.9c0,0.2,0.1,0.3,0.2,0.4
		l2.8,0.3c0.8,0.1,1.7,0.6,1.7,1.6c0,1.6-1.4,2.6-3.5,2.6c-1.3,0-2.7-0.7-2.7-2c0-0.8,0.5-1.3,1.2-1.7c-0.3-0.2-0.5-0.5-0.5-0.9
		c0-0.5,0.4-1,1.3-1.3v0c-0.9-0.3-1.6-1.1-1.6-2.2c0-1.4,1.2-2.4,2.5-2.4c0.5,0,1,0.2,1.4,0.4l2-0.4V592.3z M69.5,599.8
		c0-0.6-0.4-1-1.1-1.1l-2.8-0.3c-0.4,0.2-0.6,0.8-0.6,1.3c0,0.9,0.7,1.9,2.3,1.9C68.1,601.6,69.5,601,69.5,599.8z M68.4,593.9
		c0-1.2-0.6-2-1.4-2s-1.4,0.8-1.4,2s0.6,2,1.4,2S68.4,595,68.4,593.9z"/>
	<path d="M75.5,591.9l-0.4,0.9c-0.2-0.1-0.9-0.5-1.1-0.5c-0.7,0-1.2,1-1.2,2.4v3l1.4,0.1v0.3h-3.4v-0.3l1-0.1v-5.3l-1-0.2v-0.3
		l2-0.3v1.6h0c0.3-1.2,1.1-1.7,1.8-1.7C75,591.5,75.3,591.7,75.5,591.9z"/>
	<path d="M81.8,597.4c-0.2,0.3-0.7,0.7-1.3,0.7s-1-0.4-1.1-0.9c-0.4,0.5-1.2,0.9-1.8,0.9c-1,0-1.8-0.7-1.8-1.7c0-1.1,0.9-1.7,2-1.9
		l1.5-0.3v-1.1c0-0.8-0.3-1.2-1.2-1.2c-0.7,0-1.3,0.5-1.7,1.1l-0.3-0.3c0.5-0.8,1.3-1.4,2.2-1.4c1.4,0,2,0.6,2,1.7v3.4
		c0,0.8,0.3,1,0.6,1c0.2,0,0.5-0.1,0.6-0.3L81.8,597.4z M79.4,596.9v-2.2l-1,0.2c-0.8,0.1-1.4,0.6-1.4,1.4c0,0.7,0.5,1.2,1.1,1.2
		C78.5,597.5,79,597.3,79.4,596.9z"/>
	<path d="M88.5,594.6c0,2.1-1.4,3.5-3.1,3.5c-0.7,0-1.1-0.2-1.5-0.4v3.7l1.4,0.1v0.3h-3.4v-0.3l1-0.1v-9.1l-1-0.2v-0.3l2-0.3v1h0
		c0.4-0.6,1.1-1.1,2-1.1C87.2,591.5,88.5,592.6,88.5,594.6z M87.3,594.7c0-1.6-0.6-2.7-1.8-2.7c-0.8,0-1.4,0.5-1.6,1.1v4
		c0.3,0.3,0.9,0.6,1.4,0.6C86.7,597.7,87.3,596.2,87.3,594.7z"/>
	<path d="M96.1,598H93v-0.3l1.1-0.1v-5c-0.2-0.4-0.6-0.6-1.1-0.6c-1.2,0-1.9,1.2-1.9,2.7v2.9l1.1,0.1v0.3H89v-0.3l1-0.1v-9.4l-1-0.2
		v-0.3l2.1-0.3v5.7c0.4-1,1.1-1.6,2.2-1.6c1.2,0,1.9,0.8,1.9,2v4.1l1,0.1V598z"/>
	<path d="M102.4,592l-0.7,0.2l-2.4,5.9l-1.3,3.8h-1l1.9-3.9l-2.3-5.8l-0.7-0.2v-0.3h2.9v0.3l-1,0.1l1.7,4.6l1.7-4.5l-1-0.2v-0.3h2.3
		V592z"/>
	<path d="M105.8,594.7l-3,0.4v-0.7l3-0.4V594.7z"/>
	<path d="M109.8,598h-3v-0.3l1-0.1v-5.3l-1-0.2v-0.3l2.1-0.3v6.1l1,0.1V598z M108.8,589.2c0,0.4-0.3,0.7-0.7,0.7s-0.7-0.3-0.7-0.7
		s0.3-0.7,0.7-0.7S108.8,588.9,108.8,589.2z"/>
	<path d="M117.5,598h-3.1v-0.3l1.1-0.1v-5c-0.1-0.4-0.6-0.6-1.1-0.6c-1.2,0-1.9,1.2-1.9,2.7v2.9l1.1,0.1v0.3h-3.1v-0.3l1-0.1v-5.3
		l-1-0.2v-0.3l2-0.3v1.6h0c0.4-1.1,1.2-1.7,2.2-1.7c1.2,0,1.9,0.8,1.9,2v4.1l1,0.1V598z"/>
	<path d="M122.3,596.2c0,1-0.8,1.9-2.1,1.9c-0.6,0-1.1-0.1-1.5-0.4l-0.1,0.4h-0.3l-0.1-2l0.3,0c0.2,1.1,0.8,1.7,1.7,1.7
		c0.7,0,1.2-0.5,1.2-1.2c0-0.8-0.7-1.1-1.4-1.4c-0.8-0.3-1.7-0.8-1.7-1.9c0-1,0.8-1.8,1.9-1.8c0.6,0,1,0.1,1.4,0.4l0.2-0.3h0.3
		l0,1.7h-0.3c-0.1-0.9-0.6-1.4-1.5-1.4c-0.7,0-1.1,0.5-1.1,1c0,0.8,0.7,1.1,1.4,1.4C121.4,594.7,122.3,595.1,122.3,596.2z"/>
	<path d="M129.6,594.6c0,2.1-1.4,3.5-3.1,3.5c-0.7,0-1.1-0.2-1.5-0.4v3.7l1.4,0.1v0.3H123v-0.3l1-0.1v-9.1l-1-0.2v-0.3l2-0.3v1h0
		c0.4-0.6,1.1-1.1,2-1.1C128.3,591.5,129.6,592.6,129.6,594.6z M128.5,594.7c0-1.6-0.6-2.7-1.8-2.7c-0.8,0-1.4,0.5-1.6,1.1v4
		c0.3,0.3,0.9,0.6,1.4,0.6C127.8,597.7,128.5,596.2,128.5,594.7z"/>
	<path d="M133.4,598h-3v-0.3l1-0.1v-5.3l-1-0.2v-0.3l2.1-0.3v6.1l1,0.1V598z M132.5,589.2c0,0.4-0.3,0.7-0.7,0.7s-0.7-0.3-0.7-0.7
		s0.3-0.7,0.7-0.7S132.5,588.9,132.5,589.2z"/>
	<path d="M138.7,591.9l-0.4,0.9c-0.2-0.1-0.9-0.5-1.1-0.5c-0.7,0-1.2,1-1.2,2.4v3l1.4,0.1v0.3H134v-0.3l1-0.1v-5.3l-1-0.2v-0.3
		l2-0.3v1.6h0c0.3-1.2,1.1-1.7,1.8-1.7C138.1,591.5,138.5,591.7,138.7,591.9z"/>
	<path d="M144.5,594.3h-4.3c0,0.1,0,0.3,0,0.4c0,1.8,0.9,2.9,2.1,2.9c1,0,1.5-0.4,1.9-0.9l0.3,0.3c-0.3,0.5-1,1.2-2.4,1.2
		c-1.8,0-3.1-1.4-3.1-3.3c0-2,1.5-3.3,3-3.3s2.5,1,2.5,2.5V594.3z M143.3,593.9c0-1-0.3-2.1-1.4-2.1c-0.9,0-1.5,0.9-1.7,2.1H143.3z"
		/>
	<path d="M151.9,597.8l-2,0.3v-1l0,0c-0.4,0.6-0.9,1-1.9,1c-1.3,0-2.7-1.1-2.7-3.1c0-2.1,1.3-3.5,3-3.5c0.8,0,1.3,0.3,1.6,0.6v-4
		l-1-0.2v-0.3l2.1-0.3v10l1,0.2V597.8z M149.9,596.5v-3.7c-0.3-0.5-0.9-0.9-1.5-0.9c-1.4,0-1.9,1.5-1.9,3c0,1.6,0.7,2.7,1.9,2.7
		C149.2,597.6,149.7,597,149.9,596.5z"/>
</g>
<g>
	<path d="M225.5,512.2c-0.3,0.5-0.9,0.9-1.8,0.9c-0.8,0-1.5-0.5-1.5-1.7v-4.2h-1v-0.3l1-0.4l0.8-1.9h0.3v2.1h1.8v0.4h-1.8v4.1
		c0,0.9,0.4,1.2,1,1.2c0.5,0,0.8-0.3,1-0.5L225.5,512.2z"/>
	<path d="M231.9,507l-0.7,0.2l-2.4,5.9l-1.3,3.8h-1l1.9-3.9l-2.3-5.8l-0.7-0.1v-0.3h2.9v0.3l-1,0.1l1.7,4.6l1.7-4.5l-1-0.1v-0.3h2.3
		V507z"/>
	<path d="M238.7,509.6c0,2.1-1.3,3.5-3.1,3.5c-0.7,0-1.1-0.2-1.5-0.4v3.7l1.4,0.1v0.3h-3.4v-0.3l1-0.1v-9.1l-1-0.2v-0.3l2-0.3v1h0
		c0.4-0.6,1.1-1.1,2-1.1C237.5,506.5,238.7,507.6,238.7,509.6z M237.6,509.7c0-1.6-0.6-2.7-1.8-2.7c-0.8,0-1.4,0.5-1.7,1.1v4
		c0.3,0.3,0.9,0.6,1.4,0.6C237,512.7,237.6,511.2,237.6,509.7z"/>
	<path d="M245,509.3h-4.3c0,0.1,0,0.3,0,0.4c0,1.8,0.9,2.9,2.1,2.9c1,0,1.5-0.4,1.9-0.9l0.3,0.3c-0.3,0.5-1,1.2-2.4,1.2
		c-1.8,0-3.1-1.4-3.1-3.3c0-2,1.5-3.3,3-3.3s2.5,1,2.5,2.5V509.3z M243.8,508.9c0-1-0.3-2.1-1.4-2.1c-0.9,0-1.5,0.9-1.7,2.1H243.8z"
		/>
	<path d="M250.5,502.5l-0.4,0.9c-0.6-0.4-1.1-0.7-1.4-0.7c-0.5,0-0.8,0.4-0.8,1.6v2.4h1.8v0.4h-1.8v5.4l1.4,0.1v0.3h-3.5v-0.3l1-0.1
		v-5.4h-1v-0.3l1-0.3v-1.2c0-1.8,0.7-3.3,2.5-3.3C249.8,502.2,250.1,502.3,250.5,502.5z"/>
	<path d="M255.9,512.4c-0.2,0.3-0.7,0.7-1.3,0.7s-1-0.4-1.1-0.9c-0.5,0.5-1.2,0.9-1.8,0.9c-1,0-1.8-0.7-1.8-1.6c0-1.1,0.9-1.7,2-1.9
		l1.5-0.3v-1.1c0-0.8-0.3-1.2-1.2-1.2c-0.7,0-1.3,0.5-1.7,1.1l-0.3-0.3c0.5-0.8,1.3-1.4,2.2-1.4c1.4,0,2,0.6,2,1.7v3.4
		c0,0.8,0.3,1,0.6,1c0.2,0,0.5-0.1,0.6-0.3L255.9,512.4z M253.5,511.9v-2.2l-1,0.2c-0.8,0.2-1.4,0.6-1.4,1.4c0,0.7,0.5,1.2,1.1,1.2
		C252.6,512.5,253.2,512.3,253.5,511.9z"/>
	<path d="M261.6,512c-0.3,0.5-1,1.2-2.4,1.2c-1.7,0-3.1-1.4-3.1-3.4c0-2,1.5-3.3,3.1-3.3c0.7,0,1.2,0.1,1.8,0.4l0.2-0.4h0.3
		l-0.1,1.8H261c-0.2-0.9-0.8-1.5-1.8-1.5c-1.2,0-2,1.1-2,2.8c0,1.7,0.9,2.9,2.1,2.9c1,0,1.5-0.4,1.9-0.9L261.6,512z"/>
	<path d="M267.7,509.3h-4.3c0,0.1,0,0.3,0,0.4c0,1.8,0.9,2.9,2.1,2.9c1,0,1.5-0.4,1.9-0.9l0.3,0.3c-0.3,0.5-1,1.2-2.4,1.2
		c-1.8,0-3.1-1.4-3.1-3.3c0-2,1.5-3.3,3-3.3s2.5,1,2.5,2.5V509.3z M266.6,508.9c0-1-0.3-2.1-1.4-2.1c-0.9,0-1.5,0.9-1.7,2.1H266.6z"
		/>
	<path d="M272.8,511.2c0,1-0.8,1.9-2.1,1.9c-0.6,0-1.1-0.1-1.5-0.4l-0.2,0.4h-0.3l-0.1-2l0.3,0c0.2,1.1,0.8,1.6,1.7,1.6
		c0.7,0,1.2-0.5,1.2-1.2c0-0.8-0.7-1.1-1.4-1.4c-0.8-0.3-1.7-0.8-1.7-1.9c0-1,0.8-1.8,1.9-1.8c0.6,0,1,0.1,1.4,0.4l0.2-0.3h0.3
		l0,1.7h-0.3c-0.1-0.9-0.6-1.4-1.5-1.4c-0.7,0-1.1,0.5-1.1,1c0,0.8,0.7,1.1,1.4,1.4C272,509.7,272.8,510.1,272.8,511.2z"/>
	<path d="M286.6,507l-0.7,0.2l-2.5,6h-0.1l-1.8-4.5l-1.8,4.5h-0.1l-2.5-6.1l-0.7-0.1v-0.3h2.9v0.3l-1,0.1l1.7,4.3l1.3-3.3l-0.4-1
		l-0.7-0.1v-0.3h2.9v0.3l-1,0.1v0.1l1.7,4.3l1.7-4.3l-1-0.1v-0.3h2.3V507z"/>
	<path d="M292.2,509.3h-4.3c0,0.1,0,0.3,0,0.4c0,1.8,0.9,2.9,2.1,2.9c1,0,1.5-0.4,1.9-0.9l0.3,0.3c-0.3,0.5-1,1.2-2.4,1.2
		c-1.8,0-3.1-1.4-3.1-3.3c0-2,1.5-3.3,3-3.3s2.5,1,2.5,2.5V509.3z M291,508.9c0-1-0.3-2.1-1.4-2.1c-0.9,0-1.5,0.9-1.7,2.1H291z"/>
	<path d="M297.6,506.9l-0.4,0.9c-0.2-0.1-0.9-0.5-1.1-0.5c-0.7,0-1.2,1-1.2,2.4v3l1.4,0.1v0.3H293v-0.3l1-0.1v-5.3l-1-0.2v-0.3
		l2-0.3v1.6h0c0.3-1.2,1.1-1.7,1.8-1.7C297.1,506.5,297.4,506.7,297.6,506.9z"/>
	<path d="M303.5,509.3h-4.3c0,0.1,0,0.3,0,0.4c0,1.8,0.9,2.9,2.1,2.9c1,0,1.5-0.4,1.9-0.9l0.3,0.3c-0.3,0.5-1,1.2-2.4,1.2
		c-1.8,0-3.1-1.4-3.1-3.3c0-2,1.5-3.3,3-3.3s2.5,1,2.5,2.5V509.3z M302.3,508.9c0-1-0.3-2.1-1.4-2.1c-0.9,0-1.5,0.9-1.7,2.1H302.3z"
		/>
	<path d="M314.3,513h-3v-0.3l1-0.1v-5.3l-0.7-0.1h-2.2v5.4l1.4,0.1v0.3h-3.5v-0.3l1-0.1v-5.4h-1v-0.3l1-0.3v-1
		c0-2.1,1.2-3.5,3.2-3.5c0.8,0,1.4,0.3,1.9,0.8l-0.6,1c-1.1-1.1-1.4-1.3-1.7-1.3c-1.1,0-1.8,0.5-1.8,2.6v1.5h2.2l1.8-0.2v6l1,0.1
		V513z"/>
	<path d="M319.5,506.9l-0.4,0.9c-0.2-0.1-0.9-0.5-1.1-0.5c-0.7,0-1.2,1-1.2,2.4v3l1.4,0.1v0.3h-3.4v-0.3l1-0.1v-5.3l-1-0.2v-0.3
		l2-0.3v1.6h0c0.3-1.2,1.1-1.7,1.8-1.7C319,506.5,319.3,506.7,319.5,506.9z"/>
	<path d="M324.3,511.2c0,1-0.8,1.9-2.1,1.9c-0.6,0-1.1-0.1-1.5-0.4l-0.2,0.4h-0.3l-0.1-2l0.3,0c0.2,1.1,0.8,1.6,1.7,1.6
		c0.7,0,1.2-0.5,1.2-1.2c0-0.8-0.7-1.1-1.4-1.4c-0.8-0.3-1.7-0.8-1.7-1.9c0-1,0.8-1.8,1.9-1.8c0.6,0,1,0.1,1.4,0.4l0.2-0.3h0.3
		l0,1.7h-0.3c-0.1-0.9-0.6-1.4-1.5-1.4c-0.7,0-1.1,0.5-1.1,1c0,0.8,0.7,1.1,1.4,1.4C323.4,509.7,324.3,510.1,324.3,511.2z"/>
	<path d="M329.2,512.2c-0.3,0.5-0.9,0.9-1.8,0.9c-0.8,0-1.5-0.5-1.5-1.7v-4.2h-1v-0.3l1-0.4l0.8-1.9h0.3v2.1h1.8v0.4H327v4.1
		c0,0.9,0.4,1.2,1,1.2c0.5,0,0.8-0.3,1-0.5L329.2,512.2z"/>
	<path d="M339.2,512.8l-2,0.3v-1l0,0c-0.4,0.6-0.9,1-1.9,1c-1.3,0-2.7-1.1-2.7-3.1c0-2.1,1.3-3.5,3-3.5c0.8,0,1.3,0.3,1.6,0.6v-4
		l-1-0.2v-0.3l2.1-0.3v10l1,0.2V512.8z M337.2,511.5v-3.7c-0.3-0.5-0.9-0.9-1.5-0.9c-1.4,0-1.9,1.5-1.9,3c0,1.6,0.7,2.7,1.9,2.7
		C336.5,512.6,337,512,337.2,511.5z"/>
	<path d="M345.3,509.3h-4.3c0,0.1,0,0.3,0,0.4c0,1.8,0.9,2.9,2.1,2.9c1,0,1.5-0.4,1.9-0.9l0.3,0.3c-0.3,0.5-1,1.2-2.4,1.2
		c-1.8,0-3.1-1.4-3.1-3.3c0-2,1.5-3.3,3-3.3s2.5,1,2.5,2.5V509.3z M344.1,508.9c0-1-0.3-2.1-1.4-2.1c-0.9,0-1.5,0.9-1.7,2.1H344.1z"
		/>
	<path d="M350.4,511.2c0,1-0.8,1.9-2.1,1.9c-0.6,0-1.1-0.1-1.5-0.4l-0.1,0.4h-0.3l-0.1-2l0.3,0c0.2,1.1,0.8,1.6,1.7,1.6
		c0.7,0,1.2-0.5,1.2-1.2c0-0.8-0.7-1.1-1.4-1.4c-0.8-0.3-1.7-0.8-1.7-1.9c0-1,0.8-1.8,1.9-1.8c0.6,0,1,0.1,1.4,0.4l0.2-0.3h0.3
		l0,1.7h-0.3c-0.2-0.9-0.6-1.4-1.5-1.4c-0.7,0-1.1,0.5-1.1,1c0,0.8,0.7,1.1,1.4,1.4C349.5,509.7,350.4,510.1,350.4,511.2z"/>
	<path d="M354.3,513h-3v-0.3l1-0.1v-5.3l-1-0.2v-0.3l2.1-0.3v6.1l1,0.1V513z M353.4,504.2c0,0.4-0.3,0.7-0.7,0.7s-0.7-0.3-0.7-0.7
		s0.3-0.7,0.7-0.7S353.4,503.9,353.4,504.2z"/>
	<path d="M361,507.3l-1.7-0.2l0,0c0.5,0.4,0.8,1,0.8,1.6c0,1.5-1.3,2.3-2.5,2.4c-1,0.1-1.4,0.5-1.4,0.9c0,0.2,0.1,0.3,0.2,0.4
		l2.8,0.3c0.8,0.1,1.7,0.6,1.7,1.6c0,1.6-1.4,2.6-3.5,2.6c-1.3,0-2.7-0.7-2.7-2c0-0.8,0.5-1.3,1.2-1.7c-0.3-0.2-0.5-0.5-0.5-0.9
		c0-0.5,0.4-1,1.3-1.3v0c-0.9-0.3-1.6-1.1-1.6-2.2c0-1.4,1.2-2.4,2.5-2.4c0.5,0,1,0.2,1.4,0.4l2-0.4V507.3z M360,514.8
		c0-0.6-0.4-1-1.1-1.1l-2.8-0.3c-0.4,0.2-0.6,0.8-0.6,1.3c0,0.9,0.7,1.9,2.3,1.9C358.6,516.6,360,516,360,514.8z M358.9,508.9
		c0-1.2-0.6-2-1.4-2c-0.9,0-1.4,0.8-1.4,2s0.6,2,1.4,2C358.4,510.9,358.9,510,358.9,508.9z"/>
	<path d="M368.4,513h-3.1v-0.3l1.1-0.1v-5c-0.2-0.4-0.6-0.6-1.1-0.6c-1.2,0-1.9,1.2-1.9,2.7v2.9l1.1,0.1v0.3h-3.1v-0.3l1-0.1v-5.3
		l-1-0.2v-0.3l2-0.3v1.6h0c0.4-1.1,1.2-1.7,2.2-1.7c1.2,0,1.9,0.8,1.9,2v4.1l1,0.1V513z"/>
	<path d="M374.5,509.3h-4.3c0,0.1,0,0.3,0,0.4c0,1.8,0.9,2.9,2.1,2.9c1,0,1.5-0.4,1.9-0.9l0.3,0.3c-0.3,0.5-1,1.2-2.4,1.2
		c-1.8,0-3.1-1.4-3.1-3.3c0-2,1.5-3.3,3-3.3s2.5,1,2.5,2.5V509.3z M373.3,508.9c0-1-0.3-2.1-1.4-2.1c-0.9,0-1.5,0.9-1.7,2.1H373.3z"
		/>
	<path d="M381.9,512.8l-2,0.3v-1l0,0c-0.4,0.6-0.9,1-1.9,1c-1.3,0-2.7-1.1-2.7-3.1c0-2.1,1.3-3.5,3-3.5c0.8,0,1.3,0.3,1.6,0.6v-4
		l-1-0.2v-0.3l2.1-0.3v10l1,0.2V512.8z M379.8,511.5v-3.7c-0.3-0.5-0.9-0.9-1.5-0.9c-1.4,0-1.9,1.5-1.9,3c0,1.6,0.7,2.7,1.9,2.7
		C379.2,512.6,379.6,512,379.8,511.5z"/>
	<path d="M224.4,530h-3v-0.3l1-0.1v-5.3l-1-0.2v-0.3l2.1-0.3v6.1l1,0.1V530z M223.5,521.2c0,0.4-0.3,0.7-0.7,0.7s-0.7-0.3-0.7-0.7
		s0.3-0.7,0.7-0.7S223.5,520.9,223.5,521.2z"/>
	<path d="M232.1,530H229v-0.3l1.1-0.1v-5c-0.1-0.4-0.6-0.6-1.1-0.6c-1.2,0-1.9,1.2-1.9,2.7v2.9l1.1,0.1v0.3h-3.1v-0.3l1-0.1v-5.3
		l-1-0.2v-0.3l2-0.3v1.6h0c0.4-1.1,1.2-1.7,2.2-1.7c1.2,0,1.9,0.8,1.9,2v4.1l1,0.1V530z"/>
	<path d="M239.5,530h-3.5v-0.3l1.2-0.1v-8.8l-1.2-0.1v-0.3h3.5v0.3l-1.2,0.1v8.8l1.2,0.1V530z"/>
	<path d="M244.2,529.2c-0.3,0.5-0.9,0.9-1.8,0.9c-0.8,0-1.5-0.5-1.5-1.7v-4.2h-1v-0.3l1-0.4l0.8-1.9h0.3v2.1h1.8v0.4H242v4.1
		c0,0.9,0.4,1.2,1,1.2c0.5,0,0.8-0.3,1-0.5L244.2,529.2z"/>
	<path d="M250.5,529.4c-0.2,0.3-0.7,0.7-1.3,0.7s-1-0.4-1.1-0.9c-0.4,0.5-1.2,0.9-1.8,0.9c-1,0-1.8-0.7-1.8-1.6c0-1.1,0.9-1.7,2-1.9
		l1.5-0.3v-1.1c0-0.8-0.3-1.2-1.2-1.2c-0.7,0-1.3,0.5-1.7,1.1l-0.3-0.3c0.5-0.8,1.3-1.4,2.2-1.4c1.3,0,2,0.6,2,1.7v3.4
		c0,0.8,0.3,1,0.6,1c0.2,0,0.5-0.1,0.6-0.3L250.5,529.4z M248.1,528.9v-2.2l-1,0.2c-0.8,0.2-1.4,0.6-1.4,1.4c0,0.7,0.5,1.2,1.1,1.2
		C247.3,529.5,247.8,529.3,248.1,528.9z"/>
	<path d="M253.6,530h-3v-0.3l1-0.1v-9.4l-1-0.2v-0.3l2.1-0.3v10.2l1,0.1V530z"/>
	<path d="M260.3,524l-0.7,0.2l-2.4,5.9l-1.3,3.8h-1l1.9-3.9l-2.3-5.8l-0.7-0.1v-0.3h2.9v0.3l-1,0.1l1.7,4.6l1.7-4.5l-1-0.1v-0.3h2.3
		V524z"/>
	<path d="M261.7,529.8c0,1.1-0.7,1.8-1.6,2.1l-0.2-0.4c0.7-0.2,1.2-0.7,1.2-1.5l-1.2-0.5c-0.1-0.1-0.1-0.3-0.1-0.4
		c0-0.4,0.3-0.7,0.8-0.7C261.2,528.5,261.7,529.1,261.7,529.8z"/>
	<path d="M269.8,529.2c-0.3,0.5-0.9,0.9-1.8,0.9c-0.8,0-1.5-0.5-1.5-1.7v-4.2h-1v-0.3l1-0.4l0.8-1.9h0.3v2.1h1.8v0.4h-1.8v4.1
		c0,0.9,0.4,1.2,1,1.2c0.5,0,0.8-0.3,1-0.5L269.8,529.2z"/>
	<path d="M276.3,526.8c0,2-1.4,3.3-3.1,3.3s-3.1-1.3-3.1-3.3c0-2,1.4-3.3,3.1-3.3S276.3,524.8,276.3,526.8z M275.1,526.8
		c0-1.8-0.7-3-1.9-3s-1.9,1.1-1.9,3s0.7,3,1.9,3S275.1,528.7,275.1,526.8z"/>
	<path d="M284.7,523.9l-0.4,0.9c-0.2-0.1-0.9-0.5-1.1-0.5c-0.7,0-1.2,1-1.2,2.4v3l1.4,0.1v0.3H280v-0.3l1-0.1v-5.3l-1-0.2v-0.3
		l2-0.3v1.6h0c0.3-1.2,1.1-1.7,1.8-1.7C284.1,523.5,284.5,523.7,284.7,523.9z"/>
	<path d="M290.5,526.3h-4.3c0,0.1,0,0.3,0,0.4c0,1.8,0.9,2.9,2.1,2.9c1,0,1.5-0.4,1.9-0.9l0.3,0.3c-0.3,0.5-1,1.2-2.4,1.2
		c-1.8,0-3.1-1.4-3.1-3.3c0-2,1.5-3.3,3-3.3s2.5,1,2.5,2.5V526.3z M289.3,525.9c0-1-0.3-2.1-1.4-2.1c-0.9,0-1.5,0.9-1.7,2.1H289.3z"
		/>
	<path d="M297.7,526.6c0,2.1-1.4,3.5-3.1,3.5c-0.7,0-1.1-0.2-1.5-0.4v3.7l1.4,0.1v0.3h-3.4v-0.3l1-0.1v-9.1l-1-0.2v-0.3l2-0.3v1h0
		c0.4-0.6,1.1-1.1,2-1.1C296.5,523.5,297.7,524.6,297.7,526.6z M296.6,526.7c0-1.6-0.6-2.7-1.8-2.7c-0.8,0-1.4,0.5-1.6,1.1v4
		c0.3,0.3,0.9,0.6,1.3,0.6C296,529.7,296.6,528.2,296.6,526.7z"/>
	<path d="M301.4,530h-3v-0.3l1-0.1v-9.4l-1-0.2v-0.3l2.1-0.3v10.2l1,0.1V530z"/>
	<path d="M308,529.4c-0.2,0.3-0.7,0.7-1.3,0.7s-1-0.4-1.1-0.9c-0.5,0.5-1.2,0.9-1.8,0.9c-1,0-1.8-0.7-1.8-1.6c0-1.1,0.9-1.7,2-1.9
		l1.5-0.3v-1.1c0-0.8-0.3-1.2-1.2-1.2c-0.7,0-1.3,0.5-1.7,1.1l-0.3-0.3c0.5-0.8,1.3-1.4,2.2-1.4c1.4,0,2,0.6,2,1.7v3.4
		c0,0.8,0.3,1,0.6,1c0.2,0,0.5-0.1,0.6-0.3L308,529.4z M305.5,528.9v-2.2l-1,0.2c-0.8,0.2-1.4,0.6-1.4,1.4c0,0.7,0.5,1.2,1.1,1.2
		C304.7,529.5,305.2,529.3,305.5,528.9z"/>
	<path d="M313.6,529c-0.3,0.5-1,1.2-2.4,1.2c-1.7,0-3.1-1.4-3.1-3.4c0-2,1.5-3.3,3.1-3.3c0.7,0,1.2,0.1,1.8,0.4l0.2-0.4h0.3
		l-0.1,1.8h-0.3c-0.2-0.9-0.8-1.5-1.8-1.5c-1.2,0-2,1.1-2,2.8c0,1.7,0.9,2.9,2.1,2.9c1,0,1.5-0.4,1.9-0.9L313.6,529z"/>
	<path d="M319.8,526.3h-4.3c0,0.1,0,0.3,0,0.4c0,1.8,0.9,2.9,2.1,2.9c1,0,1.5-0.4,1.9-0.9l0.3,0.3c-0.3,0.5-1,1.2-2.4,1.2
		c-1.8,0-3.1-1.4-3.1-3.3c0-2,1.5-3.3,3-3.3s2.5,1,2.5,2.5V526.3z M318.6,525.9c0-1-0.3-2.1-1.4-2.1c-0.9,0-1.5,0.9-1.7,2.1H318.6z"
		/>
	<path d="M228,546.8l-2,0.3v-1l0,0c-0.4,0.6-0.9,1-1.9,1c-1.3,0-2.7-1.1-2.7-3.1c0-2.1,1.3-3.5,3-3.5c0.8,0,1.3,0.3,1.6,0.6v-4
		l-1-0.2v-0.3l2.1-0.3v10l1,0.2V546.8z M226,545.5v-3.7c-0.3-0.5-0.9-0.9-1.5-0.9c-1.4,0-1.9,1.5-1.9,3c0,1.6,0.7,2.7,1.9,2.7
		C225.4,546.6,225.8,546,226,545.5z"/>
	<path d="M234.7,543.8c0,2-1.4,3.3-3.1,3.3s-3.1-1.3-3.1-3.3c0-2,1.4-3.3,3.1-3.3S234.7,541.8,234.7,543.8z M233.5,543.8
		c0-1.8-0.7-3-1.9-3s-1.9,1.1-1.9,3s0.7,3,1.9,3S233.5,545.7,233.5,543.8z"/>
	<path d="M240.9,546c-0.3,0.5-1,1.2-2.4,1.2c-1.7,0-3.1-1.4-3.1-3.4c0-2,1.5-3.3,3.1-3.3c0.7,0,1.2,0.1,1.8,0.4l0.2-0.4h0.3
		l-0.1,1.8h-0.3c-0.2-0.9-0.8-1.5-1.8-1.5c-1.2,0-2,1.1-2,2.8c0,1.7,0.9,2.9,2.1,2.9c1,0,1.5-0.4,1.9-0.9L240.9,546z"/>
	<path d="M248.4,546.8l-2,0.3v-1.6h0c-0.4,1.1-1.2,1.7-2.2,1.7c-1.2,0-1.9-0.8-1.9-2v-4l-1-0.2v-0.3h2.1v5.3
		c0.2,0.4,0.5,0.6,1.1,0.6c1.2,0,1.9-1.2,1.9-2.7v-2.7l-1.1-0.2v-0.3h2.2v5.7l1,0.2V546.8z"/>
	<path d="M259.7,547h-3.1v-0.3l1.1-0.1v-5c-0.2-0.4-0.4-0.6-1-0.6c-1,0-1.8,1.1-1.8,2.7v2.9l1.1,0.1v0.3h-3.2v-0.3l1.1-0.1v-5
		c-0.2-0.4-0.4-0.6-1-0.6c-1,0-1.8,1.1-1.8,2.7v2.9l1.1,0.1v0.3h-3.1v-0.3l1-0.1v-5.3l-1-0.2v-0.3l2-0.3v1.6h0
		c0.3-0.9,1.1-1.7,2.1-1.7c1,0,1.6,0.6,1.8,1.7h0c0.3-1,1.1-1.7,2.1-1.7c1.1,0,1.8,0.8,1.8,2v4.1l1,0.1V547z"/>
	<path d="M265.8,543.3h-4.3c0,0.1,0,0.3,0,0.4c0,1.8,0.9,2.9,2.1,2.9c1,0,1.5-0.4,1.9-0.9l0.3,0.3c-0.3,0.5-1,1.2-2.4,1.2
		c-1.8,0-3.1-1.4-3.1-3.3c0-2,1.5-3.3,3-3.3s2.5,1,2.5,2.5V543.3z M264.6,542.9c0-1-0.3-2.1-1.4-2.1c-0.9,0-1.5,0.9-1.7,2.1H264.6z"
		/>
	<path d="M273.6,547h-3.1v-0.3l1.1-0.1v-5c-0.1-0.4-0.6-0.6-1.1-0.6c-1.2,0-1.9,1.2-1.9,2.7v2.9l1.1,0.1v0.3h-3.1v-0.3l1-0.1v-5.3
		l-1-0.2v-0.3l2-0.3v1.6h0c0.4-1.1,1.2-1.7,2.2-1.7c1.2,0,1.9,0.8,1.9,2v4.1l1,0.1V547z"/>
	<path d="M278.2,546.2c-0.3,0.5-0.9,0.9-1.8,0.9c-0.8,0-1.5-0.5-1.5-1.7v-4.2h-1v-0.3l1-0.4l0.8-1.9h0.3v2.1h1.8v0.4H276v4.1
		c0,0.9,0.4,1.2,1,1.2c0.5,0,0.8-0.3,1-0.5L278.2,546.2z"/>
	<path d="M283,545.2c0,1-0.8,1.9-2.1,1.9c-0.6,0-1.1-0.1-1.5-0.4l-0.1,0.4h-0.3l-0.1-2l0.3,0c0.2,1.1,0.8,1.6,1.7,1.6
		c0.7,0,1.2-0.5,1.2-1.2c0-0.8-0.7-1.1-1.4-1.4c-0.8-0.3-1.7-0.8-1.7-1.9c0-1,0.8-1.8,1.9-1.8c0.6,0,1,0.1,1.4,0.4l0.2-0.3h0.3
		l0,1.7h-0.3c-0.2-0.9-0.6-1.4-1.5-1.4c-0.7,0-1.1,0.5-1.1,1c0,0.8,0.7,1.1,1.4,1.4C282.1,543.7,283,544.1,283,545.2z"/>
	<path d="M290.9,546.2c-0.3,0.5-0.9,0.9-1.8,0.9c-0.8,0-1.5-0.5-1.5-1.7v-4.2h-1v-0.3l1-0.4l0.8-1.9h0.3v2.1h1.8v0.4h-1.8v4.1
		c0,0.9,0.4,1.2,1,1.2c0.5,0,0.8-0.3,1-0.5L290.9,546.2z"/>
	<path d="M295.9,540.9l-0.4,0.9c-0.2-0.1-0.9-0.5-1.1-0.5c-0.7,0-1.2,1-1.2,2.4v3l1.4,0.1v0.3h-3.4v-0.3l1-0.1v-5.3l-1-0.2v-0.3
		l2-0.3v1.6h0c0.3-1.2,1.1-1.7,1.8-1.7C295.3,540.5,295.7,540.7,295.9,540.9z"/>
	<path d="M302.2,546.4c-0.2,0.3-0.7,0.7-1.3,0.7s-1-0.4-1.1-0.9c-0.4,0.5-1.2,0.9-1.8,0.9c-1,0-1.8-0.7-1.8-1.6c0-1.1,0.9-1.7,2-1.9
		l1.5-0.3v-1.1c0-0.8-0.3-1.2-1.2-1.2c-0.7,0-1.3,0.5-1.7,1.1l-0.3-0.3c0.5-0.8,1.3-1.4,2.2-1.4c1.3,0,2,0.6,2,1.7v3.4
		c0,0.8,0.3,1,0.6,1c0.2,0,0.5-0.1,0.6-0.3L302.2,546.4z M299.8,545.9v-2.2l-1,0.2c-0.8,0.2-1.4,0.6-1.4,1.4c0,0.7,0.5,1.2,1.1,1.2
		C298.9,546.5,299.4,546.3,299.8,545.9z"/>
	<path d="M309,546.8l-2,0.3v-1l0,0c-0.4,0.6-0.9,1-1.9,1c-1.3,0-2.7-1.1-2.7-3.1c0-2.1,1.3-3.5,3-3.5c0.8,0,1.3,0.3,1.6,0.6v-4
		l-1-0.2v-0.3l2.1-0.3v10l1,0.2V546.8z M307,545.5v-3.7c-0.3-0.5-0.9-0.9-1.5-0.9c-1.4,0-1.9,1.5-1.9,3c0,1.6,0.7,2.7,1.9,2.7
		C306.3,546.6,306.8,546,307,545.5z"/>
	<path d="M312.6,547h-3v-0.3l1-0.1v-5.3l-1-0.2v-0.3l2.1-0.3v6.1l1,0.1V547z M311.7,538.2c0,0.4-0.3,0.7-0.7,0.7s-0.7-0.3-0.7-0.7
		s0.3-0.7,0.7-0.7S311.7,537.9,311.7,538.2z"/>
	<path d="M317.3,546.2c-0.3,0.5-0.9,0.9-1.8,0.9c-0.8,0-1.5-0.5-1.5-1.7v-4.2h-1v-0.3l1-0.4l0.8-1.9h0.3v2.1h1.8v0.4h-1.8v4.1
		c0,0.9,0.4,1.2,1,1.2c0.5,0,0.8-0.3,1-0.5L317.3,546.2z"/>
	<path d="M320.7,547h-3v-0.3l1-0.1v-5.3l-1-0.2v-0.3l2.1-0.3v6.1l1,0.1V547z M319.8,538.2c0,0.4-0.3,0.7-0.7,0.7s-0.7-0.3-0.7-0.7
		s0.3-0.7,0.7-0.7S319.8,537.9,319.8,538.2z"/>
	<path d="M327.5,543.8c0,2-1.4,3.3-3.1,3.3c-1.7,0-3.1-1.3-3.1-3.3c0-2,1.4-3.3,3.1-3.3C326.1,540.5,327.5,541.8,327.5,543.8z
		 M326.3,543.8c0-1.8-0.7-3-1.9-3s-1.9,1.1-1.9,3s0.7,3,1.9,3S326.3,545.7,326.3,543.8z"/>
	<path d="M335.3,547h-3.1v-0.3l1.1-0.1v-5c-0.1-0.4-0.6-0.6-1.1-0.6c-1.2,0-1.9,1.2-1.9,2.7v2.9l1.1,0.1v0.3h-3.1v-0.3l1-0.1v-5.3
		l-1-0.2v-0.3l2-0.3v1.6h0c0.4-1.1,1.2-1.7,2.2-1.7c1.2,0,1.9,0.8,1.9,2v4.1l1,0.1V547z"/>
	<path d="M341.8,546.4c-0.2,0.3-0.7,0.7-1.3,0.7s-1-0.4-1.1-0.9c-0.4,0.5-1.2,0.9-1.8,0.9c-1,0-1.8-0.7-1.8-1.6c0-1.1,0.9-1.7,2-1.9
		l1.5-0.3v-1.1c0-0.8-0.3-1.2-1.2-1.2c-0.7,0-1.3,0.5-1.7,1.1l-0.3-0.3c0.5-0.8,1.3-1.4,2.2-1.4c1.3,0,2,0.6,2,1.7v3.4
		c0,0.8,0.3,1,0.6,1c0.2,0,0.5-0.1,0.6-0.3L341.8,546.4z M339.3,545.9v-2.2l-1,0.2c-0.8,0.2-1.4,0.6-1.4,1.4c0,0.7,0.5,1.2,1.1,1.2
		C338.5,546.5,339,546.3,339.3,545.9z"/>
	<path d="M344.9,547h-3v-0.3l1-0.1v-9.4l-1-0.2v-0.3l2.1-0.3v10.2l1,0.1V547z"/>
	<path d="M348.4,547h-3v-0.3l1-0.1v-9.4l-1-0.2v-0.3l2.1-0.3v10.2l1,0.1V547z"/>
	<path d="M355,541l-0.7,0.2l-2.4,5.9l-1.3,3.8h-1l1.9-3.9l-2.3-5.8l-0.7-0.1v-0.3h2.9v0.3l-1,0.1l1.7,4.6l1.7-4.5l-1-0.1v-0.3h2.3
		V541z"/>
	<path d="M231.3,558l-0.7,0.2l-2.5,6H228l-1.8-4.5l-1.8,4.5h-0.2l-2.5-6.1l-0.7-0.1v-0.3h2.9v0.3l-1,0.1l1.7,4.3l1.3-3.3l-0.4-1
		l-0.7-0.1v-0.3h2.9v0.3l-1,0.1v0.1l1.7,4.3l1.7-4.3l-1-0.1v-0.3h2.3V558z"/>
	<path d="M236.4,557.9l-0.4,0.9c-0.2-0.1-0.9-0.5-1.1-0.5c-0.7,0-1.2,1-1.2,2.4v3l1.4,0.1v0.3h-3.4v-0.3l1-0.1v-5.3l-1-0.2v-0.3
		l2-0.3v1.6h0c0.3-1.2,1.1-1.7,1.8-1.7C235.8,557.5,236.2,557.7,236.4,557.9z"/>
	<path d="M239.9,564h-3v-0.3l1-0.1v-5.3l-1-0.2v-0.3l2.1-0.3v6.1l1,0.1V564z M239,555.2c0,0.4-0.3,0.7-0.7,0.7s-0.7-0.3-0.7-0.7
		s0.3-0.7,0.7-0.7S239,554.9,239,555.2z"/>
	<path d="M244.6,563.2c-0.3,0.5-0.9,0.9-1.8,0.9c-0.8,0-1.5-0.5-1.5-1.7v-4.2h-1v-0.3l1-0.4l0.8-1.9h0.3v2.1h1.8v0.4h-1.8v4.1
		c0,0.9,0.4,1.2,1,1.2c0.5,0,0.8-0.3,1-0.5L244.6,563.2z"/>
	<path d="M248.9,563.2c-0.3,0.5-0.9,0.9-1.8,0.9c-0.8,0-1.5-0.5-1.5-1.7v-4.2h-1v-0.3l1-0.4l0.8-1.9h0.3v2.1h1.8v0.4h-1.8v4.1
		c0,0.9,0.4,1.2,1,1.2c0.5,0,0.8-0.3,1-0.5L248.9,563.2z"/>
	<path d="M254.7,560.3h-4.3c0,0.1,0,0.3,0,0.4c0,1.8,0.9,2.9,2.1,2.9c1,0,1.5-0.4,1.9-0.9l0.3,0.3c-0.3,0.5-1,1.2-2.4,1.2
		c-1.8,0-3.1-1.4-3.1-3.3c0-2,1.5-3.3,3-3.3s2.5,1,2.5,2.5V560.3z M253.5,559.9c0-1-0.3-2.1-1.4-2.1c-0.9,0-1.5,0.9-1.7,2.1H253.5z"
		/>
	<path d="M262.5,564h-3.1v-0.3l1.1-0.1v-5c-0.2-0.4-0.6-0.6-1.1-0.6c-1.2,0-1.9,1.2-1.9,2.7v2.9l1.1,0.1v0.3h-3.1v-0.3l1-0.1v-5.3
		l-1-0.2v-0.3l2-0.3v1.6h0c0.4-1.1,1.2-1.7,2.2-1.7c1.2,0,1.9,0.8,1.9,2v4.1l1,0.1V564z"/>
	<path d="M269.1,564h-3v-0.3l1-0.1v-5.3l-1-0.2v-0.3l2.1-0.3v6.1l1,0.1V564z M268.2,555.2c0,0.4-0.3,0.7-0.7,0.7s-0.7-0.3-0.7-0.7
		s0.3-0.7,0.7-0.7S268.2,554.9,268.2,555.2z"/>
	<path d="M276.8,564h-3.1v-0.3l1.1-0.1v-5c-0.1-0.4-0.6-0.6-1.1-0.6c-1.2,0-1.9,1.2-1.9,2.7v2.9l1.1,0.1v0.3h-3.1v-0.3l1-0.1v-5.3
		l-1-0.2v-0.3l2-0.3v1.6h0c0.4-1.1,1.2-1.7,2.2-1.7c1.2,0,1.9,0.8,1.9,2v4.1l1,0.1V564z"/>
	<path d="M286.3,563.4c-0.2,0.3-0.7,0.7-1.3,0.7s-1-0.4-1.1-0.9c-0.4,0.5-1.2,0.9-1.8,0.9c-1,0-1.8-0.7-1.8-1.6c0-1.1,0.9-1.7,2-1.9
		l1.5-0.3v-1.1c0-0.8-0.3-1.2-1.2-1.2c-0.7,0-1.3,0.5-1.7,1.1l-0.3-0.3c0.5-0.8,1.3-1.4,2.2-1.4c1.3,0,2,0.6,2,1.7v3.4
		c0,0.8,0.3,1,0.6,1c0.2,0,0.5-0.1,0.6-0.3L286.3,563.4z M283.8,562.9v-2.2l-1,0.2c-0.8,0.2-1.4,0.6-1.4,1.4c0,0.7,0.5,1.2,1.1,1.2
		C283,563.5,283.5,563.3,283.8,562.9z"/>
	<path d="M296.4,564h-3.1v-0.3l1.1-0.1v-5c-0.2-0.4-0.6-0.6-1.1-0.6c-1.2,0-1.9,1.2-1.9,2.7v2.9l1.1,0.1v0.3h-3.1v-0.3l1-0.1v-9.4
		l-1-0.2v-0.3l2.1-0.3v5.7c0.4-1,1.1-1.6,2.2-1.6c1.2,0,1.9,0.8,1.9,2v4.1l1,0.1V564z"/>
	<path d="M302.9,563.4c-0.2,0.3-0.7,0.7-1.3,0.7s-1-0.4-1.1-0.9c-0.4,0.5-1.2,0.9-1.8,0.9c-1,0-1.8-0.7-1.8-1.6c0-1.1,0.9-1.7,2-1.9
		l1.5-0.3v-1.1c0-0.8-0.3-1.2-1.2-1.2c-0.7,0-1.3,0.5-1.7,1.1l-0.3-0.3c0.5-0.8,1.3-1.4,2.2-1.4c1.3,0,2,0.6,2,1.7v3.4
		c0,0.8,0.3,1,0.6,1c0.2,0,0.5-0.1,0.6-0.3L302.9,563.4z M300.4,562.9v-2.2l-1,0.2c-0.8,0.2-1.4,0.6-1.4,1.4c0,0.7,0.5,1.2,1.1,1.2
		C299.6,563.5,300.1,563.3,300.4,562.9z"/>
	<path d="M310.1,564H307v-0.3l1.1-0.1v-5c-0.1-0.4-0.6-0.6-1.1-0.6c-1.2,0-1.9,1.2-1.9,2.7v2.9l1.1,0.1v0.3H303v-0.3l1-0.1v-5.3
		l-1-0.2v-0.3l2-0.3v1.6h0c0.4-1.1,1.2-1.7,2.2-1.7c1.2,0,1.9,0.8,1.9,2v4.1l1,0.1V564z"/>
	<path d="M317.3,563.8l-2,0.3v-1l0,0c-0.4,0.6-0.9,1-1.9,1c-1.3,0-2.7-1.1-2.7-3.1c0-2.1,1.3-3.5,3-3.5c0.8,0,1.3,0.3,1.6,0.6v-4
		l-1-0.2v-0.3l2.1-0.3v10l1,0.2V563.8z M315.2,562.5v-3.7c-0.3-0.5-0.9-0.9-1.5-0.9c-1.4,0-1.9,1.5-1.9,3c0,1.6,0.7,2.7,1.9,2.7
		C314.6,563.6,315,563,315.2,562.5z"/>
	<path d="M327.5,558l-0.7,0.2l-2.5,6h-0.2l-1.8-4.5l-1.8,4.5h-0.2l-2.5-6.1l-0.7-0.1v-0.3h2.9v0.3l-1,0.1l1.7,4.3l1.3-3.3l-0.4-1
		L321,558v-0.3h2.9v0.3l-1,0.1v0.1l1.7,4.3l1.7-4.3l-1-0.1v-0.3h2.3V558z"/>
	<path d="M332.5,557.9l-0.4,0.9c-0.2-0.1-0.9-0.5-1.1-0.5c-0.7,0-1.2,1-1.2,2.4v3l1.4,0.1v0.3h-3.4v-0.3l1-0.1v-5.3l-1-0.2v-0.3
		l2-0.3v1.6h0c0.3-1.2,1.1-1.7,1.8-1.7C332,557.5,332.3,557.7,332.5,557.9z"/>
	<path d="M336.1,564h-3v-0.3l1-0.1v-5.3l-1-0.2v-0.3l2.1-0.3v6.1l1,0.1V564z M335.1,555.2c0,0.4-0.3,0.7-0.7,0.7s-0.7-0.3-0.7-0.7
		s0.3-0.7,0.7-0.7S335.1,554.9,335.1,555.2z"/>
	<path d="M340.8,563.2c-0.3,0.5-0.9,0.9-1.8,0.9c-0.8,0-1.5-0.5-1.5-1.7v-4.2h-1v-0.3l1-0.4l0.8-1.9h0.3v2.1h1.8v0.4h-1.8v4.1
		c0,0.9,0.4,1.2,1,1.2c0.5,0,0.8-0.3,1-0.5L340.8,563.2z"/>
	<path d="M344.2,564h-3v-0.3l1-0.1v-5.3l-1-0.2v-0.3l2.1-0.3v6.1l1,0.1V564z M343.3,555.2c0,0.4-0.3,0.7-0.7,0.7s-0.7-0.3-0.7-0.7
		s0.3-0.7,0.7-0.7S343.3,554.9,343.3,555.2z"/>
	<path d="M351.9,564h-3.1v-0.3l1.1-0.1v-5c-0.2-0.4-0.6-0.6-1.1-0.6c-1.2,0-1.9,1.2-1.9,2.7v2.9l1.1,0.1v0.3h-3.1v-0.3l1-0.1v-5.3
		l-1-0.2v-0.3l2-0.3v1.6h0c0.4-1.1,1.2-1.7,2.2-1.7c1.2,0,1.9,0.8,1.9,2v4.1l1,0.1V564z"/>
	<path d="M358.4,558.3l-1.7-0.2l0,0c0.5,0.4,0.8,1,0.8,1.6c0,1.5-1.3,2.3-2.5,2.4c-1,0.1-1.4,0.5-1.4,0.9c0,0.2,0.1,0.3,0.2,0.4
		l2.8,0.3c0.8,0.1,1.7,0.6,1.7,1.6c0,1.6-1.4,2.6-3.5,2.6c-1.3,0-2.7-0.7-2.7-2c0-0.8,0.5-1.3,1.2-1.7c-0.3-0.2-0.5-0.5-0.5-0.9
		c0-0.5,0.4-1,1.3-1.3v0c-0.9-0.3-1.6-1.1-1.6-2.2c0-1.4,1.2-2.4,2.5-2.4c0.5,0,1,0.2,1.4,0.4l2-0.4V558.3z M357.4,565.8
		c0-0.6-0.4-1-1.1-1.1l-2.8-0.3c-0.4,0.2-0.6,0.8-0.6,1.3c0,0.9,0.7,1.9,2.3,1.9C356.1,567.6,357.4,567,357.4,565.8z M356.4,559.9
		c0-1.2-0.6-2-1.4-2c-0.9,0-1.4,0.8-1.4,2s0.6,2,1.4,2C355.8,561.9,356.4,561,356.4,559.9z"/>
	<path d="M225.7,579.2c0,1-0.8,1.9-2.1,1.9c-0.6,0-1.1-0.1-1.5-0.4l-0.2,0.4h-0.3l-0.1-2l0.3,0c0.2,1.1,0.8,1.6,1.7,1.6
		c0.7,0,1.2-0.5,1.2-1.2c0-0.8-0.7-1.1-1.4-1.4c-0.8-0.3-1.7-0.8-1.7-1.9c0-1,0.8-1.8,1.9-1.8c0.6,0,1,0.1,1.4,0.4l0.2-0.3h0.3
		l0,1.7h-0.3c-0.1-0.9-0.6-1.4-1.5-1.4c-0.7,0-1.1,0.5-1.1,1c0,0.8,0.7,1.1,1.4,1.4C224.9,577.7,225.7,578.1,225.7,579.2z"/>
	<path d="M230.7,580.2c-0.3,0.5-0.9,0.9-1.8,0.9c-0.8,0-1.5-0.5-1.5-1.7v-4.2h-1v-0.3l1-0.4l0.8-1.9h0.3v2.1h1.8v0.4h-1.8v4.1
		c0,0.9,0.4,1.2,1,1.2c0.5,0,0.8-0.3,1-0.5L230.7,580.2z"/>
	<path d="M237.1,575l-0.7,0.2l-2.4,5.9l-1.3,3.8h-1l1.9-3.9l-2.3-5.8l-0.7-0.1v-0.3h2.9v0.3l-1,0.1l1.7,4.6l1.7-4.5l-1-0.1v-0.3h2.3
		V575z"/>
	<path d="M240.2,581h-3v-0.3l1-0.1v-9.4l-1-0.2v-0.3l2.1-0.3v10.2l1,0.1V581z"/>
	<path d="M246.4,577.3H242c0,0.1,0,0.3,0,0.4c0,1.8,0.9,2.9,2.1,2.9c1,0,1.5-0.4,1.9-0.9l0.3,0.3c-0.3,0.5-1,1.2-2.4,1.2
		c-1.8,0-3.1-1.4-3.1-3.3c0-2,1.5-3.3,3-3.3s2.5,1,2.5,2.5V577.3z M245.2,576.9c0-1-0.3-2.1-1.4-2.1c-0.9,0-1.5,0.9-1.7,2.1H245.2z"
		/>
	<path d="M255.6,580c-0.3,0.5-1,1.2-2.4,1.2c-1.7,0-3.1-1.4-3.1-3.4c0-2,1.5-3.3,3.1-3.3c0.7,0,1.2,0.1,1.8,0.4l0.2-0.4h0.3
		l-0.1,1.8h-0.3c-0.2-0.9-0.8-1.5-1.8-1.5c-1.2,0-2,1.1-2,2.8c0,1.7,0.9,2.9,2.1,2.9c1,0,1.5-0.4,1.9-0.9L255.6,580z"/>
	<path d="M262.3,580.4c-0.2,0.3-0.7,0.7-1.3,0.7s-1-0.4-1.1-0.9c-0.5,0.5-1.2,0.9-1.8,0.9c-1,0-1.8-0.7-1.8-1.6c0-1.1,0.9-1.7,2-1.9
		l1.5-0.3v-1.1c0-0.8-0.3-1.2-1.2-1.2c-0.7,0-1.3,0.5-1.7,1.1l-0.3-0.3c0.5-0.8,1.3-1.4,2.2-1.4c1.4,0,2,0.6,2,1.7v3.4
		c0,0.8,0.3,1,0.6,1c0.2,0,0.5-0.1,0.6-0.3L262.3,580.4z M259.8,579.9v-2.2l-1,0.2c-0.8,0.2-1.4,0.6-1.4,1.4c0,0.7,0.5,1.2,1.1,1.2
		C259,580.5,259.5,580.3,259.8,579.9z"/>
	<path d="M265.4,581h-3v-0.3l1-0.1v-9.4l-1-0.2v-0.3l2.1-0.3v10.2l1,0.1V581z"/>
	<path d="M268.9,581h-3v-0.3l1-0.1v-9.4l-1-0.2v-0.3l2.1-0.3v10.2l1,0.1V581z"/>
	<path d="M275.1,577.3h-4.3c0,0.1,0,0.3,0,0.4c0,1.8,0.9,2.9,2.1,2.9c1,0,1.5-0.4,1.9-0.9l0.3,0.3c-0.3,0.5-1,1.2-2.4,1.2
		c-1.8,0-3.1-1.4-3.1-3.3c0-2,1.5-3.3,3-3.3s2.5,1,2.5,2.5V577.3z M273.9,576.9c0-1-0.3-2.1-1.4-2.1c-0.9,0-1.5,0.9-1.7,2.1H273.9z"
		/>
	<path d="M282.5,580.8l-2,0.3v-1l0,0c-0.4,0.6-0.9,1-1.9,1c-1.3,0-2.7-1.1-2.7-3.1c0-2.1,1.3-3.5,3-3.5c0.8,0,1.3,0.3,1.6,0.6v-4
		l-1-0.2v-0.3l2.1-0.3v10l1,0.2V580.8z M280.4,579.5v-3.7c-0.3-0.5-0.9-0.9-1.5-0.9c-1.4,0-1.9,1.5-1.9,3c0,1.6,0.7,2.7,1.9,2.7
		C279.8,580.6,280.2,580,280.4,579.5z"/>
	<path d="M291.5,580c-0.3,0.5-1,1.2-2.4,1.2c-1.7,0-3.1-1.4-3.1-3.4c0-2,1.5-3.3,3.1-3.3c0.7,0,1.2,0.1,1.8,0.4l0.2-0.4h0.3
		l-0.1,1.8h-0.3c-0.2-0.9-0.8-1.5-1.8-1.5c-1.2,0-2,1.1-2,2.8c0,1.7,0.9,2.9,2.1,2.9c1,0,1.5-0.4,1.9-0.9L291.5,580z"/>
	<path d="M299.1,581H296v-0.3l1.1-0.1v-5c-0.2-0.4-0.6-0.6-1.1-0.6c-1.2,0-1.9,1.2-1.9,2.7v2.9l1.1,0.1v0.3H292v-0.3l1-0.1v-9.4
		l-1-0.2v-0.3l2.1-0.3v5.7c0.4-1,1.1-1.6,2.2-1.6c1.2,0,1.9,0.8,1.9,2v4.1l1,0.1V581z"/>
	<path d="M305.6,580.4c-0.2,0.3-0.7,0.7-1.3,0.7s-1-0.4-1.1-0.9c-0.4,0.5-1.2,0.9-1.8,0.9c-1,0-1.8-0.7-1.8-1.6c0-1.1,0.9-1.7,2-1.9
		l1.5-0.3v-1.1c0-0.8-0.3-1.2-1.2-1.2c-0.7,0-1.3,0.5-1.7,1.1l-0.3-0.3c0.5-0.8,1.3-1.4,2.2-1.4c1.3,0,2,0.6,2,1.7v3.4
		c0,0.8,0.3,1,0.6,1c0.2,0,0.5-0.1,0.6-0.3L305.6,580.4z M303.1,579.9v-2.2l-1,0.2c-0.8,0.2-1.4,0.6-1.4,1.4c0,0.7,0.5,1.2,1.1,1.2
		C302.3,580.5,302.8,580.3,303.1,579.9z"/>
	<path d="M312.8,581h-3.1v-0.3l1.1-0.1v-5c-0.1-0.4-0.6-0.6-1.1-0.6c-1.2,0-1.9,1.2-1.9,2.7v2.9l1.1,0.1v0.3h-3.1v-0.3l1-0.1v-5.3
		l-1-0.2v-0.3l2-0.3v1.6h0c0.4-1.1,1.2-1.7,2.2-1.7c1.2,0,1.9,0.8,1.9,2v4.1l1,0.1V581z"/>
	<path d="M318.8,580c-0.3,0.5-1,1.2-2.4,1.2c-1.7,0-3.1-1.4-3.1-3.4c0-2,1.5-3.3,3.1-3.3c0.7,0,1.2,0.1,1.8,0.4l0.2-0.4h0.3
		l-0.1,1.8h-0.3c-0.2-0.9-0.8-1.5-1.8-1.5c-1.2,0-2,1.1-2,2.8c0,1.7,0.9,2.9,2.1,2.9c1,0,1.5-0.4,1.9-0.9L318.8,580z"/>
	<path d="M324.9,577.3h-4.3c0,0.1,0,0.3,0,0.4c0,1.8,0.9,2.9,2.1,2.9c1,0,1.5-0.4,1.9-0.9l0.3,0.3c-0.3,0.5-1,1.2-2.4,1.2
		c-1.8,0-3.1-1.4-3.1-3.3c0-2,1.5-3.3,3-3.3s2.5,1,2.5,2.5V577.3z M323.8,576.9c0-1-0.3-2.1-1.4-2.1c-0.9,0-1.5,0.9-1.7,2.1H323.8z"
		/>
	<path d="M330.4,574.9l-0.4,0.9c-0.2-0.1-0.9-0.5-1.1-0.5c-0.7,0-1.2,1-1.2,2.4v3l1.4,0.1v0.3h-3.4v-0.3l1-0.1v-5.3l-1-0.2v-0.3
		l2-0.3v1.6h0c0.3-1.2,1.1-1.7,1.8-1.7C329.8,574.5,330.2,574.7,330.4,574.9z"/>
	<path d="M337.2,575l-0.7,0.2l-2.4,5.9l-1.3,3.8h-1l1.9-3.9l-2.3-5.8l-0.7-0.1v-0.3h2.9v0.3l-1,0.1l1.7,4.6l1.7-4.5l-1-0.1v-0.3h2.3
		V575z"/>
	<path d="M347.5,581h-3.1v-0.3l1.1-0.1v-5c-0.2-0.4-0.6-0.6-1.1-0.6c-1.2,0-1.9,1.2-1.9,2.7v2.9l1.1,0.1v0.3h-3.1v-0.3l1-0.1v-9.4
		l-1-0.2v-0.3l2.1-0.3v5.7c0.4-1,1.1-1.6,2.2-1.6c1.2,0,1.9,0.8,1.9,2v4.1l1,0.1V581z"/>
	<path d="M354,580.4c-0.2,0.3-0.7,0.7-1.3,0.7s-1-0.4-1.1-0.9c-0.4,0.5-1.2,0.9-1.8,0.9c-1,0-1.8-0.7-1.8-1.6c0-1.1,0.9-1.7,2-1.9
		l1.5-0.3v-1.1c0-0.8-0.3-1.2-1.2-1.2c-0.7,0-1.3,0.5-1.7,1.1l-0.3-0.3c0.5-0.8,1.3-1.4,2.2-1.4c1.3,0,2,0.6,2,1.7v3.4
		c0,0.8,0.3,1,0.6,1c0.2,0,0.5-0.1,0.6-0.3L354,580.4z M351.5,579.9v-2.2l-1,0.2c-0.8,0.2-1.4,0.6-1.4,1.4c0,0.7,0.5,1.2,1.1,1.2
		C350.7,580.5,351.2,580.3,351.5,579.9z"/>
	<path d="M361.2,581h-3.1v-0.3l1.1-0.1v-5c-0.1-0.4-0.6-0.6-1.1-0.6c-1.2,0-1.9,1.2-1.9,2.7v2.9l1.1,0.1v0.3h-3.1v-0.3l1-0.1v-5.3
		l-1-0.2v-0.3l2-0.3v1.6h0c0.4-1.1,1.2-1.7,2.2-1.7c1.2,0,1.9,0.8,1.9,2v4.1l1,0.1V581z"/>
	<path d="M368.4,580.8l-2,0.3v-1l0,0c-0.4,0.6-0.9,1-1.9,1c-1.3,0-2.7-1.1-2.7-3.1c0-2.1,1.3-3.5,3-3.5c0.8,0,1.3,0.3,1.6,0.6v-4
		l-1-0.2v-0.3l2.1-0.3v10l1,0.2V580.8z M366.3,579.5v-3.7c-0.3-0.5-0.9-0.9-1.5-0.9c-1.4,0-1.9,1.5-1.9,3c0,1.6,0.7,2.7,1.9,2.7
		C365.7,580.6,366.1,580,366.3,579.5z"/>
	<path d="M371,580.3c0,0.4-0.3,0.8-0.8,0.8c-0.4,0-0.8-0.3-0.8-0.8c0-0.4,0.3-0.8,0.8-0.8C370.6,579.6,371,579.9,371,580.3z"/>
</g>
<g>
	<path d="M395.2,90.7v3.6h-0.4l-0.1-1.4l-3,1.1v3.7l3,1.1l0.2-1.3h0.4v2.8h-0.4l-0.2-0.9l-9.8-3.7v-0.4l9.9-3.8l0.1-0.9H395.2z
		 M391.2,94.2l-4.5,1.7l4.5,1.7V94.2z"/>
	<path d="M395.2,87.2v3.2h-0.3l-0.1-1h-10.1l-0.2,1h-0.3l-0.3-2.2h10.9l0.1-1H395.2z"/>
	<path d="M395.2,83.5v3.2h-0.3l-0.1-1h-10.1l-0.2,1h-0.3l-0.3-2.2h10.9l0.1-1H395.2z"/>
	<path d="M394.4,75.2c0.5,0.4,0.9,0.9,0.9,1.9c0,0.9-0.6,1.6-1.8,1.6h-4.5v1.1h-0.3l-0.4-1l-2-0.8v-0.4h2.2v-2h0.5v2h4.4
		c0.9,0,1.3-0.4,1.3-1c0-0.5-0.3-0.9-0.6-1.1L394.4,75.2z"/>
	<path d="M388.7,69.9l1,0.4c-0.1,0.2-0.5,1-0.5,1.1c0,0.8,1.1,1.2,2.5,1.2h3.2l0.1-1.5h0.3v3.7h-0.3l-0.1-1h-5.6l-0.2,1h-0.3
		l-0.3-2.1h1.7v0c-1.2-0.4-1.8-1.1-1.8-2C388.3,70.5,388.5,70.1,388.7,69.9z"/>
	<path d="M388.8,62.6l0.2,0.8l6.3,2.5l4,1.4v1.1l-4.1-2l-6.2,2.5l-0.2,0.8h-0.3v-3.1h0.3l0.1,1.1l4.9-1.8L389,64l-0.2,1.1h-0.3v-2.4
		H388.8z"/>
	<path d="M395.2,59v3.2h-0.3l-0.1-1h-5.7l-0.2,1h-0.3l-0.4-2.2h6.5l0.1-1H395.2z M385.9,60c0.4,0,0.7,0.3,0.7,0.7
		c0,0.4-0.3,0.7-0.7,0.7s-0.7-0.3-0.7-0.7C385.2,60.3,385.5,60,385.9,60z"/>
	<path d="M395.2,50.8v3.3h-0.3l-0.1-1.2h-5.3c-0.4,0.2-0.6,0.6-0.6,1.2c0,1.3,1.3,2,2.9,2h3.1l0.1-1.2h0.3v3.3h-0.3l-0.1-1h-5.6
		l-0.2,1h-0.3l-0.3-2.1h1.7v0c-1.1-0.4-1.8-1.2-1.8-2.4c0-1.2,0.9-2,2.1-2h4.4l0.1-1H395.2z"/>
	<path d="M389.2,43.8l-0.2,1.8l0,0c0.4-0.6,1.1-0.8,1.8-0.8c1.6,0,2.4,1.3,2.5,2.7c0.1,1,0.5,1.5,1,1.5c0.2,0,0.3-0.1,0.4-0.2l0.3-3
		c0.1-0.8,0.6-1.8,1.7-1.8c1.7,0,2.8,1.5,2.8,3.7c0,1.4-0.8,2.8-2.2,2.8c-0.9,0-1.4-0.6-1.8-1.3c-0.2,0.3-0.6,0.5-1,0.5
		c-0.5,0-1.1-0.4-1.4-1.4h0c-0.4,1-1.2,1.7-2.4,1.7c-1.5,0-2.5-1.2-2.5-2.7c0-0.6,0.2-1.1,0.4-1.5l-0.4-2.1H389.2z M397.2,44.8
		c-0.7,0-1.1,0.4-1.2,1.1l-0.3,2.9c0.3,0.4,0.8,0.7,1.4,0.7c1,0,2-0.8,2-2.4C399.1,46.3,398.5,44.8,397.2,44.8z M390.8,45.9
		c-1.2,0-2.1,0.6-2.1,1.5c0,0.9,0.9,1.5,2.1,1.5c1.2,0,2.1-0.6,2.1-1.5C393,46.5,392.1,45.9,390.8,45.9z"/>
	<path d="M394.5,41.5c0.5,0,0.8,0.4,0.8,0.8s-0.4,0.8-0.8,0.8s-0.8-0.4-0.8-0.8S394.1,41.5,394.5,41.5z"/>
</g>
</svg>
