<?xml version="1.0" encoding="utf-8"?>
<!-- Generator: Adobe Illustrator 24.1.0, SVG Export Plug-In . SVG Version: 6.00 Build 0)  -->
<svg version="1.1" id="Layer_1" xmlns="http://www.w3.org/2000/svg" xmlns:xlink="http://www.w3.org/1999/xlink" x="0px" y="0px"
	 viewBox="0 0 437 643" style="enable-background:new 0 0 437 643;" xml:space="preserve">
<style type="text/css">
	.st0{fill:#FFFFFF;}
	.st1{fill:#D1D7ED;}
	.st2{fill:#EB5E5E;}
</style>
<rect class="st0" width="437" height="643"/>
<rect y="133.9" class="st1" width="437" height="219.4"/>
<g>
	<path d="M395.2,90.7v3.6h-0.4l-0.1-1.4l-3,1.1v3.7l3,1.1l0.2-1.3h0.4v2.8h-0.4l-0.2-0.9l-9.8-3.7v-0.4l9.9-3.8l0.1-0.9H395.2z
		 M391.2,94.2l-4.5,1.7l4.5,1.7V94.2z"/>
	<path d="M395.2,87.2v3.2h-0.3l-0.1-1h-10.1l-0.2,1h-0.3l-0.3-2.2h10.9l0.1-1H395.2z"/>
	<path d="M395.2,83.5v3.2h-0.3l-0.1-1h-10.1l-0.2,1h-0.3l-0.3-2.2h10.9l0.1-1H395.2z"/>
	<path d="M394.4,75.2c0.5,0.4,0.9,0.9,0.9,1.9c0,0.9-0.6,1.6-1.8,1.6h-4.5v1.1h-0.3l-0.4-1l-2-0.8v-0.4h2.2v-2h0.5v2h4.4
		c0.9,0,1.3-0.4,1.3-1c0-0.5-0.3-0.9-0.6-1.1L394.4,75.2z"/>
	<path d="M388.7,69.9l1,0.4c-0.1,0.2-0.5,1-0.5,1.1c0,0.8,1.1,1.2,2.5,1.2h3.2l0.1-1.5h0.3v3.7h-0.3l-0.1-1h-5.6l-0.2,1h-0.3
		l-0.3-2.1h1.7v0c-1.2-0.4-1.8-1.1-1.8-2C388.3,70.5,388.5,70.1,388.7,69.9z"/>
	<path d="M388.8,62.6l0.2,0.8l6.3,2.5l4,1.4v1.1l-4.1-2l-6.2,2.5l-0.2,0.8h-0.3v-3.1h0.3l0.1,1.1l4.9-1.8L389,64l-0.2,1.1h-0.3v-2.4
		H388.8z"/>
	<path d="M395.2,59v3.2h-0.3l-0.1-1h-5.7l-0.2,1h-0.3l-0.4-2.2h6.5l0.1-1H395.2z M385.9,60c0.4,0,0.7,0.3,0.7,0.7
		c0,0.4-0.3,0.7-0.7,0.7s-0.7-0.3-0.7-0.7C385.2,60.3,385.5,60,385.9,60z"/>
	<path d="M395.2,50.8v3.3h-0.3l-0.1-1.2h-5.3c-0.4,0.2-0.6,0.6-0.6,1.2c0,1.3,1.3,2,2.9,2h3.1l0.1-1.2h0.3v3.3h-0.3l-0.1-1h-5.6
		l-0.2,1h-0.3l-0.3-2.1h1.7v0c-1.1-0.4-1.8-1.2-1.8-2.4c0-1.2,0.9-2,2.1-2h4.4l0.1-1H395.2z"/>
	<path d="M389.2,43.8l-0.2,1.8l0,0c0.4-0.6,1.1-0.8,1.8-0.8c1.6,0,2.4,1.3,2.5,2.7c0.1,1,0.5,1.5,1,1.5c0.2,0,0.3-0.1,0.4-0.2l0.3-3
		c0.1-0.8,0.6-1.8,1.7-1.8c1.7,0,2.8,1.5,2.8,3.7c0,1.4-0.8,2.8-2.2,2.8c-0.9,0-1.4-0.6-1.8-1.3c-0.2,0.3-0.6,0.5-1,0.5
		c-0.5,0-1.1-0.4-1.4-1.4h0c-0.4,1-1.2,1.7-2.4,1.7c-1.5,0-2.5-1.2-2.5-2.7c0-0.6,0.2-1.1,0.4-1.5l-0.4-2.1H389.2z M397.2,44.8
		c-0.7,0-1.1,0.4-1.2,1.1l-0.3,2.9c0.3,0.4,0.8,0.7,1.4,0.7c1,0,2-0.8,2-2.4C399.1,46.3,398.5,44.8,397.2,44.8z M390.8,45.9
		c-1.2,0-2.1,0.6-2.1,1.5c0,0.9,0.9,1.5,2.1,1.5c1.2,0,2.1-0.6,2.1-1.5C393,46.5,392.1,45.9,390.8,45.9z"/>
	<path d="M394.5,41.5c0.5,0,0.8,0.4,0.8,0.8s-0.4,0.8-0.8,0.8s-0.8-0.4-0.8-0.8S394.1,41.5,394.5,41.5z"/>
</g>
<g>
	<path class="st2" d="M94.7,118.7l-0.6,4.3H82l-2.5,19.8h12.1l-0.6,4.3H78.9l-3,24.4h-4.4l3-24.4H57.3l-3,24.4h-4.4l3-24.4H40.7
		l0.6-4.3h12.1L56,123H43.8l0.6-4.3h12.1l3.1-24.5h4.4L61,118.7h17.2l3.1-24.5h4.4l-3.1,24.5H94.7z M77.6,123H60.4l-2.5,19.8H75
		L77.6,123z"/>
</g>
<g>
	<path class="st2" d="M190.3,131.4c0,29.2-22.2,44-53.6,44c-13.4,0-27.8-4.4-36.8-12.2l5.8-11.8c7.6,7,18.2,10.8,29.4,10.8
		c12.6,0,23.8-9.6,23.8-27c0-19.4-12.2-27.2-30.8-27.2c-6.2,0-13,0.8-19,2l6.2-67h68.4l-2.6,24.8h-56l-2.2,26.4c5.2-1.6,13-3,21-3
		C169.1,91.2,190.3,103.8,190.3,131.4z"/>
</g>
<g>
	<path d="M63.2,408.4h-9.5v-1.3l2.4-0.4v-7.6h-7v7.6l2.4,0.4v1.3h-9.5v-1.3l2.3-0.4v-16.1l-2.3-0.4v-1.3h9.5v1.3l-2.4,0.4v6.8h7
		v-6.8l-2.4-0.4v-1.3h9.5v1.3l-2.3,0.4v16.1l2.3,0.4V408.4z"/>
	<path d="M81,408.4H65.1v-1.3l2.3-0.4v-16.1l-2.3-0.4v-1.3h15.4v5.1h-1.7l-0.5-3.4h-6.1v6.8h4l0.3-2.1H78v5.9h-1.4l-0.3-2.1h-4v7.3
		h6.5l0.5-3.7H81V408.4z"/>
	<path d="M92.6,408.4h-9.5v-1.3l2.3-0.4v-16.1l-2.3-0.4v-1.3h9.5v1.3l-2.3,0.4v16.1l2.3,0.4V408.4z"/>
	<path d="M113.4,401l-1.2,0.5v5.4c-1.6,1.1-4.9,1.9-7.8,1.9c-6.1,0-10-3.8-10-10c0-6.2,4.2-10.1,10.4-10.1c1.7,0,3.9,0.3,5.2,0.9
		l0.4-0.9h1.5l-0.3,6.1h-1.5l-0.6-2.8c-1-1.1-2.4-1.8-4.4-1.8c-3.9,0-5.5,3.8-5.5,8.5c0,5,1.9,8.3,5.5,8.3c0.9,0,1.7-0.3,2.2-0.7
		v-4.9l-2.7-0.4v-1.4h8.7V401z"/>
	<path d="M136.5,408.4H127v-1.3l2.4-0.4v-7.6h-7v7.6l2.4,0.4v1.3h-9.5v-1.3l2.3-0.4v-16.1l-2.3-0.4v-1.3h9.5v1.3l-2.4,0.4v6.8h7
		v-6.8l-2.4-0.4v-1.3h9.5v1.3l-2.3,0.4v16.1l2.3,0.4V408.4z"/>
	<path d="M155.8,394.7H154l-0.5-3.9h-4.3v16l2.5,0.4v1.3h-9.8v-1.3l2.5-0.4v-16h-4.3l-0.5,3.9h-1.7v-5.6h17.8V394.7z"/>
	<path d="M159.6,406.3c0,1.3-1,2.3-2.3,2.3s-2.3-1-2.3-2.3c0-1.3,1-2.3,2.3-2.3S159.6,405.1,159.6,406.3z"/>
	<path d="M180.3,403.2c0,3.2-2.7,5.6-5.7,5.6c-2,0-3.5-0.4-4.4-1l-0.3,1h-0.7L169,403l0.6-0.1l0.7,3.2c0.9,1.2,2.4,2,4.1,2
		c2.4,0,4.3-1.3,4.3-4.2c0-2.1-1.3-3.1-4.4-4.6c-3.7-1.7-5-3.2-5-5.7c0-2.9,2.4-4.9,5.4-4.9c1.5,0,2.9,0.3,3.8,0.9l0.3-0.9h0.7
		l-0.1,5.1h-0.6l-0.5-2.9c-0.8-1.1-2.3-1.6-3.7-1.6c-1.9,0-3.7,1.3-3.7,3.5c0,2,0.8,2.8,4.5,4.6
		C178.4,399.1,180.3,400.4,180.3,403.2z"/>
	<path d="M196,408.4h-12.9v-0.5l2.3-0.2v-17.8l-2.3-0.2v-0.5h12.4v4h-0.7l-0.4-3.2h-7.1v8h5.3l0.3-2.1h0.7v5h-0.7l-0.3-2.1h-5.3v8.8
		h7.5l0.4-3.4h0.7V408.4z"/>
	<path d="M215.1,389.6l-1.6,0.3l-7.1,18.9h-0.1l-7.2-18.9l-1.6-0.3v-0.5h6.2v0.5l-2.6,0.2l5.8,15.3l5.6-15.3l-2.5-0.2v-0.5h5.2
		V389.6z"/>
	<path d="M229.4,408.4h-12.9v-0.5l2.3-0.2v-17.8l-2.3-0.2v-0.5H229v4h-0.7l-0.4-3.2h-7.1v8h5.3l0.3-2.1h0.7v5h-0.7l-0.3-2.1h-5.3
		v8.8h7.5l0.4-3.4h0.7V408.4z"/>
	<path d="M251,389.6l-2.3,0.4v18.6h-0.1l-13.1-16.5v15.3l2.3,0.4v0.5H232v-0.5l2.3-0.4v-16.6l-0.8-0.9l-1.6-0.3v-0.5h3.3l12.3,15.5
		V390l-2.3-0.4v-0.5h5.7V389.6z"/>
	<path d="M255.3,407.3c0,0.8-0.6,1.4-1.4,1.4s-1.4-0.6-1.4-1.4s0.6-1.4,1.4-1.4S255.3,406.6,255.3,407.3z"/>
	<path d="M289.2,389.7l-1.6,0.3l-6.4,18.7h-0.4l-4.6-13.4l-4.6,13.4h-0.4l-6.4-18.7l-1.6-0.3v-0.7h6.8v0.7l-2.6,0.2l4.7,14.2
		l3.6-10.6l-1.3-3.6l-1.7-0.2v-0.7h6.9v0.7l-2.6,0.2v0.2l4.7,14l4.8-14.2l-2.5-0.2v-0.7h5.3V389.7z"/>
	<path d="M309.7,408.4h-7v-0.7l2.3-0.2v-8.7h-9.8v8.7l2.3,0.2v0.7h-7v-0.7l2.3-0.2V390l-2.3-0.2v-0.7h7v0.7l-2.3,0.2v7.9h9.8V390
		l-2.3-0.2v-0.7h7v0.7l-2.3,0.2v17.5l2.3,0.2V408.4z"/>
	<path d="M319.3,408.4h-7v-0.7l2.3-0.2V390l-2.3-0.2v-0.7h7v0.7l-2.3,0.2v17.5l2.3,0.2V408.4z"/>
	<path d="M336.6,393.7h-0.8l-0.4-3.7H330v17.5l2.5,0.2v0.7h-7.4v-0.7l2.5-0.2V390h-5.3l-0.4,3.7h-0.8v-4.7h15.4V393.7z"/>
	<path d="M351.7,408.4h-13.4v-0.7l2.3-0.2V390l-2.3-0.2v-0.7h13v4.1h-0.8l-0.4-3.1h-7v7.8h5.2l0.3-2.1h0.8v5.1h-0.8l-0.3-2.1H343
		v8.5h7.4l0.4-3.4h0.9V408.4z"/>
	<path d="M358.1,407.1c0,0.9-0.7,1.6-1.6,1.6s-1.6-0.7-1.6-1.6c0-0.9,0.7-1.6,1.6-1.6S358.1,406.3,358.1,407.1z"/>
</g>
<g>
	<path d="M50.3,435.1c-1.1,1.1-2.3,1.6-3.7,1.6c-2.8,0-5-2.1-5-5.3c0-3.2,2.1-5.4,5.2-5.4c1.3,0,2.3,0.2,2.8,0.5l0.2-0.5h0.4
		l-0.1,2.8h-0.4l-0.3-1.4c-0.8-0.6-1.6-1-2.9-1c-1.9,0-3.5,1.9-3.5,4.7c0,2.6,1.3,5,3.7,5c1.3,0,2.5-0.5,3.3-1.4L50.3,435.1z"/>
	<path d="M57.7,433.1c0,2.1-1.5,3.6-3.3,3.6s-3.3-1.4-3.3-3.6c0-2.1,1.5-3.6,3.3-3.6S57.7,431,57.7,433.1z M56.4,433.1
		c0-2-0.8-3.2-2-3.2s-2,1.2-2,3.2c0,2,0.8,3.2,2,3.2S56.4,435.1,56.4,433.1z"/>
	<path d="M66,436.5h-3.3v-0.3l1.2-0.1v-5.3c-0.2-0.4-0.6-0.6-1.2-0.6c-1.3,0-2,1.3-2,2.9v3.1l1.2,0.1v0.3h-3.3v-0.3l1-0.1v-5.6
		l-1-0.2V430l2.1-0.3v1.7h0c0.4-1.1,1.2-1.8,2.4-1.8c1.2,0,2,0.9,2,2.1v4.4l1,0.1V436.5z"/>
	<path d="M70.9,435.7c-0.4,0.5-0.9,0.9-1.9,0.9c-0.9,0-1.6-0.6-1.6-1.8v-4.5h-1.1v-0.3l1-0.4l0.8-2h0.4v2.2h2v0.5h-2v4.4
		c0,0.9,0.4,1.3,1,1.3c0.5,0,0.9-0.3,1.1-0.6L70.9,435.7z"/>
	<path d="M76.3,430l-0.4,1c-0.2-0.1-1-0.5-1.1-0.5c-0.8,0-1.2,1.1-1.2,2.5v3.2l1.5,0.1v0.3h-3.7v-0.3l1-0.1v-5.6l-1-0.2V430l2.1-0.3
		v1.7h0c0.4-1.2,1.1-1.8,2-1.8C75.7,429.6,76.1,429.8,76.3,430z"/>
	<path d="M83,435.9c-0.2,0.4-0.8,0.8-1.4,0.8s-1-0.4-1.2-1c-0.5,0.5-1.2,1-1.9,1c-1.1,0-1.9-0.7-1.9-1.8c0-1.2,1-1.8,2.2-2l1.6-0.3
		v-1.2c0-0.9-0.4-1.3-1.3-1.3c-0.7,0-1.4,0.5-1.8,1.2L77,431c0.6-0.9,1.3-1.5,2.4-1.5c1.4,0,2.2,0.7,2.2,1.8v3.6
		c0,0.9,0.3,1.1,0.7,1.1c0.3,0,0.5-0.1,0.6-0.3L83,435.9z M80.4,435.4V433l-1.1,0.2c-0.8,0.2-1.5,0.6-1.5,1.5c0,0.8,0.5,1.3,1.2,1.3
		C79.5,436,80,435.8,80.4,435.4z"/>
	<path d="M87.8,434.7c0,1-0.8,2-2.3,2c-0.7,0-1.2-0.1-1.6-0.4l-0.2,0.4h-0.3l-0.1-2.1l0.3,0c0.2,1.1,0.8,1.8,1.8,1.8
		c0.8,0,1.3-0.5,1.3-1.3c0-0.8-0.7-1.2-1.5-1.5c-0.9-0.4-1.8-0.8-1.8-2c0-1.1,0.9-1.9,2-1.9c0.6,0,1,0.1,1.5,0.4l0.2-0.4h0.3l0,1.8
		h-0.3c-0.2-0.9-0.7-1.5-1.6-1.5c-0.8,0-1.2,0.6-1.2,1.1c0,0.8,0.7,1.2,1.5,1.5C86.9,433,87.8,433.5,87.8,434.7z"/>
	<path d="M93.1,435.7c-0.4,0.5-0.9,0.9-1.9,0.9c-0.9,0-1.6-0.6-1.6-1.8v-4.5h-1.1v-0.3l1-0.4l0.8-2h0.4v2.2h2v0.5h-2v4.4
		c0,0.9,0.4,1.3,1,1.3c0.5,0,0.9-0.3,1.1-0.6L93.1,435.7z"/>
	<path d="M95.7,435.8c0,0.5-0.4,0.8-0.8,0.8s-0.8-0.4-0.8-0.8s0.4-0.8,0.8-0.8S95.7,435.4,95.7,435.8z"/>
</g>
<g>
	<path d="M49.7,511.7c-1,1-2.1,1.5-3.5,1.5c-2.7,0-4.7-2-4.7-5c0-3,2-5.1,4.9-5.1c1.2,0,2.1,0.2,2.7,0.5l0.2-0.5h0.4l-0.1,2.7h-0.4
		l-0.2-1.3c-0.7-0.6-1.5-0.9-2.8-0.9c-1.8,0-3.3,1.8-3.3,4.4c0,2.4,1.3,4.6,3.5,4.6c1.2,0,2.3-0.5,3.1-1.3L49.7,511.7z"/>
	<path d="M56.7,509.8c0,2-1.4,3.3-3.1,3.3c-1.7,0-3.1-1.3-3.1-3.3c0-2,1.4-3.3,3.1-3.3C55.3,506.5,56.7,507.8,56.7,509.8z
		 M55.5,509.8c0-1.8-0.7-3-1.9-3s-1.9,1.1-1.9,3s0.7,3,1.9,3S55.5,511.7,55.5,509.8z"/>
	<path d="M64.5,513h-3.1v-0.3l1.1-0.1v-5c-0.1-0.4-0.6-0.6-1.1-0.6c-1.2,0-1.9,1.2-1.9,2.7v2.9l1.1,0.1v0.3h-3.1v-0.3l1-0.1v-5.3
		l-1-0.2v-0.3l2-0.3v1.6h0c0.4-1.1,1.2-1.7,2.2-1.7c1.2,0,1.9,0.8,1.9,2v4.1l1,0.1V513z"/>
	<path d="M69,512.2c-0.3,0.5-0.9,0.9-1.8,0.9c-0.8,0-1.5-0.5-1.5-1.7v-4.2h-1v-0.3l1-0.4l0.8-1.9h0.3v2.1h1.8v0.4h-1.8v4.1
		c0,0.9,0.4,1.2,1,1.2c0.5,0,0.8-0.3,1-0.5L69,512.2z"/>
	<path d="M74.1,506.9l-0.4,0.9c-0.2-0.1-0.9-0.5-1.1-0.5c-0.7,0-1.2,1-1.2,2.4v3l1.4,0.1v0.3h-3.4v-0.3l1-0.1v-5.3l-1-0.2v-0.3
		l2-0.3v1.6h0c0.3-1.2,1.1-1.7,1.8-1.7C73.5,506.5,73.9,506.7,74.1,506.9z"/>
	<path d="M80.4,512.4c-0.2,0.3-0.7,0.7-1.3,0.7s-1-0.4-1.1-0.9c-0.4,0.5-1.2,0.9-1.8,0.9c-1,0-1.8-0.7-1.8-1.6c0-1.1,0.9-1.7,2-1.9
		l1.5-0.3v-1.1c0-0.8-0.3-1.2-1.2-1.2c-0.7,0-1.3,0.5-1.7,1.1l-0.3-0.3c0.5-0.8,1.3-1.4,2.2-1.4c1.4,0,2,0.6,2,1.7v3.4
		c0,0.8,0.3,1,0.6,1c0.2,0,0.5-0.1,0.6-0.3L80.4,512.4z M77.9,511.9v-2.2l-1,0.2c-0.8,0.2-1.4,0.6-1.4,1.4c0,0.7,0.5,1.2,1.1,1.2
		C77.1,512.5,77.6,512.3,77.9,511.9z"/>
	<path d="M84.9,511.2c0,1-0.8,1.9-2.1,1.9c-0.6,0-1.1-0.1-1.5-0.4l-0.1,0.4h-0.3l-0.1-2l0.3,0c0.2,1.1,0.8,1.6,1.7,1.6
		c0.7,0,1.2-0.5,1.2-1.2c0-0.8-0.7-1.1-1.4-1.4c-0.8-0.3-1.7-0.8-1.7-1.9c0-1,0.8-1.8,1.9-1.8c0.6,0,1,0.1,1.4,0.4l0.2-0.3h0.3
		l0,1.7h-0.3c-0.1-0.9-0.6-1.4-1.5-1.4c-0.7,0-1.1,0.5-1.1,1c0,0.8,0.7,1.1,1.4,1.4C84,509.7,84.9,510.1,84.9,511.2z"/>
	<path d="M89.8,512.2c-0.3,0.5-0.9,0.9-1.8,0.9c-0.8,0-1.5-0.5-1.5-1.7v-4.2h-1v-0.3l1-0.4l0.8-1.9h0.3v2.1h1.8v0.4h-1.8v4.1
		c0,0.9,0.4,1.2,1,1.2c0.5,0,0.8-0.3,1-0.5L89.8,512.2z"/>
	<path d="M96.2,513h-3v-0.3l1-0.1v-5.3l-1-0.2v-0.3l2.1-0.3v6.1l1,0.1V513z M95.3,504.2c0,0.4-0.3,0.7-0.7,0.7s-0.7-0.3-0.7-0.7
		s0.3-0.7,0.7-0.7S95.3,503.9,95.3,504.2z"/>
	<path d="M101.2,511.2c0,1-0.8,1.9-2.1,1.9c-0.6,0-1.1-0.1-1.5-0.4l-0.1,0.4h-0.3l-0.1-2l0.3,0c0.2,1.1,0.8,1.6,1.7,1.6
		c0.7,0,1.2-0.5,1.2-1.2c0-0.8-0.7-1.1-1.4-1.4c-0.8-0.3-1.7-0.8-1.7-1.9c0-1,0.8-1.8,1.9-1.8c0.6,0,1,0.1,1.4,0.4l0.2-0.3h0.3
		l0,1.7h-0.3c-0.1-0.9-0.6-1.4-1.5-1.4c-0.7,0-1.1,0.5-1.1,1c0,0.8,0.7,1.1,1.4,1.4C100.3,509.7,101.2,510.1,101.2,511.2z"/>
	<path d="M109.1,512.2c-0.3,0.5-0.9,0.9-1.8,0.9c-0.8,0-1.5-0.5-1.5-1.7v-4.2h-1v-0.3l1-0.4l0.8-1.9h0.3v2.1h1.8v0.4h-1.8v4.1
		c0,0.9,0.4,1.2,1,1.2c0.5,0,0.8-0.3,1-0.5L109.1,512.2z"/>
	<path d="M116.4,513h-3.1v-0.3l1.1-0.1v-5c-0.2-0.4-0.6-0.6-1.1-0.6c-1.2,0-1.9,1.2-1.9,2.7v2.9l1.1,0.1v0.3h-3.1v-0.3l1-0.1v-9.4
		l-1-0.2v-0.3l2.1-0.3v5.7c0.4-1,1.1-1.6,2.2-1.6c1.2,0,1.9,0.8,1.9,2v4.1l1,0.1V513z"/>
	<path d="M122.5,509.3h-4.3c0,0.1,0,0.3,0,0.4c0,1.8,0.9,2.9,2.1,2.9c1,0,1.5-0.4,1.9-0.9l0.3,0.3c-0.3,0.5-1,1.2-2.4,1.2
		c-1.8,0-3.1-1.4-3.1-3.3c0-2,1.5-3.3,3-3.3s2.5,1,2.5,2.5V509.3z M121.3,508.9c0-1-0.3-2.1-1.4-2.1c-0.9,0-1.5,0.9-1.7,2.1H121.3z"
		/>
	<path d="M132.9,512.8l-2,0.3v-1l0,0c-0.4,0.6-0.9,1-1.9,1c-1.3,0-2.7-1.1-2.7-3.1c0-2.1,1.3-3.5,3-3.5c0.8,0,1.3,0.3,1.6,0.6v-4
		l-1-0.2v-0.3l2.1-0.3v10l1,0.2V512.8z M130.8,511.5v-3.7c-0.3-0.5-0.9-0.9-1.5-0.9c-1.4,0-1.9,1.5-1.9,3c0,1.6,0.7,2.7,1.9,2.7
		C130.2,512.6,130.6,512,130.8,511.5z"/>
	<path d="M136.4,513h-3v-0.3l1-0.1v-5.3l-1-0.2v-0.3l2.1-0.3v6.1l1,0.1V513z M135.5,504.2c0,0.4-0.3,0.7-0.7,0.7s-0.7-0.3-0.7-0.7
		s0.3-0.7,0.7-0.7S135.5,503.9,135.5,504.2z"/>
	<path d="M145.6,502.5l-0.4,0.9c-0.6-0.4-1.1-0.7-1.4-0.7c-0.5,0-0.8,0.4-0.8,1.6v2.4h1.8v0.4H143v5.4l1.4,0.1v0.3h-3.5v-0.3l1-0.1
		v-5.4h-2.8v5.4l1.3,0.1v0.3H137v-0.3l1-0.1v-5.4h-1v-0.3l1-0.3v-1.1c0-1.8,1.1-3.3,2.9-3.3c0.7,0,1.3,0.2,1.8,0.6
		c0.4-0.5,1-0.7,1.8-0.7C144.9,502.2,145.2,502.3,145.6,502.5z M142.2,503.6c-0.5-0.5-1-0.9-1.3-0.9c-1.2,0-1.8,0.6-1.8,2.3v1.6h2.8
		v-1.3C141.9,504.8,142,504.2,142.2,503.6z"/>
	<path d="M150.6,509.3h-4.3c0,0.1,0,0.3,0,0.4c0,1.8,0.9,2.9,2.1,2.9c1,0,1.5-0.4,1.9-0.9l0.3,0.3c-0.3,0.5-1,1.2-2.4,1.2
		c-1.8,0-3.1-1.4-3.1-3.3c0-2,1.5-3.3,3-3.3s2.5,1,2.5,2.5V509.3z M149.5,508.9c0-1-0.3-2.1-1.4-2.1c-0.9,0-1.5,0.9-1.7,2.1H149.5z"
		/>
	<path d="M156.1,506.9l-0.4,0.9c-0.2-0.1-0.9-0.5-1.1-0.5c-0.7,0-1.2,1-1.2,2.4v3l1.4,0.1v0.3h-3.4v-0.3l1-0.1v-5.3l-1-0.2v-0.3
		l2-0.3v1.6h0c0.3-1.2,1.1-1.7,1.8-1.7C155.5,506.5,155.9,506.7,156.1,506.9z"/>
	<path d="M161.9,509.3h-4.3c0,0.1,0,0.3,0,0.4c0,1.8,0.9,2.9,2.1,2.9c1,0,1.5-0.4,1.9-0.9l0.3,0.3c-0.3,0.5-1,1.2-2.4,1.2
		c-1.8,0-3.1-1.4-3.1-3.3c0-2,1.5-3.3,3-3.3s2.5,1,2.5,2.5V509.3z M160.8,508.9c0-1-0.3-2.1-1.4-2.1c-0.9,0-1.5,0.9-1.7,2.1H160.8z"
		/>
	<path d="M169.8,513h-3.1v-0.3l1.1-0.1v-5c-0.1-0.4-0.6-0.6-1.1-0.6c-1.2,0-1.9,1.2-1.9,2.7v2.9l1.1,0.1v0.3h-3.1v-0.3l1-0.1v-5.3
		l-1-0.2v-0.3l2-0.3v1.6h0c0.4-1.1,1.2-1.7,2.2-1.7c1.2,0,1.9,0.8,1.9,2v4.1l1,0.1V513z"/>
	<path d="M175.7,512c-0.3,0.5-1,1.2-2.4,1.2c-1.7,0-3.1-1.4-3.1-3.4c0-2,1.5-3.3,3.1-3.3c0.7,0,1.2,0.1,1.8,0.4l0.2-0.4h0.3
		l-0.1,1.8h-0.3c-0.2-0.9-0.8-1.5-1.8-1.5c-1.2,0-2,1.1-2,2.8c0,1.7,0.9,2.9,2.1,2.9c1,0,1.5-0.4,1.9-0.9L175.7,512z"/>
	<path d="M181.9,509.3h-4.3c0,0.1,0,0.3,0,0.4c0,1.8,0.9,2.9,2.1,2.9c1,0,1.5-0.4,1.9-0.9l0.3,0.3c-0.3,0.5-1,1.2-2.4,1.2
		c-1.8,0-3.1-1.4-3.1-3.3c0-2,1.5-3.3,3-3.3s2.5,1,2.5,2.5V509.3z M180.7,508.9c0-1-0.3-2.1-1.4-2.1c-0.9,0-1.5,0.9-1.7,2.1H180.7z"
		/>
	<path d="M188.7,513h-3v-0.3l1-0.1v-5.3l-1-0.2v-0.3l2.1-0.3v6.1l1,0.1V513z M187.8,504.2c0,0.4-0.3,0.7-0.7,0.7s-0.7-0.3-0.7-0.7
		s0.3-0.7,0.7-0.7S187.8,503.9,187.8,504.2z"/>
	<path d="M196.4,513h-3.1v-0.3l1.1-0.1v-5c-0.1-0.4-0.6-0.6-1.1-0.6c-1.2,0-1.9,1.2-1.9,2.7v2.9l1.1,0.1v0.3h-3.1v-0.3l1-0.1v-5.3
		l-1-0.2v-0.3l2-0.3v1.6h0c0.4-1.1,1.2-1.7,2.2-1.7c1.2,0,1.9,0.8,1.9,2v4.1l1,0.1V513z"/>
	<path d="M44.3,530h-3v-0.3l1-0.1v-9.4l-1-0.2v-0.3l2.1-0.3v10.2l1,0.1V530z"/>
	<path d="M51.7,529.8l-2,0.3v-1.6h0c-0.4,1.1-1.2,1.7-2.2,1.7c-1.2,0-1.9-0.8-1.9-2v-4l-1-0.2v-0.3h2.1v5.3c0.1,0.4,0.5,0.6,1.1,0.6
		c1.2,0,1.9-1.2,1.9-2.7v-2.7l-1.1-0.2v-0.3h2.2v5.7l1,0.2V529.8z"/>
	<path d="M63,530h-3.1v-0.3l1.1-0.1v-5c-0.2-0.4-0.4-0.6-1-0.6c-1,0-1.8,1.1-1.8,2.7v2.9l1.1,0.1v0.3H56v-0.3l1.1-0.1v-5
		c-0.2-0.4-0.4-0.6-1-0.6c-1,0-1.8,1.1-1.8,2.7v2.9l1.1,0.1v0.3h-3.1v-0.3l1-0.1v-5.3l-1-0.2v-0.3l2-0.3v1.6h0
		c0.3-0.9,1.1-1.7,2.1-1.7c1,0,1.6,0.6,1.8,1.7h0c0.3-1,1.1-1.7,2.1-1.7c1.1,0,1.8,0.8,1.8,2v4.1l1,0.1V530z"/>
	<path d="M66.6,530h-3v-0.3l1-0.1v-5.3l-1-0.2v-0.3l2.1-0.3v6.1l1,0.1V530z M65.7,521.2c0,0.4-0.3,0.7-0.7,0.7s-0.7-0.3-0.7-0.7
		s0.3-0.7,0.7-0.7S65.7,520.9,65.7,521.2z"/>
	<path d="M74.3,530h-3.1v-0.3l1.1-0.1v-5c-0.1-0.4-0.6-0.6-1.1-0.6c-1.2,0-1.9,1.2-1.9,2.7v2.9l1.1,0.1v0.3h-3.1v-0.3l1-0.1v-5.3
		l-1-0.2v-0.3l2-0.3v1.6h0c0.4-1.1,1.2-1.7,2.2-1.7c1.2,0,1.9,0.8,1.9,2v4.1l1,0.1V530z"/>
	<path d="M80.8,529.4c-0.2,0.3-0.7,0.7-1.3,0.7s-1-0.4-1.1-0.9c-0.4,0.5-1.2,0.9-1.8,0.9c-1,0-1.8-0.7-1.8-1.6c0-1.1,0.9-1.7,2-1.9
		l1.5-0.3v-1.1c0-0.8-0.3-1.2-1.2-1.2c-0.7,0-1.3,0.5-1.7,1.1l-0.3-0.3c0.5-0.8,1.3-1.4,2.2-1.4c1.4,0,2,0.6,2,1.7v3.4
		c0,0.8,0.3,1,0.6,1c0.2,0,0.5-0.1,0.6-0.3L80.8,529.4z M78.3,528.9v-2.2l-1,0.2c-0.8,0.2-1.4,0.6-1.4,1.4c0,0.7,0.5,1.2,1.1,1.2
		C77.5,529.5,78,529.3,78.3,528.9z"/>
	<path d="M88,530h-3.1v-0.3l1.1-0.1v-5c-0.1-0.4-0.6-0.6-1.1-0.6c-1.2,0-1.9,1.2-1.9,2.7v2.9l1.1,0.1v0.3H81v-0.3l1-0.1v-5.3l-1-0.2
		v-0.3l2-0.3v1.6h0c0.4-1.1,1.2-1.7,2.2-1.7c1.2,0,1.9,0.8,1.9,2v4.1l1,0.1V530z"/>
	<path d="M94,529c-0.3,0.5-1,1.2-2.4,1.2c-1.7,0-3.1-1.4-3.1-3.4c0-2,1.5-3.3,3.1-3.3c0.7,0,1.2,0.1,1.8,0.4l0.2-0.4h0.3l-0.1,1.8
		h-0.3c-0.2-0.9-0.8-1.5-1.8-1.5c-1.2,0-2,1.1-2,2.8c0,1.7,0.9,2.9,2.1,2.9c1,0,1.5-0.4,1.9-0.9L94,529z"/>
	<path d="M100.2,526.3h-4.3c0,0.1,0,0.3,0,0.4c0,1.8,0.9,2.9,2.1,2.9c1,0,1.5-0.4,1.9-0.9l0.3,0.3c-0.3,0.5-1,1.2-2.4,1.2
		c-1.8,0-3.1-1.4-3.1-3.3c0-2,1.5-3.3,3-3.3s2.5,1,2.5,2.5V526.3z M99,525.9c0-1-0.3-2.1-1.4-2.1c-0.9,0-1.5,0.9-1.7,2.1H99z"/>
	<path d="M110.1,526.8c0,2-1.4,3.3-3.1,3.3c-1.7,0-3.1-1.3-3.1-3.3c0-2,1.4-3.3,3.1-3.3C108.8,523.5,110.1,524.8,110.1,526.8z
		 M108.9,526.8c0-1.8-0.7-3-1.9-3s-1.9,1.1-1.9,3s0.7,3,1.9,3S108.9,528.7,108.9,526.8z"/>
	<path d="M115.5,523.9l-0.4,0.9c-0.2-0.1-0.9-0.5-1.1-0.5c-0.7,0-1.2,1-1.2,2.4v3l1.4,0.1v0.3h-3.4v-0.3l1-0.1v-5.3l-1-0.2v-0.3
		l2-0.3v1.6h0c0.3-1.2,1.1-1.7,1.8-1.7C114.9,523.5,115.3,523.7,115.5,523.9z"/>
	<path d="M124.4,529c-0.3,0.5-1,1.2-2.4,1.2c-1.7,0-3.1-1.4-3.1-3.4c0-2,1.5-3.3,3.1-3.3c0.7,0,1.2,0.1,1.8,0.4l0.2-0.4h0.3
		l-0.1,1.8h-0.3c-0.2-0.9-0.8-1.5-1.8-1.5c-1.2,0-2,1.1-2,2.8c0,1.7,0.9,2.9,2.1,2.9c1,0,1.5-0.4,1.9-0.9L124.4,529z"/>
	<path d="M131.2,526.8c0,2-1.4,3.3-3.1,3.3c-1.7,0-3.1-1.3-3.1-3.3c0-2,1.4-3.3,3.1-3.3C129.9,523.5,131.2,524.8,131.2,526.8z
		 M130,526.8c0-1.8-0.7-3-1.9-3s-1.9,1.1-1.9,3s0.7,3,1.9,3S130,528.7,130,526.8z"/>
	<path d="M134.9,530h-3v-0.3l1-0.1v-9.4l-1-0.2v-0.3l2.1-0.3v10.2l1,0.1V530z"/>
	<path d="M141.7,526.8c0,2-1.4,3.3-3.1,3.3c-1.7,0-3.1-1.3-3.1-3.3c0-2,1.4-3.3,3.1-3.3C140.3,523.5,141.7,524.8,141.7,526.8z
		 M140.5,526.8c0-1.8-0.7-3-1.9-3s-1.9,1.1-1.9,3s0.7,3,1.9,3S140.5,528.7,140.5,526.8z"/>
	<path d="M149.2,529.8l-2,0.3v-1.6h0c-0.4,1.1-1.2,1.7-2.2,1.7c-1.2,0-1.9-0.8-1.9-2v-4l-1-0.2v-0.3h2.1v5.3
		c0.1,0.4,0.5,0.6,1.1,0.6c1.2,0,1.9-1.2,1.9-2.7v-2.7l-1.1-0.2v-0.3h2.2v5.7l1,0.2V529.8z"/>
	<path d="M154.4,523.9l-0.4,0.9c-0.2-0.1-0.9-0.5-1.1-0.5c-0.7,0-1.2,1-1.2,2.4v3l1.4,0.1v0.3h-3.4v-0.3l1-0.1v-5.3l-1-0.2v-0.3
		l2-0.3v1.6h0c0.3-1.2,1.1-1.7,1.8-1.7C153.8,523.5,154.2,523.7,154.4,523.9z"/>
	<path d="M161.9,529.2c-0.3,0.5-0.9,0.9-1.8,0.9c-0.8,0-1.5-0.5-1.5-1.7v-4.2h-1v-0.3l1-0.4l0.8-1.9h0.3v2.1h1.8v0.4h-1.8v4.1
		c0,0.9,0.4,1.2,1,1.2c0.5,0,0.8-0.3,1-0.5L161.9,529.2z"/>
	<path d="M169.2,530h-3.1v-0.3l1.1-0.1v-5c-0.2-0.4-0.6-0.6-1.1-0.6c-1.2,0-1.9,1.2-1.9,2.7v2.9l1.1,0.1v0.3h-3.1v-0.3l1-0.1v-9.4
		l-1-0.2v-0.3l2.1-0.3v5.7c0.4-1,1.1-1.6,2.2-1.6c1.2,0,1.9,0.8,1.9,2v4.1l1,0.1V530z"/>
	<path d="M175.7,529.4c-0.2,0.3-0.7,0.7-1.3,0.7s-1-0.4-1.1-0.9c-0.4,0.5-1.2,0.9-1.8,0.9c-1,0-1.8-0.7-1.8-1.6c0-1.1,0.9-1.7,2-1.9
		l1.5-0.3v-1.1c0-0.8-0.3-1.2-1.2-1.2c-0.7,0-1.3,0.5-1.7,1.1l-0.3-0.3c0.5-0.8,1.3-1.4,2.2-1.4c1.4,0,2,0.6,2,1.7v3.4
		c0,0.8,0.3,1,0.6,1c0.2,0,0.5-0.1,0.6-0.3L175.7,529.4z M173.3,528.9v-2.2l-1,0.2c-0.8,0.2-1.4,0.6-1.4,1.4c0,0.7,0.5,1.2,1.1,1.2
		C172.4,529.5,172.9,529.3,173.3,528.9z"/>
	<path d="M179.9,529.2c-0.3,0.5-0.9,0.9-1.8,0.9c-0.8,0-1.5-0.5-1.5-1.7v-4.2h-1v-0.3l1-0.4l0.8-1.9h0.3v2.1h1.8v0.4h-1.8v4.1
		c0,0.9,0.4,1.2,1,1.2c0.5,0,0.8-0.3,1-0.5L179.9,529.2z"/>
	<path d="M52.2,547h-3.1v-0.3l1.1-0.1v-5c-0.2-0.4-0.4-0.6-1-0.6c-1,0-1.8,1.1-1.8,2.7v2.9l1.1,0.1v0.3h-3.2v-0.3l1.1-0.1v-5
		c-0.2-0.4-0.4-0.6-1-0.6c-1,0-1.8,1.1-1.8,2.7v2.9l1.1,0.1v0.3h-3.1v-0.3l1-0.1v-5.3l-1-0.2v-0.3l2-0.3v1.6h0
		c0.3-0.9,1.1-1.7,2.1-1.7c1,0,1.6,0.6,1.8,1.7h0c0.3-1,1.1-1.7,2.1-1.7c1.1,0,1.8,0.8,1.8,2v4.1l1,0.1V547z"/>
	<path d="M58.7,546.4c-0.2,0.3-0.7,0.7-1.3,0.7s-1-0.4-1.1-0.9c-0.4,0.5-1.2,0.9-1.8,0.9c-1,0-1.8-0.7-1.8-1.6c0-1.1,0.9-1.7,2-1.9
		l1.5-0.3v-1.1c0-0.8-0.3-1.2-1.2-1.2c-0.7,0-1.3,0.5-1.7,1.1l-0.3-0.3c0.5-0.8,1.3-1.4,2.2-1.4c1.4,0,2,0.6,2,1.7v3.4
		c0,0.8,0.3,1,0.6,1c0.2,0,0.5-0.1,0.6-0.3L58.7,546.4z M56.2,545.9v-2.2l-1,0.2c-0.8,0.2-1.4,0.6-1.4,1.4c0,0.7,0.5,1.2,1.1,1.2
		C55.4,546.5,55.9,546.3,56.2,545.9z"/>
	<path d="M65.5,547h-1.7l-0.3-0.4l-2.3-2.8h-0.4v2.8l1,0.1v0.3h-3.1v-0.3l1-0.1v-9.4l-1-0.2v-0.3l2.1-0.3v7.2h0l2.6-2.4v0l-1-0.1
		v-0.3H65v0.3l-0.9,0.1l-2.2,2l2.9,3.4l0.6,0.2V547z"/>
	<path d="M71.1,543.3h-4.3c0,0.1,0,0.3,0,0.4c0,1.8,0.9,2.9,2.1,2.9c1,0,1.5-0.4,1.9-0.9L71,546c-0.3,0.5-1,1.2-2.4,1.2
		c-1.8,0-3.1-1.4-3.1-3.3c0-2,1.5-3.3,3-3.3s2.5,1,2.5,2.5V543.3z M69.9,542.9c0-1-0.3-2.1-1.4-2.1c-0.9,0-1.5,0.9-1.7,2.1H69.9z"/>
	<path d="M76.2,545.2c0,1-0.8,1.9-2.1,1.9c-0.6,0-1.1-0.1-1.5-0.4l-0.1,0.4h-0.3l-0.1-2l0.3,0c0.2,1.1,0.8,1.6,1.7,1.6
		c0.7,0,1.2-0.5,1.2-1.2c0-0.8-0.7-1.1-1.4-1.4c-0.8-0.3-1.7-0.8-1.7-1.9c0-1,0.8-1.8,1.9-1.8c0.6,0,1,0.1,1.4,0.4l0.2-0.3h0.3
		l0,1.7h-0.3c-0.1-0.9-0.6-1.4-1.5-1.4c-0.7,0-1.1,0.5-1.1,1c0,0.8,0.7,1.1,1.4,1.4C75.4,543.7,76.2,544.1,76.2,545.2z"/>
	<path d="M86,546.4c-0.2,0.3-0.7,0.7-1.3,0.7s-1-0.4-1.1-0.9c-0.4,0.5-1.2,0.9-1.8,0.9c-1,0-1.8-0.7-1.8-1.6c0-1.1,0.9-1.7,2-1.9
		l1.5-0.3v-1.1c0-0.8-0.3-1.2-1.2-1.2c-0.7,0-1.3,0.5-1.7,1.1l-0.3-0.3c0.5-0.8,1.3-1.4,2.2-1.4c1.4,0,2,0.6,2,1.7v3.4
		c0,0.8,0.3,1,0.6,1c0.2,0,0.5-0.1,0.6-0.3L86,546.4z M83.6,545.9v-2.2l-1,0.2c-0.8,0.2-1.4,0.6-1.4,1.4c0,0.7,0.5,1.2,1.1,1.2
		C82.8,546.5,83.3,546.3,83.6,545.9z"/>
	<path d="M93.3,547h-3.1v-0.3l1.1-0.1v-5c-0.1-0.4-0.6-0.6-1.1-0.6c-1.2,0-1.9,1.2-1.9,2.7v2.9l1.1,0.1v0.3h-3.1v-0.3l1-0.1v-5.3
		l-1-0.2v-0.3l2-0.3v1.6h0c0.4-1.1,1.2-1.7,2.2-1.7c1.2,0,1.9,0.8,1.9,2v4.1l1,0.1V547z"/>
	<path d="M103,543.8c0,2-1.4,3.3-3.1,3.3c-1.7,0-3.1-1.3-3.1-3.3c0-2,1.4-3.3,3.1-3.3C101.6,540.5,103,541.8,103,543.8z
		 M101.8,543.8c0-1.8-0.7-3-1.9-3s-1.9,1.1-1.9,3s0.7,3,1.9,3S101.8,545.7,101.8,543.8z"/>
	<path d="M110,543.6c0,2.1-1.2,3.5-3.4,3.5c-0.9,0-1.7-0.2-2.2-0.5v-9.5l-1-0.2v-0.3l2.1-0.3v5.1c0.4-0.6,1.1-1,2-1
		C108.7,540.5,110,541.6,110,543.6z M108.8,543.7c0-1.6-0.6-2.7-1.8-2.7c-0.8,0-1.3,0.4-1.7,1.1v4.2c0.2,0.2,0.8,0.4,1.4,0.4
		C108.1,546.7,108.8,545.4,108.8,543.7z"/>
	<path d="M112.7,547.9c0,1.4-0.7,2.3-2.1,3.1l-0.1-0.3c0.9-0.5,1.2-1.2,1.2-2.6v-6.7l-1-0.2v-0.3l2.1-0.3V547.9z M112.8,538.2
		c0,0.4-0.3,0.7-0.7,0.7s-0.7-0.3-0.7-0.7s0.3-0.7,0.7-0.7S112.8,537.9,112.8,538.2z"/>
	<path d="M119.7,543.3h-4.3c0,0.1,0,0.3,0,0.4c0,1.8,0.9,2.9,2.1,2.9c1,0,1.5-0.4,1.9-0.9l0.3,0.3c-0.3,0.5-1,1.2-2.4,1.2
		c-1.8,0-3.1-1.4-3.1-3.3c0-2,1.5-3.3,3-3.3s2.5,1,2.5,2.5V543.3z M118.5,542.9c0-1-0.3-2.1-1.4-2.1c-0.9,0-1.5,0.9-1.7,2.1H118.5z"
		/>
	<path d="M125.9,546c-0.3,0.5-1,1.2-2.4,1.2c-1.7,0-3.1-1.4-3.1-3.4c0-2,1.5-3.3,3.1-3.3c0.7,0,1.2,0.1,1.8,0.4l0.2-0.4h0.3
		l-0.1,1.8h-0.3c-0.2-0.9-0.8-1.5-1.8-1.5c-1.2,0-2,1.1-2,2.8c0,1.7,0.9,2.9,2.1,2.9c1,0,1.5-0.4,1.9-0.9L125.9,546z"/>
	<path d="M130.7,546.2c-0.3,0.5-0.9,0.9-1.8,0.9c-0.8,0-1.5-0.5-1.5-1.7v-4.2h-1v-0.3l1-0.4l0.8-1.9h0.3v2.1h1.8v0.4h-1.8v4.1
		c0,0.9,0.4,1.2,1,1.2c0.5,0,0.8-0.3,1-0.5L130.7,546.2z"/>
	<path d="M138.2,550l-0.2,0.3c-2-1.6-3.5-4.2-3.5-7c0-2.8,1.4-5.4,3.5-7l0.2,0.3c-1.9,1.7-2.8,4.4-2.8,6.7
		C135.3,545.6,136.3,548.3,138.2,550z"/>
	<path d="M145.1,543.8c0,2-1.4,3.3-3.1,3.3c-1.7,0-3.1-1.3-3.1-3.3c0-2,1.4-3.3,3.1-3.3C143.7,540.5,145.1,541.8,145.1,543.8z
		 M143.9,543.8c0-1.8-0.7-3-1.9-3s-1.9,1.1-1.9,3s0.7,3,1.9,3S143.9,545.7,143.9,543.8z"/>
	<path d="M150.5,540.9l-0.4,0.9c-0.2-0.1-0.9-0.5-1.1-0.5c-0.7,0-1.2,1-1.2,2.4v3l1.4,0.1v0.3h-3.4v-0.3l1-0.1v-5.3l-1-0.2v-0.3
		l2-0.3v1.6h0c0.3-1.2,1.1-1.7,1.8-1.7C149.9,540.5,150.3,540.7,150.5,540.9z"/>
	<path d="M157,547h-3v-0.3l1-0.1v-5.3l-1-0.2v-0.3l2.1-0.3v6.1l1,0.1V547z M156.1,538.2c0,0.4-0.3,0.7-0.7,0.7s-0.7-0.3-0.7-0.7
		s0.3-0.7,0.7-0.7S156.1,537.9,156.1,538.2z"/>
	<path d="M161.7,546.2c-0.3,0.5-0.9,0.9-1.8,0.9c-0.8,0-1.5-0.5-1.5-1.7v-4.2h-1v-0.3l1-0.4l0.8-1.9h0.3v2.1h1.8v0.4h-1.8v4.1
		c0,0.9,0.4,1.2,1,1.2c0.5,0,0.8-0.3,1-0.5L161.7,546.2z"/>
	<path d="M166.4,545.2c0,1-0.8,1.9-2.1,1.9c-0.6,0-1.1-0.1-1.5-0.4l-0.1,0.4h-0.3l-0.1-2l0.3,0c0.2,1.1,0.8,1.6,1.7,1.6
		c0.7,0,1.2-0.5,1.2-1.2c0-0.8-0.7-1.1-1.4-1.4c-0.8-0.3-1.7-0.8-1.7-1.9c0-1,0.8-1.8,1.9-1.8c0.6,0,1,0.1,1.4,0.4l0.2-0.3h0.3
		l0,1.7h-0.3c-0.1-0.9-0.6-1.4-1.5-1.4c-0.7,0-1.1,0.5-1.1,1c0,0.8,0.7,1.1,1.4,1.4C165.5,543.7,166.4,544.1,166.4,545.2z"/>
	<path d="M46,557.9l-0.4,0.9c-0.2-0.1-0.9-0.5-1.1-0.5c-0.7,0-1.2,1-1.2,2.4v3l1.4,0.1v0.3h-3.4v-0.3l1-0.1v-5.3l-1-0.2v-0.3l2-0.3
		v1.6h0c0.3-1.2,1.1-1.7,1.8-1.7C45.5,557.5,45.8,557.7,46,557.9z"/>
	<path d="M51.9,560.3h-4.3c0,0.1,0,0.3,0,0.4c0,1.8,0.9,2.9,2.1,2.9c1,0,1.5-0.4,1.9-0.9l0.3,0.3c-0.3,0.5-1,1.2-2.4,1.2
		c-1.8,0-3.1-1.4-3.1-3.3c0-2,1.5-3.3,3-3.3s2.5,1,2.5,2.5V560.3z M50.7,559.9c0-1-0.3-2.1-1.4-2.1c-0.9,0-1.5,0.9-1.7,2.1H50.7z"/>
	<path d="M59.1,560.6c0,2.1-1.4,3.5-3.1,3.5c-0.7,0-1.1-0.2-1.5-0.4v3.7l1.4,0.1v0.3h-3.4v-0.3l1-0.1v-9.1l-1-0.2v-0.3l2-0.3v1h0
		c0.4-0.6,1.1-1.1,2-1.1C57.8,557.5,59.1,558.6,59.1,560.6z M58,560.7c0-1.6-0.6-2.7-1.8-2.7c-0.8,0-1.4,0.5-1.6,1.1v4
		c0.3,0.3,0.9,0.6,1.4,0.6C57.3,563.7,58,562.2,58,560.7z"/>
	<path d="M64.5,557.9l-0.4,0.9c-0.2-0.1-0.9-0.5-1.1-0.5c-0.7,0-1.2,1-1.2,2.4v3l1.4,0.1v0.3h-3.4v-0.3l1-0.1v-5.3l-1-0.2v-0.3
		l2-0.3v1.6h0c0.3-1.2,1.1-1.7,1.8-1.7C63.9,557.5,64.3,557.7,64.5,557.9z"/>
	<path d="M70.3,560.3H66c0,0.1,0,0.3,0,0.4c0,1.8,0.9,2.9,2.1,2.9c1,0,1.5-0.4,1.9-0.9l0.3,0.3c-0.3,0.5-1,1.2-2.4,1.2
		c-1.8,0-3.1-1.4-3.1-3.3c0-2,1.5-3.3,3-3.3s2.5,1,2.5,2.5V560.3z M69.2,559.9c0-1-0.3-2.1-1.4-2.1c-0.9,0-1.5,0.9-1.7,2.1H69.2z"/>
	<path d="M75.5,562.2c0,1-0.8,1.9-2.1,1.9c-0.6,0-1.1-0.1-1.5-0.4l-0.1,0.4h-0.3l-0.1-2l0.3,0c0.2,1.1,0.8,1.6,1.7,1.6
		c0.7,0,1.2-0.5,1.2-1.2c0-0.8-0.7-1.1-1.4-1.4c-0.8-0.3-1.7-0.8-1.7-1.9c0-1,0.8-1.8,1.9-1.8c0.6,0,1,0.1,1.4,0.4l0.2-0.3h0.3
		l0,1.7h-0.3c-0.1-0.9-0.6-1.4-1.5-1.4c-0.7,0-1.1,0.5-1.1,1c0,0.8,0.7,1.1,1.4,1.4C74.6,560.7,75.5,561.1,75.5,562.2z"/>
	<path d="M81.8,560.3h-4.3c0,0.1,0,0.3,0,0.4c0,1.8,0.9,2.9,2.1,2.9c1,0,1.5-0.4,1.9-0.9l0.3,0.3c-0.3,0.5-1,1.2-2.4,1.2
		c-1.8,0-3.1-1.4-3.1-3.3c0-2,1.5-3.3,3-3.3s2.5,1,2.5,2.5V560.3z M80.7,559.9c0-1-0.3-2.1-1.4-2.1c-0.9,0-1.5,0.9-1.7,2.1H80.7z"/>
	<path d="M89.7,564h-3.1v-0.3l1.1-0.1v-5c-0.1-0.4-0.6-0.6-1.1-0.6c-1.2,0-1.9,1.2-1.9,2.7v2.9l1.1,0.1v0.3h-3.1v-0.3l1-0.1v-5.3
		l-1-0.2v-0.3l2-0.3v1.6h0c0.4-1.1,1.2-1.7,2.2-1.7c1.2,0,1.9,0.8,1.9,2v4.1l1,0.1V564z"/>
	<path d="M94.3,563.2c-0.3,0.5-0.9,0.9-1.8,0.9c-0.8,0-1.5-0.5-1.5-1.7v-4.2h-1v-0.3l1-0.4l0.8-1.9h0.3v2.1h1.8v0.4h-1.8v4.1
		c0,0.9,0.4,1.2,1,1.2c0.5,0,0.8-0.3,1-0.5L94.3,563.2z"/>
	<path d="M100.6,563.4c-0.2,0.3-0.7,0.7-1.3,0.7s-1-0.4-1.1-0.9c-0.4,0.5-1.2,0.9-1.8,0.9c-1,0-1.8-0.7-1.8-1.6c0-1.1,0.9-1.7,2-1.9
		l1.5-0.3v-1.1c0-0.8-0.3-1.2-1.2-1.2c-0.7,0-1.3,0.5-1.7,1.1l-0.3-0.3c0.5-0.8,1.3-1.4,2.2-1.4c1.4,0,2,0.6,2,1.7v3.4
		c0,0.8,0.3,1,0.6,1c0.2,0,0.5-0.1,0.6-0.3L100.6,563.4z M98.2,562.9v-2.2l-1,0.2c-0.8,0.2-1.4,0.6-1.4,1.4c0,0.7,0.5,1.2,1.1,1.2
		C97.4,563.5,97.9,563.3,98.2,562.9z"/>
	<path d="M104.8,563.2c-0.3,0.5-0.9,0.9-1.8,0.9c-0.8,0-1.5-0.5-1.5-1.7v-4.2h-1v-0.3l1-0.4l0.8-1.9h0.3v2.1h1.8v0.4h-1.8v4.1
		c0,0.9,0.4,1.2,1,1.2c0.5,0,0.8-0.3,1-0.5L104.8,563.2z"/>
	<path d="M108.2,564h-3v-0.3l1-0.1v-5.3l-1-0.2v-0.3l2.1-0.3v6.1l1,0.1V564z M107.3,555.2c0,0.4-0.3,0.7-0.7,0.7s-0.7-0.3-0.7-0.7
		s0.3-0.7,0.7-0.7S107.3,554.9,107.3,555.2z"/>
	<path d="M115,560.8c0,2-1.4,3.3-3.1,3.3c-1.7,0-3.1-1.3-3.1-3.3c0-2,1.4-3.3,3.1-3.3C113.6,557.5,115,558.8,115,560.8z
		 M113.8,560.8c0-1.8-0.7-3-1.9-3s-1.9,1.1-1.9,3s0.7,3,1.9,3S113.8,562.7,113.8,560.8z"/>
	<path d="M122.8,564h-3.1v-0.3l1.1-0.1v-5c-0.1-0.4-0.6-0.6-1.1-0.6c-1.2,0-1.9,1.2-1.9,2.7v2.9l1.1,0.1v0.3h-3.1v-0.3l1-0.1v-5.3
		l-1-0.2v-0.3l2-0.3v1.6h0c0.4-1.1,1.2-1.7,2.2-1.7c1.2,0,1.9,0.8,1.9,2v4.1l1,0.1V564z"/>
	<path d="M129.3,564h-3v-0.3l1-0.1v-5.3l-1-0.2v-0.3l2.1-0.3v6.1l1,0.1V564z M128.4,555.2c0,0.4-0.3,0.7-0.7,0.7s-0.7-0.3-0.7-0.7
		s0.3-0.7,0.7-0.7S128.4,554.9,128.4,555.2z"/>
	<path d="M137,564h-3.1v-0.3l1.1-0.1v-5c-0.1-0.4-0.6-0.6-1.1-0.6c-1.2,0-1.9,1.2-1.9,2.7v2.9l1.1,0.1v0.3H130v-0.3l1-0.1v-5.3
		l-1-0.2v-0.3l2-0.3v1.6h0c0.4-1.1,1.2-1.7,2.2-1.7c1.2,0,1.9,0.8,1.9,2v4.1l1,0.1V564z"/>
	<path d="M146.5,563.4c-0.2,0.3-0.7,0.7-1.3,0.7s-1-0.4-1.1-0.9c-0.4,0.5-1.2,0.9-1.8,0.9c-1,0-1.8-0.7-1.8-1.6c0-1.1,0.9-1.7,2-1.9
		l1.5-0.3v-1.1c0-0.8-0.3-1.2-1.2-1.2c-0.7,0-1.3,0.5-1.7,1.1l-0.3-0.3c0.5-0.8,1.3-1.4,2.2-1.4c1.4,0,2,0.6,2,1.7v3.4
		c0,0.8,0.3,1,0.6,1c0.2,0,0.5-0.1,0.6-0.3L146.5,563.4z M144.1,562.9v-2.2l-1,0.2c-0.8,0.2-1.4,0.6-1.4,1.4c0,0.7,0.5,1.2,1.1,1.2
		C143.3,563.5,143.8,563.3,144.1,562.9z"/>
	<path d="M153.8,564h-3.1v-0.3l1.1-0.1v-5c-0.1-0.4-0.6-0.6-1.1-0.6c-1.2,0-1.9,1.2-1.9,2.7v2.9l1.1,0.1v0.3h-3.1v-0.3l1-0.1v-5.3
		l-1-0.2v-0.3l2-0.3v1.6h0c0.4-1.1,1.2-1.7,2.2-1.7c1.2,0,1.9,0.8,1.9,2v4.1l1,0.1V564z"/>
	<path d="M160.4,564h-3v-0.3l1-0.1v-5.3l-1-0.2v-0.3l2.1-0.3v6.1l1,0.1V564z M159.4,555.2c0,0.4-0.3,0.7-0.7,0.7s-0.7-0.3-0.7-0.7
		s0.3-0.7,0.7-0.7S159.4,554.9,159.4,555.2z"/>
	<path d="M171.8,564h-3.1v-0.3l1.1-0.1v-5c-0.2-0.4-0.4-0.6-1-0.6c-1,0-1.8,1.1-1.8,2.7v2.9l1.1,0.1v0.3h-3.2v-0.3l1.1-0.1v-5
		c-0.2-0.4-0.4-0.6-1-0.6c-1,0-1.8,1.1-1.8,2.7v2.9l1.1,0.1v0.3H161v-0.3l1-0.1v-5.3l-1-0.2v-0.3l2-0.3v1.6h0
		c0.3-0.9,1.1-1.7,2.1-1.7c1,0,1.6,0.6,1.8,1.7h0c0.3-1,1.1-1.7,2.1-1.7c1.1,0,1.8,0.8,1.8,2v4.1l1,0.1V564z"/>
	<path d="M178.3,563.4c-0.2,0.3-0.7,0.7-1.3,0.7s-1-0.4-1.1-0.9c-0.4,0.5-1.2,0.9-1.8,0.9c-1,0-1.8-0.7-1.8-1.6c0-1.1,0.9-1.7,2-1.9
		l1.5-0.3v-1.1c0-0.8-0.3-1.2-1.2-1.2c-0.7,0-1.3,0.5-1.7,1.1l-0.3-0.3c0.5-0.8,1.3-1.4,2.2-1.4c1.4,0,2,0.6,2,1.7v3.4
		c0,0.8,0.3,1,0.6,1c0.2,0,0.5-0.1,0.6-0.3L178.3,563.4z M175.8,562.9v-2.2l-1,0.2c-0.8,0.2-1.4,0.6-1.4,1.4c0,0.7,0.5,1.2,1.1,1.2
		C175,563.5,175.5,563.3,175.8,562.9z"/>
	<path d="M184.5,558.3l-1.7-0.2l0,0c0.5,0.4,0.8,1,0.8,1.6c0,1.5-1.3,2.3-2.5,2.4c-1,0.1-1.4,0.5-1.4,0.9c0,0.2,0.1,0.3,0.2,0.4
		l2.8,0.3c0.8,0.1,1.7,0.6,1.7,1.6c0,1.6-1.4,2.6-3.5,2.6c-1.3,0-2.7-0.7-2.7-2c0-0.8,0.5-1.3,1.2-1.7c-0.3-0.2-0.5-0.5-0.5-0.9
		c0-0.5,0.4-1,1.3-1.3v0c-0.9-0.3-1.6-1.1-1.6-2.2c0-1.4,1.2-2.4,2.5-2.4c0.5,0,1,0.2,1.4,0.4l2-0.4V558.3z M183.5,565.8
		c0-0.6-0.4-1-1.1-1.1l-2.8-0.3c-0.4,0.2-0.6,0.8-0.6,1.3c0,0.9,0.7,1.9,2.3,1.9C182.2,567.6,183.5,567,183.5,565.8z M182.5,559.9
		c0-1.2-0.6-2-1.4-2s-1.4,0.8-1.4,2s0.6,2,1.4,2S182.5,561,182.5,559.9z"/>
	<path d="M190.3,560.3H186c0,0.1,0,0.3,0,0.4c0,1.8,0.9,2.9,2.1,2.9c1,0,1.5-0.4,1.9-0.9l0.3,0.3c-0.3,0.5-1,1.2-2.4,1.2
		c-1.8,0-3.1-1.4-3.1-3.3c0-2,1.5-3.3,3-3.3s2.5,1,2.5,2.5V560.3z M189.2,559.9c0-1-0.3-2.1-1.4-2.1c-0.9,0-1.5,0.9-1.7,2.1H189.2z"
		/>
	<path d="M47.5,577.8c0,2-1.4,3.3-3.1,3.3c-1.7,0-3.1-1.3-3.1-3.3c0-2,1.4-3.3,3.1-3.3C46.2,574.5,47.5,575.8,47.5,577.8z
		 M46.3,577.8c0-1.8-0.7-3-1.9-3s-1.9,1.1-1.9,3s0.7,3,1.9,3S46.3,579.7,46.3,577.8z"/>
	<path d="M52.9,574.9l-0.4,0.9c-0.2-0.1-0.9-0.5-1.1-0.5c-0.7,0-1.2,1-1.2,2.4v3l1.4,0.1v0.3h-3.4v-0.3l1-0.1v-5.3l-1-0.2v-0.3
		l2-0.3v1.6h0c0.3-1.2,1.1-1.7,1.8-1.7C52.4,574.5,52.7,574.7,52.9,574.9z"/>
	<path d="M63,580.8l-2,0.3v-1l0,0c-0.4,0.6-0.9,1-1.9,1c-1.3,0-2.7-1.1-2.7-3.1c0-2.1,1.3-3.5,3-3.5c0.8,0,1.3,0.3,1.6,0.6v-4
		l-1-0.2v-0.3l2.1-0.3v10l1,0.2V580.8z M61,579.5v-3.7c-0.3-0.5-0.9-0.9-1.5-0.9c-1.4,0-1.9,1.5-1.9,3c0,1.6,0.7,2.7,1.9,2.7
		C60.4,580.6,60.8,580,61,579.5z"/>
	<path d="M66.6,581h-3v-0.3l1-0.1v-5.3l-1-0.2v-0.3l2.1-0.3v6.1l1,0.1V581z M65.7,572.2c0,0.4-0.3,0.7-0.7,0.7s-0.7-0.3-0.7-0.7
		s0.3-0.7,0.7-0.7S65.7,571.9,65.7,572.2z"/>
	<path d="M71.6,579.2c0,1-0.8,1.9-2.1,1.9c-0.6,0-1.1-0.1-1.5-0.4l-0.1,0.4h-0.3l-0.1-2l0.3,0c0.2,1.1,0.8,1.6,1.7,1.6
		c0.7,0,1.2-0.5,1.2-1.2c0-0.8-0.7-1.1-1.4-1.4c-0.8-0.3-1.7-0.8-1.7-1.9c0-1,0.8-1.8,1.9-1.8c0.6,0,1,0.1,1.4,0.4l0.2-0.3h0.3
		l0,1.7h-0.3c-0.1-0.9-0.6-1.4-1.5-1.4c-0.7,0-1.1,0.5-1.1,1c0,0.8,0.7,1.1,1.4,1.4C70.7,577.7,71.6,578.1,71.6,579.2z"/>
	<path d="M78.9,577.6c0,2.1-1.4,3.5-3.1,3.5c-0.7,0-1.1-0.2-1.5-0.4v3.7l1.4,0.1v0.3h-3.4v-0.3l1-0.1v-9.1l-1-0.2v-0.3l2-0.3v1h0
		c0.4-0.6,1.1-1.1,2-1.1C77.6,574.5,78.9,575.6,78.9,577.6z M77.7,577.7c0-1.6-0.6-2.7-1.8-2.7c-0.8,0-1.4,0.5-1.6,1.1v4
		c0.3,0.3,0.9,0.6,1.4,0.6C77.1,580.7,77.7,579.2,77.7,577.7z"/>
	<path d="M82.5,581h-3v-0.3l1-0.1v-9.4l-1-0.2v-0.3l2.1-0.3v10.2l1,0.1V581z"/>
	<path d="M89.1,580.4c-0.2,0.3-0.7,0.7-1.3,0.7s-1-0.4-1.1-0.9c-0.4,0.5-1.2,0.9-1.8,0.9c-1,0-1.8-0.7-1.8-1.6c0-1.1,0.9-1.7,2-1.9
		l1.5-0.3v-1.1c0-0.8-0.3-1.2-1.2-1.2c-0.7,0-1.3,0.5-1.7,1.1l-0.3-0.3c0.5-0.8,1.3-1.4,2.2-1.4c1.4,0,2,0.6,2,1.7v3.4
		c0,0.8,0.3,1,0.6,1c0.2,0,0.5-0.1,0.6-0.3L89.1,580.4z M86.7,579.9v-2.2l-1,0.2c-0.8,0.2-1.4,0.6-1.4,1.4c0,0.7,0.5,1.2,1.1,1.2
		C85.8,580.5,86.3,580.3,86.7,579.9z"/>
	<path d="M95.1,575l-0.7,0.2l-2.4,5.9l-1.3,3.8h-1l1.9-3.9l-2.3-5.8l-0.7-0.1v-0.3h2.9v0.3l-1,0.1l1.7,4.6l1.7-4.5l-1-0.1v-0.3h2.3
		V575z"/>
	<path d="M99.3,577.3c0,2.8-1.4,5.4-3.5,7l-0.2-0.3c1.9-1.7,2.8-4.4,2.8-6.7c0-2.3-1-5-2.8-6.7l0.2-0.3
		C97.8,571.9,99.3,574.5,99.3,577.3z"/>
	<path d="M110.1,580.8l-2,0.3v-1l0,0c-0.4,0.6-0.9,1-1.9,1c-1.3,0-2.7-1.1-2.7-3.1c0-2.1,1.3-3.5,3-3.5c0.8,0,1.3,0.3,1.6,0.6v-4
		l-1-0.2v-0.3l2.1-0.3v10l1,0.2V580.8z M108,579.5v-3.7c-0.3-0.5-0.9-0.9-1.5-0.9c-1.4,0-1.9,1.5-1.9,3c0,1.6,0.7,2.7,1.9,2.7
		C107.4,580.6,107.8,580,108,579.5z"/>
	<path d="M113.6,581h-3v-0.3l1-0.1v-5.3l-1-0.2v-0.3l2.1-0.3v6.1l1,0.1V581z M112.7,572.2c0,0.4-0.3,0.7-0.7,0.7s-0.7-0.3-0.7-0.7
		s0.3-0.7,0.7-0.7S112.7,571.9,112.7,572.2z"/>
	<path d="M118.6,579.2c0,1-0.8,1.9-2.1,1.9c-0.6,0-1.1-0.1-1.5-0.4l-0.1,0.4h-0.3l-0.1-2l0.3,0c0.2,1.1,0.8,1.6,1.7,1.6
		c0.7,0,1.2-0.5,1.2-1.2c0-0.8-0.7-1.1-1.4-1.4c-0.8-0.3-1.7-0.8-1.7-1.9c0-1,0.8-1.8,1.9-1.8c0.6,0,1,0.1,1.4,0.4l0.2-0.3h0.3
		l0,1.7h-0.3c-0.1-0.9-0.6-1.4-1.5-1.4c-0.7,0-1.1,0.5-1.1,1c0,0.8,0.7,1.1,1.4,1.4C117.7,577.7,118.6,578.1,118.6,579.2z"/>
	<path d="M123.5,580.2c-0.3,0.5-0.9,0.9-1.8,0.9c-0.8,0-1.5-0.5-1.5-1.7v-4.2h-1v-0.3l1-0.4l0.8-1.9h0.3v2.1h1.8v0.4h-1.8v4.1
		c0,0.9,0.4,1.2,1,1.2c0.5,0,0.8-0.3,1-0.5L123.5,580.2z"/>
	<path d="M126.9,581h-3v-0.3l1-0.1v-5.3l-1-0.2v-0.3l2.1-0.3v6.1l1,0.1V581z M126,572.2c0,0.4-0.3,0.7-0.7,0.7s-0.7-0.3-0.7-0.7
		s0.3-0.7,0.7-0.7S126,571.9,126,572.2z"/>
	<path d="M134.6,581h-3.1v-0.3l1.1-0.1v-5c-0.1-0.4-0.6-0.6-1.1-0.6c-1.2,0-1.9,1.2-1.9,2.7v2.9l1.1,0.1v0.3h-3.1v-0.3l1-0.1v-5.3
		l-1-0.2v-0.3l2-0.3v1.6h0c0.4-1.1,1.2-1.7,2.2-1.7c1.2,0,1.9,0.8,1.9,2v4.1l1,0.1V581z"/>
	<path d="M141.2,575.3l-1.7-0.2l0,0c0.5,0.4,0.8,1,0.8,1.6c0,1.5-1.3,2.3-2.5,2.4c-1,0.1-1.4,0.5-1.4,0.9c0,0.2,0.1,0.3,0.2,0.4
		l2.8,0.3c0.8,0.1,1.7,0.6,1.7,1.6c0,1.6-1.4,2.6-3.5,2.6c-1.3,0-2.7-0.7-2.7-2c0-0.8,0.5-1.3,1.2-1.7c-0.3-0.2-0.5-0.5-0.5-0.9
		c0-0.5,0.4-1,1.3-1.3v0c-0.9-0.3-1.6-1.1-1.6-2.2c0-1.4,1.2-2.4,2.5-2.4c0.5,0,1,0.2,1.4,0.4l2-0.4V575.3z M140.2,582.8
		c0-0.6-0.4-1-1.1-1.1l-2.8-0.3c-0.4,0.2-0.6,0.8-0.6,1.3c0,0.9,0.7,1.9,2.3,1.9C138.8,584.6,140.2,584,140.2,582.8z M139.1,576.9
		c0-1.2-0.6-2-1.4-2s-1.4,0.8-1.4,2s0.6,2,1.4,2S139.1,578,139.1,576.9z"/>
	<path d="M148.4,580.8l-2,0.3v-1.6h0c-0.4,1.1-1.2,1.7-2.2,1.7c-1.2,0-1.9-0.8-1.9-2v-4l-1-0.2v-0.3h2.1v5.3
		c0.1,0.4,0.5,0.6,1.1,0.6c1.2,0,1.9-1.2,1.9-2.7v-2.7l-1.1-0.2v-0.3h2.2v5.7l1,0.2V580.8z"/>
	<path d="M152,581h-3v-0.3l1-0.1v-5.3l-1-0.2v-0.3l2.1-0.3v6.1l1,0.1V581z M151.1,572.2c0,0.4-0.3,0.7-0.7,0.7s-0.7-0.3-0.7-0.7
		s0.3-0.7,0.7-0.7S151.1,571.9,151.1,572.2z"/>
	<path d="M156.9,579.2c0,1-0.8,1.9-2.1,1.9c-0.6,0-1.1-0.1-1.5-0.4l-0.1,0.4h-0.3l-0.1-2l0.3,0c0.2,1.1,0.8,1.6,1.7,1.6
		c0.7,0,1.2-0.5,1.2-1.2c0-0.8-0.7-1.1-1.4-1.4c-0.8-0.3-1.7-0.8-1.7-1.9c0-1,0.8-1.8,1.9-1.8c0.6,0,1,0.1,1.4,0.4l0.2-0.3h0.3
		l0,1.7h-0.3c-0.1-0.9-0.6-1.4-1.5-1.4c-0.7,0-1.1,0.5-1.1,1c0,0.8,0.7,1.1,1.4,1.4C156.1,577.7,156.9,578.1,156.9,579.2z"/>
	<path d="M164.7,581h-3.1v-0.3l1.1-0.1v-5c-0.2-0.4-0.6-0.6-1.1-0.6c-1.2,0-1.9,1.2-1.9,2.7v2.9l1.1,0.1v0.3h-3.1v-0.3l1-0.1v-9.4
		l-1-0.2v-0.3l2.1-0.3v5.7c0.4-1,1.1-1.6,2.2-1.6c1.2,0,1.9,0.8,1.9,2v4.1l1,0.1V581z"/>
	<path d="M171.2,580.4c-0.2,0.3-0.7,0.7-1.3,0.7s-1-0.4-1.1-0.9c-0.4,0.5-1.2,0.9-1.8,0.9c-1,0-1.8-0.7-1.8-1.6c0-1.1,0.9-1.7,2-1.9
		l1.5-0.3v-1.1c0-0.8-0.3-1.2-1.2-1.2c-0.7,0-1.3,0.5-1.7,1.1l-0.3-0.3c0.5-0.8,1.3-1.4,2.2-1.4c1.4,0,2,0.6,2,1.7v3.4
		c0,0.8,0.3,1,0.6,1c0.2,0,0.5-0.1,0.6-0.3L171.2,580.4z M168.8,579.9v-2.2l-1,0.2c-0.8,0.2-1.4,0.6-1.4,1.4c0,0.7,0.5,1.2,1.1,1.2
		C167.9,580.5,168.4,580.3,168.8,579.9z"/>
	<path d="M177.7,577.6c0,2.1-1.2,3.5-3.4,3.5c-0.9,0-1.7-0.2-2.2-0.5v-9.5l-1-0.2v-0.3l2.1-0.3v5.1c0.4-0.6,1.1-1,2-1
		C176.4,574.5,177.7,575.6,177.7,577.6z M176.5,577.7c0-1.6-0.6-2.7-1.8-2.7c-0.8,0-1.3,0.4-1.7,1.1v4.2c0.2,0.2,0.8,0.4,1.4,0.4
		C175.7,580.7,176.5,579.4,176.5,577.7z"/>
	<path d="M181.3,581h-3v-0.3l1-0.1v-9.4l-1-0.2v-0.3l2.1-0.3v10.2l1,0.1V581z"/>
	<path d="M187.5,577.3h-4.3c0,0.1,0,0.3,0,0.4c0,1.8,0.9,2.9,2.1,2.9c1,0,1.5-0.4,1.9-0.9l0.3,0.3c-0.3,0.5-1,1.2-2.4,1.2
		c-1.8,0-3.1-1.4-3.1-3.3c0-2,1.5-3.3,3-3.3s2.5,1,2.5,2.5V577.3z M186.3,576.9c0-1-0.3-2.1-1.4-2.1c-0.9,0-1.5,0.9-1.7,2.1H186.3z"
		/>
	<path d="M190.2,580.3c0,0.4-0.3,0.8-0.8,0.8s-0.8-0.3-0.8-0.8c0-0.4,0.3-0.8,0.8-0.8S190.2,579.9,190.2,580.3z"/>
</g>
<g>
	<path d="M229,505.7h-0.4l-0.2-1.9h-2.6v8.7l1.3,0.1v0.3h-3.7v-0.3l1.3-0.1v-8.7h-2.6l-0.2,1.9h-0.4v-2.3h7.7V505.7z"/>
	<path d="M236.4,513h-3.1v-0.3l1.1-0.1v-5c-0.2-0.4-0.6-0.6-1.1-0.6c-1.2,0-1.9,1.2-1.9,2.7v2.9l1.1,0.1v0.3h-3.1v-0.3l1-0.1v-9.4
		l-1-0.2v-0.3l2.1-0.3v5.7c0.4-1,1.1-1.6,2.2-1.6c1.2,0,1.9,0.8,1.9,2v4.1l1,0.1V513z"/>
	<path d="M242.5,509.3h-4.3c0,0.1,0,0.3,0,0.4c0,1.8,0.9,2.9,2.1,2.9c1,0,1.5-0.4,1.9-0.9l0.3,0.3c-0.3,0.5-1,1.2-2.4,1.2
		c-1.8,0-3.1-1.4-3.1-3.3c0-2,1.5-3.3,3-3.3s2.5,1,2.5,2.5V509.3z M241.3,508.9c0-1-0.3-2.1-1.4-2.1c-0.9,0-1.5,0.9-1.7,2.1H241.3z"
		/>
	<path d="M253.2,513H250v-0.3l1.1-0.1v-5c-0.2-0.4-0.6-0.6-1.1-0.6c-1.2,0-1.9,1.2-1.9,2.7v2.9l1.1,0.1v0.3h-3.1v-0.3l1-0.1v-9.4
		l-1-0.2v-0.3l2.1-0.3v5.7c0.4-1,1.1-1.6,2.2-1.6c1.2,0,1.9,0.8,1.9,2v4.1l1,0.1V513z"/>
	<path d="M260.5,512.8l-2,0.3v-1.6h0c-0.4,1.1-1.2,1.7-2.2,1.7c-1.2,0-1.9-0.8-1.9-2v-4l-1-0.2v-0.3h2.1v5.3
		c0.1,0.4,0.5,0.6,1.1,0.6c1.2,0,1.9-1.2,1.9-2.7v-2.7l-1.1-0.2v-0.3h2.2v5.7l1,0.2V512.8z"/>
	<path d="M271.8,513h-3.1v-0.3l1.1-0.1v-5c-0.2-0.4-0.4-0.6-1-0.6c-1,0-1.8,1.1-1.8,2.7v2.9l1.1,0.1v0.3h-3.2v-0.3l1.1-0.1v-5
		c-0.2-0.4-0.4-0.6-1-0.6c-1,0-1.8,1.1-1.8,2.7v2.9l1.1,0.1v0.3H261v-0.3l1-0.1v-5.3l-1-0.2v-0.3l2-0.3v1.6h0
		c0.3-0.9,1.1-1.7,2.1-1.7c1,0,1.7,0.6,1.8,1.7h0c0.3-1,1.1-1.7,2.1-1.7c1.1,0,1.8,0.8,1.8,2v4.1l1,0.1V513z"/>
	<path d="M278.3,512.4c-0.2,0.3-0.7,0.7-1.3,0.7s-1-0.4-1.1-0.9c-0.4,0.5-1.2,0.9-1.8,0.9c-1,0-1.8-0.7-1.8-1.6c0-1.1,0.9-1.7,2-1.9
		l1.5-0.3v-1.1c0-0.8-0.3-1.2-1.2-1.2c-0.7,0-1.3,0.5-1.7,1.1l-0.3-0.3c0.5-0.8,1.3-1.4,2.2-1.4c1.3,0,2,0.6,2,1.7v3.4
		c0,0.8,0.3,1,0.6,1c0.2,0,0.5-0.1,0.6-0.3L278.3,512.4z M275.8,511.9v-2.2l-1,0.2c-0.8,0.2-1.4,0.6-1.4,1.4c0,0.7,0.5,1.2,1.1,1.2
		C275,512.5,275.5,512.3,275.8,511.9z"/>
	<path d="M285.6,513h-3.1v-0.3l1.1-0.1v-5c-0.1-0.4-0.6-0.6-1.1-0.6c-1.2,0-1.9,1.2-1.9,2.7v2.9l1.1,0.1v0.3h-3.1v-0.3l1-0.1v-5.3
		l-1-0.2v-0.3l2-0.3v1.6h0c0.4-1.1,1.2-1.7,2.2-1.7c1.2,0,1.9,0.8,1.9,2v4.1l1,0.1V513z"/>
	<path d="M295.2,507l-0.7,0.2l-2.5,6h-0.1l-2.5-6.1l-0.7-0.1v-0.3h2.9v0.3l-1,0.1l1.7,4.4l1.7-4.3l-1-0.1v-0.3h2.3V507z"/>
	<path d="M298.6,513h-3v-0.3l1-0.1v-5.3l-1-0.2v-0.3l2.1-0.3v6.1l1,0.1V513z M297.7,504.2c0,0.4-0.3,0.7-0.7,0.7s-0.7-0.3-0.7-0.7
		s0.3-0.7,0.7-0.7S297.7,503.9,297.7,504.2z"/>
	<path d="M303.6,511.2c0,1-0.8,1.9-2.1,1.9c-0.6,0-1.1-0.1-1.5-0.4l-0.2,0.4h-0.3l-0.1-2l0.3,0c0.2,1.1,0.8,1.6,1.7,1.6
		c0.7,0,1.2-0.5,1.2-1.2c0-0.8-0.7-1.1-1.4-1.4c-0.8-0.3-1.7-0.8-1.7-1.9c0-1,0.8-1.8,1.9-1.8c0.6,0,1,0.1,1.4,0.4l0.2-0.3h0.3
		l0,1.7H303c-0.1-0.9-0.6-1.4-1.5-1.4c-0.7,0-1.1,0.5-1.1,1c0,0.8,0.7,1.1,1.4,1.4C302.7,509.7,303.6,510.1,303.6,511.2z"/>
	<path d="M311.2,512.8l-2,0.3v-1.6h0c-0.4,1.1-1.2,1.7-2.2,1.7c-1.2,0-1.9-0.8-1.9-2v-4l-1-0.2v-0.3h2.1v5.3
		c0.2,0.4,0.5,0.6,1.1,0.6c1.2,0,1.9-1.2,1.9-2.7v-2.7l-1.1-0.2v-0.3h2.2v5.7l1,0.2V512.8z"/>
	<path d="M317.7,512.4c-0.2,0.3-0.7,0.7-1.3,0.7s-1-0.4-1.1-0.9c-0.5,0.5-1.2,0.9-1.8,0.9c-1,0-1.8-0.7-1.8-1.6c0-1.1,0.9-1.7,2-1.9
		l1.5-0.3v-1.1c0-0.8-0.3-1.2-1.2-1.2c-0.7,0-1.3,0.5-1.7,1.1l-0.3-0.3c0.5-0.8,1.3-1.4,2.2-1.4c1.4,0,2,0.6,2,1.7v3.4
		c0,0.8,0.3,1,0.6,1c0.2,0,0.5-0.1,0.6-0.3L317.7,512.4z M315.3,511.9v-2.2l-1,0.2c-0.8,0.2-1.4,0.6-1.4,1.4c0,0.7,0.5,1.2,1.1,1.2
		C314.5,512.5,315,512.3,315.3,511.9z"/>
	<path d="M320.8,513h-3v-0.3l1-0.1v-9.4l-1-0.2v-0.3l2.1-0.3v10.2l1,0.1V513z"/>
	<path d="M328.8,511.2c0,1-0.8,1.9-2.1,1.9c-0.6,0-1.1-0.1-1.5-0.4l-0.2,0.4h-0.3l-0.1-2l0.3,0c0.2,1.1,0.8,1.6,1.7,1.6
		c0.7,0,1.2-0.5,1.2-1.2c0-0.8-0.7-1.1-1.4-1.4c-0.8-0.3-1.7-0.8-1.7-1.9c0-1,0.8-1.8,1.9-1.8c0.6,0,1,0.1,1.4,0.4l0.2-0.3h0.3
		l0,1.7h-0.3c-0.1-0.9-0.6-1.4-1.5-1.4c-0.7,0-1.1,0.5-1.1,1c0,0.8,0.7,1.1,1.4,1.4C327.9,509.7,328.8,510.1,328.8,511.2z"/>
	<path d="M335.6,507l-0.7,0.2l-2.4,5.9l-1.3,3.8h-1l1.9-3.9l-2.3-5.8l-0.7-0.1v-0.3h2.9v0.3l-1,0.1l1.7,4.6l1.7-4.5l-1-0.1v-0.3h2.3
		V507z"/>
	<path d="M340,511.2c0,1-0.8,1.9-2.1,1.9c-0.6,0-1.1-0.1-1.5-0.4l-0.2,0.4H336l-0.1-2l0.3,0c0.2,1.1,0.8,1.6,1.7,1.6
		c0.7,0,1.2-0.5,1.2-1.2c0-0.8-0.7-1.1-1.4-1.4c-0.8-0.3-1.7-0.8-1.7-1.9c0-1,0.8-1.8,1.9-1.8c0.6,0,1,0.1,1.4,0.4l0.2-0.3h0.3
		l0,1.7h-0.3c-0.1-0.9-0.6-1.4-1.5-1.4c-0.7,0-1.1,0.5-1.1,1c0,0.8,0.7,1.1,1.4,1.4C339.2,509.7,340,510.1,340,511.2z"/>
	<path d="M345,512.2c-0.3,0.5-0.9,0.9-1.8,0.9c-0.8,0-1.5-0.5-1.5-1.7v-4.2h-1v-0.3l1-0.4l0.8-1.9h0.3v2.1h1.8v0.4h-1.8v4.1
		c0,0.9,0.4,1.2,1,1.2c0.5,0,0.8-0.3,1-0.5L345,512.2z"/>
	<path d="M350.7,509.3h-4.3c0,0.1,0,0.3,0,0.4c0,1.8,0.9,2.9,2.1,2.9c1,0,1.5-0.4,1.9-0.9l0.3,0.3c-0.3,0.5-1,1.2-2.4,1.2
		c-1.8,0-3.1-1.4-3.1-3.3c0-2,1.5-3.3,3-3.3s2.5,1,2.5,2.5V509.3z M349.6,508.9c0-1-0.3-2.1-1.4-2.1c-0.9,0-1.5,0.9-1.7,2.1H349.6z"
		/>
	<path d="M362.4,513h-3.1v-0.3l1.1-0.1v-5c-0.2-0.4-0.4-0.6-1-0.6c-1,0-1.8,1.1-1.8,2.7v2.9l1.1,0.1v0.3h-3.2v-0.3l1.1-0.1v-5
		c-0.2-0.4-0.4-0.6-1-0.6c-1,0-1.8,1.1-1.8,2.7v2.9l1.1,0.1v0.3h-3.1v-0.3l1-0.1v-5.3l-1-0.2v-0.3l2-0.3v1.6h0
		c0.3-0.9,1.1-1.7,2.1-1.7c1,0,1.7,0.6,1.8,1.7h0c0.3-1,1.1-1.7,2.1-1.7c1.1,0,1.8,0.8,1.8,2v4.1l1,0.1V513z"/>
	<path d="M368.9,513h-3v-0.3l1-0.1v-5.3l-1-0.2v-0.3l2.1-0.3v6.1l1,0.1V513z M368,504.2c0,0.4-0.3,0.7-0.7,0.7s-0.7-0.3-0.7-0.7
		s0.3-0.7,0.7-0.7S368,503.9,368,504.2z"/>
	<path d="M373.9,511.2c0,1-0.8,1.9-2.1,1.9c-0.6,0-1.1-0.1-1.5-0.4l-0.2,0.4h-0.3l-0.1-2l0.3,0c0.2,1.1,0.8,1.6,1.7,1.6
		c0.7,0,1.2-0.5,1.2-1.2c0-0.8-0.7-1.1-1.4-1.4c-0.8-0.3-1.7-0.8-1.7-1.9c0-1,0.8-1.8,1.9-1.8c0.6,0,1,0.1,1.4,0.4l0.2-0.3h0.3
		l0,1.7h-0.3c-0.1-0.9-0.6-1.4-1.5-1.4c-0.7,0-1.1,0.5-1.1,1c0,0.8,0.7,1.1,1.4,1.4C373,509.7,373.9,510.1,373.9,511.2z"/>
	<path d="M232.2,530h-3.1v-0.3l1.1-0.1v-5c-0.2-0.4-0.4-0.6-1-0.6c-1,0-1.8,1.1-1.8,2.7v2.9l1.1,0.1v0.3h-3.2v-0.3l1.1-0.1v-5
		c-0.2-0.4-0.4-0.6-1-0.6c-1,0-1.8,1.1-1.8,2.7v2.9l1.1,0.1v0.3h-3.1v-0.3l1-0.1v-5.3l-1-0.2v-0.3l2-0.3v1.6h0
		c0.3-0.9,1.1-1.7,2.1-1.7c1,0,1.6,0.6,1.8,1.7h0c0.3-1,1.1-1.7,2.1-1.7c1.1,0,1.8,0.8,1.8,2v4.1l1,0.1V530z"/>
	<path d="M238.9,526.8c0,2-1.4,3.3-3.1,3.3c-1.7,0-3.1-1.3-3.1-3.3c0-2,1.4-3.3,3.1-3.3C237.6,523.5,238.9,524.8,238.9,526.8z
		 M237.7,526.8c0-1.8-0.7-3-1.9-3s-1.9,1.1-1.9,3s0.7,3,1.9,3S237.7,528.7,237.7,526.8z"/>
	<path d="M244.3,523.9l-0.4,0.9c-0.2-0.1-0.9-0.5-1.1-0.5c-0.7,0-1.2,1-1.2,2.4v3l1.4,0.1v0.3h-3.4v-0.3l1-0.1v-5.3l-1-0.2v-0.3
		l2-0.3v1.6h0c0.3-1.2,1.1-1.7,1.8-1.7C243.7,523.5,244.1,523.7,244.3,523.9z"/>
	<path d="M250.1,526.3h-4.3c0,0.1,0,0.3,0,0.4c0,1.8,0.9,2.9,2.1,2.9c1,0,1.5-0.4,1.9-0.9l0.3,0.3c-0.3,0.5-1,1.2-2.4,1.2
		c-1.8,0-3.1-1.4-3.1-3.3c0-2,1.5-3.3,3-3.3s2.5,1,2.5,2.5V526.3z M249,525.9c0-1-0.3-2.1-1.4-2.1c-0.9,0-1.5,0.9-1.7,2.1H249z"/>
	<path d="M258.3,528.2c0,1-0.8,1.9-2.1,1.9c-0.6,0-1.1-0.1-1.5-0.4l-0.1,0.4h-0.3l-0.1-2l0.3,0c0.2,1.1,0.8,1.6,1.7,1.6
		c0.7,0,1.2-0.5,1.2-1.2c0-0.8-0.7-1.1-1.4-1.4c-0.8-0.3-1.7-0.8-1.7-1.9c0-1,0.8-1.8,1.9-1.8c0.6,0,1,0.1,1.4,0.4l0.2-0.3h0.3
		l0,1.7h-0.3c-0.2-0.9-0.6-1.4-1.5-1.4c-0.7,0-1.1,0.5-1.1,1c0,0.8,0.7,1.1,1.4,1.4C257.4,526.7,258.3,527.1,258.3,528.2z"/>
	<path d="M264.6,526.3h-4.3c0,0.1,0,0.3,0,0.4c0,1.8,0.9,2.9,2.1,2.9c1,0,1.5-0.4,1.9-0.9l0.3,0.3c-0.3,0.5-1,1.2-2.4,1.2
		c-1.8,0-3.1-1.4-3.1-3.3c0-2,1.5-3.3,3-3.3s2.5,1,2.5,2.5V526.3z M263.5,525.9c0-1-0.3-2.1-1.4-2.1c-0.9,0-1.5,0.9-1.7,2.1H263.5z"
		/>
	<path d="M272.5,530h-3.1v-0.3l1.1-0.1v-5c-0.1-0.4-0.6-0.6-1.1-0.6c-1.2,0-1.9,1.2-1.9,2.7v2.9l1.1,0.1v0.3h-3.1v-0.3l1-0.1v-5.3
		l-1-0.2v-0.3l2-0.3v1.6h0c0.4-1.1,1.2-1.7,2.2-1.7c1.2,0,1.9,0.8,1.9,2v4.1l1,0.1V530z"/>
	<path d="M277.4,528.2c0,1-0.8,1.9-2.1,1.9c-0.6,0-1.1-0.1-1.5-0.4l-0.1,0.4h-0.3l-0.1-2l0.3,0c0.2,1.1,0.8,1.6,1.7,1.6
		c0.7,0,1.2-0.5,1.2-1.2c0-0.8-0.7-1.1-1.4-1.4c-0.8-0.3-1.7-0.8-1.7-1.9c0-1,0.8-1.8,1.9-1.8c0.6,0,1,0.1,1.4,0.4l0.2-0.3h0.3
		l0,1.7h-0.3c-0.2-0.9-0.6-1.4-1.5-1.4c-0.7,0-1.1,0.5-1.1,1c0,0.8,0.7,1.1,1.4,1.4C276.5,526.7,277.4,527.1,277.4,528.2z"/>
	<path d="M281.2,530h-3v-0.3l1-0.1v-5.3l-1-0.2v-0.3l2.1-0.3v6.1l1,0.1V530z M280.3,521.2c0,0.4-0.3,0.7-0.7,0.7s-0.7-0.3-0.7-0.7
		s0.3-0.7,0.7-0.7S280.3,520.9,280.3,521.2z"/>
	<path d="M285.9,529.2c-0.3,0.5-0.9,0.9-1.8,0.9c-0.8,0-1.5-0.5-1.5-1.7v-4.2h-1v-0.3l1-0.4l0.8-1.9h0.3v2.1h1.8v0.4h-1.8v4.1
		c0,0.9,0.4,1.2,1,1.2c0.5,0,0.8-0.3,1-0.5L285.9,529.2z"/>
	<path d="M289.4,530h-3v-0.3l1-0.1v-5.3l-1-0.2v-0.3l2.1-0.3v6.1l1,0.1V530z M288.4,521.2c0,0.4-0.3,0.7-0.7,0.7s-0.7-0.3-0.7-0.7
		s0.3-0.7,0.7-0.7S288.4,520.9,288.4,521.2z"/>
	<path d="M296,524l-0.7,0.2l-2.5,6h-0.1l-2.5-6.1l-0.7-0.1v-0.3h2.9v0.3l-1,0.1l1.7,4.4l1.7-4.3l-1-0.1v-0.3h2.3V524z"/>
	<path d="M301.6,526.3h-4.3c0,0.1,0,0.3,0,0.4c0,1.8,0.9,2.9,2.1,2.9c1,0,1.5-0.4,1.9-0.9l0.3,0.3c-0.3,0.5-1,1.2-2.4,1.2
		c-1.8,0-3.1-1.4-3.1-3.3c0-2,1.5-3.3,3-3.3s2.5,1,2.5,2.5V526.3z M300.4,525.9c0-1-0.3-2.1-1.4-2.1c-0.9,0-1.5,0.9-1.7,2.1H300.4z"
		/>
	<path d="M309.4,529.2c-0.3,0.5-0.9,0.9-1.8,0.9c-0.8,0-1.5-0.5-1.5-1.7v-4.2h-1v-0.3l1-0.4l0.8-1.9h0.3v2.1h1.8v0.4h-1.8v4.1
		c0,0.9,0.4,1.2,1,1.2c0.5,0,0.8-0.3,1-0.5L309.4,529.2z"/>
	<path d="M315.9,526.8c0,2-1.4,3.3-3.1,3.3c-1.7,0-3.1-1.3-3.1-3.3c0-2,1.4-3.3,3.1-3.3C314.5,523.5,315.9,524.8,315.9,526.8z
		 M314.7,526.8c0-1.8-0.7-3-1.9-3s-1.9,1.1-1.9,3s0.7,3,1.9,3S314.7,528.7,314.7,526.8z"/>
	<path d="M325,529c-0.3,0.5-1,1.2-2.4,1.2c-1.7,0-3.1-1.4-3.1-3.4c0-2,1.5-3.3,3.1-3.3c0.7,0,1.2,0.1,1.8,0.4l0.2-0.4h0.3l-0.1,1.8
		h-0.3c-0.2-0.9-0.8-1.5-1.8-1.5c-1.2,0-2,1.1-2,2.8c0,1.7,0.9,2.9,2.1,2.9c1,0,1.5-0.4,1.9-0.9L325,529z"/>
	<path d="M331.8,526.8c0,2-1.4,3.3-3.1,3.3s-3.1-1.3-3.1-3.3c0-2,1.4-3.3,3.1-3.3S331.8,524.8,331.8,526.8z M330.6,526.8
		c0-1.8-0.7-3-1.9-3s-1.9,1.1-1.9,3s0.7,3,1.9,3S330.6,528.7,330.6,526.8z"/>
	<path d="M339.6,530h-3.1v-0.3l1.1-0.1v-5c-0.2-0.4-0.6-0.6-1.1-0.6c-1.2,0-1.9,1.2-1.9,2.7v2.9l1.1,0.1v0.3h-3.1v-0.3l1-0.1v-5.3
		l-1-0.2v-0.3l2-0.3v1.6h0c0.4-1.1,1.2-1.7,2.2-1.7c1.2,0,1.9,0.8,1.9,2v4.1l1,0.1V530z"/>
	<path d="M344.2,529.2c-0.3,0.5-0.9,0.9-1.8,0.9c-0.8,0-1.5-0.5-1.5-1.7v-4.2h-1v-0.3l1-0.4l0.8-1.9h0.3v2.1h1.8v0.4H342v4.1
		c0,0.9,0.4,1.2,1,1.2c0.5,0,0.8-0.3,1-0.5L344.2,529.2z"/>
	<path d="M349.3,523.9l-0.4,0.9c-0.2-0.1-0.9-0.5-1.1-0.5c-0.7,0-1.2,1-1.2,2.4v3l1.4,0.1v0.3h-3.4v-0.3l1-0.1v-5.3l-1-0.2v-0.3
		l2-0.3v1.6h0c0.3-1.2,1.1-1.7,1.8-1.7C348.7,523.5,349.1,523.7,349.3,523.9z"/>
	<path d="M355.6,529.4c-0.2,0.3-0.7,0.7-1.3,0.7s-1-0.4-1.1-0.9c-0.4,0.5-1.2,0.9-1.8,0.9c-1,0-1.8-0.7-1.8-1.6c0-1.1,0.9-1.7,2-1.9
		l1.5-0.3v-1.1c0-0.8-0.3-1.2-1.2-1.2c-0.7,0-1.3,0.5-1.7,1.1l-0.3-0.3c0.5-0.8,1.3-1.4,2.2-1.4c1.3,0,2,0.6,2,1.7v3.4
		c0,0.8,0.3,1,0.6,1c0.2,0,0.5-0.1,0.6-0.3L355.6,529.4z M353.1,528.9v-2.2l-1,0.2c-0.8,0.2-1.4,0.6-1.4,1.4c0,0.7,0.5,1.2,1.1,1.2
		C352.3,529.5,352.8,529.3,353.1,528.9z"/>
	<path d="M360.1,528.2c0,1-0.8,1.9-2.1,1.9c-0.6,0-1.1-0.1-1.5-0.4l-0.1,0.4H356l-0.1-2l0.3,0c0.2,1.1,0.8,1.6,1.7,1.6
		c0.7,0,1.2-0.5,1.2-1.2c0-0.8-0.7-1.1-1.4-1.4c-0.8-0.3-1.7-0.8-1.7-1.9c0-1,0.8-1.8,1.9-1.8c0.6,0,1,0.1,1.4,0.4l0.2-0.3h0.3
		l0,1.7h-0.3c-0.2-0.9-0.6-1.4-1.5-1.4c-0.7,0-1.1,0.5-1.1,1c0,0.8,0.7,1.1,1.4,1.4C359.2,526.7,360.1,527.1,360.1,528.2z"/>
	<path d="M365,529.2c-0.3,0.5-0.9,0.9-1.8,0.9c-0.8,0-1.5-0.5-1.5-1.7v-4.2h-1v-0.3l1-0.4l0.8-1.9h0.3v2.1h1.8v0.4h-1.8v4.1
		c0,0.9,0.4,1.2,1,1.2c0.5,0,0.8-0.3,1-0.5L365,529.2z"/>
	<path d="M225.5,546.2c-0.3,0.5-0.9,0.9-1.8,0.9c-0.8,0-1.5-0.5-1.5-1.7v-4.2h-1v-0.3l1-0.4l0.8-1.9h0.3v2.1h1.8v0.4h-1.8v4.1
		c0,0.9,0.4,1.2,1,1.2c0.5,0,0.8-0.3,1-0.5L225.5,546.2z"/>
	<path d="M232.8,547h-3.1v-0.3l1.1-0.1v-5c-0.2-0.4-0.6-0.6-1.1-0.6c-1.2,0-1.9,1.2-1.9,2.7v2.9l1.1,0.1v0.3h-3.1v-0.3l1-0.1v-9.4
		l-1-0.2v-0.3l2.1-0.3v5.7c0.4-1,1.1-1.6,2.2-1.6c1.2,0,1.9,0.8,1.9,2v4.1l1,0.1V547z"/>
	<path d="M239.3,546.4c-0.2,0.3-0.7,0.7-1.3,0.7s-1-0.4-1.1-0.9c-0.5,0.5-1.2,0.9-1.8,0.9c-1,0-1.8-0.7-1.8-1.6c0-1.1,0.9-1.7,2-1.9
		l1.5-0.3v-1.1c0-0.8-0.3-1.2-1.2-1.2c-0.7,0-1.3,0.5-1.7,1.1l-0.3-0.3c0.5-0.8,1.3-1.4,2.2-1.4c1.4,0,2,0.6,2,1.7v3.4
		c0,0.8,0.3,1,0.6,1c0.2,0,0.5-0.1,0.6-0.3L239.3,546.4z M236.8,545.9v-2.2l-1,0.2c-0.8,0.2-1.4,0.6-1.4,1.4c0,0.7,0.5,1.2,1.1,1.2
		C236,546.5,236.5,546.3,236.8,545.9z"/>
	<path d="M246.5,547h-3.1v-0.3l1.1-0.1v-5c-0.2-0.4-0.6-0.6-1.1-0.6c-1.2,0-1.9,1.2-1.9,2.7v2.9l1.1,0.1v0.3h-3.1v-0.3l1-0.1v-5.3
		l-1-0.2v-0.3l2-0.3v1.6h0c0.4-1.1,1.2-1.7,2.2-1.7c1.2,0,1.9,0.8,1.9,2v4.1l1,0.1V547z"/>
	<path d="M256,546.4c-0.2,0.3-0.7,0.7-1.3,0.7s-1-0.4-1.1-0.9c-0.5,0.5-1.2,0.9-1.8,0.9c-1,0-1.8-0.7-1.8-1.6c0-1.1,0.9-1.7,2-1.9
		l1.5-0.3v-1.1c0-0.8-0.3-1.2-1.2-1.2c-0.7,0-1.3,0.5-1.7,1.1l-0.3-0.3c0.5-0.8,1.3-1.4,2.2-1.4c1.4,0,2,0.6,2,1.7v3.4
		c0,0.8,0.3,1,0.6,1c0.2,0,0.5-0.1,0.6-0.3L256,546.4z M253.6,545.9v-2.2l-1,0.2c-0.8,0.2-1.4,0.6-1.4,1.4c0,0.7,0.5,1.2,1.1,1.2
		C252.7,546.5,253.2,546.3,253.6,545.9z"/>
	<path d="M262.5,543.6c0,2.1-1.2,3.5-3.4,3.5c-0.9,0-1.7-0.2-2.2-0.5v-9.5l-1-0.2v-0.3l2.1-0.3v5.1c0.4-0.6,1.1-1,2-1
		C261.2,540.5,262.5,541.6,262.5,543.6z M261.3,543.7c0-1.6-0.6-2.7-1.8-2.7c-0.8,0-1.3,0.4-1.7,1.1v4.2c0.2,0.2,0.8,0.4,1.3,0.4
		C260.5,546.7,261.3,545.4,261.3,543.7z"/>
	<path d="M267.6,545.2c0,1-0.8,1.9-2.1,1.9c-0.6,0-1.1-0.1-1.5-0.4l-0.2,0.4h-0.3l-0.1-2l0.3,0c0.2,1.1,0.8,1.6,1.7,1.6
		c0.7,0,1.2-0.5,1.2-1.2c0-0.8-0.7-1.1-1.4-1.4c-0.8-0.3-1.7-0.8-1.7-1.9c0-1,0.8-1.8,1.9-1.8c0.6,0,1,0.1,1.4,0.4l0.2-0.3h0.3
		l0,1.7h-0.3c-0.1-0.9-0.6-1.4-1.5-1.4c-0.7,0-1.1,0.5-1.1,1c0,0.8,0.7,1.1,1.4,1.4C266.7,543.7,267.6,544.1,267.6,545.2z"/>
	<path d="M274.6,543.8c0,2-1.4,3.3-3.1,3.3s-3.1-1.3-3.1-3.3c0-2,1.4-3.3,3.1-3.3S274.6,541.8,274.6,543.8z M273.4,543.8
		c0-1.8-0.7-3-1.9-3s-1.9,1.1-1.9,3s0.7,3,1.9,3S273.4,545.7,273.4,543.8z"/>
	<path d="M278.2,547h-3v-0.3l1-0.1v-9.4l-1-0.2v-0.3l2.1-0.3v10.2l1,0.1V547z"/>
	<path d="M285.6,546.8l-2,0.3v-1.6h0c-0.4,1.1-1.2,1.7-2.2,1.7c-1.2,0-1.9-0.8-1.9-2v-4l-1-0.2v-0.3h2.1v5.3
		c0.1,0.4,0.5,0.6,1.1,0.6c1.2,0,1.9-1.2,1.9-2.7v-2.7l-1.1-0.2v-0.3h2.2v5.7l1,0.2V546.8z"/>
	<path d="M290.2,546.2c-0.3,0.5-0.9,0.9-1.8,0.9c-0.8,0-1.5-0.5-1.5-1.7v-4.2h-1v-0.3l1-0.4l0.8-1.9h0.3v2.1h1.8v0.4H288v4.1
		c0,0.9,0.4,1.2,1,1.2c0.5,0,0.8-0.3,1-0.5L290.2,546.2z"/>
	<path d="M296,543.3h-4.3c0,0.1,0,0.3,0,0.4c0,1.8,0.9,2.9,2.1,2.9c1,0,1.5-0.4,1.9-0.9l0.3,0.3c-0.3,0.5-1,1.2-2.4,1.2
		c-1.8,0-3.1-1.4-3.1-3.3c0-2,1.5-3.3,3-3.3s2.5,1,2.5,2.5V543.3z M294.9,542.9c0-1-0.3-2.1-1.4-2.1c-0.9,0-1.5,0.9-1.7,2.1H294.9z"
		/>
	<path d="M302.7,547h-3v-0.3l1-0.1v-9.4l-1-0.2v-0.3l2.1-0.3v10.2l1,0.1V547z"/>
	<path d="M310.1,546.8l-2,0.3v-1.6h0c-0.4,1.1-1.2,1.7-2.2,1.7c-1.2,0-1.9-0.8-1.9-2v-4l-1-0.2v-0.3h2.1v5.3
		c0.1,0.4,0.5,0.6,1.1,0.6c1.2,0,1.9-1.2,1.9-2.7v-2.7L307,541v-0.3h2.2v5.7l1,0.2V546.8z"/>
	<path d="M321.5,547h-3.1v-0.3l1.1-0.1v-5c-0.2-0.4-0.4-0.6-1-0.6c-1,0-1.8,1.1-1.8,2.7v2.9l1.1,0.1v0.3h-3.2v-0.3l1.1-0.1v-5
		c-0.2-0.4-0.4-0.6-1-0.6c-1,0-1.8,1.1-1.8,2.7v2.9l1.1,0.1v0.3h-3.1v-0.3l1-0.1v-5.3l-1-0.2v-0.3l2-0.3v1.6h0
		c0.3-0.9,1.1-1.7,2.1-1.7c1,0,1.7,0.6,1.8,1.7h0c0.3-1,1.1-1.7,2.1-1.7c1.1,0,1.8,0.8,1.8,2v4.1l1,0.1V547z"/>
	<path d="M325,547h-3v-0.3l1-0.1v-5.3l-1-0.2v-0.3l2.1-0.3v6.1l1,0.1V547z M324.1,538.2c0,0.4-0.3,0.7-0.7,0.7s-0.7-0.3-0.7-0.7
		s0.3-0.7,0.7-0.7S324.1,537.9,324.1,538.2z"/>
	<path d="M332.7,547h-3.1v-0.3l1.1-0.1v-5c-0.2-0.4-0.6-0.6-1.1-0.6c-1.2,0-1.9,1.2-1.9,2.7v2.9l1.1,0.1v0.3h-3.1v-0.3l1-0.1v-5.3
		l-1-0.2v-0.3l2-0.3v1.6h0c0.4-1.1,1.2-1.7,2.2-1.7c1.2,0,1.9,0.8,1.9,2v4.1l1,0.1V547z"/>
	<path d="M339.2,546.4c-0.2,0.3-0.7,0.7-1.3,0.7s-1-0.4-1.1-0.9c-0.5,0.5-1.2,0.9-1.8,0.9c-1,0-1.8-0.7-1.8-1.6c0-1.1,0.9-1.7,2-1.9
		l1.5-0.3v-1.1c0-0.8-0.3-1.2-1.2-1.2c-0.7,0-1.3,0.5-1.7,1.1l-0.3-0.3c0.5-0.8,1.3-1.4,2.2-1.4c1.4,0,2,0.6,2,1.7v3.4
		c0,0.8,0.3,1,0.6,1c0.2,0,0.5-0.1,0.6-0.3L339.2,546.4z M336.8,545.9v-2.2l-1,0.2c-0.8,0.2-1.4,0.6-1.4,1.4c0,0.7,0.5,1.2,1.1,1.2
		C335.9,546.5,336.4,546.3,336.8,545.9z"/>
	<path d="M346.5,547h-3.1v-0.3l1.1-0.1v-5c-0.2-0.4-0.6-0.6-1.1-0.6c-1.2,0-1.9,1.2-1.9,2.7v2.9l1.1,0.1v0.3h-3.1v-0.3l1-0.1v-5.3
		l-1-0.2v-0.3l2-0.3v1.6h0c0.4-1.1,1.2-1.7,2.2-1.7c1.2,0,1.9,0.8,1.9,2v4.1l1,0.1V547z"/>
	<path d="M352.4,546c-0.3,0.5-1,1.2-2.4,1.2c-1.7,0-3.1-1.4-3.1-3.4c0-2,1.5-3.3,3.1-3.3c0.7,0,1.2,0.1,1.8,0.4l0.2-0.4h0.3
		l-0.1,1.8h-0.3c-0.2-0.9-0.8-1.5-1.8-1.5c-1.2,0-2,1.1-2,2.8c0,1.7,0.9,2.9,2.1,2.9c1,0,1.5-0.4,1.9-0.9L352.4,546z"/>
	<path d="M358.6,543.3h-4.3c0,0.1,0,0.3,0,0.4c0,1.8,0.9,2.9,2.1,2.9c1,0,1.5-0.4,1.9-0.9l0.3,0.3c-0.3,0.5-1,1.2-2.4,1.2
		c-1.8,0-3.1-1.4-3.1-3.3c0-2,1.5-3.3,3-3.3s2.5,1,2.5,2.5V543.3z M357.4,542.9c0-1-0.3-2.1-1.4-2.1c-0.9,0-1.5,0.9-1.7,2.1H357.4z"
		/>
	<path d="M361.3,546.3c0,0.4-0.3,0.8-0.8,0.8c-0.4,0-0.8-0.3-0.8-0.8c0-0.4,0.3-0.8,0.8-0.8C360.9,545.6,361.3,545.9,361.3,546.3z"
		/>
	<path d="M229,556.7h-0.4l-0.2-1.9h-2.6v8.7l1.3,0.1v0.3h-3.7v-0.3l1.3-0.1v-8.7h-2.6l-0.2,1.9h-0.4v-2.3h7.7V556.7z"/>
	<path d="M236.4,564h-3.1v-0.3l1.1-0.1v-5c-0.2-0.4-0.6-0.6-1.1-0.6c-1.2,0-1.9,1.2-1.9,2.7v2.9l1.1,0.1v0.3h-3.1v-0.3l1-0.1v-9.4
		l-1-0.2v-0.3l2.1-0.3v5.7c0.4-1,1.1-1.6,2.2-1.6c1.2,0,1.9,0.8,1.9,2v4.1l1,0.1V564z"/>
	<path d="M242.5,560.3h-4.3c0,0.1,0,0.3,0,0.4c0,1.8,0.9,2.9,2.1,2.9c1,0,1.5-0.4,1.9-0.9l0.3,0.3c-0.3,0.5-1,1.2-2.4,1.2
		c-1.8,0-3.1-1.4-3.1-3.3c0-2,1.5-3.3,3-3.3s2.5,1,2.5,2.5V560.3z M241.3,559.9c0-1-0.3-2.1-1.4-2.1c-0.9,0-1.5,0.9-1.7,2.1H241.3z"
		/>
	<path d="M257.1,564h-3.1v-0.3l1.1-0.1v-5c-0.2-0.4-0.4-0.6-1-0.6c-1,0-1.8,1.1-1.8,2.7v2.9l1.1,0.1v0.3H250v-0.3l1.1-0.1v-5
		c-0.2-0.4-0.4-0.6-1-0.6c-1,0-1.8,1.1-1.8,2.7v2.9l1.1,0.1v0.3h-3.1v-0.3l1-0.1v-5.3l-1-0.2v-0.3l2-0.3v1.6h0
		c0.3-0.9,1.1-1.7,2.1-1.7c1,0,1.6,0.6,1.8,1.7h0c0.3-1,1.1-1.7,2.1-1.7c1.1,0,1.8,0.8,1.8,2v4.1l1,0.1V564z"/>
	<path d="M263.6,563.4c-0.2,0.3-0.7,0.7-1.3,0.7s-1-0.4-1.1-0.9c-0.5,0.5-1.2,0.9-1.8,0.9c-1,0-1.8-0.7-1.8-1.6c0-1.1,0.9-1.7,2-1.9
		l1.5-0.3v-1.1c0-0.8-0.3-1.2-1.2-1.2c-0.7,0-1.3,0.5-1.7,1.1l-0.3-0.3c0.5-0.8,1.3-1.4,2.2-1.4c1.4,0,2,0.6,2,1.7v3.4
		c0,0.8,0.3,1,0.6,1c0.2,0,0.5-0.1,0.6-0.3L263.6,563.4z M261.1,562.9v-2.2l-1,0.2c-0.8,0.2-1.4,0.6-1.4,1.4c0,0.7,0.5,1.2,1.1,1.2
		C260.3,563.5,260.8,563.3,261.1,562.9z"/>
	<path d="M269.7,564h-2.9v-0.3l1-0.1l-1.5-2.3l-1.4,2.3l1,0.1v0.3h-2.5v-0.3l0.9-0.1l1.7-2.6l-1.9-2.8l-0.7-0.1v-0.3h2.8v0.3
		l-0.9,0.1l1.3,2.1l1.3-2.1l-0.9-0.1v-0.3h2.4v0.3l-0.9,0.1l-1.6,2.4l2,3l0.7,0.1V564z"/>
	<path d="M273.2,564h-3v-0.3l1-0.1v-5.3l-1-0.2v-0.3l2.1-0.3v6.1l1,0.1V564z M272.3,555.2c0,0.4-0.3,0.7-0.7,0.7s-0.7-0.3-0.7-0.7
		s0.3-0.7,0.7-0.7S272.3,554.9,272.3,555.2z"/>
	<path d="M284.7,564h-3.1v-0.3l1.1-0.1v-5c-0.2-0.4-0.4-0.6-1-0.6c-1,0-1.8,1.1-1.8,2.7v2.9l1.1,0.1v0.3h-3.2v-0.3l1.1-0.1v-5
		c-0.2-0.4-0.4-0.6-1-0.6c-1,0-1.8,1.1-1.8,2.7v2.9l1.1,0.1v0.3h-3.1v-0.3l1-0.1v-5.3l-1-0.2v-0.3l2-0.3v1.6h0
		c0.3-0.9,1.1-1.7,2.1-1.7c1,0,1.7,0.6,1.8,1.7h0c0.3-1,1.1-1.7,2.1-1.7c1.1,0,1.8,0.8,1.8,2v4.1l1,0.1V564z"/>
	<path d="M292,563.8l-2,0.3v-1.6h0c-0.4,1.1-1.2,1.7-2.2,1.7c-1.2,0-1.9-0.8-1.9-2v-4l-1-0.2v-0.3h2.1v5.3c0.2,0.4,0.5,0.6,1.1,0.6
		c1.2,0,1.9-1.2,1.9-2.7v-2.7l-1.1-0.2v-0.3h2.2v5.7l1,0.2V563.8z"/>
	<path d="M303.3,564h-3.1v-0.3l1.1-0.1v-5c-0.2-0.4-0.4-0.6-1-0.6c-1,0-1.8,1.1-1.8,2.7v2.9l1.1,0.1v0.3h-3.2v-0.3l1.1-0.1v-5
		c-0.2-0.4-0.4-0.6-1-0.6c-1,0-1.8,1.1-1.8,2.7v2.9l1.1,0.1v0.3h-3.1v-0.3l1-0.1v-5.3l-1-0.2v-0.3l2-0.3v1.6h0
		c0.3-0.9,1.1-1.7,2.1-1.7c1,0,1.6,0.6,1.8,1.7h0c0.3-1,1.1-1.7,2.1-1.7c1.1,0,1.8,0.8,1.8,2v4.1l1,0.1V564z"/>
	<path d="M312.3,563c-0.3,0.5-1,1.2-2.4,1.2c-1.7,0-3.1-1.4-3.1-3.4c0-2,1.5-3.3,3.1-3.3c0.7,0,1.2,0.1,1.8,0.4l0.2-0.4h0.3
		l-0.1,1.8h-0.3c-0.2-0.9-0.8-1.5-1.8-1.5c-1.2,0-2,1.1-2,2.8c0,1.7,0.9,2.9,2.1,2.9c1,0,1.5-0.4,1.9-0.9L312.3,563z"/>
	<path d="M319.1,560.8c0,2-1.4,3.3-3.1,3.3c-1.7,0-3.1-1.3-3.1-3.3c0-2,1.4-3.3,3.1-3.3C317.7,557.5,319.1,558.8,319.1,560.8z
		 M317.9,560.8c0-1.8-0.7-3-1.9-3s-1.9,1.1-1.9,3s0.7,3,1.9,3S317.9,562.7,317.9,560.8z"/>
	<path d="M326.9,564h-3.1v-0.3l1.1-0.1v-5c-0.1-0.4-0.6-0.6-1.1-0.6c-1.2,0-1.9,1.2-1.9,2.7v2.9l1.1,0.1v0.3h-3.1v-0.3l1-0.1v-5.3
		l-1-0.2v-0.3l2-0.3v1.6h0c0.4-1.1,1.2-1.7,2.2-1.7c1.2,0,1.9,0.8,1.9,2v4.1l1,0.1V564z"/>
	<path d="M331.5,563.2c-0.3,0.5-0.9,0.9-1.8,0.9c-0.8,0-1.5-0.5-1.5-1.7v-4.2h-1v-0.3l1-0.4l0.8-1.9h0.3v2.1h1.8v0.4h-1.8v4.1
		c0,0.9,0.4,1.2,1,1.2c0.5,0,0.8-0.3,1-0.5L331.5,563.2z"/>
	<path d="M336.5,557.9l-0.4,0.9c-0.2-0.1-0.9-0.5-1.1-0.5c-0.7,0-1.2,1-1.2,2.4v3l1.4,0.1v0.3h-3.4v-0.3l1-0.1v-5.3l-1-0.2v-0.3
		l2-0.3v1.6h0c0.3-1.2,1.1-1.7,1.8-1.7C335.9,557.5,336.3,557.7,336.5,557.9z"/>
	<path d="M342.8,563.4c-0.2,0.3-0.7,0.7-1.3,0.7s-1-0.4-1.1-0.9c-0.4,0.5-1.2,0.9-1.8,0.9c-1,0-1.8-0.7-1.8-1.6c0-1.1,0.9-1.7,2-1.9
		l1.5-0.3v-1.1c0-0.8-0.3-1.2-1.2-1.2c-0.7,0-1.3,0.5-1.7,1.1l-0.3-0.3c0.5-0.8,1.3-1.4,2.2-1.4c1.3,0,2,0.6,2,1.7v3.4
		c0,0.8,0.3,1,0.6,1c0.2,0,0.5-0.1,0.6-0.3L342.8,563.4z M340.3,562.9v-2.2l-1,0.2c-0.8,0.2-1.4,0.6-1.4,1.4c0,0.7,0.5,1.2,1.1,1.2
		C339.5,563.5,340,563.3,340.3,562.9z"/>
	<path d="M347.3,562.2c0,1-0.8,1.9-2.1,1.9c-0.6,0-1.1-0.1-1.5-0.4l-0.1,0.4h-0.3l-0.1-2l0.3,0c0.2,1.1,0.8,1.6,1.7,1.6
		c0.7,0,1.2-0.5,1.2-1.2c0-0.8-0.7-1.1-1.4-1.4c-0.8-0.3-1.7-0.8-1.7-1.9c0-1,0.8-1.8,1.9-1.8c0.6,0,1,0.1,1.4,0.4l0.2-0.3h0.3
		l0,1.7h-0.3c-0.2-0.9-0.6-1.4-1.5-1.4c-0.7,0-1.1,0.5-1.1,1c0,0.8,0.7,1.1,1.4,1.4C346.4,560.7,347.3,561.1,347.3,562.2z"/>
	<path d="M352.2,563.2c-0.3,0.5-0.9,0.9-1.8,0.9c-0.8,0-1.5-0.5-1.5-1.7v-4.2h-1v-0.3l1-0.4l0.8-1.9h0.3v2.1h1.8v0.4H350v4.1
		c0,0.9,0.4,1.2,1,1.2c0.5,0,0.8-0.3,1-0.5L352.2,563.2z"/>
	<path d="M361.8,560.8c0,2-1.4,3.3-3.1,3.3c-1.7,0-3.1-1.3-3.1-3.3c0-2,1.4-3.3,3.1-3.3C360.4,557.5,361.8,558.8,361.8,560.8z
		 M360.6,560.8c0-1.8-0.7-3-1.9-3s-1.9,1.1-1.9,3s0.7,3,1.9,3S360.6,562.7,360.6,560.8z"/>
	<path d="M367.2,553.5l-0.4,0.9c-0.6-0.4-1.1-0.7-1.4-0.7c-0.5,0-0.8,0.4-0.8,1.6v2.4h1.8v0.4h-1.8v5.4l1.4,0.1v0.3h-3.5v-0.3l1-0.1
		v-5.4h-1v-0.3l1-0.3v-1.2c0-1.8,0.7-3.3,2.5-3.3C366.5,553.2,366.8,553.3,367.2,553.5z"/>
	<path d="M227.4,580.4c-0.2,0.3-0.7,0.7-1.3,0.7s-1-0.4-1.1-0.9c-0.5,0.5-1.2,0.9-1.8,0.9c-1,0-1.8-0.7-1.8-1.6c0-1.1,0.9-1.7,2-1.9
		l1.5-0.3v-1.1c0-0.8-0.3-1.2-1.2-1.2c-0.7,0-1.3,0.5-1.7,1.1l-0.3-0.3c0.5-0.8,1.3-1.4,2.2-1.4c1.4,0,2,0.6,2,1.7v3.4
		c0,0.8,0.3,1,0.6,1c0.2,0,0.5-0.1,0.6-0.3L227.4,580.4z M224.9,579.9v-2.2l-1,0.2c-0.8,0.2-1.4,0.6-1.4,1.4c0,0.7,0.5,1.2,1.1,1.2
		C224.1,580.5,224.6,580.3,224.9,579.9z"/>
	<path d="M234.6,581h-3.1v-0.3l1.1-0.1v-5c-0.2-0.4-0.6-0.6-1.1-0.6c-1.2,0-1.9,1.2-1.9,2.7v2.9l1.1,0.1v0.3h-3.1v-0.3l1-0.1v-5.3
		l-1-0.2v-0.3l2-0.3v1.6h0c0.4-1.1,1.2-1.7,2.2-1.7c1.2,0,1.9,0.8,1.9,2v4.1l1,0.1V581z"/>
	<path d="M241.2,581h-3v-0.3l1-0.1v-5.3l-1-0.2v-0.3l2.1-0.3v6.1l1,0.1V581z M240.3,572.2c0,0.4-0.3,0.7-0.7,0.7s-0.7-0.3-0.7-0.7
		s0.3-0.7,0.7-0.7S240.3,571.9,240.3,572.2z"/>
	<path d="M252.6,581h-3.1v-0.3l1.1-0.1v-5c-0.2-0.4-0.4-0.6-1-0.6c-1,0-1.8,1.1-1.8,2.7v2.9l1.1,0.1v0.3h-3.2v-0.3l1.1-0.1v-5
		c-0.2-0.4-0.4-0.6-1-0.6c-1,0-1.8,1.1-1.8,2.7v2.9l1.1,0.1v0.3h-3.1v-0.3l1-0.1v-5.3l-1-0.2v-0.3l2-0.3v1.6h0
		c0.3-0.9,1.1-1.7,2.1-1.7c1,0,1.7,0.6,1.8,1.7h0c0.3-1,1.1-1.7,2.1-1.7c1.1,0,1.8,0.8,1.8,2v4.1l1,0.1V581z"/>
	<path d="M259.1,580.4c-0.2,0.3-0.7,0.7-1.3,0.7s-1-0.4-1.1-0.9c-0.4,0.5-1.2,0.9-1.8,0.9c-1,0-1.8-0.7-1.8-1.6c0-1.1,0.9-1.7,2-1.9
		l1.5-0.3v-1.1c0-0.8-0.3-1.2-1.2-1.2c-0.7,0-1.3,0.5-1.7,1.1l-0.3-0.3c0.5-0.8,1.3-1.4,2.2-1.4c1.3,0,2,0.6,2,1.7v3.4
		c0,0.8,0.3,1,0.6,1c0.2,0,0.5-0.1,0.6-0.3L259.1,580.4z M256.7,579.9v-2.2l-1,0.2c-0.8,0.2-1.4,0.6-1.4,1.4c0,0.7,0.5,1.2,1.1,1.2
		C255.9,580.5,256.4,580.3,256.7,579.9z"/>
	<path d="M265.4,575.3l-1.7-0.2l0,0c0.5,0.4,0.8,1,0.8,1.6c0,1.5-1.3,2.3-2.5,2.4c-1,0.1-1.4,0.5-1.4,0.9c0,0.2,0.1,0.3,0.2,0.4
		l2.8,0.3c0.8,0.1,1.7,0.6,1.7,1.6c0,1.6-1.4,2.6-3.5,2.6c-1.3,0-2.7-0.7-2.7-2c0-0.8,0.5-1.3,1.2-1.7c-0.3-0.2-0.5-0.5-0.5-0.9
		c0-0.5,0.4-1,1.3-1.3v0c-0.9-0.3-1.6-1.1-1.6-2.2c0-1.4,1.2-2.4,2.5-2.4c0.5,0,1,0.2,1.4,0.4l2-0.4V575.3z M264.4,582.8
		c0-0.6-0.4-1-1.1-1.1l-2.8-0.3c-0.4,0.2-0.6,0.8-0.6,1.3c0,0.9,0.7,1.9,2.3,1.9C263,584.6,264.4,584,264.4,582.8z M263.3,576.9
		c0-1.2-0.6-2-1.4-2c-0.9,0-1.4,0.8-1.4,2s0.6,2,1.4,2C262.8,578.9,263.3,578,263.3,576.9z"/>
	<path d="M271.2,577.3h-4.3c0,0.1,0,0.3,0,0.4c0,1.8,0.9,2.9,2.1,2.9c1,0,1.5-0.4,1.9-0.9l0.3,0.3c-0.3,0.5-1,1.2-2.4,1.2
		c-1.8,0-3.1-1.4-3.1-3.3c0-2,1.5-3.3,3-3.3s2.5,1,2.5,2.5V577.3z M270,576.9c0-1-0.3-2.1-1.4-2.1c-0.9,0-1.5,0.9-1.7,2.1H270z"/>
	<path d="M278,581h-3v-0.3l1-0.1v-5.3l-1-0.2v-0.3l2.1-0.3v6.1l1,0.1V581z M277.1,572.2c0,0.4-0.3,0.7-0.7,0.7s-0.7-0.3-0.7-0.7
		s0.3-0.7,0.7-0.7S277.1,571.9,277.1,572.2z"/>
	<path d="M283,579.2c0,1-0.8,1.9-2.1,1.9c-0.6,0-1.1-0.1-1.5-0.4l-0.2,0.4h-0.3l-0.1-2l0.3,0c0.2,1.1,0.8,1.6,1.7,1.6
		c0.7,0,1.2-0.5,1.2-1.2c0-0.8-0.7-1.1-1.4-1.4c-0.8-0.3-1.7-0.8-1.7-1.9c0-1,0.8-1.8,1.9-1.8c0.6,0,1,0.1,1.4,0.4l0.2-0.3h0.3
		l0,1.7h-0.3c-0.1-0.9-0.6-1.4-1.5-1.4c-0.7,0-1.1,0.5-1.1,1c0,0.8,0.7,1.1,1.4,1.4C282.1,577.7,283,578.1,283,579.2z"/>
	<path d="M290.9,580.2c-0.3,0.5-0.9,0.9-1.8,0.9c-0.8,0-1.5-0.5-1.5-1.7v-4.2h-1v-0.3l1-0.4l0.8-1.9h0.3v2.1h1.8v0.4h-1.8v4.1
		c0,0.9,0.4,1.2,1,1.2c0.5,0,0.8-0.3,1-0.5L290.9,580.2z"/>
	<path d="M298.2,581h-3.1v-0.3l1.1-0.1v-5c-0.2-0.4-0.6-0.6-1.1-0.6c-1.2,0-1.9,1.2-1.9,2.7v2.9l1.1,0.1v0.3h-3.1v-0.3l1-0.1v-9.4
		l-1-0.2v-0.3l2.1-0.3v5.7c0.4-1,1.1-1.6,2.2-1.6c1.2,0,1.9,0.8,1.9,2v4.1l1,0.1V581z"/>
	<path d="M304.2,577.3h-4.3c0,0.1,0,0.3,0,0.4c0,1.8,0.9,2.9,2.1,2.9c1,0,1.5-0.4,1.9-0.9l0.3,0.3c-0.3,0.5-1,1.2-2.4,1.2
		c-1.8,0-3.1-1.4-3.1-3.3c0-2,1.5-3.3,3-3.3s2.5,1,2.5,2.5V577.3z M303.1,576.9c0-1-0.3-2.1-1.4-2.1c-0.9,0-1.5,0.9-1.7,2.1H303.1z"
		/>
	<path d="M313.5,580c-0.3,0.5-1,1.2-2.4,1.2c-1.7,0-3.1-1.4-3.1-3.4c0-2,1.5-3.3,3.1-3.3c0.7,0,1.2,0.1,1.8,0.4l0.2-0.4h0.3
		l-0.1,1.8h-0.3c-0.2-0.9-0.8-1.5-1.8-1.5c-1.2,0-2,1.1-2,2.8c0,1.7,0.9,2.9,2.1,2.9c1,0,1.5-0.4,1.9-0.9L313.5,580z"/>
	<path d="M320.3,577.8c0,2-1.4,3.3-3.1,3.3c-1.7,0-3.1-1.3-3.1-3.3c0-2,1.4-3.3,3.1-3.3C318.9,574.5,320.3,575.8,320.3,577.8z
		 M319.1,577.8c0-1.8-0.7-3-1.9-3s-1.9,1.1-1.9,3s0.7,3,1.9,3S319.1,579.7,319.1,577.8z"/>
	<path d="M328.1,581h-3.1v-0.3l1.1-0.1v-5c-0.1-0.4-0.6-0.6-1.1-0.6c-1.2,0-1.9,1.2-1.9,2.7v2.9l1.1,0.1v0.3H321v-0.3l1-0.1v-5.3
		l-1-0.2v-0.3l2-0.3v1.6h0c0.4-1.1,1.2-1.7,2.2-1.7c1.2,0,1.9,0.8,1.9,2v4.1l1,0.1V581z"/>
	<path d="M332.7,580.2c-0.3,0.5-0.9,0.9-1.8,0.9c-0.8,0-1.5-0.5-1.5-1.7v-4.2h-1v-0.3l1-0.4l0.8-1.9h0.3v2.1h1.8v0.4h-1.8v4.1
		c0,0.9,0.4,1.2,1,1.2c0.5,0,0.8-0.3,1-0.5L332.7,580.2z"/>
	<path d="M337.7,574.9l-0.4,0.9c-0.2-0.1-0.9-0.5-1.1-0.5c-0.7,0-1.2,1-1.2,2.4v3l1.4,0.1v0.3H333v-0.3l1-0.1v-5.3l-1-0.2v-0.3
		l2-0.3v1.6h0c0.3-1.2,1.1-1.7,1.8-1.7C337.1,574.5,337.5,574.7,337.7,574.9z"/>
	<path d="M344,580.4c-0.2,0.3-0.7,0.7-1.3,0.7s-1-0.4-1.1-0.9c-0.5,0.5-1.2,0.9-1.8,0.9c-1,0-1.8-0.7-1.8-1.6c0-1.1,0.9-1.7,2-1.9
		l1.5-0.3v-1.1c0-0.8-0.3-1.2-1.2-1.2c-0.7,0-1.3,0.5-1.7,1.1l-0.3-0.3c0.5-0.8,1.3-1.4,2.2-1.4c1.4,0,2,0.6,2,1.7v3.4
		c0,0.8,0.3,1,0.6,1c0.2,0,0.5-0.1,0.6-0.3L344,580.4z M341.5,579.9v-2.2l-1,0.2c-0.8,0.2-1.4,0.6-1.4,1.4c0,0.7,0.5,1.2,1.1,1.2
		C340.7,580.5,341.2,580.3,341.5,579.9z"/>
	<path d="M348.5,579.2c0,1-0.8,1.9-2.1,1.9c-0.6,0-1.1-0.1-1.5-0.4l-0.2,0.4h-0.3l-0.1-2l0.3,0c0.2,1.1,0.8,1.6,1.7,1.6
		c0.7,0,1.2-0.5,1.2-1.2c0-0.8-0.7-1.1-1.4-1.4c-0.8-0.3-1.7-0.8-1.7-1.9c0-1,0.8-1.8,1.9-1.8c0.6,0,1,0.1,1.4,0.4l0.2-0.3h0.3
		l0,1.7h-0.3c-0.1-0.9-0.6-1.4-1.5-1.4c-0.7,0-1.1,0.5-1.1,1c0,0.8,0.7,1.1,1.4,1.4C347.6,577.7,348.5,578.1,348.5,579.2z"/>
	<path d="M353.4,580.2c-0.3,0.5-0.9,0.9-1.8,0.9c-0.8,0-1.5-0.5-1.5-1.7v-4.2h-1v-0.3l1-0.4l0.8-1.9h0.3v2.1h1.8v0.4h-1.8v4.1
		c0,0.9,0.4,1.2,1,1.2c0.5,0,0.8-0.3,1-0.5L353.4,580.2z"/>
	<path d="M361.5,574.9l-0.4,0.9c-0.2-0.1-0.9-0.5-1.1-0.5c-0.7,0-1.2,1-1.2,2.4v3l1.4,0.1v0.3h-3.4v-0.3l1-0.1v-5.3l-1-0.2v-0.3
		l2-0.3v1.6h0c0.3-1.2,1.1-1.7,1.8-1.7C360.9,574.5,361.3,574.7,361.5,574.9z"/>
	<path d="M367.8,580.4c-0.2,0.3-0.7,0.7-1.3,0.7s-1-0.4-1.1-0.9c-0.4,0.5-1.2,0.9-1.8,0.9c-1,0-1.8-0.7-1.8-1.6c0-1.1,0.9-1.7,2-1.9
		l1.5-0.3v-1.1c0-0.8-0.3-1.2-1.2-1.2c-0.7,0-1.3,0.5-1.7,1.1l-0.3-0.3c0.5-0.8,1.3-1.4,2.2-1.4c1.3,0,2,0.6,2,1.7v3.4
		c0,0.8,0.3,1,0.6,1c0.2,0,0.5-0.1,0.6-0.3L367.8,580.4z M365.3,579.9v-2.2l-1,0.2c-0.8,0.2-1.4,0.6-1.4,1.4c0,0.7,0.5,1.2,1.1,1.2
		C364.5,580.5,365,580.3,365.3,579.9z"/>
	<path d="M371.9,580.2c-0.3,0.5-0.9,0.9-1.8,0.9c-0.8,0-1.5-0.5-1.5-1.7v-4.2h-1v-0.3l1-0.4l0.8-1.9h0.3v2.1h1.8v0.4h-1.8v4.1
		c0,0.9,0.4,1.2,1,1.2c0.5,0,0.8-0.3,1-0.5L371.9,580.2z"/>
	<path d="M375.3,581h-3v-0.3l1-0.1v-5.3l-1-0.2v-0.3l2.1-0.3v6.1l1,0.1V581z M374.4,572.2c0,0.4-0.3,0.7-0.7,0.7s-0.7-0.3-0.7-0.7
		s0.3-0.7,0.7-0.7S374.4,571.9,374.4,572.2z"/>
	<path d="M382.1,577.8c0,2-1.4,3.3-3.1,3.3s-3.1-1.3-3.1-3.3c0-2,1.4-3.3,3.1-3.3S382.1,575.8,382.1,577.8z M380.9,577.8
		c0-1.8-0.7-3-1.9-3s-1.9,1.1-1.9,3s0.7,3,1.9,3S380.9,579.7,380.9,577.8z"/>
	<path d="M227.6,594.8c0,2-1.4,3.3-3.1,3.3c-1.7,0-3.1-1.3-3.1-3.3c0-2,1.4-3.3,3.1-3.3C226.2,591.5,227.6,592.8,227.6,594.8z
		 M226.4,594.8c0-1.8-0.7-3-1.9-3s-1.9,1.1-1.9,3s0.7,3,1.9,3S226.4,596.7,226.4,594.8z"/>
	<path d="M233,591.9l-0.4,0.9c-0.2-0.1-0.9-0.5-1.1-0.5c-0.7,0-1.2,1-1.2,2.4v3l1.4,0.1v0.3h-3.4v-0.3l1-0.1v-5.3l-1-0.2v-0.3l2-0.3
		v1.6h0c0.3-1.2,1.1-1.7,1.8-1.7C232.4,591.5,232.8,591.7,233,591.9z"/>
	<path d="M243.1,597.8l-2,0.3v-1l0,0c-0.4,0.6-0.9,1-1.9,1c-1.3,0-2.7-1.1-2.7-3.1c0-2.1,1.3-3.5,3-3.5c0.8,0,1.3,0.3,1.6,0.6v-4
		l-1-0.2v-0.3l2.1-0.3v10l1,0.2V597.8z M241,596.5v-3.7c-0.3-0.5-0.9-0.9-1.5-0.9c-1.4,0-1.9,1.5-1.9,3c0,1.6,0.7,2.7,1.9,2.7
		C240.4,597.6,240.8,597,241,596.5z"/>
	<path d="M249.6,592l-0.7,0.2l-2.4,5.9l-1.3,3.8h-1l1.9-3.9l-2.3-5.8l-0.7-0.1v-0.3h2.9v0.3l-1,0.1l1.7,4.6l1.7-4.5l-1-0.1v-0.3h2.3
		V592z"/>
	<path d="M257.1,598h-3.1v-0.3l1.1-0.1v-5c-0.1-0.4-0.6-0.6-1.1-0.6c-1.2,0-1.9,1.2-1.9,2.7v2.9l1.1,0.1v0.3H250v-0.3l1-0.1v-5.3
		l-1-0.2v-0.3l2-0.3v1.6h0c0.4-1.1,1.2-1.7,2.2-1.7c1.2,0,1.9,0.8,1.9,2v4.1l1,0.1V598z"/>
	<path d="M263.6,597.4c-0.2,0.3-0.7,0.7-1.3,0.7s-1-0.4-1.1-0.9c-0.4,0.5-1.2,0.9-1.8,0.9c-1,0-1.8-0.7-1.8-1.6c0-1.1,0.9-1.7,2-1.9
		l1.5-0.3v-1.1c0-0.8-0.3-1.2-1.2-1.2c-0.7,0-1.3,0.5-1.7,1.1l-0.3-0.3c0.5-0.8,1.3-1.4,2.2-1.4c1.3,0,2,0.6,2,1.7v3.4
		c0,0.8,0.3,1,0.6,1c0.2,0,0.5-0.1,0.6-0.3L263.6,597.4z M261.1,596.9v-2.2l-1,0.2c-0.8,0.2-1.4,0.6-1.4,1.4c0,0.7,0.5,1.2,1.1,1.2
		C260.3,597.5,260.8,597.3,261.1,596.9z"/>
	<path d="M274.6,598h-3.1v-0.3l1.1-0.1v-5c-0.2-0.4-0.4-0.6-1-0.6c-1,0-1.8,1.1-1.8,2.7v2.9l1.1,0.1v0.3h-3.2v-0.3l1.1-0.1v-5
		c-0.2-0.4-0.4-0.6-1-0.6c-1,0-1.8,1.1-1.8,2.7v2.9l1.1,0.1v0.3h-3.1v-0.3l1-0.1v-5.3l-1-0.2v-0.3l2-0.3v1.6h0
		c0.3-0.9,1.1-1.7,2.1-1.7c1,0,1.7,0.6,1.8,1.7h0c0.3-1,1.1-1.7,2.1-1.7c1.1,0,1.8,0.8,1.8,2v4.1l1,0.1V598z"/>
	<path d="M278.1,598h-3v-0.3l1-0.1v-5.3l-1-0.2v-0.3l2.1-0.3v6.1l1,0.1V598z M277.2,589.2c0,0.4-0.3,0.7-0.7,0.7s-0.7-0.3-0.7-0.7
		s0.3-0.7,0.7-0.7S277.2,588.9,277.2,589.2z"/>
	<path d="M284.2,597c-0.3,0.5-1,1.2-2.4,1.2c-1.7,0-3.1-1.4-3.1-3.4c0-2,1.5-3.3,3.1-3.3c0.7,0,1.2,0.1,1.8,0.4l0.2-0.4h0.3
		l-0.1,1.8h-0.3c-0.2-0.9-0.8-1.5-1.8-1.5c-1.2,0-2,1.1-2,2.8c0,1.7,0.9,2.9,2.1,2.9c1,0,1.5-0.4,1.9-0.9L284.2,597z"/>
	<path d="M292.6,591.9l-0.4,0.9c-0.2-0.1-0.9-0.5-1.1-0.5c-0.7,0-1.2,1-1.2,2.4v3l1.4,0.1v0.3h-3.4v-0.3l1-0.1v-5.3l-1-0.2v-0.3
		l2-0.3v1.6h0c0.3-1.2,1.1-1.7,1.8-1.7C292,591.5,292.4,591.7,292.6,591.9z"/>
	<path d="M298.8,597.4c-0.2,0.3-0.7,0.7-1.3,0.7s-1-0.4-1.1-0.9c-0.5,0.5-1.2,0.9-1.8,0.9c-1,0-1.8-0.7-1.8-1.6c0-1.1,0.9-1.7,2-1.9
		l1.5-0.3v-1.1c0-0.8-0.3-1.2-1.2-1.2c-0.7,0-1.3,0.5-1.7,1.1l-0.3-0.3c0.5-0.8,1.3-1.4,2.2-1.4c1.4,0,2,0.6,2,1.7v3.4
		c0,0.8,0.3,1,0.6,1c0.2,0,0.5-0.1,0.6-0.3L298.8,597.4z M296.4,596.9v-2.2l-1,0.2c-0.8,0.2-1.4,0.6-1.4,1.4c0,0.7,0.5,1.2,1.1,1.2
		C295.6,597.5,296.1,597.3,296.4,596.9z"/>
	<path d="M306.1,598H303v-0.3l1.1-0.1v-5c-0.2-0.4-0.6-0.6-1.1-0.6c-1.2,0-1.9,1.2-1.9,2.7v2.9l1.1,0.1v0.3H299v-0.3l1-0.1v-5.3
		l-1-0.2v-0.3l2-0.3v1.6h0c0.4-1.1,1.2-1.7,2.2-1.7c1.2,0,1.9,0.8,1.9,2v4.1l1,0.1V598z"/>
	<path d="M312.7,592.3l-1.7-0.2l0,0c0.5,0.4,0.8,1,0.8,1.6c0,1.5-1.3,2.3-2.5,2.4c-1,0.1-1.4,0.5-1.4,0.9c0,0.2,0.1,0.3,0.2,0.4
		l2.8,0.3c0.8,0.1,1.7,0.6,1.7,1.6c0,1.6-1.4,2.6-3.5,2.6c-1.3,0-2.7-0.7-2.7-2c0-0.8,0.5-1.3,1.2-1.7c-0.3-0.2-0.5-0.5-0.5-0.9
		c0-0.5,0.4-1,1.3-1.3v0c-0.9-0.3-1.6-1.1-1.6-2.2c0-1.4,1.2-2.4,2.5-2.4c0.5,0,1,0.2,1.4,0.4l2-0.4V592.3z M311.7,599.8
		c0-0.6-0.4-1-1.1-1.1l-2.8-0.3c-0.4,0.2-0.6,0.8-0.6,1.3c0,0.9,0.7,1.9,2.3,1.9C310.3,601.6,311.7,601,311.7,599.8z M310.6,593.9
		c0-1.2-0.6-2-1.4-2c-0.9,0-1.4,0.8-1.4,2s0.6,2,1.4,2C310.1,595.9,310.6,595,310.6,593.9z"/>
	<path d="M318.5,594.3h-4.3c0,0.1,0,0.3,0,0.4c0,1.8,0.9,2.9,2.1,2.9c1,0,1.5-0.4,1.9-0.9l0.3,0.3c-0.3,0.5-1,1.2-2.4,1.2
		c-1.8,0-3.1-1.4-3.1-3.3c0-2,1.5-3.3,3-3.3s2.5,1,2.5,2.5V594.3z M317.3,593.9c0-1-0.3-2.1-1.4-2.1c-0.9,0-1.5,0.9-1.7,2.1H317.3z"
		/>
	<path d="M321.2,597.3c0,0.4-0.3,0.8-0.8,0.8c-0.4,0-0.8-0.3-0.8-0.8c0-0.4,0.3-0.8,0.8-0.8C320.8,596.6,321.2,596.9,321.2,597.3z"
		/>
</g>
</svg>
