<svg enable-background="new 0 0 437 643" viewBox="0 0 437 643" xmlns="http://www.w3.org/2000/svg"><path d="m0 0h437v643h-437z" fill="#fff"/><path d="m0 133.9h437v219.4h-437z" fill="#f7f7f7"/><path d="m94.7 118.7-.6 4.3h-12.1l-2.5 19.8h12.1l-.6 4.3h-12.1l-3 24.4h-4.4l3-24.4h-17.2l-3 24.4h-4.4l3-24.4h-12.2l.6-4.3h12.1l2.6-19.8h-12.2l.6-4.3h12.1l3.1-24.5h4.4l-3 24.5h17.2l3.1-24.5h4.4l-3.1 24.5zm-17.1 4.3h-17.2l-2.5 19.8h17.1z" fill="#eb5e5e"/><path d="m183.5 171.8h-75.6v-8.8l23.4-2.8v-98.6l-27.2 2.2v-8.6l50-13h6.2v118l23.2 2.8z" fill="#eb5e5e"/><path d="m57 393.7h-.8l-.4-3.7h-5.3v17.5l2.5.2v.7h-7.4v-.7l2.5-.2v-17.5h-5.3l-.4 3.7h-.8v-4.7h15.4z"/><path d="m77.9 408.4h-7v-.7l2.3-.2v-8.7h-9.8v8.7l2.3.2v.7h-7v-.7l2.3-.2v-17.5l-2.3-.2v-.7h7v.7l-2.3.2v7.9h9.8v-7.9l-2.3-.2v-.7h7v.7l-2.3.2v17.5l2.3.2z"/><path d="m87.5 408.4h-7v-.7l2.3-.2v-17.5l-2.3-.2v-.7h7v.7l-2.3.2v17.5l2.3.2z"/><path d="m109 389.7-2.3.4v18.4h-.5l-12.8-16v14.7l2.3.4v.7h-5.8v-.7l2.3-.4v-16.1l-.9-1.1-1.4-.3v-.7h3.7l12 14.9v-13.9l-2.3-.4v-.7h5.8v.8z"/><path d="m127.8 408.4h-3.9l-7.5-9h-.8v8.1l2.3.2v.7h-7v-.7l2.3-.2v-17.5l-2.3-.2v-.7h7v.7l-2.3.2v8.5h.4l7.7-8.5-1.9-.2v-.7h5.3v.7l-2 .2-7.2 7.9 8.2 9.6 1.6.3v.6z"/><path d="m132.7 407.1c0 .9-.7 1.6-1.6 1.6s-1.6-.7-1.6-1.6.7-1.6 1.6-1.6 1.6.8 1.6 1.6z"/><path d="m158.7 394.7h-1.7l-.5-3.9h-4.3v16l2.5.4v1.3h-9.8v-1.3l2.5-.4v-16h-4.3l-.5 3.9h-1.7v-5.6h17.8z"/><path d="m177.2 408.4h-8.9v-1.3l2.2-.4-1.4-4h-6.3l-1.4 4 2.2.4v1.3h-5.9v-1.3l1.5-.4 6.8-17.8h2.9l6.8 17.8 1.6.4v1.3zm-8.8-7.4-2.5-7.1-2.5 7.1z"/><path d="m193.8 408.4h-15.7v-1.3l2.3-.4v-16.1l-2.3-.4v-1.3h9.8v1.3l-2.6.4v15.9h6.2l.5-3.9h1.8z"/><path d="m215.4 408.4h-6.3l-5.8-8.8h-.7v7.1l2.1.4v1.3h-9.2v-1.3l2.3-.4v-16.1l-2.3-.4v-1.3h9.2v1.3l-2.1.4v7.5h.4l6.5-7.6-1.8-.3v-1.3h6.5v1.3l-2.1.4-5.5 6.2 7.2 9.8 1.6.4z"/><path d="m221.7 406.3c0 1.3-1 2.3-2.3 2.3s-2.3-1-2.3-2.3 1-2.3 2.3-2.3 2.3 1.1 2.3 2.3z"/><path d="m247.2 408.4h-3.7l-5.8-8.5-2.5.2v7.4l2.6.2v.7h-7.3v-.7l2.3-.2v-17.5l-2.3-.2v-.7h7.4c3.3 0 6.1 1.5 6.1 4.8 0 2.6-1.7 4.7-4.1 5.5l5.6 8.1 1.6.3v.6zm-5.6-14.1c0-2.9-1.6-4.3-4.4-4.3-.7 0-1.3 0-2 .1v9h1.5c3 0 4.9-1.8 4.9-4.8z"/><path d="m261.9 408.4h-13.4v-.7l2.3-.2v-17.5l-2.3-.2v-.7h13v4.1h-.8l-.4-3.1h-7v7.8h5.2l.3-2.1h.8v5.1h-.8l-.3-2.1h-5.2v8.5h7.4l.4-3.4h.9v4.5z"/><path d="m281.4 408.4h-6.7v-.7l2.6-.2-2.1-5.6h-6.9l-2.1 5.6 2.5.3v.7h-5.3v-.7l1.6-.4 7-18.4h.7l7.1 18.5 1.6.2zm-6.6-7.5-3.1-8.3-3.1 8.3z"/><path d="m295.9 408.4h-13.1v-.7l2.3-.2v-17.5l-2.3-.2v-.7h7.3v.7l-2.6.2v17.4h7.1l.5-3.5h.9v4.5z"/><path d="m305 408.4h-7v-.7l2.3-.2v-17.5l-2.3-.2v-.7h7v.7l-2.3.2v17.5l2.3.2z"/><path d="m322 403.5-.3 4.9h-14.7l-.2-.5 11.9-17.9h-9.5l-.5 3.7h-.7v-4.7h13.8v.5l-11.8 17.8h10.4l.8-3.8z"/><path d="m337.5 408.4h-13.4v-.7l2.3-.2v-17.5l-2.3-.2v-.7h13v4.1h-.8l-.4-3.1h-7v7.8h5.2l.3-2.1h.8v5.1h-.8l-.3-2.1h-5.2v8.5h7.4l.4-3.4h.9v4.5z"/><path d="m343.8 407.1c0 .9-.7 1.6-1.6 1.6s-1.6-.7-1.6-1.6.7-1.6 1.6-1.6 1.6.8 1.6 1.6z"/><path d="m49.5 428.7h-.4l-.2-2h-2.9v9.3l1.3.1v.4h-3.9v-.4l1.3-.1v-9.3h-2.7l-.2 2h-.4v-2.5h8.2v2.5z"/><path d="m55.4 430.1-.8.2-2.5 6.3-1.4 4h-1.1l2-4.1-2.5-6.2-.8-.2v-.3h3.1v.3l-1.1.1 1.8 4.9 1.8-4.8-1.1-.2v-.3h2.4v.3z"/><path d="m62.7 432.9c0 2.2-1.4 3.8-3.3 3.8-.7 0-1.2-.2-1.6-.4v3.9l1.5.1v.3h-3.7v-.3l1-.1v-9.7l-1-.2v-.3l2.1-.3v1.1c.4-.7 1.2-1.2 2.2-1.2 1.5 0 2.8 1.2 2.8 3.3zm-1.2.1c0-1.7-.7-2.9-1.9-2.9-.8 0-1.5.5-1.8 1.2v4.3c.3.4.9.6 1.4.6 1.6.1 2.3-1.6 2.3-3.2z"/><path d="m69.4 432.6h-4.6v.4c0 1.9.9 3.1 2.2 3.1 1 0 1.6-.4 2-1l.3.3c-.3.5-1.1 1.3-2.5 1.3-1.9 0-3.3-1.5-3.3-3.6s1.6-3.5 3.2-3.5c1.7 0 2.7 1.1 2.7 2.7zm-1.2-.4c0-1-.3-2.2-1.5-2.2-.9 0-1.6.9-1.8 2.2z"/><path d="m75.2 425.4-.5 1c-.6-.4-1.2-.8-1.5-.8-.5 0-.9.5-.9 1.7v2.5h1.9v.5h-1.9v5.8l1.5.1v.3h-3.7v-.3l1-.1v-5.7h-1v-.3l1-.3v-1.3c0-1.9.8-3.5 2.7-3.5.7 0 1 .1 1.4.4z"/><path d="m81 435.9c-.2.4-.8.8-1.4.8s-1-.4-1.2-1c-.5.5-1.2 1-1.9 1-1.1 0-1.9-.7-1.9-1.8 0-1.2 1-1.8 2.2-2l1.6-.3v-1.2c0-.9-.4-1.3-1.3-1.3-.7 0-1.4.5-1.8 1.2l-.3-.3c.6-.9 1.3-1.5 2.4-1.5 1.4 0 2.2.7 2.2 1.8v3.6c0 .9.3 1.1.7 1.1.3 0 .5-.1.6-.3zm-2.6-.5v-2.4l-1.1.2c-.8.2-1.5.6-1.5 1.5 0 .8.5 1.3 1.2 1.3.5 0 1.1-.2 1.4-.6z"/><path d="m87.1 435.4c-.3.5-1.1 1.3-2.5 1.3-1.8 0-3.3-1.5-3.3-3.6s1.6-3.5 3.3-3.5c.8 0 1.3.1 1.9.4l.2-.4h.3l-.1 2h-.3c-.2-1-.8-1.6-1.9-1.6-1.3 0-2.1 1.2-2.1 3s1 3.1 2.2 3.1c1 0 1.6-.4 2-1z"/><path d="m93.6 432.6h-4.6v.4c0 1.9.9 3.1 2.2 3.1 1 0 1.6-.4 2-1l.3.3c-.3.5-1.1 1.3-2.5 1.3-1.9 0-3.3-1.5-3.3-3.6s1.6-3.5 3.2-3.5c1.7 0 2.7 1.1 2.7 2.7zm-1.2-.4c0-1-.3-2.2-1.5-2.2-.9 0-1.6.9-1.8 2.2z"/><path d="m96.5 435.8c0 .5-.4.8-.8.8s-.8-.4-.8-.8c0-.5.4-.8.8-.8s.8.4.8.8z"/><path d="m49 505.7h-.4l-.2-1.9h-2.6v8.7l1.3.1v.3h-3.7v-.3l1.3-.1v-8.7h-2.6l-.2 1.9h-.4v-2.3h7.5z"/><path d="m52.2 513h-3v-.3l1-.1v-5.3l-1-.2v-.3l2.1-.3v6.1l1 .1v.3zm-.9-8.8c0 .4-.3.7-.7.7s-.7-.3-.7-.7.3-.7.7-.7.7.4.7.7z"/><path d="m63.6 513h-3.1v-.3l1.1-.1v-5c-.2-.4-.4-.6-1-.6-1 0-1.8 1.1-1.8 2.7v2.9l1.1.1v.3h-3.2v-.3l1.1-.1v-5c-.2-.4-.4-.6-1-.6-1 0-1.8 1.1-1.8 2.7v2.9l1.1.1v.3h-3.1v-.3l1-.1v-5.3l-1-.2v-.3l2-.3v1.6c.3-.9 1.1-1.7 2.1-1.7s1.6.6 1.8 1.7c.3-1 1.1-1.7 2.1-1.7 1.1 0 1.8.8 1.8 2v4.1l1 .1v.4z"/><path d="m69.7 509.3h-4.3v.4c0 1.8.9 2.9 2.1 2.9 1 0 1.5-.4 1.9-.9l.3.3c-.3.5-1 1.2-2.4 1.2-1.8 0-3.1-1.4-3.1-3.3 0-2 1.5-3.3 3-3.3s2.5 1 2.5 2.5zm-1.2-.4c0-1-.3-2.1-1.4-2.1-.9 0-1.5.9-1.7 2.1z"/><path d="m77.6 512.2c-.3.5-.9.9-1.8.9-.8 0-1.5-.5-1.5-1.7v-4.2h-1v-.3l1-.4.8-1.9h.3v2.1h1.8v.4h-1.8v4.1c0 .9.4 1.2 1 1.2.5 0 .8-.3 1-.5z"/><path d="m84 509.8c0 2-1.4 3.3-3.1 3.3s-3.1-1.3-3.1-3.3 1.4-3.3 3.1-3.3 3.1 1.3 3.1 3.3zm-1.2 0c0-1.8-.7-3-1.9-3s-1.9 1.1-1.9 3 .7 3 1.9 3 1.9-1.1 1.9-3z"/><path d="m91.8 512.2c-.3.5-.9.9-1.8.9-.8 0-1.5-.5-1.5-1.7v-4.2h-1v-.3l1-.4.8-1.9h.3v2.1h1.8v.4h-1.8v4.1c0 .9.4 1.2 1 1.2.5 0 .8-.3 1-.5z"/><path d="m98.9 512.8-2 .3v-1.6c-.4 1.1-1.2 1.7-2.2 1.7-1.2 0-1.9-.8-1.9-2v-4l-1-.2v-.3h2.1v5.3c.1.4.5.6 1.1.6 1.2 0 1.9-1.2 1.9-2.7v-2.7l-1.1-.2v-.3h2.2v5.7l1 .2v.2z"/><path d="m104.1 506.9-.4.9c-.2-.1-.9-.5-1.1-.5-.7 0-1.2 1-1.2 2.4v3l1.4.1v.3h-3.4v-.3l1-.1v-5.3l-1-.2v-.3l2-.3v1.6c.3-1.2 1.1-1.7 1.8-1.7.3 0 .7.2.9.4z"/><path d="m111.6 513h-3.1v-.3l1.1-.1v-5c-.1-.4-.6-.6-1.1-.6-1.2 0-1.9 1.2-1.9 2.7v2.9l1.1.1v.3h-3.1v-.3l1-.1v-5.3l-1-.2v-.3l2-.3v1.6c.4-1.1 1.2-1.7 2.2-1.7 1.2 0 1.9.8 1.9 2v4.1l1 .1v.4z"/><path d="m121.6 509.6c0 2.1-1.4 3.5-3.1 3.5-.7 0-1.1-.2-1.5-.4v3.7l1.4.1v.3h-3.4v-.3l1-.1v-9.1l-1-.2v-.3l2-.3v1c.4-.6 1.1-1.1 2-1.1 1.3.1 2.6 1.2 2.6 3.2zm-1.2.1c0-1.6-.6-2.7-1.8-2.7-.8 0-1.4.5-1.6 1.1v4c.3.3.9.6 1.4.6 1.4 0 2-1.5 2-3z"/><path d="m128.3 512.4c-.2.3-.7.7-1.3.7s-1-.4-1.1-.9c-.4.5-1.2.9-1.8.9-1 0-1.8-.7-1.8-1.6 0-1.1.9-1.7 2-1.9l1.5-.3v-1.1c0-.8-.3-1.2-1.2-1.2-.7 0-1.3.5-1.7 1.1l-.3-.3c.5-.8 1.3-1.4 2.2-1.4 1.4 0 2 .6 2 1.7v3.4c0 .8.3 1 .6 1 .2 0 .5-.1.6-.3zm-2.4-.5v-2.2l-1 .2c-.8.2-1.4.6-1.4 1.4 0 .7.5 1.2 1.1 1.2.4 0 .9-.2 1.3-.6z"/><path d="m132.8 511.2c0 1-.8 1.9-2.1 1.9-.6 0-1.1-.1-1.5-.4l-.1.4h-.3l-.1-2h.3c.2 1.1.8 1.6 1.7 1.6.7 0 1.2-.5 1.2-1.2 0-.8-.7-1.1-1.4-1.4-.8-.3-1.7-.8-1.7-1.9 0-1 .8-1.8 1.9-1.8.6 0 1 .1 1.4.4l.2-.3h.3v1.7h-.3c-.1-.9-.6-1.4-1.5-1.4-.7 0-1.1.5-1.1 1 0 .8.7 1.1 1.4 1.4.9.5 1.7.9 1.7 2z"/><path d="m137.8 512.2c-.3.5-.9.9-1.8.9-.8 0-1.5-.5-1.5-1.7v-4.2h-1v-.3l1-.4.8-1.9h.3v2.1h1.8v.4h-1.8v4.1c0 .9.4 1.2 1 1.2.5 0 .8-.3 1-.5z"/><path d="m144.2 513h-3v-.3l1-.1v-5.3l-1-.2v-.3l2.1-.3v6.1l1 .1v.3zm-.9-8.8c0 .4-.3.7-.7.7s-.7-.3-.7-.7.3-.7.7-.7.7.4.7.7z"/><path d="m151.9 513h-3.1v-.3l1.1-.1v-5c-.1-.4-.6-.6-1.1-.6-1.2 0-1.9 1.2-1.9 2.7v2.9l1.1.1v.3h-3.1v-.3l1-.1v-5.3l-1-.2v-.3l2-.3v1.6c.4-1.1 1.2-1.7 2.2-1.7 1.2 0 1.9.8 1.9 2v4.1l1 .1v.4z"/><path d="m156.5 512.2c-.3.5-.9.9-1.8.9-.8 0-1.5-.5-1.5-1.7v-4.2h-1v-.3l1-.4.8-1.9h.3v2.1h1.8v.4h-1.8v4.1c0 .9.4 1.2 1 1.2.5 0 .8-.3 1-.5z"/><path d="m162.9 509.8c0 2-1.4 3.3-3.1 3.3s-3.1-1.3-3.1-3.3 1.4-3.3 3.1-3.3 3.1 1.3 3.1 3.3zm-1.2 0c0-1.8-.7-3-1.9-3s-1.9 1.1-1.9 3 .7 3 1.9 3 1.9-1.1 1.9-3z"/><path d="m47.8 526.6c0 2.1-1.4 3.5-3.1 3.5-.7 0-1.1-.2-1.5-.4v3.7l1.4.1v.3h-3.4v-.3l1-.1v-9.1l-1-.2v-.3l2-.3v1c.4-.6 1.1-1.1 2-1.1 1.3.1 2.6 1.2 2.6 3.2zm-1.1.1c0-1.6-.6-2.7-1.8-2.7-.8 0-1.4.5-1.6 1.1v4c.3.3.9.6 1.4.6 1.4 0 2-1.5 2-3z"/><path d="m53.2 523.9-.4.9c-.2-.1-.9-.5-1.1-.5-.7 0-1.2 1-1.2 2.4v3l1.4.1v.3h-3.4v-.3l1-.1v-5.3l-1-.2v-.3l2-.3v1.6c.3-1.2 1.1-1.7 1.8-1.7.3 0 .7.2.9.4z"/><path d="m59 526.3h-4.3v.4c0 1.8.9 2.9 2.1 2.9 1 0 1.5-.4 1.9-.9l.3.3c-.3.5-1 1.2-2.4 1.2-1.8 0-3.1-1.4-3.1-3.3 0-2 1.5-3.3 3-3.3s2.5 1 2.5 2.5zm-1.1-.4c0-1-.3-2.1-1.4-2.1-.9 0-1.5.9-1.7 2.1z"/><path d="m64.2 528.2c0 1-.8 1.9-2.1 1.9-.6 0-1.1-.1-1.5-.4l-.1.4h-.3l-.1-2h.3c.2 1.1.8 1.6 1.7 1.6.7 0 1.2-.5 1.2-1.2 0-.8-.7-1.1-1.4-1.4-.8-.3-1.7-.8-1.7-1.9 0-1 .8-1.8 1.9-1.8.6 0 1 .1 1.4.4l.2-.3h.3v1.7h-.3c-.1-.9-.6-1.4-1.5-1.4-.7 0-1.1.5-1.1 1 0 .8.7 1.1 1.4 1.4.8.5 1.7.9 1.7 2z"/><path d="m70.5 526.3h-4.3v.4c0 1.8.9 2.9 2.1 2.9 1 0 1.5-.4 1.9-.9l.3.3c-.3.5-1 1.2-2.4 1.2-1.8 0-3.1-1.4-3.1-3.3 0-2 1.5-3.3 3-3.3s2.5 1 2.5 2.5zm-1.1-.4c0-1-.3-2.1-1.4-2.1-.9 0-1.5.9-1.7 2.1z"/><path d="m78.4 530h-3.1v-.3l1.1-.1v-5c-.1-.4-.6-.6-1.1-.6-1.2 0-1.9 1.2-1.9 2.7v2.9l1.1.1v.3h-3.1v-.3l1-.1v-5.3l-1-.2v-.3l2-.3v1.6c.4-1.1 1.2-1.7 2.2-1.7 1.2 0 1.9.8 1.9 2v4.1l1 .1v.4z"/><path d="m83 529.2c-.3.5-.9.9-1.8.9-.8 0-1.5-.5-1.5-1.7v-4.2h-1v-.3l1-.4.8-1.9h.3v2.1h1.8v.4h-1.8v4.1c0 .9.4 1.2 1 1.2.5 0 .8-.3 1-.5z"/><path d="m85.4 529.3c0 .4-.3.8-.8.8s-.8-.3-.8-.8c0-.4.3-.8.8-.8s.8.4.8.8z"/><path d="m96.6 530h-6.7v-.3l1.2-.1v-8.8l-1.2-.1v-.3h6.5v2h-.4l-.2-1.6h-3.5v3.9h2.6l.1-1h.4v2.5h-.4l-.1-1h-2.6v4.3h3.7l.2-1.7h.5v2.2z"/><path d="m103.7 530h-2.9v-.3l1-.1-1.5-2.3-1.4 2.3 1 .1v.3h-2.5v-.3l.9-.1 1.7-2.6-1.9-2.8-.7-.1v-.3h2.8v.3l-.9.1 1.3 2.1 1.3-2.1-.9-.1v-.3h2.4v.3l-.9.1-1.6 2.4 2 3 .7.1v.3z"/><path d="m110.6 526.6c0 2.1-1.4 3.5-3.1 3.5-.7 0-1.1-.2-1.5-.4v3.7l1.4.1v.3h-3.4v-.3l1-.1v-9.1l-1-.2v-.3l2-.3v1c.4-.6 1.1-1.1 2-1.1 1.3.1 2.6 1.2 2.6 3.2zm-1.2.1c0-1.6-.6-2.7-1.8-2.7-.8 0-1.4.5-1.6 1.1v4c.3.3.9.6 1.4.6 1.4 0 2-1.5 2-3z"/><path d="m114.2 530h-3v-.3l1-.1v-9.4l-1-.2v-.3l2.1-.3v10.2l1 .1v.3z"/><path d="m121 526.8c0 2-1.4 3.3-3.1 3.3s-3.1-1.3-3.1-3.3 1.4-3.3 3.1-3.3 3.1 1.3 3.1 3.3zm-1.2 0c0-1.8-.7-3-1.9-3s-1.9 1.1-1.9 3 .7 3 1.9 3 1.9-1.1 1.9-3z"/><path d="m126.4 523.9-.4.9c-.2-.1-.9-.5-1.1-.5-.7 0-1.2 1-1.2 2.4v3l1.4.1v.3h-3.4v-.3l1-.1v-5.3l-1-.2v-.3l2-.3v1.6c.3-1.2 1.1-1.7 1.8-1.7.3 0 .7.2.9.4z"/><path d="m132.2 526.3h-4.3v.4c0 1.8.9 2.9 2.1 2.9 1 0 1.5-.4 1.9-.9l.3.3c-.3.5-1 1.2-2.4 1.2-1.8 0-3.1-1.4-3.1-3.3 0-2 1.5-3.3 3-3.3s2.5 1 2.5 2.5zm-1.1-.4c0-1-.3-2.1-1.4-2.1-.9 0-1.5.9-1.7 2.1z"/><path d="m137.9 529.7c0 1-.6 1.7-1.3 2l-.3-.4c.7-.3 1-.8 1-1.4l-1-.3c-.1-.1-.1-.3-.1-.4 0-.4.3-.6.7-.6.6 0 1 .5 1 1.1zm2.4 0c0 1-.6 1.7-1.3 2l-.3-.4c.7-.3 1-.8 1-1.4l-1-.3c-.1-.1-.1-.3-.1-.4 0-.4.3-.6.7-.6.6 0 1 .5 1 1.1z"/><path d="m148 530h-6.6v-.3l1.2-.1v-8.8l-1.2-.1v-.3h3.7v.3l-1.3.1v8.7h3.6l.2-1.8h.4z"/><path d="m154.7 529.4c-.2.3-.7.7-1.3.7s-1-.4-1.1-.9c-.4.5-1.2.9-1.8.9-1 0-1.8-.7-1.8-1.6 0-1.1.9-1.7 2-1.9l1.5-.3v-1.1c0-.8-.3-1.2-1.2-1.2-.7 0-1.3.5-1.7 1.1l-.3-.3c.5-.8 1.3-1.4 2.2-1.4 1.4 0 2 .6 2 1.7v3.4c0 .8.3 1 .6 1 .2 0 .5-.1.6-.3zm-2.4-.5v-2.2l-1 .2c-.8.2-1.4.6-1.4 1.4 0 .7.5 1.2 1.1 1.2.4 0 1-.2 1.3-.6z"/><path d="m158.9 529.2c-.3.5-.9.9-1.8.9-.8 0-1.5-.5-1.5-1.7v-4.2h-1v-.3l1-.4.8-1.9h.3v2.1h1.8v.4h-1.8v4.1c0 .9.4 1.2 1 1.2.5 0 .8-.3 1-.5z"/><path d="m164.7 526.3h-4.3v.4c0 1.8.9 2.9 2.1 2.9 1 0 1.5-.4 1.9-.9l.3.3c-.3.5-1 1.2-2.4 1.2-1.8 0-3.1-1.4-3.1-3.3 0-2 1.5-3.3 3-3.3s2.5 1 2.5 2.5zm-1.2-.4c0-1-.3-2.1-1.4-2.1-.9 0-1.5.9-1.7 2.1z"/><path d="m169.8 528.2c0 1-.8 1.9-2.1 1.9-.6 0-1.1-.1-1.5-.4l-.1.4h-.3l-.1-2h.3c.2 1.1.8 1.6 1.7 1.6.7 0 1.2-.5 1.2-1.2 0-.8-.7-1.1-1.4-1.4-.8-.3-1.7-.8-1.7-1.9 0-1 .8-1.8 1.9-1.8.6 0 1 .1 1.4.4l.2-.3h.3v1.7h-.3c-.1-.9-.6-1.4-1.5-1.4-.7 0-1.1.5-1.1 1 0 .8.7 1.1 1.4 1.4.8.5 1.7.9 1.7 2z"/><path d="m174.7 529.2c-.3.5-.9.9-1.8.9-.8 0-1.5-.5-1.5-1.7v-4.2h-1v-.3l1-.4.8-1.9h.3v2.1h1.8v.4h-1.8v4.1c0 .9.4 1.2 1 1.2.5 0 .8-.3 1-.5z"/><path d="m176.6 522.4c0 .4-.3.6-.7.6-.6 0-1-.5-1-1.2 0-1 .6-1.7 1.3-2l.3.4c-.7.3-1 .8-1 1.4l1 .3c.1.1.1.3.1.5zm2.4 0c0 .4-.3.6-.7.6-.6 0-1-.5-1-1.2 0-1 .6-1.7 1.3-2l.3.4c-.7.3-1 .8-1 1.4l1 .3c.1.1.1.3.1.5z"/><path d="m182.2 529.8c0 1.1-.7 1.8-1.6 2.1l-.2-.4c.7-.2 1.2-.7 1.2-1.5l-1.2-.5c-.1-.1-.1-.3-.1-.4 0-.4.3-.7.8-.7.6.1 1.1.7 1.1 1.4z"/><path d="m192.2 529.4c-.2.3-.7.7-1.3.7s-1-.4-1.1-.9c-.4.5-1.2.9-1.8.9-1 0-1.8-.7-1.8-1.6 0-1.1.9-1.7 2-1.9l1.5-.3v-1.1c0-.8-.3-1.2-1.2-1.2-.7 0-1.3.5-1.7 1.1l-.3-.3c.5-.8 1.3-1.4 2.2-1.4 1.4 0 2 .6 2 1.7v3.4c0 .8.3 1 .6 1 .2 0 .5-.1.6-.3zm-2.4-.5v-2.2l-1 .2c-.8.2-1.4.6-1.4 1.4 0 .7.5 1.2 1.1 1.2.4 0 .9-.2 1.3-.6z"/><path d="m48 546.8-2 .3v-1c-.4.6-.9 1-1.9 1-1.3 0-2.7-1.1-2.7-3.1 0-2.1 1.3-3.5 3-3.5.8 0 1.3.3 1.6.6v-4l-1-.2v-.3l2.1-.3v10l1 .2v.3zm-2.1-1.3v-3.7c-.3-.5-.9-.9-1.5-.9-1.4 0-1.9 1.5-1.9 3 0 1.6.7 2.7 1.9 2.7.9 0 1.3-.6 1.5-1.1z"/><path d="m54.7 543.8c0 2-1.4 3.3-3.1 3.3s-3.1-1.3-3.1-3.3 1.4-3.3 3.1-3.3 3.1 1.3 3.1 3.3zm-1.2 0c0-1.8-.7-3-1.9-3s-1.9 1.1-1.9 3 .7 3 1.9 3 1.9-1.1 1.9-3z"/><path d="m60.9 546c-.3.5-1 1.2-2.4 1.2-1.7 0-3.1-1.4-3.1-3.4s1.5-3.3 3.1-3.3c.7 0 1.2.1 1.8.4l.2-.4h.3l-.1 1.8h-.3c-.2-.9-.8-1.5-1.8-1.5-1.2 0-2 1.1-2 2.8s.9 2.9 2.1 2.9c1 0 1.5-.4 1.9-.9z"/><path d="m68.4 546.8-2 .3v-1.6c-.4 1.1-1.2 1.7-2.2 1.7-1.2 0-1.9-.8-1.9-2v-4l-1-.2v-.3h2.1v5.3c.1.4.5.6 1.1.6 1.2 0 1.9-1.2 1.9-2.7v-2.7l-1.1-.2v-.3h2.2v5.7l1 .2v.2z"/><path d="m79.7 547h-3.1v-.3l1.1-.1v-5c-.2-.4-.4-.6-1-.6-1 0-1.8 1.1-1.8 2.7v2.9l1.1.1v.3h-3.2v-.3l1.1-.1v-5c-.2-.4-.4-.6-1-.6-1 0-1.8 1.1-1.8 2.7v2.9l1.1.1v.3h-3.1v-.3l1-.1v-5.3l-1-.2v-.3l2-.3v1.6c.3-.9 1.1-1.7 2.1-1.7s1.6.6 1.8 1.7c.3-1 1.1-1.7 2.1-1.7 1.1 0 1.8.8 1.8 2v4.1l1 .1v.4z"/><path d="m85.7 543.3h-4.3v.4c0 1.8.9 2.9 2.1 2.9 1 0 1.5-.4 1.9-.9l.3.3c-.3.5-1 1.2-2.4 1.2-1.8 0-3.1-1.4-3.1-3.3 0-2 1.5-3.3 3-3.3s2.5 1 2.5 2.5zm-1.1-.4c0-1-.3-2.1-1.4-2.1-.9 0-1.5.9-1.7 2.1z"/><path d="m93.6 547h-3.1v-.3l1.1-.1v-5c-.1-.4-.6-.6-1.1-.6-1.2 0-1.9 1.2-1.9 2.7v2.9l1.1.1v.3h-3.1v-.3l1-.1v-5.3l-1-.2v-.3l2-.3v1.6c.4-1.1 1.2-1.7 2.2-1.7 1.2 0 1.9.8 1.9 2v4.1l1 .1v.4z"/><path d="m98.2 546.2c-.3.5-.9.9-1.8.9-.8 0-1.5-.5-1.5-1.7v-4.2h-1v-.3l1-.4.8-1.9h.3v2.1h1.8v.4h-1.8v4.1c0 .9.4 1.2 1 1.2.5 0 .8-.3 1-.5z"/><path d="m104.6 546.4c-.2.3-.7.7-1.3.7s-1-.4-1.1-.9c-.4.5-1.2.9-1.8.9-1 0-1.8-.7-1.8-1.6 0-1.1.9-1.7 2-1.9l1.5-.3v-1.1c0-.8-.3-1.2-1.2-1.2-.7 0-1.3.5-1.7 1.1l-.3-.3c.5-.8 1.3-1.4 2.2-1.4 1.4 0 2 .6 2 1.7v3.4c0 .8.3 1 .6 1 .2 0 .5-.1.6-.3zm-2.5-.5v-2.2l-1 .2c-.8.2-1.4.6-1.4 1.4 0 .7.5 1.2 1.1 1.2.5 0 1-.2 1.3-.6z"/><path d="m109.4 540.9-.4.9c-.2-.1-.9-.5-1.1-.5-.7 0-1.2 1-1.2 2.4v3l1.4.1v.3h-3.4v-.3l1-.1v-5.3l-1-.2v-.3l2-.3v1.6c.3-1.2 1.1-1.7 1.8-1.7.3 0 .7.2.9.4z"/><path d="m116.2 541-.7.2-2.4 5.9-1.3 3.8h-1l1.9-3.9-2.3-5.8-.7-.1v-.3h2.9v.3l-1 .1 1.7 4.6 1.7-4.5-1-.1v-.3h2.3v.1z"/><path d="m123.6 546.2c-.3.5-.9.9-1.8.9-.8 0-1.5-.5-1.5-1.7v-4.2h-1v-.3l1-.4.8-1.9h.3v2.1h1.8v.4h-1.8v4.1c0 .9.4 1.2 1 1.2.5 0 .8-.3 1-.5z"/><path d="m131 547h-3.1v-.3l1.1-.1v-5c-.2-.4-.6-.6-1.1-.6-1.2 0-1.9 1.2-1.9 2.7v2.9l1.1.1v.3h-3.1v-.3l1-.1v-9.4l-1-.2v-.3l2.1-.3v5.7c.4-1 1.1-1.6 2.2-1.6 1.2 0 1.9.8 1.9 2v4.1l1 .1v.3z"/><path d="m137.4 546.4c-.2.3-.7.7-1.3.7s-1-.4-1.1-.9c-.4.5-1.2.9-1.8.9-1 0-1.8-.7-1.8-1.6 0-1.1.9-1.7 2-1.9l1.5-.3v-1.1c0-.8-.3-1.2-1.2-1.2-.7 0-1.3.5-1.7 1.1l-.3-.3c.5-.8 1.3-1.4 2.2-1.4 1.4 0 2 .6 2 1.7v3.4c0 .8.3 1 .6 1 .2 0 .5-.1.6-.3zm-2.4-.5v-2.2l-1 .2c-.8.2-1.4.6-1.4 1.4 0 .7.5 1.2 1.1 1.2.4 0 1-.2 1.3-.6z"/><path d="m141.6 546.2c-.3.5-.9.9-1.8.9-.8 0-1.5-.5-1.5-1.7v-4.2h-1v-.3l1-.4.8-1.9h.3v2.1h1.8v.4h-1.8v4.1c0 .9.4 1.2 1 1.2.5 0 .8-.3 1-.5z"/><path d="m150.9 546.4c-.2.3-.7.7-1.3.7s-1-.4-1.1-.9c-.4.5-1.2.9-1.8.9-1 0-1.8-.7-1.8-1.6 0-1.1.9-1.7 2-1.9l1.5-.3v-1.1c0-.8-.3-1.2-1.2-1.2-.7 0-1.3.5-1.7 1.1l-.3-.3c.5-.8 1.3-1.4 2.2-1.4 1.4 0 2 .6 2 1.7v3.4c0 .8.3 1 .6 1 .2 0 .5-.1.6-.3zm-2.4-.5v-2.2l-1 .2c-.8.2-1.4.6-1.4 1.4 0 .7.5 1.2 1.1 1.2.4 0 1-.2 1.3-.6z"/><path d="m157.6 543.6c0 2.1-1.4 3.5-3.1 3.5-.7 0-1.1-.2-1.5-.4v3.7l1.4.1v.3h-3.4v-.3l1-.1v-9.1l-1-.2v-.3l2-.3v1c.4-.6 1.1-1.1 2-1.1 1.3.1 2.6 1.2 2.6 3.2zm-1.2.1c0-1.6-.6-2.7-1.8-2.7-.8 0-1.4.5-1.6 1.1v4c.3.3.9.6 1.4.6 1.4 0 2-1.5 2-3z"/><path d="m164.8 543.6c0 2.1-1.4 3.5-3.1 3.5-.7 0-1.1-.2-1.5-.4v3.7l1.4.1v.3h-3.4v-.3l1-.1v-9.1l-1-.2v-.3l2-.3v1c.4-.6 1.1-1.1 2-1.1 1.3.1 2.6 1.2 2.6 3.2zm-1.2.1c0-1.6-.6-2.7-1.8-2.7-.8 0-1.4.5-1.6 1.1v4c.3.3.9.6 1.4.6 1.4 0 2-1.5 2-3z"/><path d="m171 543.3h-4.3v.4c0 1.8.9 2.9 2.1 2.9 1 0 1.5-.4 1.9-.9l.3.3c-.3.5-1 1.2-2.4 1.2-1.8 0-3.1-1.4-3.1-3.3 0-2 1.5-3.3 3-3.3s2.5 1 2.5 2.5zm-1.1-.4c0-1-.3-2.1-1.4-2.1-.9 0-1.5.9-1.7 2.1z"/><path d="m177.8 546.4c-.2.3-.7.7-1.3.7s-1-.4-1.1-.9c-.4.5-1.2.9-1.8.9-1 0-1.8-.7-1.8-1.6 0-1.1.9-1.7 2-1.9l1.5-.3v-1.1c0-.8-.3-1.2-1.2-1.2-.7 0-1.3.5-1.7 1.1l-.3-.3c.5-.8 1.3-1.4 2.2-1.4 1.4 0 2 .6 2 1.7v3.4c0 .8.3 1 .6 1 .2 0 .5-.1.6-.3zm-2.5-.5v-2.2l-1 .2c-.8.2-1.4.6-1.4 1.4 0 .7.5 1.2 1.1 1.2.5 0 1-.2 1.3-.6z"/><path d="m182.6 540.9-.4.9c-.2-.1-.9-.5-1.1-.5-.7 0-1.2 1-1.2 2.4v3l1.4.1v.3h-3.3v-.3l1-.1v-5.3l-1-.2v-.3l2-.3v1.6c.3-1.2 1.1-1.7 1.8-1.7.3 0 .6.2.8.4z"/><path d="m188.5 543.3h-4.3v.4c0 1.8.9 2.9 2.1 2.9 1 0 1.5-.4 1.9-.9l.3.3c-.3.5-1 1.2-2.4 1.2-1.8 0-3.1-1.4-3.1-3.3 0-2 1.5-3.3 3-3.3s2.5 1 2.5 2.5zm-1.2-.4c0-1-.3-2.1-1.4-2.1-.9 0-1.5.9-1.7 2.1z"/><path d="m195.9 546.8-2 .3v-1c-.4.6-.9 1-1.9 1-1.3 0-2.7-1.1-2.7-3.1 0-2.1 1.3-3.5 3-3.5.8 0 1.3.3 1.6.6v-4l-1-.2v-.3l2.1-.3v10l1 .2v.3zm-2.1-1.3v-3.7c-.3-.5-.9-.9-1.5-.9-1.4 0-1.9 1.5-1.9 3 0 1.6.7 2.7 1.9 2.7.9 0 1.3-.6 1.5-1.1z"/><path d="m47.5 561.9-.3 2.1h-5.8l-.1-.5 2.3-2.4c1.5-1.5 2.4-2.6 2.4-4.4 0-1.3-.7-2.1-1.9-2.1-1 0-1.7.6-2 1.6l-.5-.3c.4-1.1 1.3-1.9 2.7-1.9 1.7 0 2.9.9 2.9 2.6 0 1.6-.8 2.5-2.4 4.1l-2.2 2.3h4.2l.4-1.2z"/><path d="m54.9 559.1c0 2.5-.9 5-3.2 5s-3.2-2.5-3.2-5 .9-5 3.2-5 3.2 2.5 3.2 5zm-1.3 0c0-2.3-.4-4.6-2-4.6s-1.9 2.2-1.9 4.6.4 4.6 1.9 4.6c1.6 0 2-2.2 2-4.6z"/><path d="m65 558-.7.2-2.4 5.9-1.3 3.8h-1l1.9-3.9-2.3-5.8-.7-.1v-.3h2.9v.3l-1 .1 1.7 4.6 1.7-4.5-1-.1v-.3h2.2z"/><path d="m70.6 560.3h-4.3v.4c0 1.8.9 2.9 2.1 2.9 1 0 1.5-.4 1.9-.9l.3.3c-.3.5-1 1.2-2.4 1.2-1.8 0-3.1-1.4-3.1-3.3 0-2 1.5-3.3 3-3.3s2.5 1 2.5 2.5zm-1.2-.4c0-1-.3-2.1-1.4-2.1-.9 0-1.5.9-1.7 2.1z"/><path d="m77.3 563.4c-.2.3-.7.7-1.3.7s-1-.4-1.1-.9c-.4.5-1.2.9-1.8.9-1 0-1.8-.7-1.8-1.6 0-1.1.9-1.7 2-1.9l1.5-.3v-1.1c0-.8-.3-1.2-1.2-1.2-.7 0-1.3.5-1.7 1.1l-.3-.3c.5-.8 1.3-1.4 2.2-1.4 1.4 0 2 .6 2 1.7v3.4c0 .8.3 1 .6 1 .2 0 .5-.1.6-.3zm-2.4-.5v-2.2l-1 .2c-.8.2-1.4.6-1.4 1.4 0 .7.5 1.2 1.1 1.2.4 0 1-.2 1.3-.6z"/><path d="m82.2 557.9-.4.9c-.2-.1-.9-.5-1.1-.5-.7 0-1.2 1-1.2 2.4v3l1.4.1v.3h-3.4v-.3l1-.1v-5.3l-1-.2v-.3l2-.3v1.6c.3-1.2 1.1-1.7 1.8-1.7.3 0 .7.2.9.4z"/><path d="m86.9 562.2c0 1-.8 1.9-2.1 1.9-.6 0-1.1-.1-1.5-.4l-.1.4h-.3l-.1-2h.3c.2 1.1.8 1.6 1.7 1.6.7 0 1.2-.5 1.2-1.2 0-.8-.7-1.1-1.4-1.4-.8-.3-1.7-.8-1.7-1.9 0-1 .8-1.8 1.9-1.8.6 0 1 .1 1.4.4l.2-.3h.3v1.7h-.3c-.1-.9-.6-1.4-1.5-1.4-.7 0-1.1.5-1.1 1 0 .8.7 1.1 1.4 1.4.9.5 1.7.9 1.7 2z"/><path d="m96.8 563.4c-.2.3-.7.7-1.3.7s-1-.4-1.1-.9c-.4.5-1.2.9-1.8.9-1 0-1.8-.7-1.8-1.6 0-1.1.9-1.7 2-1.9l1.5-.3v-1.1c0-.8-.3-1.2-1.2-1.2-.7 0-1.3.5-1.7 1.1l-.3-.3c.5-.8 1.3-1.4 2.2-1.4 1.4 0 2 .6 2 1.7v3.4c0 .8.3 1 .6 1 .2 0 .5-.1.6-.3zm-2.5-.5v-2.2l-1 .2c-.8.2-1.4.6-1.4 1.4 0 .7.5 1.2 1.1 1.2.5 0 1-.2 1.3-.6z"/><path d="m103 558.3-1.7-.2c.5.4.8 1 .8 1.6 0 1.5-1.3 2.3-2.5 2.4-1 .1-1.4.5-1.4.9 0 .2.1.3.2.4l2.8.3c.8.1 1.7.6 1.7 1.6 0 1.6-1.4 2.6-3.5 2.6-1.3 0-2.7-.7-2.7-2 0-.8.5-1.3 1.2-1.7-.3-.2-.5-.5-.5-.9 0-.5.4-1 1.3-1.3-.9-.3-1.6-1.1-1.6-2.2 0-1.4 1.2-2.4 2.5-2.4.5 0 1 .2 1.4.4l2-.4zm-1 7.5c0-.6-.4-1-1.1-1.1l-2.8-.3c-.4.2-.6.8-.6 1.3 0 .9.7 1.9 2.3 1.9.9 0 2.2-.6 2.2-1.8zm-1-5.9c0-1.2-.6-2-1.4-2s-1.4.8-1.4 2 .6 2 1.4 2 1.4-.9 1.4-2z"/><path d="m109.4 560.8c0 2-1.4 3.3-3.1 3.3s-3.1-1.3-3.1-3.3 1.4-3.3 3.1-3.3c1.8 0 3.1 1.3 3.1 3.3zm-1.2 0c0-1.8-.7-3-1.9-3s-1.9 1.1-1.9 3 .7 3 1.9 3 1.9-1.1 1.9-3z"/><path d="m112.1 563.8c0 1.1-.7 1.8-1.6 2.1l-.2-.4c.7-.2 1.2-.7 1.2-1.5l-1.2-.5c-.1-.1-.1-.3-.1-.4 0-.4.3-.7.8-.7.6.1 1.1.7 1.1 1.4z"/><path d="m121.5 563c-.3.5-1 1.2-2.4 1.2-1.7 0-3.1-1.4-3.1-3.4s1.5-3.3 3.1-3.3c.7 0 1.2.1 1.8.4l.2-.4h.3l-.1 1.8h-.3c-.2-.9-.8-1.5-1.8-1.5-1.2 0-2 1.1-2 2.8s.9 2.9 2.1 2.9c1 0 1.5-.4 1.9-.9z"/><path d="m128.3 560.8c0 2-1.4 3.3-3.1 3.3s-3.1-1.3-3.1-3.3 1.4-3.3 3.1-3.3c1.8 0 3.1 1.3 3.1 3.3zm-1.2 0c0-1.8-.7-3-1.9-3s-1.9 1.1-1.9 3 .7 3 1.9 3 1.9-1.1 1.9-3z"/><path d="m134.9 558-.7.2-2.5 6h-.1l-2.5-6.1-.7-.1v-.3h2.9v.3l-1 .1 1.7 4.4 1.7-4.3-1-.1v-.3h2.3v.2z"/><path d="m140.5 560.3h-4.3v.4c0 1.8.9 2.9 2.1 2.9 1 0 1.5-.4 1.9-.9l.3.3c-.3.5-1 1.2-2.4 1.2-1.8 0-3.1-1.4-3.1-3.3 0-2 1.5-3.3 3-3.3s2.5 1 2.5 2.5zm-1.2-.4c0-1-.3-2.1-1.4-2.1-.9 0-1.5.9-1.7 2.1z"/><path d="m145.9 557.9-.4.9c-.2-.1-.9-.5-1.1-.5-.7 0-1.2 1-1.2 2.4v3l1.4.1v.3h-3.4v-.3l1-.1v-5.3l-1-.2v-.3l2-.3v1.6c.3-1.2 1.1-1.7 1.8-1.7.4 0 .7.2.9.4z"/><path d="m149.4 564h-3v-.3l1-.1v-5.3l-1-.2v-.3l2.1-.3v6.1l1 .1v.3zm-.9-8.8c0 .4-.3.7-.7.7s-.7-.3-.7-.7.3-.7.7-.7.7.4.7.7z"/><path d="m157.1 564h-3.1v-.3l1.1-.1v-5c-.1-.4-.6-.6-1.1-.6-1.2 0-1.9 1.2-1.9 2.7v2.9l1.1.1v.3h-3.1v-.3l1-.1v-5.3l-1-.2v-.3l2-.3v1.6c.4-1.1 1.2-1.7 2.2-1.7 1.2 0 1.9.8 1.9 2v4.1l1 .1v.4z"/><path d="m163.7 558.3-1.7-.2c.5.4.8 1 .8 1.6 0 1.5-1.3 2.3-2.5 2.4-1 .1-1.4.5-1.4.9 0 .2.1.3.2.4l2.8.3c.8.1 1.7.6 1.7 1.6 0 1.6-1.4 2.6-3.5 2.6-1.3 0-2.7-.7-2.7-2 0-.8.5-1.3 1.2-1.7-.3-.2-.5-.5-.5-.9 0-.5.4-1 1.3-1.3-.9-.3-1.6-1.1-1.6-2.2 0-1.4 1.2-2.4 2.5-2.4.5 0 1 .2 1.4.4l2-.4zm-1 7.5c0-.6-.4-1-1.1-1.1l-2.8-.3c-.4.2-.6.8-.6 1.3 0 .9.7 1.9 2.3 1.9.9 0 2.2-.6 2.2-1.8zm-1-5.9c0-1.2-.6-2-1.4-2s-1.4.8-1.4 2 .6 2 1.4 2 1.4-.9 1.4-2z"/><path d="m173.3 560.8c0 2-1.4 3.3-3.1 3.3s-3.1-1.3-3.1-3.3 1.4-3.3 3.1-3.3 3.1 1.3 3.1 3.3zm-1.2 0c0-1.8-.7-3-1.9-3s-1.9 1.1-1.9 3 .7 3 1.9 3 1.9-1.1 1.9-3z"/><path d="m179.8 558-.7.2-2.5 6h-.1l-2.5-6.1-.7-.1v-.3h2.9v.3l-1 .1 1.7 4.4 1.7-4.3-1-.1v-.3h2.3v.2z"/><path d="m185.4 560.3h-4.3v.4c0 1.8.9 2.9 2.1 2.9 1 0 1.5-.4 1.9-.9l.3.3c-.3.5-1 1.2-2.4 1.2-1.8 0-3.1-1.4-3.1-3.3 0-2 1.5-3.3 3-3.3s2.5 1 2.5 2.5zm-1.1-.4c0-1-.3-2.1-1.4-2.1-.9 0-1.5.9-1.7 2.1z"/><path d="m190.9 557.9-.4.9c-.2-.1-.9-.5-1.1-.5-.7 0-1.2 1-1.2 2.4v3l1.4.1v.3h-3.4v-.3l1-.1v-5.3l-1-.2v-.3l2-.3v1.6c.3-1.2 1.1-1.7 1.8-1.7.3 0 .7.2.9.4z"/><path d="m47.1 578.2c0 1.8-1.6 3-3.4 3-.9 0-1.8-.3-2.3-.8l.2-.5c.5.4 1.3.8 2.1.8 1.3 0 2.2-.8 2.2-2.3 0-1.4-.9-2.1-2.2-2.1-.3 0-.6 0-1 .1l-.1-.6c1.8 0 2.9-.6 2.9-2.3 0-1.1-.6-1.8-1.6-1.8-.9 0-1.5.4-2 1.3l-.4-.3c.6-1.1 1.5-1.5 2.6-1.5 1.4 0 2.5.8 2.5 2.3 0 1.1-.9 2.1-2.1 2.4 1.5.1 2.6 1 2.6 2.3z"/><path d="m54.5 576.1c0 2.5-.9 5-3.2 5s-3.2-2.5-3.2-5 .9-5 3.2-5c2.4 0 3.2 2.5 3.2 5zm-1.2 0c0-2.3-.4-4.6-2-4.6s-1.9 2.2-1.9 4.6.4 4.6 1.9 4.6 2-2.2 2-4.6z"/><path d="m64.6 577.8c0 2-1.4 3.3-3.1 3.3s-3.1-1.3-3.1-3.3 1.4-3.3 3.1-3.3c1.8 0 3.1 1.3 3.1 3.3zm-1.2 0c0-1.8-.7-3-1.9-3s-1.9 1.1-1.9 3 .7 3 1.9 3 1.9-1.1 1.9-3z"/><path d="m70 570.5-.4.9c-.6-.4-1.1-.7-1.4-.7-.5 0-.8.4-.8 1.6v2.4h1.8v.4h-1.8v5.4l1.4.1v.3h-3.5v-.3l1-.1v-5.4h-1v-.3l1-.3v-1.2c0-1.8.7-3.3 2.5-3.3.6.2.9.3 1.2.5z"/><path d="m79.2 580.8-2 .3v-1c-.4.6-.9 1-1.9 1-1.3 0-2.7-1.1-2.7-3.1 0-2.1 1.3-3.5 3-3.5.8 0 1.3.3 1.6.6v-4l-1-.2v-.3l2.1-.3v10l1 .2v.3zm-2.1-1.3v-3.7c-.3-.5-.9-.9-1.5-.9-1.4 0-1.9 1.5-1.9 3 0 1.6.7 2.7 1.9 2.7.9 0 1.3-.6 1.5-1.1z"/><path d="m82.7 581h-3v-.3l1-.1v-5.3l-1-.2v-.3l2.1-.3v6.1l1 .1v.3zm-.9-8.8c0 .4-.3.7-.7.7s-.7-.3-.7-.7.3-.7.7-.7.7.4.7.7z"/><path d="m91.9 570.5-.4.9c-.6-.4-1.1-.7-1.4-.7-.5 0-.8.4-.8 1.6v2.4h1.7v.4h-1.8v5.4l1.4.1v.3h-3.5v-.3l1-.1v-5.4h-2.8v5.4l1.3.1v.3h-3.3v-.3l1-.1v-5.4h-1v-.3l1-.3v-1.1c0-1.8 1.1-3.3 2.9-3.3.7 0 1.3.2 1.8.6.4-.5 1-.7 1.8-.7.4.2.7.3 1.1.5zm-3.4 1.1c-.5-.5-1-.9-1.3-.9-1.2 0-1.8.6-1.8 2.3v1.6h2.8v-1.3c0-.5.1-1.1.3-1.7z"/><path d="m96.9 577.3h-4.3v.4c0 1.8.9 2.9 2.1 2.9 1 0 1.5-.4 1.9-.9l.3.3c-.3.5-1 1.2-2.4 1.2-1.8 0-3.1-1.4-3.1-3.3 0-2 1.5-3.3 3-3.3s2.5 1 2.5 2.5zm-1.2-.4c0-1-.3-2.1-1.4-2.1-.9 0-1.5.9-1.7 2.1z"/><path d="m102.3 574.9-.4.9c-.2-.1-.9-.5-1.1-.5-.7 0-1.2 1-1.2 2.4v3l1.4.1v.3h-3.4v-.3l1-.1v-5.3l-1-.2v-.3l2-.3v1.6c.3-1.2 1.1-1.7 1.8-1.7.4 0 .8.2.9.4z"/><path d="m108.2 577.3h-4.3v.4c0 1.8.9 2.9 2.1 2.9 1 0 1.5-.4 1.9-.9l.3.3c-.3.5-1 1.2-2.4 1.2-1.8 0-3.1-1.4-3.1-3.3 0-2 1.5-3.3 3-3.3s2.5 1 2.5 2.5zm-1.2-.4c0-1-.3-2.1-1.4-2.1-.9 0-1.5.9-1.7 2.1z"/><path d="m116 581h-3.1v-.3l1.1-.1v-5c-.1-.4-.6-.6-1.1-.6-1.2 0-1.9 1.2-1.9 2.7v2.9l1.1.1v.3h-3.1v-.3l1-.1v-5.3l-1-.2v-.3l2-.3v1.6c.4-1.1 1.2-1.7 2.2-1.7 1.2 0 1.9.8 1.9 2v4.1l1 .1v.4z"/><path d="m120.6 580.2c-.3.5-.9.9-1.8.9-.8 0-1.5-.5-1.5-1.7v-4.2h-1v-.3l1-.4.8-1.9h.3v2.1h1.8v.4h-1.8v4.1c0 .9.4 1.2 1 1.2.5 0 .8-.3 1-.5z"/><path d="m128.1 580.2c-.3.5-.9.9-1.8.9-.8 0-1.5-.5-1.5-1.7v-4.2h-1v-.3l1-.4.8-1.9h.3v2.1h1.8v.4h-1.8v4.1c0 .9.4 1.2 1 1.2.5 0 .8-.3 1-.5z"/><path d="m134.5 577.8c0 2-1.4 3.3-3.1 3.3s-3.1-1.3-3.1-3.3 1.4-3.3 3.1-3.3c1.8 0 3.1 1.3 3.1 3.3zm-1.2 0c0-1.8-.7-3-1.9-3s-1.9 1.1-1.9 3 .7 3 1.9 3 1.9-1.1 1.9-3z"/><path d="m141.7 577.6c0 2.1-1.4 3.5-3.1 3.5-.7 0-1.1-.2-1.5-.4v3.7l1.4.1v.3h-3.4v-.3l1-.1v-9.1l-1-.2v-.3l2-.3v1c.4-.6 1.1-1.1 2-1.1 1.3.1 2.6 1.2 2.6 3.2zm-1.1.1c0-1.6-.6-2.7-1.8-2.7-.8 0-1.4.5-1.6 1.1v4c.3.3.9.6 1.4.6 1.3 0 2-1.5 2-3z"/><path d="m145.5 581h-3v-.3l1-.1v-5.3l-1-.2v-.3l2.1-.3v6.1l1 .1v.3zm-.9-8.8c0 .4-.3.7-.7.7s-.7-.3-.7-.7.3-.7.7-.7.7.4.7.7z"/><path d="m151.5 580c-.3.5-1 1.2-2.4 1.2-1.7 0-3.1-1.4-3.1-3.4s1.5-3.3 3.1-3.3c.7 0 1.2.1 1.8.4l.2-.4h.3l-.1 1.8h-.3c-.2-.9-.8-1.5-1.8-1.5-1.2 0-2 1.1-2 2.8s.9 2.9 2.1 2.9c1 0 1.5-.4 1.9-.9z"/><path d="m156.6 579.2c0 1-.8 1.9-2.1 1.9-.6 0-1.1-.1-1.5-.4l-.1.4h-.3l-.1-2h.3c.2 1.1.8 1.6 1.7 1.6.7 0 1.2-.5 1.2-1.2 0-.8-.7-1.1-1.4-1.4-.8-.3-1.7-.8-1.7-1.9 0-1 .8-1.8 1.9-1.8.6 0 1 .1 1.4.4l.2-.3h.3v1.7h-.3c-.1-.9-.6-1.4-1.5-1.4-.7 0-1.1.5-1.1 1 0 .8.7 1.1 1.4 1.4.8.5 1.7.9 1.7 2z"/><path d="m166.4 580.4c-.2.3-.7.7-1.3.7s-1-.4-1.1-.9c-.4.5-1.2.9-1.8.9-1 0-1.8-.7-1.8-1.6 0-1.1.9-1.7 2-1.9l1.5-.3v-1.1c0-.8-.3-1.2-1.2-1.2-.7 0-1.3.5-1.7 1.1l-.3-.3c.5-.8 1.3-1.4 2.2-1.4 1.4 0 2 .6 2 1.7v3.4c0 .8.3 1 .6 1 .2 0 .5-.1.6-.3zm-2.4-.5v-2.2l-1 .2c-.8.2-1.4.6-1.4 1.4 0 .7.5 1.2 1.1 1.2.4 0 .9-.2 1.3-.6z"/><path d="m172.9 577.6c0 2.1-1.2 3.5-3.4 3.5-.9 0-1.7-.2-2.2-.5v-9.5l-1-.2v-.3l2.1-.3v5.1c.4-.6 1.1-1 2-1 1.2.1 2.5 1.2 2.5 3.2zm-1.2.1c0-1.6-.6-2.7-1.8-2.7-.8 0-1.3.4-1.7 1.1v4.2c.2.2.8.4 1.4.4 1.3 0 2.1-1.3 2.1-3z"/><path d="m179.8 577.8c0 2-1.4 3.3-3.1 3.3s-3.1-1.3-3.1-3.3 1.4-3.3 3.1-3.3 3.1 1.3 3.1 3.3zm-1.2 0c0-1.8-.7-3-1.9-3s-1.9 1.1-1.9 3 .7 3 1.9 3 1.9-1.1 1.9-3z"/><path d="m187.3 580.8-2 .3v-1.6c-.4 1.1-1.2 1.7-2.2 1.7-1.2 0-1.9-.8-1.9-2v-4l-1-.2v-.3h2.1v5.3c.1.4.5.6 1.1.6 1.2 0 1.9-1.2 1.9-2.7v-2.7l-1.1-.2v-.3h2.2v5.7l1 .2v.2z"/><path d="m191.9 580.2c-.3.5-.9.9-1.8.9-.8 0-1.5-.5-1.5-1.7v-4.2h-1v-.3l1-.4.8-1.9h.3v2.1h1.8v.4h-1.8v4.1c0 .9.4 1.2 1 1.2.5 0 .8-.3 1-.5z"/><path d="m47.3 597.4c-.2.3-.7.7-1.3.7s-1-.4-1.1-.9c-.4.5-1.2.9-1.8.9-1 0-1.8-.7-1.8-1.6 0-1.1.9-1.7 2-1.9l1.5-.3v-1.1c0-.8-.3-1.2-1.2-1.2-.7 0-1.3.5-1.7 1.1l-.3-.3c.5-.8 1.3-1.4 2.2-1.4 1.4 0 2 .6 2 1.7v3.4c0 .8.3 1 .6 1 .2 0 .5-.1.6-.3zm-2.4-.5v-2.2l-1 .2c-.8.2-1.4.6-1.4 1.4 0 .7.5 1.2 1.1 1.2.5 0 1-.2 1.3-.6z"/><path d="m54.6 598h-3.1v-.3l1.1-.1v-5c-.1-.4-.6-.6-1.1-.6-1.2 0-1.9 1.2-1.9 2.7v2.9l1.1.1v.3h-3.1v-.3l1-.1v-5.3l-1-.2v-.3l2-.3v1.6c.4-1.1 1.2-1.7 2.2-1.7 1.2 0 1.9.8 1.9 2v4.1l1 .1v.4z"/><path d="m61.8 597.8-2 .3v-1c-.4.6-.9 1-1.9 1-1.3 0-2.7-1.1-2.7-3.1 0-2.1 1.3-3.5 3-3.5.8 0 1.3.3 1.6.6v-4l-1-.2v-.3l2.1-.3v10l1 .2v.3zm-2.1-1.3v-3.7c-.3-.5-.9-.9-1.5-.9-1.4 0-1.9 1.5-1.9 3 0 1.6.7 2.7 1.9 2.7.9 0 1.3-.6 1.5-1.1z"/><path d="m69.3 597.2c-.3.5-.9.9-1.8.9-.8 0-1.5-.5-1.5-1.7v-4.2h-1v-.3l1-.4.8-1.9h.3v2.1h1.9v.4h-1.8v4.1c0 .9.4 1.2 1 1.2.5 0 .8-.3 1-.5z"/><path d="m75.8 592-.7.2-2.4 5.9-1.3 3.8h-1l1.9-3.9-2.3-5.8-.7-.1v-.3h2.9v.3l-1 .1 1.7 4.6 1.7-4.5-1-.1v-.3h2.3v.1z"/><path d="m82.6 594.6c0 2.1-1.4 3.5-3.1 3.5-.7 0-1.1-.2-1.5-.4v3.7l1.4.1v.3h-3.4v-.3l1-.1v-9.1l-1-.2v-.3l2-.3v1c.4-.6 1.1-1.1 2-1.1 1.3.1 2.6 1.2 2.6 3.2zm-1.1.1c0-1.6-.6-2.7-1.8-2.7-.8 0-1.4.5-1.6 1.1v4c.3.3.9.6 1.4.6 1.3 0 2-1.5 2-3z"/><path d="m89.5 594.8c0 2-1.4 3.3-3.1 3.3s-3.1-1.3-3.1-3.3 1.4-3.3 3.1-3.3 3.1 1.3 3.1 3.3zm-1.2 0c0-1.8-.7-3-1.9-3s-1.9 1.1-1.9 3 .7 3 1.9 3 1.9-1.1 1.9-3z"/><path d="m96.3 592.3-1.7-.2c.5.4.8 1 .8 1.6 0 1.5-1.3 2.3-2.5 2.4-1 .1-1.4.5-1.4.9 0 .2.1.3.2.4l2.8.3c.8.1 1.7.6 1.7 1.6 0 1.6-1.4 2.6-3.5 2.6-1.3 0-2.7-.7-2.7-2 0-.8.5-1.3 1.2-1.7-.3-.2-.5-.5-.5-.9 0-.5.4-1 1.3-1.3-.9-.3-1.6-1.1-1.6-2.2 0-1.4 1.2-2.4 2.5-2.4.5 0 1 .2 1.4.4l2-.4zm-1 7.5c0-.6-.4-1-1.1-1.1l-2.8-.3c-.4.2-.6.8-.6 1.3 0 .9.7 1.9 2.3 1.9.8 0 2.2-.6 2.2-1.8zm-1.1-5.9c0-1.2-.6-2-1.4-2s-1.4.8-1.4 2 .6 2 1.4 2 1.4-.9 1.4-2z"/><path d="m101.3 591.9-.4.9c-.2-.1-.9-.5-1.1-.5-.7 0-1.2 1-1.2 2.4v3l1.4.1v.3h-3.4v-.3l1-.1v-5.3l-1-.2v-.3l2-.3v1.6c.3-1.2 1.1-1.7 1.8-1.7.4 0 .7.2.9.4z"/><path d="m107.6 597.4c-.2.3-.7.7-1.3.7s-1-.4-1.1-.9c-.4.5-1.2.9-1.8.9-1 0-1.8-.7-1.8-1.6 0-1.1.9-1.7 2-1.9l1.5-.3v-1.1c0-.8-.3-1.2-1.2-1.2-.7 0-1.3.5-1.7 1.1l-.3-.3c.5-.8 1.3-1.4 2.2-1.4 1.4 0 2 .6 2 1.7v3.4c0 .8.3 1 .6 1 .2 0 .5-.1.6-.3zm-2.4-.5v-2.2l-1 .2c-.8.2-1.4.6-1.4 1.4 0 .7.5 1.2 1.1 1.2.4 0 1-.2 1.3-.6z"/><path d="m114.3 594.6c0 2.1-1.4 3.5-3.1 3.5-.7 0-1.1-.2-1.5-.4v3.7l1.4.1v.3h-3.4v-.3l1-.1v-9.1l-1-.2v-.3l2-.3v1c.4-.6 1.1-1.1 2-1.1 1.3.1 2.6 1.2 2.6 3.2zm-1.2.1c0-1.6-.6-2.7-1.8-2.7-.8 0-1.4.5-1.6 1.1v4c.3.3.9.6 1.4.6 1.4 0 2-1.5 2-3z"/><path d="m121.9 598h-3.1v-.3l1.1-.1v-5c-.2-.4-.6-.6-1.1-.6-1.2 0-1.9 1.2-1.9 2.7v2.9l1.1.1v.3h-3.1v-.3l1-.1v-9.4l-1-.2v-.3l2.1-.3v5.7c.4-1 1.1-1.6 2.2-1.6 1.2 0 1.9.8 1.9 2v4.1l1 .1v.3z"/><path d="m128.2 592-.7.2-2.4 5.9-1.3 3.8h-1l1.9-3.9-2.3-5.8-.7-.1v-.3h2.9v.3l-1 .1 1.7 4.6 1.7-4.5-1-.1v-.3h2.3v.1z"/><path d="m129.5 597.3c0 .4-.3.8-.8.8s-.8-.3-.8-.8c0-.4.3-.8.8-.8s.8.4.8.8z"/><path d="m228.2 513h-6.6v-.3l1.2-.1v-8.8l-1.2-.1v-.3h3.7v.3l-1.3.1v8.7h3.6l.2-1.8h.4z"/><path d="m234.5 509.3h-4.3v.4c0 1.8.9 2.9 2.1 2.9 1 0 1.5-.4 1.9-.9l.3.3c-.3.5-1 1.2-2.4 1.2-1.8 0-3.1-1.4-3.1-3.3 0-2 1.5-3.3 3-3.3s2.5 1 2.5 2.5zm-1.1-.4c0-1-.3-2.1-1.4-2.1-.9 0-1.5.9-1.7 2.1z"/><path d="m241.3 512.4c-.2.3-.7.7-1.3.7s-1-.4-1.1-.9c-.4.5-1.2.9-1.8.9-1 0-1.8-.7-1.8-1.6 0-1.1.9-1.7 2-1.9l1.5-.3v-1.1c0-.8-.3-1.2-1.2-1.2-.7 0-1.3.5-1.7 1.1l-.3-.3c.5-.8 1.3-1.4 2.2-1.4 1.3 0 2 .6 2 1.7v3.4c0 .8.3 1 .6 1 .2 0 .5-.1.6-.3zm-2.5-.5v-2.2l-1 .2c-.8.2-1.4.6-1.4 1.4 0 .7.5 1.2 1.1 1.2.5 0 1-.2 1.3-.6z"/><path d="m246.1 506.9-.4.9c-.2-.1-.9-.5-1.1-.5-.7 0-1.2 1-1.2 2.4v3l1.4.1v.3h-3.4v-.3l1-.1v-5.3l-1-.2v-.3l2-.3v1.6c.3-1.2 1.1-1.7 1.8-1.7.4 0 .7.2.9.4z"/><path d="m253.7 513h-3.1v-.3l1.1-.1v-5c-.2-.4-.6-.6-1.1-.6-1.2 0-1.9 1.2-1.9 2.7v2.9l1.1.1v.3h-3.1v-.3l1-.1v-5.3l-1-.2v-.3l2-.3v1.6c.4-1.1 1.2-1.7 2.2-1.7 1.2 0 1.9.8 1.9 2v4.1l1 .1v.4z"/><path d="m263.2 512.4c-.2.3-.7.7-1.3.7s-1-.4-1.1-.9c-.5.5-1.2.9-1.8.9-1 0-1.8-.7-1.8-1.6 0-1.1.9-1.7 2-1.9l1.5-.3v-1.1c0-.8-.3-1.2-1.2-1.2-.7 0-1.3.5-1.7 1.1l-.3-.3c.5-.8 1.3-1.4 2.2-1.4 1.4 0 2 .6 2 1.7v3.4c0 .8.3 1 .6 1 .2 0 .5-.1.6-.3zm-2.5-.5v-2.2l-1 .2c-.8.2-1.4.6-1.4 1.4 0 .7.5 1.2 1.1 1.2.5 0 1-.2 1.3-.6z"/><path d="m269.7 509.6c0 2.1-1.2 3.5-3.4 3.5-.9 0-1.7-.2-2.2-.5v-9.5l-1-.2v-.3l2.1-.3v5.1c.4-.6 1.1-1 2-1 1.2.1 2.5 1.2 2.5 3.2zm-1.2.1c0-1.6-.6-2.7-1.8-2.7-.8 0-1.3.4-1.7 1.1v4.2c.2.2.8.4 1.3.4 1.4 0 2.2-1.3 2.2-3z"/><path d="m276.6 509.8c0 2-1.4 3.3-3.1 3.3s-3.1-1.3-3.1-3.3 1.4-3.3 3.1-3.3 3.1 1.3 3.1 3.3zm-1.2 0c0-1.8-.7-3-1.9-3s-1.9 1.1-1.9 3 .7 3 1.9 3 1.9-1.1 1.9-3z"/><path d="m284.1 512.8-2 .3v-1.6c-.4 1.1-1.2 1.7-2.2 1.7-1.2 0-1.9-.8-1.9-2v-4l-1-.2v-.3h2.1v5.3c.2.4.5.6 1.1.6 1.2 0 1.9-1.2 1.9-2.7v-2.7l-1.1-.2v-.3h2.2v5.7l1 .2v.2z"/><path d="m288.7 512.2c-.3.5-.9.9-1.8.9-.8 0-1.5-.5-1.5-1.7v-4.2h-1v-.3l1-.4.8-1.9h.3v2.1h1.8v.4h-1.8v4.1c0 .9.4 1.2 1 1.2.5 0 .8-.3 1-.5z"/><path d="m296.1 512.2c-.3.5-.9.9-1.8.9-.8 0-1.5-.5-1.5-1.7v-4.2h-1v-.3l1-.4.8-1.9h.3v2.1h1.8v.4h-1.8v4.1c0 .9.4 1.2 1 1.2.5 0 .8-.3 1-.5z"/><path d="m303.4 513h-3.1v-.3l1.1-.1v-5c-.2-.4-.6-.6-1.1-.6-1.2 0-1.9 1.2-1.9 2.7v2.9l1.1.1v.3h-3.1v-.3l1-.1v-9.4l-1-.2v-.3l2.1-.3v5.7c.4-1 1.1-1.6 2.2-1.6 1.2 0 1.9.8 1.9 2v4.1l1 .1v.3z"/><path d="m309.4 509.3h-4.3v.4c0 1.8.9 2.9 2.1 2.9 1 0 1.5-.4 1.9-.9l.3.3c-.3.5-1 1.2-2.4 1.2-1.8 0-3.1-1.4-3.1-3.3 0-2 1.5-3.3 3-3.3s2.5 1 2.5 2.5zm-1.1-.4c0-1-.3-2.1-1.4-2.1-.9 0-1.5.9-1.7 2.1z"/><path d="m320.2 513h-3.2v-.3l1.1-.1v-5c-.2-.4-.6-.6-1.1-.6-1.2 0-1.9 1.2-1.9 2.7v2.9l1.1.1v.3h-3.1v-.3l1-.1v-9.4l-1-.2v-.3l2.1-.3v5.7c.4-1 1.1-1.6 2.2-1.6 1.2 0 1.9.8 1.9 2v4.1l1 .1v.3z"/><path d="m323.7 513h-3v-.3l1-.1v-5.3l-1-.2v-.3l2.1-.3v6.1l1 .1v.3zm-.9-8.8c0 .4-.3.7-.7.7s-.7-.3-.7-.7.3-.7.7-.7.7.4.7.7z"/><path d="m328.7 511.2c0 1-.8 1.9-2.1 1.9-.6 0-1.1-.1-1.5-.4l-.2.4h-.3l-.1-2h.3c.2 1.1.8 1.6 1.7 1.6.7 0 1.2-.5 1.2-1.2 0-.8-.7-1.1-1.4-1.4-.8-.3-1.7-.8-1.7-1.9 0-1 .8-1.8 1.9-1.8.6 0 1 .1 1.4.4l.2-.3h.3v1.7h-.4c-.1-.9-.6-1.4-1.5-1.4-.7 0-1.1.5-1.1 1 0 .8.7 1.1 1.4 1.4 1 .5 1.9.9 1.9 2z"/><path d="m333.6 512.2c-.3.5-.9.9-1.8.9-.8 0-1.5-.5-1.5-1.7v-4.2h-1v-.3l1-.4.8-1.9h.3v2.1h1.8v.4h-1.8v4.1c0 .9.4 1.2 1 1.2.5 0 .8-.3 1-.5z"/><path d="m340 509.8c0 2-1.4 3.3-3.1 3.3s-3.1-1.3-3.1-3.3 1.4-3.3 3.1-3.3 3.1 1.3 3.1 3.3zm-1.2 0c0-1.8-.7-3-1.9-3s-1.9 1.1-1.9 3 .7 3 1.9 3 1.9-1.1 1.9-3z"/><path d="m345.4 506.9-.4.9c-.2-.1-.9-.5-1.1-.5-.7 0-1.2 1-1.2 2.4v3l1.4.1v.3h-3.4v-.3l1-.1v-5.3l-1-.2v-.3l2-.3v1.6c.3-1.2 1.1-1.7 1.8-1.7.3 0 .7.2.9.4z"/><path d="m352.2 507-.7.2-2.4 5.9-1.3 3.8h-1l1.9-3.9-2.3-5.8-.7-.1v-.3h2.9v.3l-1 .1 1.7 4.6 1.7-4.5-1-.1v-.3h2.3v.1z"/><path d="m353.7 512.8c0 1.1-.7 1.8-1.6 2.1l-.2-.4c.7-.2 1.2-.7 1.2-1.5l-1.2-.5c-.1-.1-.1-.3-.1-.4 0-.4.3-.7.8-.7.5.1 1.1.7 1.1 1.4z"/><path d="m361.8 512.2c-.3.5-.9.9-1.8.9-.8 0-1.5-.5-1.5-1.7v-4.2h-1v-.3l1-.4.8-1.9h.3v2.1h1.8v.4h-1.8v4.1c0 .9.4 1.2 1 1.2.5 0 .8-.3 1-.5z"/><path d="m369.1 513h-3.1v-.3l1.1-.1v-5c-.2-.4-.6-.6-1.1-.6-1.2 0-1.9 1.2-1.9 2.7v2.9l1.1.1v.3h-3.2v-.3l1-.1v-9.4l-1-.2v-.3l2.1-.3v5.7c.4-1 1.1-1.6 2.2-1.6 1.2 0 1.9.8 1.9 2v4.1l1 .1v.3z"/><path d="m375.1 509.3h-4.3v.4c0 1.8.9 2.9 2.1 2.9 1 0 1.5-.4 1.9-.9l.3.3c-.3.5-1 1.2-2.4 1.2-1.8 0-3.1-1.4-3.1-3.3 0-2 1.5-3.3 3-3.3s2.5 1 2.5 2.5zm-1.2-.4c0-1-.3-2.1-1.4-2.1-.9 0-1.5.9-1.7 2.1z"/><path d="m226.1 523.9-.4.9c-.2-.1-.9-.5-1.1-.5-.7 0-1.2 1-1.2 2.4v3l1.4.1v.3h-3.4v-.3l1-.1v-5.3l-1-.2v-.3l2-.3v1.6c.3-1.2 1.1-1.7 1.8-1.7.3 0 .7.2.9.4z"/><path d="m229.6 530h-3v-.3l1-.1v-5.3l-1-.2v-.3l2.1-.3v6.1l1 .1v.3zm-.9-8.8c0 .4-.3.7-.7.7s-.7-.3-.7-.7.3-.7.7-.7.7.4.7.7z"/><path d="m236.3 524.3-1.7-.2c.5.4.8 1 .8 1.6 0 1.5-1.3 2.3-2.5 2.4-1 .1-1.4.5-1.4.9 0 .2.1.3.2.4l2.8.3c.8.1 1.7.6 1.7 1.6 0 1.6-1.4 2.6-3.5 2.6-1.3 0-2.7-.7-2.7-2 0-.8.5-1.3 1.2-1.7-.3-.2-.5-.5-.5-.9 0-.5.4-1 1.3-1.3-.9-.3-1.6-1.1-1.6-2.2 0-1.4 1.2-2.4 2.5-2.4.5 0 1 .2 1.4.4l2-.4zm-1 7.5c0-.6-.4-1-1.1-1.1l-2.8-.3c-.4.2-.6.8-.6 1.3 0 .9.7 1.9 2.3 1.9.8 0 2.2-.6 2.2-1.8zm-1.1-5.9c0-1.2-.6-2-1.4-2-.9 0-1.4.8-1.4 2s.6 2 1.4 2c.9 0 1.4-.9 1.4-2z"/><path d="m243.6 530h-3.1v-.3l1.1-.1v-5c-.2-.4-.6-.6-1.1-.6-1.2 0-1.9 1.2-1.9 2.7v2.9l1.1.1v.3h-3.1v-.3l1-.1v-9.4l-1-.2v-.3l2.1-.3v5.7c.4-1 1.1-1.6 2.2-1.6 1.2 0 1.9.8 1.9 2v4.1l1 .1v.3z"/><path d="m248.2 529.2c-.3.5-.9.9-1.8.9-.8 0-1.5-.5-1.5-1.7v-4.2h-1v-.3l1-.4.8-1.9h.3v2.1h1.8v.4h-1.8v4.1c0 .9.4 1.2 1 1.2.5 0 .8-.3 1-.5z"/><path d="m258.3 529.8-2 .3v-1.6c-.4 1.1-1.2 1.7-2.2 1.7-1.2 0-1.9-.8-1.9-2v-4l-1-.2v-.3h2.1v5.3c.2.4.5.6 1.1.6 1.2 0 1.9-1.2 1.9-2.7v-2.7l-1.1-.2v-.3h2.2v5.7l1 .2v.2z"/><path d="m263.2 528.2c0 1-.8 1.9-2.1 1.9-.6 0-1.1-.1-1.5-.4l-.2.4h-.3l-.1-2h.3c.2 1.1.8 1.6 1.7 1.6.7 0 1.2-.5 1.2-1.2 0-.8-.7-1.1-1.4-1.4-.8-.3-1.7-.8-1.7-1.9 0-1 .8-1.8 1.9-1.8.6 0 1 .1 1.4.4l.2-.3h.3v1.7h-.3c-.1-.9-.6-1.4-1.5-1.4-.7 0-1.1.5-1.1 1 0 .8.7 1.1 1.4 1.4.9.5 1.8.9 1.8 2z"/><path d="m270 529.4c-.2.3-.7.7-1.3.7s-1-.4-1.1-.9c-.4.5-1.2.9-1.8.9-1 0-1.8-.7-1.8-1.6 0-1.1.9-1.7 2-1.9l1.5-.3v-1.1c0-.8-.3-1.2-1.2-1.2-.7 0-1.3.5-1.7 1.1l-.3-.3c.5-.8 1.3-1.4 2.2-1.4 1.3 0 2 .6 2 1.7v3.4c0 .8.3 1 .6 1 .2 0 .5-.1.6-.3zm-2.4-.5v-2.2l-1 .2c-.8.2-1.4.6-1.4 1.4 0 .7.5 1.2 1.1 1.2.4 0 .9-.2 1.3-.6z"/><path d="m276.3 524.3-1.7-.2c.5.4.8 1 .8 1.6 0 1.5-1.3 2.3-2.5 2.4-1 .1-1.4.5-1.4.9 0 .2.1.3.2.4l2.8.3c.8.1 1.7.6 1.7 1.6 0 1.6-1.4 2.6-3.5 2.6-1.3 0-2.7-.7-2.7-2 0-.8.5-1.3 1.2-1.7-.3-.2-.5-.5-.5-.9 0-.5.4-1 1.3-1.3-.9-.3-1.6-1.1-1.6-2.2 0-1.4 1.2-2.4 2.5-2.4.5 0 1 .2 1.4.4l2-.4zm-1.1 7.5c0-.6-.4-1-1.1-1.1l-2.8-.3c-.4.2-.6.8-.6 1.3 0 .9.7 1.9 2.3 1.9.9 0 2.2-.6 2.2-1.8zm-1-5.9c0-1.2-.6-2-1.4-2-.9 0-1.4.8-1.4 2s.6 2 1.4 2c.9 0 1.4-.9 1.4-2z"/><path d="m282.1 526.3h-4.3v.4c0 1.8.9 2.9 2.1 2.9 1 0 1.5-.4 1.9-.9l.3.3c-.3.5-1 1.2-2.4 1.2-1.8 0-3.1-1.4-3.1-3.3 0-2 1.5-3.3 3-3.3s2.5 1 2.5 2.5zm-1.2-.4c0-1-.3-2.1-1.4-2.1-.9 0-1.5.9-1.7 2.1z"/><path d="m291.8 529.4c-.2.3-.7.7-1.3.7s-1-.4-1.1-.9c-.4.5-1.2.9-1.8.9-1 0-1.8-.7-1.8-1.6 0-1.1.9-1.7 2-1.9l1.5-.3v-1.1c0-.8-.3-1.2-1.2-1.2-.7 0-1.3.5-1.7 1.1l-.3-.3c.5-.8 1.3-1.4 2.2-1.4 1.3 0 2 .6 2 1.7v3.4c0 .8.3 1 .6 1 .2 0 .5-.1.6-.3zm-2.4-.5v-2.2l-1 .2c-.8.2-1.4.6-1.4 1.4 0 .7.5 1.2 1.1 1.2.4 0 .9-.2 1.3-.6z"/><path d="m299.1 530h-3.1v-.3l1.1-.1v-5c-.1-.4-.6-.6-1.1-.6-1.2 0-1.9 1.2-1.9 2.7v2.9l1.1.1v.3h-3.2v-.3l1-.1v-5.3l-1-.2v-.3l2-.3v1.6c.4-1.1 1.2-1.7 2.2-1.7 1.2 0 1.9.8 1.9 2v4.1l1 .1z"/><path d="m306.2 529.8-2 .3v-1c-.4.6-.9 1-1.9 1-1.3 0-2.7-1.1-2.7-3.1 0-2.1 1.3-3.5 3-3.5.8 0 1.3.3 1.6.6v-4l-1-.2v-.3l2.1-.3v10l1 .2v.3zm-2-1.3v-3.7c-.3-.5-.9-.9-1.5-.9-1.4 0-1.9 1.5-1.9 3 0 1.6.7 2.7 1.9 2.7.9 0 1.3-.6 1.5-1.1z"/><path d="m313.8 529.2c-.3.5-.9.9-1.8.9-.8 0-1.5-.5-1.5-1.7v-4.2h-1v-.3l1-.4.8-1.9h.3v2.1h1.8v.4h-1.8v4.1c0 .9.4 1.2 1 1.2.5 0 .8-.3 1-.5z"/><path d="m321.1 530h-3.1v-.3l1.1-.1v-5c-.2-.4-.6-.6-1.1-.6-1.2 0-1.9 1.2-1.9 2.7v2.9l1.1.1v.3h-3.1v-.3l1-.1v-9.4l-1-.2v-.3l2.1-.3v5.7c.4-1 1.1-1.6 2.2-1.6 1.2 0 1.9.8 1.9 2v4.1l1 .1v.3z"/><path d="m327.2 526.3h-4.3v.4c0 1.8.9 2.9 2.1 2.9 1 0 1.5-.4 1.9-.9l.3.3c-.3.5-1 1.2-2.4 1.2-1.8 0-3.1-1.4-3.1-3.3 0-2 1.5-3.3 3-3.3s2.5 1 2.5 2.5zm-1.2-.4c0-1-.3-2.1-1.4-2.1-.9 0-1.5.9-1.7 2.1z"/><path d="m333.9 530h-3v-.3l1-.1v-9.4l-1-.2v-.3l2.1-.3v10.2l1 .1v.3z"/><path d="m340.5 529.4c-.2.3-.7.7-1.3.7s-1-.4-1.1-.9c-.4.5-1.2.9-1.8.9-1 0-1.8-.7-1.8-1.6 0-1.1.9-1.7 2-1.9l1.5-.3v-1.1c0-.8-.3-1.2-1.2-1.2-.7 0-1.3.5-1.7 1.1l-.3-.3c.5-.8 1.3-1.4 2.2-1.4 1.3 0 2 .6 2 1.7v3.4c0 .8.3 1 .6 1 .2 0 .5-.1.6-.3zm-2.5-.5v-2.2l-1 .2c-.8.2-1.4.6-1.4 1.4 0 .7.5 1.2 1.1 1.2.5 0 1-.2 1.3-.6z"/><path d="m344.6 529.2c-.3.5-.9.9-1.8.9-.8 0-1.5-.5-1.5-1.7v-4.2h-1v-.3l1-.4.8-1.9h.3v2.1h1.8v.4h-1.8v4.1c0 .9.4 1.2 1 1.2.5 0 .8-.3 1-.5z"/><path d="m350.4 526.3h-4.3v.4c0 1.8.9 2.9 2.1 2.9 1 0 1.5-.4 1.9-.9l.3.3c-.3.5-1 1.2-2.4 1.2-1.8 0-3.1-1.4-3.1-3.3 0-2 1.5-3.3 3-3.3s2.5 1 2.5 2.5zm-1.2-.4c0-1-.3-2.1-1.4-2.1-.9 0-1.5.9-1.7 2.1z"/><path d="m355.5 528.2c0 1-.8 1.9-2.1 1.9-.6 0-1.1-.1-1.5-.4l-.1.4h-.3l-.1-2h.3c.2 1.1.8 1.6 1.7 1.6.7 0 1.2-.5 1.2-1.2 0-.8-.7-1.1-1.4-1.4-.8-.3-1.7-.8-1.7-1.9 0-1 .8-1.8 1.9-1.8.6 0 1 .1 1.4.4l.2-.3h.3v1.7h-.3c-.2-.9-.6-1.4-1.5-1.4-.7 0-1.1.5-1.1 1 0 .8.7 1.1 1.4 1.4.9.5 1.7.9 1.7 2z"/><path d="m360.4 529.2c-.3.5-.9.9-1.8.9-.8 0-1.5-.5-1.5-1.7v-4.2h-1v-.3l1-.4.8-1.9h.3v2.1h1.8v.4h-1.8v4.1c0 .9.4 1.2 1 1.2.5 0 .8-.3 1-.5z"/><path d="m225.5 546.2c-.3.5-.9.9-1.8.9-.8 0-1.5-.5-1.5-1.7v-4.2h-1v-.3l1-.4.8-1.9h.3v2.1h1.8v.4h-1.8v4.1c0 .9.4 1.2 1 1.2.5 0 .8-.3 1-.5z"/><path d="m230.5 540.9-.4.9c-.2-.1-.9-.5-1.1-.5-.7 0-1.2 1-1.2 2.4v3l1.4.1v.3h-3.4v-.3l1-.1v-5.3l-1-.2v-.3l2-.3v1.6c.3-1.2 1.1-1.7 1.8-1.7.3 0 .7.2.9.4z"/><path d="m236.4 543.3h-4.4v.4c0 1.8.9 2.9 2.1 2.9 1 0 1.5-.4 1.9-.9l.3.3c-.3.5-1 1.2-2.4 1.2-1.8 0-3.1-1.4-3.1-3.3 0-2 1.5-3.3 3-3.3s2.5 1 2.5 2.5v.2zm-1.2-.4c0-1-.3-2.1-1.4-2.1-.9 0-1.5.9-1.7 2.1z"/><path d="m244.2 547h-3.1v-.3l1.1-.1v-5c-.2-.4-.6-.6-1.1-.6-1.2 0-1.9 1.2-1.9 2.7v2.9l1.1.1v.3h-3.1v-.3l1-.1v-5.3l-1-.2v-.3l2-.3v1.6c.4-1.1 1.2-1.7 2.2-1.7 1.2 0 1.9.8 1.9 2v4.1l1 .1v.4z"/><path d="m251.4 546.8-2 .3v-1c-.4.6-.9 1-1.9 1-1.3 0-2.7-1.1-2.7-3.1 0-2.1 1.3-3.5 3-3.5.8 0 1.3.3 1.6.6v-4l-1-.2v-.3l2.1-.3v10l1 .2v.3zm-2.1-1.3v-3.7c-.3-.5-.9-.9-1.5-.9-1.4 0-1.9 1.5-1.9 3 0 1.6.7 2.7 1.9 2.7.9 0 1.3-.6 1.5-1.1z"/><path d="m256.2 545.2c0 1-.8 1.9-2.1 1.9-.6 0-1.1-.1-1.5-.4l-.1.4h-.3l-.1-2h.3c.2 1.1.8 1.6 1.7 1.6.7 0 1.2-.5 1.2-1.2 0-.8-.7-1.1-1.4-1.4-.8-.3-1.7-.8-1.7-1.9 0-1 .8-1.8 1.9-1.8.6 0 1 .1 1.4.4l.2-.3h.3v1.7h-.3c-.2-.9-.6-1.4-1.5-1.4-.7 0-1.1.5-1.1 1 0 .8.7 1.1 1.4 1.4.9.5 1.7.9 1.7 2z"/><path d="m270 541-.7.2-2.5 6h-.2l-1.8-4.5-1.8 4.5h-.2l-2.5-6.1-.7-.1v-.3h2.9v.3l-1 .1 1.7 4.3 1.3-3.3-.4-1-.7-.1v-.3h2.9v.3l-1 .1v.1l1.7 4.3 1.7-4.3-1-.1v-.3h2.3z"/><path d="m277.2 547h-3.2v-.3l1.1-.1v-5c-.2-.4-.6-.6-1.1-.6-1.2 0-1.9 1.2-1.9 2.7v2.9l1.1.1v.3h-3.1v-.3l1-.1v-9.4l-1-.2v-.3l2.1-.3v5.7c.4-1 1.1-1.6 2.2-1.6 1.2 0 1.9.8 1.9 2v4.1l1 .1v.3z"/><path d="m280.7 547h-3v-.3l1-.1v-5.3l-1-.2v-.3l2.1-.3v6.1l1 .1v.3zm-.9-8.8c0 .4-.3.7-.7.7s-.7-.3-.7-.7.3-.7.7-.7.7.4.7.7z"/><path d="m286.8 546c-.3.5-1 1.2-2.4 1.2-1.7 0-3.1-1.4-3.1-3.4s1.5-3.3 3.1-3.3c.7 0 1.2.1 1.8.4l.2-.4h.3l-.1 1.8h-.3c-.2-.9-.8-1.5-1.8-1.5-1.2 0-2 1.1-2 2.8s.9 2.9 2.1 2.9c1 0 1.5-.4 1.9-.9z"/><path d="m294.4 547h-3.1v-.3l1.1-.1v-5c-.2-.4-.6-.6-1.1-.6-1.2 0-1.9 1.2-1.9 2.7v2.9l1.1.1v.3h-3.1v-.3l1-.1v-9.4l-1-.2v-.3l2.1-.3v5.7c.4-1 1.1-1.6 2.2-1.6 1.2 0 1.9.8 1.9 2v4.1l1 .1v.3z"/><path d="m304.8 547h-3.1v-.3l1.1-.1v-5c-.2-.4-.6-.6-1.1-.6-1.2 0-1.9 1.2-1.9 2.7v2.9l1.1.1v.3h-3.1v-.3l1-.1v-9.4l-1-.2v-.3l2.1-.3v5.7c.4-1 1.1-1.6 2.2-1.6 1.2 0 1.9.8 1.9 2v4.1l1 .1v.3z"/><path d="m311.3 546.4c-.2.3-.7.7-1.3.7s-1-.4-1.1-.9c-.5.5-1.2.9-1.8.9-1 0-1.8-.7-1.8-1.6 0-1.1.9-1.7 2-1.9l1.5-.3v-1.1c0-.8-.3-1.2-1.2-1.2-.7 0-1.3.5-1.7 1.1l-.3-.3c.5-.8 1.3-1.4 2.2-1.4 1.4 0 2 .6 2 1.7v3.4c0 .8.3 1 .6 1 .2 0 .5-.1.6-.3zm-2.4-.5v-2.2l-1 .2c-.8.2-1.4.6-1.4 1.4 0 .7.5 1.2 1.1 1.2.4 0 .9-.2 1.3-.6z"/><path d="m317.2 541-.7.2-2.5 6h-.2l-2.5-6.1-.7-.1v-.3h2.9v.3l-1 .1 1.7 4.4 1.7-4.3-1-.1v-.3h2.3z"/><path d="m322.8 543.3h-4.3v.4c0 1.8.9 2.9 2.1 2.9 1 0 1.5-.4 1.9-.9l.3.3c-.3.5-1 1.2-2.4 1.2-1.8 0-3.1-1.4-3.1-3.3 0-2 1.5-3.3 3-3.3s2.5 1 2.5 2.5zm-1.1-.4c0-1-.3-2.1-1.4-2.1-.9 0-1.5.9-1.7 2.1z"/><path d="m332.1 543.3h-4.3v.4c0 1.8.9 2.9 2.1 2.9 1 0 1.5-.4 1.9-.9l.3.3c-.3.5-1 1.2-2.4 1.2-1.8 0-3.1-1.4-3.1-3.3 0-2 1.5-3.3 3-3.3s2.5 1 2.5 2.5zm-1.1-.4c0-1-.3-2.1-1.4-2.1-.9 0-1.5.9-1.7 2.1z"/><path d="m340 547h-3.1v-.3l1.1-.1v-5c-.2-.4-.6-.6-1.1-.6-1.2 0-1.9 1.2-1.9 2.7v2.9l1.1.1v.3h-3.1v-.3l1-.1v-5.3l-1-.2v-.3l2-.3v1.6c.4-1.1 1.2-1.7 2.2-1.7 1.2 0 1.9.8 1.9 2v4.1l1 .1v.4z"/><path d="m347.4 547h-3.1v-.3l1.1-.1v-5c-.2-.4-.6-.6-1.1-.6-1.2 0-1.9 1.2-1.9 2.7v2.9l1.1.1v.3h-3.1v-.3l1-.1v-9.4l-1-.2v-.3l2.1-.3v5.7c.4-1 1.1-1.6 2.2-1.6 1.2 0 1.9.8 1.9 2v4.1l1 .1v.3z"/><path d="m353.9 546.4c-.2.3-.7.7-1.3.7s-1-.4-1.1-.9c-.5.5-1.2.9-1.8.9-1 0-1.8-.7-1.8-1.6 0-1.1.9-1.7 2-1.9l1.5-.3v-1.1c0-.8-.3-1.2-1.2-1.2-.7 0-1.3.5-1.7 1.1l-.3-.3c.5-.8 1.3-1.4 2.2-1.4 1.4 0 2 .6 2 1.7v3.4c0 .8.3 1 .6 1 .2 0 .5-.1.6-.3zm-2.4-.5v-2.2l-1 .2c-.8.2-1.4.6-1.4 1.4 0 .7.5 1.2 1.1 1.2.4 0 .9-.2 1.3-.6z"/><path d="m361.2 547h-3.2v-.3l1.1-.1v-5c-.2-.4-.6-.6-1.1-.6-1.2 0-1.9 1.2-1.9 2.7v2.9l1.1.1v.3h-3.1v-.3l1-.1v-5.3l-1-.2v-.3l2-.3v1.6c.4-1.1 1.2-1.7 2.2-1.7 1.2 0 1.9.8 1.9 2v4.1l1 .1z"/><path d="m367.1 546c-.3.5-1 1.2-2.4 1.2-1.7 0-3.1-1.4-3.1-3.4s1.5-3.3 3.1-3.3c.7 0 1.2.1 1.8.4l.2-.4h.3l-.1 1.8h-.3c-.2-.9-.8-1.5-1.8-1.5-1.2 0-2 1.1-2 2.8s.9 2.9 2.1 2.9c1 0 1.5-.4 1.9-.9z"/><path d="m373.3 543.3h-4.3v.4c0 1.8.9 2.9 2.1 2.9 1 0 1.5-.4 1.9-.9l.3.3c-.3.5-1 1.2-2.4 1.2-1.8 0-3.1-1.4-3.1-3.3 0-2 1.5-3.3 3-3.3s2.5 1 2.5 2.5zm-1.2-.4c0-1-.3-2.1-1.4-2.1-.9 0-1.5.9-1.7 2.1z"/><path d="m380.7 546.8-2 .3v-1c-.4.6-.9 1-1.9 1-1.3 0-2.7-1.1-2.7-3.1 0-2.1 1.3-3.5 3-3.5.8 0 1.3.3 1.6.6v-4l-1-.2v-.3l2.1-.3v10l1 .2v.3zm-2-1.3v-3.7c-.3-.5-.9-.9-1.5-.9-1.4 0-1.9 1.5-1.9 3 0 1.6.7 2.7 1.9 2.7.8 0 1.2-.6 1.5-1.1z"/><path d="m227.9 560.6c0 2.1-1.3 3.5-3.1 3.5-.7 0-1.1-.2-1.5-.4v3.7l1.4.1v.3h-3.4v-.3l1-.1v-9.1l-1-.2v-.3l2-.3v1c.4-.6 1.1-1.1 2-1.1 1.3.1 2.6 1.2 2.6 3.2zm-1.2.1c0-1.6-.6-2.7-1.8-2.7-.8 0-1.4.5-1.7 1.1v4c.3.3.9.6 1.4.6 1.5 0 2.1-1.5 2.1-3z"/><path d="m233.2 557.9-.4.9c-.2-.1-.9-.5-1.1-.5-.7 0-1.2 1-1.2 2.4v3l1.4.1v.3h-3.4v-.3l1-.1v-5.3l-1-.2v-.3l2-.3v1.6c.3-1.2 1.1-1.7 1.8-1.7.4 0 .8.2.9.4z"/><path d="m239.1 560.3h-4.3v.4c0 1.8.9 2.9 2.1 2.9 1 0 1.5-.4 1.9-.9l.3.3c-.3.5-1 1.2-2.4 1.2-1.8 0-3.1-1.4-3.1-3.3 0-2 1.5-3.3 3-3.3s2.5 1 2.5 2.5zm-1.2-.4c0-1-.3-2.1-1.4-2.1-.9 0-1.5.9-1.7 2.1z"/><path d="m243.9 563.2c-.3.5-.9.9-1.8.9-.8 0-1.5-.5-1.5-1.7v-4.2h-1v-.3l1-.4.8-1.9h.3v2.1h1.8v.4h-1.8v4.1c0 .9.4 1.2 1 1.2.5 0 .8-.3 1-.5z"/><path d="m248.2 563.2c-.3.5-.9.9-1.8.9-.8 0-1.5-.5-1.5-1.7v-4.2h-1v-.3l1-.4.8-1.9h.3v2.1h1.8v.4h-1.8v4.1c0 .9.4 1.2 1 1.2.5 0 .8-.3 1-.5z"/><path d="m254.7 558-.7.2-2.4 5.9-1.3 3.8h-1l1.9-3.9-2.3-5.8-.7-.1v-.3h2.9v.3l-1 .1 1.7 4.6 1.7-4.5-1-.1v-.3h2.3v.1z"/><path d="m268.9 564h-3.1v-.3l1.1-.1v-5c-.2-.4-.4-.6-1-.6-1 0-1.8 1.1-1.8 2.7v2.9l1.1.1v.3h-3.2v-.3l1.1-.1v-5c-.2-.4-.4-.6-1-.6-1 0-1.8 1.1-1.8 2.7v2.9l1.1.1v.3h-3.4v-.3l1-.1v-5.3l-1-.2v-.3l2-.3v1.6c.3-.9 1.1-1.7 2.1-1.7s1.7.6 1.8 1.7c.3-1 1.1-1.7 2.1-1.7 1.1 0 1.8.8 1.8 2v4.1l1 .1v.4z"/><path d="m276.2 563.8-2 .3v-1.6c-.4 1.1-1.2 1.7-2.2 1.7-1.2 0-1.9-.8-1.9-2v-4l-1-.2v-.3h2.1v5.3c.2.4.5.6 1.1.6 1.2 0 1.9-1.2 1.9-2.7v-2.7l-1.2-.2v-.3h2.2v5.7l1 .2z"/><path d="m282.1 563c-.3.5-1 1.2-2.4 1.2-1.7 0-3.1-1.4-3.1-3.4s1.5-3.3 3.1-3.3c.7 0 1.2.1 1.8.4l.2-.4h.3l-.1 1.8h-.3c-.2-.9-.8-1.5-1.8-1.5-1.2 0-2 1.1-2 2.8s.9 2.9 2.1 2.9c1 0 1.5-.4 1.9-.9z"/><path d="m289.8 564h-3.1v-.3l1.1-.1v-5c-.2-.4-.6-.6-1.1-.6-1.2 0-1.9 1.2-1.9 2.7v2.9l1.1.1v.3h-3.1v-.3l1-.1v-9.4l-1-.2v-.3l2.1-.3v5.7c.4-1 1.1-1.6 2.2-1.6 1.2 0 1.9.8 1.9 2v4.1l1 .1v.3z"/><path d="m298.8 560.3h-4.3v.4c0 1.8.9 2.9 2.1 2.9 1 0 1.5-.4 1.9-.9l.3.3c-.3.5-1 1.2-2.4 1.2-1.8 0-3.1-1.4-3.1-3.3 0-2 1.5-3.3 3-3.3s2.5 1 2.5 2.5zm-1.2-.4c0-1-.3-2.1-1.4-2.1-.9 0-1.5.9-1.7 2.1z"/><path d="m305.5 558-.7.2-2.5 6h-.2l-2.5-6.1-.6-.1v-.3h2.9v.3l-1 .1 1.7 4.4 1.7-4.3-1-.1v-.3h2.3v.2z"/><path d="m311.1 560.3h-4.3v.4c0 1.8.9 2.9 2.1 2.9 1 0 1.5-.4 1.9-.9l.3.3c-.3.5-1 1.2-2.4 1.2-1.8 0-3.1-1.4-3.1-3.3 0-2 1.5-3.3 3-3.3s2.5 1 2.5 2.5zm-1.1-.4c0-1-.3-2.1-1.4-2.1-.9 0-1.5.9-1.7 2.1z"/><path d="m316.6 557.9-.4.9c-.2-.1-.9-.5-1.1-.5-.7 0-1.2 1-1.2 2.4v3l1.4.1v.3h-3.4v-.3l1-.1v-5.3l-1-.2v-.3l2-.3v1.6c.3-1.2 1.1-1.7 1.8-1.7.3 0 .7.2.9.4z"/><path d="m324.4 562.2c0 1-.8 1.9-2.1 1.9-.6 0-1.1-.1-1.5-.4l-.1.4h-.3l-.1-2h.3c.2 1.1.8 1.6 1.7 1.6.7 0 1.2-.5 1.2-1.2 0-.8-.7-1.1-1.4-1.4-.8-.3-1.7-.8-1.7-1.9 0-1 .8-1.8 1.9-1.8.6 0 1 .1 1.4.4l.2-.3h.3v1.7h-.3c-.2-.9-.6-1.4-1.5-1.4-.7 0-1.1.5-1.1 1 0 .8.7 1.1 1.4 1.4.8.5 1.7.9 1.7 2z"/><path d="m328.3 564h-3v-.3l1-.1v-5.3l-1-.2v-.3l2.1-.3v6.1l1 .1v.3zm-.9-8.8c0 .4-.3.7-.7.7s-.7-.3-.7-.7.3-.7.7-.7.7.4.7.7z"/><path d="m336 564h-3.1v-.3l1.1-.1v-5c-.1-.4-.6-.6-1.1-.6-1.2 0-1.9 1.2-1.9 2.7v2.9l1.1.1v.3h-3.1v-.3l1-.1v-5.3l-1-.2v-.3l2-.3v1.6c.4-1.1 1.2-1.7 2.2-1.7 1.2 0 1.9.8 1.9 2v4.1l1 .1v.4z"/><path d="m341.9 563c-.3.5-1 1.2-2.4 1.2-1.7 0-3.1-1.4-3.1-3.4s1.5-3.3 3.1-3.3c.7 0 1.2.1 1.8.4l.2-.4h.3l-.1 1.8h-.3c-.2-.9-.8-1.5-1.8-1.5-1.2 0-2 1.1-2 2.8s.9 2.9 2.1 2.9c1 0 1.5-.4 1.9-.9z"/><path d="m348.1 560.3h-4.3v.4c0 1.8.9 2.9 2.1 2.9 1 0 1.5-.4 1.9-.9l.3.3c-.3.5-1 1.2-2.4 1.2-1.8 0-3.1-1.4-3.1-3.3 0-2 1.5-3.3 3-3.3s2.5 1 2.5 2.5zm-1.2-.4c0-1-.3-2.1-1.4-2.1-.9 0-1.5.9-1.7 2.1z"/><path d="m350.8 563.3c0 .4-.3.8-.8.8-.4 0-.8-.3-.8-.8 0-.4.3-.8.8-.8.4.1.8.4.8.8z"/><path d="m228.1 573.3h-.4l-.2-1.5h-3.5v4.1h2.6l.1-1h.4v2.5h-.4l-.1-1h-2.6v4.2l1.5.1v.3h-3.8v-.3l1.2-.1v-8.8l-1.2-.1v-.3h6.5v1.9z"/><path d="m234.4 577.8c0 2-1.4 3.3-3.1 3.3s-3.1-1.3-3.1-3.3 1.4-3.3 3.1-3.3 3.1 1.3 3.1 3.3zm-1.2 0c0-1.8-.7-3-1.9-3s-1.9 1.1-1.9 3 .7 3 1.9 3 1.9-1.1 1.9-3z"/><path d="m240.6 580c-.3.5-1 1.2-2.4 1.2-1.7 0-3.1-1.4-3.1-3.4s1.5-3.3 3.1-3.3c.7 0 1.2.1 1.8.4l.2-.4h.3l-.1 1.8h-.3c-.2-.9-.8-1.5-1.8-1.5-1.2 0-2 1.1-2 2.8s.9 2.9 2.1 2.9c1 0 1.5-.4 1.9-.9z"/><path d="m248.1 580.8-2 .3v-1.6c-.4 1.1-1.2 1.7-2.2 1.7-1.2 0-1.9-.8-1.9-2v-4l-1-.2v-.3h2.1v5.3c.2.4.5.6 1.1.6 1.2 0 1.9-1.2 1.9-2.7v-2.7l-1.1-.2v-.3h2.2v5.7l1 .2v.2z"/><path d="m253 579.2c0 1-.8 1.9-2.1 1.9-.6 0-1.1-.1-1.5-.4l-.2.4h-.3l-.1-2h.3c.2 1.1.8 1.6 1.7 1.6.7 0 1.2-.5 1.2-1.2 0-.8-.7-1.1-1.4-1.4-.8-.3-1.7-.8-1.7-1.9 0-1 .8-1.8 1.9-1.8.6 0 1 .1 1.4.4l.2-.3h.3v1.7h-.3c-.1-.9-.6-1.4-1.5-1.4-.7 0-1.1.5-1.1 1 0 .8.7 1.1 1.4 1.4.9.5 1.8.9 1.8 2z"/><path d="m263 577.8c0 2-1.4 3.3-3.1 3.3s-3.1-1.3-3.1-3.3 1.4-3.3 3.1-3.3 3.1 1.3 3.1 3.3zm-1.2 0c0-1.8-.7-3-1.9-3s-1.9 1.1-1.9 3 .7 3 1.9 3 1.9-1.1 1.9-3z"/><path d="m270.8 581h-3.1v-.3l1.1-.1v-5c-.2-.4-.6-.6-1.1-.6-1.2 0-1.9 1.2-1.9 2.7v2.9l1.1.1v.3h-3.1v-.3l1-.1v-5.3l-1-.2v-.3l2-.3v1.6c.4-1.1 1.2-1.7 2.2-1.7 1.2 0 1.9.8 1.9 2v4.1l1 .1v.4z"/><path d="m278.4 580.2c-.3.5-.9.9-1.8.9-.8 0-1.5-.5-1.5-1.7v-4.2h-1v-.3l1-.4.8-1.9h.3v2.1h1.8v.4h-1.8v4.1c0 .9.4 1.2 1 1.2.5 0 .8-.3 1-.5z"/><path d="m285.7 581h-3.1v-.3l1.1-.1v-5c-.2-.4-.6-.6-1.1-.6-1.2 0-1.9 1.2-1.9 2.7v2.9l1.1.1v.3h-3.1v-.3l1-.1v-9.4l-1-.2v-.3l2.1-.3v5.7c.4-1 1.1-1.6 2.2-1.6 1.2 0 1.9.8 1.9 2v4.1l1 .1v.3z"/><path d="m291.7 577.3h-4.3v.4c0 1.8.9 2.9 2.1 2.9 1 0 1.5-.4 1.9-.9l.3.3c-.3.5-1 1.2-2.4 1.2-1.8 0-3.1-1.4-3.1-3.3 0-2 1.5-3.3 3-3.3s2.5 1 2.5 2.5zm-1.2-.4c0-1-.3-2.1-1.4-2.1-.9 0-1.5.9-1.7 2.1z"/><path d="m302 577.4-.2.7h-1.4v3h-1v-3h-4l-.2-.5 4.9-6.6.3.1v6.3zm-2.6 0v-4.4l-3.3 4.4z"/><path d="m309.1 580.8-2 .3v-1c-.4.6-.9 1-1.9 1-1.3 0-2.7-1.1-2.7-3.1 0-2.1 1.3-3.5 3-3.5.8 0 1.3.3 1.6.6v-4l-1-.2v-.3l2.1-.3v10l1 .2v.3zm-2-1.3v-3.7c-.3-.5-.9-.9-1.5-.9-1.4 0-1.9 1.5-1.9 3 0 1.6.7 2.7 1.9 2.7.9 0 1.3-.6 1.5-1.1z"/><path d="m316.1 577.6c0 2.1-1.4 3.5-3.1 3.5-.7 0-1.1-.2-1.5-.4v3.7l1.4.1v.3h-3.4v-.3l1-.1v-9.1l-1-.2v-.3l2-.3v1c.4-.6 1.1-1.1 2-1.1 1.3.1 2.6 1.2 2.6 3.2zm-1.1.1c0-1.6-.6-2.7-1.8-2.7-.8 0-1.4.5-1.6 1.1v4c.3.3.9.6 1.3.6 1.5 0 2.1-1.5 2.1-3z"/><path d="m325.9 575.3-1.7-.2c.5.4.8 1 .8 1.6 0 1.5-1.3 2.3-2.5 2.4-1 .1-1.4.5-1.4.9 0 .2.1.3.2.4l2.8.3c.8.1 1.7.6 1.7 1.6 0 1.6-1.4 2.6-3.5 2.6-1.3 0-2.7-.7-2.7-2 0-.8.5-1.3 1.2-1.7-.3-.2-.5-.5-.5-.9 0-.5.4-1 1.3-1.3-.9-.3-1.6-1.1-1.6-2.2 0-1.4 1.2-2.4 2.5-2.4.5 0 1 .2 1.4.4l2-.4zm-1 7.5c0-.6-.4-1-1.1-1.1l-2.8-.3c-.4.2-.6.8-.6 1.3 0 .9.7 1.9 2.3 1.9.9 0 2.2-.6 2.2-1.8zm-1-5.9c0-1.2-.6-2-1.4-2-.9 0-1.4.8-1.4 2s.6 2 1.4 2 1.4-.9 1.4-2z"/><path d="m331 574.9-.4.9c-.2-.1-.9-.5-1.1-.5-.7 0-1.2 1-1.2 2.4v3l1.4.1v.3h-3.4v-.3l1-.1v-5.3l-1-.2v-.3l2-.3v1.6c.3-1.2 1.1-1.7 1.8-1.7.3 0 .7.2.9.4z"/><path d="m334.5 581h-3v-.3l1-.1v-5.3l-1-.2v-.3l2.1-.3v6.1l1 .1v.3zm-.9-8.8c0 .4-.3.7-.7.7s-.7-.3-.7-.7.3-.7.7-.7.7.4.7.7z"/><path d="m341.7 580.8-2 .3v-1c-.4.6-.9 1-1.9 1-1.3 0-2.7-1.1-2.7-3.1 0-2.1 1.3-3.5 3-3.5.8 0 1.3.3 1.6.6v-4l-1-.2v-.3l2.1-.3v10l1 .2v.3zm-2-1.3v-3.7c-.3-.5-.9-.9-1.5-.9-1.4 0-1.9 1.5-1.9 3 0 1.6.7 2.7 1.9 2.7.9 0 1.3-.6 1.5-1.1z"/><path d="m349.3 580.2c-.3.5-.9.9-1.8.9-.8 0-1.5-.5-1.5-1.7v-4.2h-1v-.3l1-.4.8-1.9h.3v2.1h1.8v.4h-1.8v4.1c0 .9.4 1.2 1 1.2.5 0 .8-.3 1-.5z"/><path d="m355.8 577.8c0 2-1.4 3.3-3.1 3.3s-3.1-1.3-3.1-3.3 1.4-3.3 3.1-3.3 3.1 1.3 3.1 3.3zm-1.2 0c0-1.8-.7-3-1.9-3s-1.9 1.1-1.9 3 .7 3 1.9 3 1.9-1.1 1.9-3z"/><path d="m363.8 579.2c0 1-.8 1.9-2.1 1.9-.6 0-1.1-.1-1.5-.4l-.1.4h-.3l-.1-2h.3c.2 1.1.8 1.6 1.7 1.6.7 0 1.2-.5 1.2-1.2 0-.8-.7-1.1-1.4-1.4-.8-.3-1.7-.8-1.7-1.9 0-1 .8-1.8 1.9-1.8.6 0 1 .1 1.4.4l.2-.3h.3v1.7h-.3c-.2-.9-.6-1.4-1.5-1.4-.7 0-1.1.5-1.1 1 0 .8.7 1.1 1.4 1.4.9.5 1.7.9 1.7 2z"/><path d="m368.8 580.2c-.3.5-.9.9-1.8.9-.8 0-1.5-.5-1.5-1.7v-4.2h-1v-.3l1-.4.8-1.9h.3v2.1h1.8v.4h-1.8v4.1c0 .9.4 1.2 1 1.2.5 0 .8-.3 1-.5z"/><path d="m375.1 580.4c-.2.3-.7.7-1.3.7s-1-.4-1.1-.9c-.5.5-1.2.9-1.8.9-1 0-1.8-.7-1.8-1.6 0-1.1.9-1.7 2-1.9l1.5-.3v-1.1c0-.8-.3-1.2-1.2-1.2-.7 0-1.3.5-1.7 1.1l-.3-.3c.5-.8 1.3-1.4 2.2-1.4 1.4 0 2 .6 2 1.7v3.4c0 .8.3 1 .6 1 .2 0 .5-.1.6-.3zm-2.4-.5v-2.2l-1 .2c-.8.2-1.4.6-1.4 1.4 0 .7.5 1.2 1.1 1.2.4 0 .9-.2 1.3-.6z"/><path d="m381.1 575-.7.2-2.4 5.9-1.3 3.8h-1l1.9-3.9-2.3-5.8-.7-.1v-.3h2.9v.3l-1 .1 1.7 4.6 1.7-4.5-1-.1v-.3h2.3v.1z"/><path d="m224.4 598h-3v-.3l1-.1v-5.3l-1-.2v-.3l2.1-.3v6.1l1 .1v.3zm-.9-8.8c0 .4-.3.7-.7.7s-.7-.3-.7-.7.3-.7.7-.7.7.4.7.7z"/><path d="m232.1 598h-3.1v-.3l1.1-.1v-5c-.1-.4-.6-.6-1.1-.6-1.2 0-1.9 1.2-1.9 2.7v2.9l1.1.1v.3h-3.1v-.3l1-.1v-5.3l-1-.2v-.3l2-.3v1.6c.4-1.1 1.2-1.7 2.2-1.7 1.2 0 1.9.8 1.9 2v4.1l1 .1v.4z"/><path d="m238.6 598h-3v-.3l1-.1v-9.4l-1-.2v-.3l2.1-.3v10.2l1 .1v.3z"/><path d="m242.2 598h-3v-.3l1-.1v-5.3l-1-.2v-.3l2.1-.3v6.1l1 .1v.3zm-.9-8.8c0 .4-.3.7-.7.7s-.7-.3-.7-.7.3-.7.7-.7.7.4.7.7z"/><path d="m249.9 598h-3.1v-.3l1.1-.1v-5c-.2-.4-.6-.6-1.1-.6-1.2 0-1.9 1.2-1.9 2.7v2.9l1.1.1v.3h-3.1v-.3l1-.1v-5.3l-1-.2v-.3l2-.3v1.6c.4-1.1 1.2-1.7 2.2-1.7 1.2 0 1.9.8 1.9 2v4.1l1 .1v.4z"/><path d="m256 594.3h-4.3v.4c0 1.8.9 2.9 2.1 2.9 1 0 1.5-.4 1.9-.9l.3.3c-.3.5-1 1.2-2.4 1.2-1.8 0-3.1-1.4-3.1-3.3 0-2 1.5-3.3 3-3.3s2.5 1 2.5 2.5zm-1.2-.4c0-1-.3-2.1-1.4-2.1-.9 0-1.5.9-1.7 2.1z"/><path d="m258.7 597.3c0 .4-.3.8-.8.8-.4 0-.8-.3-.8-.8 0-.4.3-.8.8-.8.4.1.8.4.8.8z"/><path d="m395.2 90.7v3.6h-.4l-.1-1.4-3 1.1v3.7l3 1.1.2-1.3h.4v2.8h-.4l-.2-.9-9.8-3.7v-.4l9.9-3.8.1-.9h.3zm-4 3.5-4.5 1.7 4.5 1.7z"/><path d="m395.2 87.2v3.2h-.3l-.1-1h-10.1l-.2 1h-.3l-.3-2.2h10.9l.1-1z"/><path d="m395.2 83.5v3.2h-.3l-.1-1h-10.1l-.2 1h-.3l-.3-2.2h10.9l.1-1z"/><path d="m394.4 75.2c.5.4.9.9.9 1.9 0 .9-.6 1.6-1.8 1.6h-4.5v1.1h-.3l-.4-1-2-.8v-.4h2.2v-2h.5v2h4.4c.9 0 1.3-.4 1.3-1 0-.5-.3-.9-.6-1.1z"/><path d="m388.7 69.9 1 .4c-.1.2-.5 1-.5 1.1 0 .8 1.1 1.2 2.5 1.2h3.2l.1-1.5h.3v3.7h-.3l-.1-1h-5.6l-.2 1h-.3l-.3-2.1h1.7c-1.2-.4-1.8-1.1-1.8-2-.1-.2.1-.6.3-.8z"/><path d="m388.8 62.6.2.8 6.3 2.5 4 1.4v1.1l-4.1-2-6.2 2.5-.2.8h-.3v-3.1h.3l.1 1.1 4.9-1.8-4.8-1.9-.2 1.1h-.3v-2.4h.3z"/><path d="m395.2 59v3.2h-.3l-.1-1h-5.7l-.2 1h-.3l-.4-2.2h6.5l.1-1zm-9.3 1c.4 0 .7.3.7.7s-.3.7-.7.7-.7-.3-.7-.7.3-.7.7-.7z"/><path d="m395.2 50.8v3.3h-.3l-.1-1.2h-5.3c-.4.2-.6.6-.6 1.2 0 1.3 1.3 2 2.9 2h3.1l.1-1.2h.3v3.3h-.3l-.1-1h-5.6l-.2 1h-.3l-.3-2.1h1.7c-1.1-.4-1.8-1.2-1.8-2.4s.9-2 2.1-2h4.4l.1-1h.2z"/><path d="m389.2 43.8-.2 1.8c.4-.6 1.1-.8 1.8-.8 1.6 0 2.4 1.3 2.5 2.7.1 1 .5 1.5 1 1.5.2 0 .3-.1.4-.2l.3-3c.1-.8.6-1.8 1.7-1.8 1.7 0 2.8 1.5 2.8 3.7 0 1.4-.8 2.8-2.2 2.8-.9 0-1.4-.6-1.8-1.3-.2.3-.6.5-1 .5-.5 0-1.1-.4-1.4-1.4-.4 1-1.2 1.7-2.4 1.7-1.5 0-2.5-1.2-2.5-2.7 0-.6.2-1.1.4-1.5l-.4-2.1h1zm8 1c-.7 0-1.1.4-1.2 1.1l-.3 2.9c.3.4.8.7 1.4.7 1 0 2-.8 2-2.4 0-.8-.6-2.3-1.9-2.3zm-6.4 1.1c-1.2 0-2.1.6-2.1 1.5s.9 1.5 2.1 1.5 2.1-.6 2.1-1.5c.1-.9-.8-1.5-2.1-1.5z"/><path d="m394.5 41.5c.5 0 .8.4.8.8s-.4.8-.8.8-.8-.4-.8-.8.4-.8.8-.8z"/></svg>